<svg id="Grupo_1080887" data-name="Grupo 1080887" xmlns="http://www.w3.org/2000/svg" xmlns:xlink="http://www.w3.org/1999/xlink" width="130.5" height="130.925" viewBox="0 0 130.5 130.925">
  <defs>
    <clipPath id="clip-path">
      <rect id="Rectángulo_379517" data-name="Rectángulo 379517" width="130.5" height="130.925" fill="none"/>
    </clipPath>
  </defs>
  <g id="Grupo_1080886" data-name="Grupo 1080886" clip-path="url(#clip-path)">
    <path id="Trazado_832781" data-name="Trazado 832781" d="M8.927,63.4c.082-6.454-.983-12.784.622-19.164.467-1.856-1.039-4.083-.875-6.3.131-1.76.83-2.739,2.641-2.7,7.042.148,14.1-.393,21.307.414,0-7.347-.007-14.852,0-22.358C32.632,5.11,37.248.457,45.353.435q2.31-.007,4.619,0c7.962.009,12.172,3.715,13.291,12.1a18.135,18.135,0,0,1,4.366-7.742c6.485-6.295,23.247-6.422,29.8-.178a14.914,14.914,0,0,1,4.75,10.611c.076,2.081.1,4.169,0,6.248-.158,3.5.06,6.713,2.729,9.538,1.784,1.888,2.042,4.622,1.405,7.2-.281,1.133-.067,1.356,1.03,1.406a14.166,14.166,0,0,1,8.9,3.523,4.087,4.087,0,0,0,3.015.781c6.649.133,11.147,4.683,11.194,11.384.036,5.162-.069,10.326.042,15.487.048,2.229-.547,3.66-3.229,3.692,2.641,3.229,3.332,6.767,3.222,10.6-.122,4.254-.035,8.513-.026,12.77a10.374,10.374,0,0,1-4.684,9.26,2.568,2.568,0,0,0-1.194,3.149c1.136,5.488,2.21,10.988,3.319,16.481.712,3.527.214,4.144-3.471,4.145q-42.522,0-85.045,0c-8.333,0-16.666-.059-25,.036-2.552.029-3.605-.861-3.548-3.478.119-5.432-.01-10.869.067-16.3.02-1.391-.245-1.9-1.783-2.188C3.434,107.892.042,103.647.018,97.83-.016,89.16.008,80.489.01,71.819c0-6.023,2.091-8.184,8.052-8.339.351-.009.7-.067.865-.084m41.894-36.73c2.967,1.368,7.511-.785,7.84-3.885A38.376,38.376,0,0,0,58.667,16c-.145-2.011-1.417-2.92-3.394-2.289a45.621,45.621,0,0,0-4.209,1.8A14.94,14.94,0,0,1,41.9,14.1c-2.979-1.631-4.885-.334-4.924,3-.02,1.713-.061,3.43.01,5.14.107,2.592,4.183,5.953,6.38,5.089,2.472-.971,4.938-.824,7.455-.657M17.5,86.309c-.4,7.614-.4,7.614,7.008,7.614a13.408,13.408,0,0,0,2.7-.028c5.347-1.123,8.435-1.808,7.367-8.167-1.8.547-3.45,1.532-5.36,1.657-1.983.13-3.119-.607-3.12-2.731,0-1.622-.061-3.245-.1-4.867q.049-2.034.1-4.068c.02-.779-.035-1.467-1.117-1.378-3.438.284-6.554-.834-9.582-2.431-.4,4.623-.4,4.623-4.842,4.624a18.754,18.754,0,0,1-2.984-.025c-2.732-.444-3.608.785-3.211,3.312a.87.87,0,0,1,0,.271c-.371,2.244.274,3.313,2.835,3.014,2.233-.261,4.526.047,6.782-.082,2.427-.139,3.572.876,3.519,3.284m94.559-29.534c-.842-1.93-1.88-2.734-3.639-.807a6.524,6.524,0,0,1-2.207,1.531c-1.559.664-2.32,1.538-1.874,3.369.479,1.965-.287,2.675-2.493,2.718-2.857.055-1.356-2.105-2.043-3.155-1.432.013-2.308.433-2.082,2.174a32.228,32.228,0,0,1,.071,4.052c.009,3.873,1.025,5.426,4.655,6.872a9.306,9.306,0,0,0,7.356.2,9.987,9.987,0,0,0,7.157-7.3c1.151-3.846.679-5.2-2.432-7.6-.848-.653-1.647-1.368-2.469-2.055M56.569,71.56c-2.041-1.132-4.188-2.133-5.654-4.045-.717-.936-1.179-.731-1.856.055a13.038,13.038,0,0,1-8.668,4.508c-1.123.129-1.254.6-1.266,1.533-.056,4.43,1.635,7.959,5.526,10.14,3.838,2.151,7.722,2.149,11.4-.544A8.837,8.837,0,0,0,60.272,77.9c1.638-4.6,1.026-5.579-3.7-6.337M86.328,59.077A34.7,34.7,0,0,1,76.276,62.8c-4.957.981-4.955.994-4.481,6.034A10.66,10.66,0,0,0,85.346,78.17a10.957,10.957,0,0,0,8.179-12.217,1.675,1.675,0,0,0-1.085-1.359,9.6,9.6,0,0,1-4.871-5.175c-.3-.726-.56-1.186-1.241-.343M84.8,11.933c-.958-.712-1.247.167-1.618.718a15.465,15.465,0,0,1-9.988,6.884c-1.3.265-1.481.976-1.451,2.1.065,2.44-.038,4.884.038,7.324.18,5.8,4.365,10.038,10.3,10.507a10.68,10.68,0,0,0,10.74-7c.221-.638.815-1.788.273-1.976-2.628-.913-3.635-4.82-7.205-3.879a2.791,2.791,0,0,1,0-4.525c.264.014.661.148.774.024,2.271-2.5,1.192-8.318-1.862-10.181M27.265,66.95c1.251-1.51,2.281-3.451,4.2-4.031,3.193-.964,3.452-3.088,3.427-5.922-.021-2.389-.572-4.072-2.685-5.279a47.986,47.986,0,0,1-3.941-2.775c-2.725-1.409-5.639-.5-8.459-.635-3.593-.166-6.166,1.547-6.587,4.967-.423,3.437-.735,7.047.861,10.4a10.857,10.857,0,0,0,8.585,6.277c2.457.405,4.308-.1,4.6-3.005M74.022,98.811c-.029,2.169,0,4.342-.108,6.507-.069,1.334.46,1.687,1.723,1.671,4.613-.058,9.228-.094,13.839.015,1.682.04,1.895-.68,1.871-2.087-.071-4.25.109-8.509-.08-12.751-.1-2.209.645-2.682,2.714-2.658,2.442.029,1.556,1.655,1.678,2.8.088.825-.041,1.785,1.2,1.58,1.046-.172,2.5.8,3.091-.715,1.674-4.255-1.255-9.137-5.916-10.02-6.685-.033-13.38.148-20.051-.165-5.775-.271-9.321,2.425-8.79,9.323.1,1.341.537,1.6,1.76,1.647,1.767.063,3.089-.075,2.629-2.373-.421-2.1.947-1.944,2.393-2.062,1.877-.152,2.025.766,1.982,2.242-.067,2.345.033,4.695.063,7.042m-40.869,27.58c.652.057,1.179.141,1.705.141,9.959.008,19.918.023,29.877-.032.679,0,2.258.69,1.933-.819-.27-1.257.593-3.588-2.183-3.512-3.076.085-6.157-.032-9.234.035-2.4.052-3.247-1.094-3-3.373q.967-9.041,1.862-18.089c.37-3.706-.163-4.88,5.013-4.662.706.03,1.562.371,1.8-.972.626-3.579-.642-5.429-4.261-5.513-4.434-.1-8.874-.094-13.308,0a6.285,6.285,0,0,0-5.989,4.318c-.607,1.486-.6,2.4,1.443,2.222,1.437-.129,2.895-.02,4.343-.021a2.177,2.177,0,0,1,2.468,2q1.145,10.66,2.18,21.331c.174,1.784-.749,2.722-2.548,2.734-2.354.015-4.715-.109-7.059.044a3.387,3.387,0,0,1-3.754-2.4l-1.283,6.568m90.3.144c-1.113-5.491-2.223-10.691-3.189-15.919-.25-1.353-.935-1.5-2.044-1.481-2.26.047-4.522-.014-6.783.021-2.244.034-5.227-.72-6.538.42-1.543,1.342-.476,4.412-.505,6.726-.074,5.864-.024,5.891-5.988,5.874-1.629,0-2.872-.152-2.828,2.278.042,2.309,1.234,2.108,2.734,2.093,3.708-.038,7.416-.013,11.125-.013ZM32.361,97.027A17.245,17.245,0,0,1,24.944,98.3c-2.526-.135-5.064-.028-7.6-.03-4.129,0-4.288-.163-4.292-4.284-.007-6.757-.006-6.71-6.743-6.623-1.476.018-2.062.321-1.988,1.918.129,2.8.01,5.606.042,8.41.05,4.445,2.646,7.057,7.1,7.093,4.884.039,9.768.009,14.653.009,6.828,0,6.83,0,6.491-6.821a5.79,5.79,0,0,0-.245-.947m87.232-11.264c0,2.9.007,5.794,0,8.691-.01,3.506-.331,3.815-3.948,3.823-2.263.005-4.527,0-6.79,0-4.694,0-4.651,0-4.509,4.8.035,1.2.209,1.774,1.611,1.748,4.615-.086,9.236.052,13.85-.069a6.294,6.294,0,0,0,6.258-6.25c.117-5.339.125-10.684-.015-16.022a8.227,8.227,0,0,0-4.207-6.895c-1.463-.923-2.411-1.165-2.286,1.216.157,2.979.038,5.973.038,8.961M67.566,16.6a4.777,4.777,0,0,1,2.478-.97A11.606,11.606,0,0,0,80.35,8.8a3.009,3.009,0,0,1,3.525-1.781A9.57,9.57,0,0,1,91.992,15a19.546,19.546,0,0,1-.373,5.658,4.975,4.975,0,0,0,4.561,5.875c1.275.1,1.747-.237,1.7-1.607-.1-3.256.06-6.52-.067-9.774A10.75,10.75,0,0,0,87.533,4.824c-3.253-.139-6.521-.14-9.774,0-6.183.264-10.623,5.4-10.194,11.777M82.9,111.324c-2.08,0-4.168.12-6.236-.034-2.051-.152-2.94.4-2.775,2.654.2,2.788,0,5.6.059,8.406.094,4.632-1.014,4.082,4.4,4.216,1.695.042,2.21-.55,2.132-2.184-.112-2.346.042-4.7-.048-7.051-.063-1.62.859-1.718,2.064-1.677,1.175.039,2.415-.219,2.334,1.678-.1,2.256.091,4.528-.054,6.779-.121,1.877.475,2.7,2.411,2.438a9,9,0,0,1,2.167,0c1.563.169,2.028-.521,1.995-2.028-.082-3.705-.107-7.417.009-11.121.054-1.737-.628-2.179-2.218-2.1-2.074.106-4.158.026-6.238.026m-45.923-81.5c0,2.087-.039,3.623.008,5.157.12,3.984,2.7,6.638,6.649,6.746,2.893.079,5.794.1,8.685-.011a6.444,6.444,0,0,0,6.337-5.92c.158-1.836.028-3.7.028-5.952-3.025,2.266-5.861,2.688-8.975,1.258a4.624,4.624,0,0,0-3.724,0c-3.113,1.427-5.949,1.021-9.008-1.274m2.173,27.252c4-3.461,8.078-4.908,12.722-4.372,4.568.528,8.118,2.969,11.167,6.954,0-2.784.073-4.954-.016-7.116A6.374,6.374,0,0,0,56.9,46.152c-5.415-.155-10.839-.02-16.258-.077-1.227-.013-1.529.472-1.509,1.6.054,2.952.018,5.906.018,9.4m78.192-1.664c-.063-6.545-4.447-11.244-10.311-11.482a10.938,10.938,0,0,0-11.323,9.807c-.239,2.7.237,3.1,2.8,2.4a20.019,20.019,0,0,0,9.978-6.163c2.227-2.526,3.314-2.343,4.9.727a12.169,12.169,0,0,0,3.959,4.709M93.676,78.4c6.4,1.7,6.694,1.9,10.2,8.157a1.478,1.478,0,0,0,1.5.853c2.8,0,5.6-.029,8.4,0,.987.011,1.492-.267,1.478-1.365-.042-3.2-.015-6.4-.015-9.919-5.9,3.278-11.521,3.629-16.938.041-1.693-1.121-2.605-1.169-3.471.7A9.084,9.084,0,0,1,93.676,78.4M21.782,126.533c7.391,0,7.341-.007,8.288-7.1.168-1.256-.029-1.608-1.249-1.6q-5.961.055-11.922,0c-1.078-.008-1.563.3-1.693,1.5-.78,7.194-.814,7.19,6.3,7.19h.271M50.25,56.961a11.028,11.028,0,0,0-10.987,8.974c-.283,1.651.144,2.136,1.821,1.654a9.358,9.358,0,0,0,6.641-6.182c.42-1.2.906-2.234,2.328-2.212s1.858,1.1,2.28,2.282a9.28,9.28,0,0,0,6.426,6.05c1.679.5,2.361.274,2-1.664a11.051,11.051,0,0,0-10.505-8.9m17.174,3.117C72.464,47.305,83.616,45.958,91.639,51c.681-1.549,1.357-3.086,2.135-4.855-7.045,0-13.882-.136-20.709.062-3.06.089-5.448,2.871-5.614,6-.132,2.487-.027,4.986-.027,7.876M34.586,47.823c.468-4.923-1.985-8.1-6.289-8.219-4.5-.121-9.013.022-13.518-.053-1.967-.033-1.876.831-1.15,2.116,1.071,1.895,2.817,2.274,4.84,2.269,5.569-.014,11.385-1,16.117,3.886M57.692,8.869a4.963,4.963,0,0,0-.347-.974C54.48,3.76,42.008,3.277,38.829,7.185c-.377.464-1,.977-.613,1.646.3.52.976.232,1.487.3a7.105,7.105,0,0,1,2.622.442c3.97,2.448,7.825,1.918,11.784-.02a14.436,14.436,0,0,1,3.583-.687m11.89,99.336c0-2.8-.1-5.608.038-8.4.09-1.8-.989-1.6-2.062-1.516-1.016.075-2.4-.614-2.358,1.49q.16,8.266,0,16.536c-.035,1.79.989,1.6,2.063,1.516,1.016-.077,2.457.617,2.354-1.492-.132-2.7-.032-5.421-.032-8.131m30.438,0c0-2.8-.1-5.608.038-8.4.091-1.8-.989-1.6-2.061-1.515-1.015.076-2.4-.616-2.359,1.49q.161,8.266,0,16.536c-.035,1.791.991,1.6,2.065,1.516,1.016-.076,2.457.617,2.354-1.492-.132-2.7-.032-5.421-.032-8.131m20.609-59.549c1.766,4.8.977,9.7,1.151,14.535.117,3.251,1.456,5.151,4.313,6.013,0-4.812.061-9.6-.021-14.391-.058-3.369-1.97-5.506-5.444-6.158M41.446,117.764c.294-.426,1.832.866,1.674-.9-.458-5.132-.847-10.277-1.53-15.381-.277-2.073-2.236-.824-3.394-.969-1.456-.183-.812,1.072-.756,1.732.391,4.594.915,9.178,1.232,13.776.127,1.839,1.087,2.022,2.774,1.746m-17.77-8.615c-2.256,0-4.518.107-6.765-.033-1.9-.119-1.661,1.05-1.693,2.236-.033,1.269-.059,2.233,1.759,2.177,4.056-.127,8.133-.243,12.174.031,2.823.191,2.586-1.812,2.716-3.285.182-2.081-1.639-.984-2.513-1.07-1.876-.185-3.784-.057-5.678-.055M67.255,27.856a15.944,15.944,0,0,1-2.971,4.984,5.053,5.053,0,0,0-.72,5.6,5.31,5.31,0,0,0,4.894,3.286c1.845.071,3.695.014,5.853.014-5.156-4.8-6.487-7.348-7.056-13.883M90.644,41.748c2.3,0,3.9-.013,5.509,0a5.489,5.489,0,0,0,5.681-3.687c1.033-2.668-.171-4.719-1.97-6.537-1.129-1.14-2.073-1.06-2.459.644-.875,3.863-3.09,6.808-6.761,9.577M60.882,109.3c0-2.348.021-4.7-.011-7.044-.011-.8.4-1.854-1.165-1.834-1.4.018-1.322.963-1.406,1.825-.456,4.671-.82,9.351-1.361,14.012-.174,1.5.441,1.717,1.617,1.572,1.007-.124,2.468.614,2.355-1.489-.125-2.341-.028-4.694-.028-7.042M30.486,82.65c2.675-1.293,4.106-3.049,4.224-5.473.175-3.579.045-7.171.045-11-2.673,1.038-4.073,2.874-4.216,5.347-.207,3.576-.053,7.174-.053,11.121M85.922,53.379c-4.489-1.579-9.6.011-11.87,3.452-.284.432-.774.861-.524,1.443.218.507.773.393,1.179.314,4.062-.78,8.034-1.766,11.215-5.21M7.47,72.38c.975-1.02,3.307,1.362,3.418-1.638C10.973,68.459,9.744,67.8,7.66,67.8c-2.026.006-3.3.525-3.325,2.859-.027,2.843,2.146.884,3.135,1.72M109.929,91.753c-1.443,0-2.887,0-4.331,0-.7,0-1.212.133-1.226,1.018-.013.8.292,1.155,1.094,1.151q4.331-.019,8.661,0c.792,0,1.117-.339,1.1-1.148-.019-.886-.544-1.012-1.238-1.009q-2.03.008-4.059-.007M67.417,71.672v3.655c0,4,0,4,3.784,3.309.091-.017.146-.232.263-.431a27.5,27.5,0,0,1-4.047-6.532" transform="translate(0 0)" fill="#030202"/>
    <path id="Trazado_832782" data-name="Trazado 832782" d="M60.96,201.473l1.283-6.568a3.387,3.387,0,0,0,3.754,2.4c2.344-.153,4.706-.029,7.059-.045,1.8-.011,2.722-.949,2.548-2.733q-1.04-10.671-2.18-21.331a2.176,2.176,0,0,0-2.468-2c-1.448,0-2.906-.109-4.343.02-2.039.183-2.05-.735-1.443-2.222a6.285,6.285,0,0,1,5.989-4.317c4.434-.095,8.874-.1,13.308,0,3.618.084,4.887,1.935,4.261,5.514-.234,1.342-1.09,1-1.8.972-5.176-.218-4.643.956-5.013,4.662q-.9,9.047-1.862,18.089c-.244,2.279.6,3.425,3,3.373,3.077-.067,6.158.05,9.234-.035,2.776-.077,1.913,2.255,2.183,3.511.324,1.508-1.255.815-1.933.819-9.959.055-19.918.04-29.877.032-.526,0-1.053-.085-1.705-.141" transform="translate(-27.806 -75.082)" fill="#e98e8e"/>
    <path id="Trazado_832783" data-name="Trazado 832783" d="M203.619,217.9H189.6c-3.708,0-7.417-.026-11.124.013-1.5.015-2.692.216-2.734-2.093-.044-2.43,1.2-2.283,2.827-2.278,5.964.017,5.915-.009,5.988-5.874.029-2.315-1.038-5.384.506-6.726,1.311-1.14,4.294-.386,6.538-.42,2.261-.034,4.523.026,6.783-.021,1.108-.023,1.794.128,2.044,1.481.965,5.227,2.075,10.428,3.188,15.919" transform="translate(-80.163 -91.37)" fill="#78ac53"/>
    <path id="Trazado_832784" data-name="Trazado 832784" d="M156.023,152.9c4.661.883,7.59,5.764,5.916,10.02-.595,1.512-2.045.542-3.091.715-1.243.2-1.114-.755-1.2-1.58-.122-1.148.764-2.774-1.677-2.8-2.069-.024-2.813.448-2.714,2.657.189,4.243.01,8.5.08,12.752.023,1.407-.189,2.127-1.871,2.087-4.611-.109-9.227-.073-13.839-.015-1.263.016-1.791-.338-1.723-1.672.11-2.165.079-4.337.108-6.506a2.88,2.88,0,0,0,1.062-.116c5.258-2.915,10.463-5.948,14.775-10.189,1.591-1.565,3.966-2.657,4.176-5.349" transform="translate(-61.987 -69.744)" fill="#3085cc"/>
    <path id="Trazado_832785" data-name="Trazado 832785" d="M35.983,170.285a5.851,5.851,0,0,1,.245.948c.339,6.821.337,6.821-6.491,6.821-4.884,0-9.769.03-14.653-.009-4.45-.035-7.047-2.648-7.1-7.093-.032-2.8.088-5.612-.042-8.41-.074-1.6.513-1.9,1.988-1.918,6.737-.086,6.737-.133,6.743,6.623,0,4.121.164,4.282,4.292,4.285,2.533,0,5.071-.1,7.6.029a17.238,17.238,0,0,0,7.418-1.276" transform="translate(-3.622 -73.259)" fill="#fbc6a1"/>
    <path id="Trazado_832786" data-name="Trazado 832786" d="M207.072,148.6c0-2.987.119-5.981-.038-8.961-.125-2.38.823-2.14,2.286-1.216a8.224,8.224,0,0,1,4.207,6.895c.141,5.337.132,10.684.016,16.022a6.294,6.294,0,0,1-6.259,6.25c-4.614.121-9.234-.018-13.849.069-1.4.026-1.576-.544-1.612-1.748-.143-4.8-.185-4.8,4.509-4.8,2.263,0,4.527,0,6.79,0,3.617-.008,3.939-.317,3.948-3.824.008-2.9,0-5.794,0-8.691" transform="translate(-87.478 -62.841)" fill="#f7bb8f"/>
    <path id="Trazado_832787" data-name="Trazado 832787" d="M38.067,107.327c-.29,2.9-2.141,3.411-4.6,3.005a10.859,10.859,0,0,1-8.585-6.277c-1.6-3.356-1.284-6.965-.861-10.4.42-3.42,2.994-5.133,6.587-4.967,2.819.131,5.734-.774,8.459.635q0,2.88,0,5.761c-1.522-.1-2.27.278-2.254,2.129.015,1.79.434,2.589,2.254,2.392.294,2.657-1.005,5.106-1.006,7.725M30.358,99.46c1.82.442,2.262-.339,2.261-2.1,0-1.727-.421-2.284-2.221-2.262-1.725.021-2.3.424-2.256,2.227.041,1.683.331,2.611,2.216,2.135" transform="translate(-10.802 -40.376)" fill="#fbc6a1"/>
    <path id="Trazado_832788" data-name="Trazado 832788" d="M148.671,152.747c-.21,2.692-2.586,3.784-4.176,5.349-4.312,4.241-9.518,7.274-14.775,10.189a2.881,2.881,0,0,1-1.062.116c-.029-2.347-.129-4.7-.063-7.042.042-1.476-.106-2.394-1.982-2.242-1.446.117-2.814-.043-2.393,2.062.46,2.3-.862,2.436-2.629,2.373-1.223-.044-1.657-.306-1.76-1.647-.53-6.9,3.015-9.594,8.79-9.323,6.672.314,13.366.132,20.051.165" transform="translate(-54.635 -69.59)" fill="#348ed8"/>
    <path id="Trazado_832789" data-name="Trazado 832789" d="M142.238,49.252c-5.933-.469-10.117-4.706-10.3-10.506-.076-2.439.028-4.884-.038-7.324-.03-1.127.154-1.838,1.452-2.1a15.466,15.466,0,0,0,9.988-6.884c.371-.551.659-1.43,1.618-.718.3,3.392,1.432,6.7,1.087,10.157a2.791,2.791,0,0,0,0,4.525c-.29,1.835-.678,3.661-.846,5.508-.252,2.768-2.513,4.684-2.962,7.345M140.526,34.01c.73-1.918-.41-2.047-2.06-2.1-1.735-.058-2.286.41-2.264,2.21.021,1.725.424,2.3,2.227,2.256,1.683-.041,2.611-.331,2.1-2.365" transform="translate(-60.164 -9.784)" fill="#fbc6a1"/>
    <path id="Trazado_832790" data-name="Trazado 832790" d="M124.209,20.557C123.78,14.179,128.22,9.044,134.4,8.78c3.253-.139,6.521-.138,9.774,0a10.749,10.749,0,0,1,10.283,10.33c.127,3.254-.038,6.519.067,9.774.044,1.371-.427,1.708-1.7,1.607a4.975,4.975,0,0,1-4.561-5.874,19.527,19.527,0,0,0,.373-5.658,9.568,9.568,0,0,0-8.117-7.986,3.009,3.009,0,0,0-3.526,1.781,11.606,11.606,0,0,1-10.306,6.831,4.774,4.774,0,0,0-2.478.97" transform="translate(-56.643 -3.958)" fill="#b9b9b7"/>
    <path id="Trazado_832791" data-name="Trazado 832791" d="M144.852,204.643c2.08,0,4.164.08,6.238-.026,1.589-.08,2.272.362,2.217,2.1-.115,3.7-.09,7.416-.009,11.121.034,1.507-.431,2.2-1.995,2.028a9,9,0,0,0-2.167,0c-1.936.264-2.532-.561-2.411-2.438.145-2.252-.043-4.523.054-6.779.082-1.9-1.158-1.639-2.333-1.678-1.205-.04-2.126.057-2.064,1.677.091,2.347-.064,4.7.048,7.051.078,1.633-.437,2.226-2.133,2.184-5.413-.134-4.3.416-4.4-4.216-.057-2.8.145-5.618-.059-8.406-.166-2.258.723-2.805,2.774-2.654,2.068.154,4.157.034,6.237.034" transform="translate(-61.953 -93.319)" fill="#7a432a"/>
    <path id="Trazado_832792" data-name="Trazado 832792" d="M67.975,54.832c3.059,2.3,5.895,2.7,9.008,1.274a4.624,4.624,0,0,1,3.724,0c3.114,1.43,5.95,1.007,8.975-1.258,0,2.255.129,4.116-.028,5.952a6.444,6.444,0,0,1-6.337,5.92c-2.892.11-5.792.091-8.685.011-3.95-.108-6.529-2.762-6.649-6.746-.046-1.534-.008-3.07-.008-5.157" transform="translate(-30.999 -25.011)" fill="#905539"/>
    <path id="Trazado_832793" data-name="Trazado 832793" d="M145.394,127.718a10.66,10.66,0,0,1-13.551-9.338c-.473-5.04-.476-5.052,4.482-6.034a34.689,34.689,0,0,0,10.051-3.721c1.367,2.052.324,4.343.644,6.5-1.522-.1-2.27.278-2.254,2.129.015,1.79.434,2.589,2.254,2.392.27,2.855-.989,5.4-1.626,8.074m-6.774-8.2c2.221.585,1.738-1.022,1.922-2.347.307-2.2-1.062-1.837-2.427-2.008-2.2-.277-1.844,1.069-2.007,2.435-.259,2.173.989,2.107,2.512,1.92" transform="translate(-60.049 -49.548)" fill="#fbc6a1"/>
    <path id="Trazado_832794" data-name="Trazado 832794" d="M88.869,139.31c-3.68,2.693-7.564,2.7-11.4.544-3.89-2.18-5.582-5.709-5.526-10.139.011-.937.143-1.4,1.266-1.533a13.041,13.041,0,0,0,8.668-4.509c.677-.786,1.138-.99,1.856-.055,1.466,1.912,3.613,2.913,5.654,4.045l-.055.689c-.449-.021-.9-.066-1.345-.058-1.494.024-3.086-.607-3.086,2.167s1.591,2.143,3.086,2.168c.448.007.9-.037,1.345-.058.2,2.27-.909,4.452-.459,6.738M78.645,128.364c-1.44-.28-2.618-.259-2.378,1.883.154,1.369-.2,2.709,2,2.433,1.364-.171,2.73.19,2.423-2.006-.184-1.322.3-2.929-2.049-2.309" transform="translate(-32.814 -56.103)" fill="#f8c49f"/>
    <path id="Trazado_832795" data-name="Trazado 832795" d="M71.968,95.716c0-3.5.036-6.451-.018-9.4-.021-1.124.281-1.609,1.509-1.6,5.419.057,10.842-.078,16.258.077a6.374,6.374,0,0,1,6.124,6.389c.09,2.162.017,4.332.017,7.116-3.049-3.985-6.6-6.427-11.167-6.954-4.644-.536-8.726.911-12.723,4.372" transform="translate(-32.818 -38.642)" fill="#f15143"/>
    <path id="Trazado_832796" data-name="Trazado 832796" d="M191.725,119.742a9.307,9.307,0,0,1-7.357-.2c-3.63-1.446-4.645-3-4.654-6.872a32.229,32.229,0,0,0-.071-4.052c-.226-1.741.65-2.161,2.082-2.174.687,1.05-.814,3.211,2.043,3.155,2.206-.042,2.972-.753,2.493-2.718-.447-1.83.315-2.7,1.874-3.369a6.508,6.508,0,0,0,2.207-1.531c1.759-1.926,2.8-1.123,3.639.808l-.083,2.275c-1.163.536-3.187-1.047-3.378,1.984-.205,3.241,1.83,2.293,3.378,2.542a33.263,33.263,0,0,1-2.173,10.152" transform="translate(-81.926 -46.014)" fill="#fbc6a1"/>
    <path id="Trazado_832797" data-name="Trazado 832797" d="M21.072,146.62c.053-2.409-1.093-3.423-3.519-3.284-2.256.129-4.549-.179-6.782.082-2.561.3-3.206-.77-2.835-3.014a.873.873,0,0,0,0-.271c-.4-2.527.478-3.756,3.211-3.312a18.813,18.813,0,0,0,2.983.026c4.445,0,4.445,0,4.843-4.624,3.028,1.6,6.143,2.714,9.582,2.43,1.082-.089,1.137.6,1.117,1.379q-.052,2.034-.1,4.068c-1.3.131-1.842,1.3-2.713,2.009-1.895,1.549-3.518,3.445-5.788,4.513" transform="translate(-3.576 -60.311)" fill="#348ed8"/>
    <path id="Trazado_832798" data-name="Trazado 832798" d="M197.565,92.245a12.17,12.17,0,0,1-3.959-4.709c-1.585-3.07-2.673-3.252-4.9-.727a20.02,20.02,0,0,1-9.978,6.163c-2.562.7-3.038.294-2.8-2.4a10.938,10.938,0,0,1,11.324-9.807C193.118,81,197.5,85.7,197.565,92.245" transform="translate(-80.223 -36.835)" fill="#f7af2f"/>
    <path id="Trazado_832799" data-name="Trazado 832799" d="M32.057,153.226c2.27-1.068,3.894-2.964,5.788-4.513.872-.713,1.41-1.878,2.713-2.009.034,1.622.095,3.244.1,4.866,0,2.123,1.137,2.861,3.12,2.731,1.91-.125,3.563-1.11,5.361-1.656,1.068,6.358-2.019,7.043-7.367,8.167a13.4,13.4,0,0,1-2.7.028c-7.4,0-7.4,0-7.008-7.614" transform="translate(-14.561 -66.917)" fill="#3085cc"/>
    <path id="Trazado_832800" data-name="Trazado 832800" d="M172.242,141.619a9.166,9.166,0,0,0,1.146-1.528c.865-1.872,1.778-1.825,3.47-.7,5.417,3.588,11.042,3.238,16.939-.041,0,3.516-.028,6.718.015,9.92.015,1.1-.491,1.377-1.478,1.365-2.8-.032-5.6-.008-8.4,0a1.478,1.478,0,0,1-1.5-.853c-3.5-6.254-3.793-6.462-10.2-8.157" transform="translate(-78.566 -63.222)" fill="#78ac53"/>
    <path id="Trazado_832801" data-name="Trazado 832801" d="M81.807,37.9c-2.516-.168-4.982-.315-7.454.656-2.2.864-6.273-2.5-6.381-5.089-.071-1.71-.03-3.427-.01-5.14.039-3.334,1.945-4.63,4.924-3A14.944,14.944,0,0,0,82.05,26.74a11.366,11.366,0,0,1,.576,4.408c-1.693-.168-1.709.9-1.64,2.132.065,1.167-.343,2.572,1.64,2.393-.021.835.173,1.75-.82,2.227m-5.2-4.262c.254-1.57.147-2.665-1.951-2.454-1.427.144-2.634-.08-2.4,2.05.153,1.425-.075,2.654,2.053,2.4,1.385-.167,2.873.17,2.3-1.993" transform="translate(-30.987 -11.233)" fill="#fbc6a1"/>
    <path id="Trazado_832802" data-name="Trazado 832802" d="M34.247,225.36h-.271c-7.119,0-7.084,0-6.3-7.19.131-1.2.615-1.512,1.693-1.5q5.961.042,11.922,0c1.22-.011,1.417.341,1.249,1.6-.948,7.095-.9,7.1-8.288,7.1" transform="translate(-12.465 -98.827)" fill="#7a432a"/>
    <path id="Trazado_832803" data-name="Trazado 832803" d="M83.112,104.733a11.052,11.052,0,0,1,10.505,8.9c.365,1.937-.317,2.168-2,1.664a9.279,9.279,0,0,1-6.426-6.051c-.422-1.18-.855-2.26-2.28-2.282s-1.908,1.01-2.329,2.213a9.357,9.357,0,0,1-6.64,6.182c-1.677.482-2.1,0-1.821-1.654a11.029,11.029,0,0,1,10.987-8.974" transform="translate(-32.862 -47.772)" fill="#ee7f00"/>
    <path id="Trazado_832804" data-name="Trazado 832804" d="M123.938,98.741c0-2.89-.106-5.39.027-7.876.166-3.126,2.554-5.908,5.614-6,6.827-.2,13.664-.062,20.709-.062l-2.135,4.855c-8.023-5.041-19.175-3.693-24.216,9.08" transform="translate(-56.514 -38.662)" fill="#ce6496"/>
    <path id="Trazado_832805" data-name="Trazado 832805" d="M45.617,80.994c-4.732-4.885-10.548-3.9-16.117-3.886-2.023.005-3.769-.375-4.84-2.269-.727-1.285-.816-2.149,1.15-2.117,4.5.075,9.015-.067,13.518.053,4.3.115,6.757,3.3,6.289,8.219" transform="translate(-11.032 -33.171)" fill="#905539"/>
    <path id="Trazado_832806" data-name="Trazado 832806" d="M89.643,12.65a14.431,14.431,0,0,0-3.583.687c-3.96,1.938-7.814,2.468-11.784.02a7.105,7.105,0,0,0-2.622-.442c-.511-.071-1.189.218-1.487-.3-.383-.669.235-1.182.613-1.646,3.179-3.909,15.651-3.425,18.516.711a4.9,4.9,0,0,1,.348.973" transform="translate(-31.951 -3.78)" fill="#905539"/>
    <path id="Trazado_832807" data-name="Trazado 832807" d="M124.262,190.6c0,2.711-.1,5.427.032,8.131.1,2.11-1.339,1.416-2.354,1.492-1.074.081-2.1.274-2.064-1.516q.163-8.266,0-16.536c-.041-2.1,1.342-1.415,2.357-1.49,1.074-.08,2.153-.281,2.062,1.516-.14,2.794-.037,5.6-.037,8.4" transform="translate(-54.679 -82.391)" fill="#fbc6a1"/>
    <path id="Trazado_832808" data-name="Trazado 832808" d="M180.228,190.6c0,2.711-.1,5.427.032,8.131.1,2.109-1.338,1.417-2.354,1.492-1.074.081-2.1.276-2.065-1.515q.163-8.266,0-16.536c-.041-2.106,1.343-1.415,2.358-1.491,1.073-.08,2.152-.283,2.062,1.516-.141,2.794-.038,5.6-.038,8.4" transform="translate(-80.207 -82.391)" fill="#fbc6a1"/>
    <path id="Trazado_832809" data-name="Trazado 832809" d="M150.909,61.669c.449-2.662,2.711-4.578,2.962-7.346.168-1.846.556-3.672.846-5.508,3.57-.941,4.577,2.967,7.205,3.88.542.188-.052,1.337-.273,1.975a10.679,10.679,0,0,1-10.74,7" transform="translate(-68.835 -22.2)" fill="#f7bb8f"/>
    <path id="Trazado_832810" data-name="Trazado 832810" d="M221.8,89.462c3.473.653,5.386,2.789,5.443,6.158.082,4.788.021,9.578.021,14.39-2.856-.862-4.2-2.762-4.312-6.012-.174-4.838.614-9.737-1.151-14.536" transform="translate(-101.171 -40.807)" fill="#f7af2f"/>
    <path id="Trazado_832811" data-name="Trazado 832811" d="M72.688,201.858c-1.687.276-2.646.092-2.773-1.746-.317-4.6-.841-9.182-1.232-13.776-.056-.659-.7-1.915.757-1.732,1.157.145,3.116-1.1,3.393.969.683,5.1,1.073,10.249,1.53,15.381.158,1.77-1.38.477-1.675.9" transform="translate(-31.242 -84.094)" fill="#f8c49f"/>
    <path id="Trazado_832812" data-name="Trazado 832812" d="M156.925,127.338c.637-2.673,1.9-5.219,1.626-8.074,1.509.091,2.274-.27,2.26-2.13-.014-1.8-.455-2.576-2.26-2.391-.319-2.156.723-4.446-.643-6.5.681-.843.941-.383,1.241.343a9.6,9.6,0,0,0,4.871,5.175,1.676,1.676,0,0,1,1.085,1.359,10.957,10.957,0,0,1-8.179,12.217" transform="translate(-71.579 -49.167)" fill="#f7bb8f"/>
    <path id="Trazado_832813" data-name="Trazado 832813" d="M94.264,31.249a11.369,11.369,0,0,0-.576-4.409,45.745,45.745,0,0,1,4.21-1.8c1.976-.631,3.248.277,3.394,2.288a38.435,38.435,0,0,1-.006,6.783c-.329,3.1-4.872,5.253-7.84,3.885.993-.477.8-1.392.82-2.227,1.392-.171,2.863.365,2.863-2.263s-1.471-2.092-2.863-2.262" transform="translate(-42.623 -11.334)" fill="#f7bb8f"/>
    <path id="Trazado_832814" data-name="Trazado 832814" d="M36.433,200.559c1.895,0,3.8-.129,5.678.057.875.086,2.695-1.012,2.513,1.07-.129,1.473.107,3.476-2.716,3.285-4.041-.274-8.118-.158-12.174-.031-1.818.057-1.792-.907-1.758-2.176.031-1.187-.209-2.355,1.692-2.237,2.247.141,4.51.033,6.765.033" transform="translate(-12.757 -91.411)" fill="#3085cc"/>
    <path id="Trazado_832815" data-name="Trazado 832815" d="M50.132,108c0-2.619,1.3-5.068,1.005-7.725,1.509.091,2.274-.27,2.26-2.129-.014-1.8-.455-2.576-2.26-2.392q0-2.881,0-5.761a47.992,47.992,0,0,0,3.941,2.776c2.112,1.207,2.663,2.89,2.685,5.279.025,2.834-.234,4.958-3.427,5.922-1.92.579-2.949,2.52-4.2,4.031" transform="translate(-22.867 -41.048)" fill="#f7bb8f"/>
    <path id="Trazado_832816" data-name="Trazado 832816" d="M120.116,51.219c.568,6.535,1.9,9.08,7.056,13.883-2.158,0-4.008.057-5.853-.015a5.311,5.311,0,0,1-4.894-3.285,5.053,5.053,0,0,1,.72-5.6,15.978,15.978,0,0,0,2.971-4.984" transform="translate(-52.861 -23.363)" fill="#b9b9b7"/>
    <path id="Trazado_832817" data-name="Trazado 832817" d="M201.888,121.345a33.262,33.262,0,0,0,2.173-10.152,2.777,2.777,0,0,0,0-4.526l.083-2.275c.822.686,1.621,1.4,2.469,2.054,3.111,2.394,3.583,3.75,2.432,7.6a9.986,9.986,0,0,1-7.157,7.3" transform="translate(-92.089 -47.617)" fill="#f7bb8f"/>
    <path id="Trazado_832818" data-name="Trazado 832818" d="M166.667,67.551c3.671-2.769,5.886-5.715,6.761-9.577.386-1.7,1.33-1.784,2.459-.643,1.8,1.818,3,3.868,1.97,6.537a5.489,5.489,0,0,1-5.681,3.687c-1.606-.015-3.212,0-5.509,0" transform="translate(-76.023 -25.803)" fill="#b9b9b7"/>
    <path id="Trazado_832819" data-name="Trazado 832819" d="M108.611,193.527c0,2.348-.1,4.7.029,7.042.113,2.1-1.349,1.365-2.356,1.489-1.176.145-1.791-.074-1.617-1.572.541-4.66.906-9.341,1.361-14.012.084-.863.006-1.807,1.406-1.825,1.562-.02,1.154,1.032,1.165,1.834.033,2.347.011,4.7.011,7.044" transform="translate(-47.729 -84.225)" fill="#f7bb8f"/>
    <path id="Trazado_832820" data-name="Trazado 832820" d="M56.009,138.156c0-3.948-.154-7.545.053-11.121.144-2.473,1.544-4.31,4.217-5.348,0,3.824.129,7.417-.045,11-.119,2.425-1.549,4.18-4.224,5.473" transform="translate(-25.523 -55.506)" fill="#ee7f00"/>
    <path id="Trazado_832821" data-name="Trazado 832821" d="M147.533,97.636c-3.181,3.443-7.153,4.429-11.214,5.21-.406.078-.961.193-1.179-.314-.251-.582.239-1.011.524-1.443,2.27-3.442,7.381-5.031,11.87-3.452" transform="translate(-61.61 -44.256)" fill="#905539"/>
    <path id="Trazado_832822" data-name="Trazado 832822" d="M102.976,143.224c-.45-2.287.655-4.468.459-6.738q0-2.11,0-4.219l.055-.689c4.729.758,5.341,1.741,3.7,6.337a8.837,8.837,0,0,1-4.218,5.309" transform="translate(-46.921 -60.018)" fill="#f7bb8f"/>
    <path id="Trazado_832823" data-name="Trazado 832823" d="M11.106,129.246c-.99-.835-3.163,1.123-3.135-1.719.022-2.334,1.3-2.854,3.325-2.86,2.084-.006,3.313.657,3.229,2.941-.111,3-2.444.618-3.418,1.638" transform="translate(-3.636 -56.865)" fill="#f8c49f"/>
    <path id="Trazado_832824" data-name="Trazado 832824" d="M197.465,168.709c1.353,0,2.706.008,4.06,0,.694,0,1.219.123,1.238,1.009.017.809-.308,1.15-1.1,1.148q-4.33-.013-8.66,0c-.8,0-1.107-.348-1.094-1.151.015-.884.527-1.021,1.227-1.018,1.443.007,2.887,0,4.33.006" transform="translate(-87.536 -76.952)" fill="#78ac53"/>
    <path id="Trazado_832825" data-name="Trazado 832825" d="M157,32.1c.345-3.461-.785-6.765-1.087-10.157,3.053,1.863,4.132,7.683,1.861,10.181-.113.124-.51-.01-.774-.024" transform="translate(-71.118 -10.008)" fill="#f7bb8f"/>
    <path id="Trazado_832826" data-name="Trazado 832826" d="M123.959,131.783a27.5,27.5,0,0,0,4.047,6.532c-.117.2-.172.414-.263.431-3.784.692-3.784.69-3.784-3.309v-3.655" transform="translate(-56.542 -60.111)" fill="#ce6496"/>
    <path id="Trazado_832827" data-name="Trazado 832827" d="M50.09,100.562c1.805-.184,2.247.593,2.26,2.392.014,1.859-.752,2.221-2.26,2.129-1.82.2-2.24-.6-2.254-2.392-.015-1.852.733-2.234,2.254-2.129" transform="translate(-21.82 -45.858)" fill="#030202"/>
    <path id="Trazado_832828" data-name="Trazado 832828" d="M34.1,104.978c-1.885.475-2.175-.452-2.216-2.135-.045-1.8.531-2.206,2.256-2.227,1.8-.022,2.221.535,2.221,2.262,0,1.761-.441,2.542-2.261,2.1" transform="translate(-14.541 -45.895)" fill="#030202"/>
    <path id="Trazado_832829" data-name="Trazado 832829" d="M144.133,42.777c.513,2.035-.414,2.324-2.1,2.365-1.8.044-2.206-.531-2.227-2.256-.022-1.8.529-2.267,2.264-2.21,1.651.054,2.791.183,2.06,2.1" transform="translate(-63.772 -18.552)" fill="#030202"/>
    <path id="Trazado_832830" data-name="Trazado 832830" d="M142.335,124.97c-1.523.187-2.77.253-2.512-1.92.163-1.367-.2-2.713,2.007-2.435,1.365.171,2.733-.192,2.427,2.008-.184,1.325.3,2.932-1.922,2.347" transform="translate(-63.763 -55)" fill="#030202"/>
    <path id="Trazado_832831" data-name="Trazado 832831" d="M158.025,120.551c1.805-.184,2.247.593,2.26,2.392.014,1.859-.752,2.221-2.26,2.129-1.82.2-2.239-.6-2.254-2.392-.015-1.852.732-2.234,2.254-2.129" transform="translate(-71.053 -54.976)" fill="#030202"/>
    <path id="Trazado_832832" data-name="Trazado 832832" d="M82.248,132.75c2.349-.619,1.864.987,2.049,2.309.306,2.2-1.059,1.836-2.423,2.006-2.2.276-1.849-1.064-2-2.433-.24-2.142.938-2.162,2.378-1.883" transform="translate(-36.417 -60.49)" fill="#030202"/>
    <path id="Trazado_832833" data-name="Trazado 832833" d="M100.2,132.756q0,2.11,0,4.219c-.448.021-.9.065-1.345.057-1.495-.024-3.086.606-3.086-2.167s1.592-2.143,3.086-2.167c.448-.008.9.038,1.345.058" transform="translate(-43.681 -60.508)" fill="#030202"/>
    <path id="Trazado_832834" data-name="Trazado 832834" d="M203.037,108.575a2.776,2.776,0,0,1,0,4.525c-1.549-.249-3.584.7-3.378-2.541.191-3.031,2.215-1.448,3.378-1.984" transform="translate(-91.065 -49.525)" fill="#030202"/>
    <path id="Trazado_832835" data-name="Trazado 832835" d="M93.558,36.6c1.392.17,2.863-.365,2.863,2.262s-1.471,2.092-2.863,2.263c-1.982.179-1.574-1.226-1.64-2.394-.069-1.233-.053-2.3,1.64-2.132" transform="translate(-41.918 -16.688)" fill="#030202"/>
    <path id="Trazado_832836" data-name="Trazado 832836" d="M80.208,39.117c.57,2.163-.918,1.826-2.3,1.993-2.127.257-1.9-.972-2.053-2.4-.23-2.13.978-1.906,2.4-2.05,2.1-.211,2.2.884,1.951,2.454" transform="translate(-34.586 -16.712)" fill="#030202"/>
  </g>
</svg>
