<svg xmlns="http://www.w3.org/2000/svg" width="1243" height="696.584" viewBox="0 0 1243 696.584">
  <g id="Grupo_1081168" data-name="Grupo 1081168" transform="translate(-177 -898.4)">
    <path id="Trazado_831438" data-name="Trazado 831438" d="M0,0H1240V671.984H0Z" transform="translate(180 923)" fill="#f8f5f2"/>
    <path id="Trazado_833835" data-name="Trazado 833835" d="M795.982,0c158.669,0,287.295,128.627,287.295,287.3s-128.626,287.3-287.295,287.3-287.3-128.627-287.3-287.3S637.313,0,795.982,0" transform="translate(258.361 973.664)" fill="#fff"/>
    <path id="Trazado_834105" data-name="Trazado 834105" d="M280.536,0C435.472,0,561.073,125.6,561.073,280.536s-125.6,280.536-280.536,280.536S0,435.472,0,280.536,125.6,0,280.536,0Z" transform="translate(773.807 980.424)" fill="none" stroke="#cadeb4" stroke-width="13.52"/>
    <path id="Trazado_833836" data-name="Trazado 833836" d="M358.982,86a97.3,97.3,0,1,1-97.3,97.3,97.3,97.3,0,0,1,97.3-97.3" transform="translate(258.361 973.664)" fill="#fff"/>
    <path id="Trazado_834109" data-name="Trazado 834109" d="M95.007,0A95.007,95.007,0,1,1,0,95.007,95.007,95.007,0,0,1,95.007,0Z" transform="translate(522.336 1061.954)" fill="none" stroke="#c1cdf5" stroke-width="4.579"/>
    <path id="Trazado_833837" data-name="Trazado 833837" d="M795.982,22.671c146.147,0,264.624,118.477,264.624,264.625S942.129,551.922,795.982,551.922,531.357,433.445,531.357,287.3,649.832,22.671,795.982,22.671" transform="translate(258.361 973.664)" fill="#cadeb4"/>
    <path id="Trazado_833838" data-name="Trazado 833838" d="M358.982,106.6A76.693,76.693,0,1,1,282.289,183.3,76.692,76.692,0,0,1,358.982,106.6" transform="translate(258.361 973.664)" fill="#c1cdf5"/>
    <path id="Trazado_833839" data-name="Trazado 833839" d="M689.552,101.848a90.191,90.191,0,1,1-90.191,90.191,90.191,90.191,0,0,1,90.191-90.191" transform="translate(258.361 973.664)" fill="#fff"/>
    <path id="Trazado_833840" data-name="Trazado 833840" d="M902.411,101.848a90.191,90.191,0,1,1-90.191,90.191,90.191,90.191,0,0,1,90.191-90.191" transform="translate(258.361 973.664)" fill="#fff"/>
    <path id="Trazado_833841" data-name="Trazado 833841" d="M689.552,314.707A90.191,90.191,0,1,1,599.361,404.9a90.191,90.191,0,0,1,90.191-90.191" transform="translate(258.361 973.664)" fill="#fff"/>
    <path id="Trazado_833842" data-name="Trazado 833842" d="M902.411,314.707A90.191,90.191,0,1,1,812.22,404.9a90.191,90.191,0,0,1,90.191-90.191" transform="translate(258.361 973.664)" fill="#fff"/>
    <path id="Trazado_833843" data-name="Trazado 833843" d="M358.982,299a97.3,97.3,0,1,1-97.3,97.3,97.3,97.3,0,0,1,97.3-97.3" transform="translate(258.361 973.664)" fill="#fff"/>
    <path id="Trazado_834110" data-name="Trazado 834110" d="M95.007,0A95.007,95.007,0,1,1,0,95.007,95.007,95.007,0,0,1,95.007,0Z" transform="translate(522.336 1274.954)" fill="none" stroke="#c1cdf5" stroke-width="4.579"/>
    <path id="Trazado_833844" data-name="Trazado 833844" d="M358.982,319.6A76.693,76.693,0,1,1,282.289,396.3,76.692,76.692,0,0,1,358.982,319.6" transform="translate(258.361 973.664)" fill="#c1cdf5"/>
    <path id="Trazado_833845" data-name="Trazado 833845" d="M5.614,109H178.387c3.1,0,5.613,4.029,5.613,9v25c0,4.971-2.513,9-5.613,9H5.614C2.514,152,0,147.971,0,143V118c0-4.971,2.514-9,5.614-9" transform="translate(258.361 973.664)" fill="#f9bcab"/>
    <path id="Trazado_833846" data-name="Trazado 833846" d="M5.614,214H178.387c3.1,0,5.613,4.029,5.613,9v25c0,4.971-2.513,9-5.613,9H5.614C2.514,257,0,252.971,0,248V223c0-4.971,2.514-9,5.614-9" transform="translate(258.361 973.664)" fill="#f9bcab"/>
    <path id="Trazado_833847" data-name="Trazado 833847" d="M5.614,319H178.387c3.1,0,5.613,4.029,5.613,9v25c0,4.971-2.513,9-5.613,9H5.614C2.514,362,0,357.971,0,353V328c0-4.971,2.514-9,5.614-9" transform="translate(258.361 973.664)" fill="#f9bcab"/>
    <path id="Trazado_833848" data-name="Trazado 833848" d="M5.614,426H178.387c3.1,0,5.613,4.029,5.613,9v25c0,4.971-2.513,9-5.613,9H5.614C2.514,469,0,464.971,0,460V435c0-4.971,2.514-9,5.614-9" transform="translate(258.361 973.664)" fill="#f9bcab"/>
    <path id="Trazado_833849" data-name="Trazado 833849" d="M90.733,159.379l.051,14.477q.041,11.559.082,23.118.009,2.682.019,5.364a1.5,1.5,0,0,0,3,0q-.026-7.239-.051-14.477-.042-11.559-.082-23.118-.009-2.682-.019-5.364a1.5,1.5,0,0,0-3,0" transform="translate(258.361 973.664)" fill="#cc9484"/>
    <path id="Trazado_833850" data-name="Trazado 833850" d="M85.526,167.836l7.767-9.1H91.172l7.767,9.1a1.512,1.512,0,0,0,2.121,0,1.53,1.53,0,0,0,0-2.121l-7.767-9.1a1.506,1.506,0,0,0-2.121,0l-7.767,9.1a1.538,1.538,0,0,0,0,2.121,1.512,1.512,0,0,0,2.121,0" transform="translate(258.361 973.664)" fill="#cc9484"/>
    <path id="Trazado_833851" data-name="Trazado 833851" d="M244.593,176.534l9.131,7.735v-2.121l-9.076,7.8a1.513,1.513,0,0,0,0,2.121,1.529,1.529,0,0,0,2.121,0l9.077-7.8a1.507,1.507,0,0,0,0-2.121l-9.132-7.735a1.539,1.539,0,0,0-2.121,0,1.512,1.512,0,0,0,0,2.121" transform="translate(258.361 973.664)" fill="#cc9484"/>
    <path id="Trazado_833852" data-name="Trazado 833852" d="M98.939,194.165l-7.767,9.1h2.121l-7.767-9.1a1.512,1.512,0,0,0-2.121,0,1.53,1.53,0,0,0,0,2.121l7.767,9.1a1.506,1.506,0,0,0,2.121,0l7.767-9.1a1.538,1.538,0,0,0,0-2.121,1.513,1.513,0,0,0-2.121,0" transform="translate(258.361 973.664)" fill="#cc9484"/>
    <path id="Trazado_833853" data-name="Trazado 833853" d="M357.733,266.379l.051,14.477q.041,11.559.082,23.118.009,2.682.019,5.364a1.5,1.5,0,0,0,3,0l-.051-14.477q-.042-11.559-.082-23.118-.009-2.682-.019-5.364a1.5,1.5,0,0,0-3,0" transform="translate(258.361 973.664)" fill="#cc9484"/>
    <path id="Trazado_833854" data-name="Trazado 833854" d="M352.526,274.836l7.767-9.1h-2.121l7.767,9.1a1.512,1.512,0,0,0,2.121,0,1.53,1.53,0,0,0,0-2.121l-7.767-9.1a1.506,1.506,0,0,0-2.121,0l-7.767,9.1a1.538,1.538,0,0,0,0,2.121,1.512,1.512,0,0,0,2.121,0" transform="translate(258.361 973.664)" fill="#cc9484"/>
    <path id="Trazado_833855" data-name="Trazado 833855" d="M365.939,301.165l-7.767,9.1h2.121l-7.767-9.1a1.512,1.512,0,0,0-2.121,0,1.53,1.53,0,0,0,0,2.121l7.767,9.1a1.506,1.506,0,0,0,2.121,0l7.767-9.1a1.538,1.538,0,0,0,0-2.121,1.513,1.513,0,0,0-2.121,0" transform="translate(258.361 973.664)" fill="#cc9484"/>
    <path id="Trazado_833856" data-name="Trazado 833856" d="M688.052,277.379q.025,7.239.051,14.477.04,11.559.082,23.118.009,2.682.019,5.364a1.5,1.5,0,0,0,3,0q-.025-7.239-.051-14.477-.042-11.559-.082-23.118-.009-2.682-.019-5.364a1.5,1.5,0,0,0-3,0" transform="translate(258.361 973.664)" fill="#cc9484"/>
    <path id="Trazado_833857" data-name="Trazado 833857" d="M682.846,285.836l7.767-9.1h-2.121l7.767,9.1a1.512,1.512,0,0,0,2.121,0,1.53,1.53,0,0,0,0-2.121l-7.767-9.1a1.506,1.506,0,0,0-2.121,0l-7.767,9.1a1.538,1.538,0,0,0,0,2.121,1.512,1.512,0,0,0,2.121,0" transform="translate(258.361 973.664)" fill="#cc9484"/>
    <path id="Trazado_833858" data-name="Trazado 833858" d="M696.258,312.165l-7.767,9.1h2.121l-7.767-9.1a1.512,1.512,0,0,0-2.121,0,1.53,1.53,0,0,0,0,2.121l7.767,9.1a1.506,1.506,0,0,0,2.121,0l7.767-9.1a1.538,1.538,0,0,0,0-2.121,1.513,1.513,0,0,0-2.121,0" transform="translate(258.361 973.664)" fill="#cc9484"/>
    <path id="Trazado_833859" data-name="Trazado 833859" d="M829.294,267.138l-6.063,6.106L808.669,287.91l-17.618,17.743q-7.616,7.669-15.232,15.34c-2.459,2.477-5.053,4.874-7.4,7.456-.033.036-.069.07-.1.1a1.5,1.5,0,0,0,2.122,2.121l6.063-6.106L791.058,309.9q8.808-8.872,17.618-17.743l15.232-15.341c2.459-2.476,5.053-4.874,7.4-7.456.033-.036.07-.07.1-.105a1.5,1.5,0,0,0-2.121-2.121" transform="translate(258.361 973.664)" fill="#cc9484"/>
    <path id="Trazado_833860" data-name="Trazado 833860" d="M808.752,269.171l19.088-1.512,4.946-.392-1.5-1.5-1.512,19.088q-.2,2.472-.392,4.946c-.152,1.925,2.848,1.915,3,0q.756-9.545,1.513-19.088.2-2.474.391-4.946a1.5,1.5,0,0,0-1.5-1.5L813.7,265.779l-4.946.392c-1.912.151-1.928,3.153,0,3" transform="translate(258.361 973.664)" fill="#cc9484"/>
    <path id="Trazado_833861" data-name="Trazado 833861" d="M790.352,328.83l-19.088,1.512-4.946.392,1.5,1.5,1.512-19.088q.2-2.472.392-4.946c.152-1.925-2.848-1.915-3,0q-.756,9.544-1.513,19.088-.2,2.474-.391,4.946a1.5,1.5,0,0,0,1.5,1.5l19.088-1.512,4.946-.392c1.912-.151,1.928-3.153,0-3" transform="translate(258.361 973.664)" fill="#cc9484"/>
    <path id="Trazado_833862" data-name="Trazado 833862" d="M767.58,269.368l6.128,6.042,14.716,14.509,17.806,17.556,15.394,15.177c2.486,2.451,4.894,5.033,7.482,7.377.036.033.07.07.1.1,1.376,1.357,3.5-.763,2.121-2.121l-6.127-6.042-14.717-14.51-17.8-17.555-15.394-15.177c-2.486-2.451-4.894-5.033-7.482-7.378-.037-.033-.071-.069-.106-.1-1.376-1.357-3.5.763-2.121,2.121" transform="translate(258.361 973.664)" fill="#cc9484"/>
    <path id="Trazado_833863" data-name="Trazado 833863" d="M769.69,289.912q-.79-9.541-1.58-19.082l-.409-4.946-1.5,1.5,19.093,1.445,4.948.375c1.925.145,1.916-2.855,0-3l-19.094-1.445-4.947-.375a1.506,1.506,0,0,0-1.5,1.5q.789,9.541,1.58,19.083l.409,4.945c.158,1.91,3.16,1.927,3,0" transform="translate(258.361 973.664)" fill="#cc9484"/>
    <path id="Trazado_833864" data-name="Trazado 833864" d="M829.414,308.089q.79,9.542,1.58,19.083l.409,4.945,1.5-1.5-19.093-1.445-4.948-.375c-1.925-.145-1.916,2.855,0,3l19.094,1.445,4.947.375a1.506,1.506,0,0,0,1.5-1.5q-.789-9.541-1.58-19.083l-.409-4.945c-.158-1.91-3.16-1.927-3,0" transform="translate(258.361 973.664)" fill="#cc9484"/>
    <path id="Trazado_833865" data-name="Trazado 833865" d="M900.911,277.379q.025,7.239.051,14.477.041,11.559.082,23.118.009,2.682.019,5.364a1.5,1.5,0,0,0,3,0q-.025-7.239-.051-14.477-.042-11.559-.082-23.118-.009-2.682-.019-5.364a1.5,1.5,0,0,0-3,0" transform="translate(258.361 973.664)" fill="#cc9484"/>
    <path id="Trazado_833866" data-name="Trazado 833866" d="M895.705,285.836q3.883-4.553,7.766-9.1h-2.12q3.883,4.553,7.766,9.1a1.513,1.513,0,0,0,2.122,0,1.532,1.532,0,0,0,0-2.121l-7.768-9.1a1.5,1.5,0,0,0-2.12,0q-3.885,4.551-7.768,9.1a1.539,1.539,0,0,0,0,2.121,1.513,1.513,0,0,0,2.122,0" transform="translate(258.361 973.664)" fill="#cc9484"/>
    <path id="Trazado_833867" data-name="Trazado 833867" d="M909.117,312.165l-7.767,9.1h2.121l-7.767-9.1a1.512,1.512,0,0,0-2.121,0,1.53,1.53,0,0,0,0,2.121l7.767,9.1a1.506,1.506,0,0,0,2.121,0l7.767-9.1a1.538,1.538,0,0,0,0-2.121,1.513,1.513,0,0,0-2.121,0" transform="translate(258.361 973.664)" fill="#cc9484"/>
    <path id="Trazado_833868" data-name="Trazado 833868" d="M774.612,193.616l14.477-.1,23.117-.164,5.363-.038a1.5,1.5,0,0,0,0-3l-14.477.1-23.117.164-5.363.038a1.5,1.5,0,0,0,0,3" transform="translate(258.361 973.664)" fill="#cc9484"/>
    <path id="Trazado_833869" data-name="Trazado 833869" d="M783.1,198.8l-9.131-7.735v2.121l9.076-7.8a1.513,1.513,0,0,0,0-2.121,1.529,1.529,0,0,0-2.121,0l-9.077,7.8a1.506,1.506,0,0,0,0,2.121l9.132,7.735a1.539,1.539,0,0,0,2.121,0,1.512,1.512,0,0,0,0-2.121" transform="translate(258.361 973.664)" fill="#cc9484"/>
    <path id="Trazado_833870" data-name="Trazado 833870" d="M809.369,185.283l9.131,7.735V190.9l-9.076,7.8a1.513,1.513,0,0,0,0,2.121,1.529,1.529,0,0,0,2.121,0l9.077-7.8a1.507,1.507,0,0,0,0-2.121l-9.132-7.735a1.539,1.539,0,0,0-2.121,0,1.512,1.512,0,0,0,0,2.121" transform="translate(258.361 973.664)" fill="#cc9484"/>
    <path id="Trazado_833871" data-name="Trazado 833871" d="M774.612,406.475l14.477-.1,23.117-.164,5.363-.038a1.5,1.5,0,0,0,0-3l-14.477.1-23.117.164-5.363.038a1.5,1.5,0,0,0,0,3" transform="translate(258.361 973.664)" fill="#cc9484"/>
    <path id="Trazado_833872" data-name="Trazado 833872" d="M783.1,411.655l-9.131-7.735v2.121l9.076-7.8a1.513,1.513,0,0,0,0-2.121,1.529,1.529,0,0,0-2.121,0l-9.077,7.8a1.506,1.506,0,0,0,0,2.121l9.132,7.735a1.539,1.539,0,0,0,2.121,0,1.512,1.512,0,0,0,0-2.121" transform="translate(258.361 973.664)" fill="#cc9484"/>
    <path id="Trazado_833873" data-name="Trazado 833873" d="M809.369,398.142l9.131,7.735v-2.121l-9.076,7.8a1.513,1.513,0,0,0,0,2.121,1.529,1.529,0,0,0,2.121,0l9.077-7.8a1.507,1.507,0,0,0,0-2.121l-9.132-7.735a1.539,1.539,0,0,0-2.121,0,1.512,1.512,0,0,0,0,2.121" transform="translate(258.361 973.664)" fill="#cc9484"/>
    <path id="Trazado_833874" data-name="Trazado 833874" d="M90.733,266.379l.051,14.477q.041,11.559.082,23.118.009,2.682.019,5.364a1.5,1.5,0,0,0,3,0q-.026-7.239-.051-14.477-.042-11.559-.082-23.118-.009-2.682-.019-5.364a1.5,1.5,0,0,0-3,0" transform="translate(258.361 973.664)" fill="#cc9484"/>
    <path id="Trazado_833875" data-name="Trazado 833875" d="M85.526,274.836l7.767-9.1H91.172l7.767,9.1a1.512,1.512,0,0,0,2.121,0,1.53,1.53,0,0,0,0-2.121l-7.767-9.1a1.506,1.506,0,0,0-2.121,0l-7.767,9.1a1.538,1.538,0,0,0,0,2.121,1.512,1.512,0,0,0,2.121,0" transform="translate(258.361 973.664)" fill="#cc9484"/>
    <path id="Trazado_833876" data-name="Trazado 833876" d="M98.939,301.165l-7.767,9.1h2.121l-7.767-9.1a1.512,1.512,0,0,0-2.121,0,1.53,1.53,0,0,0,0,2.121l7.767,9.1a1.506,1.506,0,0,0,2.121,0l7.767-9.1a1.538,1.538,0,0,0,0-2.121,1.513,1.513,0,0,0-2.121,0" transform="translate(258.361 973.664)" fill="#cc9484"/>
    <path id="Trazado_833877" data-name="Trazado 833877" d="M184,132h22.231l-1.5-1.5V231.178a30.192,30.192,0,0,0,0,4.146,1.293,1.293,0,0,1,0,.176l1.5-1.5H184a1.5,1.5,0,0,0,0,3h22.231a1.522,1.522,0,0,0,1.5-1.5V143.407c0-4.229.183-8.505,0-12.731,0-.059,0-.118,0-.176a1.522,1.522,0,0,0-1.5-1.5H184a1.5,1.5,0,0,0,0,3" transform="translate(258.361 973.664)" fill="#cc9484"/>
    <path id="Trazado_833878" data-name="Trazado 833878" d="M254.785,181.708H206.231a1.5,1.5,0,0,0,0,3h48.554a1.5,1.5,0,0,0,0-3" transform="translate(258.361 973.664)" fill="#cc9484"/>
    <path id="Trazado_833879" data-name="Trazado 833879" d="M184,343h22.231l-1.5-1.5V442.178a30.192,30.192,0,0,0,0,4.146,1.293,1.293,0,0,1,0,.176l1.5-1.5H184a1.5,1.5,0,0,0,0,3h22.231a1.522,1.522,0,0,0,1.5-1.5V354.407c0-4.229.183-8.505,0-12.731,0-.059,0-.118,0-.176a1.522,1.522,0,0,0-1.5-1.5H184a1.5,1.5,0,0,0,0,3" transform="translate(258.361 973.664)" fill="#cc9484"/>
    <path id="Trazado_833880" data-name="Trazado 833880" d="M244.593,387.534l9.131,7.735v-2.121l-9.076,7.8a1.513,1.513,0,0,0,0,2.121,1.529,1.529,0,0,0,2.121,0l9.077-7.8a1.507,1.507,0,0,0,0-2.121l-9.132-7.735a1.539,1.539,0,0,0-2.121,0,1.512,1.512,0,0,0,0,2.121" transform="translate(258.361 973.664)" fill="#cc9484"/>
    <path id="Trazado_833881" data-name="Trazado 833881" d="M254.785,392.708H206.231a1.5,1.5,0,0,0,0,3h48.554a1.5,1.5,0,0,0,0-3" transform="translate(258.361 973.664)" fill="#cc9484"/>
    <path id="Trazado_833882" data-name="Trazado 833882" d="M505.593,387.534l9.131,7.735v-2.121l-9.076,7.8a1.513,1.513,0,0,0,0,2.121,1.529,1.529,0,0,0,2.121,0l9.077-7.8a1.507,1.507,0,0,0,0-2.121l-9.132-7.735a1.539,1.539,0,0,0-2.121,0,1.512,1.512,0,0,0,0,2.121" transform="translate(258.361 973.664)" fill="#cc9484"/>
    <path id="Trazado_833883" data-name="Trazado 833883" d="M515.785,392.708H467.231a1.5,1.5,0,0,0,0,3h48.554a1.5,1.5,0,0,0,0-3" transform="translate(258.361 973.664)" fill="#cc9484"/>
    <path id="Trazado_833884" data-name="Trazado 833884" d="M505.593,176.534l9.131,7.735v-2.121l-9.076,7.8a1.513,1.513,0,0,0,0,2.121,1.529,1.529,0,0,0,2.121,0l9.077-7.8a1.507,1.507,0,0,0,0-2.121l-9.132-7.735a1.539,1.539,0,0,0-2.121,0,1.512,1.512,0,0,0,0,2.121" transform="translate(258.361 973.664)" fill="#cc9484"/>
    <path id="Trazado_833885" data-name="Trazado 833885" d="M515.785,181.708H467.231a1.5,1.5,0,0,0,0,3h48.554a1.5,1.5,0,0,0,0-3" transform="translate(258.361 973.664)" fill="#cc9484"/>
    <path id="Trazado_833886" data-name="Trazado 833886" d="M933.611,363.534l9.131,7.735v-2.121l-9.076,7.8a1.513,1.513,0,0,0,0,2.121,1.529,1.529,0,0,0,2.121,0l9.077-7.8a1.507,1.507,0,0,0,0-2.121l-9.132-7.735a1.539,1.539,0,0,0-2.121,0,1.512,1.512,0,0,0,0,2.121" transform="translate(258.361 973.664)" fill="#cc9484"/>
    <path id="Trazado_833887" data-name="Trazado 833887" d="M943.8,368.708H861.018a1.5,1.5,0,0,0,0,3H943.8a1.5,1.5,0,0,0,0-3" transform="translate(258.361 973.664)" fill="#cc9484"/>
    <path id="Trazado_833888" data-name="Trazado 833888" d="M871.21,392.946l-9.131-7.735v2.122l9.076-7.8a1.513,1.513,0,0,0,0-2.121,1.529,1.529,0,0,0-2.121,0l-9.077,7.8a1.508,1.508,0,0,0,0,2.122l9.132,7.734a1.539,1.539,0,0,0,2.121,0,1.512,1.512,0,0,0,0-2.121" transform="translate(258.361 973.664)" fill="#cc9484"/>
    <path id="Trazado_833889" data-name="Trazado 833889" d="M861.018,387.772H943.8a1.5,1.5,0,0,0,0-3H861.018a1.5,1.5,0,0,0,0,3" transform="translate(258.361 973.664)" fill="#cc9484"/>
    <path id="Trazado_833890" data-name="Trazado 833890" d="M714,121.814c0,2.949-6.794,5.339-15.175,5.339s-15.174-2.39-15.174-5.339,6.794-5.339,15.174-5.339S714,118.865,714,121.814" transform="translate(258.361 973.664)" fill="#fff"/>
    <path id="Trazado_833891" data-name="Trazado 833891" d="M712.5,121.814a1.381,1.381,0,0,1-.51.8,6.894,6.894,0,0,1-2.042,1.225,23.177,23.177,0,0,1-6.453,1.554c-5.013.575-10.527.428-15.3-1.361-1-.374-2.769-1.131-3.034-2.133-.035-.134-.01-.3.218-.6a4.676,4.676,0,0,1,1.562-1.148c4.271-2.267,9.914-2.4,14.614-2.1a27.9,27.9,0,0,1,7.754,1.478,8.58,8.58,0,0,1,2.475,1.281,1.819,1.819,0,0,1,.718.994c.082,1.923,3.082,1.934,3,0-.2-4.733-7.445-5.97-10.981-6.452-6.019-.82-13-.678-18.594,1.955-1.586.745-3.3,1.953-3.693,3.773-.416,1.936.911,3.505,2.417,4.513a18.731,18.731,0,0,0,7.273,2.483,42.088,42.088,0,0,0,10.071.451,28.278,28.278,0,0,0,9.469-2.105c1.935-.868,3.939-2.307,4.038-4.618.082-1.93-2.918-1.926-3,0" transform="translate(258.361 973.664)" fill="#cc9484"/>
    <path id="Trazado_833892" data-name="Trazado 833892" d="M714,174.363a35.83,35.83,0,0,1-30.349,0v-52.83c1.124,7.868,29.225,6.744,30.349,0Z" transform="translate(258.361 973.664)" fill="#fff"/>
    <path id="Trazado_833893" data-name="Trazado 833893" d="M713.243,173.068a35.392,35.392,0,0,1-28.835,0l.743,1.3v-52.83l-2.947.4c.792,4.848,7.707,5.964,11.6,6.376,5.479.58,11.661.265,16.809-1.851,2.014-.828,4.387-2.186,4.832-4.525l-2.946-.4v52.83a1.5,1.5,0,0,0,3,0v-52.83c0-1.641-2.622-2.1-2.946-.4-.117.615-.188.7-.748,1.228a8.741,8.741,0,0,1-2.093,1.243,24.5,24.5,0,0,1-6.462,1.6c-4.8.614-10.2.631-14.8-1.07a8.889,8.889,0,0,1-2.336-1.27,2.389,2.389,0,0,1-1.021-1.727c-.277-1.7-2.946-1.251-2.946.4v52.83a1.468,1.468,0,0,0,.743,1.295,37.267,37.267,0,0,0,31.863,0c1.765-.772.239-3.358-1.514-2.59" transform="translate(258.361 973.664)" fill="#cc9484"/>
    <path id="Trazado_833894" data-name="Trazado 833894" d="M695.453,147.1c0,2.949-6.794,5.339-15.175,5.339S665.1,150.054,665.1,147.1s6.794-5.339,15.174-5.339,15.175,2.39,15.175,5.339" transform="translate(258.361 973.664)" fill="#fff"/>
    <path id="Trazado_833895" data-name="Trazado 833895" d="M693.953,147.1a1.381,1.381,0,0,1-.51.8,6.906,6.906,0,0,1-2.042,1.225,23.179,23.179,0,0,1-6.453,1.554c-5.013.575-10.527.428-15.3-1.361-1-.374-2.769-1.131-3.034-2.133-.035-.134-.01-.3.218-.6a4.676,4.676,0,0,1,1.562-1.148c4.271-2.267,9.914-2.4,14.614-2.1a27.9,27.9,0,0,1,7.754,1.478,8.58,8.58,0,0,1,2.475,1.281,1.819,1.819,0,0,1,.718.994c.082,1.923,3.082,1.934,3,0-.2-4.733-7.445-5.97-10.981-6.452-6.019-.82-13-.678-18.594,1.955-1.586.745-3.3,1.953-3.693,3.773-.416,1.936.911,3.505,2.417,4.513a18.731,18.731,0,0,0,7.273,2.483,42.088,42.088,0,0,0,10.071.451,28.278,28.278,0,0,0,9.469-2.1c1.935-.868,3.939-2.307,4.038-4.618.082-1.93-2.918-1.927-3,0" transform="translate(258.361 973.664)" fill="#cc9484"/>
    <path id="Trazado_833896" data-name="Trazado 833896" d="M695.453,183.355a35.83,35.83,0,0,1-30.349,0V146.824c1.124,7.868,29.225,6.744,30.349,0Z" transform="translate(258.361 973.664)" fill="#fff"/>
    <path id="Trazado_833897" data-name="Trazado 833897" d="M694.7,182.06a35.392,35.392,0,0,1-28.835,0l.743,1.295V146.824l-2.947.4c.792,4.848,7.707,5.964,11.6,6.376,5.479.58,11.661.265,16.809-1.852,2.014-.827,4.387-2.185,4.832-4.524l-2.946-.4v36.531a1.5,1.5,0,0,0,3,0V146.824c0-1.641-2.622-2.1-2.946-.4-.117.615-.189.7-.748,1.227a8.706,8.706,0,0,1-2.093,1.244,24.534,24.534,0,0,1-6.462,1.6c-4.8.613-10.2.631-14.8-1.07a8.917,8.917,0,0,1-2.336-1.27,2.389,2.389,0,0,1-1.021-1.727c-.277-1.7-2.946-1.252-2.946.4v36.531a1.468,1.468,0,0,0,.743,1.295,37.267,37.267,0,0,0,31.863,0c1.765-.772.239-3.358-1.514-2.59" transform="translate(258.361 973.664)" fill="#cc9484"/>
    <path id="Trazado_833898" data-name="Trazado 833898" d="M902.411,187h-43.3l21.65-37.5L902.411,112l21.651,37.5,21.65,37.5Z" transform="translate(258.361 973.664)" fill="#fff"/>
    <path id="Trazado_833899" data-name="Trazado 833899" d="M902.411,185.5h-43.3l1.3,2.257q3.661-6.342,7.322-12.683l11.663-20.2q2.176-3.768,4.351-7.537,5.565-9.636,11.128-19.274l5.594-9.688c1.014-1.758,2.258-3.515,3.1-5.366a2.884,2.884,0,0,1,.145-.252h-2.59l7.322,12.683,11.663,20.2,4.351,7.537,11.128,19.274q2.8,4.843,5.593,9.688c1.015,1.758,1.917,3.712,3.1,5.366.055.078.1.169.145.252l1.295-2.257h-43.3a1.5,1.5,0,0,0,0,3h43.3a1.514,1.514,0,0,0,1.3-2.257q-3.66-6.342-7.322-12.683l-11.663-20.2q-2.175-3.77-4.351-7.537l-11.128-19.274c-2.892-5.01-5.649-10.133-8.691-15.054-.051-.082-.1-.168-.146-.252a1.514,1.514,0,0,0-2.59,0l-7.323,12.683-11.662,20.2-4.352,7.537-11.128,19.274c-2.893,5.011-5.938,9.964-8.691,15.054-.046.085-.1.168-.145.252a1.514,1.514,0,0,0,1.295,2.257h43.3a1.5,1.5,0,0,0,0-3" transform="translate(258.361 973.664)" fill="#cc9484"/>
    <path id="Trazado_833900" data-name="Trazado 833900" d="M867.911,174h69.5a1.5,1.5,0,0,0,0-3h-69.5a1.5,1.5,0,0,0,0,3" transform="translate(258.361 973.664)" fill="#cc9484"/>
    <path id="Trazado_833901" data-name="Trazado 833901" d="M877.411,158h50.5a1.5,1.5,0,0,0,0-3h-50.5a1.5,1.5,0,0,0,0,3" transform="translate(258.361 973.664)" fill="#cc9484"/>
    <path id="Trazado_833902" data-name="Trazado 833902" d="M886.411,142h32a1.5,1.5,0,0,0,0-3h-32a1.5,1.5,0,0,0,0,3" transform="translate(258.361 973.664)" fill="#cc9484"/>
    <path id="Trazado_833903" data-name="Trazado 833903" d="M700.052,352a10.5,10.5,0,1,1-10.5-10.5,10.5,10.5,0,0,1,10.5,10.5" transform="translate(258.361 973.664)" fill="#fff"/>
    <path id="Trazado_833904" data-name="Trazado 833904" d="M698.552,352a9,9,0,1,1-7.387-8.861A9.092,9.092,0,0,1,698.552,352a1.5,1.5,0,0,0,3,0,12,12,0,1,0-9.73,11.779A12.17,12.17,0,0,0,701.552,352a1.5,1.5,0,0,0-3,0" transform="translate(258.361 973.664)" fill="#cc9484"/>
    <path id="Trazado_833905" data-name="Trazado 833905" d="M679.552,386a10.5,10.5,0,1,1-10.5-10.5,10.5,10.5,0,0,1,10.5,10.5" transform="translate(258.361 973.664)" fill="#fff"/>
    <path id="Trazado_833906" data-name="Trazado 833906" d="M678.052,386a9,9,0,1,1-7.387-8.861A9.092,9.092,0,0,1,678.052,386a1.5,1.5,0,0,0,3,0,12,12,0,1,0-9.73,11.779A12.17,12.17,0,0,0,681.052,386a1.5,1.5,0,0,0-3,0" transform="translate(258.361 973.664)" fill="#cc9484"/>
    <path id="Trazado_833907" data-name="Trazado 833907" d="M720.552,386a10.5,10.5,0,1,1-10.5-10.5,10.5,10.5,0,0,1,10.5,10.5" transform="translate(258.361 973.664)" fill="#fff"/>
    <path id="Trazado_833908" data-name="Trazado 833908" d="M719.052,386a9,9,0,1,1-7.387-8.861A9.092,9.092,0,0,1,719.052,386a1.5,1.5,0,0,0,3,0,12,12,0,1,0-9.73,11.779A12.17,12.17,0,0,0,722.052,386a1.5,1.5,0,0,0-3,0" transform="translate(258.361 973.664)" fill="#cc9484"/>
    <path id="Trazado_834106" data-name="Trazado 834106" d="M0,0H1083.278V574.593H0Z" transform="translate(177 898.4)" fill="none"/>
    <path id="Trazado_834115" data-name="Trazado 834115" d="M37.289,15H34.945L30.383,7.516V15H28.039V3.625h2.344l4.57,7.5v-7.5h2.336Zm6.8,0a2.507,2.507,0,0,1-.227-.758,2.732,2.732,0,0,1-2.133.914,3,3,0,0,1-2.059-.719,2.312,2.312,0,0,1-.816-1.812,2.389,2.389,0,0,1,1-2.062,4.915,4.915,0,0,1,2.879-.727h1.039V9.352a1.393,1.393,0,0,0-.3-.937,1.183,1.183,0,0,0-.949-.352,1.345,1.345,0,0,0-.895.273.929.929,0,0,0-.324.75H39.039a2.268,2.268,0,0,1,.453-1.359,3,3,0,0,1,1.281-.98,4.669,4.669,0,0,1,1.859-.355,3.689,3.689,0,0,1,2.48.785,2.747,2.747,0,0,1,.918,2.207v3.664a4.041,4.041,0,0,0,.336,1.82V15Zm-1.867-1.57a1.945,1.945,0,0,0,.922-.223,1.462,1.462,0,0,0,.625-.6V11.156h-.844q-1.7,0-1.8,1.172l-.008.133a.9.9,0,0,0,.3.7A1.153,1.153,0,0,0,42.219,13.43Zm8.25-8.961V6.547h1.445V8.2H50.469v4.219a1.007,1.007,0,0,0,.18.672.9.9,0,0,0,.688.2A3.6,3.6,0,0,0,52,13.242v1.711a4.648,4.648,0,0,1-1.367.2,2.156,2.156,0,0,1-2.422-2.4V8.2H46.977V6.547h1.234V4.469ZM58.07,15a2.507,2.507,0,0,1-.227-.758,2.732,2.732,0,0,1-2.133.914,3,3,0,0,1-2.059-.719,2.312,2.312,0,0,1-.816-1.812,2.389,2.389,0,0,1,1-2.062,4.915,4.915,0,0,1,2.879-.727H57.75V9.352a1.393,1.393,0,0,0-.3-.937,1.183,1.183,0,0,0-.949-.352,1.345,1.345,0,0,0-.895.273.929.929,0,0,0-.324.75H53.023a2.268,2.268,0,0,1,.453-1.359,3,3,0,0,1,1.281-.98,4.669,4.669,0,0,1,1.859-.355,3.689,3.689,0,0,1,2.48.785,2.747,2.747,0,0,1,.918,2.207v3.664a4.041,4.041,0,0,0,.336,1.82V15ZM56.2,13.43a1.945,1.945,0,0,0,.922-.223,1.462,1.462,0,0,0,.625-.6V11.156h-.844q-1.7,0-1.8,1.172l-.008.133a.9.9,0,0,0,.3.7A1.153,1.153,0,0,0,56.2,13.43ZM64.133,15H61.867V3h2.266Zm4.242,0H66.109V6.547h2.266Zm-2.4-10.641a1.112,1.112,0,0,1,.34-.836,1.465,1.465,0,0,1,1.848,0,1.105,1.105,0,0,1,.344.836,1.108,1.108,0,0,1-.348.844,1.448,1.448,0,0,1-1.836,0A1.108,1.108,0,0,1,65.977,4.359Zm3.906,6.352a5.094,5.094,0,0,1,.887-3.148A2.877,2.877,0,0,1,73.2,6.391a2.589,2.589,0,0,1,2.039.922V3H77.5V15H75.461l-.109-.9a2.657,2.657,0,0,1-2.172,1.055,2.869,2.869,0,0,1-2.395-1.176A5.258,5.258,0,0,1,69.883,10.711Zm2.258.168a3.337,3.337,0,0,0,.414,1.823,1.349,1.349,0,0,0,1.2.634,1.511,1.511,0,0,0,1.477-.884V9.111a1.489,1.489,0,0,0-1.461-.884Q72.141,8.227,72.141,10.879ZM84.148,15a2.507,2.507,0,0,1-.227-.758,2.732,2.732,0,0,1-2.133.914,3,3,0,0,1-2.059-.719,2.312,2.312,0,0,1-.816-1.812,2.389,2.389,0,0,1,1-2.062,4.915,4.915,0,0,1,2.879-.727h1.039V9.352a1.393,1.393,0,0,0-.3-.937,1.183,1.183,0,0,0-.949-.352,1.345,1.345,0,0,0-.895.273.929.929,0,0,0-.324.75H79.1a2.268,2.268,0,0,1,.453-1.359,3,3,0,0,1,1.281-.98A4.669,4.669,0,0,1,82.7,6.391a3.689,3.689,0,0,1,2.48.785,2.747,2.747,0,0,1,.918,2.207v3.664a4.041,4.041,0,0,0,.336,1.82V15Zm-1.867-1.57a1.945,1.945,0,0,0,.922-.223,1.462,1.462,0,0,0,.625-.6V11.156h-.844q-1.7,0-1.8,1.172l-.008.133a.9.9,0,0,0,.3.7A1.153,1.153,0,0,0,82.281,13.43Zm5.2-2.719a5.094,5.094,0,0,1,.887-3.148,2.877,2.877,0,0,1,2.426-1.172,2.589,2.589,0,0,1,2.039.922V3h2.266V15H93.055l-.109-.9a2.657,2.657,0,0,1-2.172,1.055,2.869,2.869,0,0,1-2.395-1.176A5.258,5.258,0,0,1,87.477,10.711Zm2.258.168a3.337,3.337,0,0,0,.414,1.823,1.349,1.349,0,0,0,1.2.634,1.511,1.511,0,0,0,1.477-.884V9.111a1.489,1.489,0,0,0-1.461-.884Q89.734,8.227,89.734,10.879Z" transform="translate(289 1095)" fill="#12263f"/>
    <path id="Trazado_834111" data-name="Trazado 834111" d="M27.789,11.211A4.025,4.025,0,0,1,26.434,14.1a4.76,4.76,0,0,1-3.223,1.055,4.28,4.28,0,0,1-3.441-1.473,6.038,6.038,0,0,1-1.254-4.043v-.7a6.819,6.819,0,0,1,.578-2.891,4.332,4.332,0,0,1,1.652-1.918,4.629,4.629,0,0,1,2.5-.668,4.637,4.637,0,0,1,3.172,1.055A4.326,4.326,0,0,1,27.8,7.484H25.461a2.376,2.376,0,0,0-.613-1.6,2.271,2.271,0,0,0-1.605-.5,1.991,1.991,0,0,0-1.754.84,4.707,4.707,0,0,0-.6,2.605V9.7a5.038,5.038,0,0,0,.559,2.7,1.954,1.954,0,0,0,1.762.852,2.314,2.314,0,0,0,1.621-.5,2.241,2.241,0,0,0,.613-1.535ZM33.93,8.664a6.134,6.134,0,0,0-.812-.062,1.654,1.654,0,0,0-1.68.867V15H29.18V6.547h2.133l.063,1.008a2.092,2.092,0,0,1,1.883-1.164,2.366,2.366,0,0,1,.7.1Zm4.828,6.492a4.15,4.15,0,0,1-3.027-1.141,4.054,4.054,0,0,1-1.168-3.039v-.219a5.106,5.106,0,0,1,.492-2.277,3.612,3.612,0,0,1,1.395-1.547,3.914,3.914,0,0,1,2.059-.543,3.508,3.508,0,0,1,2.73,1.094,4.444,4.444,0,0,1,1,3.1v.922H36.852a2.1,2.1,0,0,0,.66,1.328,2,2,0,0,0,1.395.5,2.437,2.437,0,0,0,2.039-.945l1.109,1.242a3.389,3.389,0,0,1-1.375,1.121A4.511,4.511,0,0,1,38.758,15.156ZM38.5,8.211a1.411,1.411,0,0,0-1.09.455,2.357,2.357,0,0,0-.535,1.3h3.141V9.788a1.681,1.681,0,0,0-.406-1.165A1.456,1.456,0,0,0,38.5,8.211Zm8.531,5.125a1.481,1.481,0,0,0,1.016-.344,1.2,1.2,0,0,0,.406-.914H50.57a2.9,2.9,0,0,1-.469,1.574,3.093,3.093,0,0,1-1.262,1.109,3.949,3.949,0,0,1-1.77.395A3.67,3.67,0,0,1,44.211,14a4.56,4.56,0,0,1-1.047-3.184v-.148A4.508,4.508,0,0,1,44.2,7.555a3.627,3.627,0,0,1,2.852-1.164,3.555,3.555,0,0,1,2.543.9,3.2,3.2,0,0,1,.973,2.4H48.453a1.551,1.551,0,0,0-.406-1.072,1.51,1.51,0,0,0-2.223.163,3.333,3.333,0,0,0-.4,1.866v.235a3.375,3.375,0,0,0,.4,1.878A1.377,1.377,0,0,0,47.031,13.336ZM54.242,15H51.977V6.547h2.266Zm-2.4-10.641a1.112,1.112,0,0,1,.34-.836,1.465,1.465,0,0,1,1.848,0,1.105,1.105,0,0,1,.344.836,1.108,1.108,0,0,1-.348.844,1.448,1.448,0,0,1-1.836,0A1.108,1.108,0,0,1,51.844,4.359Zm6.375,2.188.07.945a2.971,2.971,0,0,1,2.43-1.1A2.255,2.255,0,0,1,62.961,7.68,2.9,2.9,0,0,1,65.5,6.391a2.521,2.521,0,0,1,2.047.8,3.681,3.681,0,0,1,.672,2.41V15H65.953V9.609a1.61,1.61,0,0,0-.281-1.051,1.246,1.246,0,0,0-.992-.332,1.409,1.409,0,0,0-1.406.969l.008,5.8H61.023V9.617a1.59,1.59,0,0,0-.289-1.062,1.259,1.259,0,0,0-.984-.328,1.463,1.463,0,0,0-1.391.8V15H56.1V6.547ZM72.336,15H70.07V6.547h2.266Zm-2.4-10.641a1.112,1.112,0,0,1,.34-.836,1.465,1.465,0,0,1,1.848,0,1.105,1.105,0,0,1,.344.836,1.108,1.108,0,0,1-.348.844,1.448,1.448,0,0,1-1.836,0A1.108,1.108,0,0,1,69.938,4.359Zm8.148,10.8a4.15,4.15,0,0,1-3.027-1.141,4.054,4.054,0,0,1-1.168-3.039v-.219a5.106,5.106,0,0,1,.492-2.277,3.612,3.612,0,0,1,1.395-1.547,3.914,3.914,0,0,1,2.059-.543,3.508,3.508,0,0,1,2.73,1.094,4.444,4.444,0,0,1,1,3.1v.922H76.18a2.1,2.1,0,0,0,.66,1.328,2,2,0,0,0,1.395.5,2.437,2.437,0,0,0,2.039-.945l1.109,1.242a3.389,3.389,0,0,1-1.375,1.121A4.511,4.511,0,0,1,78.086,15.156Zm-.258-6.945a1.411,1.411,0,0,0-1.09.455,2.357,2.357,0,0,0-.535,1.3h3.141V9.788a1.681,1.681,0,0,0-.406-1.165A1.456,1.456,0,0,0,77.828,8.211Zm7.094-1.664.07.977a2.951,2.951,0,0,1,2.43-1.133,2.453,2.453,0,0,1,2,.789,3.682,3.682,0,0,1,.672,2.359V15H87.836V9.594a1.465,1.465,0,0,0-.312-1.043,1.4,1.4,0,0,0-1.039-.324,1.553,1.553,0,0,0-1.43.813V15H82.8V6.547Zm9.586-2.078V6.547h1.445V8.2H94.508v4.219a1.007,1.007,0,0,0,.18.672.9.9,0,0,0,.688.2,3.6,3.6,0,0,0,.664-.055v1.711a4.648,4.648,0,0,1-1.367.2,2.156,2.156,0,0,1-2.422-2.4V8.2H91.016V6.547H92.25V4.469ZM96.625,10.7a5.013,5.013,0,0,1,.484-2.242A3.546,3.546,0,0,1,98.5,6.93a4.069,4.069,0,0,1,2.113-.539,3.849,3.849,0,0,1,2.793,1.047,4.2,4.2,0,0,1,1.207,2.844l.016.578a4.418,4.418,0,0,1-1.086,3.121,4.209,4.209,0,0,1-5.832,0,4.5,4.5,0,0,1-1.09-3.187Zm2.258.16a3.16,3.16,0,0,0,.453,1.843,1.628,1.628,0,0,0,2.578.008,3.457,3.457,0,0,0,.461-2.015,3.128,3.128,0,0,0-.461-1.831,1.5,1.5,0,0,0-1.3-.649,1.474,1.474,0,0,0-1.281.646A3.516,3.516,0,0,0,98.883,10.856ZM28.121,36.18,30.7,27.625h2.609L29.348,39H26.9L22.957,27.625h2.6Zm9.656,2.977a4.15,4.15,0,0,1-3.027-1.141,4.054,4.054,0,0,1-1.168-3.039v-.219a5.106,5.106,0,0,1,.492-2.277,3.612,3.612,0,0,1,1.395-1.547,3.914,3.914,0,0,1,2.059-.543,3.508,3.508,0,0,1,2.73,1.094,4.444,4.444,0,0,1,1,3.1v.922H35.871a2.1,2.1,0,0,0,.66,1.328,2,2,0,0,0,1.395.5,2.437,2.437,0,0,0,2.039-.945l1.109,1.242A3.389,3.389,0,0,1,39.7,38.754,4.511,4.511,0,0,1,37.777,39.156Zm-.258-6.945a1.411,1.411,0,0,0-1.09.455,2.357,2.357,0,0,0-.535,1.3h3.141v-.181a1.681,1.681,0,0,0-.406-1.165A1.456,1.456,0,0,0,37.52,32.211Zm4.688,2.5a4.954,4.954,0,0,1,.926-3.133,3,3,0,0,1,2.5-1.187,2.631,2.631,0,0,1,2.164.953l.094-.8h2.047v8.172a3.613,3.613,0,0,1-.5,1.93,3.236,3.236,0,0,1-1.418,1.25,4.985,4.985,0,0,1-2.141.43,4.635,4.635,0,0,1-1.812-.371A3.217,3.217,0,0,1,42.723,41l1-1.375a2.645,2.645,0,0,0,2.047.945,1.936,1.936,0,0,0,1.4-.48,1.8,1.8,0,0,0,.5-1.363v-.453a2.612,2.612,0,0,1-2.055.883,2.992,2.992,0,0,1-2.465-1.191,4.953,4.953,0,0,1-.941-3.16Zm2.258.168a3.085,3.085,0,0,0,.461,1.8,1.466,1.466,0,0,0,1.266.653,1.568,1.568,0,0,0,1.477-.775V33a1.564,1.564,0,0,0-1.461-.775,1.476,1.476,0,0,0-1.277.665A3.477,3.477,0,0,0,44.465,34.879Zm11.094,4.277a4.15,4.15,0,0,1-3.027-1.141,4.054,4.054,0,0,1-1.168-3.039v-.219a5.106,5.106,0,0,1,.492-2.277,3.612,3.612,0,0,1,1.395-1.547,3.914,3.914,0,0,1,2.059-.543,3.508,3.508,0,0,1,2.73,1.094,4.444,4.444,0,0,1,1,3.1v.922H53.652a2.1,2.1,0,0,0,.66,1.328,2,2,0,0,0,1.395.5,2.437,2.437,0,0,0,2.039-.945l1.109,1.242a3.389,3.389,0,0,1-1.375,1.121A4.511,4.511,0,0,1,55.559,39.156ZM55.3,32.211a1.411,1.411,0,0,0-1.09.455,2.357,2.357,0,0,0-.535,1.3h3.141v-.181a1.681,1.681,0,0,0-.406-1.165A1.456,1.456,0,0,0,55.3,32.211Zm7.719-3.742v2.078h1.445V32.2H63.02v4.219a1.007,1.007,0,0,0,.18.672.9.9,0,0,0,.688.2,3.6,3.6,0,0,0,.664-.055v1.711a4.648,4.648,0,0,1-1.367.2,2.156,2.156,0,0,1-2.422-2.4V32.2H59.527V30.547h1.234V28.469ZM70.621,39a2.507,2.507,0,0,1-.227-.758,2.732,2.732,0,0,1-2.133.914,3,3,0,0,1-2.059-.719,2.312,2.312,0,0,1-.816-1.812,2.389,2.389,0,0,1,1-2.062,4.915,4.915,0,0,1,2.879-.727H70.3v-.484a1.393,1.393,0,0,0-.3-.937,1.183,1.183,0,0,0-.949-.352,1.345,1.345,0,0,0-.895.273.929.929,0,0,0-.324.75H65.574a2.268,2.268,0,0,1,.453-1.359,3,3,0,0,1,1.281-.98,4.669,4.669,0,0,1,1.859-.355,3.689,3.689,0,0,1,2.48.785,2.747,2.747,0,0,1,.918,2.207v3.664a4.041,4.041,0,0,0,.336,1.82V39Zm-1.867-1.57a1.945,1.945,0,0,0,.922-.223,1.462,1.462,0,0,0,.625-.6V35.156h-.844q-1.7,0-1.8,1.172l-.008.133a.9.9,0,0,0,.3.7A1.153,1.153,0,0,0,68.754,37.43ZM77,28.469v2.078h1.445V32.2H77v4.219a1.007,1.007,0,0,0,.18.672.9.9,0,0,0,.688.2,3.6,3.6,0,0,0,.664-.055v1.711a4.648,4.648,0,0,1-1.367.2,2.156,2.156,0,0,1-2.422-2.4V32.2H73.512V30.547h1.234V28.469ZM82.09,39H79.824V30.547H82.09Zm-2.4-10.641a1.112,1.112,0,0,1,.34-.836,1.465,1.465,0,0,1,1.848,0,1.193,1.193,0,0,1,0,1.68,1.448,1.448,0,0,1-1.836,0A1.108,1.108,0,0,1,79.691,28.359Zm7.422,7.883,1.57-5.7h2.359L88.191,39H86.035l-2.852-8.453h2.359ZM91.566,34.7a5.013,5.013,0,0,1,.484-2.242,3.546,3.546,0,0,1,1.395-1.523,4.069,4.069,0,0,1,2.113-.539,3.849,3.849,0,0,1,2.793,1.047,4.2,4.2,0,0,1,1.207,2.844l.016.578a4.418,4.418,0,0,1-1.086,3.121,4.209,4.209,0,0,1-5.832,0,4.5,4.5,0,0,1-1.09-3.187Zm2.258.16a3.16,3.16,0,0,0,.453,1.843,1.628,1.628,0,0,0,2.578.008,3.457,3.457,0,0,0,.461-2.015,3.128,3.128,0,0,0-.461-1.831,1.5,1.5,0,0,0-1.3-.649,1.474,1.474,0,0,0-1.281.646A3.516,3.516,0,0,0,93.824,34.856Z" transform="translate(558 1134)" fill="#12263f"/>
    <path id="Trazado_834108" data-name="Trazado 834108" d="M36.27,5.523H32.785V15H30.441V5.523H27v-1.9H36.27ZM41.043,15a2.507,2.507,0,0,1-.227-.758,2.732,2.732,0,0,1-2.133.914,3,3,0,0,1-2.059-.719,2.312,2.312,0,0,1-.816-1.812,2.389,2.389,0,0,1,1-2.062,4.915,4.915,0,0,1,2.879-.727h1.039V9.352a1.393,1.393,0,0,0-.3-.937,1.183,1.183,0,0,0-.949-.352,1.345,1.345,0,0,0-.895.273.929.929,0,0,0-.324.75H36a2.268,2.268,0,0,1,.453-1.359,3,3,0,0,1,1.281-.98,4.669,4.669,0,0,1,1.859-.355,3.689,3.689,0,0,1,2.48.785,2.747,2.747,0,0,1,.918,2.207v3.664a4.041,4.041,0,0,0,.336,1.82V15Zm-1.867-1.57a1.945,1.945,0,0,0,.922-.223,1.462,1.462,0,0,0,.625-.6V11.156h-.844q-1.7,0-1.8,1.172l-.008.133a.9.9,0,0,0,.3.7A1.153,1.153,0,0,0,39.176,13.43ZM46.84,6.547l.07.945a2.971,2.971,0,0,1,2.43-1.1A2.255,2.255,0,0,1,51.582,7.68a2.9,2.9,0,0,1,2.539-1.289,2.521,2.521,0,0,1,2.047.8A3.681,3.681,0,0,1,56.84,9.6V15H54.574V9.609a1.61,1.61,0,0,0-.281-1.051,1.246,1.246,0,0,0-.992-.332,1.409,1.409,0,0,0-1.406.969L51.9,15H49.645V9.617a1.59,1.59,0,0,0-.289-1.062,1.259,1.259,0,0,0-.984-.328,1.463,1.463,0,0,0-1.391.8V15H44.723V6.547ZM63.473,15a2.507,2.507,0,0,1-.227-.758,2.732,2.732,0,0,1-2.133.914,3,3,0,0,1-2.059-.719,2.312,2.312,0,0,1-.816-1.812,2.389,2.389,0,0,1,1-2.062,4.915,4.915,0,0,1,2.879-.727h1.039V9.352a1.393,1.393,0,0,0-.3-.937,1.183,1.183,0,0,0-.949-.352,1.345,1.345,0,0,0-.895.273.929.929,0,0,0-.324.75H58.426a2.268,2.268,0,0,1,.453-1.359,3,3,0,0,1,1.281-.98,4.669,4.669,0,0,1,1.859-.355,3.689,3.689,0,0,1,2.48.785,2.747,2.747,0,0,1,.918,2.207v3.664a4.041,4.041,0,0,0,.336,1.82V15Zm-1.867-1.57a1.945,1.945,0,0,0,.922-.223,1.462,1.462,0,0,0,.625-.6V11.156h-.844q-1.7,0-1.8,1.172l-.008.133a.9.9,0,0,0,.3.7A1.153,1.153,0,0,0,61.605,13.43ZM69.23,6.547l.07.977a2.951,2.951,0,0,1,2.43-1.133,2.453,2.453,0,0,1,2,.789A3.682,3.682,0,0,1,74.4,9.539V15H72.145V9.594a1.465,1.465,0,0,0-.312-1.043,1.4,1.4,0,0,0-1.039-.324,1.553,1.553,0,0,0-1.43.813V15H67.105V6.547ZM73.715,3.1a2.187,2.187,0,0,1-.516,1.48,1.6,1.6,0,0,1-1.258.6,1.908,1.908,0,0,1-.527-.066,3.539,3.539,0,0,1-.637-.285,3.435,3.435,0,0,0-.586-.27,1.432,1.432,0,0,0-.391-.051.627.627,0,0,0-.465.2.759.759,0,0,0-.191.555L67.832,5.18A2.22,2.22,0,0,1,68.344,3.7,1.578,1.578,0,0,1,69.6,3.094a1.614,1.614,0,0,1,.441.059,4.86,4.86,0,0,1,.676.285,4.392,4.392,0,0,0,.648.273,1.48,1.48,0,0,0,.375.047.659.659,0,0,0,.473-.191.728.728,0,0,0,.2-.551ZM75.762,10.7a5.013,5.013,0,0,1,.484-2.242A3.546,3.546,0,0,1,77.641,6.93a4.069,4.069,0,0,1,2.113-.539,3.849,3.849,0,0,1,2.793,1.047,4.2,4.2,0,0,1,1.207,2.844l.016.578a4.418,4.418,0,0,1-1.086,3.121,4.209,4.209,0,0,1-5.832,0,4.5,4.5,0,0,1-1.09-3.187Zm2.258.16a3.16,3.16,0,0,0,.453,1.843,1.628,1.628,0,0,0,2.578.008,3.457,3.457,0,0,0,.461-2.015,3.128,3.128,0,0,0-.461-1.831,1.5,1.5,0,0,0-1.3-.649,1.474,1.474,0,0,0-1.281.646A3.516,3.516,0,0,0,78.02,10.856ZM92.3,11.8l1.563-5.258h2.422l-3.4,9.766-.187.445a2.577,2.577,0,0,1-2.5,1.656,3.552,3.552,0,0,1-1-.148V16.555l.344.008a1.857,1.857,0,0,0,.957-.2,1.283,1.283,0,0,0,.5-.648l.266-.7L88.3,6.547h2.43ZM23.289,37.336a1.481,1.481,0,0,0,1.016-.344,1.2,1.2,0,0,0,.406-.914h2.117a2.9,2.9,0,0,1-.469,1.574A3.093,3.093,0,0,1,25.1,38.762a3.949,3.949,0,0,1-1.77.395A3.67,3.67,0,0,1,20.469,38a4.56,4.56,0,0,1-1.047-3.184v-.148a4.508,4.508,0,0,1,1.039-3.117,3.627,3.627,0,0,1,2.852-1.164,3.555,3.555,0,0,1,2.543.9,3.2,3.2,0,0,1,.973,2.4H24.711a1.551,1.551,0,0,0-.406-1.072,1.51,1.51,0,0,0-2.223.163,3.333,3.333,0,0,0-.4,1.866v.235a3.375,3.375,0,0,0,.4,1.878A1.377,1.377,0,0,0,23.289,37.336Zm9.578-4.672a6.134,6.134,0,0,0-.812-.062,1.654,1.654,0,0,0-1.68.867V39H28.117V30.547H30.25l.063,1.008A2.092,2.092,0,0,1,32.2,30.391a2.366,2.366,0,0,1,.7.1ZM37.7,39.156a4.15,4.15,0,0,1-3.027-1.141A4.054,4.054,0,0,1,33.5,34.977v-.219a5.106,5.106,0,0,1,.492-2.277,3.612,3.612,0,0,1,1.395-1.547,3.914,3.914,0,0,1,2.059-.543,3.508,3.508,0,0,1,2.73,1.094,4.444,4.444,0,0,1,1,3.1v.922H35.789a2.1,2.1,0,0,0,.66,1.328,2,2,0,0,0,1.395.5,2.437,2.437,0,0,0,2.039-.945l1.109,1.242a3.389,3.389,0,0,1-1.375,1.121A4.511,4.511,0,0,1,37.7,39.156Zm-.258-6.945a1.411,1.411,0,0,0-1.09.455,2.357,2.357,0,0,0-.535,1.3h3.141v-.181a1.681,1.681,0,0,0-.406-1.165A1.456,1.456,0,0,0,37.438,32.211Zm8.531,5.125a1.481,1.481,0,0,0,1.016-.344,1.2,1.2,0,0,0,.406-.914h2.117a2.9,2.9,0,0,1-.469,1.574,3.093,3.093,0,0,1-1.262,1.109,3.949,3.949,0,0,1-1.77.395A3.67,3.67,0,0,1,43.148,38,4.56,4.56,0,0,1,42.1,34.82v-.148a4.508,4.508,0,0,1,1.039-3.117,3.627,3.627,0,0,1,2.852-1.164,3.555,3.555,0,0,1,2.543.9,3.2,3.2,0,0,1,.973,2.4H47.391a1.551,1.551,0,0,0-.406-1.072,1.51,1.51,0,0,0-2.223.163,3.333,3.333,0,0,0-.4,1.866v.235a3.375,3.375,0,0,0,.4,1.878A1.377,1.377,0,0,0,45.969,37.336ZM53.18,39H50.914V30.547H53.18Zm-2.4-10.641a1.112,1.112,0,0,1,.34-.836,1.465,1.465,0,0,1,1.848,0,1.193,1.193,0,0,1,0,1.68,1.448,1.448,0,0,1-1.836,0A1.108,1.108,0,0,1,50.781,28.359Zm6.375,2.188.07.945a2.971,2.971,0,0,1,2.43-1.1A2.255,2.255,0,0,1,61.9,31.68a2.9,2.9,0,0,1,2.539-1.289,2.521,2.521,0,0,1,2.047.8,3.681,3.681,0,0,1,.672,2.41V39H64.891V33.609a1.61,1.61,0,0,0-.281-1.051,1.246,1.246,0,0,0-.992-.332,1.409,1.409,0,0,0-1.406.969l.008,5.8H59.961V33.617a1.59,1.59,0,0,0-.289-1.062,1.259,1.259,0,0,0-.984-.328,1.463,1.463,0,0,0-1.391.8V39H55.039V30.547ZM71.273,39H69.008V30.547h2.266Zm-2.4-10.641a1.112,1.112,0,0,1,.34-.836,1.465,1.465,0,0,1,1.848,0,1.193,1.193,0,0,1,0,1.68,1.448,1.448,0,0,1-1.836,0A1.108,1.108,0,0,1,68.875,28.359Zm8.148,10.8A4.15,4.15,0,0,1,74,38.016a4.054,4.054,0,0,1-1.168-3.039v-.219a5.106,5.106,0,0,1,.492-2.277,3.612,3.612,0,0,1,1.395-1.547,3.914,3.914,0,0,1,2.059-.543,3.508,3.508,0,0,1,2.73,1.094,4.444,4.444,0,0,1,1,3.1v.922H75.117a2.1,2.1,0,0,0,.66,1.328,2,2,0,0,0,1.395.5,2.437,2.437,0,0,0,2.039-.945l1.109,1.242a3.389,3.389,0,0,1-1.375,1.121A4.511,4.511,0,0,1,77.023,39.156Zm-.258-6.945a1.411,1.411,0,0,0-1.09.455,2.357,2.357,0,0,0-.535,1.3h3.141v-.181a1.681,1.681,0,0,0-.406-1.165A1.456,1.456,0,0,0,76.766,32.211Zm7.094-1.664.07.977a2.951,2.951,0,0,1,2.43-1.133,2.453,2.453,0,0,1,2,.789,3.682,3.682,0,0,1,.672,2.359V39H86.773V33.594a1.465,1.465,0,0,0-.312-1.043,1.4,1.4,0,0,0-1.039-.324,1.553,1.553,0,0,0-1.43.813V39H81.734V30.547Zm9.586-2.078v2.078h1.445V32.2H93.445v4.219a1.007,1.007,0,0,0,.18.672.9.9,0,0,0,.688.2,3.6,3.6,0,0,0,.664-.055v1.711a4.648,4.648,0,0,1-1.367.2,2.156,2.156,0,0,1-2.422-2.4V32.2H89.953V30.547h1.234V28.469ZM95.563,34.7a5.013,5.013,0,0,1,.484-2.242,3.546,3.546,0,0,1,1.395-1.523,4.069,4.069,0,0,1,2.113-.539,3.849,3.849,0,0,1,2.793,1.047,4.2,4.2,0,0,1,1.207,2.844l.016.578a4.418,4.418,0,0,1-1.086,3.121,4.209,4.209,0,0,1-5.832,0,4.5,4.5,0,0,1-1.09-3.187Zm2.258.16a3.16,3.16,0,0,0,.453,1.843,1.628,1.628,0,0,0,2.578.008,3.457,3.457,0,0,0,.461-2.015,3.128,3.128,0,0,0-.461-1.831,1.5,1.5,0,0,0-1.3-.649,1.474,1.474,0,0,0-1.281.646A3.516,3.516,0,0,0,97.82,34.856Z" transform="translate(888 1177)" fill="#12263f"/>
    <path id="Trazado_834107" data-name="Trazado 834107" d="M32.207,10.07h-4.5v3.047h5.281V15H25.363V3.625h7.609v1.9H27.707V8.234h4.5Zm6.586,2.594a.727.727,0,0,0-.41-.652,4.659,4.659,0,0,0-1.316-.426q-3.016-.633-3.016-2.562a2.323,2.323,0,0,1,.934-1.879,3.766,3.766,0,0,1,2.441-.754A4.053,4.053,0,0,1,40,7.148a2.388,2.388,0,0,1,.965,1.969H38.707a1.092,1.092,0,0,0-.312-.8A1.322,1.322,0,0,0,37.418,8a1.351,1.351,0,0,0-.883.258.814.814,0,0,0-.312.656.7.7,0,0,0,.355.605,3.657,3.657,0,0,0,1.2.4A9.8,9.8,0,0,1,39.2,10.3a2.336,2.336,0,0,1,1.789,2.273A2.2,2.2,0,0,1,40,14.441a4.28,4.28,0,0,1-2.562.715,4.47,4.47,0,0,1-1.887-.379,3.166,3.166,0,0,1-1.293-1.039,2.414,2.414,0,0,1-.469-1.426h2.141a1.179,1.179,0,0,0,.445.922,1.766,1.766,0,0,0,1.109.32,1.635,1.635,0,0,0,.98-.246A.766.766,0,0,0,38.793,12.664Zm6.352-8.2V6.547H46.59V8.2H45.145v4.219a1.007,1.007,0,0,0,.18.672.9.9,0,0,0,.688.2,3.6,3.6,0,0,0,.664-.055v1.711a4.648,4.648,0,0,1-1.367.2,2.156,2.156,0,0,1-2.422-2.4V8.2H41.652V6.547h1.234V4.469Zm7.453,4.2a6.134,6.134,0,0,0-.812-.062,1.654,1.654,0,0,0-1.68.867V15H47.848V6.547H49.98l.063,1.008a2.092,2.092,0,0,1,1.883-1.164,2.366,2.366,0,0,1,.7.1Zm6.148,5.477a2.831,2.831,0,0,1-2.312,1.016,2.67,2.67,0,0,1-2.074-.781,3.335,3.335,0,0,1-.73-2.289V6.547h2.258v5.467q0,1.322,1.2,1.322a1.63,1.63,0,0,0,1.578-.8V6.547h2.266V15H58.809Zm7.406-.8a1.481,1.481,0,0,0,1.016-.344,1.2,1.2,0,0,0,.406-.914h2.117a2.9,2.9,0,0,1-.469,1.574,3.093,3.093,0,0,1-1.262,1.109,3.949,3.949,0,0,1-1.77.395A3.67,3.67,0,0,1,63.332,14a4.56,4.56,0,0,1-1.047-3.184v-.148a4.508,4.508,0,0,1,1.039-3.117,3.627,3.627,0,0,1,2.852-1.164,3.555,3.555,0,0,1,2.543.9,3.2,3.2,0,0,1,.973,2.4H67.574a1.551,1.551,0,0,0-.406-1.072,1.51,1.51,0,0,0-2.223.163,3.333,3.333,0,0,0-.4,1.866v.235a3.375,3.375,0,0,0,.4,1.878A1.377,1.377,0,0,0,66.152,13.336Zm7.531-8.867V6.547h1.445V8.2H73.684v4.219a1.007,1.007,0,0,0,.18.672.9.9,0,0,0,.688.2,3.6,3.6,0,0,0,.664-.055v1.711a4.648,4.648,0,0,1-1.367.2,2.156,2.156,0,0,1-2.422-2.4V8.2H70.191V6.547h1.234V4.469Zm7.766,9.672a2.831,2.831,0,0,1-2.312,1.016,2.67,2.67,0,0,1-2.074-.781,3.335,3.335,0,0,1-.73-2.289V6.547H78.59v5.467q0,1.322,1.2,1.322a1.63,1.63,0,0,0,1.578-.8V6.547h2.266V15H81.512ZM90.09,8.664a6.134,6.134,0,0,0-.812-.062,1.654,1.654,0,0,0-1.68.867V15H85.34V6.547h2.133l.063,1.008a2.092,2.092,0,0,1,1.883-1.164,2.366,2.366,0,0,1,.7.1ZM95.84,15a2.507,2.507,0,0,1-.227-.758,2.732,2.732,0,0,1-2.133.914,3,3,0,0,1-2.059-.719,2.312,2.312,0,0,1-.816-1.812,2.389,2.389,0,0,1,1-2.062,4.915,4.915,0,0,1,2.879-.727H95.52V9.352a1.393,1.393,0,0,0-.3-.937,1.183,1.183,0,0,0-.949-.352,1.345,1.345,0,0,0-.895.273.929.929,0,0,0-.324.75H90.793a2.268,2.268,0,0,1,.453-1.359,3,3,0,0,1,1.281-.98,4.669,4.669,0,0,1,1.859-.355,3.689,3.689,0,0,1,2.48.785,2.747,2.747,0,0,1,.918,2.207v3.664a4.041,4.041,0,0,0,.336,1.82V15Zm-1.867-1.57a1.945,1.945,0,0,0,.922-.223,1.462,1.462,0,0,0,.625-.6V11.156h-.844q-1.7,0-1.8,1.172l-.008.133a.9.9,0,0,0,.3.7A1.153,1.153,0,0,0,93.973,13.43ZM14.336,34.375a11.99,11.99,0,0,1,.477-3.406,8.989,8.989,0,0,1,1.406-2.863,5.251,5.251,0,0,1,2.016-1.73l.438,1.219A5.438,5.438,0,0,0,16.891,30.2a12.082,12.082,0,0,0-.641,4.125v.242a12.313,12.313,0,0,0,.633,4.141,5.544,5.544,0,0,0,1.789,2.648l-.437,1.2a5.253,5.253,0,0,1-1.98-1.684,8.838,8.838,0,0,1-1.4-2.785,11.918,11.918,0,0,1-.516-3.3Zm9.406,4.781a4.15,4.15,0,0,1-3.027-1.141,4.054,4.054,0,0,1-1.168-3.039v-.219a5.106,5.106,0,0,1,.492-2.277,3.612,3.612,0,0,1,1.395-1.547,3.914,3.914,0,0,1,2.059-.543,3.508,3.508,0,0,1,2.73,1.094,4.444,4.444,0,0,1,1,3.1v.922H21.836a2.1,2.1,0,0,0,.66,1.328,2,2,0,0,0,1.395.5,2.437,2.437,0,0,0,2.039-.945l1.109,1.242a3.389,3.389,0,0,1-1.375,1.121A4.511,4.511,0,0,1,23.742,39.156Zm-.258-6.945a1.411,1.411,0,0,0-1.09.455,2.357,2.357,0,0,0-.535,1.3H25v-.181a1.681,1.681,0,0,0-.406-1.165A1.456,1.456,0,0,0,23.484,32.211Zm4.664,2.5a5.094,5.094,0,0,1,.887-3.148,2.877,2.877,0,0,1,2.426-1.172,2.589,2.589,0,0,1,2.039.922V27h2.266V39H33.727l-.109-.9a2.657,2.657,0,0,1-2.172,1.055,2.869,2.869,0,0,1-2.395-1.176A5.258,5.258,0,0,1,28.148,34.711Zm2.258.168A3.337,3.337,0,0,0,30.82,36.7a1.349,1.349,0,0,0,1.2.634,1.511,1.511,0,0,0,1.477-.884V33.111a1.489,1.489,0,0,0-1.461-.884Q30.406,32.227,30.406,34.879ZM42.414,39a2.507,2.507,0,0,1-.227-.758,2.732,2.732,0,0,1-2.133.914A3,3,0,0,1,38,38.438a2.312,2.312,0,0,1-.816-1.812,2.389,2.389,0,0,1,1-2.062,4.915,4.915,0,0,1,2.879-.727h1.039v-.484a1.393,1.393,0,0,0-.3-.937,1.183,1.183,0,0,0-.949-.352,1.345,1.345,0,0,0-.895.273.929.929,0,0,0-.324.75H37.367a2.268,2.268,0,0,1,.453-1.359,3,3,0,0,1,1.281-.98,4.669,4.669,0,0,1,1.859-.355,3.689,3.689,0,0,1,2.48.785,2.747,2.747,0,0,1,.918,2.207v3.664a4.041,4.041,0,0,0,.336,1.82V39Zm-1.867-1.57a1.945,1.945,0,0,0,.922-.223,1.462,1.462,0,0,0,.625-.6V35.156H41.25q-1.7,0-1.8,1.172l-.008.133a.9.9,0,0,0,.3.7A1.153,1.153,0,0,0,40.547,37.43Zm5.2-2.719a5.094,5.094,0,0,1,.887-3.148,2.877,2.877,0,0,1,2.426-1.172,2.589,2.589,0,0,1,2.039.922V27h2.266V39H51.32l-.109-.9a2.657,2.657,0,0,1-2.172,1.055,2.869,2.869,0,0,1-2.395-1.176A5.258,5.258,0,0,1,45.742,34.711ZM48,34.879a3.337,3.337,0,0,0,.414,1.823,1.349,1.349,0,0,0,1.2.634,1.511,1.511,0,0,0,1.477-.884V33.111a1.489,1.489,0,0,0-1.461-.884Q48,32.227,48,34.879Zm14.25.926,1.563-5.258h2.422l-3.4,9.766-.187.445a2.577,2.577,0,0,1-2.5,1.656,3.553,3.553,0,0,1-1-.148V40.555l.344.008a1.857,1.857,0,0,0,.957-.2,1.283,1.283,0,0,0,.5-.648l.266-.7L58.25,30.547h2.43Zm13.438.859a.727.727,0,0,0-.41-.652,4.659,4.659,0,0,0-1.316-.426q-3.016-.633-3.016-2.562a2.323,2.323,0,0,1,.934-1.879,3.766,3.766,0,0,1,2.441-.754,4.053,4.053,0,0,1,2.574.758,2.388,2.388,0,0,1,.965,1.969H75.6a1.092,1.092,0,0,0-.312-.8A1.322,1.322,0,0,0,74.313,32a1.351,1.351,0,0,0-.883.258.814.814,0,0,0-.312.656.7.7,0,0,0,.355.605,3.657,3.657,0,0,0,1.2.4,9.8,9.8,0,0,1,1.422.379,2.336,2.336,0,0,1,1.789,2.273,2.2,2.2,0,0,1-.992,1.871,4.28,4.28,0,0,1-2.562.715,4.47,4.47,0,0,1-1.887-.379,3.166,3.166,0,0,1-1.293-1.039,2.414,2.414,0,0,1-.469-1.426H72.82a1.179,1.179,0,0,0,.445.922,1.766,1.766,0,0,0,1.109.32,1.635,1.635,0,0,0,.98-.246A.766.766,0,0,0,75.688,36.664Zm7.539,2.492A4.15,4.15,0,0,1,80.2,38.016a4.054,4.054,0,0,1-1.168-3.039v-.219a5.106,5.106,0,0,1,.492-2.277,3.612,3.612,0,0,1,1.395-1.547,3.914,3.914,0,0,1,2.059-.543,3.508,3.508,0,0,1,2.73,1.094,4.444,4.444,0,0,1,1,3.1v.922H81.32a2.1,2.1,0,0,0,.66,1.328,2,2,0,0,0,1.395.5,2.437,2.437,0,0,0,2.039-.945l1.109,1.242a3.389,3.389,0,0,1-1.375,1.121A4.511,4.511,0,0,1,83.227,39.156Zm-.258-6.945a1.411,1.411,0,0,0-1.09.455,2.357,2.357,0,0,0-.535,1.3h3.141v-.181a1.681,1.681,0,0,0-.406-1.165A1.456,1.456,0,0,0,82.969,32.211Zm8.234.859,1.422-2.523h2.414l-2.406,4.141L95.141,39H92.719l-1.508-2.656L89.711,39h-2.43l2.508-4.312-2.4-4.141h2.422ZM95.461,34.7a5.013,5.013,0,0,1,.484-2.242A3.546,3.546,0,0,1,97.34,30.93a4.069,4.069,0,0,1,2.113-.539,3.849,3.849,0,0,1,2.793,1.047,4.2,4.2,0,0,1,1.207,2.844l.016.578a4.418,4.418,0,0,1-1.086,3.121,4.209,4.209,0,0,1-5.832,0,4.5,4.5,0,0,1-1.09-3.187Zm2.258.16a3.16,3.16,0,0,0,.453,1.843,1.628,1.628,0,0,0,2.578.008,3.457,3.457,0,0,0,.461-2.015,3.128,3.128,0,0,0-.461-1.831,1.5,1.5,0,0,0-1.3-.649,1.474,1.474,0,0,0-1.281.646A3.516,3.516,0,0,0,97.719,34.856Zm11.031-.3a11.377,11.377,0,0,1-.508,3.4,9.225,9.225,0,0,1-1.461,2.883,5.263,5.263,0,0,1-2.039,1.719l-.437-1.2a5.494,5.494,0,0,0,1.75-2.578,11.939,11.939,0,0,0,.664-4.008v-.414a12.209,12.209,0,0,0-.637-4.117A5.727,5.727,0,0,0,104.3,27.57l.438-1.2a5.265,5.265,0,0,1,2,1.672,9.106,9.106,0,0,1,1.461,2.82,11.3,11.3,0,0,1,.543,3.336Z" transform="translate(1099 1177)" fill="#12263f"/>
    <path id="Trazado_834113" data-name="Trazado 834113" d="M19.063,15V3.625h3.5a5.315,5.315,0,0,1,2.684.676,4.712,4.712,0,0,1,1.848,1.922,5.928,5.928,0,0,1,.664,2.832v.523a5.945,5.945,0,0,1-.652,2.82,4.672,4.672,0,0,1-1.84,1.914,5.355,5.355,0,0,1-2.68.688Zm2.344-9.477v7.594h1.133a2.545,2.545,0,0,0,2.1-.9,4.06,4.06,0,0,0,.742-2.57v-.6a4.124,4.124,0,0,0-.719-2.629,2.537,2.537,0,0,0-2.1-.895ZM31.7,15H29.43V6.547H31.7ZM29.3,4.359a1.112,1.112,0,0,1,.34-.836,1.465,1.465,0,0,1,1.848,0,1.105,1.105,0,0,1,.344.836,1.108,1.108,0,0,1-.348.844,1.448,1.448,0,0,1-1.836,0A1.108,1.108,0,0,1,29.3,4.359Zm8.836,8.3a.727.727,0,0,0-.41-.652,4.659,4.659,0,0,0-1.316-.426q-3.016-.633-3.016-2.562a2.323,2.323,0,0,1,.934-1.879,3.766,3.766,0,0,1,2.441-.754,4.053,4.053,0,0,1,2.574.758A2.388,2.388,0,0,1,40.3,9.117H38.047a1.092,1.092,0,0,0-.312-.8A1.322,1.322,0,0,0,36.758,8a1.351,1.351,0,0,0-.883.258.814.814,0,0,0-.312.656.7.7,0,0,0,.355.605,3.657,3.657,0,0,0,1.2.4,9.8,9.8,0,0,1,1.422.379,2.336,2.336,0,0,1,1.789,2.273,2.2,2.2,0,0,1-.992,1.871,4.28,4.28,0,0,1-2.562.715,4.47,4.47,0,0,1-1.887-.379,3.166,3.166,0,0,1-1.293-1.039,2.414,2.414,0,0,1-.469-1.426h2.141a1.179,1.179,0,0,0,.445.922,1.766,1.766,0,0,0,1.109.32,1.635,1.635,0,0,0,.98-.246A.766.766,0,0,0,38.133,12.664Zm6.352-8.2V6.547H45.93V8.2H44.484v4.219a1.007,1.007,0,0,0,.18.672.9.9,0,0,0,.688.2,3.6,3.6,0,0,0,.664-.055v1.711a4.648,4.648,0,0,1-1.367.2,2.156,2.156,0,0,1-2.422-2.4V8.2H40.992V6.547h1.234V4.469Zm7.453,4.2a6.134,6.134,0,0,0-.812-.062,1.654,1.654,0,0,0-1.68.867V15H47.188V6.547H49.32l.063,1.008a2.092,2.092,0,0,1,1.883-1.164,2.366,2.366,0,0,1,.7.1ZM55.406,15H53.141V6.547h2.266Zm-2.4-10.641a1.112,1.112,0,0,1,.34-.836,1.465,1.465,0,0,1,1.848,0,1.105,1.105,0,0,1,.344.836,1.108,1.108,0,0,1-.348.844,1.448,1.448,0,0,1-1.836,0A1.108,1.108,0,0,1,53.008,4.359Zm11.875,6.492a5.119,5.119,0,0,1-.867,3.168,2.872,2.872,0,0,1-2.422,1.137A2.639,2.639,0,0,1,59.4,14.1l-.1.9H57.266V3h2.258V7.3a2.571,2.571,0,0,1,2.055-.914A2.9,2.9,0,0,1,64,7.527a5.126,5.126,0,0,1,.879,3.2Zm-2.258-.164a3.363,3.363,0,0,0-.406-1.871,1.374,1.374,0,0,0-1.211-.59,1.489,1.489,0,0,0-1.484.883v3.336a1.509,1.509,0,0,0,1.5.891,1.394,1.394,0,0,0,1.438-1.078A5.562,5.562,0,0,0,62.625,10.688Zm8.711,3.453a2.831,2.831,0,0,1-2.312,1.016,2.67,2.67,0,0,1-2.074-.781,3.335,3.335,0,0,1-.73-2.289V6.547h2.258v5.467q0,1.322,1.2,1.322a1.63,1.63,0,0,0,1.578-.8V6.547h2.266V15H71.4Zm7.406-.8a1.481,1.481,0,0,0,1.016-.344,1.2,1.2,0,0,0,.406-.914h2.117a2.9,2.9,0,0,1-.469,1.574,3.093,3.093,0,0,1-1.262,1.109,3.949,3.949,0,0,1-1.77.395A3.67,3.67,0,0,1,75.922,14a4.56,4.56,0,0,1-1.047-3.184v-.148a4.508,4.508,0,0,1,1.039-3.117,3.627,3.627,0,0,1,2.852-1.164,3.555,3.555,0,0,1,2.543.9,3.2,3.2,0,0,1,.973,2.4H80.164a1.551,1.551,0,0,0-.406-1.072,1.51,1.51,0,0,0-2.223.163,3.333,3.333,0,0,0-.4,1.866v.235a3.375,3.375,0,0,0,.4,1.878A1.377,1.377,0,0,0,78.742,13.336ZM85.953,15H83.688V6.547h2.266Zm-2.4-10.641a1.112,1.112,0,0,1,.34-.836,1.465,1.465,0,0,1,1.848,0,1.105,1.105,0,0,1,.344.836,1.108,1.108,0,0,1-.348.844,1.448,1.448,0,0,1-1.836,0A1.108,1.108,0,0,1,83.555,4.359ZM87.461,10.7a5.013,5.013,0,0,1,.484-2.242A3.546,3.546,0,0,1,89.34,6.93a4.069,4.069,0,0,1,2.113-.539,3.849,3.849,0,0,1,2.793,1.047,4.2,4.2,0,0,1,1.207,2.844l.016.578a4.418,4.418,0,0,1-1.086,3.121,4.209,4.209,0,0,1-5.832,0,4.5,4.5,0,0,1-1.09-3.187Zm2.258.16a3.16,3.16,0,0,0,.453,1.843,1.628,1.628,0,0,0,2.578.008,3.457,3.457,0,0,0,.461-2.015A3.128,3.128,0,0,0,92.75,8.86a1.5,1.5,0,0,0-1.3-.649,1.474,1.474,0,0,0-1.281.646A3.516,3.516,0,0,0,89.719,10.856ZM91.9,3h2.461L92.2,5.422H90.359Zm7.039,3.547.07.977a2.951,2.951,0,0,1,2.43-1.133,2.453,2.453,0,0,1,2,.789,3.682,3.682,0,0,1,.672,2.359V15h-2.258V9.594a1.465,1.465,0,0,0-.312-1.043,1.4,1.4,0,0,0-1.039-.324,1.553,1.553,0,0,0-1.43.813V15H96.813V6.547ZM36.324,39.156A4.15,4.15,0,0,1,33.3,38.016a4.054,4.054,0,0,1-1.168-3.039v-.219a5.106,5.106,0,0,1,.492-2.277,3.612,3.612,0,0,1,1.395-1.547,3.914,3.914,0,0,1,2.059-.543,3.508,3.508,0,0,1,2.73,1.094,4.444,4.444,0,0,1,1,3.1v.922H34.418a2.1,2.1,0,0,0,.66,1.328,2,2,0,0,0,1.395.5,2.437,2.437,0,0,0,2.039-.945l1.109,1.242a3.389,3.389,0,0,1-1.375,1.121A4.511,4.511,0,0,1,36.324,39.156Zm-.258-6.945a1.411,1.411,0,0,0-1.09.455,2.357,2.357,0,0,0-.535,1.3h3.141v-.181a1.681,1.681,0,0,0-.406-1.165A1.456,1.456,0,0,0,36.066,32.211Zm9.594,4.453a.727.727,0,0,0-.41-.652,4.659,4.659,0,0,0-1.316-.426q-3.016-.633-3.016-2.562a2.323,2.323,0,0,1,.934-1.879,3.766,3.766,0,0,1,2.441-.754,4.053,4.053,0,0,1,2.574.758,2.388,2.388,0,0,1,.965,1.969H45.574a1.092,1.092,0,0,0-.312-.8A1.322,1.322,0,0,0,44.285,32a1.351,1.351,0,0,0-.883.258.814.814,0,0,0-.312.656.7.7,0,0,0,.355.605,3.657,3.657,0,0,0,1.2.4,9.8,9.8,0,0,1,1.422.379,2.336,2.336,0,0,1,1.789,2.273,2.205,2.205,0,0,1-.992,1.871,4.28,4.28,0,0,1-2.562.715,4.47,4.47,0,0,1-1.887-.379,3.166,3.166,0,0,1-1.293-1.039,2.414,2.414,0,0,1-.469-1.426h2.141a1.179,1.179,0,0,0,.445.922,1.766,1.766,0,0,0,1.109.32,1.635,1.635,0,0,0,.98-.246A.766.766,0,0,0,45.66,36.664Zm11.258-1.812a5.07,5.07,0,0,1-.887,3.129,2.843,2.843,0,0,1-2.395,1.176,2.633,2.633,0,0,1-2.07-.891V42.25H49.309v-11.7H51.4l.078.828a2.654,2.654,0,0,1,2.141-.984,2.862,2.862,0,0,1,2.43,1.156,5.207,5.207,0,0,1,.867,3.188Zm-2.258-.164a3.327,3.327,0,0,0-.418-1.82,1.361,1.361,0,0,0-1.215-.641,1.478,1.478,0,0,0-1.461.813V36.5a1.5,1.5,0,0,0,1.477.836Q54.66,37.336,54.66,34.688ZM63.215,39a2.507,2.507,0,0,1-.227-.758,2.732,2.732,0,0,1-2.133.914,3,3,0,0,1-2.059-.719,2.312,2.312,0,0,1-.816-1.812,2.389,2.389,0,0,1,1-2.062,4.915,4.915,0,0,1,2.879-.727h1.039v-.484a1.393,1.393,0,0,0-.3-.937,1.183,1.183,0,0,0-.949-.352,1.345,1.345,0,0,0-.895.273.929.929,0,0,0-.324.75H58.168a2.268,2.268,0,0,1,.453-1.359,3,3,0,0,1,1.281-.98,4.669,4.669,0,0,1,1.859-.355,3.689,3.689,0,0,1,2.48.785,2.747,2.747,0,0,1,.918,2.207v3.664a4.041,4.041,0,0,0,.336,1.82V39Zm-1.867-1.57a1.945,1.945,0,0,0,.922-.223,1.462,1.462,0,0,0,.625-.6V35.156h-.844q-1.7,0-1.8,1.172l-.008.133a.9.9,0,0,0,.3.7A1.153,1.153,0,0,0,61.348,37.43Zm9.063-.094a1.481,1.481,0,0,0,1.016-.344,1.2,1.2,0,0,0,.406-.914h2.117a2.9,2.9,0,0,1-.469,1.574,3.093,3.093,0,0,1-1.262,1.109,3.949,3.949,0,0,1-1.77.395A3.67,3.67,0,0,1,67.59,38a4.56,4.56,0,0,1-1.047-3.184v-.148a4.508,4.508,0,0,1,1.039-3.117,3.627,3.627,0,0,1,2.852-1.164,3.555,3.555,0,0,1,2.543.9,3.2,3.2,0,0,1,.973,2.4H71.832a1.551,1.551,0,0,0-.406-1.072,1.51,1.51,0,0,0-2.223.163,3.333,3.333,0,0,0-.4,1.866v.235a3.375,3.375,0,0,0,.4,1.878A1.377,1.377,0,0,0,70.41,37.336ZM77.621,39H75.355V30.547h2.266Zm-2.4-10.641a1.112,1.112,0,0,1,.34-.836,1.465,1.465,0,0,1,1.848,0,1.193,1.193,0,0,1,0,1.68,1.448,1.448,0,0,1-1.836,0A1.108,1.108,0,0,1,75.223,28.359ZM84.379,39a2.507,2.507,0,0,1-.227-.758,2.732,2.732,0,0,1-2.133.914,3,3,0,0,1-2.059-.719,2.312,2.312,0,0,1-.816-1.812,2.389,2.389,0,0,1,1-2.062,4.915,4.915,0,0,1,2.879-.727h1.039v-.484a1.393,1.393,0,0,0-.3-.937,1.183,1.183,0,0,0-.949-.352,1.345,1.345,0,0,0-.895.273.929.929,0,0,0-.324.75H79.332a2.268,2.268,0,0,1,.453-1.359,3,3,0,0,1,1.281-.98,4.669,4.669,0,0,1,1.859-.355,3.689,3.689,0,0,1,2.48.785,2.747,2.747,0,0,1,.918,2.207v3.664a4.041,4.041,0,0,0,.336,1.82V39Zm-1.867-1.57a1.945,1.945,0,0,0,.922-.223,1.462,1.462,0,0,0,.625-.6V35.156h-.844q-1.7,0-1.8,1.172l-.008.133a.9.9,0,0,0,.3.7A1.153,1.153,0,0,0,82.512,37.43ZM90.441,39H88.176V27h2.266Z" transform="translate(888 1391)" fill="#12263f"/>
    <path id="Trazado_834114" data-name="Trazado 834114" d="M30.395,3.625l2.922,8.25,2.906-8.25H39.3V15H36.949V11.891l.234-5.367L34.113,15H32.5L29.441,6.531l.234,5.359V15H27.332V3.625ZM40.848,10.7a5.013,5.013,0,0,1,.484-2.242A3.546,3.546,0,0,1,42.727,6.93a4.069,4.069,0,0,1,2.113-.539,3.849,3.849,0,0,1,2.793,1.047,4.2,4.2,0,0,1,1.207,2.844l.016.578A4.418,4.418,0,0,1,47.77,13.98a4.209,4.209,0,0,1-5.832,0,4.5,4.5,0,0,1-1.09-3.187Zm2.258.16a3.16,3.16,0,0,0,.453,1.843,1.628,1.628,0,0,0,2.578.008,3.457,3.457,0,0,0,.461-2.015,3.128,3.128,0,0,0-.461-1.831,1.5,1.5,0,0,0-1.3-.649,1.474,1.474,0,0,0-1.281.646A3.516,3.516,0,0,0,43.105,10.856Zm10.188,1.387,1.57-5.7h2.359L54.371,15H52.215L49.363,6.547h2.359ZM60.6,15H58.332V6.547H60.6ZM58.2,4.359a1.112,1.112,0,0,1,.34-.836,1.465,1.465,0,0,1,1.848,0,1.105,1.105,0,0,1,.344.836,1.108,1.108,0,0,1-.348.844,1.448,1.448,0,0,1-1.836,0A1.108,1.108,0,0,1,58.2,4.359ZM64.84,15H62.574V3H64.84Zm4.242,0H66.816V6.547h2.266Zm-2.4-10.641a1.112,1.112,0,0,1,.34-.836,1.465,1.465,0,0,1,1.848,0,1.105,1.105,0,0,1,.344.836,1.108,1.108,0,0,1-.348.844,1.448,1.448,0,0,1-1.836,0A1.108,1.108,0,0,1,66.684,4.359Zm3.906,6.352a5.094,5.094,0,0,1,.887-3.148A2.877,2.877,0,0,1,73.9,6.391a2.589,2.589,0,0,1,2.039.922V3h2.266V15H76.168l-.109-.9a2.657,2.657,0,0,1-2.172,1.055,2.869,2.869,0,0,1-2.395-1.176A5.258,5.258,0,0,1,70.59,10.711Zm2.258.168a3.337,3.337,0,0,0,.414,1.823,1.349,1.349,0,0,0,1.2.634,1.511,1.511,0,0,0,1.477-.884V9.111a1.489,1.489,0,0,0-1.461-.884Q72.848,8.227,72.848,10.879ZM84.855,15a2.507,2.507,0,0,1-.227-.758,2.732,2.732,0,0,1-2.133.914,3,3,0,0,1-2.059-.719,2.312,2.312,0,0,1-.816-1.812,2.389,2.389,0,0,1,1-2.062A4.915,4.915,0,0,1,83.5,9.836h1.039V9.352a1.393,1.393,0,0,0-.3-.937,1.183,1.183,0,0,0-.949-.352,1.345,1.345,0,0,0-.895.273.929.929,0,0,0-.324.75H79.809a2.268,2.268,0,0,1,.453-1.359,3,3,0,0,1,1.281-.98A4.669,4.669,0,0,1,83.4,6.391a3.689,3.689,0,0,1,2.48.785A2.747,2.747,0,0,1,86.8,9.383v3.664a4.041,4.041,0,0,0,.336,1.82V15Zm-1.867-1.57a1.945,1.945,0,0,0,.922-.223,1.462,1.462,0,0,0,.625-.6V11.156h-.844q-1.7,0-1.8,1.172l-.008.133a.9.9,0,0,0,.3.7A1.153,1.153,0,0,0,82.988,13.43Zm5.2-2.719a5.094,5.094,0,0,1,.887-3.148A2.877,2.877,0,0,1,91.5,6.391a2.589,2.589,0,0,1,2.039.922V3H95.8V15H93.762l-.109-.9a2.657,2.657,0,0,1-2.172,1.055,2.869,2.869,0,0,1-2.395-1.176A5.258,5.258,0,0,1,88.184,10.711Zm2.258.168a3.337,3.337,0,0,0,.414,1.823,1.349,1.349,0,0,0,1.2.634,1.511,1.511,0,0,0,1.477-.884V9.111a1.489,1.489,0,0,0-1.461-.884Q90.441,8.227,90.441,10.879Z" transform="translate(1101 1399)" fill="#12263f"/>
    <path id="Trazado_834112" data-name="Trazado 834112" d="M27.789,11.211A4.025,4.025,0,0,1,26.434,14.1a4.76,4.76,0,0,1-3.223,1.055,4.28,4.28,0,0,1-3.441-1.473,6.038,6.038,0,0,1-1.254-4.043v-.7a6.819,6.819,0,0,1,.578-2.891,4.332,4.332,0,0,1,1.652-1.918,4.629,4.629,0,0,1,2.5-.668,4.637,4.637,0,0,1,3.172,1.055A4.326,4.326,0,0,1,27.8,7.484H25.461a2.376,2.376,0,0,0-.613-1.6,2.271,2.271,0,0,0-1.605-.5,1.991,1.991,0,0,0-1.754.84,4.707,4.707,0,0,0-.6,2.605V9.7a5.038,5.038,0,0,0,.559,2.7,1.954,1.954,0,0,0,1.762.852,2.314,2.314,0,0,0,1.621-.5,2.241,2.241,0,0,0,.613-1.535ZM33.93,8.664a6.134,6.134,0,0,0-.812-.062,1.654,1.654,0,0,0-1.68.867V15H29.18V6.547h2.133l.063,1.008a2.092,2.092,0,0,1,1.883-1.164,2.366,2.366,0,0,1,.7.1Zm4.828,6.492a4.15,4.15,0,0,1-3.027-1.141,4.054,4.054,0,0,1-1.168-3.039v-.219a5.106,5.106,0,0,1,.492-2.277,3.612,3.612,0,0,1,1.395-1.547,3.914,3.914,0,0,1,2.059-.543,3.508,3.508,0,0,1,2.73,1.094,4.444,4.444,0,0,1,1,3.1v.922H36.852a2.1,2.1,0,0,0,.66,1.328,2,2,0,0,0,1.395.5,2.437,2.437,0,0,0,2.039-.945l1.109,1.242a3.389,3.389,0,0,1-1.375,1.121A4.511,4.511,0,0,1,38.758,15.156ZM38.5,8.211a1.411,1.411,0,0,0-1.09.455,2.357,2.357,0,0,0-.535,1.3h3.141V9.788a1.681,1.681,0,0,0-.406-1.165A1.456,1.456,0,0,0,38.5,8.211Zm8.531,5.125a1.481,1.481,0,0,0,1.016-.344,1.2,1.2,0,0,0,.406-.914H50.57a2.9,2.9,0,0,1-.469,1.574,3.093,3.093,0,0,1-1.262,1.109,3.949,3.949,0,0,1-1.77.395A3.67,3.67,0,0,1,44.211,14a4.56,4.56,0,0,1-1.047-3.184v-.148A4.508,4.508,0,0,1,44.2,7.555a3.627,3.627,0,0,1,2.852-1.164,3.555,3.555,0,0,1,2.543.9,3.2,3.2,0,0,1,.973,2.4H48.453a1.551,1.551,0,0,0-.406-1.072,1.51,1.51,0,0,0-2.223.163,3.333,3.333,0,0,0-.4,1.866v.235a3.375,3.375,0,0,0,.4,1.878A1.377,1.377,0,0,0,47.031,13.336ZM54.242,15H51.977V6.547h2.266Zm-2.4-10.641a1.112,1.112,0,0,1,.34-.836,1.465,1.465,0,0,1,1.848,0,1.105,1.105,0,0,1,.344.836,1.108,1.108,0,0,1-.348.844,1.448,1.448,0,0,1-1.836,0A1.108,1.108,0,0,1,51.844,4.359Zm6.375,2.188.07.945a2.971,2.971,0,0,1,2.43-1.1A2.255,2.255,0,0,1,62.961,7.68,2.9,2.9,0,0,1,65.5,6.391a2.521,2.521,0,0,1,2.047.8,3.681,3.681,0,0,1,.672,2.41V15H65.953V9.609a1.61,1.61,0,0,0-.281-1.051,1.246,1.246,0,0,0-.992-.332,1.409,1.409,0,0,0-1.406.969l.008,5.8H61.023V9.617a1.59,1.59,0,0,0-.289-1.062,1.259,1.259,0,0,0-.984-.328,1.463,1.463,0,0,0-1.391.8V15H56.1V6.547ZM72.336,15H70.07V6.547h2.266Zm-2.4-10.641a1.112,1.112,0,0,1,.34-.836,1.465,1.465,0,0,1,1.848,0,1.105,1.105,0,0,1,.344.836,1.108,1.108,0,0,1-.348.844,1.448,1.448,0,0,1-1.836,0A1.108,1.108,0,0,1,69.938,4.359Zm8.148,10.8a4.15,4.15,0,0,1-3.027-1.141,4.054,4.054,0,0,1-1.168-3.039v-.219a5.106,5.106,0,0,1,.492-2.277,3.612,3.612,0,0,1,1.395-1.547,3.914,3.914,0,0,1,2.059-.543,3.508,3.508,0,0,1,2.73,1.094,4.444,4.444,0,0,1,1,3.1v.922H76.18a2.1,2.1,0,0,0,.66,1.328,2,2,0,0,0,1.395.5,2.437,2.437,0,0,0,2.039-.945l1.109,1.242a3.389,3.389,0,0,1-1.375,1.121A4.511,4.511,0,0,1,78.086,15.156Zm-.258-6.945a1.411,1.411,0,0,0-1.09.455,2.357,2.357,0,0,0-.535,1.3h3.141V9.788a1.681,1.681,0,0,0-.406-1.165A1.456,1.456,0,0,0,77.828,8.211Zm7.094-1.664.07.977a2.951,2.951,0,0,1,2.43-1.133,2.453,2.453,0,0,1,2,.789,3.682,3.682,0,0,1,.672,2.359V15H87.836V9.594a1.465,1.465,0,0,0-.312-1.043,1.4,1.4,0,0,0-1.039-.324,1.553,1.553,0,0,0-1.43.813V15H82.8V6.547Zm9.586-2.078V6.547h1.445V8.2H94.508v4.219a1.007,1.007,0,0,0,.18.672.9.9,0,0,0,.688.2,3.6,3.6,0,0,0,.664-.055v1.711a4.648,4.648,0,0,1-1.367.2,2.156,2.156,0,0,1-2.422-2.4V8.2H91.016V6.547H92.25V4.469ZM96.625,10.7a5.013,5.013,0,0,1,.484-2.242A3.546,3.546,0,0,1,98.5,6.93a4.069,4.069,0,0,1,2.113-.539,3.849,3.849,0,0,1,2.793,1.047,4.2,4.2,0,0,1,1.207,2.844l.016.578a4.418,4.418,0,0,1-1.086,3.121,4.209,4.209,0,0,1-5.832,0,4.5,4.5,0,0,1-1.09-3.187Zm2.258.16a3.16,3.16,0,0,0,.453,1.843,1.628,1.628,0,0,0,2.578.008,3.457,3.457,0,0,0,.461-2.015,3.128,3.128,0,0,0-.461-1.831,1.5,1.5,0,0,0-1.3-.649,1.474,1.474,0,0,0-1.281.646A3.516,3.516,0,0,0,98.883,10.856ZM28.121,27.625l2.922,8.25,2.906-8.25h3.078V39H34.676V35.891l.234-5.367L31.84,39H30.23l-3.062-8.469.234,5.359V39H25.059V27.625ZM41.309,39H39.043V30.547h2.266Zm-2.4-10.641a1.112,1.112,0,0,1,.34-.836,1.465,1.465,0,0,1,1.848,0,1.193,1.193,0,0,1,0,1.68,1.448,1.448,0,0,1-1.836,0A1.108,1.108,0,0,1,38.91,28.359Zm3.93,6.352a4.954,4.954,0,0,1,.926-3.133,3,3,0,0,1,2.5-1.187,2.631,2.631,0,0,1,2.164.953l.094-.8h2.047v8.172a3.613,3.613,0,0,1-.5,1.93,3.236,3.236,0,0,1-1.418,1.25,4.985,4.985,0,0,1-2.141.43,4.635,4.635,0,0,1-1.812-.371A3.217,3.217,0,0,1,43.355,41l1-1.375a2.645,2.645,0,0,0,2.047.945,1.936,1.936,0,0,0,1.4-.48,1.8,1.8,0,0,0,.5-1.363v-.453a2.612,2.612,0,0,1-2.055.883,2.992,2.992,0,0,1-2.465-1.191,4.953,4.953,0,0,1-.941-3.16Zm2.258.168a3.085,3.085,0,0,0,.461,1.8,1.466,1.466,0,0,0,1.266.653,1.568,1.568,0,0,0,1.477-.775V33a1.564,1.564,0,0,0-1.461-.775,1.476,1.476,0,0,0-1.277.665A3.477,3.477,0,0,0,45.1,34.879Zm11.953-2.215a6.134,6.134,0,0,0-.812-.062,1.654,1.654,0,0,0-1.68.867V39H52.3V30.547h2.133l.063,1.008a2.092,2.092,0,0,1,1.883-1.164,2.366,2.366,0,0,1,.7.1ZM62.8,39a2.507,2.507,0,0,1-.227-.758,2.732,2.732,0,0,1-2.133.914,3,3,0,0,1-2.059-.719,2.312,2.312,0,0,1-.816-1.812,2.389,2.389,0,0,1,1-2.062,4.915,4.915,0,0,1,2.879-.727H62.48v-.484a1.393,1.393,0,0,0-.3-.937,1.183,1.183,0,0,0-.949-.352,1.345,1.345,0,0,0-.895.273.929.929,0,0,0-.324.75H57.754a2.268,2.268,0,0,1,.453-1.359,3,3,0,0,1,1.281-.98,4.669,4.669,0,0,1,1.859-.355,3.689,3.689,0,0,1,2.48.785,2.747,2.747,0,0,1,.918,2.207v3.664a4.041,4.041,0,0,0,.336,1.82V39Zm-1.867-1.57a1.945,1.945,0,0,0,.922-.223,1.462,1.462,0,0,0,.625-.6V35.156h-.844q-1.7,0-1.8,1.172l-.008.133a.9.9,0,0,0,.3.7A1.153,1.153,0,0,0,60.934,37.43Zm8.25-8.961v2.078h1.445V32.2H69.184v4.219a1.007,1.007,0,0,0,.18.672.9.9,0,0,0,.688.2,3.6,3.6,0,0,0,.664-.055v1.711a4.648,4.648,0,0,1-1.367.2,2.156,2.156,0,0,1-2.422-2.4V32.2H65.691V30.547h1.234V28.469ZM71.3,34.7a5.013,5.013,0,0,1,.484-2.242A3.546,3.546,0,0,1,73.18,30.93a4.069,4.069,0,0,1,2.113-.539,3.849,3.849,0,0,1,2.793,1.047,4.2,4.2,0,0,1,1.207,2.844l.016.578a4.418,4.418,0,0,1-1.086,3.121,4.209,4.209,0,0,1-5.832,0A4.5,4.5,0,0,1,71.3,34.8Zm2.258.16a3.16,3.16,0,0,0,.453,1.843,1.628,1.628,0,0,0,2.578.008,3.457,3.457,0,0,0,.461-2.015,3.128,3.128,0,0,0-.461-1.831,1.5,1.5,0,0,0-1.3-.649,1.474,1.474,0,0,0-1.281.646A3.516,3.516,0,0,0,73.559,34.856Zm11.891-2.192a6.134,6.134,0,0,0-.812-.062,1.654,1.654,0,0,0-1.68.867V39H80.7V30.547h2.133l.063,1.008a2.092,2.092,0,0,1,1.883-1.164,2.366,2.366,0,0,1,.7.1ZM88.918,39H86.652V30.547h2.266Zm-2.4-10.641a1.112,1.112,0,0,1,.34-.836,1.465,1.465,0,0,1,1.848,0,1.193,1.193,0,0,1,0,1.68,1.448,1.448,0,0,1-1.836,0A1.108,1.108,0,0,1,86.52,28.359ZM90.426,34.7a5.013,5.013,0,0,1,.484-2.242A3.546,3.546,0,0,1,92.3,30.93a4.069,4.069,0,0,1,2.113-.539,3.849,3.849,0,0,1,2.793,1.047,4.2,4.2,0,0,1,1.207,2.844l.016.578a4.418,4.418,0,0,1-1.086,3.121,4.209,4.209,0,0,1-5.832,0,4.5,4.5,0,0,1-1.09-3.187Zm2.258.16a3.16,3.16,0,0,0,.453,1.843,1.628,1.628,0,0,0,2.578.008,3.457,3.457,0,0,0,.461-2.015,3.128,3.128,0,0,0-.461-1.831,1.5,1.5,0,0,0-1.3-.649,1.474,1.474,0,0,0-1.281.646A3.516,3.516,0,0,0,92.684,34.856Z" transform="translate(558 1348)" fill="#12263f"/>
    <path id="Trazado_834116" data-name="Trazado 834116" d="M22.2,15H19.852V3.625H22.2Zm4.1-8.453.07.977A2.951,2.951,0,0,1,28.8,6.391a2.453,2.453,0,0,1,2,.789,3.682,3.682,0,0,1,.672,2.359V15H29.211V9.594A1.465,1.465,0,0,0,28.9,8.551a1.4,1.4,0,0,0-1.039-.324,1.553,1.553,0,0,0-1.43.813V15H24.172V6.547Zm9,0,.07.945a2.971,2.971,0,0,1,2.43-1.1A2.255,2.255,0,0,1,40.039,7.68a2.9,2.9,0,0,1,2.539-1.289,2.521,2.521,0,0,1,2.047.8A3.681,3.681,0,0,1,45.3,9.6V15H43.031V9.609a1.61,1.61,0,0,0-.281-1.051,1.246,1.246,0,0,0-.992-.332,1.409,1.409,0,0,0-1.406.969l.008,5.8H38.1V9.617a1.59,1.59,0,0,0-.289-1.062,1.259,1.259,0,0,0-.984-.328,1.463,1.463,0,0,0-1.391.8V15H33.18V6.547ZM49.414,15H47.148V6.547h2.266Zm-2.4-10.641a1.112,1.112,0,0,1,.34-.836,1.465,1.465,0,0,1,1.848,0,1.105,1.105,0,0,1,.344.836A1.108,1.108,0,0,1,49.2,5.2a1.448,1.448,0,0,1-1.836,0A1.108,1.108,0,0,1,47.016,4.359Zm3.93,6.352a4.954,4.954,0,0,1,.926-3.133,3,3,0,0,1,2.5-1.187,2.631,2.631,0,0,1,2.164.953l.094-.8h2.047v8.172a3.613,3.613,0,0,1-.5,1.93A3.236,3.236,0,0,1,56.75,17.9a4.985,4.985,0,0,1-2.141.43,4.635,4.635,0,0,1-1.812-.371A3.217,3.217,0,0,1,51.461,17l1-1.375a2.645,2.645,0,0,0,2.047.945,1.936,1.936,0,0,0,1.4-.48,1.8,1.8,0,0,0,.5-1.363v-.453a2.612,2.612,0,0,1-2.055.883,2.992,2.992,0,0,1-2.465-1.191,4.953,4.953,0,0,1-.941-3.16Zm2.258.168a3.085,3.085,0,0,0,.461,1.8,1.466,1.466,0,0,0,1.266.653,1.568,1.568,0,0,0,1.477-.775V9a1.564,1.564,0,0,0-1.461-.775,1.476,1.476,0,0,0-1.277.665A3.477,3.477,0,0,0,53.2,10.879ZM65.156,8.664a6.134,6.134,0,0,0-.812-.062,1.654,1.654,0,0,0-1.68.867V15H60.406V6.547h2.133L62.6,7.555a2.092,2.092,0,0,1,1.883-1.164,2.366,2.366,0,0,1,.7.1ZM70.906,15a2.507,2.507,0,0,1-.227-.758,2.732,2.732,0,0,1-2.133.914,3,3,0,0,1-2.059-.719,2.312,2.312,0,0,1-.816-1.812,2.389,2.389,0,0,1,1-2.062,4.915,4.915,0,0,1,2.879-.727h1.039V9.352a1.393,1.393,0,0,0-.3-.937,1.183,1.183,0,0,0-.949-.352,1.345,1.345,0,0,0-.895.273.929.929,0,0,0-.324.75H65.859a2.268,2.268,0,0,1,.453-1.359,3,3,0,0,1,1.281-.98,4.669,4.669,0,0,1,1.859-.355,3.689,3.689,0,0,1,2.48.785,2.747,2.747,0,0,1,.918,2.207v3.664a4.041,4.041,0,0,0,.336,1.82V15Zm-1.867-1.57a1.945,1.945,0,0,0,.922-.223,1.462,1.462,0,0,0,.625-.6V11.156h-.844q-1.7,0-1.8,1.172l-.008.133a.9.9,0,0,0,.3.7A1.153,1.153,0,0,0,69.039,13.43Zm9.063-.094a1.481,1.481,0,0,0,1.016-.344,1.2,1.2,0,0,0,.406-.914h2.117a2.9,2.9,0,0,1-.469,1.574,3.093,3.093,0,0,1-1.262,1.109,3.949,3.949,0,0,1-1.77.395A3.67,3.67,0,0,1,75.281,14a4.56,4.56,0,0,1-1.047-3.184v-.148a4.508,4.508,0,0,1,1.039-3.117,3.627,3.627,0,0,1,2.852-1.164,3.555,3.555,0,0,1,2.543.9,3.2,3.2,0,0,1,.973,2.4H79.523a1.551,1.551,0,0,0-.406-1.072,1.51,1.51,0,0,0-2.223.163,3.333,3.333,0,0,0-.4,1.866v.235a3.375,3.375,0,0,0,.4,1.878A1.377,1.377,0,0,0,78.1,13.336ZM85.313,15H83.047V6.547h2.266Zm-2.4-10.641a1.112,1.112,0,0,1,.34-.836,1.465,1.465,0,0,1,1.848,0,1.105,1.105,0,0,1,.344.836A1.108,1.108,0,0,1,85.1,5.2a1.448,1.448,0,0,1-1.836,0A1.108,1.108,0,0,1,82.914,4.359ZM86.82,10.7A5.013,5.013,0,0,1,87.3,8.453,3.546,3.546,0,0,1,88.7,6.93a4.069,4.069,0,0,1,2.113-.539,3.849,3.849,0,0,1,2.793,1.047,4.2,4.2,0,0,1,1.207,2.844l.016.578a4.418,4.418,0,0,1-1.086,3.121,4.209,4.209,0,0,1-5.832,0A4.5,4.5,0,0,1,86.82,10.8Zm2.258.16a3.16,3.16,0,0,0,.453,1.843,1.628,1.628,0,0,0,2.578.008,3.457,3.457,0,0,0,.461-2.015,3.128,3.128,0,0,0-.461-1.831,1.5,1.5,0,0,0-1.3-.649,1.474,1.474,0,0,0-1.281.646A3.516,3.516,0,0,0,89.078,10.856ZM91.258,3h2.461L91.555,5.422H89.719ZM98.3,6.547l.07.977a2.951,2.951,0,0,1,2.43-1.133,2.453,2.453,0,0,1,2,.789,3.682,3.682,0,0,1,.672,2.359V15h-2.258V9.594a1.465,1.465,0,0,0-.312-1.043,1.4,1.4,0,0,0-1.039-.324,1.553,1.553,0,0,0-1.43.813V15H96.172V6.547Z" transform="translate(289 1305)" fill="#12263f"/>
    <path id="Trazado_834117" data-name="Trazado 834117" d="M28.859,10.07h-4.5v3.047h5.281V15H22.016V3.625h7.609v1.9H24.359V8.234h4.5Zm4.125-3.523.07.945a2.971,2.971,0,0,1,2.43-1.1A2.255,2.255,0,0,1,37.727,7.68a2.9,2.9,0,0,1,2.539-1.289,2.521,2.521,0,0,1,2.047.8,3.681,3.681,0,0,1,.672,2.41V15H40.719V9.609a1.61,1.61,0,0,0-.281-1.051,1.246,1.246,0,0,0-.992-.332,1.409,1.409,0,0,0-1.406.969l.008,5.8H35.789V9.617A1.59,1.59,0,0,0,35.5,8.555a1.259,1.259,0,0,0-.984-.328,1.463,1.463,0,0,0-1.391.8V15H30.867V6.547ZM47.1,15H44.836V6.547H47.1ZM44.7,4.359a1.112,1.112,0,0,1,.34-.836,1.465,1.465,0,0,1,1.848,0,1.105,1.105,0,0,1,.344.836,1.108,1.108,0,0,1-.348.844,1.448,1.448,0,0,1-1.836,0A1.108,1.108,0,0,1,44.7,4.359Zm3.93,6.352a4.954,4.954,0,0,1,.926-3.133,3,3,0,0,1,2.5-1.187,2.631,2.631,0,0,1,2.164.953l.094-.8h2.047v8.172a3.613,3.613,0,0,1-.5,1.93,3.236,3.236,0,0,1-1.418,1.25,4.985,4.985,0,0,1-2.141.43,4.635,4.635,0,0,1-1.812-.371A3.217,3.217,0,0,1,49.148,17l1-1.375a2.645,2.645,0,0,0,2.047.945,1.936,1.936,0,0,0,1.4-.48,1.8,1.8,0,0,0,.5-1.363v-.453a2.612,2.612,0,0,1-2.055.883,2.992,2.992,0,0,1-2.465-1.191,4.953,4.953,0,0,1-.941-3.16Zm2.258.168a3.085,3.085,0,0,0,.461,1.8,1.466,1.466,0,0,0,1.266.653,1.568,1.568,0,0,0,1.477-.775V9a1.564,1.564,0,0,0-1.461-.775,1.476,1.476,0,0,0-1.277.665A3.477,3.477,0,0,0,50.891,10.879ZM62.844,8.664a6.134,6.134,0,0,0-.812-.062,1.654,1.654,0,0,0-1.68.867V15H58.094V6.547h2.133l.063,1.008a2.092,2.092,0,0,1,1.883-1.164,2.366,2.366,0,0,1,.7.1ZM68.594,15a2.507,2.507,0,0,1-.227-.758,2.732,2.732,0,0,1-2.133.914,3,3,0,0,1-2.059-.719,2.312,2.312,0,0,1-.816-1.812,2.389,2.389,0,0,1,1-2.062,4.915,4.915,0,0,1,2.879-.727h1.039V9.352a1.393,1.393,0,0,0-.3-.937,1.183,1.183,0,0,0-.949-.352,1.345,1.345,0,0,0-.895.273.929.929,0,0,0-.324.75H63.547A2.268,2.268,0,0,1,64,7.727a3,3,0,0,1,1.281-.98,4.669,4.669,0,0,1,1.859-.355,3.689,3.689,0,0,1,2.48.785,2.747,2.747,0,0,1,.918,2.207v3.664a4.041,4.041,0,0,0,.336,1.82V15Zm-1.867-1.57a1.945,1.945,0,0,0,.922-.223,1.462,1.462,0,0,0,.625-.6V11.156H67.43q-1.7,0-1.8,1.172l-.008.133a.9.9,0,0,0,.3.7A1.153,1.153,0,0,0,66.727,13.43Zm9.063-.094a1.481,1.481,0,0,0,1.016-.344,1.2,1.2,0,0,0,.406-.914h2.117a2.9,2.9,0,0,1-.469,1.574A3.093,3.093,0,0,1,77.6,14.762a3.949,3.949,0,0,1-1.77.395A3.67,3.67,0,0,1,72.969,14a4.56,4.56,0,0,1-1.047-3.184v-.148a4.508,4.508,0,0,1,1.039-3.117,3.627,3.627,0,0,1,2.852-1.164,3.555,3.555,0,0,1,2.543.9,3.2,3.2,0,0,1,.973,2.4H77.211A1.551,1.551,0,0,0,76.8,8.623a1.51,1.51,0,0,0-2.223.163,3.333,3.333,0,0,0-.4,1.866v.235a3.375,3.375,0,0,0,.4,1.878A1.377,1.377,0,0,0,75.789,13.336ZM83,15H80.734V6.547H83ZM80.6,4.359a1.112,1.112,0,0,1,.34-.836,1.465,1.465,0,0,1,1.848,0,1.105,1.105,0,0,1,.344.836,1.108,1.108,0,0,1-.348.844,1.448,1.448,0,0,1-1.836,0A1.108,1.108,0,0,1,80.6,4.359ZM84.508,10.7a5.013,5.013,0,0,1,.484-2.242A3.546,3.546,0,0,1,86.387,6.93,4.069,4.069,0,0,1,88.5,6.391a3.849,3.849,0,0,1,2.793,1.047A4.2,4.2,0,0,1,92.5,10.281l.016.578A4.418,4.418,0,0,1,91.43,13.98a4.209,4.209,0,0,1-5.832,0,4.5,4.5,0,0,1-1.09-3.187Zm2.258.16a3.16,3.16,0,0,0,.453,1.843,1.628,1.628,0,0,0,2.578.008,3.457,3.457,0,0,0,.461-2.015A3.128,3.128,0,0,0,89.8,8.86a1.5,1.5,0,0,0-1.3-.649,1.474,1.474,0,0,0-1.281.646A3.516,3.516,0,0,0,86.766,10.856ZM88.945,3h2.461L89.242,5.422H87.406Zm7.039,3.547.07.977a2.951,2.951,0,0,1,2.43-1.133,2.453,2.453,0,0,1,2,.789,3.682,3.682,0,0,1,.672,2.359V15H98.9V9.594a1.465,1.465,0,0,0-.312-1.043,1.4,1.4,0,0,0-1.039-.324,1.553,1.553,0,0,0-1.43.813V15H93.859V6.547Z" transform="translate(289 1412)" fill="#12263f"/>
    <path id="Trazado_834118" data-name="Trazado 834118" d="M26.395,3.625l2.922,8.25,2.906-8.25H35.3V15H32.949V11.891l.234-5.367L30.113,15H28.5L25.441,6.531l.234,5.359V15H23.332V3.625ZM36.848,10.7a5.013,5.013,0,0,1,.484-2.242A3.546,3.546,0,0,1,38.727,6.93a4.069,4.069,0,0,1,2.113-.539,3.849,3.849,0,0,1,2.793,1.047,4.2,4.2,0,0,1,1.207,2.844l.016.578A4.418,4.418,0,0,1,43.77,13.98a4.209,4.209,0,0,1-5.832,0,4.5,4.5,0,0,1-1.09-3.187Zm2.258.16a3.16,3.16,0,0,0,.453,1.843,1.628,1.628,0,0,0,2.578.008,3.457,3.457,0,0,0,.461-2.015,3.128,3.128,0,0,0-.461-1.831,1.5,1.5,0,0,0-1.3-.649,1.474,1.474,0,0,0-1.281.646A3.516,3.516,0,0,0,39.105,10.856ZM51,8.664a6.134,6.134,0,0,0-.812-.062,1.654,1.654,0,0,0-1.68.867V15H46.246V6.547h2.133l.063,1.008a2.092,2.092,0,0,1,1.883-1.164,2.366,2.366,0,0,1,.7.1Zm4.18-4.2V6.547h1.445V8.2H55.176v4.219a1.007,1.007,0,0,0,.18.672.9.9,0,0,0,.688.2,3.6,3.6,0,0,0,.664-.055v1.711a4.648,4.648,0,0,1-1.367.2,2.156,2.156,0,0,1-2.422-2.4V8.2H51.684V6.547h1.234V4.469ZM62.777,15a2.507,2.507,0,0,1-.227-.758,2.732,2.732,0,0,1-2.133.914,3,3,0,0,1-2.059-.719,2.312,2.312,0,0,1-.816-1.812,2.389,2.389,0,0,1,1-2.062,4.915,4.915,0,0,1,2.879-.727h1.039V9.352a1.393,1.393,0,0,0-.3-.937,1.183,1.183,0,0,0-.949-.352,1.345,1.345,0,0,0-.895.273.929.929,0,0,0-.324.75H57.73a2.268,2.268,0,0,1,.453-1.359,3,3,0,0,1,1.281-.98,4.669,4.669,0,0,1,1.859-.355,3.689,3.689,0,0,1,2.48.785,2.747,2.747,0,0,1,.918,2.207v3.664a4.041,4.041,0,0,0,.336,1.82V15ZM60.91,13.43a1.945,1.945,0,0,0,.922-.223,1.462,1.462,0,0,0,.625-.6V11.156h-.844q-1.7,0-1.8,1.172l-.008.133a.9.9,0,0,0,.3.7A1.153,1.153,0,0,0,60.91,13.43ZM68.84,15H66.574V3H68.84Zm4.242,0H70.816V6.547h2.266Zm-2.4-10.641a1.112,1.112,0,0,1,.34-.836,1.465,1.465,0,0,1,1.848,0,1.105,1.105,0,0,1,.344.836,1.108,1.108,0,0,1-.348.844,1.448,1.448,0,0,1-1.836,0A1.108,1.108,0,0,1,70.684,4.359Zm3.906,6.352a5.094,5.094,0,0,1,.887-3.148A2.877,2.877,0,0,1,77.9,6.391a2.589,2.589,0,0,1,2.039.922V3h2.266V15H80.168l-.109-.9a2.657,2.657,0,0,1-2.172,1.055,2.869,2.869,0,0,1-2.395-1.176A5.258,5.258,0,0,1,74.59,10.711Zm2.258.168a3.337,3.337,0,0,0,.414,1.823,1.349,1.349,0,0,0,1.2.634,1.511,1.511,0,0,0,1.477-.884V9.111a1.489,1.489,0,0,0-1.461-.884Q76.848,8.227,76.848,10.879ZM88.855,15a2.507,2.507,0,0,1-.227-.758,2.732,2.732,0,0,1-2.133.914,3,3,0,0,1-2.059-.719,2.312,2.312,0,0,1-.816-1.812,2.389,2.389,0,0,1,1-2.062A4.915,4.915,0,0,1,87.5,9.836h1.039V9.352a1.393,1.393,0,0,0-.3-.937,1.183,1.183,0,0,0-.949-.352,1.345,1.345,0,0,0-.895.273.929.929,0,0,0-.324.75H83.809a2.268,2.268,0,0,1,.453-1.359,3,3,0,0,1,1.281-.98A4.669,4.669,0,0,1,87.4,6.391a3.689,3.689,0,0,1,2.48.785A2.747,2.747,0,0,1,90.8,9.383v3.664a4.041,4.041,0,0,0,.336,1.82V15Zm-1.867-1.57a1.945,1.945,0,0,0,.922-.223,1.462,1.462,0,0,0,.625-.6V11.156h-.844q-1.7,0-1.8,1.172l-.008.133a.9.9,0,0,0,.3.7A1.153,1.153,0,0,0,86.988,13.43Zm5.2-2.719a5.094,5.094,0,0,1,.887-3.148A2.877,2.877,0,0,1,95.5,6.391a2.589,2.589,0,0,1,2.039.922V3H99.8V15H97.762l-.109-.9a2.657,2.657,0,0,1-2.172,1.055,2.869,2.869,0,0,1-2.395-1.176A5.258,5.258,0,0,1,92.184,10.711Zm2.258.168a3.337,3.337,0,0,0,.414,1.823,1.349,1.349,0,0,0,1.2.634,1.511,1.511,0,0,0,1.477-.884V9.111a1.489,1.489,0,0,0-1.461-.884Q94.441,8.227,94.441,10.879Z" transform="translate(289 1200)" fill="#12263f"/>
  </g>
</svg>
