<svg xmlns="http://www.w3.org/2000/svg" xmlns:xlink="http://www.w3.org/1999/xlink" width="295" height="288.181" viewBox="0 0 295 288.181">
  <defs>
    <clipPath id="clip-path">
      <rect id="Rectángulo_379400" data-name="Rectángulo 379400" width="263" height="227.535" fill="none"/>
    </clipPath>
    <clipPath id="clip-path-2">
      <rect id="Rectángulo_379380" data-name="Rectángulo 379380" width="263.001" height="227.534" fill="none"/>
    </clipPath>
    <clipPath id="clip-path-3">
      <rect id="Rectángulo_379374" data-name="Rectángulo 379374" width="177.386" height="162.434" fill="none"/>
    </clipPath>
    <clipPath id="clip-path-4">
      <path id="Trazado_832324" data-name="Trazado 832324" d="M4.378,382.39c-14.686,7.024,13.09,19.155,3.512,36.076s3.706,16.3,9.219,32.048c3.8,10.84-15.6,20.311-3.472,28.292s23.9,33.778,23.9,33.778c13.36,10.472,1.852-15.011,10.731-36.378s-18.025-9.851-3.737-36.35-16.682-9.1-14.926-34.48c.55-7.948-2.283-7.665-6.165-7.381-3.2.234-7.117.468-10.436-3.918,0,0-3.72-11.9-7.716-11.9a2.075,2.075,0,0,0-.9.212" transform="translate(0 -382.178)" fill="none"/>
    </clipPath>
    <linearGradient id="linear-gradient" x1="0.149" y1="1.059" x2="0.152" y2="1.059" gradientUnits="objectBoundingBox">
      <stop offset="0" stop-color="#40d5e6"/>
      <stop offset="1" stop-color="#57f"/>
    </linearGradient>
    <clipPath id="clip-path-6">
      <path id="Trazado_832326" data-name="Trazado 832326" d="M184.277,759.658a4.444,4.444,0,0,1-3.635-2.877c-1.376-3.935,1.916-10.822,4.822-14.282a22.874,22.874,0,0,0,4.66-15.063c-.089-1.419-.235-2.722-.364-3.872-.341-3.047-.588-5.249.542-6.52,1.034-1.162,3.3-1.688,7.337-1.707,8.114-.038,11.318-3.392,13.891-6.088a13.109,13.109,0,0,1,2.982-2.59c3.43-1.873,7.109-2.25,8.556-.878,1.1,1.042.581,2.828-.048,4.143a19.206,19.206,0,0,1-4.056,5.423c-1.861,1.9-3.331,3.4-2.586,6.312.146.571.315,1.148.484,1.727,1.183,4.047,2.3,7.869-3.894,10.653-1.455.654-2.788,1.177-3.964,1.639-4.9,1.923-8.139,3.194-11.61,10.52-.646,1.364-1.214,2.651-1.763,3.9-2.618,5.934-4.329,9.812-9.092,9.812a11.463,11.463,0,0,1-2.263-.247m29.776-53.84a13.989,13.989,0,0,0-3.215,2.769c-2.449,2.564-5.5,5.755-13.2,5.791-4.394.02-6.8.627-8.049,2.028-1.415,1.589-1.148,3.969-.779,7.264.128,1.14.272,2.431.36,3.826a22.317,22.317,0,0,1-4.438,14.387c-2.936,3.5-6.553,10.749-4.991,15.214a5.342,5.342,0,0,0,4.35,3.5,12.332,12.332,0,0,0,2.449.266c5.39,0,7.364-4.471,9.972-10.382.547-1.239,1.112-2.52,1.752-3.872,3.308-6.983,6.239-8.134,11.094-10.039,1.186-.466,2.531-.994,4.007-1.657,6.955-3.126,5.608-7.732,4.42-11.8-.166-.569-.332-1.135-.476-1.7-.612-2.39.564-3.589,2.342-5.4a20.287,20.287,0,0,0,4.236-5.68c1.388-2.9.681-4.458-.157-5.252a4.827,4.827,0,0,0-3.365-1.074,13.692,13.692,0,0,0-6.309,1.807" transform="translate(-179.362 -704.011)" fill="none"/>
    </clipPath>
    <linearGradient id="linear-gradient-2" x1="-0.755" y1="1.465" x2="-0.751" y2="1.465" xlink:href="#linear-gradient"/>
    <clipPath id="clip-path-7">
      <path id="Trazado_832327" data-name="Trazado 832327" d="M221.693,748.725c-1.4,4.905-4.343,12.214-13.673,19.014-8.5,6.2-9.711,27.38-9.758,28.279l.956.05c.011-.215,1.226-21.622,9.366-27.555,9.569-6.975,12.59-14.484,14.029-19.526,1.486-5.2,9.574-6.694,9.656-6.708l-.166-.943c-.357.063-8.759,1.608-10.41,7.389" transform="translate(-198.262 -741.336)" fill="none"/>
    </clipPath>
    <linearGradient id="linear-gradient-3" x1="-1.195" y1="1.382" x2="-1.189" y2="1.382" xlink:href="#linear-gradient"/>
    <clipPath id="clip-path-8">
      <path id="Trazado_832328" data-name="Trazado 832328" d="M163.671,504.776c-2.554,8.62-28.414,3.76-17.559,25.346s-13.728,7.219-6.385,26.055.639,38.982,8.62,33.858,4.484-28.844,12.784-31.663,9.655-6.106,1.437-13.768,21.535-15.269,14.192-30.741,1.237-24.89-5.747-27.284a4.042,4.042,0,0,0-1.307-.243c-4.563,0-3.685,10.5-6.036,18.44" transform="translate(-138.332 -486.336)" fill="none"/>
    </clipPath>
    <linearGradient id="linear-gradient-4" x1="-0.433" y1="1.175" x2="-0.429" y2="1.175" xlink:href="#linear-gradient"/>
    <clipPath id="clip-path-10">
      <path id="Trazado_832330" data-name="Trazado 832330" d="M93.981,938.666l8.63,32.742H121.9l8.63-32.742Z" transform="translate(-93.981 -938.666)" fill="none"/>
    </clipPath>
    <linearGradient id="linear-gradient-5" x1="-0.527" y1="1.075" x2="-0.521" y2="1.075" gradientUnits="objectBoundingBox">
      <stop offset="0" stop-color="#ff9340"/>
      <stop offset="1" stop-color="#ffce45"/>
    </linearGradient>
    <clipPath id="clip-path-11">
      <path id="Trazado_832331" data-name="Trazado 832331" d="M93.981,938.666l8.63,32.742h8.917c0-29.174,19-32.742,19-32.742Z" transform="translate(-93.981 -938.666)" fill="none"/>
    </clipPath>
    <linearGradient id="linear-gradient-6" x1="-0.527" y1="1.075" x2="-0.521" y2="1.075" gradientUnits="objectBoundingBox">
      <stop offset="0" stop-color="#c97332"/>
      <stop offset="1" stop-color="#ffce45"/>
    </linearGradient>
    <clipPath id="clip-path-13">
      <rect id="Rectángulo_379394" data-name="Rectángulo 379394" width="21.993" height="41.41" fill="none"/>
    </clipPath>
  </defs>
  <g id="Grupo_1081170" data-name="Grupo 1081170" transform="translate(-809.999 -2822.697)">
    <path id="Trazado_832031" data-name="Trazado 832031" d="M18,0H277c9.941,0,18,6.689,18,14.939V273.057c0,8.251-8.059,14.939-18,14.939H18c-9.941,0-18-6.689-18-14.939V14.939C0,6.689,8.059,0,18,0Z" transform="translate(809.999 2822.697)" fill="#c1cdf5"/>
    <g id="Grupo_1080568" data-name="Grupo 1080568" transform="translate(826 2883.344)">
      <g id="Grupo_1080567" data-name="Grupo 1080567" clip-path="url(#clip-path)">
        <g id="Grupo_1080545" data-name="Grupo 1080545" transform="translate(0 0.001)">
          <g id="Grupo_1080544" data-name="Grupo 1080544" clip-path="url(#clip-path-2)">
            <g id="Grupo_1080543" data-name="Grupo 1080543" transform="translate(64.495 -0.001)" style="mix-blend-mode: hard-light;isolation: isolate">
              <g id="Grupo_1080542" data-name="Grupo 1080542">
                <g id="Grupo_1080541" data-name="Grupo 1080541" clip-path="url(#clip-path-3)">
                  <path id="Trazado_832313" data-name="Trazado 832313" d="M482.258,162.437H324.6a9.863,9.863,0,0,1-9.862-9.863V9.866A9.862,9.862,0,0,1,324.6,0H482.258a9.862,9.862,0,0,1,9.862,9.862V152.574a9.862,9.862,0,0,1-9.862,9.863" transform="translate(-314.734 -0.003)" fill="#f5f5f5"/>
                </g>
              </g>
            </g>
            <path id="Trazado_832314" data-name="Trazado 832314" d="M447.548,110.666a24.931,24.931,0,0,0-13.538-31.283c-.508-.22-1.027-.426-1.556-.614a24.952,24.952,0,1,0,15.093,31.9m-29.8,9.212a18.708,18.708,0,1,1,12.6-35.23q.594.213,1.167.461a18.708,18.708,0,0,1-13.766,34.769" transform="translate(-317.312 -61.463)" fill="#78c3ff"/>
            <path id="Trazado_832315" data-name="Trazado 832315" d="M418.52,88.825l-1.862-5.961a24.987,24.987,0,0,0-17.51,23.074l6.243.186a18.738,18.738,0,0,1,13.129-17.3" transform="translate(-317.355 -65.884)" fill="#1173c2"/>
            <path id="Trazado_832316" data-name="Trazado 832316" d="M499.5,85.109l2.492-5.727c-.508-.22-1.027-.426-1.556-.614a24.84,24.84,0,0,0-15.84-.325l1.862,5.961a18.622,18.622,0,0,1,11.875.243q.594.213,1.166.461" transform="translate(-385.296 -61.464)" fill="#1487e3"/>
            <path id="Trazado_832317" data-name="Trazado 832317" d="M566.029,91.317a24.816,24.816,0,0,0-6.211-3.868l-2.493,5.726a18.6,18.6,0,0,1,4.658,2.9Z" transform="translate(-443.119 -69.53)" fill="#4aafff"/>
            <rect id="Rectángulo_379375" data-name="Rectángulo 379375" width="8.66" height="29.661" transform="translate(200.995 99.858)" fill="#4aafff"/>
            <rect id="Rectángulo_379376" data-name="Rectángulo 379376" width="8.66" height="21.342" transform="translate(188.122 108.176)" fill="#4aafff"/>
            <rect id="Rectángulo_379377" data-name="Rectángulo 379377" width="8.66" height="43.408" transform="translate(213.484 86.11)" fill="#4aafff"/>
            <path id="Trazado_832318" data-name="Trazado 832318" d="M759.5,310.767l-.153-.936-22.852,3.742-7.409,15.79-24.639,1.673-7.981,11.773-18.837-.467-.024.949,19.355.48,8.012-11.819,24.735-1.679,7.434-15.843Z" transform="translate(-538.748 -246.341)" fill="#4aafff"/>
            <path id="Trazado_832319" data-name="Trazado 832319" d="M929.793,99.675h25.117a2.569,2.569,0,0,0,2.57-2.569v-.491a2.57,2.57,0,0,0-2.57-2.569H929.793a2.57,2.57,0,0,0-2.569,2.569v.491a2.569,2.569,0,0,0,2.569,2.569" transform="translate(-737.219 -74.774)" fill="#1487e3"/>
            <path id="Trazado_832320" data-name="Trazado 832320" d="M929.793,147.605h25.117a2.57,2.57,0,0,0,2.57-2.569v-.492a2.569,2.569,0,0,0-2.57-2.569H929.793a2.569,2.569,0,0,0-2.569,2.569v.492a2.57,2.57,0,0,0,2.569,2.569" transform="translate(-737.219 -112.882)" fill="#4aafff"/>
            <path id="Trazado_832321" data-name="Trazado 832321" d="M929.793,195.534h25.117a2.57,2.57,0,0,0,2.57-2.569v-.491a2.57,2.57,0,0,0-2.57-2.57H929.793a2.57,2.57,0,0,0-2.569,2.57v.491a2.57,2.57,0,0,0,2.569,2.569" transform="translate(-737.219 -150.99)" fill="#4aafff"/>
            <path id="Trazado_832322" data-name="Trazado 832322" d="M668.773,114.411H654.687v-.54h13.862l7.416-7.416h9.082V107h-8.858Z" transform="translate(-520.53 -84.641)" fill="#4aafff"/>
            <path id="Trazado_832323" data-name="Trazado 832323" d="M695.448,241.072H677.323l-5.873-5.874.382-.382,5.715,5.715h17.9Z" transform="translate(-533.857 -186.699)" fill="#4aafff"/>
            <rect id="Rectángulo_379378" data-name="Rectángulo 379378" width="18.789" height="2.306" transform="translate(156.775 25.392)" fill="#1487e3"/>
            <rect id="Rectángulo_379379" data-name="Rectángulo 379379" width="15.125" height="2.306" transform="translate(151.044 48.9)" fill="#1487e3"/>
          </g>
        </g>
        <g id="Grupo_1080547" data-name="Grupo 1080547" transform="translate(0 78.315)">
          <g id="Grupo_1080546" data-name="Grupo 1080546" clip-path="url(#clip-path-4)">
            <rect id="Rectángulo_379381" data-name="Rectángulo 379381" width="69.122" height="140.878" transform="translate(-10.308 -0.001)" fill="url(#linear-gradient)"/>
          </g>
        </g>
        <g id="Grupo_1080549" data-name="Grupo 1080549" transform="translate(0 0.001)">
          <g id="Grupo_1080548" data-name="Grupo 1080548" clip-path="url(#clip-path-2)">
            <path id="Trazado_832325" data-name="Trazado 832325" d="M109.237,607.28c-5.791-4.073-12.569-32.455-12.973-49.36-.207-8.659-2.767-12.267-5.025-15.45-2.159-3.042-4.023-5.67-2.937-11.7,2.075-11.53-3.381-16.507-3.437-16.556l.632-.72c.243.213,5.926,5.346,3.748,17.445-1.015,5.637.658,8,2.776,10.98,2.222,3.132,4.987,7.029,5.2,15.981.434,18.142,7.363,44.939,12.566,48.6Z" transform="translate(-67.475 -408.268)" fill="#fff"/>
          </g>
        </g>
        <g id="Grupo_1080551" data-name="Grupo 1080551" transform="translate(36.754 144.265)">
          <g id="Grupo_1080550" data-name="Grupo 1080550" clip-path="url(#clip-path-6)">
            <rect id="Rectángulo_379383" data-name="Rectángulo 379383" width="47.096" height="56.852" transform="translate(-1.185)" fill="url(#linear-gradient-2)"/>
          </g>
        </g>
        <g id="Grupo_1080553" data-name="Grupo 1080553" transform="translate(40.627 151.913)">
          <g id="Grupo_1080552" data-name="Grupo 1080552" clip-path="url(#clip-path-7)">
            <rect id="Rectángulo_379384" data-name="Rectángulo 379384" width="34.007" height="54.732" transform="translate(0 0)" fill="url(#linear-gradient-3)"/>
          </g>
        </g>
        <g id="Grupo_1080555" data-name="Grupo 1080555" transform="translate(28.347 99.659)">
          <g id="Grupo_1080554" data-name="Grupo 1080554" clip-path="url(#clip-path-8)">
            <rect id="Rectángulo_379385" data-name="Rectángulo 379385" width="51.72" height="108.823" transform="translate(-5.949 0)" fill="url(#linear-gradient-4)"/>
          </g>
        </g>
        <g id="Grupo_1080557" data-name="Grupo 1080557" transform="translate(0 0.001)">
          <g id="Grupo_1080556" data-name="Grupo 1080556" clip-path="url(#clip-path-2)">
            <path id="Trazado_832329" data-name="Trazado 832329" d="M190.7,694.911c-.76-3.224-7.252-31.6-1.195-35.032,5.339-3.023,5.207-14.782,4.374-25.887-.737-9.829,11.887-14.423,12.424-14.614l.321.9c-.125.044-12.472,4.541-11.79,13.64.855,11.4.947,23.5-4.858,26.791-4.6,2.6-.365,25.411,1.655,33.979Z" transform="translate(-148.641 -492.458)" fill="#fff"/>
          </g>
        </g>
        <g id="Grupo_1080559" data-name="Grupo 1080559" transform="translate(19.258 192.35)">
          <g id="Grupo_1080558" data-name="Grupo 1080558" clip-path="url(#clip-path-10)">
            <rect id="Rectángulo_379387" data-name="Rectángulo 379387" width="36.546" height="32.742" fill="url(#linear-gradient-5)"/>
          </g>
        </g>
        <g id="Grupo_1080561" data-name="Grupo 1080561" transform="translate(19.258 192.35)">
          <g id="Grupo_1080560" data-name="Grupo 1080560" clip-path="url(#clip-path-11)">
            <rect id="Rectángulo_379388" data-name="Rectángulo 379388" width="36.546" height="32.742" fill="url(#linear-gradient-6)"/>
          </g>
        </g>
        <g id="Grupo_1080566" data-name="Grupo 1080566" transform="translate(0 0.001)">
          <g id="Grupo_1080565" data-name="Grupo 1080565" clip-path="url(#clip-path-2)">
            <rect id="Rectángulo_379389" data-name="Rectángulo 379389" width="29.789" height="1.768" transform="translate(110.467 138.052)" fill="#e2d2ca"/>
            <rect id="Rectángulo_379390" data-name="Rectángulo 379390" width="2.61" height="80.419" transform="translate(114.46 144.423)" fill="#706865"/>
            <rect id="Rectángulo_379391" data-name="Rectángulo 379391" width="20.706" height="2.525" transform="translate(135.594 137.551)" fill="#ccbdb7"/>
            <rect id="Rectángulo_379392" data-name="Rectángulo 379392" width="7.841" height="23.816" transform="translate(142.026 116.005)" fill="#998e89"/>
            <rect id="Rectángulo_379393" data-name="Rectángulo 379393" width="114.724" height="4.573" transform="translate(99.782 139.85)" fill="#b59074"/>
            <g id="Grupo_1080564" data-name="Grupo 1080564" transform="translate(68.446 104.494)" style="mix-blend-mode: hard-light;isolation: isolate">
              <g id="Grupo_1080563" data-name="Grupo 1080563">
                <g id="Grupo_1080562" data-name="Grupo 1080562" clip-path="url(#clip-path-13)">
                  <path id="Trazado_832332" data-name="Trazado 832332" d="M343.333,517.614s-1.255,17.6,2.183,19.7c2.154,1.319,10.741,5.769,10.487,6.6s-4.849,7.425-4.849,7.425-16.5-10.863-17.027-14.285c-.52-3.345.812-25.765,3.079-26.8,1.7-.774,2.594-.134,4.735,1.455,3,2.23,1.392,5.9,1.392,5.9" transform="translate(-334.015 -509.933)" fill="#f5f5f5"/>
                </g>
              </g>
            </g>
            <path id="Trazado_832333" data-name="Trazado 832333" d="M452.373,1041.863s-.513,3.56-.577,4.095-5.706-.315-5.706-.315l-.457-4.238s6.035-.044,6.74.458" transform="translate(-354.315 -828.002)" fill="#424773"/>
            <path id="Trazado_832334" data-name="Trazado 832334" d="M448.434,1060.485a15.23,15.23,0,0,0,3.517,3.08c1.729.935,4.446,1.306,5.468,2.273.738.7,2.688,3.707-4.493,3.646s-10.643.425-11.412-.729,1.113-8.512,1.113-8.512,1.7.612,5.807.241" transform="translate(-350.893 -842.982)" fill="#292c47"/>
            <path id="Trazado_832335" data-name="Trazado 832335" d="M628.773,1042.027s-.513,3.56-.577,4.095-5.706-.315-5.706-.315l-.457-4.239s6.035-.044,6.74.458" transform="translate(-494.567 -828.132)" fill="#424773"/>
            <path id="Trazado_832336" data-name="Trazado 832336" d="M624.833,1060.649a15.227,15.227,0,0,0,3.517,3.08c1.729.935,8.091,1.7,9.114,2.671.738.7,1.965,3.511-8.138,3.249-7.178-.187-10.643.425-11.412-.729s1.113-8.513,1.113-8.513,1.6.654,5.807.241" transform="translate(-491.145 -843.112)" fill="#292c47"/>
            <path id="Trazado_832337" data-name="Trazado 832337" d="M369.873,743.52s20.512,3.471,25.145,4.2,29.753,6.979,32.894,8.883c2.5,1.516-1.311,37.929-2.2,51.822h-9.894l-.717-41.673c-11.873.3-20.346-2.777-28.992-1.464s-15.854,3.179-21.348-4.19c0,0-.2-15.966,5.114-17.575" transform="translate(-290.012 -591.16)" fill="#292c47"/>
            <path id="Trazado_832338" data-name="Trazado 832338" d="M374.44,825.666l-9.642-.6-.94-41.111a58.554,58.554,0,0,1-11-.7l-7.785-18.1c6.823,1.364,28.683,6.878,31.6,8.645,2.5,1.517-1.34,37.962-2.231,51.855" transform="translate(-274.361 -608.37)" fill="#292c47"/>
            <path id="Trazado_832339" data-name="Trazado 832339" d="M415.76,366.917s7.519-2.078,10.388,3.759,1.568,16.9-2.222,17.944-9.239-.158-10.812-3.791-2.828-8.8-2.451-12.138,3.1-4.975,5.1-5.774" transform="translate(-326.457 -291.444)" fill="#eea886"/>
            <path id="Trazado_832340" data-name="Trazado 832340" d="M427.017,448.69s-.083,4.439.407,5.385-10.47.709-10.47.709,1.727-5.331.747-9.873c-.97-4.5,9.316,3.778,9.316,3.778" transform="translate(-331.512 -352.678)" fill="#eea886"/>
            <path id="Trazado_832341" data-name="Trazado 832341" d="M410.363,379.111s.586,1.191,3.423,1,6.578-3.615,7.783-3.921,1.276-.991,1.276-.991l.637,1.133,1.234.188s-.839-3.43.989-4.638-.823-10.935-10.073-8.589c0,0-7.06,1.293-7.155,5.235s.516,8.5,1.886,10.584" transform="translate(-324.765 -288.558)" fill="#3a3f47"/>
            <path id="Trazado_832342" data-name="Trazado 832342" d="M428.556,482.941s-.031-1.808-.85-1.982-8.615-1.246-9.621-.85l-.432,2.388s1.939,1.193,10.9.444" transform="translate(-332.068 -381.657)" fill="#e2d2ca"/>
            <path id="Trazado_832343" data-name="Trazado 832343" d="M469.625,411.072c-.21-1.482-1.9-3.184-2.86-.876s.651,5.67,1.734,5.49,1.412-2.6,1.126-4.614" transform="translate(-370.881 -325.24)" fill="#eea886"/>
            <path id="Trazado_832344" data-name="Trazado 832344" d="M630.149,598.516a.021.021,0,0,0-.013,0c.056.025.064.027.013,0" transform="translate(-501.01 -475.869)" fill="#323657"/>
            <path id="Trazado_832345" data-name="Trazado 832345" d="M407.272,373.472s-9.168-.432-1.6,13.881Z" transform="translate(-320.163 -296.94)" fill="#3a3f47"/>
            <path id="Trazado_832346" data-name="Trazado 832346" d="M325.411,1041.932l.682,1.918,28.817-8.929-1.381-3.885Z" transform="translate(-258.728 -819.76)" fill="#918783"/>
            <rect id="Rectángulo_379395" data-name="Rectángulo 379395" width="3.275" height="31.33" transform="translate(93.894 182.466)" fill="#918783"/>
            <rect id="Rectángulo_379396" data-name="Rectángulo 379396" width="19.318" height="1.846" transform="translate(85.873 180.801)" fill="#5e5854"/>
            <path id="Trazado_832347" data-name="Trazado 832347" d="M493.762,1040.987l-.682,1.918-28.817-8.929,1.266-4.129Z" transform="translate(-369.128 -818.814)" fill="#918783"/>
            <path id="Trazado_832348" data-name="Trazado 832348" d="M473.459,1042.7v2.232l-9.2-10.955,1.266-4.129Z" transform="translate(-369.128 -818.814)" fill="#918783"/>
            <path id="Trazado_832349" data-name="Trazado 832349" d="M600.461,1086.778a2.693,2.693,0,1,1-2.693-2.693,2.693,2.693,0,0,1,2.693,2.693" transform="translate(-473.133 -861.937)" fill="#bfb2ac"/>
            <path id="Trazado_832350" data-name="Trazado 832350" d="M489.355,1086.778a2.693,2.693,0,1,1-2.693-2.693,2.693,2.693,0,0,1,2.693,2.693" transform="translate(-384.795 -861.937)" fill="#bfb2ac"/>
            <path id="Trazado_832351" data-name="Trazado 832351" d="M317.654,1086.778a2.693,2.693,0,1,1-2.693-2.693,2.693,2.693,0,0,1,2.693,2.693" transform="translate(-248.279 -861.937)" fill="#bfb2ac"/>
            <path id="Trazado_832352" data-name="Trazado 832352" d="M397.761,855.18H358.3a3.151,3.151,0,0,1-3.151-3.151v-.691a3.151,3.151,0,0,1,3.151-3.151h39.464a3.151,3.151,0,0,1,3.151,3.151v.691a3.151,3.151,0,0,1-3.151,3.151" transform="translate(-282.37 -674.379)" fill="#e2d2ca"/>
            <rect id="Rectángulo_379397" data-name="Rectángulo 379397" width="2.61" height="80.419" transform="translate(197.217 144.423)" fill="#706865"/>
            <path id="Trazado_832353" data-name="Trazado 832353" d="M611.582,436.771h-61.42a3.143,3.143,0,0,1-3.143-3.143V392.151a3.143,3.143,0,0,1,3.143-3.143h61.42a3.143,3.143,0,0,1,3.143,3.143v41.477a3.143,3.143,0,0,1-3.143,3.143" transform="translate(-434.925 -309.294)" fill="#b8aba5"/>
            <rect id="Rectángulo_379398" data-name="Rectángulo 379398" width="62.403" height="37.697" transform="translate(114.746 82.296)" fill="#f5f7ff"/>
            <path id="Trazado_832354" data-name="Trazado 832354" d="M831.435,595.39a2.6,2.6,0,1,1-2.515-1.941,2.284,2.284,0,0,1,2.515,1.941" transform="translate(-657.06 -471.841)" fill="#918681"/>
            <path id="Trazado_832355" data-name="Trazado 832355" d="M711.06,658.96v-.85s-1.2-5.287-9.647-5.287-8.281,6.137-8.281,6.137Z" transform="translate(-551.096 -519.048)" fill="#998e89"/>
            <path id="Trazado_832356" data-name="Trazado 832356" d="M685.385,643.95a8.322,8.322,0,0,0,2.509-.549c.673-.406,4.7-3.112,5.643-2.679s7.237,2.361,7.018,3.281-.8.831-1.244.669a32.31,32.31,0,0,0-5.416-.96s4.488,1.637,4.505,2.831-.939,1.486-1.365,1.937-.936,1.573-2.093,1.659-6.8-1.877-7.961-1.967a28.356,28.356,0,0,1-3.458-.117,32.113,32.113,0,0,1,1.86-4.1" transform="translate(-543.452 -509.39)" fill="#eea886"/>
            <path id="Trazado_832357" data-name="Trazado 832357" d="M381.017,495.047C375.163,494.018,369,492.54,369,492.54l-10.9-.444s-10.007,2.2-13.948,3.983c-.374.168-.376,8.927-1.4,11.224l3.267,6.893s1.888,13.655,2.279,19.727c.18,2.788-.508,26.943-.508,26.943s.979.484,8.421,1.3,26.034-.3,26.151-1.175-3.6-32.727-3.765-34.377c-.253-2.531.731-14.228.731-14.228,1.4,1.883,4.976,10.388,8.7,14.435,2.192,2.381,13.043,3.84,15.089,3.908,4.452.149,12.575,1.035,12.813.6.19-.26.708-7.21.2-7.38-.446-.149-15.529-1.017-19.393-3.067-1.414-.75-5.64-9.965-5.64-9.965s-6.846-14.425-10.076-15.876" transform="translate(-272.513 -391.257)" fill="#dbdff0"/>
            <path id="Trazado_832358" data-name="Trazado 832358" d="M328.484,654.686H309.023a6.05,6.05,0,0,1-6.05-6.05V617.024a6.05,6.05,0,0,1,6.05-6.05h19.461a6.05,6.05,0,0,1,6.05,6.05v31.612a6.05,6.05,0,0,1-6.05,6.05" transform="translate(-240.888 -485.775)" fill="#e2d2ca"/>
            <path id="Trazado_832359" data-name="Trazado 832359" d="M365.861,773.11a14.46,14.46,0,0,1-11.218-4.645c-6.309-6.966-5.175-19.21-5.124-19.729a1.756,1.756,0,0,1,3.495.346c-.014.14-1.019,11.239,4.239,17.033a10.95,10.95,0,0,0,8.608,3.483,1.756,1.756,0,0,1,0,3.512" transform="translate(-277.808 -594.049)" fill="#e2d2ca"/>
            <path id="Trazado_832360" data-name="Trazado 832360" d="M599.378,418.25H582a.451.451,0,0,1-.45-.451v-1.091a.451.451,0,0,1,.45-.451h17.378a.451.451,0,0,1,.451.451V417.8a.451.451,0,0,1-.451.451" transform="translate(-462.379 -330.96)" fill="#dfe1e8"/>
            <path id="Trazado_832361" data-name="Trazado 832361" d="M599.378,439.1H582a.451.451,0,0,1-.45-.451v-1.091a.451.451,0,0,1,.45-.451h17.378a.451.451,0,0,1,.451.451v1.091a.451.451,0,0,1-.451.451" transform="translate(-462.379 -347.535)" fill="#dfe1e8"/>
            <path id="Trazado_832362" data-name="Trazado 832362" d="M598.312,483.534H583.063a1.515,1.515,0,0,1-1.515-1.515v-19.49a1.515,1.515,0,0,1,1.515-1.515h15.249a1.515,1.515,0,0,1,1.515,1.515v19.49a1.515,1.515,0,0,1-1.515,1.515" transform="translate(-462.378 -366.544)" fill="#dfe1e8"/>
            <path id="Trazado_832363" data-name="Trazado 832363" d="M718.915,447.951H691.16a2.4,2.4,0,0,1-2.4-2.4V418.657a2.4,2.4,0,0,1,2.4-2.4h27.755a2.4,2.4,0,0,1,2.4,2.4v26.895a2.4,2.4,0,0,1-2.4,2.4" transform="translate(-547.622 -330.961)" fill="#dfe1e8"/>
            <path id="Trazado_832364" data-name="Trazado 832364" d="M1101.63,657.76a48.369,48.369,0,0,1,21.92,0l-5.783-29.624s-14.438,15.307-16.137,29.624" transform="translate(-875.886 -499.42)" fill="#b3b7c4"/>
            <path id="Trazado_832365" data-name="Trazado 832365" d="M902.14,523.476s-2.215,1.586-2.869,1.387a14.082,14.082,0,0,0-2.377.056c-.622-.066-2.249-.844-2.9-.677a18.189,18.189,0,0,1-2.306,1.2c-.557.08-1.7.106-1.628.58s1.107.73,1.107.73-.5.1-.566.543a1.14,1.14,0,0,0,.326,1.153s-.449.436-.41.8a1.443,1.443,0,0,0,.529,1.085,1.376,1.376,0,0,0-.012.949,1.227,1.227,0,0,0,.936.768s.095.906.594,1.028a4.422,4.422,0,0,0,1.344-.066,16.827,16.827,0,0,0,6.068-3.079,20.321,20.321,0,0,1,4.55-2.922Z" transform="translate(-707.666 -416.207)" fill="#eea987"/>
            <path id="Trazado_832366" data-name="Trazado 832366" d="M1154.106,225.387s3.307-2.122,6.29,1.65,1.91,7.4,1.287,10.785c-.618,3.358-3.626,11.043-2.348,14.429s-.355,5.149-.355,5.149-10.257,2.626-9.061-12.8,4.187-19.212,4.187-19.212" transform="translate(-914.203 -178.729)" fill="#fccca2"/>
            <path id="Trazado_832367" data-name="Trazado 832367" d="M983.643,369.6s-3.905-.535-6.527,1.43-4.414,5.645-5.215,6.8-10.16,11.486-10.626,11.673-6.292,3.4-10.216,6-10.107,5.725-10.107,5.725l3.353,4.112s16.522-5.915,19.959-9.112c3.671-3.416,20.646-20.365,20.646-20.365s4.267-3.448-1.267-6.262" transform="translate(-748.134 -293.81)" fill="#dbdff0"/>
            <path id="Trazado_832368" data-name="Trazado 832368" d="M996.266,1036.071s-4.224,5.687-3.645,6.589,5.022,1.03,7.726,0,2.769-7.7,3.992-10.559c.512-1.2-.584-4.738-2.125-4.995a6.5,6.5,0,0,0-3.217.5s1.6,4.033-2.732,8.467" transform="translate(-789.172 -816.592)" fill="#1d3b54"/>
            <path id="Trazado_832369" data-name="Trazado 832369" d="M1007.907,1027.242a26.848,26.848,0,0,0-1.214,4.734c-.269,1.918-3.009,5.99-2.881,6.505s3.605.981,5.022-.346,2.328-5.189,2.64-7.5a18.536,18.536,0,0,1,.657-3.214s-2.872-1.6-4.224-.179" transform="translate(-798.11 -816.276)" fill="#eea886"/>
            <path id="Trazado_832370" data-name="Trazado 832370" d="M1047.571,1049.244v5.954h-.773v-4.6Z" transform="translate(-832.29 -834.236)" fill="#1d3b54"/>
            <path id="Trazado_832371" data-name="Trazado 832371" d="M1176.287,1036.177s-4.072,5.592-3.493,6.494,5.022,1.03,7.726,0,2.769-7.7,3.992-10.559c.512-1.2-.584-4.738-2.125-4.995a6.92,6.92,0,0,0-3.348.552s1.577,4.073-2.753,8.508" transform="translate(-932.423 -816.603)" fill="#1d3b54"/>
            <path id="Trazado_832372" data-name="Trazado 832372" d="M1187.987,1026.851a38.058,38.058,0,0,1-.837,4.507c-.515,1.867-3.283,6.117-3.155,6.632s3.605.982,5.022-.346,2.511-5.172,2.64-7.5a12.387,12.387,0,0,0-.322-3.845,3.145,3.145,0,0,0-3.348.552" transform="translate(-941.37 -815.785)" fill="#eea886"/>
            <path id="Trazado_832373" data-name="Trazado 832373" d="M1227.752,1049.244v5.954h-.773v-4.6Z" transform="translate(-975.549 -834.236)" fill="#1d3b54"/>
            <path id="Trazado_832374" data-name="Trazado 832374" d="M1038.525,529.079s-3.625,16.864-4.458,21.11S1030.9,575,1030.654,578.5s-3.783,16.672-3.616,17.92-5.436,26.029-5.436,26.029,5.767,1.569,6.738.512c.824-.9,9.11-23.557,9.11-29.8,0-8.631,6.51-19.62,7.334-21.551,7.65-17.938,6.016-23.7,7.015-24.866s1.086.72,1.669,3.3,1.831,24.893,2.58,27.723.167,12.4.584,17.234.9,26.464.9,26.464,4.177.96,6.162.035c.572-.267,2.016-24.1,2.1-29.845s.172-13.667.333-16.151c1.542-23.8,3.818-27.183-.637-44.052-8.546-32.357-26.958-2.367-26.958-2.367" transform="translate(-812.257 -410.6)" fill="#3b3b40"/>
            <path id="Trazado_832375" data-name="Trazado 832375" d="M1100.5,358.144a39.571,39.571,0,0,1-5.1,2.05c-1.314.263-6.411,6.884-7.3,9.3s0,6.043,1.839,10.3.105,5.675.946,9.932.043,14.234-.114,16.6,19.337,5.369,26.83-2.181c0,0-4.066-7.638-4.7-8.689s-.1-6.779.473-8.251,4.425-13.984,4.425-13.984,3.148-9.61.3-11.818c-2.47-1.918-9.2-2.6-10.41-3.023a20.657,20.657,0,0,0-7.194-.236" transform="translate(-864.852 -284.597)" fill="#e8734d"/>
            <path id="Trazado_832376" data-name="Trazado 832376" d="M1135.161,362.125l-2.3-2.692,2-7.088a46.8,46.8,0,0,1,.3,9.78" transform="translate(-900.718 -280.144)" fill="#d6c5be"/>
            <path id="Trazado_832377" data-name="Trazado 832377" d="M1141.167,317.511a90.246,90.246,0,0,1,.6,9.2s3.931,3.94,8.4-4.6a11.723,11.723,0,0,1-.466-8.315c1.417-4.8-8.535,3.713-8.535,3.713" transform="translate(-907.321 -248.33)" fill="#eea886"/>
            <path id="Trazado_832378" data-name="Trazado 832378" d="M1144.081,382.506v3.6l4.525-3.381Z" transform="translate(-909.638 -304.124)" fill="#eea886"/>
            <path id="Trazado_832379" data-name="Trazado 832379" d="M1144.081,366.579l1.879-2.325,6.328-6.307,2.047,1.972Z" transform="translate(-909.638 -284.598)" fill="#d6c5be"/>
            <path id="Trazado_832380" data-name="Trazado 832380" d="M1121.622,359.433l-2.9.8,4.893-7.888Z" transform="translate(-889.478 -280.144)" fill="#fae6de"/>
            <path id="Trazado_832381" data-name="Trazado 832381" d="M1153.249,362.632l2.646,3.468,5.406-9.23-1.882-.963Z" transform="translate(-916.927 -282.976)" fill="#fae6de"/>
            <path id="Trazado_832382" data-name="Trazado 832382" d="M1141.927,333.381l.128,1.373s3.126.6,7.216-4.384a8.877,8.877,0,0,1-7.344,3.011" transform="translate(-907.926 -262.672)" fill="#a77860"/>
            <path id="Trazado_832383" data-name="Trazado 832383" d="M1119.108,251.453c-1.231-.045-4.667-.447-6.363-8.364-2.071-9.672,2.505-14.688,6.424-15.617s7.533.433,9.539,5.488c0,0,1.467,3.941-.914,10.962s-7.369,7.58-8.687,7.531" transform="translate(-884.314 -180.643)" fill="#eea987"/>
            <path id="Trazado_832384" data-name="Trazado 832384" d="M1120.072,231.679s-5.263.327-10.154,7.676c0,0-2.29-8.842,3.694-12.878s10.176-.566,11.636,1.194c0,0,2.094.481,2.161,4.455s2.738,9.969-3.125,12.813c0,0,.559-4.535.042-5.573s-2.308-.337-4.254-7.687" transform="translate(-882.134 -178.577)" fill="#fccca2"/>
            <path id="Trazado_832385" data-name="Trazado 832385" d="M1178.649,285.475c.265-.688.989-.965,1.387-.227s-.076,3.6-1.138,3.91-.786-2.289-.249-3.682" transform="translate(-936.744 -226.449)" fill="#eea987"/>
            <path id="Trazado_832386" data-name="Trazado 832386" d="M1166.864,360.608s-5.944,7.11-6.567,22.058,4.682,62.689,4.351,68.512l15.414-7.46s-.089-24.088-5.25-39.243c-6.056-17.782.831-23.206,1.461-34.143,0,0-.286-8.008-4.75-8.736-4.191-.683-4.66-.989-4.66-.989" transform="translate(-922.491 -286.714)" fill="#dbdff0"/>
            <path id="Trazado_832387" data-name="Trazado 832387" d="M1077.808,365.812s-2.418.281-3.181,1.185-5.541,6.41-5.89,8.032-1.462,2.831.83,10.383c2.052,6.763,1.536,14.339,1.111,17.372s-7.805,44.023-7.4,45.074,3.478,3.559,3.478,3.559,6.61-40.443,6.54-47.2-2.715-26.865,4.512-38.406" transform="translate(-845.38 -290.851)" fill="#dbdff0"/>
            <path id="Trazado_832388" data-name="Trazado 832388" d="M887.5,456.625l5.154,26.538,17.033-3.308L905.2,453.188Z" transform="translate(-705.637 -360.322)" fill="#616161"/>
            <path id="Trazado_832389" data-name="Trazado 832389" d="M893.739,464.422l4.578,23.569,15.127-2.938-3.987-23.684Z" transform="translate(-710.596 -366.827)" fill="#e0cec7"/>
            <path id="Trazado_832390" data-name="Trazado 832390" d="M915.9,463.661l-.321-1.654,6.116-1.188.56,1.608Z" transform="translate(-727.957 -366.389)" fill="#616161"/>
            <path id="Trazado_832391" data-name="Trazado 832391" d="M892.715,536.1s3.051-1,3.954-.423-.178.991-.178.991,1.063-.432,1.483.363-.872,1.22-.872,1.22a.884.884,0,0,1,1,.818c.112.934-1.036,1.047-1.036,1.047s1.331.526.492,1.376a5.016,5.016,0,0,1-3.686,1.213.943.943,0,0,1-.756-.992,1.287,1.287,0,0,1-.9-1.792s-1.189-1.08-.146-1.906a1.126,1.126,0,0,1,.638-1.916" transform="translate(-708.934 -425.764)" fill="#db9c7c"/>
            <path id="Trazado_832392" data-name="Trazado 832392" d="M1253.855,612.77s.614,2.871-.641,4.812c-.48.742-.018,6.355.025,7.055.036.587.565,1.089.783.968s.265-3.228.6-4.229c.277-.841.524-1.158.675-.89a41.038,41.038,0,0,1-.658,6.272c-.295,1.493.075,4.639.85,4.131s3.365-7.494,3.173-9.827a30.592,30.592,0,0,0-1.074-5.246Z" transform="translate(-996.236 -487.203)" fill="#eea886"/>
            <path id="Trazado_832393" data-name="Trazado 832393" d="M1191,362.621s6.155-.379,9.242,3.214,2.919,7.859,3.705,9.711,2.582,9.824,2.975,11.115.776,8.548,1.338,14.386.448,16.739.448,16.739l-5.889-1.068s-.237-10.392-.387-16.417-5.052-16.672-6.9-21.331-9.227-13.425-4.528-16.349" transform="translate(-945.719 -288.305)" fill="#dbdff0"/>
          </g>
        </g>
      </g>
    </g>
  </g>
</svg>
