<svg xmlns="http://www.w3.org/2000/svg" xmlns:xlink="http://www.w3.org/1999/xlink" width="317" height="361" viewBox="0 0 317 361">
  <defs>
    <clipPath id="clip-path">
      <rect id="Rectángulo_379508" data-name="Rectángulo 379508" width="317" height="361" transform="translate(158 2634)" fill="#fff" stroke="#707070" stroke-width="1"/>
    </clipPath>
    <clipPath id="clip-path-2">
      <rect id="Rectángulo_379507" data-name="Rectángulo 379507" width="294.479" height="718.708" fill="none"/>
    </clipPath>
  </defs>
  <g id="Enmascarar_grupo_94" data-name="Enmascarar grupo 94" transform="translate(-158 -2634)" clip-path="url(#clip-path)">
    <g id="Grupo_1080869" data-name="Grupo 1080869" transform="translate(180 2647.406)">
      <g id="Grupo_1080868" data-name="Grupo 1080868" transform="translate(0 -0.003)" clip-path="url(#clip-path-2)">
        <path id="Trazado_832593" data-name="Trazado 832593" d="M449.6,243.649s8.655-9.682,12.795-13.855,2.8-10.983,7.676-19.827,12.12-21.757,11.09-13.208-6.8,9.791.167,15.332,12.744,9.691,8.857,16.389S478.605,238.1,475.1,245.889a150.471,150.471,0,0,1-9.1,16.469l-17.509,5.615Z" transform="translate(-196.961 -85.177)" fill="#e49b79" fill-rule="evenodd"/>
        <path id="Trazado_832594" data-name="Trazado 832594" d="M231.965,717.341s-48.3-43.579-88.574-27.706-34.433,27.07-76.767,29.909c-21.99,1.474-29.14,8.641-29.14,8.641l8.567-130.233,31.991-90.565,82.488-1.121,46.291,64.089Z" transform="translate(-16.462 -222.334)" fill="#d8edfd" fill-rule="evenodd"/>
        <path id="Trazado_832595" data-name="Trazado 832595" d="M78.048,507.4l82.49-1.124L191.2,548.733l8.8,36.2s-7.672,70.619-11.53,106.267c-14.228-5.167-30.2-7.43-45.079-1.567-40.274,15.872-34.446,27.079-76.78,29.918-21.991,1.474-29.117,8.638-29.117,8.638l8.55-130.227Z" transform="translate(-16.467 -222.339)" fill="#bcdef8" fill-rule="evenodd"/>
        <path id="Trazado_832596" data-name="Trazado 832596" d="M256.028,1175.014s-1.619,22.983,4.012,31.278c5.589,8.239,16.375,23.561,9.886,25.109-10.5,2.507-27.42-11.469-32.159-17.173s-1.713-32.04-2.136-37.312,20.4-1.9,20.4-1.9" transform="translate(-103.233 -515.56)" fill="#e49b79" fill-rule="evenodd"/>
        <path id="Trazado_832597" data-name="Trazado 832597" d="M256.19,1175.031a133.6,133.6,0,0,0,.1,14.739,34.177,34.177,0,0,1-20.882-.83c.206-4.733.5-10.3.358-12.013-.424-5.272,20.425-1.9,20.425-1.9" transform="translate(-103.383 -515.566)" fill="#cc8a6b" fill-rule="evenodd"/>
        <path id="Trazado_832598" data-name="Trazado 832598" d="M235.044,1216.075c3.246,1.217,4.008,3.421,9.571,7.476,6.428,4.683,15.411,1.251,15.411,1.251,5.59,8.239,16.376,23.561,9.887,25.109-10.5,2.507-27.433-11.491-32.171-17.2-2.126-2.557-2.934-8.547-2.7-16.64" transform="translate(-103.206 -534.059)" fill="#d8edfd" fill-rule="evenodd"/>
        <path id="Trazado_832599" data-name="Trazado 832599" d="M103.782,1179.907s1.365,23-4.357,31.233c-5.68,8.177-16.634,23.375-10.162,25,10.468,2.619,27.545-11.161,32.346-16.814s2.067-32.018,2.548-37.29-20.376-2.125-20.376-2.125" transform="translate(-38.33 -517.767)" fill="#e49b79" fill-rule="evenodd"/>
        <path id="Trazado_832600" data-name="Trazado 832600" d="M116.519,1179.925a135.629,135.629,0,0,1-.21,15.243c9.377,4.621,14.5,3.365,20.838-1.1-.154-4.739-.382-10.3-.225-12.018.482-5.266-20.4-2.12-20.4-2.12" transform="translate(-51.079 -517.774)" fill="#cc8a6b" fill-rule="evenodd"/>
        <path id="Trazado_832601" data-name="Trazado 832601" d="M124.478,1221.285c-3.258,1.178-4.045,3.371-9.652,7.364-6.479,4.616-15.425,1.083-15.425,1.083-5.68,8.171-16.635,23.375-10.163,25,10.468,2.625,27.558-11.183,32.358-16.836,2.154-2.535,3.028-8.519,2.882-16.606" transform="translate(-38.319 -536.347)" fill="#d8edfd" fill-rule="evenodd"/>
        <path id="Trazado_832602" data-name="Trazado 832602" d="M93.059,586.171,104.04,923.509s12.844,11.811,24.9.331l24.213-324.819,18.14,324.392s17.305,7.958,25.752-1.767l14.065-338.9Z" transform="translate(-40.868 -255.924)" fill="#ff3a8d" fill-rule="evenodd"/>
        <path id="Trazado_832603" data-name="Trazado 832603" d="M93.034,586.164l118.073-3.411-2.392,57.906a221.982,221.982,0,0,1-33.65,5.731c-5.112,24.559-11.055,55.306-14.68,81.7l-7.233-129.075-3.594,48.31a277.135,277.135,0,0,1-54.735-6.094Z" transform="translate(-40.858 -255.925)" fill="#8fa8f9" fill-rule="evenodd"/>
        <line id="Línea_1018" data-name="Línea 1018" y1="307.502" x2="12.979" transform="translate(152.766 357.846)" fill="none" stroke="#b5249b" stroke-linecap="round" stroke-linejoin="round" stroke-width="2"/>
        <line id="Línea_1019" data-name="Línea 1019" x1="3.418" y1="303.59" transform="translate(61.78 362.364)" fill="none" stroke="#b5249b" stroke-linecap="round" stroke-linejoin="round" stroke-width="2"/>
        <path id="Trazado_832604" data-name="Trazado 832604" d="M77.953,547.243S46.592,593.712,32.642,711.167c-4.674,39.356-10.77-17.329-11.605-33.766C17.079,599.529,42.648,502.687,44.82,496.2" transform="translate(-9.056 -217.912)" fill="#e5f8ff" fill-rule="evenodd"/>
        <path id="Trazado_832605" data-name="Trazado 832605" d="M47.386,531.333l34.122,38.611c-2.934,5.418-6.844,13.679-12.06,27.507-14.706-1.987-25.064-11.947-31.4-20.371,3.224-18.371,6.6-34.15,9.342-45.747" transform="translate(-16.708 -233.343)" fill="#d8edfd" fill-rule="evenodd"/>
        <path id="Trazado_832606" data-name="Trazado 832606" d="M205.987,216.733c-1.571-38.511-49.927-52.409-49.927-52.409-25.237-8.51-12.809-43.132-12.809-43.132l-34.185,6.152s10.913,23.3-9.373,36.42c-15.51,10.032-48.532,13.209-49.9,51.267l19,21.526,11.98,135.184s52.217,16.843,93.453-1.4l2.55-129.086Z" transform="translate(-21.866 -53.222)" fill="#e49b79" fill-rule="evenodd"/>
        <path id="Trazado_832607" data-name="Trazado 832607" d="M189.674,121.174l-34.211,6.179s4.041,11.179,1.924,21.741c6.111,5.509,19.092,13.813,32.085,4.11-6.506-13.3.2-32.029.2-32.029" transform="translate(-68.274 -53.214)" fill="#cc8a6b" fill-rule="evenodd"/>
        <path id="Trazado_832608" data-name="Trazado 832608" d="M133.02,196.492s22.16,37.438,34.406,24.627c0,0,15.8-15.325,18.834-25.4l9.355,12.85-8.363,42.222L164.7,263.444l-39.028-18.735Z" transform="translate(-55.192 -85.95)" fill="#cc8a6b" fill-rule="evenodd"/>
        <path id="Trazado_832609" data-name="Trazado 832609" d="M96.932,198.9C80.248,210.721,50.6,209.522,49.226,247.58l19,21.513,7.284,149.29s74.751,12.55,115.987-5.69l4.261-139.461,9.667-23.942c-1.572-38.512-49.929-52.427-49.929-52.427-2.154-.726-1.491-.261-3.127-1.33,0,0-6.6,18.289-17.88,30.287-15.667,16.664-35.359-29.509-35.359-29.509s-.2,1.179-2.2,2.594" transform="translate(-21.618 -85.87)" fill="#c1cdf5" fill-rule="evenodd"/>
        <path id="Trazado_832610" data-name="Trazado 832610" d="M161.888,100.2a5.748,5.748,0,1,1,5.991,5.373,5.692,5.692,0,0,1-5.991-5.373" transform="translate(-71.093 -41.416)" fill="#fa5b7f" fill-rule="evenodd"/>
        <path id="Trazado_832611" data-name="Trazado 832611" d="M224.766,82.566a1.969,1.969,0,1,1,2.054,1.88,1.969,1.969,0,0,1-2.054-1.88" transform="translate(-98.709 -35.356)" fill="#212e96" fill-rule="evenodd"/>
        <path id="Trazado_832612" data-name="Trazado 832612" d="M179.8,86.588a1.969,1.969,0,1,1,2.054,1.879,1.969,1.969,0,0,1-2.054-1.879" transform="translate(-78.963 -37.122)" fill="#212e96" fill-rule="evenodd"/>
        <path id="Trazado_832613" data-name="Trazado 832613" d="M136.076,112.812c-.663-2.293.228-4.566,1.991-5.077s3.731.935,4.394,3.229-.228,4.567-1.99,5.077-3.731-.936-4.395-3.23" transform="translate(-59.664 -47.267)" fill="#cc8a6b" fill-rule="evenodd"/>
        <path id="Trazado_832614" data-name="Trazado 832614" d="M143.677,29.472s20.77,17.395,45.931,6.04,7.62-16.548,7.62-16.548C187.494,15.063,181.4,2.5,168.9.4s-22.824,4.263-26.589,11.779c0,0-14.98-.9-14.3,14.489S137.5,56.862,137.5,56.862s3.505,6.751,3.1,1.4c-.569-7.545-3.11-9.8,3.073-28.79" transform="translate(-56.208 0.003)" fill="#212e96" fill-rule="evenodd"/>
        <path id="Trazado_832615" data-name="Trazado 832615" d="M153.114,99.779s29.4,8.224,48.562-6.25c0,0,6.908,38.526-25.195,39.942,0,0-16.574,1.663-22.983-14.5,0,0,9.357-5.895-.384-19.2" transform="translate(-67.243 -41.073)" fill="#e5f8ff" fill-rule="evenodd"/>
        <path id="Trazado_832616" data-name="Trazado 832616" d="M159.155,121.282l-.059.132a10.052,10.052,0,0,1-2.009,7.91c1.414,1.3,4.735,2.663,13.7,1.333,14.789-2.194,3.681-3.007,3.681-3.007-11.079-.594-15.31-6.368-15.31-6.368" transform="translate(-68.988 -53.261)" fill="#d8edfd" fill-rule="evenodd"/>
        <path id="Trazado_832617" data-name="Trazado 832617" d="M227.794,116.926a22.72,22.72,0,0,1-12.4,6.864s-10.8,2.646,4.145,2.37a43.787,43.787,0,0,0,6.672-.66,43.566,43.566,0,0,0,1.587-8.573" transform="translate(-92.935 -51.348)" fill="#d8edfd" fill-rule="evenodd"/>
        <line id="Línea_1020" data-name="Línea 1020" x2="8.444" y2="2.838" transform="translate(81.288 56.735)" fill="#fff"/>
        <line id="Línea_1021" data-name="Línea 1021" x2="8.444" y2="2.838" transform="translate(81.288 56.735)" fill="none" stroke="#246cff" stroke-linecap="round" stroke-linejoin="round" stroke-width="2"/>
        <path id="Trazado_832618" data-name="Trazado 832618" d="M150,127.132s.043,3.777,3.55,9.618" transform="translate(-65.876 -55.831)" fill="#fff" fill-rule="evenodd"/>
        <path id="Trazado_832619" data-name="Trazado 832619" d="M150,127.132s.043,3.777,3.55,9.618" transform="translate(-65.876 -55.831)" fill="none" stroke="#246cff" stroke-linecap="round" stroke-linejoin="round" stroke-width="2"/>
        <path id="Trazado_832620" data-name="Trazado 832620" d="M220.989,72.451s-1.631,2.711,1.815.949,4.79-.738,7.674,1.21c2.318,1.565,3.152-.076,1.472-2.177s-7.387-6.059-10.961.019" transform="translate(-96.882 -30.394)" fill="#212e96" fill-rule="evenodd"/>
        <path id="Trazado_832621" data-name="Trazado 832621" d="M183.267,76.319s1.741,2.642-1.774,1.023-4.815-.54-7.618,1.525c-2.251,1.66-3.153.054-1.561-2.115s7.132-6.358,10.953-.433" transform="translate(-75.322 -32.181)" fill="#212e96" fill-rule="evenodd"/>
        <path id="Trazado_832622" data-name="Trazado 832622" d="M109.836,603.953l4.659,5.178s11.52-7.792,16.833-15.531l-3.391-5.765-14.97-1.232Z" transform="translate(-48.236 -257.616)" fill="#e49b79" fill-rule="evenodd"/>
        <path id="Trazado_832623" data-name="Trazado 832623" d="M275.645,614.238s-14.787-5.7-23-16.614" transform="translate(-110.953 -262.455)" fill="none" stroke="#761f66" stroke-linecap="round" stroke-linejoin="round" stroke-width="2"/>
        <path id="Trazado_832624" data-name="Trazado 832624" d="M107.183,617.824s16.053-7.958,23.27-19.558" transform="translate(-47.071 -262.737)" fill="none" stroke="#761f66" stroke-linecap="round" stroke-linejoin="round" stroke-width="2"/>
        <path id="Trazado_832625" data-name="Trazado 832625" d="M77.815,197.082s6.3,66.178,11.162,121.26S74.434,408.26,74.434,408.26l5.266,8.51s-14.667,4.515-18.1,16.117C56.492,427.912,50,421.508,42.611,414.3,28.455,400.487,9.3,376.842,3.113,365.434-7.709,345.472,12.535,292.56,20.4,250.461s34.23-45.61,43.119-47.857a56.977,56.977,0,0,0,14.3-5.522m-34.211,105c-.1-2.71-10.462,37.116-9.7,39.805s4.584,7.731,4.584,7.731Z" transform="translate(0 -86.55)" fill="#e5f8ff" fill-rule="evenodd"/>
        <path id="Trazado_832626" data-name="Trazado 832626" d="M104.571,483.369s5.266-10.861,7.554-19.012c0,0-16.679-21.47-24.758-39.005-6.17-13.392-10.085-52.562-10.373-54.711-1.113-8.331-3.253,6.554-3.253,6.554l-5.118,47.536Z" transform="translate(-30.137 -161.66)" fill="#d8edfd" fill-rule="evenodd"/>
        <path id="Trazado_832627" data-name="Trazado 832627" d="M115.144,210.53s-25.124,31.514-12.807,40.95c16.758,12.838,11.386,13.877,6.342,19.208s-8.749,6.831,9.64,47.667-4.75,73.032-4.75,73.032" transform="translate(-43.451 -92.456)" fill="none" stroke="#bcdef8" stroke-linecap="round" stroke-linejoin="round" stroke-width="4"/>
        <path id="Trazado_832628" data-name="Trazado 832628" d="M142.448,37.311c-3.971.663-.128,29.846-.128,29.846s-8.343-3.036-9.094,4.5,6.123,10.47,9.384,8.434c0,0,5.125,21.276,25.112,21.1s26.7-29.008,25.2-39.947,1.362-25.265,1.362-25.265L177.45,20.013s-31.031,16.635-35,17.3" transform="translate(-58.483 -8.787)" fill="#e49b79" fill-rule="evenodd"/>
        <path id="Trazado_832629" data-name="Trazado 832629" d="M161.888,100.2a5.748,5.748,0,1,1,5.991,5.373,5.692,5.692,0,0,1-5.991-5.373" transform="translate(-71.093 -41.416)" fill="#fa5b7f" fill-rule="evenodd"/>
        <path id="Trazado_832630" data-name="Trazado 832630" d="M224.766,82.566a1.969,1.969,0,1,1,2.054,1.88,1.969,1.969,0,0,1-2.054-1.88" transform="translate(-98.709 -35.356)" fill="#212e96" fill-rule="evenodd"/>
        <path id="Trazado_832631" data-name="Trazado 832631" d="M179.8,86.588a1.969,1.969,0,1,1,2.054,1.879,1.969,1.969,0,0,1-2.054-1.879" transform="translate(-78.963 -37.122)" fill="#212e96" fill-rule="evenodd"/>
        <path id="Trazado_832632" data-name="Trazado 832632" d="M136.076,112.812c-.663-2.293.228-4.566,1.991-5.077s3.731.935,4.394,3.229-.228,4.567-1.99,5.077-3.731-.936-4.395-3.23" transform="translate(-59.664 -47.267)" fill="#cc8a6b" fill-rule="evenodd"/>
        <path id="Trazado_832633" data-name="Trazado 832633" d="M143.677,29.472s20.77,17.395,45.931,6.04,7.62-16.548,7.62-16.548C187.494,15.063,181.4,2.5,168.9.4s-22.824,4.263-26.589,11.779c0,0-14.98-.9-14.3,14.489S137.5,56.862,137.5,56.862s3.505,6.751,3.1,1.4c-.569-7.545-3.11-9.8,3.073-28.79" transform="translate(-56.208 0.003)" fill="#212e96" fill-rule="evenodd"/>
        <path id="Trazado_832634" data-name="Trazado 832634" d="M220.989,72.451s-1.631,2.711,1.815.949,4.79-.738,7.674,1.21c2.318,1.565,3.152-.076,1.472-2.177s-7.387-6.059-10.961.019" transform="translate(-96.882 -30.394)" fill="#212e96" fill-rule="evenodd"/>
        <path id="Trazado_832635" data-name="Trazado 832635" d="M183.267,76.319s1.741,2.642-1.774,1.023-4.815-.54-7.618,1.525c-2.251,1.66-3.153.054-1.561-2.115s7.132-6.358,10.953-.433" transform="translate(-75.322 -32.181)" fill="#212e96" fill-rule="evenodd"/>
        <path id="Trazado_832636" data-name="Trazado 832636" d="M233.568,195.724s-1.777,122.91,5.521,168.46a155.534,155.534,0,0,0,21.837,57.345C272.582,440.451,287.341,481,305,534.642c6.78,20.59,17.281,79.662,16.7,28.06-.436-38.875-18.381-130.9-27.235-174.051l-10.481-73C288.991,331.961,296.4,339,296.4,339c24.854,27.3,75.134-75.871,75.134-75.871-17.84-4.033-16.4-18.7-16.4-18.7a454.789,454.789,0,0,0-43.447,48s-7.184-20.51-16.211-48.617-20.693-40.423-36-41.782a84.776,84.776,0,0,1-25.9-6.309" transform="translate(-102.492 -85.954)" fill="#e5f8ff" fill-rule="evenodd"/>
        <path id="Trazado_832637" data-name="Trazado 832637" d="M258.191,258.966a6.847,6.847,0,1,0-6.885,6.809,6.847,6.847,0,0,0,6.885-6.809" transform="translate(-107.376 -110.704)" fill="#bcdef8" fill-rule="evenodd"/>
        <path id="Trazado_832638" data-name="Trazado 832638" d="M257.513,261.4a3.72,3.72,0,1,0-3.741,3.7,3.721,3.721,0,0,0,3.741-3.7" transform="translate(-109.824 -113.153)" fill="#246cff" fill-rule="evenodd"/>
        <path id="Trazado_832639" data-name="Trazado 832639" d="M246.465,232.861s1.22-37.718-13.079-40.136" transform="translate(-102.496 -84.637)" fill="none" stroke="#ff3a8d" stroke-linecap="round" stroke-linejoin="round" stroke-width="4"/>
        <path id="Trazado_832640" data-name="Trazado 832640" d="M129.056,246.466s10.061-.468,12.158,15.92c2.085,16.288,5.476,25.048-9.377,25.705" transform="translate(-56.677 -108.238)" fill="none" stroke="#00c8eb" stroke-linecap="round" stroke-linejoin="round" stroke-width="4"/>
        <path id="Trazado_832641" data-name="Trazado 832641" d="M118.777,246.491s-10.062.422-10.7,16.932c-.638,16.409-3.242,25.434,11.61,24.776" transform="translate(-47.206 -108.249)" fill="none" stroke="#00c8eb" stroke-linecap="round" stroke-linejoin="round" stroke-width="4"/>
        <path id="Trazado_832642" data-name="Trazado 832642" d="M127.935,225.074s-1.408-28.115,5.761-29.112" transform="translate(-56.136 -86.058)" fill="none" stroke="#ff3a8d" stroke-linecap="round" stroke-linejoin="round" stroke-width="4"/>
        <rect id="Rectángulo_379505" data-name="Rectángulo 379505" width="1.784" height="3.037" transform="translate(73.962 178.403) rotate(-2.523)" fill="#246cff"/>
        <rect id="Rectángulo_379506" data-name="Rectángulo 379506" width="1.785" height="3.037" transform="matrix(0.999, -0.044, 0.044, 0.999, 71.747, 178.506)" fill="#246cff"/>
        <path id="Trazado_832643" data-name="Trazado 832643" d="M253.871,213.85s26.218,30.611,14.241,40.474c-16.3,13.42-10.891,14.27-5.662,19.419s8.983,6.519-7.955,47.978,7.318,72.82,7.318,72.82" transform="translate(-109.127 -93.914)" fill="none" stroke="#bcdef8" stroke-linecap="round" stroke-linejoin="round" stroke-width="4"/>
        <path id="Trazado_832644" data-name="Trazado 832644" d="M235.158,88.474a5.554,5.554,0,0,0,.035,11.094,35.108,35.108,0,0,0,.21-8.255c-.125-.915-.177-1.887-.246-2.839" transform="translate(-100.962 -38.853)" fill="#fa5b7f" fill-rule="evenodd"/>
        <path id="Trazado_832645" data-name="Trazado 832645" d="M153.114,99.779s29.4,8.224,48.562-6.25c0,0,6.908,38.526-25.195,39.942,0,0-16.574,1.663-22.983-14.5,0,0,9.357-5.895-.384-19.2" transform="translate(-67.243 -41.073)" fill="#e5f8ff" fill-rule="evenodd"/>
        <path id="Trazado_832646" data-name="Trazado 832646" d="M159.155,121.282l-.059.132a10.052,10.052,0,0,1-2.009,7.91c1.414,1.3,4.735,2.663,13.7,1.333,14.789-2.194,3.681-3.007,3.681-3.007-11.079-.594-15.31-6.368-15.31-6.368" transform="translate(-68.988 -53.261)" fill="#d8edfd" fill-rule="evenodd"/>
        <path id="Trazado_832647" data-name="Trazado 832647" d="M227.794,116.926a22.72,22.72,0,0,1-12.4,6.864s-10.8,2.646,4.145,2.37a43.787,43.787,0,0,0,6.672-.66,43.566,43.566,0,0,0,1.587-8.573" transform="translate(-92.935 -51.348)" fill="#d8edfd" fill-rule="evenodd"/>
        <line id="Línea_1022" data-name="Línea 1022" x2="8.444" y2="2.838" transform="translate(81.288 56.735)" fill="#fff"/>
        <line id="Línea_1023" data-name="Línea 1023" x2="8.444" y2="2.838" transform="translate(81.288 56.735)" fill="none" stroke="#246cff" stroke-linecap="round" stroke-linejoin="round" stroke-width="2"/>
        <path id="Trazado_832648" data-name="Trazado 832648" d="M150,127.132s.043,3.777,3.55,9.618" transform="translate(-65.876 -55.831)" fill="#fff" fill-rule="evenodd"/>
        <path id="Trazado_832649" data-name="Trazado 832649" d="M150,127.132s.043,3.777,3.55,9.618" transform="translate(-65.876 -55.831)" fill="none" stroke="#246cff" stroke-linecap="round" stroke-linejoin="round" stroke-width="2"/>
        <path id="Trazado_832650" data-name="Trazado 832650" d="M490.53,193.961c-1.832.44-6.824,9.369-10.48,16-4.875,8.844-3.537,15.648-7.677,19.822-.3.3-.811.887-1.156,1.244,1.211,3.741,4.776,9.964,15.3,12.233,3.872-5.924,10.236-8.9,13.653-14.792,3.887-6.7-1.9-10.846-8.868-16.387s-1.188-6.786-.158-15.335c.257-2.137,0-2.934-.614-2.787" transform="translate(-206.943 -85.172)" fill="#1bddff" fill-rule="evenodd"/>
        <path id="Trazado_832651" data-name="Trazado 832651" d="M311.354,305.536c-2.028,1.7,6.747,58.327,6.747,58.327,5,16.307,12.408,23.345,12.408,23.345a14.975,14.975,0,0,0,3.505,2.822c1.673-11.542,3.2-23.623,2.769-27.236-.9-7.525-23.4-58.96-25.43-57.257" transform="translate(-136.603 -134.161)" fill="#d8edfd" fill-rule="evenodd"/>
        <path id="Trazado_832652" data-name="Trazado 832652" d="M289.247,305.494l-12.116.536-4.738.21.141,3.179,16.855-.746Z" transform="translate(-119.626 -134.161)" fill="#ff3a8d" fill-rule="evenodd"/>
      </g>
    </g>
  </g>
</svg>
