<svg xmlns="http://www.w3.org/2000/svg" xmlns:xlink="http://www.w3.org/1999/xlink" width="124" height="124" viewBox="0 0 124 124">
  <defs>
    <clipPath id="clip-path">
      <rect id="Rect치ngulo_379318" data-name="Rect치ngulo 379318" width="97.051" height="72.006" fill="none"/>
    </clipPath>
  </defs>
  <g id="Grupo_1081173" data-name="Grupo 1081173" transform="translate(-581.001 -1875.14)">
    <g id="Grupo_1016928" data-name="Grupo 1016928" transform="translate(-156 -182.86)">
      <g id="Grupo_159183" data-name="Grupo 159183" transform="translate(737.001 2058)">
        <path id="Uni칩n_12" data-name="Uni칩n 12" d="M62,0A62,62,0,1,1,0,62,62,62,0,0,1,62,0Z" fill="#755952"/>
      </g>
    </g>
    <g id="Grupo_1080486" data-name="Grupo 1080486" transform="translate(595 1901.137)">
      <g id="Grupo_1080485" data-name="Grupo 1080485" clip-path="url(#clip-path)">
        <path id="Trazado_831914" data-name="Trazado 831914" d="M18.529,32.5c-2.729-4.564-2.493-8.7.689-11.777a4.652,4.652,0,0,1,2.138-1.489c3.652-.477,5.821-3.414,8.77-5.03C27.36,9.452,27.783,5.055,31.3,2.077a8.525,8.525,0,0,1,11.112,0c3.521,3.027,3.944,7.379,1.139,12.191a11.884,11.884,0,0,1,4.309,3.261c.425.568.724.77,1.244.062a11.617,11.617,0,0,1,4.392-3.334C51.9,11.895,51.056,9.41,51.833,6.575A8.3,8.3,0,0,1,58.759.151a8.011,8.011,0,0,1,8.285,3.4,8.121,8.121,0,0,1,.583,9.251c-.681,1.223-.484,1.484.583,2.293a31.75,31.75,0,0,0,7.5,4.227c4.336,1.742,6.541,7.907,2.753,13.118a12.578,12.578,0,0,1,4.544,3.547,1.372,1.372,0,0,0,1.167.485c6.226.482,10.538,7.881,5.922,14.219,3.712,1.769,6.317,4.58,6.738,8.711a98.662,98.662,0,0,1,.131,10.783,1.777,1.777,0,0,1-1.836,1.792c-.5.045-1.01.016-1.515.016H3.458C.3,72,0,71.695,0,68.557q0-3.6,0-7.2A10.808,10.808,0,0,1,5.875,51.294c.88-.489.944-.725.424-1.609A8.526,8.526,0,0,1,12.2,36.62a3.873,3.873,0,0,0,2.5-1.419,10.668,10.668,0,0,1,3.835-2.7M60.3,40.3c-3.077.2-5.062,2.2-4.967,4.982.1,2.809,2.256,4.7,5.282,4.63,2.9-.618,4.419-2.407,4.3-5.047C64.8,42.345,63.162,40.721,60.3,40.3m-46.6,0c-3.075.2-5.061,2.2-4.967,4.981.095,2.807,2.258,4.7,5.282,4.631,2.9-.618,4.419-2.407,4.3-5.047C18.2,42.345,16.557,40.721,13.7,40.3m46.6-26.82c2.93-.423,4.593-2.132,4.62-4.747.026-2.558-1.518-4.3-4.309-4.847C57.6,3.806,55.434,5.7,55.338,8.508,55.243,11.3,57.2,13.257,60.3,13.477M48.878,22.091c-2.991,0-5.14,1.939-5.209,4.707-.07,2.8,2.138,4.88,5.2,4.894,2.808-.544,4.517-2.419,4.456-4.892-.06-2.449-1.7-4.182-4.452-4.709M37.223,13.436c2.755-.456,4.417-2.224,4.44-4.723.024-2.576-1.678-4.4-4.525-4.847-3.049.044-5.089,2-5.067,4.848s2.109,4.755,5.152,4.722m-11.831,8.64c-2.994.143-4.926,1.979-4.967,4.721-.043,2.849,1.851,4.724,4.963,4.914,3-.477,4.622-2.214,4.584-4.91-.037-2.584-1.692-4.292-4.58-4.726m46.6,0C69,22.22,67.071,24.056,67.03,26.8c-.043,2.849,1.851,4.724,4.963,4.914,3-.476,4.622-2.214,4.584-4.91-.037-2.584-1.692-4.292-4.58-4.726m11.74,18.232c-3.055.093-5.059,2-5.058,4.81s2.017,4.734,5.062,4.812c2.864-.5,4.527-2.266,4.528-4.814s-1.661-4.3-4.531-4.807m-46.6,0c-3.056.093-5.06,2-5.058,4.81s2.017,4.734,5.062,4.812c2.864-.5,4.527-2.266,4.528-4.814s-1.661-4.3-4.531-4.807M71.179,53.826c.239.391.423,1.143,1.013.418a13.339,13.339,0,0,1,4.59-3.512c-2.694-4.526-2.423-8.634.586-11.74.539-.556,1.84-.819,1.446-1.78-.3-.728-1.374-1.011-2.222-1.3a4.749,4.749,0,0,0-2.221-.281c-3.378.1-6.981-.927-10,1.879A9.008,9.008,0,0,1,68.6,43.68a9.19,9.19,0,0,1-1.88,7.1,13.762,13.762,0,0,1,4.455,3.043M50.761,35.641c-2.8.035-5.657-.606-8.321.808-1.068.567-1.557.928-.214,2A8.324,8.324,0,0,1,45.2,47.205c-.272,1.338-1.951,2.6-1.282,3.566.715,1.031,2.3,1.616,3.438,2.5.6,1.239,1.2,1.608,2.191.247a7.755,7.755,0,0,1,2.963-2.276c.679-.329.913-.56.5-1.378-2.466-4.894-1.9-8.076,2.065-11.722.67-.615.679-.911-.05-1.376a6.311,6.311,0,0,0-4.267-1.129m8.062-.672c.76,1.236,1.492,1.649,2.534.18a7.407,7.407,0,0,1,3-2.23c.69-.326.655-.634.317-1.27-2.484-4.686-1.879-8.128,2.1-11.728.676-.613.687-.889-.042-1.361a6.491,6.491,0,0,0-4.459-1.136c-2.857.028-5.785-.64-8.473.972-.921.552-1.11.882-.114,1.663a8.178,8.178,0,0,1,3.13,8.862c-.3,1.269-1.606,2.817-1.205,3.6.513,1.007,2.225,1.46,3.216,2.445M38.818,17.427c-3.186.012-6.531-.8-9.384,1.834a9.246,9.246,0,0,1,4.22,6.038A8.95,8.95,0,0,1,31.8,32.486,18.494,18.494,0,0,1,35.59,34.9c.756,1.544,1.5,1.628,2.572.179a6.787,6.787,0,0,1,2.358-1.841c1.051-.536,1.27-.891.585-2.032A8.6,8.6,0,0,1,42.4,20.759c.533-.555,1.881-.783,1.43-1.783-.364-.806-1.492-1.087-2.4-1.359a5.752,5.752,0,0,0-2.608-.19M23.821,53l1.331,1.673A13.517,13.517,0,0,1,29.4,51.165c.695-.311.659-.624.317-1.281-2.468-4.744-1.846-8.224,2.119-11.741.685-.608.691-.875-.033-1.346a7.02,7.02,0,0,0-4.833-1.168c-1.254-.021-2.509-.022-3.762-.07a7.538,7.538,0,0,0-4.636,1.24c-.684.459-.754.707-.039,1.326,4.188,3.629,4.72,7.686,1.734,12.49L23.821,53M81.057,68.145c3.657.02,7.316-.015,10.97.09,1.316.038,1.252-.685,1.178-1.532-.067-.777.43-1.881-1.13-1.8-1.446.077-2.9,0-4.351.016-1.233.009-2.16-.438-2.213-1.778-.057-1.452.927-1.967,2.214-2a37.206,37.206,0,0,1,3.972.008c1.512.122,1.651-.515,1.329-1.773-.993-3.875-3.91-5.727-8.869-5.536-.945-.017-1.89-.053-2.834-.047-4.518.031-7.46,2.856-7.61,7.361-.065,1.952.018,3.909-.031,5.862-.022.857.173,1.252,1.139,1.212,2.077-.086,4.158-.062,6.237-.083m-70,.008c3.6.017,7.192-.016,10.785.078,1.218.032,1.511-.409,1.452-1.523-.08-1.51-.016-3.027-.02-4.541-.016-5.887-2.933-8.616-8.879-8.31-1.2-.021-2.394-.086-3.588-.054a7.244,7.244,0,0,0-6.875,5.7c-.268,1.151-.169,1.692,1.276,1.678,1.924-.019,3.913-.464,5.78.427A2.285,2.285,0,0,1,11,64.486c-2.006.854-4.112.342-6.169.4-1.614.048-.937,1.16-1.019,1.882-.079.693-.3,1.532,1,1.465,2.078-.107,4.163-.062,6.245-.081m23.395-.01c2.14.02,4.281.1,6.42.043,1.866-.046,4.349.821,5.418-.352.923-1.013.3-3.46.308-5.273.015-6.289-2.768-8.96-9.043-8.719-.945-.018-1.89-.056-2.834-.05-4.52.031-7.462,2.853-7.613,7.36-.065,1.952.018,3.909-.031,5.862-.021.856.17,1.253,1.139,1.213,2.076-.086,4.158-.063,6.237-.084M61,53.861c-1.254-.019-2.511-.1-3.762-.047a7.13,7.13,0,0,0-6.809,6.764c-.1,2.193.011,4.395-.046,6.591-.022.836.245,1.079,1.064,1.051,2.069-.069,4.141-.055,6.212-.074,2.134.019,4.27.08,6.4.044,1.873-.032,4.358.8,5.456-.3,1.181-1.187.348-3.682.359-5.6.032-5.981-2.922-8.754-8.876-8.426" transform="translate(0 0)" fill="#040404"/>
        <path id="Trazado_831915" data-name="Trazado 831915" d="M155.37,142.023c5.954-.328,8.908,2.445,8.876,8.426-.011,1.921.823,4.417-.359,5.6-1.1,1.1-3.583.267-5.456.3-2.133.036-4.269-.025-6.4-.044,0-1.757.074-3.517-.012-5.269a10.951,10.951,0,0,1,3.354-9.016" transform="translate(-94.371 -88.163)" fill="#fdbc51"/>
        <path id="Trazado_831916" data-name="Trazado 831916" d="M93.864,141.992c6.276-.242,9.058,2.43,9.043,8.719,0,1.813.615,4.261-.308,5.273-1.069,1.173-3.551.306-5.418.352-2.139.053-4.28-.023-6.42-.043.005-1.31.095-2.625,0-3.928-.282-3.864.232-7.464,3.1-10.374" transform="translate(-56.309 -88.15)" fill="#76c7d5"/>
        <path id="Trazado_831917" data-name="Trazado 831917" d="M28.993,152.646a2.285,2.285,0,0,0-.013-2.878,10.88,10.88,0,0,1,3.408-7.75c5.946-.307,8.864,2.422,8.879,8.31,0,1.514-.06,3.031.02,4.541.059,1.114-.234,1.555-1.452,1.523-3.593-.095-7.19-.061-10.786-.078q-.029-1.833-.057-3.668m6.056-1.316a1.836,1.836,0,0,0-1.866-1.971,1.724,1.724,0,0,0-1.922,1.848,1.672,1.672,0,0,0,1.726,1.833,1.809,1.809,0,0,0,2.062-1.71" transform="translate(-17.993 -88.161)" fill="#ee3e7b"/>
        <path id="Trazado_831918" data-name="Trazado 831918" d="M216.9,141.986c4.959-.191,7.876,1.661,8.868,5.536.322,1.258.183,1.895-1.329,1.773a37.108,37.108,0,0,0-3.972-.008c-1.287.035-2.271.55-2.214,2,.052,1.339.98,1.787,2.213,1.778,1.451-.011,2.9.061,4.351-.016,1.56-.083,1.063,1.021,1.13,1.8.074.847.138,1.57-1.178,1.532-3.655-.1-7.313-.07-10.97-.09q.008-1.646.015-3.292c1.367.146,2.614-.071,2.646-1.747.032-1.629-1.127-2.017-2.54-1.894-.431-3.033,1.315-5.186,2.98-7.373" transform="translate(-132.744 -88.148)" fill="#b9ce75"/>
        <path id="Trazado_831919" data-name="Trazado 831919" d="M81.895,141.933c-2.871,2.909-3.386,6.51-3.1,10.374.1,1.3.006,2.618,0,3.928-2.079.021-4.161,0-6.237.084-.968.041-1.16-.357-1.138-1.213.049-1.953-.034-3.91.031-5.862.151-4.506,3.093-7.329,7.613-7.36.945-.006,1.89.032,2.834.05" transform="translate(-44.34 -88.092)" fill="#f2f4f5"/>
        <path id="Trazado_831920" data-name="Trazado 831920" d="M201.734,152.944q-.007,1.646-.015,3.292c-2.079.021-4.16,0-6.237.083-.967.04-1.161-.355-1.139-1.212.05-1.953-.034-3.91.031-5.862.15-4.506,3.092-7.33,7.61-7.361.945-.007,1.89.03,2.835.047-1.664,2.186-3.41,4.34-2.979,7.372-1.651,1.508-1.667,2.055-.107,3.641" transform="translate(-120.662 -88.092)" fill="#f2f4f5"/>
        <path id="Trazado_831921" data-name="Trazado 831921" d="M143.5,141.962a10.951,10.951,0,0,0-3.354,9.016c.086,1.752.013,3.513.012,5.269-2.07.019-4.142.005-6.212.074-.82.027-1.086-.216-1.064-1.051.058-2.2-.052-4.4.046-6.591a7.13,7.13,0,0,1,6.809-6.764c1.251-.05,2.508.028,3.762.047" transform="translate(-82.506 -88.101)" fill="#f7f9fa"/>
        <path id="Trazado_831922" data-name="Trazado 831922" d="M65.894,93.884a7.021,7.021,0,0,1,4.833,1.168c.724.471.718.739.033,1.346-3.965,3.516-4.587,7-2.119,11.741.342.657.378.971-.317,1.281a13.521,13.521,0,0,0-4.244,3.513l-1.331-1.673c.006-2.7.152-5.4-.016-8.092a11.485,11.485,0,0,1,3.159-9.284" transform="translate(-38.929 -58.256)" fill="#54c98c"/>
        <path id="Trazado_831923" data-name="Trazado 831923" d="M97.1,45.847a5.759,5.759,0,0,1,2.608.19c.911.273,2.039.553,2.4,1.36.451,1-.9,1.228-1.43,1.783A8.6,8.6,0,0,0,99.39,59.623c.685,1.142.466,1.5-.585,2.032A6.791,6.791,0,0,0,96.448,63.5c-1.074,1.449-1.816,1.366-2.572-.179.019-2.773.168-5.553.023-8.317a11.749,11.749,0,0,1,3.2-9.154" transform="translate(-58.285 -28.421)" fill="#fa906c"/>
        <path id="Trazado_831924" data-name="Trazado 831924" d="M158.6,45.876a6.491,6.491,0,0,1,4.459,1.136c.729.472.718.748.042,1.361-3.975,3.6-4.579,7.043-2.1,11.728.337.636.373.944-.317,1.27a7.41,7.41,0,0,0-3,2.23c-1.041,1.469-1.774,1.056-2.534-.18.619-2.857.305-5.756.217-8.619a11.365,11.365,0,0,1,3.229-8.926" transform="translate(-96.333 -28.453)" fill="#bd2d64"/>
        <path id="Trazado_831925" data-name="Trazado 831925" d="M128.319,93.938a6.311,6.311,0,0,1,4.267,1.129c.728.464.72.761.05,1.376-3.968,3.646-4.531,6.828-2.065,11.722.412.818.179,1.048-.5,1.378a7.759,7.759,0,0,0-2.964,2.276c-.991,1.361-1.592.991-2.191-.247.041-2.811.186-5.625.1-8.432-.114-3.54.691-6.678,3.307-9.2" transform="translate(-77.557 -58.298)" fill="#876f69"/>
        <path id="Trazado_831926" data-name="Trazado 831926" d="M190.915,93.929a4.749,4.749,0,0,1,2.221.281c.848.285,1.924.568,2.222,1.3.394.961-.907,1.224-1.446,1.78-3.009,3.105-3.281,7.213-.586,11.74a13.335,13.335,0,0,0-4.59,3.512c-.591.725-.775-.027-1.013-.418.017-2.958.185-5.924.014-8.871a11.666,11.666,0,0,1,3.178-9.321" transform="translate(-116.543 -58.295)" fill="#4abdd2"/>
        <path id="Trazado_831927" data-name="Trazado 831927" d="M179.788,93.822a11.666,11.666,0,0,0-3.178,9.321c.171,2.947,0,5.913-.014,8.871a13.779,13.779,0,0,0-4.456-3.043,9.189,9.189,0,0,0,1.88-7.1,9.01,9.01,0,0,0-4.235-6.166c3.022-2.806,6.625-1.777,10-1.879" transform="translate(-105.416 -58.188)" fill="#f1f3f3"/>
        <path id="Trazado_831928" data-name="Trazado 831928" d="M118.579,93.819c-2.617,2.524-3.422,5.662-3.307,9.2.091,2.807-.055,5.621-.1,8.432-1.134-.888-2.722-1.474-3.437-2.5-.668-.963,1.01-2.228,1.282-3.566a8.323,8.323,0,0,0-2.977-8.753c-1.342-1.075-.854-1.435.215-2,2.663-1.415,5.524-.774,8.321-.808" transform="translate(-67.817 -58.178)" fill="#f2f4f5"/>
        <path id="Trazado_831929" data-name="Trazado 831929" d="M149.094,45.77a11.365,11.365,0,0,0-3.229,8.926c.088,2.863.4,5.762-.217,8.619-.99-.985-2.7-1.437-3.215-2.445-.4-.786.906-2.334,1.2-3.6a8.177,8.177,0,0,0-3.13-8.863c-1-.78-.807-1.11.114-1.662,2.688-1.612,5.616-.944,8.473-.972" transform="translate(-86.824 -28.347)" fill="#f1f3f3"/>
        <path id="Trazado_831930" data-name="Trazado 831930" d="M87.021,45.788a11.749,11.749,0,0,0-3.2,9.154c.145,2.764,0,5.544-.023,8.317a18.491,18.491,0,0,0-3.786-2.412,8.952,8.952,0,0,0,1.85-7.187,9.246,9.246,0,0,0-4.22-6.038c2.853-2.631,6.2-1.822,9.384-1.834" transform="translate(-48.203 -28.362)" fill="#f3f5f6"/>
        <path id="Trazado_831931" data-name="Trazado 831931" d="M56.477,93.85a11.485,11.485,0,0,0-3.159,9.284c.168,2.687.023,5.394.016,8.092l-3.561-2.388c2.986-4.8,2.453-8.861-1.734-12.49-.715-.62-.644-.867.04-1.326a7.534,7.534,0,0,1,4.636-1.24c1.253.048,2.508.048,3.762.07" transform="translate(-29.513 -58.221)" fill="#edf2f1"/>
        <path id="Trazado_831932" data-name="Trazado 831932" d="M20.641,141.953a10.881,10.881,0,0,0-3.408,7.75c-1.867-.891-3.856-.445-5.78-.426-1.445.014-1.544-.528-1.275-1.678a7.243,7.243,0,0,1,6.874-5.7c1.195-.033,2.392.033,3.588.054" transform="translate(-6.246 -88.096)" fill="#f3f5f6"/>
        <path id="Trazado_831933" data-name="Trazado 831933" d="M95.349,106.319c2.87.5,4.532,2.266,4.531,4.807s-1.664,4.316-4.528,4.814c-.434-1.53-1.5-2.776-1.581-4.516-.1-1.98,1.078-3.4,1.578-5.1" transform="translate(-58.217 -66.011)" fill="#ebd7c5"/>
        <path id="Trazado_831934" data-name="Trazado 831934" d="M218.277,106.319c2.87.5,4.531,2.266,4.531,4.807s-1.664,4.316-4.528,4.814c-.434-1.53-1.5-2.776-1.581-4.516-.1-1.98,1.078-3.4,1.578-5.1" transform="translate(-134.54 -66.011)" fill="#ebd7c5"/>
        <path id="Trazado_831935" data-name="Trazado 831935" d="M187.4,58.228c2.888.434,4.543,2.142,4.58,4.726.038,2.7-1.584,4.433-4.584,4.91a2.285,2.285,0,0,0-.485-1.367,6.256,6.256,0,0,1-.308-6.391c.294-.612.533-1.25.8-1.877" transform="translate(-115.405 -36.152)" fill="#ebd7c5"/>
        <path id="Trazado_831936" data-name="Trazado 831936" d="M64.476,58.228c2.888.434,4.543,2.142,4.58,4.726.038,2.7-1.584,4.433-4.584,4.91a2.285,2.285,0,0,0-.485-1.367,6.255,6.255,0,0,1-.308-6.391c.294-.612.533-1.25.8-1.877" transform="translate(-39.083 -36.152)" fill="#ebd7c5"/>
        <path id="Trazado_831937" data-name="Trazado 831937" d="M95.5,10.2c2.847.449,4.549,2.271,4.525,4.847-.023,2.5-1.685,4.268-4.44,4.723A8.2,8.2,0,0,1,95.5,10.2" transform="translate(-58.363 -6.33)" fill="#ebd7c5"/>
        <path id="Trazado_831938" data-name="Trazado 831938" d="M126.366,58.267c2.754.528,4.393,2.26,4.452,4.709.06,2.473-1.648,4.348-4.457,4.892a8.167,8.167,0,0,1,0-9.6" transform="translate(-77.488 -36.177)" fill="#ebd7c5"/>
        <path id="Trazado_831939" data-name="Trazado 831939" d="M157.156,10.239c2.791.551,4.335,2.289,4.309,4.847-.027,2.616-1.69,4.324-4.62,4.747-1.665-3.256-2.05-6.47.312-9.594" transform="translate(-96.54 -6.357)" fill="#ebd7c5"/>
        <path id="Trazado_831940" data-name="Trazado 831940" d="M33.889,106.29c2.858.423,4.5,2.048,4.614,4.565.12,2.639-1.4,4.428-4.3,5.047-2-2.937-2.329-5.945-.4-9.06a1.518,1.518,0,0,0,.088-.552" transform="translate(-20.19 -65.993)" fill="#ebd7c5"/>
        <path id="Trazado_831941" data-name="Trazado 831941" d="M156.816,106.29c2.858.423,4.5,2.048,4.614,4.565.12,2.639-1.4,4.428-4.3,5.047-2-2.937-2.329-5.945-.4-9.06a1.517,1.517,0,0,0,.088-.552" transform="translate(-96.512 -65.993)" fill="#ebd7c5"/>
        <path id="Trazado_831942" data-name="Trazado 831942" d="M28,106.29a1.518,1.518,0,0,1-.088.552c-1.925,3.115-1.6,6.123.4,9.06-3.024.072-5.187-1.824-5.282-4.631-.094-2.785,1.891-4.776,4.966-4.981" transform="translate(-14.297 -65.993)" fill="#f1f3f3"/>
        <path id="Trazado_831943" data-name="Trazado 831943" d="M150.923,106.29a1.518,1.518,0,0,1-.088.552c-1.925,3.115-1.6,6.123.4,9.06-3.027.072-5.187-1.821-5.282-4.631-.095-2.785,1.89-4.777,4.967-4.981" transform="translate(-90.618 -65.993)" fill="#f1f3f3"/>
        <path id="Trazado_831944" data-name="Trazado 831944" d="M120.39,58.267a8.167,8.167,0,0,0,0,9.6c-3.067-.015-5.275-2.091-5.2-4.894.069-2.768,2.219-4.709,5.209-4.707" transform="translate(-71.512 -36.177)" fill="#f2f4f5"/>
        <path id="Trazado_831945" data-name="Trazado 831945" d="M151.237,10.235c-2.361,3.125-1.976,6.339-.312,9.594-3.1-.22-5.06-2.18-4.965-4.969.1-2.8,2.26-4.7,5.277-4.625" transform="translate(-90.621 -6.353)" fill="#f1f3f3"/>
        <path id="Trazado_831946" data-name="Trazado 831946" d="M89.658,106.319c-.5,1.7-1.674,3.125-1.578,5.1.085,1.74,1.146,2.986,1.581,4.516-3.045-.078-5.06-1.993-5.061-4.811s2-4.717,5.058-4.81" transform="translate(-52.526 -66.011)" fill="#f3f5f6"/>
        <path id="Trazado_831947" data-name="Trazado 831947" d="M212.586,106.319c-.5,1.7-1.675,3.125-1.578,5.1.085,1.74,1.147,2.986,1.581,4.516-3.045-.078-5.06-1.993-5.062-4.811s2-4.717,5.059-4.81" transform="translate(-128.849 -66.011)" fill="#f3f5f6"/>
        <path id="Trazado_831948" data-name="Trazado 831948" d="M181.768,58.228c-.264.626-.5,1.265-.8,1.877a6.256,6.256,0,0,0,.308,6.391,2.285,2.285,0,0,1,.485,1.367c-3.112-.19-5.007-2.065-4.963-4.914.042-2.742,1.974-4.578,4.968-4.722" transform="translate(-109.771 -36.152)" fill="#f3f5f6"/>
        <path id="Trazado_831949" data-name="Trazado 831949" d="M58.842,58.228c-.264.626-.5,1.265-.8,1.877a6.255,6.255,0,0,0,.308,6.391,2.285,2.285,0,0,1,.485,1.367c-3.112-.19-5.007-2.065-4.963-4.914.041-2.742,1.973-4.578,4.967-4.722" transform="translate(-33.449 -36.152)" fill="#f3f5f6"/>
        <path id="Trazado_831950" data-name="Trazado 831950" d="M89.66,10.2a8.2,8.2,0,0,0,.085,9.57c-3.042.033-5.129-1.879-5.152-4.722s2.018-4.8,5.067-4.849" transform="translate(-52.522 -6.33)" fill="#f2f4f5"/>
        <path id="Trazado_831951" data-name="Trazado 831951" d="M17.121,170.09q.028,1.834.057,3.668c-2.081.019-4.167-.027-6.245.08-1.3.067-1.08-.771-1-1.465.082-.721-.595-1.834,1.019-1.882,2.057-.061,4.163.452,6.169-.4" transform="translate(-6.122 -105.605)" fill="#edf2f1"/>
        <path id="Trazado_831952" data-name="Trazado 831952" d="M38.784,163.39a1.809,1.809,0,0,1-2.062,1.71A1.672,1.672,0,0,1,35,163.267a1.724,1.724,0,0,1,1.922-1.848,1.836,1.836,0,0,1,1.866,1.971" transform="translate(-21.728 -100.221)" fill="#040404"/>
        <path id="Trazado_831953" data-name="Trazado 831953" d="M211.955,165.061c-1.561-1.586-1.545-2.133.107-3.641,1.413-.122,2.572.266,2.54,1.895-.033,1.675-1.279,1.892-2.646,1.746" transform="translate(-130.883 -100.209)" fill="#040404"/>
      </g>
    </g>
  </g>
</svg>
