<svg xmlns="http://www.w3.org/2000/svg" xmlns:xlink="http://www.w3.org/1999/xlink" width="124" height="124" viewBox="0 0 124 124">
  <defs>
    <clipPath id="clip-path">
      <rect id="Rect치ngulo_379319" data-name="Rect치ngulo 379319" width="88.001" height="105.838" fill="none"/>
    </clipPath>
  </defs>
  <g id="Grupo_1081174" data-name="Grupo 1081174" transform="translate(-896.001 -1875.14)">
    <g id="Grupo_1016929" data-name="Grupo 1016929" transform="translate(159 -182.86)">
      <g id="Grupo_159183" data-name="Grupo 159183" transform="translate(737.001 2058)">
        <path id="Uni칩n_12" data-name="Uni칩n 12" d="M62,0A62,62,0,1,1,0,62,62,62,0,0,1,62,0Z" fill="#755952"/>
      </g>
    </g>
    <g id="Grupo_1080488" data-name="Grupo 1080488" transform="translate(913.5 1885.047)">
      <g id="Grupo_1080487" data-name="Grupo 1080487" clip-path="url(#clip-path)">
        <path id="Trazado_831954" data-name="Trazado 831954" d="M40.643,104.2c-.391.908-.8,1.89-2.045,1.575-1.3-.327-1.256-1.438-1.255-2.5.01-8.267-.034-16.535.044-24.8.013-1.418-.412-1.935-1.751-2.391-9.663-3.3-15.776-9.944-18.209-19.88-.309-1.264-.748-1.755-2.137-1.719-4.268.109-8.541,0-12.812.057C.738,54.559-.163,53.9.05,52.1c.172-1.454-.734-3.291,1.381-4.093A1.961,1.961,0,0,1,3.1,50.217c-.091,1.906,1.42.919,2.235,1.1.9.2,1.563.013,1.507-1.23-.092-2.058-.038-4.124-.017-6.186.011-1.1.466-1.938,1.685-1.877,1.089.055,1.478.861,1.481,1.873q.006,2.372,0,4.744c0,2.811,0,2.811,2.9,2.612.546.03,1.1.016,1.635.1,1.594.244,2.254-.18,2.221-2.018a22.36,22.36,0,0,1,1.827-8.992c.646-1.553,1.4-3.062,2.124-4.644H16.266c-2.194-.027-4.389-.073-6.583-.076-4.519-.006-6.411,1.759-6.577,6.238-.045,1.208-.385,1.987-1.66,2.148C.416,43.753.082,43.078.025,42.043c-.3-5.434,2.721-8.806,8.83-9.619C7.928,30.49,7,28.571,7.33,26.362A8.415,8.415,0,0,1,13.5,19.114c.561-.183,1.182-.089,1.554-.8,1.649-3.143,4.391-4.57,7.888-4.7C20.593,8.121,21.2,4.361,24.791,1.674a8.374,8.374,0,0,1,10.485.352c3.3,2.815,3.788,6.805,1.316,11.556A9.091,9.091,0,0,1,43.32,16.51c.525.607.823.465,1.281-.049a8.907,8.907,0,0,1,6.623-2.854c-2.382-5.223-1.786-9.2,1.752-11.883a8.371,8.371,0,0,1,10.487.25c3.284,2.773,3.817,6.764,1.431,11.578,3.591.254,6.439,1.695,8.08,5,.172.348.542.354.867.465,6.385,2.181,8.339,6.927,5.332,12.906a2.135,2.135,0,0,0-.066.544A10.539,10.539,0,0,1,83.9,33.809a8.887,8.887,0,0,1,3.928,8.726,1.782,1.782,0,0,1-1.478,1.491c-1.569-.27-1.549-1.425-1.577-2.658-.071-3.054-1.7-5.416-4.431-5.584-4.334-.267-8.7-.071-13.264-.071A32.052,32.052,0,0,1,71.04,46.941c.218,1.44-.743,3.508.869,4.235,1.32.595,3.113.1,4.692.174.989.046,1.324-.31,1.293-1.295-.06-1.925,0-3.853-.021-5.779-.01-1.122.175-2.214,1.524-2.248,1.494-.038,1.671,1.132,1.666,2.321-.007,1.789.029,3.579-.013,5.367-.023.994.012,1.854,1.366,1.614.965-.171,2.583.714,2.383-1.424-.106-1.133.683-1.544,1.542-1.894,1.378.826,2.044,3.209,1.434,5.246-.465,1.551-1.784,1.251-2.916,1.256-4.133.019-8.268.048-12.4-.019-1.131-.019-1.657.216-1.944,1.429-2.429,10.3-8.775,17.049-18.778,20.355a1.464,1.464,0,0,0-1.225,1.7c.042,3.652-.007,7.3.031,10.955.012,1.225-.226,2.19-1.588,2.493-2.191-.6-1.584-2.42-1.609-3.887-.061-3.437-.02-3.438-3.383-3.27-.685-.032-1.371-.049-2.055-.1-.916-.068-1.391.227-1.381,1.259.062,6.256.084,12.513.119,18.769m3.25-23.237c.815.024,1.63.062,2.446.067.385,0,.774.062,1-.446.787-1.753-.173-3.308-2.037-3.226-.474.021-.946.085-1.419.129-.81-.053-1.62-.107-2.43-.157-.334-.021-.822-.073-.852.31a8.745,8.745,0,0,0,.043,3.021c.213.738,1.195.269,1.829.343a9.3,9.3,0,0,0,1.417-.041M26.557,12.447c2.363,1.716,4.959,1.644,6.9-.192s2.159-4.451.574-6.871c-2.158-2.666-5.526-3.012-7.842-.806-2.358,2.246-2.2,5.529.369,7.869m-6.6,12a4.587,4.587,0,0,0-4.966-2.458,5.172,5.172,0,0,0-4.446,4.027,4.847,4.847,0,0,0,2.222,5.5c2.421,1.51,4.858,1.3,6.7-.592a4.881,4.881,0,0,0,.486-6.482m43.8,1.593a9.483,9.483,0,0,1,4.019-5.979c.572-.36,1.742-.319,1.6-1.2-.121-.772-1.076-1.158-1.815-1.543a4.653,4.653,0,0,0-2.19-.46q-7.3-.017-14.6,0a4.513,4.513,0,0,0-4.04,2,6.227,6.227,0,0,0-.71.977c-1.063,2.271-.644,3.005,1.8,3.394A27.437,27.437,0,0,1,63.16,30.925c.487.48.778,1.321,2.088,1.233a10.921,10.921,0,0,1-1.491-6.114M41.492,19.416a4.358,4.358,0,0,0-4.138-2.53c-5.005-.05-10.012-.019-15.017-.016a4.939,4.939,0,0,0-3.508,1.476c-.457.438-.7.81.156,1.175,2.889,1.228,4.392,3.585,5.135,6.524A11.139,11.139,0,0,1,22.43,32.5c1.127.043,1.425-.687,1.877-1.147a26.606,26.606,0,0,1,16.685-8.169c1.283-.131,1.463-.686,1.323-1.721a3.147,3.147,0,0,0-.822-2.044M65.841,40.523c-2.9-8.01-11.931-14.207-21.06-14.444A24.051,24.051,0,0,0,20.063,53.326c1.205,9.036,6.163,15.555,14.779,19.034a12.047,12.047,0,0,0,1.449.716,23.9,23.9,0,0,0,27.136-8.753c5.175-7.427,6.177-15.4,2.413-23.8M58.173,3.15A5.3,5.3,0,0,0,52.76,8.23a5.291,5.291,0,1,0,5.413-5.08M77.415,27.263a5.225,5.225,0,1,0-5.22,5.263,5.242,5.242,0,0,0,5.22-5.263" transform="translate(0 0)" fill="#070706"/>
        <path id="Trazado_831955" data-name="Trazado 831955" d="M181.4,98.522c-.86.35-1.649.761-1.542,1.894.2,2.137-1.417,1.253-2.382,1.424-1.354.24-1.389-.62-1.366-1.614.041-1.788.005-3.577.013-5.366,0-1.189-.172-2.359-1.666-2.321-1.349.034-1.534,1.126-1.524,2.248.017,1.926-.038,3.854.021,5.779.031.984-.3,1.341-1.293,1.295-1.579-.073-3.372.421-4.692-.174-1.611-.727-.651-2.8-.869-4.235a32.054,32.054,0,0,0-3.961-11.228c4.567,0,8.93-.2,13.264.071,2.733.168,4.36,2.53,4.431,5.584.029,1.232.008,2.388,1.577,2.658q-.006,1.994-.01,3.986" transform="translate(-95.056 -50.51)" fill="#01efa4"/>
        <path id="Trazado_831956" data-name="Trazado 831956" d="M14.924,101.725c-2.9.2-2.9.2-2.9-2.612,0-1.581,0-3.162,0-4.744,0-1.012-.392-1.818-1.481-1.873-1.219-.061-1.674.78-1.685,1.877-.021,2.062-.076,4.128.017,6.186.056,1.243-.609,1.427-1.508,1.23-.814-.179-2.326.808-2.234-1.1A1.962,1.962,0,0,0,3.46,98.486q.007-2,.014-4.006c1.276-.16,1.616-.94,1.661-2.147.165-4.479,2.058-6.244,6.577-6.238,2.194,0,4.389.049,6.583.076-2.23,4.945-3.685,10.058-3.371,15.555" transform="translate(-2.029 -50.475)" fill="#60d7f6"/>
        <path id="Trazado_831957" data-name="Trazado 831957" d="M106.229,203.619c3.363-.168,3.322-.167,3.383,3.27.026,1.467-.582,3.282,1.609,3.887q0,2.008,0,4.015c-1.338.283-1.642,1.221-1.64,2.442.005,2.111-.062,4.223-.1,6.334l-3.272-.048q.009-9.95.018-19.9" transform="translate(-62.269 -119.345)" fill="#776b76"/>
        <path id="Trazado_831958" data-name="Trazado 831958" d="M101.386,203.543q-.009,9.95-.018,19.9l-3.3.028c-.035-6.256-.057-12.513-.119-18.768-.01-1.032.465-1.327,1.381-1.259.684.05,1.37.068,2.055.1" transform="translate(-57.426 -119.269)" fill="#8c7e8c"/>
        <path id="Trazado_831959" data-name="Trazado 831959" d="M114.12,239.478c.037-2.112.1-4.223.1-6.335,0-1.221.3-2.159,1.64-2.442a1.941,1.941,0,0,1,1.585,2.271c-.042,1.923-.031,3.847,0,5.77.014,1.026-.091,2-1.256,2.292-1.242.311-1.646-.675-2.064-1.556" transform="translate(-66.906 -135.255)" fill="#070706"/>
        <path id="Trazado_831960" data-name="Trazado 831960" d="M62.963,109.3c-8.616-3.479-13.574-10-14.779-19.034A24.051,24.051,0,0,1,72.9,63.023c9.129.237,18.163,6.434,21.06,14.444a.657.657,0,0,0-.245.72,20.868,20.868,0,0,1,.228,9.773c-.51,2.115-.414,4.513-2.428,6.037a23.527,23.527,0,0,0,.887-9.768A20.545,20.545,0,0,0,53.9,77.5a20.351,20.351,0,0,0,3.371,23.863c6.309,6.346,13.829,7.717,22.226,5.037-.069.881-.791,1.021-1.427,1.235a24.387,24.387,0,0,1-9.362,1.688c-1.909-.117-3.832-.022-5.749-.022" transform="translate(-28.121 -36.944)" fill="#8c7e8c"/>
        <path id="Trazado_831961" data-name="Trazado 831961" d="M112.769,114.477c2.014-1.523,1.918-3.922,2.428-6.036a20.859,20.859,0,0,0-.228-9.774.658.658,0,0,1,.245-.72c3.764,8.4,2.762,16.374-2.413,23.8A23.9,23.9,0,0,1,85.666,130.5a12.147,12.147,0,0,1-1.45-.716c1.917,0,3.839-.1,5.749.022a24.388,24.388,0,0,0,9.362-1.688c.635-.214,1.358-.354,1.426-1.235a22.082,22.082,0,0,0,12.016-12.407" transform="translate(-49.374 -57.424)" fill="#776b76"/>
        <path id="Trazado_831962" data-name="Trazado 831962" d="M50.212,49.933c-.743-2.938-2.245-5.3-5.134-6.524-.858-.364-.614-.736-.156-1.174a4.937,4.937,0,0,1,3.508-1.477c5.006,0,10.012-.034,15.017.016a4.358,4.358,0,0,1,4.138,2.53,20.77,20.77,0,0,0-7.048,1.177,40.868,40.868,0,0,0-10.325,5.451" transform="translate(-26.092 -23.889)" fill="#fb7b42"/>
        <path id="Trazado_831963" data-name="Trazado 831963" d="M112.971,42.738a4.512,4.512,0,0,1,4.04-2q7.3-.025,14.6,0a4.651,4.651,0,0,1,2.19.46c.739.385,1.7.771,1.816,1.543.137.88-1.033.839-1.6,1.2a9.481,9.481,0,0,0-4.019,5.979,36.853,36.853,0,0,0-13.778-6.375c-1.064-.213-2.388.3-3.24-.81" transform="translate(-66.233 -23.879)" fill="#c995e4"/>
        <path id="Trazado_831964" data-name="Trazado 831964" d="M132.933,7.612a5.25,5.25,0,1,1-5.413,5.08,5.256,5.256,0,0,1,5.413-5.08" transform="translate(-74.76 -4.462)" fill="#f2a66a"/>
        <path id="Trazado_831965" data-name="Trazado 831965" d="M172.309,58.36a5.226,5.226,0,1,1-5.145-5.318,5.288,5.288,0,0,1,5.145,5.318" transform="translate(-94.895 -31.096)" fill="#c76c57"/>
        <path id="Trazado_831966" data-name="Trazado 831966" d="M55.9,53.545A40.868,40.868,0,0,1,66.23,48.094a20.77,20.77,0,0,1,7.048-1.177A3.144,3.144,0,0,1,74.1,48.96c.141,1.036-.04,1.59-1.322,1.721A26.6,26.6,0,0,0,56.092,58.85c-.451.46-.749,1.189-1.876,1.147A11.14,11.14,0,0,0,55.9,53.545" transform="translate(-31.786 -27.501)" fill="#f7662f"/>
        <path id="Trazado_831967" data-name="Trazado 831967" d="M111.187,45.585c.852,1.115,2.176.6,3.24.81a36.853,36.853,0,0,1,13.778,6.375,10.921,10.921,0,0,0,1.491,6.114c-1.31.087-1.6-.753-2.088-1.233a27.432,27.432,0,0,0-15.335-7.694c-2.441-.389-2.86-1.122-1.8-3.394a6.227,6.227,0,0,1,.71-.977" transform="translate(-64.448 -26.726)" fill="#b97ddc"/>
        <path id="Trazado_831968" data-name="Trazado 831968" d="M27.525,62.633a4.847,4.847,0,0,1-2.222-5.5A5.172,5.172,0,0,1,29.749,53.1a4.587,4.587,0,0,1,4.966,2.458c-.676,4.412-2.919,6.619-7.19,7.074" transform="translate(-14.757 -31.108)" fill="#facea1"/>
        <path id="Trazado_831969" data-name="Trazado 831969" d="M61.3,16.881c-2.573-2.34-2.727-5.622-.369-7.869,2.316-2.206,5.684-1.86,7.842.806C68.5,14.373,65.9,16.836,61.3,16.881" transform="translate(-34.745 -4.434)" fill="#facea1"/>
        <path id="Trazado_831970" data-name="Trazado 831970" d="M31.109,101.833c-.314-5.5,1.14-10.61,3.371-15.555h4.436c-.728,1.582-1.478,3.091-2.124,4.644a22.36,22.36,0,0,0-1.827,8.992c.033,1.838-.627,2.261-2.221,2.018-.537-.082-1.09-.068-1.635-.1" transform="translate(-18.213 -50.583)" fill="#02ccf6"/>
        <path id="Trazado_831971" data-name="Trazado 831971" d="M64.191,20.077c4.6-.045,7.2-2.508,7.473-7.063,1.585,2.42,1.366,5.034-.575,6.871s-4.536,1.908-6.9.192" transform="translate(-37.634 -7.63)" fill="#f2a66a"/>
        <path id="Trazado_831972" data-name="Trazado 831972" d="M30.862,66.175c4.271-.456,6.514-2.663,7.19-7.074a4.881,4.881,0,0,1-.486,6.482c-1.846,1.887-4.283,2.1-6.7.592" transform="translate(-18.094 -34.65)" fill="#f2a66a"/>
        <path id="Trazado_831973" data-name="Trazado 831973" d="M101.274,190.531a9.3,9.3,0,0,1-1.417.041c-.634-.074-1.616.4-1.829-.343a8.755,8.755,0,0,1-.043-3.021c.03-.383.518-.331.852-.31.81.05,1.62.1,2.43.157q0,1.738.008,3.476" transform="translate(-57.38 -109.565)" fill="#facea1"/>
        <path id="Trazado_831974" data-name="Trazado 831974" d="M106.083,190.587q0-1.738-.008-3.476c.473-.044.945-.108,1.419-.129,1.864-.082,2.824,1.473,2.037,3.226-.228.508-.617.448-1,.446-.815,0-1.63-.043-2.446-.067" transform="translate(-62.19 -109.622)" fill="#f2a66a"/>
        <path id="Trazado_831975" data-name="Trazado 831975" d="M96.5,99A22.082,22.082,0,0,1,84.484,111.4c-8.4,2.68-15.917,1.309-22.226-5.037A20.352,20.352,0,0,1,58.887,82.5a20.545,20.545,0,0,1,38.5,6.726A23.52,23.52,0,0,1,96.5,99m-6.223,4.252c6.063-6.611,5.379-17.486-1.219-23.735a17.43,17.43,0,0,0-24.674.641c-6.032,6.37-6.4,17.308-.577,22.962,0-1.17-.016-2.174,0-3.176a8.039,8.039,0,0,1,5.8-7.887c1.228-.369,1.291-.65.834-1.766A7.069,7.069,0,0,1,72.754,81.8a7.149,7.149,0,0,1,8.636.05,7.059,7.059,0,0,1,2.294,8.318c-.434,1.092-.559,1.508.861,1.916a7.974,7.974,0,0,1,5.728,7.728c.026,1.026,0,2.053,0,3.437M76.99,94.815c-1.786,0-3.576-.073-5.358.018A4.631,4.631,0,0,0,67.1,98.861c-.24,2.244-.129,4.525-.174,6.789-.015.748.548,1.039,1.064,1.385,5.047,3.377,13.127,3.346,18.183-.051a1.756,1.756,0,0,0,1.02-1.622c-.069-1.99.06-3.994-.12-5.971a4.808,4.808,0,0,0-4.93-4.563c-1.715-.064-3.435-.012-5.152-.014m-.1-3.217a4.069,4.069,0,0,0,4.247-3.884,4.094,4.094,0,0,0-8.182-.31A4.063,4.063,0,0,0,76.887,91.6" transform="translate(-33.105 -41.943)" fill="#070706"/>
        <path id="Trazado_831976" data-name="Trazado 831976" d="M94.781,107.736c0-1.384.022-2.412,0-3.437a7.974,7.974,0,0,0-5.728-7.728c-1.42-.408-1.3-.824-.861-1.916a7.058,7.058,0,0,0-2.294-8.317,7.149,7.149,0,0,0-8.637-.05,7.068,7.068,0,0,0-2.306,8.487c.457,1.117.393,1.4-.834,1.767a8.039,8.039,0,0,0-5.8,7.887c-.019,1,0,2.006,0,3.177-5.819-5.654-5.455-16.591.577-22.962A17.431,17.431,0,0,1,93.562,84c6.6,6.249,7.282,17.124,1.218,23.735" transform="translate(-37.609 -46.431)" fill="#e5f1fa"/>
        <path id="Trazado_831977" data-name="Trazado 831977" d="M91.812,127.756c1.718,0,3.437-.051,5.152.013a4.808,4.808,0,0,1,4.93,4.563c.18,1.978.051,3.981.12,5.971a1.756,1.756,0,0,1-1.02,1.622c-5.056,3.4-13.136,3.428-18.183.051-.517-.346-1.079-.637-1.064-1.385.045-2.265-.066-4.546.174-6.789a4.631,4.631,0,0,1,4.533-4.028c1.781-.091,3.572-.018,5.358-.017" transform="translate(-47.927 -74.884)" fill="#fa5592"/>
        <path id="Trazado_831978" data-name="Trazado 831978" d="M100.242,108.511a4.063,4.063,0,0,1-3.935-4.195,4.094,4.094,0,0,1,8.182.31,4.069,4.069,0,0,1-4.247,3.884" transform="translate(-56.461 -58.856)" fill="#facea1"/>
      </g>
    </g>
  </g>
</svg>
