<svg id="Grupo_1081104" data-name="Grupo 1081104" xmlns="http://www.w3.org/2000/svg" xmlns:xlink="http://www.w3.org/1999/xlink" width="341.813" height="224.677" viewBox="0 0 341.813 224.677">
  <defs>
    <clipPath id="clip-path">
      <rect id="Rectángulo_379611" data-name="Rectángulo 379611" width="341.813" height="224.677" fill="none"/>
    </clipPath>
    <clipPath id="clip-path-2">
      <path id="Trazado_833708" data-name="Trazado 833708" d="M170.173,0a61.067,61.067,0,0,0-6.508.364,68.766,68.766,0,0,0-44.082,22.745C108.515,35.721,101.265,50.887,93.334,65.49S76.339,94.666,62.771,104.813c-12.936,9.676-29.779,15.215-39.136,28.1C14,146.184-6.517,195.649,2.042,209.57s40.18,6.152,56.121,11.559c9.052,3.071,20.039.586,30.933-1.9,8.29-1.891,16.527-3.781,23.816-3.224,54.744,4.186,111.242,4.495,162.849-13.426,18.568-6.451,37.416-16.274,46.219-33.151,8.76-16.794,18.739-39.043,9.1-55.4S292.961,86.514,277.27,75.205s-32.259-21.725-45.984-35.161c-9.666-9.465-17.872-20.377-28.735-28.573C193.213,4.44,183.147.009,170.269,0Z" transform="translate(0)" fill="none"/>
    </clipPath>
  </defs>
  <g id="Grupo_1081099" data-name="Grupo 1081099">
    <g id="Grupo_1081098" data-name="Grupo 1081098" clip-path="url(#clip-path)">
      <path id="Trazado_833644" data-name="Trazado 833644" d="M181.131.364a68.765,68.765,0,0,0-44.082,22.745C125.98,35.721,118.73,50.888,110.8,65.49S93.8,94.666,80.236,104.813c-12.936,9.676-29.779,15.215-39.136,28.1-9.637,13.269-8.583,31.926-.025,45.847s23.514,23.46,39.455,28.872,32.98,7.083,49.847,8.377c54.744,4.186,111.242,4.495,162.849-13.426,18.568-6.451,37.416-16.274,46.219-33.151,8.76-16.794,5.5-37.573-4.137-53.925s-24.882-28.989-40.573-40.3S262.477,53.486,248.752,40.05c-9.666-9.465-17.872-20.377-28.735-28.573S197.277-1.381,181.131.364" transform="translate(-17.466 0)" fill="#e4efed"/>
      <path id="Trazado_833645" data-name="Trazado 833645" d="M472.765,316.245a145.687,145.687,0,0,1,21.46-75.694c13.789-22.2,33.739-39.788,58.342-48.788,2.725,27.352-4.073,55.7-18.74,78.116a116.1,116.1,0,0,1-61.062,46.366" transform="translate(-241.023 -97.764)" fill="#70a8c4"/>
      <path id="Trazado_833646" data-name="Trazado 833646" d="M554.876,206.643A409.5,409.5,0,0,0,485.995,319.4" transform="translate(-247.768 -105.35)" fill="none" stroke="#eaf8f9" stroke-linecap="round" stroke-miterlimit="10" stroke-width="1"/>
      <path id="Trazado_833647" data-name="Trazado 833647" d="M595.9,230.032a44.712,44.712,0,0,1-.417-12.759" transform="translate(-303.447 -110.769)" fill="none" stroke="#eaf8f9" stroke-linecap="round" stroke-miterlimit="10" stroke-width="1"/>
      <path id="Trazado_833648" data-name="Trazado 833648" d="M581.165,264.393a81.376,81.376,0,0,0,21.333.373" transform="translate(-296.287 -134.792)" fill="none" stroke="#eaf8f9" stroke-linecap="round" stroke-miterlimit="10" stroke-width="1"/>
      <path id="Trazado_833649" data-name="Trazado 833649" d="M543.6,289.2a82.5,82.5,0,0,1-5.956-20.926" transform="translate(-274.1 -136.77)" fill="none" stroke="#eaf8f9" stroke-linecap="round" stroke-miterlimit="10" stroke-width="1"/>
      <path id="Trazado_833650" data-name="Trazado 833650" d="M536.985,334.173a133.852,133.852,0,0,0,28.945,3.456" transform="translate(-273.764 -170.367)" fill="none" stroke="#eaf8f9" stroke-linecap="round" stroke-miterlimit="10" stroke-width="1"/>
      <path id="Trazado_833651" data-name="Trazado 833651" d="M506.922,353.811a74.161,74.161,0,0,1-7.867-18.568" transform="translate(-254.426 -170.912)" fill="none" stroke="#eaf8f9" stroke-linecap="round" stroke-miterlimit="10" stroke-width="1"/>
      <path id="Trazado_833652" data-name="Trazado 833652" d="M479.055,400.427A84,84,0,0,1,524.5,360.5a78.775,78.775,0,0,1,61.538,3.24c-27.386,26.911-67.68,40.053-106.987,36.69" transform="translate(-244.23 -181.363)" fill="#82ced8"/>
      <path id="Trazado_833653" data-name="Trazado 833653" d="M582.761,375.723a219.31,219.31,0,0,0-93.307,31.793" transform="translate(-249.532 -191.55)" fill="none" stroke="#eaf8f9" stroke-linecap="round" stroke-miterlimit="10" stroke-width="1"/>
      <path id="Trazado_833654" data-name="Trazado 833654" d="M637.445,372.285a46.452,46.452,0,0,1,5.417-9.162" transform="translate(-324.98 -185.126)" fill="none" stroke="#eaf8f9" stroke-linecap="round" stroke-miterlimit="10" stroke-width="1"/>
      <path id="Trazado_833655" data-name="Trazado 833655" d="M620.925,386.183a43.239,43.239,0,0,0,12.353,9.284" transform="translate(-316.558 -196.882)" fill="none" stroke="#eaf8f9" stroke-linecap="round" stroke-miterlimit="10" stroke-width="1"/>
      <path id="Trazado_833656" data-name="Trazado 833656" d="M586.485,379.047a40.536,40.536,0,0,1,3.569-16.024" transform="translate(-299 -185.075)" fill="none" stroke="#eaf8f9" stroke-linecap="round" stroke-miterlimit="10" stroke-width="1"/>
      <path id="Trazado_833657" data-name="Trazado 833657" d="M567.165,402.783a47.552,47.552,0,0,0,10.98,14.7" transform="translate(-289.15 -205.345)" fill="none" stroke="#eaf8f9" stroke-linecap="round" stroke-miterlimit="10" stroke-width="1"/>
      <path id="Trazado_833658" data-name="Trazado 833658" d="M539.513,400.2a45.779,45.779,0,0,1,.245-12.706" transform="translate(-274.885 -197.55)" fill="none" stroke="#eaf8f9" stroke-linecap="round" stroke-miterlimit="10" stroke-width="1"/>
      <path id="Trazado_833659" data-name="Trazado 833659" d="M519.775,423.743a30.305,30.305,0,0,0,12.936,6.75" transform="translate(-264.99 -216.031)" fill="none" stroke="#eaf8f9" stroke-linecap="round" stroke-miterlimit="10" stroke-width="1"/>
      <path id="Trazado_833660" data-name="Trazado 833660" d="M250.591,285.238c1.887-27.362,3.74-55.17-2.363-81.939s-21.387-52.852-47.332-65.116c-10.554,26.945-17.058,56.479-10.647,84.63s28.132,54.342,60.342,62.425" transform="translate(-95.695 -70.448)" fill="#82ced8"/>
      <path id="Trazado_833661" data-name="Trazado 833661" d="M223.615,156.673q7.272,27.411,14.539,54.827c7.171,27.058,14.416,54.307,26.656,79.483" transform="translate(-114.003 -79.874)" fill="none" stroke="#eaf8f9" stroke-linecap="round" stroke-miterlimit="10" stroke-width="1"/>
      <path id="Trazado_833662" data-name="Trazado 833662" d="M248.01,177.283a99.5,99.5,0,0,1-8.755,18.681" transform="translate(-121.976 -90.382)" fill="none" stroke="#eaf8f9" stroke-linecap="round" stroke-miterlimit="10" stroke-width="1"/>
      <path id="Trazado_833663" data-name="Trazado 833663" d="M218.981,239.073a138.556,138.556,0,0,1-25.416,1.064" transform="translate(-98.683 -121.883)" fill="none" stroke="#eaf8f9" stroke-linecap="round" stroke-miterlimit="10" stroke-width="1"/>
      <path id="Trazado_833664" data-name="Trazado 833664" d="M261.845,274.982A94.21,94.21,0,0,0,282.2,252.193" transform="translate(-133.493 -128.572)" fill="none" stroke="#eaf8f9" stroke-linecap="round" stroke-miterlimit="10" stroke-width="1"/>
      <path id="Trazado_833665" data-name="Trazado 833665" d="M243.089,332.053a58.056,58.056,0,0,1-26.274,1.167" transform="translate(-110.536 -169.286)" fill="none" stroke="#eaf8f9" stroke-linecap="round" stroke-miterlimit="10" stroke-width="1"/>
      <path id="Trazado_833666" data-name="Trazado 833666" d="M288.135,367.34a61.987,61.987,0,0,0,13.059-17.867" transform="translate(-146.896 -178.167)" fill="none" stroke="#eaf8f9" stroke-linecap="round" stroke-miterlimit="10" stroke-width="1"/>
      <path id="Trazado_833667" data-name="Trazado 833667" d="M156.117,367.291c-27.8-44.572-80.748-72.209-133.212-69.542A93.669,93.669,0,0,0,69.757,360.4c23.745,12.7,53.156,14.274,86.361,6.892" transform="translate(-11.677 -151.707)" fill="#70a8c4"/>
      <path id="Trazado_833668" data-name="Trazado 833668" d="M40.815,309.373c11.559,11.657,23.254,23.431,37.2,32.087,14.833,9.211,31.685,14.568,48.43,19.509q16.573,4.89,33.269,9.348" transform="translate(-20.808 -157.723)" fill="none" stroke="#eaf8f9" stroke-linecap="round" stroke-miterlimit="10" stroke-width="1"/>
      <path id="Trazado_833669" data-name="Trazado 833669" d="M81.405,326.951a81.289,81.289,0,0,0,1.975-20.568" transform="translate(-41.502 -156.199)" fill="none" stroke="#eaf8f9" stroke-linecap="round" stroke-miterlimit="10" stroke-width="1"/>
      <path id="Trazado_833670" data-name="Trazado 833670" d="M58,337.673a51.33,51.33,0,0,1-10.9,4.49" transform="translate(-24.01 -172.151)" fill="none" stroke="#eaf8f9" stroke-linecap="round" stroke-miterlimit="10" stroke-width="1"/>
      <path id="Trazado_833671" data-name="Trazado 833671" d="M92.975,392.829a62.009,62.009,0,0,0,16.9-11.426" transform="translate(-47.4 -194.445)" fill="none" stroke="#eaf8f9" stroke-linecap="round" stroke-miterlimit="10" stroke-width="1"/>
      <path id="Trazado_833672" data-name="Trazado 833672" d="M154.235,362.689a163.853,163.853,0,0,0,1.98-29.916" transform="translate(-78.632 -169.653)" fill="none" stroke="#eaf8f9" stroke-linecap="round" stroke-miterlimit="10" stroke-width="1"/>
      <path id="Trazado_833673" data-name="Trazado 833673" d="M234.059,378.073a79.881,79.881,0,0,1-2.034,20.215" transform="translate(-118.29 -192.748)" fill="none" stroke="#eaf8f9" stroke-linecap="round" stroke-miterlimit="10" stroke-width="1"/>
      <path id="Trazado_833674" data-name="Trazado 833674" d="M208.05,416.923A34.484,34.484,0,0,1,194.575,428.7" transform="translate(-99.197 -212.554)" fill="none" stroke="#eaf8f9" stroke-linecap="round" stroke-miterlimit="10" stroke-width="1"/>
    </g>
  </g>
  <g id="Grupo_1081101" data-name="Grupo 1081101" transform="translate(0)">
    <g id="Grupo_1081100" data-name="Grupo 1081100" clip-path="url(#clip-path-2)">
      <path id="Trazado_833675" data-name="Trazado 833675" d="M184.33,299.435s-1.142,2.417-2.941,6.191c-3.578,7.519-9.75,20.416-14.637,30.308-3.22,6.534-5.882,11.755-6.867,13.259-3.211,4.917-84.282.368-84.282.368l-.657-16.284s58.415-5.676,60-6.755c.49-.333,2.48-5.01,4.98-11.294,2.613-6.544,5.779-14.838,8.416-21.808,3-7.912,5.294-14.117,5.294-14.117Z" transform="translate(-38.208 -142.393)" fill="#e8aa80"/>
      <path id="Trazado_833676" data-name="Trazado 833676" d="M248.975,320.3c-3.578,7.519-9.75,20.416-14.637,30.308L207.515,329.9c2.613-6.544,5.779-14.838,8.416-21.808Z" transform="translate(-105.795 -157.071)" fill="#d68163"/>
      <path id="Trazado_833677" data-name="Trazado 833677" d="M253.568,241.029l-11.446-24.936s-11.544,4.828-17.259,12.862S203.8,279.189,203.8,279.189l36.239,16.573Z" transform="translate(-103.903 -110.168)" fill="#32b38e"/>
      <path id="Trazado_833678" data-name="Trazado 833678" d="M56.342,391.968c-7.211,8.416-16.549,9.524-23.112,9.407-3.5-.064-6.328-2-2.809-5.319a17.214,17.214,0,0,1-5.926-1.024c-2.358-.858-5-2.917-5.926-5.25-.814-2.059.01-4.368.912-6.387a81.711,81.711,0,0,1,5.887-10.9c1.475-2.294,3.314-4.686,5.975-5.274,2.515-.554,5.044.652,7.333,1.828,4.642,2.377,17.485,8.961,18.72,10.093,1.024.936-3.515,9.382-1.054,12.828" transform="translate(-9.297 -187.143)" fill="#e8aa80"/>
      <path id="Trazado_833679" data-name="Trazado 833679" d="M44.525,418a43.8,43.8,0,0,0,7.181-6.755" transform="translate(-22.7 -209.658)" fill="none" stroke="#cf5953" stroke-linecap="round" stroke-miterlimit="10" stroke-width="2"/>
      <path id="Trazado_833680" data-name="Trazado 833680" d="M49.176,409.251q-1.971-3.426-3.941-6.858" transform="translate(-23.062 -205.146)" fill="none" stroke="#cf5953" stroke-linecap="round" stroke-miterlimit="10" stroke-width="2"/>
      <path id="Trazado_833681" data-name="Trazado 833681" d="M44.869,411.834a8.231,8.231,0,0,0-5.064.471" transform="translate(-20.293 -209.857)" fill="none" stroke="#cf5953" stroke-linecap="round" stroke-miterlimit="10" stroke-width="2"/>
      <path id="Trazado_833682" data-name="Trazado 833682" d="M356.891,179.989s-16.328,20.877-31.328,21.392c-13.706.471-29.8-22.1-29.8-22.1s9.456-.216,12.691-2.99c1.054-.907,1.936-3.863,2.647-7.436.623-3.132,1.113-6.74,1.471-9.862.485-4.279.73-7.657.73-7.657l23.24-2.99s.52,7.142,1.191,14.137c.338,3.5.716,6.961,1.093,9.47a19.949,19.949,0,0,0,.711,3.466c1.26,3.245,17.353,4.573,17.353,4.573" transform="translate(-150.786 -75.628)" fill="#e8aa80"/>
      <path id="Trazado_833683" data-name="Trazado 833683" d="M356.3,171.96C342.118,174.6,333.516,164.4,330.045,159c.485-4.279.73-7.657.73-7.657l23.24-2.99s.52,7.142,1.191,14.137c.343,3.5.721,6.961,1.093,9.47" transform="translate(-168.262 -75.633)" fill="#d68163"/>
      <path id="Trazado_833684" data-name="Trazado 833684" d="M412.691,117.987c4.885-1,9.526,1.508,10.366,5.606s-2.44,8.231-7.324,9.232-9.526-1.509-10.366-5.606,2.439-8.231,7.324-9.232" transform="translate(-206.596 -60.039)" fill="#d68163"/>
      <path id="Trazado_833685" data-name="Trazado 833685" d="M309.425,81.244c.824-18.161,12.519-32.921,27.97-32.921s27.97,14.74,27.97,32.921-11.637,33.651-23.269,34.97c-15.353,1.74-33.529-16.049-32.671-34.97" transform="translate(-157.735 -24.636)" fill="#e8aa80"/>
      <path id="Trazado_833686" data-name="Trazado 833686" d="M315.335,91.435c1.569-3.926,5.363-15.4,8.608-20.441,0,0,13.956,4.348,20.607,3.735,8.274-.76,8.117-5.152,6.564-7.274l8.789,4.216,5.706,15.936-2.26-23.392L320.06,56.093,311.065,77.94" transform="translate(-158.586 -28.597)" fill="#d68163"/>
      <path id="Trazado_833687" data-name="Trazado 833687" d="M335.5,112.346a9.834,9.834,0,0,1,11.328-1.922" transform="translate(-171.041 -55.777)" fill="none" stroke="#08183d" stroke-linecap="round" stroke-miterlimit="10" stroke-width="3"/>
      <path id="Trazado_833688" data-name="Trazado 833688" d="M402.167,112.215a9.839,9.839,0,0,0-11.382-1.578" transform="translate(-199.229 -55.818)" fill="none" stroke="#08183d" stroke-linecap="round" stroke-miterlimit="10" stroke-width="3"/>
      <path id="Trazado_833689" data-name="Trazado 833689" d="M375.922,134.263a18.267,18.267,0,0,1-.667,7.779" transform="translate(-191.311 -68.449)" fill="none" stroke="#cf5953" stroke-linecap="round" stroke-miterlimit="10" stroke-width="3"/>
      <path id="Trazado_833690" data-name="Trazado 833690" d="M356.245,155.4c1.946,2.176,6.681,3.662,9.318,3.431" transform="translate(-181.62 -79.227)" fill="none" stroke="#cf5953" stroke-linecap="round" stroke-miterlimit="10" stroke-width="3"/>
      <path id="Trazado_833691" data-name="Trazado 833691" d="M360.109,63.305C359.59,70.776,358,79.241,358,79.241c-.775-9.078-1.515-16.451-3.779-23.132l-17.308-7.323s9.573,7.22,2.961,9.147c-6.779,1.975-24.323-4.343-24.323-4.343-2.338,4.093-6.284,19.7-7.289,26.921-.52,3.725-8.681-3.936-8.544-1.01,0,0-9.662-25.96,3.868-41.2.034-.034.069-.078.1-.113,6.588-7.358,15.745-9.951,27.068-9.485,18.5,0,27.137,12.8,29.038,26a41.325,41.325,0,0,1,.314,8.6" transform="translate(-151.097 -14.604)" fill="#08183d"/>
      <path id="Trazado_833692" data-name="Trazado 833692" d="M367.391,54.708a40.194,40.194,0,0,0-38.774-22.117,39.128,39.128,0,0,0-17.333,5.6c6.588-7.358,15.745-9.951,27.068-9.485,18.5,0,27.132,12.794,29.039,26" transform="translate(-158.698 -14.609)" fill="#1a3866"/>
      <path id="Trazado_833693" data-name="Trazado 833693" d="M300.064,121.133c4.987,0,9.029,3.391,9.029,7.573s-4.043,7.573-9.029,7.573-9.029-3.391-9.029-7.573,4.043-7.573,9.029-7.573" transform="translate(-148.374 -61.756)" fill="#e8aa80"/>
      <path id="Trazado_833694" data-name="Trazado 833694" d="M341.255,132.013a8.317,8.317,0,0,0,8.853.034" transform="translate(-173.977 -67.302)" fill="none" stroke="#2a334f" stroke-linecap="round" stroke-miterlimit="10" stroke-width="2"/>
      <path id="Trazado_833695" data-name="Trazado 833695" d="M390.8,130.915a7.7,7.7,0,0,0,8.76-.662" transform="translate(-199.234 -66.405)" fill="none" stroke="#2a334f" stroke-linecap="round" stroke-miterlimit="10" stroke-width="2"/>
      <path id="Trazado_833696" data-name="Trazado 833696" d="M526.335,309.13s-57.851,45.112-70.817,46.7c-4.495.554-11.426-10.309-17.549-22.249a165.919,165.919,0,0,1-9.274-22.3l21.436-30.47,2.137-3.034s.2.564.559,1.559c1.985,5.524,8.823,24.357,13,33.872,1.5,3.407,2.652,5.613,3.122,5.6,2.034-.069,46.3-18.2,46.3-18.2Z" transform="translate(-218.556 -141.618)" fill="#e8aa80"/>
      <path id="Trazado_833697" data-name="Trazado 833697" d="M465.826,314.825,437.969,335.2a165.919,165.919,0,0,1-9.274-22.3l21.436-30.47,2.691-1.48c1.99,5.524,8.823,24.357,13,33.872" transform="translate(-218.556 -143.234)" fill="#d68163"/>
      <path id="Trazado_833698" data-name="Trazado 833698" d="M399.735,236.429,409.9,212.263s12.823,4.064,18.539,12.1,24.132,52.283,24.132,52.283L415.98,293.815Z" transform="translate(-203.791 -108.215)" fill="#32b38e"/>
      <path id="Trazado_833699" data-name="Trazado 833699" d="M588.5,297.833s6.539-19.519,8.323-22.328c1.672-2.637,16.779-13.774,19.98-11.926,3.137,1.814-8.995,10.662-8.995,10.662s15.848-8.524,17.941-5.495c2.407,3.49-15.367,11.882-15.367,11.882s17.98-4.73,17.98-2.559c0,2.667-14.931,7.426-14.931,7.426s15.284-1.9,14.941.436c-.48,3.265-15.362,4.907-15.362,4.907s-2,13.784-11,15.058Z" transform="translate(-300.024 -134.272)" fill="#e8aa80"/>
      <path id="Trazado_833700" data-name="Trazado 833700" d="M601.3,295.387a89.036,89.036,0,0,1,11.206-10.8,5.858,5.858,0,0,1,1.823-1.123,1.85,1.85,0,0,1,2.554,2.157,5.72,5.72,0,0,1-.73,1.828c-1.407,2.578-2.985,5.064-4.667,7.7a12.718,12.718,0,0,1-1.127,11.46" transform="translate(-306.55 -144.453)" fill="#e8aa80"/>
      <path id="Trazado_833701" data-name="Trazado 833701" d="M601.3,295.387a89.036,89.036,0,0,1,11.206-10.8,5.858,5.858,0,0,1,1.823-1.123,1.85,1.85,0,0,1,2.554,2.157,5.72,5.72,0,0,1-.73,1.828c-1.407,2.578-2.985,5.064-4.667,7.7a12.718,12.718,0,0,1-1.127,11.46" transform="translate(-306.55 -144.453)" fill="none" stroke="#cf5953" stroke-linecap="round" stroke-miterlimit="10" stroke-width="2"/>
      <path id="Trazado_833702" data-name="Trazado 833702" d="M351.924,287.808c-1.622,20.676-3.667,37.661-3.667,37.661l-83.032.26s-1-7.647-2.274-18.857C259.735,278.7,254.74,228,259.323,219.31,265.392,207.81,285,206.492,285,206.492s19.818,21.73,20.759,21.323c2.142-.926,16.651-22.632,16.651-22.632s23.406,2.823,28.161,12.049c4.936,9.559,3.5,43.278,1.348,70.577" transform="translate(-131.265 -104.606)" fill="#3dc6a6"/>
      <path id="Trazado_833703" data-name="Trazado 833703" d="M357.618,373.743C356,394.419,353.952,411.4,353.952,411.4l-83.032.26s-1-7.647-2.274-18.857c44.053,14.019,76.753-8.514,88.973-19.063" transform="translate(-136.96 -190.54)" fill="#32b38e"/>
      <path id="Trazado_833704" data-name="Trazado 833704" d="M357.415,246.426a46.147,46.147,0,0,1,29.087,4.75c-.51-1.794-1.407-4.485-1.917-6.279a3.665,3.665,0,0,0-.716-1.544,3.579,3.579,0,0,0-2.358-.858c-7.72-.755-15.632.52-24.1,3.931" transform="translate(-182.216 -123.521)" fill="#32b38e"/>
      <path id="Trazado_833705" data-name="Trazado 833705" d="M323.476,246.606a29.823,29.823,0,0,0-26.945-.118,25.514,25.514,0,0,0-1.446,6.421,52.29,52.29,0,0,1,28.391-6.3" transform="translate(-150.439 -124.053)" fill="#32b38e"/>
      <path id="Trazado_833706" data-name="Trazado 833706" d="M355.845,225.5c6.5-7.039,11.211-14.083,14.318-24.754,0,0,7.534-1.348,10.206,3.887,1.123,2.2,6.083,22.352,6.083,22.352-9.5-4.7-19.9-4.338-30.607-1.485" transform="translate(-181.416 -102.262)" fill="#e0fffd"/>
      <path id="Trazado_833707" data-name="Trazado 833707" d="M307.981,200.613s-7.049-1.853-9.828,4c-1.3,2.75-4.588,24.024-4.588,24.024,9.284-6.583,21.4-6.931,30.524-3.255-7.99-7.99-13.608-15.666-16.107-24.769" transform="translate(-149.664 -102.134)" fill="#e0fffd"/>
    </g>
  </g>
  <g id="Grupo_1081103" data-name="Grupo 1081103">
    <g id="Grupo_1081102" data-name="Grupo 1081102" clip-path="url(#clip-path)">
      <path id="Trazado_833709" data-name="Trazado 833709" d="M146.995,332.057c12.112-1.3,23.632-.534,36.617-.534a172.372,172.372,0,0,1,.245-28.852,242.6,242.6,0,0,0-28.436-6.627c-2.368,10.176-4.872,25.646-8.426,36.014" transform="translate(-74.94 -150.928)" fill="#a1a7bf"/>
      <path id="Trazado_833710" data-name="Trazado 833710" d="M205.356,441.075l-20.931-.275a18.293,18.293,0,0,1,.27-1.882,42.748,42.748,0,0,1,2.122-6.515l2.167-.98s2.819,1.059,9.333,2.961c4.529,1.319,6.23,3.132,6.833,4.534a3.183,3.183,0,0,1,.206,2.157" transform="translate(-94.023 -219.946)" fill="#3d43af"/>
      <path id="Trazado_833711" data-name="Trazado 833711" d="M205.356,448.87l-20.931-.275a18.293,18.293,0,0,1,.27-1.882H205.15a3.183,3.183,0,0,1,.206,2.157" transform="translate(-94.023 -227.742)" fill="#b8bfe6"/>
      <path id="Trazado_833712" data-name="Trazado 833712" d="M130.753,441.075l20.931-.275a18.289,18.289,0,0,0-.27-1.882,42.751,42.751,0,0,0-2.123-6.515l-2.167-.98s-2.819,1.059-9.333,2.961c-4.529,1.319-6.23,3.132-6.833,4.534a3.183,3.183,0,0,0-.206,2.157" transform="translate(-66.61 -219.946)" fill="#3d43af"/>
      <path id="Trazado_833713" data-name="Trazado 833713" d="M130.753,448.87l20.931-.275a18.289,18.289,0,0,0-.27-1.882H130.959a3.183,3.183,0,0,0-.206,2.157" transform="translate(-66.61 -227.742)" fill="#b8bfe6"/>
      <path id="Trazado_833714" data-name="Trazado 833714" d="M154.811,272.753l-2.917,80.086,9.245.1,8.843-58.847-.711,59.048,10.965-.25,5.436-78.5Z" transform="translate(-77.438 -139.054)" fill="#08183d"/>
      <path id="Trazado_833715" data-name="Trazado 833715" d="M210.925,215.505l1.3-8.382s3.608,1.524,4.951,3.784c2.02,3.4,7.015,20.676,7.015,20.676l15.637-.971,1.3,11.323s-18.137,6.186-21.347,4.828c-4.147-1.75-8.073-18.754-8.073-18.754Z" transform="translate(-107.533 -105.595)" fill="#e1e8f5"/>
      <path id="Trazado_833716" data-name="Trazado 833716" d="M275.375,246.4s3.559-4.044,4.191-3.3c1.142,1.333-2.652,5.593-2.652,5.593Z" transform="translate(-140.391 -123.89)" fill="#d68163"/>
      <rect id="Rectángulo_379612" data-name="Rectángulo 379612" width="28.809" height="20.226" transform="translate(114.86 140.896) rotate(-84.243)" fill="#89512c"/>
      <rect id="Rectángulo_379613" data-name="Rectángulo 379613" width="24.736" height="17.167" transform="matrix(0.1, -0.995, 0.995, 0.1, 116.661, 138.277)" fill="#f2f6fc"/>
      <path id="Trazado_833717" data-name="Trazado 833717" d="M251.145,230.658l.75-1.882a1.521,1.521,0,0,1,1.569-.951l4.951.5a1.53,1.53,0,0,1,1.348,1.245l.358,2Z" transform="translate(-128.038 -116.145)" fill="#83a4de"/>
      <path id="Trazado_833718" data-name="Trazado 833718" d="M254.985,225.043l.456,1.363,4.907.5.721-1.245Z" transform="translate(-129.995 -114.731)" fill="#83a4de"/>
      <rect id="Rectángulo_379614" data-name="Rectángulo 379614" width="0.265" height="9.196" transform="translate(124.674 117.581) rotate(-84.259)" fill="#ced6f2"/>
      <rect id="Rectángulo_379615" data-name="Rectángulo 379615" width="0.265" height="9.196" transform="translate(124.568 118.624) rotate(-84.259)" fill="#ced6f2"/>
      <rect id="Rectángulo_379616" data-name="Rectángulo 379616" width="0.265" height="9.196" transform="translate(124.461 119.672) rotate(-84.259)" fill="#ced6f2"/>
      <rect id="Rectángulo_379617" data-name="Rectángulo 379617" width="0.265" height="9.196" transform="translate(124.359 120.716) rotate(-84.259)" fill="#ced6f2"/>
      <rect id="Rectángulo_379618" data-name="Rectángulo 379618" width="3.284" height="3.152" transform="translate(120.554 120.331) rotate(-84.243)" fill="none" stroke="#ced6f2" stroke-miterlimit="10" stroke-width="0.5"/>
      <rect id="Rectángulo_379619" data-name="Rectángulo 379619" width="0.265" height="11.054" transform="translate(122.337 122.262) rotate(-84.259)" fill="#ced6f2"/>
      <rect id="Rectángulo_379620" data-name="Rectángulo 379620" width="0.265" height="12.951" transform="translate(120.342 123.117) rotate(-84.259)" fill="#ced6f2"/>
      <rect id="Rectángulo_379621" data-name="Rectángulo 379621" width="0.265" height="12.951" transform="translate(120.235 124.165) rotate(-84.259)" fill="#ced6f2"/>
      <rect id="Rectángulo_379622" data-name="Rectángulo 379622" width="0.265" height="12.951" transform="translate(120.133 125.209) rotate(-84.259)" fill="#ced6f2"/>
      <rect id="Rectángulo_379623" data-name="Rectángulo 379623" width="0.265" height="11.054" transform="translate(121.282 131.662) rotate(-84.259)" fill="#ced6f2"/>
      <rect id="Rectángulo_379624" data-name="Rectángulo 379624" width="0.265" height="12.951" transform="translate(119.287 132.517) rotate(-84.259)" fill="#ced6f2"/>
      <rect id="Rectángulo_379625" data-name="Rectángulo 379625" width="0.265" height="12.951" transform="translate(119.185 133.565) rotate(-84.259)" fill="#ced6f2"/>
      <rect id="Rectángulo_379626" data-name="Rectángulo 379626" width="0.265" height="12.951" transform="translate(119.078 134.608) rotate(-84.259)" fill="#ced6f2"/>
      <rect id="Rectángulo_379627" data-name="Rectángulo 379627" width="0.265" height="9.196" transform="translate(123.698 127.272) rotate(-84.259)" fill="#ced6f2"/>
      <rect id="Rectángulo_379628" data-name="Rectángulo 379628" width="0.265" height="9.196" transform="translate(123.591 128.315) rotate(-84.259)" fill="#ced6f2"/>
      <rect id="Rectángulo_379629" data-name="Rectángulo 379629" width="0.265" height="9.196" transform="translate(123.484 129.363) rotate(-84.259)" fill="#ced6f2"/>
      <rect id="Rectángulo_379630" data-name="Rectángulo 379630" width="0.265" height="9.196" transform="translate(123.382 130.407) rotate(-84.259)" fill="#ced6f2"/>
      <rect id="Rectángulo_379631" data-name="Rectángulo 379631" width="3.284" height="3.152" transform="translate(119.582 130.023) rotate(-84.243)" fill="none" stroke="#ced6f2" stroke-miterlimit="10" stroke-width="0.5"/>
      <path id="Trazado_833719" data-name="Trazado 833719" d="M274.239,251.726a21.815,21.815,0,0,1,2.559-1.554,1.5,1.5,0,0,1,.848-.235.878.878,0,0,1,.721.647,1.407,1.407,0,0,1-.137.961c-.574,1.2-2.015,1.789-3.328,2.279-.618.23-1.431.417-1.858-.049a.921.921,0,0,1-.137-.936c.113-.314.422-.466,1.333-1.113" transform="translate(-139.097 -127.419)" fill="#e8aa80"/>
      <path id="Trazado_833720" data-name="Trazado 833720" d="M274.239,255.946a21.819,21.819,0,0,1,2.559-1.554,1.5,1.5,0,0,1,.848-.235.878.878,0,0,1,.721.647,1.407,1.407,0,0,1-.137.961c-.574,1.2-2.015,1.789-3.328,2.279-.618.23-1.431.417-1.858-.049a.921.921,0,0,1-.137-.936c.113-.319.422-.471,1.333-1.113" transform="translate(-139.097 -129.571)" fill="#e8aa80"/>
      <path id="Trazado_833721" data-name="Trazado 833721" d="M274.239,260.156A21.811,21.811,0,0,1,276.8,258.6a1.5,1.5,0,0,1,.848-.235.878.878,0,0,1,.721.647,1.407,1.407,0,0,1-.137.961c-.574,1.2-2.015,1.789-3.328,2.279-.618.23-1.431.417-1.858-.049a.921.921,0,0,1-.137-.936c.113-.319.422-.471,1.333-1.113" transform="translate(-139.097 -131.717)" fill="#e8aa80"/>
      <path id="Trazado_833722" data-name="Trazado 833722" d="M274.239,264.376a21.811,21.811,0,0,1,2.559-1.554,1.5,1.5,0,0,1,.848-.235.878.878,0,0,1,.721.647,1.407,1.407,0,0,1-.137.961c-.574,1.2-2.015,1.789-3.328,2.279-.618.23-1.431.417-1.858-.049a.921.921,0,0,1-.137-.936c.113-.319.422-.471,1.333-1.113" transform="translate(-139.097 -133.868)" fill="#e8aa80"/>
      <path id="Trazado_833723" data-name="Trazado 833723" d="M163.185,208.743l21.588.108,4.294,37.377-25.882-.755" transform="translate(-83.194 -106.421)" fill="#3d43af"/>
      <path id="Trazado_833724" data-name="Trazado 833724" d="M183.963,193s-8.323,8.22-9.255,8.265c-1.436.074-13.544-6.407-13.544-6.407a53.64,53.64,0,0,0,4.941-3.221c.774-.667,1.284-4.323,1.52-6.377.181-1.578.27-2.823.27-2.823l8.568-1.1s.706,7.765.843,8.7a7.264,7.264,0,0,0,.265,1.279c.461,1.191,6.392,1.686,6.392,1.686" transform="translate(-82.165 -92.446)" fill="#e8aa80"/>
      <path id="Trazado_833725" data-name="Trazado 833725" d="M184.021,190.029c-5.225.975-8.4-2.789-9.676-4.779.181-1.578.27-2.823.27-2.823l8.568-1.1s.191,2.632.441,5.211c.123,1.294.26,2.573.4,3.5" transform="translate(-88.884 -92.441)" fill="#d68163"/>
      <path id="Trazado_833726" data-name="Trazado 833726" d="M202.145,170.98a2.6,2.6,0,1,1-1.989,3.338,2.757,2.757,0,0,1,1.989-3.338" transform="translate(-101.988 -87.09)" fill="#d68163"/>
      <path id="Trazado_833727" data-name="Trazado 833727" d="M169.365,158.358c0-6.211,4.015-11.245,8.965-11.245s8.637,5.044,8.965,11.245c.319,5.98-1.588,11.617-7.235,11.985-6.029,0-10.7-5.779-10.7-11.985" transform="translate(-86.345 -75.001)" fill="#e8aa80"/>
      <path id="Trazado_833728" data-name="Trazado 833728" d="M174.045,164.706a11.952,11.952,0,0,0,2.632-5.784,2.575,2.575,0,0,0,1.485-1.485,11.96,11.96,0,0,0,10.191.706,12.546,12.546,0,0,1,1.3,5.358c.137-2.583.147-5.171.049-7.779-4.613-.691-9.245-1.255-14.009-1.618-.441,3.363-.877,6.725-1.647,10.6" transform="translate(-88.731 -78.564)" fill="#d68163"/>
      <path id="Trazado_833729" data-name="Trazado 833729" d="M186.322,150.218a1.811,1.811,0,0,1-.412.309,20.389,20.389,0,0,1-.843,8.211,24.292,24.292,0,0,0-.77-7.652c-2.353.961-8.461.6-11.323-1.627.02.549-.48,1.863-1.294,1.99a21.385,21.385,0,0,1-2.549,8.157c-.873-.324-1.75-.647-2.686-1.093a27.018,27.018,0,0,1-1.225-5.446,9.1,9.1,0,0,1,1.034-5.4,4.867,4.867,0,0,1,4.407-2.539,5.621,5.621,0,0,1,1.279-1.863,7.319,7.319,0,0,1,4.931-2.015,12.96,12.96,0,0,1,7.171,2.569,7.014,7.014,0,0,1,2.8,2.956,3.291,3.291,0,0,1-.52,3.441" transform="translate(-84.21 -72.012)" fill="#89512c"/>
      <path id="Trazado_833730" data-name="Trazado 833730" d="M193.347,150.228c.211-1.191-.975-4.147-3.162-5.47a17.75,17.75,0,0,0-6.613-2.167,9.425,9.425,0,0,0-4.618.7,7.319,7.319,0,0,1,4.931-2.015,12.96,12.96,0,0,1,7.171,2.569,7.014,7.014,0,0,1,2.8,2.956,3.255,3.255,0,0,1-.51,3.431" transform="translate(-91.234 -72.022)" fill="#a16337"/>
      <path id="Trazado_833731" data-name="Trazado 833731" d="M168.234,171.973a2.626,2.626,0,1,1-3.069,2.588,2.859,2.859,0,0,1,3.069-2.588" transform="translate(-84.204 -87.675)" fill="#e8aa80"/>
      <path id="Trazado_833732" data-name="Trazado 833732" d="M180.245,169.189a3.013,3.013,0,0,1,3.632-.657" transform="translate(-91.892 -85.743)" fill="none" stroke="#89512c" stroke-linecap="round" stroke-miterlimit="10" stroke-width="1"/>
      <path id="Trazado_833733" data-name="Trazado 833733" d="M200.507,168.415a1.961,1.961,0,0,0-2.872-.255" transform="translate(-100.758 -85.47)" fill="none" stroke="#89512c" stroke-linecap="round" stroke-miterlimit="10" stroke-width="1"/>
      <path id="Trazado_833734" data-name="Trazado 833734" d="M186.924,174.713a.725.725,0,1,1-.539.7.636.636,0,0,1,.539-.7" transform="translate(-95.022 -89.072)" fill="#2a334f"/>
      <path id="Trazado_833735" data-name="Trazado 833735" d="M200,173.563a.725.725,0,1,1-.539.7.636.636,0,0,1,.539-.7" transform="translate(-101.69 -88.485)" fill="#2a334f"/>
      <path id="Trazado_833736" data-name="Trazado 833736" d="M195.576,174.993a2.211,2.211,0,0,0,.7,1.926,2.844,2.844,0,0,1-.882,1.054" transform="translate(-99.616 -89.214)" fill="none" stroke="#cf5953" stroke-linecap="round" stroke-linejoin="round" stroke-width="1"/>
      <path id="Trazado_833737" data-name="Trazado 833737" d="M190.861,184.8a4.324,4.324,0,0,1-3.186-1" transform="translate(-95.68 -93.701)" fill="none" stroke="#cf5953" stroke-linecap="round" stroke-linejoin="round" stroke-width="1"/>
      <path id="Trazado_833738" data-name="Trazado 833738" d="M188.795,211.761l3.235-9.838,3.941,1.392,1.093,8.284c-4.343-.985-4.926-.966-8.269.162" transform="translate(-96.251 -102.944)" fill="#5766c9"/>
      <path id="Trazado_833739" data-name="Trazado 833739" d="M164.635,203.545l3.382-2.152,8.465,10.1c-3.024-.191-6.627.088-8.662,1.5Z" transform="translate(-83.934 -102.673)" fill="#5766c9"/>
      <path id="Trazado_833740" data-name="Trazado 833740" d="M53.621,162.311,27.075,146.35a1.414,1.414,0,0,1-.484-1.942l20.475-34.054a1.415,1.415,0,0,1,1.942-.484l26.546,15.961a1.415,1.415,0,0,1,.483,1.942L55.563,161.827a1.415,1.415,0,0,1-1.942.484" transform="translate(-13.453 -55.911)" fill="#08183d"/>
      <rect id="Rectángulo_379632" data-name="Rectángulo 379632" width="38.954" height="30.937" transform="matrix(0.515, -0.857, 0.857, 0.515, 14.568, 88.902)" fill="none" stroke="#174f6b" stroke-miterlimit="10" stroke-width="0.75"/>
      <path id="Trazado_833741" data-name="Trazado 833741" d="M79.639,175.393c-.1.077-.207.148-.313.218a2.728,2.728,0,0,1-1.013.424,1.562,1.562,0,0,1-.835-.052,2.512,2.512,0,0,1-1.257-1.783,14.1,14.1,0,0,1-.488-2.579,3.338,3.338,0,0,0-.274-1.287,2.755,2.755,0,0,0-.929-.876,7.426,7.426,0,0,1-2.423-1.93,2.158,2.158,0,0,1-.193-1.666,4.183,4.183,0,0,1,.487-1.276c.026-.054.056-.1.082-.157a99.993,99.993,0,0,1,9.532-14.662,1.407,1.407,0,0,1,1.3-.477.669.669,0,0,1,.2.061,1.189,1.189,0,0,1,.4.328,7.5,7.5,0,0,1,1.957,4.719,23.263,23.263,0,0,1-.113,4.793,44.212,44.212,0,0,1-1.347,6.85c-.077.271-.158.543-.243.821a40.135,40.135,0,0,1-1.7,4.236c-.06.126-.117.253-.177.379A10.048,10.048,0,0,1,79.639,175.393Z" transform="translate(-36.623 -76.099)" fill="#174f6b"/>
      <path id="Trazado_833742" data-name="Trazado 833742" d="M51.708,157.531c-.033.044-.059.088-.089.127A4.406,4.406,0,0,1,50.7,158.7a2.153,2.153,0,0,1-1.557.614A7.373,7.373,0,0,1,46.3,158.08a2.8,2.8,0,0,0-1.209-.41,3.342,3.342,0,0,0-1.266.361,13.738,13.738,0,0,1-2.507.779,2.494,2.494,0,0,1-2.164-.274,2.155,2.155,0,0,1-.538-1.807,1.922,1.922,0,0,1,.037-.263.969.969,0,0,1,.014-.108,10.14,10.14,0,0,1,2.219-4.183c.083-.112.169-.223.251-.334a34.687,34.687,0,0,1,3.56-4.087c.25-.23.5-.462.748-.692a41.881,41.881,0,0,1,4.666-3.713A23.313,23.313,0,0,1,54.294,141a7.518,7.518,0,0,1,5.085-.484,1.241,1.241,0,0,1,.479.2,1.093,1.093,0,0,1,.35.515,1.423,1.423,0,0,1-.017,1,100.642,100.642,0,0,1-8.484,15.3" transform="translate(-19.682 -71.516)" fill="#174f6b"/>
      <path id="Trazado_833743" data-name="Trazado 833743" d="M95.068,161.379l.291.1a.834.834,0,0,0-.291-.1" transform="translate(-48.467 -82.274)" fill="#f9ada7"/>
      <path id="Trazado_833744" data-name="Trazado 833744" d="M67.9,168.278a6.563,6.563,0,0,0-.539-.841c.2.067.392.144.593.2a1.007,1.007,0,0,0,.5.026.644.644,0,0,0,.429-.338.85.85,0,0,1-.849.225c-.28-.07-.524-.226-.8-.3a3.1,3.1,0,0,0-.939-.076,2.081,2.081,0,0,0,.214-.175,3.616,3.616,0,0,0,.718-1.157,3.869,3.869,0,0,0-.43.572,2.834,2.834,0,0,1-.823.764,2.243,2.243,0,0,1-.865-.13,4.543,4.543,0,0,0-2.3-2.076,2.077,2.077,0,0,1-.9-1.457,4.654,4.654,0,0,0,1.364.446,3.815,3.815,0,0,1,.848.184,2.561,2.561,0,0,1,.8.649.846.846,0,0,0-.344-.568,3.094,3.094,0,0,0-.621-.408,10.133,10.133,0,0,0,1.43-.493,1.253,1.253,0,0,1,1.093.758,2.051,2.051,0,0,0,.269.587.955.955,0,0,0,.392.232c.227.089.457.167.692.238a1.638,1.638,0,0,1-1.106-.82c-.051-.132-.076-.277-.126-.409a1.5,1.5,0,0,0-.792-.717,2.392,2.392,0,0,1,.4-.067,3.487,3.487,0,0,1,.969.117,3.6,3.6,0,0,1,.823.247,3.121,3.121,0,0,0-1.275-.427c.112-.053.224-.106.337-.162.037-.019.075-.034.112-.053l.886-.425a.966.966,0,0,1,.587-.145c-.25-.119-.566.046-.844.18a8.474,8.474,0,0,1-1.689.535l.013,0a2.891,2.891,0,0,0-.664.114c-.171.046-.341.1-.513.148.143-.12.3-.22.442-.343.68-.58.974-1.539,1.575-2.218a3.759,3.759,0,0,0-.634.757,8.114,8.114,0,0,1-.5.785,10.891,10.891,0,0,1-1.63,1.233,4.71,4.71,0,0,1-.752.138c-.331-.1-.681-.159-1-.28a1.611,1.611,0,0,1-.633-.409c-.009-.081-.02-.164-.025-.246a17.292,17.292,0,0,1-.072-3.16,12.392,12.392,0,0,1,.7-3.071,11.328,11.328,0,0,1,.65-1.448c.126-.231.26-.459.4-.678a7.2,7.2,0,0,0,.431-.616,7.888,7.888,0,0,0,2.477,3.351,2.945,2.945,0,0,1-.006,1.134c-.014.055-.029.112-.047.168-.078.13-.164.257-.254.38-.281.393-.569.777-.836,1.178a1.414,1.414,0,0,1-.779.416c-.226.032-.449-.006-.675.048a2.04,2.04,0,0,0-.658.352.493.493,0,0,0-.212.231.9.9,0,0,1,.721-.378c.263-.013.518.045.783.027a1,1,0,0,0,.482-.16l-.014.023a2.694,2.694,0,0,0-.327.751,2.743,2.743,0,0,1-.2.853,2.753,2.753,0,0,0,.329-.712,5.044,5.044,0,0,1,.169-.568,3.412,3.412,0,0,1,.614-.835,4.863,4.863,0,0,0,.642-.93,2.338,2.338,0,0,0,.055,1.4,1.844,1.844,0,0,1,.034-1.026c.11-.4.29-.783.416-1.18a2.286,2.286,0,0,0,.121-.916c.131.088.262.174.4.252a2.694,2.694,0,0,1,.849.9c.572,1.063-.424,3.334-.424,3.334a4.773,4.773,0,0,0,.749-1.652,1.02,1.02,0,0,0,.377.325c.183.1.387.162.57.26a1.858,1.858,0,0,1,.825.9,1.252,1.252,0,0,0-.571-1,5.769,5.769,0,0,1-.921-.69.733.733,0,0,1-.178-.323,2.78,2.78,0,0,0-.035-1.239,1.365,1.365,0,0,0-.167-.316c.415.047.909-.15,1.31-.018a1.483,1.483,0,0,1,.613.5.981.981,0,0,0-.581-.581,2.643,2.643,0,0,0-.968-.24c-.225-.012-.461,0-.68-.034a4.169,4.169,0,0,0-.456-.408,4.268,4.268,0,0,1-1.414-1.4c.544-.19,1.043-.66,1.588-.919a4.241,4.241,0,0,1,1.976-.276,2.9,2.9,0,0,1,.383.03,3.173,3.173,0,0,0-2.2-.111,15.1,15.1,0,0,1-1.664.833.993.993,0,0,1-.325.026,27.97,27.97,0,0,1-1.179-3.369c-.007,0-.664-.4-1.1-.708a5.838,5.838,0,0,1-4.311.68,2.633,2.633,0,0,1-.492-.613c-.1-.164-.186-.337-.272-.512a11.411,11.411,0,0,1,.622-1.272,3.066,3.066,0,0,0,.408-1.369,11,11,0,0,1-1.184,2.234c-.007.011-.018.024-.025.036-.063-.13-.123-.258-.188-.382a3.948,3.948,0,0,0-1.009-1.295,2.194,2.194,0,0,0-1.523-.494,1.877,1.877,0,0,1,1.553.724,4.523,4.523,0,0,1,.669,1.144,11.443,11.443,0,0,1-1.869-.245c-.208-.078-.4-.193-.614-.255a1.51,1.51,0,0,0-.833,0c.561-.081.961.41,1.466.593a3.5,3.5,0,0,0,1.113.114,1.882,1.882,0,0,1,.906.2c.007.02.017.041.024.061a11.839,11.839,0,0,0,.524,1.18,7.491,7.491,0,0,0-3.341.024,4.29,4.29,0,0,0-.661.316c-.431-.073-.843-.209-1.263-.322a2.369,2.369,0,0,1-.3-.363,2.57,2.57,0,0,0-1.1-1l.643.643a1.62,1.62,0,0,1,.242.282,2.6,2.6,0,0,1,.174.358c-.057-.012-.11-.028-.166-.037a2.588,2.588,0,0,0-2.041.4,1.58,1.58,0,0,1,1.145-.234,5.133,5.133,0,0,1,1.192.438,3,3,0,0,0,.824.245,9.319,9.319,0,0,1-2.6,1.56,10.76,10.76,0,0,0,1.821-.554,15.888,15.888,0,0,1,3.134-1.233c-.31.568-.489,1.206-.8,1.779a4.924,4.924,0,0,1-.714.975,4.9,4.9,0,0,1-1.044-.07c-.676-.026-1.409.377-2.046.206a2.2,2.2,0,0,0,.735.182,2.3,2.3,0,0,0,.494.005c.16-.018.319-.059.478-.08a3.333,3.333,0,0,1,1.08.063,10.244,10.244,0,0,1-1.331,1.032,4.52,4.52,0,0,0,1.887-1.278c.15-.17.289-.349.424-.535a.812.812,0,0,1,.025.535,5.461,5.461,0,0,1-.451,1.307,3.205,3.205,0,0,0,.557-1.244,6.722,6.722,0,0,0,.14-.991,11.048,11.048,0,0,1,1.406-1.92,9.52,9.52,0,0,1,1.883.232,12.6,12.6,0,0,0,3.231.481c-.038,0-.53.949-.592,1.048a13.023,13.023,0,0,1-.757,1.079A13.316,13.316,0,0,1,59,157.1a12.836,12.836,0,0,1-2.082,1.465,4.233,4.233,0,0,1-2.109.8,8.478,8.478,0,0,1-1.551-.308,3.974,3.974,0,0,0-2.015-2.159c-.047-.092-.085-.2-.123-.293-.4-.936-1.613-1.17-1.974-2.131a2.968,2.968,0,0,0,1.2,1.539,1.208,1.208,0,0,1,.273.294,4.091,4.091,0,0,1,.172.414,3.851,3.851,0,0,0-1.472-.175,3.886,3.886,0,0,1,2.1.868,5.319,5.319,0,0,1-2.69.092,4.353,4.353,0,0,0,2.311.242,2.412,2.412,0,0,0,.625-.128,6.861,6.861,0,0,1,1.118,1.31c-.23-.056-.463-.11-.7-.149a9.179,9.179,0,0,0-2.3.011,1.681,1.681,0,0,1-.738-.234,5.13,5.13,0,0,0-.753-.39,2.208,2.208,0,0,1-.518-.612,3.251,3.251,0,0,0-.347-.583c-.163-.18-.39-.285-.559-.459a4.612,4.612,0,0,1,.576.631,1.136,1.136,0,0,1,.168.282c.084.216.076.5.224.655-.663-.031-1.395.243-2,.01a1.421,1.421,0,0,0,1.126.23,2.792,2.792,0,0,1,1.2.012,3.235,3.235,0,0,1,.474.25,3.333,3.333,0,0,0,.656.287A5.421,5.421,0,0,0,46.7,160a7.362,7.362,0,0,1,4.319-.983,2.619,2.619,0,0,0-.237.241,1.415,1.415,0,0,1-.166.18,1.169,1.169,0,0,1-.289.152,2.93,2.93,0,0,0-1.182.97l.542-.413a2.09,2.09,0,0,1,.506-.317c.137-.053.279-.073.413-.135.291-.139.5-.461.769-.648a4.582,4.582,0,0,1,.767.128c.473.142.945.33,1.437.471a7.292,7.292,0,0,1-2.6.9,4.225,4.225,0,0,0,2.943-.809,4.452,4.452,0,0,0,.7.108,6.1,6.1,0,0,0,2.223-.322,10.022,10.022,0,0,0,4.184-2.735,9.5,9.5,0,0,0,.734-.894,3.111,3.111,0,0,0-.277.763c-.087.268-.164.538-.231.809a11.984,11.984,0,0,0-.294,1.649,11.8,11.8,0,0,0,.1,3.248,5.279,5.279,0,0,0,.622,2.028,3.3,3.3,0,0,0,.554,2.788,4.181,4.181,0,0,1-.274-2.438,1.864,1.864,0,0,0,.259.216,12.936,12.936,0,0,1,1.806,1.092,3.589,3.589,0,0,1,.028.711,2,2,0,0,1-.357.5c-.122.123-.256.23-.379.349a2.277,2.277,0,0,0-.383.5,8.808,8.808,0,0,0,.755-.662,2.816,2.816,0,0,0,.29-.308,3.27,3.27,0,0,0-.2.8,3.311,3.311,0,0,0,.1.611.769.769,0,0,1-.118.62,1.2,1.2,0,0,0,.289-.635c0-.211-.123-.384-.114-.595a1.476,1.476,0,0,1,.175-.5,2.533,2.533,0,0,0,.233-1.077,6.159,6.159,0,0,1,1.348,2.95,7.394,7.394,0,0,0-.121-.923l.7.355a1.908,1.908,0,0,0,.836.268,3.833,3.833,0,0,1-1.611-.956,5.18,5.18,0,0,0-.263-.786,3.842,3.842,0,0,0,.859.076c.2-.01.4-.048.6-.043a1.646,1.646,0,0,1,.232.022,3.509,3.509,0,0,1,.716.77,3.006,3.006,0,0,0,.353.478.633.633,0,0,0,.53.2A1.471,1.471,0,0,1,67.9,168.278Z" transform="translate(-23.369 -75.601)" fill="#4b90a0"/>
      <path id="Trazado_833745" data-name="Trazado 833745" d="M88.455,133.277a.737.737,0,0,1,.228,1.019l-.08.133a.755.755,0,0,0-.777,1.293l-.08.133a.755.755,0,0,0-.777,1.292l-.081.135a.753.753,0,0,0-.775,1.29l-.081.135a.753.753,0,0,0-.776,1.29l-.081.135a.755.755,0,0,0-.777,1.293l-.08.132a.755.755,0,0,0-.777,1.293l-.08.133a.74.74,0,0,1-1.007.276l-.966-.581a.737.737,0,0,1-.228-1.019l.08-.133a.755.755,0,0,0,.777-1.292l.08-.133a.755.755,0,0,0,.777-1.293l.081-.135a.753.753,0,0,0,.775-1.29l.081-.135a.753.753,0,0,0,.775-1.29l.081-.135a.755.755,0,0,0,.777-1.293l.08-.133a.755.755,0,0,0,.777-1.292l.08-.133a.755.755,0,0,0,.777-1.293l.08-.133a.74.74,0,0,1,1.007-.276l.966.581a.737.737,0,0,1,.228,1.019l-.08.133a.733.733,0,0,1-1.005.274" transform="translate(-41.37 -66.874)" fill="#4b90a0"/>
      <rect id="Rectángulo_379633" data-name="Rectángulo 379633" width="2.907" height="6.164" transform="translate(53.325 70.975) rotate(-58.986)" fill="#4b90a0"/>
      <path id="Trazado_833746" data-name="Trazado 833746" d="M99.391,189.181a15.538,15.538,0,0,0-.784-7.814c-.172-.461-.485-1-.975-.966-.524.029-.765.672-.824,1.2a9.076,9.076,0,0,0,.412,4.167,6.8,6.8,0,0,0-1.279,4.4,12.042,12.042,0,0,0,3.451-.985" transform="translate(-48.909 -91.971)" fill="#e8aa80"/>
      <path id="Trazado_833747" data-name="Trazado 833747" d="M97.64,197.963l1.784,4.279-5.3,4.921-1.2-4.745Z" transform="translate(-47.375 -100.925)" fill="#e8aa80"/>
      <path id="Trazado_833748" data-name="Trazado 833748" d="M95.425,188.113a25.614,25.614,0,0,0,1.613,2.823,17.53,17.53,0,0,1-.642,4.245,4.735,4.735,0,0,1-5.451,2.426c1.436-3.162,2.877-6.333,4.48-9.495" transform="translate(-46.365 -95.903)" fill="#e8aa80"/>
      <path id="Trazado_833749" data-name="Trazado 833749" d="M127.508,213.247l-1.77-9.662s-5.529,2-6.921,3.162-10.622,11.117-11.6,10.877c-1.417-.343-8.8-15.892-8.8-15.892l-7.47,7.578s8.22,24.146,12.764,24.573,21.71-9.392,21.71-9.392Z" transform="translate(-46.365 -102.847)" fill="#fefffe"/>
      <path id="Trazado_833750" data-name="Trazado 833750" d="M149.165,237.21a26.618,26.618,0,0,0,1.5-15.887" transform="translate(-76.047 -112.834)" fill="none" stroke="#e1e8f5" stroke-linecap="round" stroke-miterlimit="10" stroke-width="1"/>
      <path id="Trazado_833751" data-name="Trazado 833751" d="M151.875,246.01a11.064,11.064,0,0,0,3.387-6.407" transform="translate(-77.428 -122.153)" fill="none" stroke="#e1e8f5" stroke-linecap="round" stroke-miterlimit="10" stroke-width="1"/>
      <path id="Trazado_833752" data-name="Trazado 833752" d="M89.225,208.747l8.529-8.563,2.593,4.059-9.441,9.142Z" transform="translate(-45.488 -102.057)" fill="#e1e8f5"/>
      <path id="Trazado_833753" data-name="Trazado 833753" d="M145.846,208.217c.475-2.848,9.706-6.284,9.706-6.284a36.375,36.375,0,0,1,3.588,15.46c0,8.7-.034,68.993-.034,68.993l-17.71-1.206s2.054-62.552,4.451-76.964" transform="translate(-72.085 -102.949)" fill="#fefffe"/>
      <path id="Trazado_833754" data-name="Trazado 833754" d="M167.813,227.167a135.79,135.79,0,0,0,0-14.186c-.309-3.838-3.407-11.6-3.407-11.6a38.317,38.317,0,0,0-3.662,1.353c-1.319.618-2.446,11.681-2.328,11.951s5.372,3,5.372,3-3.466,3.578-3.441,3.97,7.465,5.51,7.465,5.51" transform="translate(-80.759 -102.668)" fill="#e1e8f5"/>
      <rect id="Rectángulo_379634" data-name="Rectángulo 379634" width="11.122" height="2.117" transform="translate(72.979 169.304) rotate(-7.094)" fill="#e1e8f5"/>
      <path id="Trazado_833755" data-name="Trazado 833755" d="M196.3,201.753a63.349,63.349,0,0,1,2.946,13.6c.667,6.127-2.049,70.939-2.049,70.939l14.318-1.784s-.828-73.724-4.363-78.523c-1.809-2.436-10.853-4.23-10.853-4.23" transform="translate(-100.074 -102.857)" fill="#fefffe"/>
      <path id="Trazado_833756" data-name="Trazado 833756" d="M198.736,226.987s.049-9.75-.49-13.563-2.681-11.691-2.681-11.691a20.33,20.33,0,0,1,4.926.824c1.319.618,5.549,10.4,5.431,10.661s-4.975,4.417-4.975,4.417,3.593,3.578,3.564,3.971-5.774,5.382-5.774,5.382" transform="translate(-99.702 -102.847)" fill="#e1e8f5"/>
      <path id="Trazado_833757" data-name="Trazado 833757" d="M214.55,344.131l-.118-2.088-8.877-.529.118,2.093Z" transform="translate(-104.795 -174.109)" fill="#e1e8f5"/>
      <path id="Trazado_833758" data-name="Trazado 833758" d="M442.9,287.407l-3.814,6.51-2.833-4.314-1.3-1.98-.436-.667,4.524-2.853.5.426.583.5Z" transform="translate(-221.523 -144.84)" fill="#e8aa80"/>
      <path id="Trazado_833759" data-name="Trazado 833759" d="M422.5,271.868a5.842,5.842,0,0,1-5.662,6,5.308,5.308,0,0,1-2.172-.461.07.07,0,0,1-.029-.01,6.018,6.018,0,0,1-3.461-5.529,5.843,5.843,0,0,1,5.662-6.01,5.366,5.366,0,0,1,2.73.745,6.056,6.056,0,0,1,2.931,5.26" transform="translate(-209.624 -135.541)" fill="#7bcce0"/>
      <path id="Trazado_833760" data-name="Trazado 833760" d="M422.911,272.082a5.842,5.842,0,0,1-5.662,6,5.309,5.309,0,0,1-2.172-.461.07.07,0,0,1-.029-.01,6.044,6.044,0,0,1-3.064-5.333,5.834,5.834,0,0,1,5.657-6,5.361,5.361,0,0,1,2.333.534,6.064,6.064,0,0,1,2.936,5.265" transform="translate(-210.037 -135.755)" fill="#51a9c9"/>
      <path id="Trazado_833761" data-name="Trazado 833761" d="M411.955,275.853l4.872,1.044.02,1.118-4.877.642Z" transform="translate(-210.021 -140.634)" fill="#7bcce0"/>
      <path id="Trazado_833762" data-name="Trazado 833762" d="M412.935,271.09l4.23,1.539.309-.456-3.466-2.75Z" transform="translate(-210.521 -137.356)" fill="#7bcce0"/>
      <path id="Trazado_833763" data-name="Trazado 833763" d="M421.157,273.233a2.6,2.6,0,0,0-.123,5.162v.015h2.446l.431-5.176Z" transform="translate(-213.493 -139.299)" fill="#2c7fa3"/>
      <path id="Trazado_833764" data-name="Trazado 833764" d="M425.3,273.233a2.588,2.588,0,1,1-2.588,2.588,2.588,2.588,0,0,1,2.588-2.588" transform="translate(-215.507 -139.299)" fill="#6eb2c4"/>
      <path id="Trazado_833765" data-name="Trazado 833765" d="M429.041,280.773c-1.2.333-4.573-1.02-5.387-1.9-.907-.98-1.333-2.083-.485-2.412.417-.162,1.152.3,2.686.108.515-2.172-.794-3.765-.966-4.7-.235-1.265,2.314-1.593,2.8-.52a2.218,2.218,0,0,1,3.049.843,1.7,1.7,0,0,1,1.564.3,1.4,1.4,0,0,1,.456,1.417c.872.113,1.274.456,1.284,1.323.02,1.392-.887,4.147-2.279,4.671a23.532,23.532,0,0,1-2.725.868" transform="translate(-215.504 -138.01)" fill="#e8aa80"/>
      <path id="Trazado_833766" data-name="Trazado 833766" d="M444.712,288.365l-3.814,6.51-2.833-4.309a15.726,15.726,0,0,1,3.863-4.583Z" transform="translate(-223.333 -145.799)" fill="#d68163"/>
      <path id="Trazado_833767" data-name="Trazado 833767" d="M467.681,267.027l-4.446-7.764a11.475,11.475,0,0,0-4.289,4.108c-1.882,2.98-5.3,14.647-7.113,14.862s-9.22-7.108-9.22-7.108-4.328,5.956-4.328,10.5c0,1.235,11.573,10.764,13.97,10.764,5.328,0,11.578-7.671,11.578-7.671Z" transform="translate(-223.445 -132.176)" fill="#e1e8f5"/>
      <path id="Trazado_833768" data-name="Trazado 833768" d="M497.265,243.873s8.372,8.269,9.309,8.314c1.441.074,13.622-6.446,13.622-6.446a53.944,53.944,0,0,1-4.97-3.24c-.779-.672-1.294-4.353-1.525-6.412-.181-1.588-.27-2.838-.27-2.838l-8.617-1.108s-.711,7.814-.848,8.755a7.341,7.341,0,0,1-.265,1.284c-.471,1.2-6.436,1.691-6.436,1.691" transform="translate(-253.514 -118.35)" fill="#e8aa80"/>
      <path id="Trazado_833769" data-name="Trazado 833769" d="M510.925,240.893c5.26.98,8.446-2.8,9.735-4.8-.181-1.588-.27-2.838-.27-2.838l-8.617-1.108s-.191,2.647-.441,5.24c-.128,1.3-.265,2.583-.407,3.51" transform="translate(-260.478 -118.35)" fill="#d68163"/>
      <path id="Trazado_833770" data-name="Trazado 833770" d="M493.482,224.964c.272-1.16,1.743-1.807,3.284-1.445s2.572,1.595,2.3,2.754-1.742,1.807-3.284,1.445-2.572-1.595-2.3-2.754" transform="translate(-251.563 -113.902)" fill="#d68163"/>
      <path id="Trazado_833771" data-name="Trazado 833771" d="M495.48,227.5a.948.948,0,0,1,.681-1.083.512.512,0,0,1,.122-.039,1.128,1.128,0,0,1,.819.1,5.5,5.5,0,0,1,.2,1.294,1.109,1.109,0,0,1-.583.353c-.054.015-.1.02-.157.029a.964.964,0,0,1-1.078-.652" transform="translate(-252.592 -115.392)" fill="#1c5180"/>
      <path id="Trazado_833772" data-name="Trazado 833772" d="M516.137,209.3c0-6.245-3.127-11.573-8.108-11.573s-9.014,1.858-9.014,11.309c0,6.024,1.6,11.686,7.279,12.054,6.059,0,9.843-5.544,9.843-11.789" transform="translate(-254.406 -100.802)" fill="#e8aa80"/>
      <path id="Trazado_833773" data-name="Trazado 833773" d="M514.555,214.792a33.228,33.228,0,0,1-3.123-6.912,35.956,35.956,0,0,1-11.411-.245,46.218,46.218,0,0,0-1.544,5.407,15.687,15.687,0,0,1,.686-8.372,62.482,62.482,0,0,1,15.436-1.534c.074,3.583-.122,7.568-.044,11.657" transform="translate(-253.991 -103.553)" fill="#d68163"/>
      <path id="Trazado_833774" data-name="Trazado 833774" d="M514.642,196.084a1.567,1.567,0,0,0-.554-.382c-2.529-1.314-12.7-4.495-14.029-3.848-1.485.725.078,2.074.078,2.074s-4.9-.529-5.76.613.848,3.4.848,3.4-1.27-.167-1.632.765a9.216,9.216,0,0,0,.554,3.024c.559,2.054,1.387,4.618,1.863,6.044a6.624,6.624,0,0,1,.426-.721,52.716,52.716,0,0,1,.735-5.946c4.049.578,11.995-.1,11.995-.1l2.892,8.465h1.863c0,.01,1.838-11.524.721-13.387" transform="translate(-251.627 -97.766)" fill="#1d0100"/>
      <path id="Trazado_833775" data-name="Trazado 833775" d="M514.1,195.7a49.154,49.154,0,0,0-9.554-2.221,3.771,3.771,0,0,0-1.368,0,1.383,1.383,0,0,0-1.02.838,1.5,1.5,0,0,0,.662,1.471,12.608,12.608,0,0,0-4.5-.554,2.8,2.8,0,0,0-2.162,1.172,2.331,2.331,0,0,0-.2,1.647,2.518,2.518,0,0,0,.784,1.426,1.868,1.868,0,0,0-2.319,1.093,3.08,3.08,0,0,0-.255,1.167,9.219,9.219,0,0,1-.554-3.024c.363-.931,1.632-.765,1.632-.765s-1.711-2.265-.848-3.4,5.76-.613,5.76-.613-1.569-1.348-.078-2.073c1.319-.657,11.485,2.524,14.019,3.838" transform="translate(-251.637 -97.769)" fill="#360f0a"/>
      <path id="Trazado_833776" data-name="Trazado 833776" d="M521.057,219.923a3.03,3.03,0,0,0-3.652-.662" transform="translate(-263.782 -111.605)" fill="none" stroke="#1d0100" stroke-linecap="round" stroke-miterlimit="10" stroke-width="1"/>
      <path id="Trazado_833777" data-name="Trazado 833777" d="M501.465,219.142a1.97,1.97,0,0,1,2.887-.255" transform="translate(-255.655 -111.329)" fill="none" stroke="#1d0100" stroke-linecap="round" stroke-miterlimit="10" stroke-width="1"/>
      <path id="Trazado_833778" data-name="Trazado 833778" d="M514.874,225.483a.732.732,0,1,1-.539.706.64.64,0,0,1,.539-.706" transform="translate(-262.216 -114.955)" fill="#262e4a"/>
      <path id="Trazado_833779" data-name="Trazado 833779" d="M501.4,225.483a.732.732,0,1,1-.539.706.64.64,0,0,1,.539-.706" transform="translate(-255.349 -114.955)" fill="#262e4a"/>
      <path id="Trazado_833780" data-name="Trazado 833780" d="M508.538,227.663a2.226,2.226,0,0,1-.872,1.868,2.914,2.914,0,0,0,.794,1.137" transform="translate(-258.816 -116.066)" fill="none" stroke="#cf5953" stroke-linecap="round" stroke-linejoin="round" stroke-width="1"/>
      <path id="Trazado_833781" data-name="Trazado 833781" d="M510.955,235.448a5.088,5.088,0,0,0,3.613-1.485" transform="translate(-260.493 -119.278)" fill="none" stroke="#cf5953" stroke-linecap="round" stroke-linejoin="round" stroke-width="1"/>
      <circle id="Elipse_5953" data-name="Elipse 5953" cx="2.681" cy="2.681" r="2.681" transform="matrix(0.383, -0.924, 0.924, 0.383, 250.571, 112.469)" fill="none" stroke="#6c3f91" stroke-miterlimit="10" stroke-width="1"/>
      <ellipse id="Elipse_5954" data-name="Elipse 5954" cx="2.466" cy="2.681" rx="2.466" ry="2.681" transform="translate(243.991 108.337)" fill="none" stroke="#6c3f91" stroke-miterlimit="10" stroke-width="1"/>
      <path id="Trazado_833782" data-name="Trazado 833782" d="M510.436,224.157a3.06,3.06,0,0,0-2.7-.074" transform="translate(-258.852 -114.099)" fill="none" stroke="#6c3f91" stroke-miterlimit="10" stroke-width="1"/>
      <path id="Trazado_833783" data-name="Trazado 833783" d="M523.675,224.227a11.992,11.992,0,0,1,5.382-.721" transform="translate(-266.978 -113.905)" fill="none" stroke="#6c3f91" stroke-miterlimit="10" stroke-width="1"/>
      <path id="Trazado_833784" data-name="Trazado 833784" d="M530.316,223.01c1.546-.48,3.1.1,3.471,1.293s-.581,2.552-2.127,3.033-3.1-.1-3.471-1.293.581-2.552,2.127-3.033" transform="translate(-269.238 -113.608)" fill="#e8aa80"/>
      <path id="Trazado_833785" data-name="Trazado 833785" d="M533.983,226.3a1.081,1.081,0,0,1-.343.887,1.6,1.6,0,0,1-.823.368,3.739,3.739,0,0,1-.074-.652,5.606,5.606,0,0,1,.123-1.3,4.827,4.827,0,0,1,.157-.6,1.23,1.23,0,0,1,.657.412,1.479,1.479,0,0,1,.3.892" transform="translate(-271.6 -114.705)" fill="#d68163"/>
      <path id="Trazado_833786" data-name="Trazado 833786" d="M534.566,226.715a.952.952,0,0,1-.922.887.56.56,0,0,1-.128.01,1.13,1.13,0,0,1-.774-.294,5.606,5.606,0,0,1,.123-1.3,1.118,1.118,0,0,1,.652-.2c.054,0,.108,0,.162.01a.961.961,0,0,1,.887.892" transform="translate(-271.6 -115.123)" fill="#1c5180"/>
      <path id="Trazado_833787" data-name="Trazado 833787" d="M518.041,255.87l-3.5-2.387-9.392,9.2c-1.245-1.721-3.667-4.549-4.122-9L495.6,255.15l-1.74,40.234,23.852-.706Z" transform="translate(-251.775 -129.23)" fill="#53aedb"/>
      <path id="Trazado_833788" data-name="Trazado 833788" d="M516.855,262.077c3.181-3.181,6.956-7.613,8.132-9.784l1.686.583-1.441,9.23c-2.02-1.211-5.024-1.471-8.377-.029" transform="translate(-263.501 -128.623)" fill="#78c8e3"/>
      <path id="Trazado_833789" data-name="Trazado 833789" d="M509.983,262.49a48.39,48.39,0,0,1-3.588-9.387l-2.779.956-.24,7.995a6.292,6.292,0,0,1,3.314-.588,21.508,21.508,0,0,1,3.294,1.025" transform="translate(-256.629 -129.036)" fill="#78c8e3"/>
      <path id="Trazado_833790" data-name="Trazado 833790" d="M482.715,391.293l33.911.5,1.5-24.808L483,366.843Z" transform="translate(-246.096 -187.022)" fill="#a1a7bf"/>
      <path id="Trazado_833791" data-name="Trazado 833791" d="M492.9,252.613s-2.049,7.99-3.377,14.735c-1.436,7.3-2.564,14.456-3.961,26.891-2.132,18.995,0,41.278,0,41.278l-7.961.338s.833-74.155,4.387-78.978c1.814-2.461,10.911-4.265,10.911-4.265" transform="translate(-243.491 -128.786)" fill="#fefffe"/>
      <path id="Trazado_833792" data-name="Trazado 833792" d="M498.893,252.3s-2.676,11.823-3.515,16.142-2.02,9.642-2.02,9.642-4.828-6.01-4.333-6.985,3.608-3.176,3.608-3.176-4.475-3.235-3.867-4.127,4.279-9.519,5.863-10.612c.9-.618,4.265-.882,4.265-.882" transform="translate(-249.152 -128.628)" fill="#e1e8f5"/>
      <rect id="Rectángulo_379635" data-name="Rectángulo 379635" width="25.431" height="2.554" transform="translate(240.835 215.785)" fill="#89512c"/>
      <path id="Trazado_833793" data-name="Trazado 833793" d="M491.193,388.157a1.112,1.112,0,0,1,0,.127l-.23,3.265-1.926,27.588a1.842,1.842,0,0,1-3.676-.123,1.126,1.126,0,0,1,0-.127l1.917-27.342.245-3.51a1.839,1.839,0,0,1,3.671.123" transform="translate(-247.442 -196.97)" fill="#5e2c1f"/>
      <path id="Trazado_833794" data-name="Trazado 833794" d="M493.192,388.163a1.112,1.112,0,0,1,0,.127l-.23,3.265h-3.681l.245-3.51a1.839,1.839,0,0,1,3.671.118" transform="translate(-249.44 -196.975)" fill="#451e18"/>
      <path id="Trazado_833795" data-name="Trazado 833795" d="M518.1,388.087v30.921a1.766,1.766,0,0,1-.539,1.274,1.85,1.85,0,0,1-1.3.529,1.819,1.819,0,0,1-1.838-1.8V388.087a1.777,1.777,0,0,1,.539-1.274,1.859,1.859,0,0,1,1.3-.529,1.826,1.826,0,0,1,1.838,1.8" transform="translate(-262.262 -196.933)" fill="#5e2c1f"/>
      <path id="Trazado_833796" data-name="Trazado 833796" d="M518.1,388.087v3.421h-3.676v-3.421a1.777,1.777,0,0,1,.539-1.274,1.859,1.859,0,0,1,1.3-.529,1.826,1.826,0,0,1,1.838,1.8" transform="translate(-262.262 -196.933)" fill="#451e18"/>
      <path id="Trazado_833797" data-name="Trazado 833797" d="M543.928,419a1.839,1.839,0,0,1-3.672.123l-1.926-27.588-.23-3.265a1.113,1.113,0,0,1,0-.127,1.839,1.839,0,0,1,3.671-.122l.245,3.51,1.912,27.342a1.155,1.155,0,0,1,0,.127" transform="translate(-274.33 -196.964)" fill="#5e2c1f"/>
      <path id="Trazado_833798" data-name="Trazado 833798" d="M542.012,391.539H538.33l-.23-3.265a1.113,1.113,0,0,1,0-.127,1.839,1.839,0,0,1,3.671-.122Z" transform="translate(-274.33 -196.964)" fill="#451e18"/>
      <path id="Trazado_833799" data-name="Trazado 833799" d="M483.055,380.692v-2.76a2.54,2.54,0,0,1,2.539-2.539H513.28a2.54,2.54,0,0,1,2.539,2.539v2.76a2.54,2.54,0,0,1-2.539,2.539H485.594a2.54,2.54,0,0,1-2.539-2.539" transform="translate(-246.269 -191.381)" fill="#89512c"/>
      <path id="Trazado_833800" data-name="Trazado 833800" d="M497.535,229.5s3.029,14.72,8.269,14.72c4.779,0,8.475-8.686,9.578-14.985" transform="translate(-253.651 -116.867)" fill="none" stroke="#15325e" stroke-miterlimit="10" stroke-width="1"/>
      <path id="Trazado_833801" data-name="Trazado 833801" d="M469.8,262.3c-2.343,16.661-10.034,25.833-19.754,25.833-11.941,0-22.95-12.559-22.95-12.559" transform="translate(-217.74 -133.726)" fill="none" stroke="#15325e" stroke-linecap="round" stroke-miterlimit="10" stroke-width="1"/>
      <path id="Trazado_833802" data-name="Trazado 833802" d="M512.985,261.577l.225-1.554.976.039-.25,1.657Z" transform="translate(-261.528 -132.564)" fill="#2e5785"/>
      <path id="Trazado_833803" data-name="Trazado 833803" d="M428.274,446.624l21.053-.279c-.064-.676-.157-1.3-.27-1.892a43.058,43.058,0,0,0-2.137-6.554l-2.176-.985s-2.833,1.064-9.387,2.98c-4.554,1.328-6.265,3.147-6.872,4.559a3.21,3.21,0,0,0-.211,2.171" transform="translate(-218.292 -222.745)" fill="#448fc2"/>
      <path id="Trazado_833804" data-name="Trazado 833804" d="M428.274,454.465l21.053-.279c-.064-.677-.157-1.3-.27-1.892H428.485a3.21,3.21,0,0,0-.211,2.172" transform="translate(-218.292 -230.586)" fill="#adcddb"/>
      <path id="Trazado_833805" data-name="Trazado 833805" d="M464.573,337.533s-24.612,2.966-28.019,8.789,3.681,42.18,3.681,42.18l12.117-.064-1.025-29.48,23.22-13.387Z" transform="translate(-222.091 -172.08)" fill="#08183d"/>
      <path id="Trazado_833806" data-name="Trazado 833806" d="M441.974,448.254l21.053-.279c-.064-.676-.157-1.3-.27-1.892a43.068,43.068,0,0,0-2.137-6.554l-2.176-.985s-2.833,1.064-9.387,2.98c-4.554,1.328-6.265,3.147-6.872,4.559a3.21,3.21,0,0,0-.211,2.172" transform="translate(-225.276 -223.576)" fill="#53aedb"/>
      <path id="Trazado_833807" data-name="Trazado 833807" d="M441.974,456.095l21.053-.279c-.064-.676-.157-1.3-.27-1.892H442.185a3.21,3.21,0,0,0-.211,2.172" transform="translate(-225.276 -231.417)" fill="#cff3fc"/>
      <path id="Trazado_833808" data-name="Trazado 833808" d="M498.036,336.913s2.461,17.715-1.868,19.357-30.837,1.872-30.837,1.872l1.417,31.034h-12.22s-6.559-35.842-1.613-41.577,24.1-5.4,23.789-5.475c-2.642-.667-4.809-4.907-4.809-4.907Z" transform="translate(-229.962 -171.764)" fill="#0f2752"/>
      <path id="Trazado_833809" data-name="Trazado 833809" d="M542.224,258.117c-.387-1.343-10.671-5.524-10.671-5.524a36.593,36.593,0,0,0-3.608,15.549c0,8.745.034,69.4.034,69.4l17.813-1.211s-.828-68.743-3.569-78.209" transform="translate(-269.155 -128.776)" fill="#fefffe"/>
      <path id="Trazado_833810" data-name="Trazado 833810" d="M527.734,277.979a135.954,135.954,0,0,1,0-14.269c.314-3.863,3.426-11.666,3.426-11.666a38.12,38.12,0,0,1,3.681,1.363c1.323.622,1.48,11.387,1.363,11.657s-4.422,3.377-4.422,3.377,3.485,3.6,3.461,3.995-7.51,5.544-7.51,5.544" transform="translate(-268.944 -128.496)" fill="#e1e8f5"/>
      <rect id="Rectángulo_379636" data-name="Rectángulo 379636" width="2.132" height="11.185" transform="matrix(0.123, -0.992, 0.992, 0.123, 261.564, 195.28)" fill="#e1e8f5"/>
      <path id="Trazado_833811" data-name="Trazado 833811" d="M508.361,325s-4.47.627-4.245,1.907,5.485.843,5.485.843Z" transform="translate(-257.003 -165.692)" fill="#d68163"/>
      <path id="Trazado_833812" data-name="Trazado 833812" d="M513.631,318.979a1.539,1.539,0,0,0-2.431.029l-1.647,1.5a4.007,4.007,0,0,0-1.412,1.946,1.463,1.463,0,0,0,1.392,1.8,1.375,1.375,0,0,0,.108,1.319,1.57,1.57,0,0,0,1.265.622,1.3,1.3,0,0,0,.289,1.167.925.925,0,0,0,1.2.25,1.5,1.5,0,0,0,1.23,1.353,1.985,1.985,0,0,0,1.784-.48c1.98,1,4-.554,4-.554s.74-2.892,1.118-4.191c-.49-.289-5.152-3.51-6.9-4.76" transform="translate(-259.041 -162.329)" fill="#e8aa80"/>
      <path id="Trazado_833813" data-name="Trazado 833813" d="M511.225,327.112a13.459,13.459,0,0,1,2.642-2.529" transform="translate(-260.631 -165.478)" fill="none" stroke="#cf5953" stroke-linecap="round" stroke-linejoin="round" stroke-width="1"/>
      <path id="Trazado_833814" data-name="Trazado 833814" d="M513.975,331.392a11.981,11.981,0,0,1,2.3-2.319" transform="translate(-262.033 -167.767)" fill="none" stroke="#cf5953" stroke-linecap="round" stroke-linejoin="round" stroke-width="1"/>
      <path id="Trazado_833815" data-name="Trazado 833815" d="M516.865,334.538a13.706,13.706,0,0,1,1.667-1.985" transform="translate(-263.506 -169.541)" fill="none" stroke="#cf5953" stroke-linecap="round" stroke-linejoin="round" stroke-width="1"/>
      <path id="Trazado_833816" data-name="Trazado 833816" d="M521.944,337.12a1.3,1.3,0,0,1-.569-.907" transform="translate(-265.805 -171.407)" fill="none" stroke="#cf5953" stroke-linecap="round" stroke-linejoin="round" stroke-width="1"/>
      <path id="Trazado_833817" data-name="Trazado 833817" d="M520.868,337.533a1.748,1.748,0,0,1-.873.319" transform="translate(-265.102 -172.08)" fill="none" stroke="#cf5953" stroke-linecap="round" stroke-linejoin="round" stroke-width="1"/>
      <path id="Trazado_833818" data-name="Trazado 833818" d="M529.247,327.245l4.74-.382,1,6.147-6.362-.216Z" transform="translate(-269.502 -166.64)" fill="#e8aa80"/>
      <path id="Trazado_833819" data-name="Trazado 833819" d="M538.633,271.837l2.97-12.054s5.367,3.171,6.265,4.426c1.779,2.485,11.147,28.725,8.2,31.676s-21.676,5.309-21.676,5.309l-1.833-8.529s11.382-1.789,11.313-3.348-5.235-17.48-5.235-17.48" transform="translate(-271.505 -132.442)" fill="#fefffe"/>
      <path id="Trazado_833820" data-name="Trazado 833820" d="M542.6,272.043a24.5,24.5,0,0,0-.578,14.372,45.879,45.879,0,0,0,2.75,7.25,123.03,123.03,0,0,1-12.235,5" transform="translate(-271.495 -138.692)" fill="none" stroke="#e1e8f5" stroke-linecap="round" stroke-miterlimit="10" stroke-width="1"/>
      <path id="Trazado_833821" data-name="Trazado 833821" d="M535.445,340.043a18.593,18.593,0,0,0,.809,2.451,69.915,69.915,0,0,0,11.97-2.186" transform="translate(-272.979 -173.359)" fill="none" stroke="#e1e8f5" stroke-linecap="round" stroke-miterlimit="10" stroke-width="1"/>
      <path id="Trazado_833822" data-name="Trazado 833822" d="M549.56,303.72a6.8,6.8,0,0,1-3.765-3.147" transform="translate(-278.255 -153.237)" fill="none" stroke="#e1e8f5" stroke-linecap="round" stroke-miterlimit="10" stroke-width="1"/>
      <path id="Trazado_833823" data-name="Trazado 833823" d="M469.034,120.163a17.549,17.549,0,1,1-17.549,17.549,17.548,17.548,0,0,1,17.549-17.549" transform="translate(-230.174 -61.261)" fill="#82ced8"/>
      <path id="Trazado_833824" data-name="Trazado 833824" d="M463.467,143.2c4.157-6.774,11.264,2.1,11.264,2.1s7.51-7.941,11.264-2.1c4.539,7.068-11.456,15.843-11.456,15.843s-15.4-8.794-11.073-15.843" transform="translate(-235.892 -71.707)" fill="#ba2f54"/>
      <path id="Trazado_833825" data-name="Trazado 833825" d="M454.935,150.936h9.152l1.412-5.622,2.838,11.3,2.456-13.784,2.059,12.353,3.211-7.745,1.4,3.52h7.466" transform="translate(-231.933 -72.819)" fill="none" stroke="#fff0f4" stroke-miterlimit="10" stroke-width="1"/>
      <path id="Trazado_833826" data-name="Trazado 833826" d="M230.314,46.693a17.549,17.549,0,1,1-17.549,17.549,17.548,17.548,0,0,1,17.549-17.549" transform="translate(-108.471 -23.805)" fill="#82ced8"/>
      <path id="Trazado_833827" data-name="Trazado 833827" d="M244.237,55.56a4.919,4.919,0,0,1,6.309,2.926l4.632,12.652a4.917,4.917,0,1,1-9.235,3.382l-4.632-12.652a4.914,4.914,0,0,1,2.926-6.309" transform="translate(-122.87 -28.172)" fill="#941b3f"/>
      <path id="Trazado_833828" data-name="Trazado 833828" d="M244.237,55.56a4.919,4.919,0,0,1,6.309,2.926l2.319,6.328L243.629,68.2l-2.319-6.328a4.914,4.914,0,0,1,2.926-6.309" transform="translate(-122.87 -28.172)" fill="#ebe1e2"/>
      <path id="Trazado_833829" data-name="Trazado 833829" d="M222.7,71.674a4.911,4.911,0,0,1,6.951,0L239.18,81.2a4.915,4.915,0,0,1-6.951,6.951L222.7,78.625a4.92,4.92,0,0,1,0-6.951" transform="translate(-112.803 -35.806)" fill="#ba2f54"/>
      <path id="Trazado_833830" data-name="Trazado 833830" d="M222.7,71.674a4.911,4.911,0,0,1,6.951,0l4.765,4.765-6.951,6.951L222.7,78.625a4.92,4.92,0,0,1,0-6.951" transform="translate(-112.803 -35.806)" fill="#fff"/>
      <path id="Trazado_833831" data-name="Trazado 833831" d="M458.474,10.893a17.549,17.549,0,1,1-17.549,17.549,17.548,17.548,0,0,1,17.549-17.549" transform="translate(-224.791 -5.553)" fill="#82ced8"/>
      <path id="Trazado_833832" data-name="Trazado 833832" d="M476.333,25.843V38.7a8.177,8.177,0,0,1-3.583,6.769L468.274,48.5a2.225,2.225,0,0,1-2.451.034L461,45.441a8.186,8.186,0,0,1-3.77-6.887V25.843Z" transform="translate(-233.106 -13.175)" fill="#fff"/>
      <path id="Trazado_833833" data-name="Trazado 833833" d="M486.264,25.843V38.7a8.177,8.177,0,0,1-3.583,6.769L478.205,48.5a2.2,2.2,0,0,1-1.49.373V25.843Z" transform="translate(-243.037 -13.175)" fill="#ebe1e2"/>
      <rect id="Rectángulo_379637" data-name="Rectángulo 379637" width="11.627" height="3.593" transform="translate(227.869 21.545)" fill="#ba2f54"/>
      <rect id="Rectángulo_379638" data-name="Rectángulo 379638" width="3.593" height="11.627" transform="translate(231.89 17.528)" fill="#ba2f54"/>
    </g>
  </g>
</svg>
