<svg id="Grupo_1081081" data-name="Grupo 1081081" xmlns="http://www.w3.org/2000/svg" xmlns:xlink="http://www.w3.org/1999/xlink" width="647.14" height="678.481" viewBox="0 0 647.14 678.481">
  <defs>
    <clipPath id="clip-path">
      <rect id="Rectángulo_379595" data-name="Rectángulo 379595" width="647.14" height="678.481" fill="none"/>
    </clipPath>
    <clipPath id="clip-path-2">
      <rect id="Rectángulo_379594" data-name="Rectángulo 379594" width="647.139" height="678.482" fill="none"/>
    </clipPath>
    <clipPath id="clip-path-3">
      <rect id="Rectángulo_379591" data-name="Rectángulo 379591" width="80.909" height="234.359" fill="none"/>
    </clipPath>
  </defs>
  <g id="Grupo_1081080" data-name="Grupo 1081080" clip-path="url(#clip-path)">
    <g id="Grupo_1081079" data-name="Grupo 1081079" transform="translate(0 0)">
      <g id="Grupo_1081078" data-name="Grupo 1081078" clip-path="url(#clip-path-2)">
        <path id="Trazado_833525" data-name="Trazado 833525" d="M5.1,918.511l216.858-1.469,57.8-.022,19.15-.009,57.915-.022,264.591-.094s60.52-101.281-4.126-197.476c-67.026-99.736-101.055-14.588-150.55-182.644C358.112,167.92-67.513,412.812,66.973,713.527,115.4,821.8-28.346,764.253,5.1,918.511" transform="translate(0 -240.03)" fill="#e6ebfb"/>
        <path id="Trazado_833526" data-name="Trazado 833526" d="M444.3,1012.11s9.233,27.594,3.992,29-8.071-31.49-8.071-31.49-28.073-9.04-38.267-6.618c0,0,20.139,25.414,14.715,25.482s-27.609-25.4-27.609-25.4-27.684-1.283-29.814,15.311,5.97,23.629,10.107,24.079,29.754-3.417,29.546.007-16.8,11.143-26.882,9.474c0,0,14.29,24.861,28.1,21.6s16.954-12.522,25.527-14.382,15.227-.4,11.216,2.531-18.892,3.38-25.071,10.294-11.341,11.36,2.024,12.237,36.465-4,39.754-14.642l.412-1.331a5.333,5.333,0,0,1-.412,1.331c2.591,1.069,7.1,7.244,10.3,12.018.475.822,1.2,1.95,2.265,3.471.441.693.8,1.261,1.04,1.658,6.16,10.833,6.458,30.964,6.458,30.964l2.879.364c3.407-20.8-9.643-35.7-9.643-35.7-8.788-12.034-10.015-23.412-10.015-23.412s23.068-17.439,8.788-34.83c0,0-10.938-10.38-21.349-12" transform="translate(-245.43 -685.605)" fill="#c6dda2"/>
        <path id="Trazado_833527" data-name="Trazado 833527" d="M456.442,1485.223s42.534,20.159,38.294,27.842-45.776-25.88-45.776-25.88-42.008,22.613-50.608,37.218c0,0,52.215,4.993,46.214,11.4s-60.575,3.73-60.575,3.73-32.524,30.853-15.557,51.936,34.252,19.52,39.413,15.2,29.362-38.534,33.124-34.454-5.837,32.089-19.079,41.974c0,0,45.014,11.2,56.694-8.571s4.4-33.809,11.836-45.894,16.6-18.207,15.523-10.245-17.232,25.824-16.094,40.781.539,25.96,16.542,11.354,36.2-47.018,27.478-62.781l-1.091-1.971a8.617,8.617,0,0,1,1.091,1.971c4.151-1.824,16.413-.167,25.567,1.451,1.491.367,3.623.781,6.587,1.248h0c1.3.263,2.362.486,3.1.644,19.541,4.957,43.355,27.172,43.355,27.172l3.651-2.951c-20.442-27.285-52.453-28.768-52.453-28.768-23.887-3.238-38.533-14.558-38.533-14.558s5.515-46.453-30.776-49.289c0,0-24.366,1.124-37.928,11.449" transform="translate(-248.597 -1007.822)" fill="#cadeb4"/>
        <path id="Trazado_833528" data-name="Trazado 833528" d="M1295.595,1255.485c.791-24.741-39.95-29.379-39.95-29.379s-38.4,31.991-46.305,30.616,27.488-33.761,27.488-33.761c-14.322-5.936-57.455.666-57.455.666s-11.87,47.38-19.2,44.1,12.651-41.417,12.651-41.417c-15.59-.078-34.009,12.512-34.009,12.512-24.951,22.045,4.646,52.946,4.646,52.946s-4.468,16.331-20.136,31.843h0a57.593,57.593,0,0,0-7.376,7.865l3.893,1.189q.956-1.421,1.98-2.7a.025.025,0,0,1,.013-.016l.03-.036c.451-.521,1.1-1.259,1.892-2.156l0,0s0,0,0,0c1.9-1.966,3.23-3.44,4.117-4.527a.053.053,0,0,0,.007-.01c5.8-6.221,13.841-14.177,17.876-15.128a7.883,7.883,0,0,1-.288-2.04l.288,2.04c2.3,16.317,34.9,28.877,54.628,30.74s13.236-5.846,5.835-17.4-29.032-15.71-34.2-20.933,4.892-5.792,16.979-1.059,14.495,19,33.907,27.012,46.134-24.943,46.134-24.943c-15.114.067-37.542-15.111-37.04-20.163s37.012,6.622,43.161,6.939,19.636-8.055,20.427-32.8" transform="translate(-763.129 -834.613)" fill="#cadeb4"/>
        <path id="Trazado_833529" data-name="Trazado 833529" d="M1315.329,1204.454c-.012-.036-.024-.076-.036-.112.032-.024.048.012.036.112" transform="translate(-899.447 -823.569)" fill="#fff"/>
        <path id="Trazado_833530" data-name="Trazado 833530" d="M577.323,639.335c-.595.12-6.626-13.559-21.689-7.93,0,0-2.378-15.065-19.934-14.188C521.446,617.929,520,633.534,520,633.534s-12.55-2.642-17.6,5.8Z" transform="translate(-343.56 -422.051)" fill="#fff"/>
        <path id="Trazado_833531" data-name="Trazado 833531" d="M510.608,647.008a33.375,33.375,0,0,0-30.557-33.253,35.151,35.151,0,1,1,0,66.507,33.375,33.375,0,0,0,30.557-33.254" transform="translate(-328.277 -418.411)" fill="#afcdfb"/>
        <path id="Trazado_833532" data-name="Trazado 833532" d="M336.473,712.767c-1.087.219-12.112-24.783-39.643-14.493,0,0-4.348-27.534-36.435-25.932-26.052,1.3-28.686,29.823-28.686,29.823s-22.938-4.829-32.176,10.6Z" transform="translate(-136.448 -459.726)" fill="#fff"/>
        <path id="Trazado_833533" data-name="Trazado 833533" d="M168.7,1982.289a28.679,28.679,0,0,0-14.814-25.112V1953.6H140.013a28.69,28.69,0,0,0,0,57.38h13.876V2007.4a28.68,28.68,0,0,0,14.814-25.113" transform="translate(-76.127 -1335.944)" fill="#f99746"/>
        <path id="Trazado_833534" data-name="Trazado 833534" d="M155.211,1982.289a28.69,28.69,0,1,1,28.69,28.69,28.69,28.69,0,0,1-28.69-28.69" transform="translate(-106.139 -1335.944)" fill="#ef7e29"/>
        <path id="Trazado_833535" data-name="Trazado 833535" d="M308.985,2030.75h-89.32a11.69,11.69,0,1,1,0-23.38h89.32a11.69,11.69,0,0,1,0,23.38" transform="translate(-142.221 -1372.714)" fill="#ea6c2d"/>
        <path id="Trazado_833536" data-name="Trazado 833536" d="M404.626,1982.289a28.678,28.678,0,0,0-14.814-25.112V1953.6H375.936a28.69,28.69,0,0,0,0,57.38h13.876V2007.4a28.68,28.68,0,0,0,14.814-25.113" transform="translate(-237.46 -1335.944)" fill="#f99746"/>
        <path id="Trazado_833537" data-name="Trazado 833537" d="M391.134,1982.289a28.69,28.69,0,1,1,28.69,28.69,28.69,28.69,0,0,1-28.69-28.69" transform="translate(-267.472 -1335.944)" fill="#ef7e29"/>
        <path id="Trazado_833538" data-name="Trazado 833538" d="M446.935,2017.562a12.382,12.382,0,1,1,12.383,12.382,12.382,12.382,0,0,1-12.383-12.382" transform="translate(-305.631 -1371.217)" fill="#f99746"/>
        <path id="Trazado_833539" data-name="Trazado 833539" d="M1262.909,23.335c3.3,8.7,31.594,31.542,31.594,31.542s9.221-7.492,17.762-15.561c6.392-5.972,12.365-12.26,13.78-15.98,3.353-8.645-.21-21.01-12.574-23.105-12.313-2.1-18.967,10.793-18.967,10.793s-6.654-12.89-19.019-10.793a16.816,16.816,0,0,0-5.659,1.992c-7.7,4.3-9.64,13.989-6.916,21.114" transform="translate(-862.827 0.001)" fill="#ef9d89"/>
        <path id="Trazado_833540" data-name="Trazado 833540" d="M1255.121,61.969,1252.2,46.648l-1.273,6.545h-17.2V52.158h16.343l2.137-10.985,3.051,16.021,1.373-5.408h2.969l2.026-9.432,2.593,14.381,1.363-5.507h6.133l2.257-7.4,1.975,12.959,1.587-5.558h5.075l1.49-8.126,3.2,12.784,1.16-4.658h6.563l.343,3.881,3.614-14.131,2.376,10.287h10.673V52.3h-11.5l-1.6-6.944-4.06,15.875-.794-8.968h-4.807l-1.966,7.894-3.049-12.171-.784,4.277h-5.157l-2.676,9.371-2-13.152-1.153,3.782H1266.4l-2.332,9.422-2.523-13.99-1.1,5.126h-3Z" transform="translate(-843.674 -28.023)" fill="#fff"/>
        <path id="Trazado_833541" data-name="Trazado 833541" d="M1262.909,23.335c3.3,8.7,31.594,31.542,31.594,31.542s9.221-7.492,17.762-15.561c6.392-5.972,12.365-12.26,13.78-15.98,3.353-8.645-.21-21.01-12.574-23.105-12.313-2.1-18.967,10.793-18.967,10.793s-6.654-12.89-19.019-10.793a16.816,16.816,0,0,0-5.659,1.992c-7.7,4.3-9.64,13.989-6.916,21.114" transform="translate(-862.827 0.001)" fill="#ef9d89"/>
        <path id="Trazado_833542" data-name="Trazado 833542" d="M1255.121,61.969,1252.2,46.648l-1.273,6.545h-17.2V52.158h16.343l2.137-10.985,3.051,16.021,1.373-5.408h2.969l2.026-9.432,2.593,14.381,1.363-5.507h6.133l2.257-7.4,1.975,12.959,1.587-5.558h5.075l1.49-8.126,3.2,12.784,1.16-4.658h6.563l.343,3.881,3.614-14.131,2.376,10.287h10.673V52.3h-11.5l-1.6-6.944-4.06,15.875-.794-8.968h-4.807l-1.966,7.894-3.049-12.171-.784,4.277h-5.157l-2.676,9.371-2-13.152-1.153,3.782H1266.4l-2.332,9.422-2.523-13.99-1.1,5.126h-3Z" transform="translate(-843.674 -28.023)" fill="#fff"/>
        <path id="Trazado_833543" data-name="Trazado 833543" d="M418.824,262.9h-24.47l-12.235-21.192,12.235-21.192h24.47l12.235,21.192Zm-23.546-1.6H417.9l11.311-19.59L417.9,222.121H395.279l-11.311,19.591Z" transform="translate(-261.307 -150.8)" fill="#cadeb4"/>
        <path id="Trazado_833544" data-name="Trazado 833544" d="M225.606,391.5l-1.386-.8L235.762,370.7l-11.311-19.59H201.367v-1.6h24.008L237.61,370.7Z" transform="translate(-137.703 -239.009)" fill="#cadeb4"/>
        <path id="Trazado_833545" data-name="Trazado 833545" d="M198.411,262.9h-24.47l-12-20.791,1.386-.8L174.865,261.3h22.621l11.311-19.59-11.311-19.591H174.4v-1.6h24.008l12.235,21.192Z" transform="translate(-110.739 -150.799)" fill="#cadeb4"/>
        <path id="Trazado_833546" data-name="Trazado 833546" d="M505.09,327l-12-20.791,12.235-21.192h24.47l12,20.792-1.386.8-11.542-19.991H506.246l-11.311,19.591L506.477,326.2Z" transform="translate(-337.191 -194.905)" fill="#cadeb4"/>
        <path id="Trazado_833547" data-name="Trazado 833547" d="M308.883,327.4H284.875v-1.6h23.084l11.311-19.59-11.311-19.591H285.337L273.8,306.609l-1.386-.8,12-20.791h24.47l12.235,21.192Z" transform="translate(-186.284 -194.905)" fill="#cadeb4"/>
        <path id="Trazado_833548" data-name="Trazado 833548" d="M529.329,198.407H505.321l-12.235-21.192,12.235-21.192h24.008v1.6H506.245l-11.311,19.591,11.311,19.591h23.084Z" transform="translate(-337.191 -106.695)" fill="#cadeb4"/>
        <path id="Trazado_833549" data-name="Trazado 833549" d="M379.385,281.627a2.068,2.068,0,1,1,2.068,2.068,2.068,2.068,0,0,1-2.068-2.068" transform="translate(-259.438 -191.173)" fill="#cadeb4"/>
        <path id="Trazado_833550" data-name="Trazado 833550" d="M305.534,281.627A2.068,2.068,0,1,1,307.6,283.7a2.068,2.068,0,0,1-2.068-2.068" transform="translate(-208.936 -191.173)" fill="#cadeb4"/>
        <path id="Trazado_833551" data-name="Trazado 833551" d="M305.534,411.435A2.068,2.068,0,1,1,307.6,413.5a2.068,2.068,0,0,1-2.068-2.068" transform="translate(-208.936 -279.94)" fill="#cadeb4"/>
        <path id="Trazado_833552" data-name="Trazado 833552" d="M268.4,475.33a2.068,2.068,0,1,1,2.068,2.068,2.068,2.068,0,0,1-2.068-2.068" transform="translate(-183.54 -323.634)" fill="#cadeb4"/>
        <path id="Trazado_833553" data-name="Trazado 833553" d="M379.385,411.435a2.068,2.068,0,1,1,2.068,2.068,2.068,2.068,0,0,1-2.068-2.068" transform="translate(-259.438 -279.94)" fill="#cadeb4"/>
        <path id="Trazado_833554" data-name="Trazado 833554" d="M416.1,346.532a2.068,2.068,0,1,1,2.068,2.068,2.068,2.068,0,0,1-2.068-2.068" transform="translate(-284.545 -235.557)" fill="#cadeb4"/>
        <path id="Trazado_833555" data-name="Trazado 833555" d="M489.318,346.532a2.068,2.068,0,1,1,2.068,2.068,2.068,2.068,0,0,1-2.068-2.068" transform="translate(-334.614 -235.557)" fill="#cadeb4"/>
        <path id="Trazado_833556" data-name="Trazado 833556" d="M270.436,346.532A2.068,2.068,0,1,1,272.5,348.6a2.068,2.068,0,0,1-2.068-2.068" transform="translate(-184.934 -235.557)" fill="#cadeb4"/>
        <path id="Trazado_833557" data-name="Trazado 833557" d="M194.826,346.532a2.068,2.068,0,1,1,2.068,2.068,2.068,2.068,0,0,1-2.068-2.068" transform="translate(-133.229 -235.557)" fill="#cadeb4"/>
        <path id="Trazado_833558" data-name="Trazado 833558" d="M158.675,285a2.068,2.068,0,1,1,2.068,2.068A2.068,2.068,0,0,1,158.675,285" transform="translate(-108.508 -193.482)" fill="#cadeb4"/>
        <path id="Trazado_833559" data-name="Trazado 833559" d="M197.078,218.58a2.068,2.068,0,1,1,2.068,2.068,2.068,2.068,0,0,1-2.068-2.068" transform="translate(-134.769 -148.059)" fill="#cadeb4"/>
        <path id="Trazado_833560" data-name="Trazado 833560" d="M489.318,218.58a2.068,2.068,0,1,1,2.068,2.068,2.068,2.068,0,0,1-2.068-2.068" transform="translate(-334.614 -148.059)" fill="#cadeb4"/>
        <path id="Trazado_833561" data-name="Trazado 833561" d="M416.1,218.58a2.068,2.068,0,1,1,2.068,2.068,2.068,2.068,0,0,1-2.068-2.068" transform="translate(-284.545 -148.059)" fill="#cadeb4"/>
        <path id="Trazado_833562" data-name="Trazado 833562" d="M526.243,283.076a2.068,2.068,0,1,1,2.068,2.068,2.068,2.068,0,0,1-2.068-2.068" transform="translate(-359.865 -192.164)" fill="#cadeb4"/>
        <path id="Trazado_833563" data-name="Trazado 833563" d="M601.18,283.076a2.068,2.068,0,1,1,2.068,2.068,2.068,2.068,0,0,1-2.068-2.068" transform="translate(-411.11 -192.164)" fill="#cadeb4"/>
        <path id="Trazado_833564" data-name="Trazado 833564" d="M638.587,346.939a2.068,2.068,0,1,1,2.068,2.068,2.068,2.068,0,0,1-2.068-2.068" transform="translate(-436.69 -235.835)" fill="#cadeb4"/>
        <path id="Trazado_833565" data-name="Trazado 833565" d="M601.18,153.971a2.068,2.068,0,1,1,2.068,2.068,2.068,2.068,0,0,1-2.068-2.068" transform="translate(-411.11 -103.877)" fill="#cadeb4"/>
        <path id="Trazado_833566" data-name="Trazado 833566" d="M526.243,411.435a2.068,2.068,0,1,1,2.068,2.068,2.068,2.068,0,0,1-2.068-2.068" transform="translate(-359.865 -279.94)" fill="#cadeb4"/>
        <path id="Trazado_833567" data-name="Trazado 833567" d="M1508.524,1365.563a59.894,59.894,0,0,1-13.45-10.7c-8.759-9.234-13.21-19.971-12.875-31.051.473-15.615,7.175-24.885,12.713-29.911a33.707,33.707,0,0,1,24.644-8.936c16.79,1.119,16.249,19.028,16.242,19.209l-2-.082c.026-.675.449-16.141-14.375-17.13a31.717,31.717,0,0,0-23.166,8.421c-5.252,4.766-11.606,13.577-12.058,28.49-.773,25.52,25.018,39.79,25.278,39.931Zm26.273-61.43-1-.04h0Z" transform="translate(-1013.571 -878.661)" fill="#ef7e29"/>
        <path id="Trazado_833568" data-name="Trazado 833568" d="M1589.862,1448.389v167.686a14.131,14.131,0,0,1-14.133,14.133h-70.2a16.7,16.7,0,0,1-16.692-16.692v-164.6a33.768,33.768,0,0,1,23.065-32.025,16.968,16.968,0,0,0,11.4-15.257l.3-5.787h31.477l.453,5.655a17.925,17.925,0,0,0,12,15.493,33.239,33.239,0,0,1,22.319,31.392" transform="translate(-1018.126 -954.534)" fill="#fff"/>
        <g id="Grupo_1081077" data-name="Grupo 1081077" transform="translate(490.826 441.315)" opacity="0.5">
          <g id="Grupo_1081076" data-name="Grupo 1081076">
            <g id="Grupo_1081075" data-name="Grupo 1081075" clip-path="url(#clip-path-3)">
              <path id="Trazado_833569" data-name="Trazado 833569" d="M1633.359,1448.389v167.686a14.131,14.131,0,0,1-14.133,14.133H1569.14a16.7,16.7,0,0,1-16.692-16.692v-164.6a33.763,33.763,0,0,1,23.074-32.025,16.958,16.958,0,0,0,11.4-15.257l.312-5.787h11.358l.453,5.655a17.925,17.925,0,0,0,12,15.493,33.239,33.239,0,0,1,22.319,31.392" transform="translate(-1552.449 -1395.849)" fill="#afcdfb"/>
            </g>
          </g>
        </g>
        <path id="Trazado_833570" data-name="Trazado 833570" d="M1592.607,1619.309v144.337a13.474,13.474,0,0,1-13.473,13.473H1569c-8.5,0-13.057-1.917-17.778-5.693s-15.106-3.153-18.571,1.256-13.378,4.438-13.378,4.438h-7.062a15.918,15.918,0,0,1-15.909-15.918v-142.95c8.847-1.8,22.036-2.795,39.181.538,20.214,3.928,42.438,2.408,57.119.519" transform="translate(-1023.231 -1105.485)" fill="#afcdfb"/>
        <path id="Trazado_833571" data-name="Trazado 833571" d="M1627.741,1361.943h-35.876v-11.906a7.964,7.964,0,0,1,7.964-7.964h19.619a8.294,8.294,0,0,1,8.294,8.294Z" transform="translate(-1088.577 -917.76)" fill="#f99746"/>
        <rect id="Rectángulo_379592" data-name="Rectángulo 379592" width="101.021" height="150.491" transform="translate(470.716 490.968)" fill="#f99746"/>
        <rect id="Rectángulo_379593" data-name="Rectángulo 379593" width="72.622" height="150.491" transform="translate(490.826 490.968)" fill="#ef7e29"/>
        <path id="Trazado_833572" data-name="Trazado 833572" d="M1617.781,1394.447h-37.092a4.136,4.136,0,0,1,0-8.272h37.092a4.136,4.136,0,0,1,0,8.272" transform="translate(-1078.106 -947.918)" fill="#ef7e29"/>
        <path id="Trazado_833573" data-name="Trazado 833573" d="M1545.007,830.974s-4.924,5.667-17.284,7.553h-.009a64.689,64.689,0,0,1-19.7-.329c-27.066,4.209-37-7.224-37-7.224-27.748-22.1-28.063-68.509,0-79.011a31.541,31.541,0,0,1,21.248-.687,51.107,51.107,0,0,0,31.5,0,31.541,31.541,0,0,1,21.248.687,29.249,29.249,0,0,1,9.872,6.123l.324.306c17.232,16.7,13.634,53.6-10.2,72.581" transform="translate(-991.623 -512.713)" fill="#95c38b"/>
        <path id="Trazado_833574" data-name="Trazado 833574" d="M1578.481,832.476s-4.924,5.667-17.284,7.553h-.009c-14.293,1.2-8.029-4.5-23.544-4.5s-24.731-5.105-34.372-28.855-1.841-46.157,13.444-48.744,23,9.485,42.327-3.057c13.358-8.667,29.309,4.712,29.309,4.712l.324.306c17.232,16.7,13.634,53.6-10.2,72.581" transform="translate(-1025.097 -514.215)" fill="#a8d29f"/>
        <path id="Trazado_833575" data-name="Trazado 833575" d="M1557.925,679.443c-5.671-3.378-11.41,1.367-18.07,3.972s-19.485,2.555-19.485,2.555a93.036,93.036,0,0,1,13.915-15.131c8.643-7.541,23.64,8.6,23.64,8.6" transform="translate(-1039.686 -457.372)" fill="#a8d29f"/>
        <path id="Trazado_833576" data-name="Trazado 833576" d="M1557.925,679.443c-5.329-4.375-15.187-6.884-20-4.916s-17.558,11.443-17.558,11.443a93.036,93.036,0,0,1,13.915-15.131c8.643-7.541,23.64,8.6,23.64,8.6" transform="translate(-1039.686 -457.372)" fill="#82b378"/>
        <path id="Trazado_833577" data-name="Trazado 833577" d="M1627.613,685.146h0c-3.633-8.027-1.669-17.983.618-24.922a157.984,157.984,0,0,1,7.025-16.521.924.924,0,0,1,1.71.117l.691,2.092a7.551,7.551,0,0,1-.7,6.276c-3.511,5.8-10.563,19.372-7.387,30.541.358,1.256-1.31,3.855-1.954,2.418" transform="translate(-1111.648 -439.832)" fill="#558949"/>
        <path id="Trazado_833578" data-name="Trazado 833578" d="M1727.7,777.253s11.159,3.358,11.446,11.8-7.8,7.654-11.919,3.346-6.112-15.433.473-15.141" transform="translate(-1178.542 -531.51)" fill="#d1f2c9"/>
        <path id="Trazado_833579" data-name="Trazado 833579" d="M779.753,299.188c-.767-2.33-9.926-27.179-48.962-17.33,0,0,19.662-3.229,25.363,4.177,0,0-15.928-6.582-25.507-.215s-10.431,26.623-8.737,32.714,13.21,23.977,20.38,23.707a21.251,21.251,0,0,0,8.1-2.332,94.8,94.8,0,0,0-2.512,10.768c-6.269,36.12,18.582,62.462,30.651,55.269,7.74-4.614,14.241,8.99,14.241,8.99l62.314-89.386s-47.76-53.193-75.336-26.363" transform="translate(-493.193 -191.173)" fill="#2c3a64"/>
        <path id="Trazado_833580" data-name="Trazado 833580" d="M760.8,921.575c-.315,9.614,16.742,40.988,26.529,68.1l.005.005c6.311,17.5,12.549,33.721,15.9,42.328a101.124,101.124,0,0,1,4.885,16.538c2.915,14.321,7.664,44.325,9.231,93.09.016.65.037,1.305.058,1.96l-88.162-.027-.351-1.934-1.934-10.589-.01-.058,1.871-46.044-5.561-8.56-15.941,6.012-7.056,59.238-.225,1.923-88.33-.026c0-.634,0-1.269-.005-1.9-.026-15.437-.042-28.6-.047-39.828a318.029,318.029,0,0,1,20.328-112.133c10.248-27.247,25.416-55.754,22.229-69.147-.739-3.1-11.436-30.249-16.495-56.033-.529-2.689-1.053-5.394-1.573-8.088-.131.524-.257,1.053-.382,1.583-8.172,34.124-18.824,78.4-20.831,85.725-3.344,12.177-34.145,105.885-34.145,105.885H565.8s9.372-91.832,17.807-115.257,12.58-110.959,20.611-148.994c4.178-19.762,10.756-28.389,21.57-34.061l.005-.005v-.005c5.541-2.9,12.193-5.032,20.2-7.485,5.058-1.552,10.656-3.229,16.863-5.31,8.953-3,17.277-7.6,19.772-16.716a124.641,124.641,0,0,0,3.911-31.635v-.005q.031-3.892-.141-8.041v-.016l2.652.409,2.542.4,41.982,6.694v.005s-.016.514-.042,1.441c-.005.142-.01.3-.016.467v.073c-.005.147-.01.3-.01.472-.01.293-.016.618-.026.964q-.008.354-.016.739c-.016.833-.037,1.772-.052,2.8-.005.267-.01.54-.01.818,0,.137-.005.273-.005.414-.005.419-.01.844-.016,1.284v.063c-.01.8-.016,1.635-.021,2.5-.01,1.808-.01,3.743.005,5.745.005.865.016,1.74.026,2.626.005.2.01.4.01.6.016.854.032,1.719.052,2.584.026,1.153.058,2.312.1,3.459.262,7.506-.828,13.057,1.211,16.884,2.233,4.2,14.027,7.181,26.969,12.622a92.841,92.841,0,0,1,19.615,10.756c7.658,5.719,14.017,13.23,16.842,23.5,10.311,37.484,17.1,130.521,25.533,153.947S841.532,1049.6,841.532,1049.6H826.541S795.74,955.89,792.4,943.713c-1.033-3.764-4.345-17.292-8.434-34.187-3.732-15.427-8.114-33.658-11.988-49.823q-.551-2.3-1.09-4.555c-.2,4.241-.393,8.476-.582,12.638-1.164,25.376-9.278,47.018-9.5,53.79" transform="translate(-386.917 -466.423)" fill="#ffb27d"/>
        <path id="Trazado_833581" data-name="Trazado 833581" d="M1000.168,690.488s-.484,13.947-.022,27.05c-24.757.232-38.677-21.838-44.5-34.142Z" transform="translate(-653.505 -467.332)" fill="#ed985f"/>
        <path id="Trazado_833582" data-name="Trazado 833582" d="M990.605,532.107s-58.477,3.162-59.886-33.285-9.905-60.585,27.372-64.145,45.073,10.067,48.5,22.118-.813,73.55-15.988,75.312" transform="translate(-635.218 -296.854)" fill="#ffb27d"/>
        <path id="Trazado_833583" data-name="Trazado 833583" d="M964.681,420.728c-9.456-10.624-16.2-7.961-19.907-4.521-32.643-16.382-52.276,10.388-52.276,10.388-2.931,26.3-21.229,41.989-21.229,41.989s10.912,6.187,35.262-1.058c7.438-2.213,13.943-7.8,19.4-14.491a136.618,136.618,0,0,1-22.416,29.578c28.859-14.679,39.119-55.969,40.132-60.332,3.693,3.073,10.995,9.777,13.4,16.526,3.266,9.172,5.3,28.23,10.839,27.371,0,0,10.979-29.518-3.2-45.45" transform="translate(-595.807 -280.988)" fill="#2c3a64"/>
        <path id="Trazado_833584" data-name="Trazado 833584" d="M537.8,1834.981s-12.826,20.831-13.322,26.952,1.3,27.045,1.3,27.045,4.777-1.32,5.769-11.148,16.068-15.729,19.1-22.174,1.847-19.827,1.847-19.827Z" transform="translate(-358.6 -1254.829)" fill="#ffb27d"/>
        <path id="Trazado_833585" data-name="Trazado 833585" d="M593.648,1842.126s4.144,16.722,2.354,22.345-3.728,14.531-6.539,13.636-5.23-17.788-5.23-17.788Z" transform="translate(-399.521 -1259.715)" fill="#ffb27d"/>
        <path id="Trazado_833586" data-name="Trazado 833586" d="M516.719,1921.721c-.149.871-8.3,24.16-8.3,24.16s6.725.047,7.165-3.187,1.131-20.974,1.131-20.974" transform="translate(-347.68 -1314.145)" fill="#ffb27d"/>
        <path id="Trazado_833587" data-name="Trazado 833587" d="M1404.242,1842.126s12.826,20.831,13.322,26.952-1.3,27.044-1.3,27.044-4.776-1.32-5.769-11.148-16.068-15.729-19.1-22.174-2.028-20.674-2.028-20.674Z" transform="translate(-949.99 -1259.715)" fill="#ffb27d"/>
        <path id="Trazado_833588" data-name="Trazado 833588" d="M1383.495,1849.272s-4.144,16.722-2.354,22.345,3.728,14.531,6.54,13.636,5.23-17.788,5.23-17.788Z" transform="translate(-944.169 -1264.602)" fill="#ffb27d"/>
        <path id="Trazado_833589" data-name="Trazado 833589" d="M1468.91,1928.866c.149.871,8.3,24.16,8.3,24.16s-6.726.047-7.165-3.187-1.131-20.974-1.131-20.974" transform="translate(-1004.496 -1319.031)" fill="#ffb27d"/>
        <path id="Trazado_833590" data-name="Trazado 833590" d="M712.616,1655.005s60.483,18.609,155.34,0c0,0,26.959,39.482,38.108,151.959H809.339l-8.974-54.241-11.008.174-6.465,54.066H683.7s2.8-101.114,28.916-151.959" transform="translate(-467.54 -1131.755)" fill="#f9bcab"/>
        <path id="Trazado_833591" data-name="Trazado 833591" d="M902.735,939.94c1.1,11.689,4.822,22.776-1.012,53.262q-.731,3.829-1.672,8.083s-57.99,18.9-131.5,0c0,0-.42-1.216-1.075-3.292-.529-1.672-1.211-3.9-1.955-6.505-3-10.468-7.024-26.969-6.012-37.405,1.572-16.25,12.5-48.435-3.968-69.3l.005-.005v-.005c5.541-2.9,12.193-5.032,20.2-7.485,0,0,14.635,44.87,34.6,47.229a215.928,215.928,0,0,0,37.552.985s23.609.8,32.521-15.453c6.6-12.046,10.7-28.9,11.066-30.413A92.841,92.841,0,0,1,911.1,890.395c-2.527,6.086-10.211,29.942-8.366,49.546" transform="translate(-516.666 -599.924)" fill="#fff"/>
        <path id="Trazado_833592" data-name="Trazado 833592" d="M871.2,1353.946c-14.957,16.743-15.5,40.961-1.64,55.145a2.29,2.29,0,0,0,3.34-.254,2.542,2.542,0,0,0,.119-3.44c-12.088-12.5-11.571-33.743,1.556-48.437,13.678-15.311,35.95-17.812,49.649-5.574l3.369-3.771c-15.558-13.9-40.858-11.058-56.392,6.331" transform="translate(-587.798 -915.519)" fill="#fff"/>
        <path id="Trazado_833593" data-name="Trazado 833593" d="M1048.53,1362.653l10.729.7a1.38,1.38,0,0,0,1.4-1.641l-2.379-10.039a1.022,1.022,0,0,0-1.807-.318l-8.515,9.531a1.019,1.019,0,0,0,.574,1.766" transform="translate(-716.416 -923.828)" fill="#fff"/>
        <path id="Trazado_833594" data-name="Trazado 833594" d="M1003.522,1460.434c14.957-16.743,15.5-40.961,1.64-55.145a2.29,2.29,0,0,0-3.34.254,2.542,2.542,0,0,0-.119,3.44c12.088,12.5,11.571,33.743-1.556,48.437-13.678,15.311-35.951,17.812-49.649,5.574l-3.369,3.771c15.558,13.9,40.858,11.058,56.392-6.331" transform="translate(-647.683 -960.572)" fill="#fff"/>
        <path id="Trazado_833595" data-name="Trazado 833595" d="M945.122,1578.249l-10.729-.7a1.379,1.379,0,0,0-1.4,1.641l2.378,10.038a1.022,1.022,0,0,0,1.807.318l8.515-9.531a1.019,1.019,0,0,0-.574-1.766" transform="translate(-637.995 -1078.785)" fill="#fff"/>
        <path id="Trazado_833596" data-name="Trazado 833596" d="M761.775,1639.495s-8.726,17.554-7.678,17.9,108.68,23.064,165.642-5.941l-5.9-14.992s-58.8,25.7-152.062,3.03" transform="translate(-515.62 -1119.076)" fill="#ef9d89"/>
        <path id="Trazado_833597" data-name="Trazado 833597" d="M827.4,1138.759c-52.775-11.858-104.7,16.809-118.718,64.393a5.623,5.623,0,0,0,4.4,6.943,6.2,6.2,0,0,0,7.424-3.981c12.5-41.669,58.094-66.718,104.41-56.311,48.262,10.844,79.33,56.144,69.255,100.981l11.887,2.671c11.442-50.923-23.848-102.38-78.66-114.7" transform="translate(-484.481 -776.897)" fill="#95c38b"/>
        <path id="Trazado_833598" data-name="Trazado 833598" d="M1259.759,1473.217l10.929,24.168a3.248,3.248,0,0,0,5.093,1.014l18.514-17.537a2.553,2.553,0,0,0-1.418-4.318l-30.043-6.75a2.547,2.547,0,0,0-3.075,3.424" transform="translate(-861.316 -1005.048)" fill="#95c38b"/>
        <path id="Trazado_833599" data-name="Trazado 833599" d="M772.974,1590.089c52.775,11.858,104.7-16.809,118.719-64.393a5.623,5.623,0,0,0-4.4-6.943,6.2,6.2,0,0,0-7.424,3.981c-12.5,41.668-58.094,66.718-104.411,56.311-48.262-10.844-79.329-56.144-69.254-100.981l-11.887-2.671c-11.442,50.922,23.848,102.38,78.66,114.7" transform="translate(-473.325 -1008.929)" fill="#a8d29f"/>
        <path id="Trazado_833600" data-name="Trazado 833600" d="M695.814,1445.664l-10.929-24.169a3.248,3.248,0,0,0-5.093-1.014l-18.514,17.538a2.553,2.553,0,0,0,1.418,4.318l30.043,6.75a2.547,2.547,0,0,0,3.075-3.424" transform="translate(-451.686 -970.81)" fill="#a8d29f"/>
        <path id="Trazado_833601" data-name="Trazado 833601" d="M1026.1,1533.5c0,2.1-.959,3.8-2.141,3.8s-2.141-1.7-2.141-3.8.959-3.8,2.141-3.8,2.141,1.7,2.141,3.8" transform="translate(-698.755 -1046.063)" fill="#ed985f"/>
      </g>
    </g>
  </g>
</svg>
