<svg xmlns="http://www.w3.org/2000/svg" xmlns:xlink="http://www.w3.org/1999/xlink" width="85" height="85" viewBox="0 0 85 85">
  <defs>
    <clipPath id="clip-path">
      <rect id="Rect치ngulo_379596" data-name="Rect치ngulo 379596" width="59.067" height="54.473" fill="none" stroke="#000" stroke-width="0.5"/>
    </clipPath>
  </defs>
  <g id="Grupo_1081192" data-name="Grupo 1081192" transform="translate(-180.332 -6926.381)">
    <g id="Grupo_1013927" data-name="Grupo 1013927" transform="translate(-105 475.381)">
      <circle id="Elipse_4872" data-name="Elipse 4872" cx="42.5" cy="42.5" r="42.5" transform="translate(285.332 6451)" fill="#eaf2e1"/>
      <g id="Grupo_156261" data-name="Grupo 156261" transform="translate(302.332 6467)">
        <rect id="Rect치ngulo_47312" data-name="Rect치ngulo 47312" width="7.049" height="3.525" transform="translate(4.424 16.762)" fill="#eaf2e1"/>
        <path id="Trazado_198297" data-name="Trazado 198297" d="M10.008,59.838h7.045l-3.525,4.405Z" transform="translate(-5.582 -33.378)" fill="#eaf2e1"/>
      </g>
    </g>
    <g id="Grupo_1081083" data-name="Grupo 1081083" transform="translate(193.298 6941.645)">
      <g id="Grupo_1081082" data-name="Grupo 1081082" clip-path="url(#clip-path)">
        <path id="Trazado_833602" data-name="Trazado 833602" d="M26.251,54.457c-3.488,0-6.975.01-10.462,0a13.9,13.9,0,0,1-12.906-8.74C1.918,43.3,1.076,40.829.23,38.367a2.77,2.77,0,0,1,1.709-3.822c.535-.221.693-.405.535-1A4.008,4.008,0,0,1,3.7,29.165,4.047,4.047,0,0,1,8.1,28.509c.856.331,1.744.582,2.607.9.531.194.837.091,1.055-.476a5.651,5.651,0,0,1,3.081-3.247c.576-.254.777-.535.444-1.129a2.228,2.228,0,0,1-.323-1.662c.333-1.117-.233-1.763-.951-2.458A10.056,10.056,0,0,1,11.4,16.567a2.983,2.983,0,0,1,.125-2.661,1.764,1.764,0,0,0,.043-1.722,7.5,7.5,0,0,1-.584-4.038,4.69,4.69,0,0,1,6.864-3.418,6.856,6.856,0,0,1,1.257.8c1.206.967,2.1,2.259,3.98,2.315,1.18.036,1.864,1.361,2.451,2.41a10.242,10.242,0,0,1,.831,1.763c.419,1.271.752,2.488,2.332,2.921.842.231,1.277,1.177,1.725,1.937a1,1,0,0,0,1.241.5,6.442,6.442,0,0,1,3.945.369c.851.382,1.032.128,1.027-.726-.029-4.33-.016-8.661-.012-12.991C36.623,1.1,37.724,0,40.645,0q7.472,0,14.946,0c2.291,0,3.466,1.177,3.47,3.466q.012,7.7,0,15.406c0,2.293-1.241,3.532-3.559,3.566-1.571.023-3.142.011-4.713.005-.477,0-.822.059-.75.692.428,3.747-1.006,6.98-2.825,10.1-.608,1.044-.583,1.08.65,1.106a15.818,15.818,0,0,1,2.063.092,2.671,2.671,0,0,1,2.329,3.6,71.541,71.541,0,0,1-3.008,8.192,13.468,13.468,0,0,1-12.765,8.217c-3.41.048-6.821.009-10.232.008m6.9-18.006H31.66c-4.868,0-9.735,0-14.6-.012-.74,0-1.594-.067-1.572-1.079.02-.929.833-.957,1.535-1,.267-.018.536-.008.8-.008H29.208c2.8,0,5.6.009,8.393-.006,1.051-.006,1.153-.219.633-1.138a3.907,3.907,0,0,0-2.582-1.963c-5.9-1.355-11.793-2.709-17.706-3.985a3.691,3.691,0,0,0-4.5,3.554c-.06,1.224-.009,2.453-.033,3.679-.032,1.6-.372,1.946-1.992,1.956-2.722.016-5.443-.007-8.164.014-1.235.009-1.453.312-1.052,1.476q1.125,3.259,2.313,6.5a11.943,11.943,0,0,0,11.447,8.047q10.233.028,20.467,0a11.931,11.931,0,0,0,11.405-7.943c.793-2.117,1.541-4.25,2.288-6.383.5-1.437.316-1.7-1.218-1.7q-7.876-.011-15.753,0M57.089,11.242c0-2.492.009-4.983,0-7.475-.007-1.443-.334-1.783-1.752-1.786q-7.475-.015-14.951,0c-1.358,0-1.775.4-1.78,1.8q-.027,7.418,0,14.836c0,1.3.534,1.843,1.813,1.847q7.475.026,14.951,0c1.315-.006,1.712-.44,1.719-1.744.013-2.492,0-4.983,0-7.476M42.444,34.3A2.132,2.132,0,0,0,45.1,32.9c.4-.786.913-1.511,1.3-2.3a13.039,13.039,0,0,0,1.711-6.478c-.084-1.465-.267-1.667-1.7-1.671-1.993-.006-3.985-.013-5.978,0a3.987,3.987,0,0,1-3.169-1.332,5.551,5.551,0,0,0-3.837-1.86c-3.643-.235-6.274,3.052-5.569,6.823a1.817,1.817,0,0,0,1.63,1.719c2.179.417,4.341.934,6.5,1.464a5.822,5.822,0,0,1,4.3,3.64c.42,1.107.918,1.724,2.154,1.391m-16.7-10.682a7.525,7.525,0,0,1,2.533-4.521c.323-.281.882-.51.487-1.091-.414-.609-.694-1.627-1.593-1.424-1.4.316-1.653-.448-1.9-1.474a13.483,13.483,0,0,0-1.888-4.538c-.431-.626-.966-1.2-1.8-.907a1.566,1.566,0,0,1-2.021-.79,6.714,6.714,0,0,0-2.828-2.458,2.628,2.628,0,0,0-3.759,2.368,7.493,7.493,0,0,0,.94,3.861c.252.5.483,1.056-.006,1.485-1.082.947-.7,1.916-.105,2.871A14.636,14.636,0,0,0,16.919,20.5c.493.407.912.853.609,1.569-.833,1.969-.285,2.988,1.84,3.443,1.385.3,2.76.641,4.151.907.5.1.992.434,1.558.162a3.524,3.524,0,0,0-.673-1.327c-3.04-5.012-6.1-10.014-9.123-15.034-.408-.676-1.217-1.533-.13-2.172s1.428.5,1.837,1.169c2.881,4.7,5.735,9.423,8.753,14.393M8.268,34.328v.018c.648,0,1.3.012,1.943,0,.446-.011,1.046.064,1.054-.575.01-.743.489-1.741-.46-2.158A25.2,25.2,0,0,0,6.7,30.231a2.061,2.061,0,1,0-.487,4.088c.682.049,1.371.009,2.057.009" transform="translate(0 0)" stroke="#000" stroke-width="0.5"/>
        <path id="Trazado_833603" data-name="Trazado 833603" d="M89.074,22.576a2.4,2.4,0,0,1-1.867-.735c-1.009-.994-2.035-1.974-3-3.009a2.494,2.494,0,0,1-.071-3.689,2.539,2.539,0,0,1,3.691.1,3.115,3.115,0,0,1,.405.406c.534.721.99.721,1.617.026,1.024-1.136,2.138-2.192,3.237-3.259a2.506,2.506,0,0,1,3.77-.177,2.578,2.578,0,0,1-.163,3.787c-1.847,1.888-3.728,3.744-5.6,5.607a2.688,2.688,0,0,1-2.018.946m6.434-8.358c-.009-.557-.285-.711-.679-.544a2.471,2.471,0,0,0-.72.552c-1.334,1.319-2.668,2.638-3.981,3.977a1.3,1.3,0,0,1-2.16.011c-.42-.445-.856-.877-1.3-1.294-.293-.273-.609-.741-1.054-.321-.52.491.021.82.316,1.127.769.8,1.582,1.558,2.344,2.365a.911.911,0,0,0,1.54,0c1.741-1.777,3.514-3.523,5.267-5.29a4.48,4.48,0,0,0,.431-.583" transform="translate(-42.606 -5.86)" stroke="#000" stroke-width="0.5"/>
      </g>
    </g>
  </g>
</svg>
