<svg xmlns="http://www.w3.org/2000/svg" xmlns:xlink="http://www.w3.org/1999/xlink" width="85" height="85" viewBox="0 0 85 85">
  <defs>
    <clipPath id="clip-path">
      <rect id="Rectángulo_379598" data-name="Rectángulo 379598" width="65.551" height="65.416" fill="none"/>
    </clipPath>
  </defs>
  <g id="Grupo_1081194" data-name="Grupo 1081194" transform="translate(-180 -7174.381)">
    <g id="Grupo_1013926" data-name="Grupo 1013926" transform="translate(-105 475.381)">
      <path id="Trazado_605481" data-name="Trazado 605481" d="M42.5,0A42.5,42.5,0,1,1,0,42.5,42.5,42.5,0,0,1,42.5,0Z" transform="translate(285 6699)" fill="#cadeb4"/>
    </g>
    <g id="Grupo_1081087" data-name="Grupo 1081087" transform="translate(189.725 7184.173)">
      <g id="Grupo_1081086" data-name="Grupo 1081086" clip-path="url(#clip-path)">
        <path id="Trazado_833606" data-name="Trazado 833606" d="M40.886,65.4c-1.82-.126-4.085.23-6.325-.211A13.623,13.623,0,0,1,23.4,52.071c-.026-.9-.278-1.23-1.221-1.33a5.391,5.391,0,0,1,.087-10.775c.925-.072,1.173-.441,1.118-1.27-.089-1.352.27-2.467,1.75-2.865.525-.141.458-.477.421-.891-.364-4.1,1.4-6.893,5.261-8.289a1.44,1.44,0,0,0,1.068-1.222,5.328,5.328,0,0,1,7-4.079c.339.107.747.506,1.038.107A1.964,1.964,0,0,0,40,19.849c-.1-.466-.515-.514-.91-.533-1.274-.061-2.549.032-3.826-.14a8.554,8.554,0,0,1-7.727-8.167c-.109-1.868-.007-3.747-.038-5.621-.014-.881.382-1.235,1.234-1.205a52.7,52.7,0,0,1,6.249.152A1.682,1.682,0,0,0,36.47,3.82C37.743,2.689,39.081,1.632,40.35.5A1.254,1.254,0,0,1,42.319.46C43.579,1.6,44.936,2.642,46.2,3.786a1.933,1.933,0,0,0,1.726.519,54.815,54.815,0,0,1,6.252-.11A.888.888,0,0,1,55.192,5.21c-.015,2.044.136,4.1-.069,6.129-.484,4.766-3.941,7.782-8.9,7.958-.809.029-1.619-.013-2.427.019a1.345,1.345,0,0,0-1.11,2c.236.482.56.236.864.152,3.753-1.049,6.43.445,7.308,4.161.164.693.582.84,1.117,1.028a7.413,7.413,0,0,1,5.195,8.228c-.039.39-.185.782.357.925,1.477.387,1.894,1.464,1.8,2.83-.062.9.222,1.258,1.195,1.329a5.382,5.382,0,0,1,.193,10.743c-1.107.121-1.389.486-1.41,1.557A13.626,13.626,0,0,1,45.916,65.4c-1.534.012-3.067,0-5.029,0m.472-27.184c-4.643,0-9.286.041-13.928-.026-1.313-.019-1.68.429-1.658,1.7.069,3.96,0,7.922.035,11.883A11.156,11.156,0,0,0,37,62.982c2.853.036,5.708.03,8.561,0A11.159,11.159,0,0,0,56.9,51.653c.031-3.918.01-7.837.006-11.756,0-1.658-.026-1.681-1.746-1.683q-6.9-.006-13.8,0m-1.275-7.7h-.025c0-1.448.054-2.9-.015-4.344a2.786,2.786,0,0,0-2.711-2.7,2.869,2.869,0,0,0-3.085,2.6A2.793,2.793,0,0,0,36.96,29.39a1.415,1.415,0,0,1,1.469,1.769c-.1,1.025-1.112.725-1.762.663a5.09,5.09,0,0,1-3.846-2.249,1.23,1.23,0,0,0-1.726-.488,5.047,5.047,0,0,0-3.168,5.531c.1.534.189,1.133.943,1.167.688.032.8-.448.943-.974a4.272,4.272,0,0,1,3.351-3.157c.652-.157.964.072,1.031.732.085.839-.062,1.48-.993,1.8-.514.177-1.054.594-.893,1.233.152.6.785.37,1.216.376,1.789.024,3.579-.02,5.367.021.894.021,1.219-.351,1.2-1.213-.034-1.363-.009-2.726-.009-4.089m2.549-.043h-.01c0,1.406.019,2.811-.007,4.217-.015.819.336,1.144,1.152,1.126,1.533-.033,3.068.032,4.6-.026.682-.026,1.709.419,1.978-.342.315-.89-.728-1.149-1.371-1.54-.737-.449-.535-1.215-.381-1.846.184-.752.811-.441,1.271-.31a4.151,4.151,0,0,1,3.013,3.02c.163.578.287,1.1,1.039,1.008.728-.092.785-.709.87-1.242a5.075,5.075,0,0,0-3.021-5.386,1.349,1.349,0,0,0-1.943.49,5.143,5.143,0,0,1-4.508,2.22c-.845-.014-1.238-.336-1-1.287.215-.858.67-1.1,1.516-1.179a2.819,2.819,0,0,0,2.631-3.285,2.916,2.916,0,0,0-5.819.274c-.05,1.361-.01,2.726-.01,4.089M39.854,10.679l.238-.233c0-.967.014-1.934,0-2.9-.016-.825.293-1.263,1.186-1.272s1.38.274,1.353,1.237c-.008.306-.143.689.3.974.76-1.086,1.3-.364,1.891.242.794.815.023,1.266-.451,1.633A4.259,4.259,0,0,0,42.619,14.7c.057.36-.132.853.321,1.013.4.14.7-.23.993-.463a6.362,6.362,0,0,0,.515-9.753c-3.728-3.3-2.4-3.352-6.151-.045a6.348,6.348,0,0,0,.431,9.753c.33.266.717.844,1.172.406a1.091,1.091,0,0,0-.056-1.422c-.5-.633-1.1-1.179-1.651-1.77-.424-.455-1.049-.87-.334-1.578.578-.572,1.1-1.4,2-.159M36.7,16.785a12.188,12.188,0,0,1-1.554-2.159,12.9,12.9,0,0,0-3.419-4.519c-.449-.406-.773-.847-.166-1.373.5-.432.879-1.327,1.738-.472.216.215.534.453.706.029.186-.457.516-.959.327-1.451-.167-.436-.677-.21-1.034-.225-.72-.031-1.446.028-2.165-.018-.862-.055-1.255.252-1.206,1.16.054,1.017-.016,2.039.023,3.058A6.17,6.17,0,0,0,36.7,16.785m9.089.122c2.444-.088,4.286-.7,5.657-2.441,1.754-2.223,1.314-4.822,1.278-7.348-.006-.417-.4-.5-.763-.5-1.02,0-2.039-.009-3.059,0-.246,0-.607-.01-.555.34a4.5,4.5,0,0,0,.442,1.439c.158.293.452.044.628-.13.86-.857,1.245.038,1.737.474.688.608.158,1.021-.251,1.467-.829.9-1.958,1.584-2.463,2.725a13.173,13.173,0,0,1-2.651,3.98M19.46,45.23a3.068,3.068,0,0,0,2.886,3.115c.372.009.821.089.967-.39a.946.946,0,0,0-.335-1.135q-.78-.546-1.574-1.073c-.421-.279-.807-.6-.375-1.112.385-.453.436-1.428,1.439-1.049.257.1.535.453.774.15a1.347,1.347,0,0,0,.092-.848c-.038-.439-.391-.477-.748-.51A3.027,3.027,0,0,0,19.46,45.23m43.786.111a3.044,3.044,0,0,0-3.271-2.965c-.666.115-.651.555-.631,1.034.024.563.345.5.685.291,1.119-.678,1.263.416,1.654.947.52.707-.193.938-.607,1.245-.442.327-.909.619-1.358.938a.935.935,0,0,0-.32,1.138c.156.475.606.385.975.374a3.071,3.071,0,0,0,2.872-3" transform="translate(-8.59 0)"/>
        <path id="Trazado_833607" data-name="Trazado 833607" d="M11.736,23.619c.258.145.526.273.77.436,2.9,1.931,5.788,3.887,8.709,5.789.768.5.931.911.387,1.724s-.969.836-1.735.31c-2.909-2-5.859-3.932-8.789-5.9-.379-.254-.88-.507-.524-1.1.295-.488.482-1.1,1.182-1.264" transform="translate(-5.263 -11.916)"/>
        <path id="Trazado_833608" data-name="Trazado 833608" d="M106.307,67.585c1.13.23,2.42.5,3.714.754,2.338.459,4.674.925,7.018,1.352.911.166,1.021.638.855,1.463-.161.8-.469,1.1-1.291.934-3.5-.712-7.009-1.4-10.516-2.084-.679-.133-1.133-.413-.907-1.194.152-.524.053-1.273,1.127-1.225" transform="translate(-53.036 -34.097)"/>
        <path id="Trazado_833609" data-name="Trazado 833609" d="M116.5,47.042c1.483-.219,1.265.653,1.439,1.192.269.831-.293,1.05-.92,1.175-2.287.456-4.576.9-6.864,1.347q-1.935.379-3.868.761c-.887.174-.94-.5-1.069-1.073s-.163-1.124.608-1.278L116.5,47.042" transform="translate(-53.049 -23.716)"/>
        <path id="Trazado_833610" data-name="Trazado 833610" d="M14.026,49.977c-.017,1.309-.4,1.628-1.621,1.386-3.326-.658-6.648-1.334-9.979-1.968-.96-.183-1.41-.53-1.126-1.619.2-.754.492-.975,1.229-.826,3.572.721,7.149,1.416,10.724,2.122.51.1.887.322.773.9" transform="translate(-0.613 -23.665)"/>
        <path id="Trazado_833611" data-name="Trazado 833611" d="M2.265,72.171c-1.023.11-.881-.714-1.048-1.282-.251-.853.338-1.033.952-1.157q4-.8,8-1.588c.917-.181,1.836-.349,2.754-.526.827-.159.886.48,1,1s.274,1.146-.539,1.31q-5.559,1.124-11.12,2.238" transform="translate(-0.584 -34.103)"/>
        <path id="Trazado_833612" data-name="Trazado 833612" d="M99.933,32.4c-.705-.148-.862-.782-1.168-1.26-.321-.5.043-.786.407-1.032,1.16-.786,2.327-1.563,3.492-2.342,1.836-1.228,3.692-2.427,5.5-3.693.756-.529,1.157-.33,1.632.37s.479,1.135-.295,1.638c-2.99,1.946-5.942,3.95-8.911,5.93-.21.14-.435.258-.659.389" transform="translate(-49.766 -11.995)"/>
        <path id="Trazado_833613" data-name="Trazado 833613" d="M28.628,22.99a1.134,1.134,0,0,1,.789.441c1.088,1.076,2.148,2.181,3.258,3.234.681.647.33,1.072-.17,1.578-.519.524-.95.782-1.577.114-1.046-1.115-2.158-2.169-3.233-3.259-.258-.261-.657-.535-.35-.965a2.934,2.934,0,0,1,1.283-1.143" transform="translate(-13.74 -11.599)"/>
        <path id="Trazado_833614" data-name="Trazado 833614" d="M94.675,28.869a2.792,2.792,0,0,1-1.384-1.142c-.323-.407.007-.716.274-.986C94.672,25.623,95.8,24.529,96.9,23.4c.673-.694,1.1-.216,1.583.241s.755.875.129,1.469c-1.141,1.082-2.229,2.219-3.348,3.324a4.955,4.955,0,0,1-.586.435" transform="translate(-46.999 -11.629)"/>
        <path id="Trazado_833615" data-name="Trazado 833615" d="M17.693,39.687c1.607.68,3.371,1.324,5.031,2.174.719.369,0,1.059-.135,1.585a.65.65,0,0,1-.988.464q-2.358-.975-4.714-1.953c-.585-.243-.578-.688-.341-1.156s.229-1.143,1.147-1.114" transform="translate(-8.271 -20.022)"/>
        <path id="Trazado_833616" data-name="Trazado 833616" d="M103.764,43.988c-.9-.053-.838-.816-1.1-1.289a.646.646,0,0,1,.377-1.02c1.574-.64,3.144-1.291,4.716-1.937.591-.243.89.093,1.052.584s.734,1.128.046,1.467c-1.674.823-3.424,1.49-5.085,2.195" transform="translate(-51.73 -20.01)"/>
        <path id="Trazado_833617" data-name="Trazado 833617" d="M16.086,61.848c-.678,0-1.358-.019-2.035.006-.832.031-1.237-.272-1.247-1.175-.01-.938.357-1.294,1.279-1.266,1.4.041,2.8.033,4.2.006.835-.016,1.1.374,1.1,1.164.007.823-.22,1.305-1.137,1.268-.719-.029-1.441-.006-2.162,0" transform="translate(-6.46 -29.974)"/>
        <path id="Trazado_833618" data-name="Trazado 833618" d="M109.346,61.852c-.594,0-1.188-.021-1.781.007-.888.042-1.431-.158-1.431-1.246,0-1.131.621-1.212,1.471-1.2,1.314.026,2.63.036,3.944,0,.9-.024,1.172.392,1.176,1.235,0,.879-.359,1.236-1.216,1.2-.719-.028-1.441-.005-2.162,0" transform="translate(-53.547 -29.976)"/>
        <path id="Trazado_833619" data-name="Trazado 833619" d="M22.73,17.038a2.806,2.806,0,0,1-1.147,1.251c-.487.336-.769-.132-1.061-.408-.493-.465-.943-.976-1.447-1.428-.647-.58-.966-1.056-.168-1.856.772-.774,1.257-.572,1.86.112.476.539,1.015,1.021,1.518,1.536a1.071,1.071,0,0,1,.445.792" transform="translate(-9.3 -7.114)"/>
        <path id="Trazado_833620" data-name="Trazado 833620" d="M109.541,15.326a1.088,1.088,0,0,1-.455.773c-.532.546-1.123,1.042-1.6,1.63-.7.856-1.222.56-1.85-.09-.518-.537-.6-.954-.022-1.483s1.135-1.142,1.716-1.7c.293-.281.587-.732,1.068-.4a2.85,2.85,0,0,1,1.145,1.273" transform="translate(-53.08 -7.032)"/>
        <path id="Trazado_833621" data-name="Trazado 833621" d="M5.91,34.8c.976.426,2.064.813,3.062,1.365.7.387.123.977-.031,1.459s-.4.871-1.019.611q-1.41-.589-2.826-1.165c-.519-.212-.574-.579-.341-1.028.255-.491.239-1.224,1.155-1.242" transform="translate(-2.332 -17.556)"/>
        <path id="Trazado_833622" data-name="Trazado 833622" d="M122.907,36.62a.963.963,0,0,1-.078.276,11.086,11.086,0,0,1-3.713,1.478c-.578-.322-.653-.96-.82-1.514-.151-.5.283-.645.629-.8.7-.305,1.4-.606,2.105-.89,1.037-.417,1.9.216,1.876,1.446" transform="translate(-59.667 -17.681)"/>
        <path id="Trazado_833623" data-name="Trazado 833623" d="M2.326,61.849c-.383,0-.766-.018-1.148,0C.277,61.906,0,61.438,0,60.6c0-.883.387-1.232,1.243-1.184.55.031,1.1.007,1.657,0,.826-.007,1.6-.1,1.618,1.177.015,1.34-.8,1.268-1.681,1.255-.17,0-.34,0-.51,0v0" transform="translate(0.001 -29.976)"/>
        <path id="Trazado_833624" data-name="Trazado 833624" d="M125.425,59.43c1.959,0,2.28.26,2.1,1.583a.889.889,0,0,1-1.177.826c-1.087-.2-2.512.717-3.215-.639-.557-1.075.033-1.737,1.274-1.768.34-.009.68,0,1.02,0" transform="translate(-62.015 -29.983)"/>
        <path id="Trazado_833625" data-name="Trazado 833625" d="M58.992,110.54c-.851,0-1.7-.022-2.553.006-.9.029-1.314-.315-1.3-1.273.016-.921.448-1.16,1.273-1.144,1.574.032,3.149.026,4.723,0,2.444-.039,3.843-1.055,4.447-3.391.294-1.139,1.072-.938,1.793-.843.9.118.674.823.56,1.4-.608,3.065-3.1,5.072-6.523,5.234-.807.038-1.616.005-2.425.005v0" transform="translate(-27.821 -52.379)"/>
        <path id="Trazado_833626" data-name="Trazado 833626" d="M46.867,89.19a4.165,4.165,0,0,1-4.079-2.875c-.162-.521-.538-1.269.3-1.5.688-.194,1.573-.385,1.944.623A1.946,1.946,0,0,0,48.7,85.5c.414-1.092,1.307-.908,2.02-.666.913.31.38,1.092.194,1.629a4.142,4.142,0,0,1-4.049,2.727" transform="translate(-21.473 -42.707)"/>
        <path id="Trazado_833627" data-name="Trazado 833627" d="M76.517,89.182a4.172,4.172,0,0,1-4.09-3.022c-.148-.513-.457-1.181.345-1.363.654-.148,1.482-.394,1.883.517A1.964,1.964,0,0,0,76.4,86.756a1.735,1.735,0,0,0,1.912-1.163c.4-1.137,1.34-1.076,2.088-.762.853.358.367,1.184.133,1.771a4.123,4.123,0,0,1-4.02,2.58" transform="translate(-36.448 -42.699)"/>
      </g>
    </g>
  </g>
</svg>
