<svg xmlns="http://www.w3.org/2000/svg" xmlns:xlink="http://www.w3.org/1999/xlink" width="85" height="85" viewBox="0 0 85 85">
  <defs>
    <clipPath id="clip-path">
      <rect id="Rectángulo_379600" data-name="Rectángulo 379600" width="53.194" height="55.762" fill="none"/>
    </clipPath>
  </defs>
  <g id="Grupo_1081196" data-name="Grupo 1081196" transform="translate(-180 -7410.063)">
    <g id="Grupo_1081074" data-name="Grupo 1081074" transform="translate(-105 835.063)">
      <circle id="Elipse_4873" data-name="Elipse 4873" cx="42.5" cy="42.5" r="42.5" transform="translate(285 6575)" fill="#e6ebfb"/>
    </g>
    <g id="Grupo_1081091" data-name="Grupo 1081091" transform="translate(195.903 7425)">
      <g id="Grupo_1081090" data-name="Grupo 1081090" transform="translate(0 0)" clip-path="url(#clip-path)">
        <path id="Trazado_833631" data-name="Trazado 833631" d="M15.924,43.191c0-3.04-.044-6.082.023-9.122.025-1.123-.37-1.415-1.443-1.4-4.2.052-8.4.024-12.6.02-1.676,0-1.893-.216-1.893-1.861C.011,26.7.036,22.573,0,18.446a3.245,3.245,0,0,1,1.636-3.185,1.048,1.048,0,0,0,.556-1.077c-.015-.47-.006-.942,0-1.412.025-2.04.984-3.094,3-3.214.617-.037.947-.2.927-.876-.03-.977-.022-1.955,0-2.932.012-.613-.274-.859-.861-.814a.9.9,0,0,1-.108,0C2.36,4.825,1.951,4.365,2.2,1.635A1.556,1.556,0,0,1,3.87.015C8.4-.009,12.92,0,17.444,0a1.965,1.965,0,0,1,.217.011c.929.106,4.828,3.457,5.069,4.369a1.621,1.621,0,0,1-.318,1.532c-.3.359-.622.706-.944,1.049a1.734,1.734,0,0,1-2.745.186A.855.855,0,0,1,18.564,7c-1.5-2.123-3.67-2.264-5.981-2.083-.627.049-.934.214-.911.886.031.939.029,1.882,0,2.823-.02.631.2.889.866.931,2.168.138,3.089,1.071,3.151,3.309.034,1.227.059,2.281,1.306,3.043a2.726,2.726,0,0,1,.908,2.458q.01,17-.007,33.991c0,2.25-1.226,3.394-3.45,3.4q-5.592.009-11.185,0A2.9,2.9,0,0,1,.019,52.549C0,47.083.014,41.617.015,36.151a4.515,4.515,0,0,1,.028-.65.885.885,0,0,1,.841-.851.888.888,0,0,1,.953.85,6.478,6.478,0,0,1,.044,1.082q0,7.711,0,15.42c0,1.639.25,1.889,1.884,1.891q5.159.008,10.317,0c1.632,0,1.834-.2,1.838-1.8.007-2.968,0-5.936,0-8.9M8.887,24.617c1.988,0,3.977-.012,5.964.007.7.007,1.088-.2,1.077-.984-.026-1.807-.012-3.615-.011-5.423,0-.948-.48-1.373-1.415-1.371q-5.585.011-11.17,0a1.273,1.273,0,0,0-1.449,1.466c.009,1.7.047,3.4-.017,5.1-.037.982.36,1.249,1.275,1.225,1.914-.049,3.832-.015,5.748-.017m.019,6.09c1.408,0,2.815.015,4.223,0,3.211-.04,2.725.452,2.812-2.827.027-1.012-.348-1.305-1.321-1.291-3.284.045-6.569-.014-9.853.025-3.41.041-2.809-.609-2.894,3.023-.019.8.29,1.093,1.077,1.081,1.985-.03,3.97-.01,5.955-.008M8.832,14.979c.974,0,1.948.009,2.923,0,2.1-.023,2,.332,1.98-2.081-.009-1.241-.235-1.47-1.453-1.481-1.949-.016-3.9-.006-5.847-.006-2.353,0-2.389.068-2.39,2.446,0,.828.232,1.18,1.106,1.137,1.225-.059,2.453-.015,3.681-.015M11.023,1.864q-3.04,0-6.08,0c-.32,0-.69-.04-.823.359a.584.584,0,0,0,.149.7,1.451,1.451,0,0,0,.945.144c2.9.006,5.8.112,8.685-.032,2.118-.106,3.941.2,5.275,2a2.01,2.01,0,0,0,.33.281c.308.263.608.4.923,0a.622.622,0,0,0-.12-.948c-.582-.543-1.191-1.061-1.74-1.635a2.851,2.851,0,0,0-2.332-.886c-1.735.058-3.474.017-5.211.02M7.982,7.146c0,.538.017,1.077,0,1.615-.025.633.316.786.875.789.587,0,.979-.12.961-.821-.023-.933-.02-1.867,0-2.8.016-.634-.133-1-.888-1.012-.8-.013-1.008.342-.955,1.045.03.392.006.789.008,1.184" transform="translate(0 0)"/>
        <path id="Trazado_833632" data-name="Trazado 833632" d="M26.671,44.619c0-4.742.016-9.484-.011-14.226a3.2,3.2,0,0,1,1.432-2.974,1.373,1.373,0,0,0,.588-1.3c.075-2.428.908-3.257,3.311-3.273,2.461-.016,4.923-.021,7.384,0,2.214.02,3.066.889,3.065,3.115a1.493,1.493,0,0,0,.736,1.532,2.915,2.915,0,0,1,1.388,2.674c.02,4.85.012,9.7.008,14.551,0,.692-.129,1.4-1,1.391s-.96-.77-.963-1.434c-.016-4.524-.011-9.049-.015-13.573,0-2.128-.176-2.306-2.273-2.307-3.33,0-6.66-.007-9.991,0-1.421,0-1.786.375-1.787,1.816q-.008,12.217-.007,24.433c0,.661-.02,1.24.931,1.19.634-.034.876-.144.788-.886a6.842,6.842,0,0,1,5.886-7.366A75.147,75.147,0,0,1,44.5,47.85a53.238,53.238,0,0,1,6.291.11,6.8,6.8,0,0,1,6.094,7.484c-.078.738.247.806.782.778,2.427-.125,3.33,2.11,2.612,4.208a2.428,2.428,0,0,1-2.573,1.6c-4.778-.016-9.556-.006-14.334-.006q-6.679,0-13.357,0c-2.548,0-3.338-.8-3.339-3.4q0-7,0-14.008M43.5,56.222c3.252,0,6.5.009,9.757-.005,1.219-.005,1.877-.617,1.835-1.635a4.927,4.927,0,0,0-4.751-4.74q-6.774-.075-13.55,0a4.832,4.832,0,0,0-4.582,4.034c-.3,1.742.194,2.337,1.967,2.343,3.108.01,6.215,0,9.323,0m.08,3.935h7.486c2.133,0,4.268.014,6.4-.012.944-.011,1.345-.563,1.1-1.4-.226-.767-.87-.648-1.431-.648q-13.561-.009-27.123,0c-.217,0-.435,0-.651.023a.825.825,0,0,0-.805.852c-.088,1.021.514,1.2,1.357,1.2,4.557-.014,9.114-.007,13.67-.006M35.53,26.928c1.334,0,2.669-.02,4,.009.7.015,1.078-.162,1.062-.962-.015-.743-.217-1.157-1.04-1.151q-3.948.026-7.9,0c-.758-.006-1,.345-1.007,1.058s.2,1.077.984,1.055c1.3-.036,2.6-.009,3.894-.008" transform="translate(-7.32 -6.269)"/>
        <path id="Trazado_833633" data-name="Trazado 833633" d="M51.884,17.3a2.483,2.483,0,0,1-2.394-2.363c-.086-.781-.361-1.025-1.131-1.06a2.28,2.28,0,0,1-2.2-2.252,2.3,2.3,0,0,1,1.9-2.413c.906-.139,1.373-.428,1.508-1.425A2.323,2.323,0,0,1,52,5.762a2.358,2.358,0,0,1,2.285,2.308c.035.884.53.939,1.167,1.061a2.4,2.4,0,0,1,1.793,3.73,1.966,1.966,0,0,1-1.7,1.011c-.916-.031-1.254.27-1.272,1.23a2.357,2.357,0,0,1-2.391,2.2m-.03-9.554c-.6.244-.411.818-.429,1.286-.065,1.65-.32,1.926-1.728,2.009-.551.032-1.521-.334-1.533.484-.012.848.961.473,1.506.5,1.345.078,1.63.346,1.758,1.651.053.54-.355,1.512.513,1.5.838-.01.463-.974.5-1.524.077-1.291.327-1.579,1.62-1.61.252-.007.506,0,.758-.01.36-.02.81,0,.818-.492s-.443-.478-.8-.511c-2.235-.207-2.233-.207-2.385-2.382a2.421,2.421,0,0,0-.117-.63.449.449,0,0,0-.473-.276" transform="translate(-12.674 -1.581)"/>
        <path id="Trazado_833634" data-name="Trazado 833634" d="M31.158,41.555A5.607,5.607,0,0,1,36.9,35.884a5.7,5.7,0,0,1,5.667,5.679,5.854,5.854,0,0,1-5.782,5.732,5.756,5.756,0,0,1-5.624-5.74m5.631,3.761a3.772,3.772,0,1,0,.147-7.542,3.772,3.772,0,1,0-.147,7.542" transform="translate(-8.555 -9.853)"/>
        <path id="Trazado_833635" data-name="Trazado 833635" d="M70.223,2.6c-.017.241-.114.627-.31.622-1.366-.033-1.127,1.8-2.293,1.929a.711.711,0,0,1-.833-.679A.916.916,0,0,0,65.87,3.5a.88.88,0,0,1-.819-.873.9.9,0,0,1,.856-.95c.536-.091.841-.316.868-.9a.757.757,0,0,1,.693-.724c.4-.066.812.058.9.427a1.767,1.767,0,0,0,1.425,1.4c.282.072.4.4.426.727" transform="translate(-17.861 -0.01)"/>
        <path id="Trazado_833636" data-name="Trazado 833636" d="M37.646,44.7a.888.888,0,0,1-.674-1.437,8.6,8.6,0,0,1,1.6-1.608.88.88,0,0,1,1.407.707c.024.661-1.684,2.374-2.331,2.337" transform="translate(-10.099 -11.388)"/>
      </g>
    </g>
  </g>
</svg>
