<svg xmlns="http://www.w3.org/2000/svg" xmlns:xlink="http://www.w3.org/1999/xlink" width="85" height="85" viewBox="0 0 85 85">
  <defs>
    <clipPath id="clip-path">
      <rect id="Rectángulo_379601" data-name="Rectángulo 379601" width="64" height="63.976" fill="none"/>
    </clipPath>
  </defs>
  <g id="Grupo_1081197" data-name="Grupo 1081197" transform="translate(-180 -7534.063)">
    <g id="Grupo_1081073" data-name="Grupo 1081073" transform="translate(-105 835.063)">
      <path id="Trazado_605481" data-name="Trazado 605481" d="M42.5,0A42.5,42.5,0,1,1,0,42.5,42.5,42.5,0,0,1,42.5,0Z" transform="translate(285 6699)" fill="#cadeb4"/>
    </g>
    <g id="Grupo_1081093" data-name="Grupo 1081093" transform="translate(190.5 7544.574)">
      <g id="Grupo_1081092" data-name="Grupo 1081092" clip-path="url(#clip-path)">
        <path id="Trazado_833637" data-name="Trazado 833637" d="M32.09,61.178C46,60.78,57.224,51.949,60.378,38.845a28.686,28.686,0,0,0-3.794-22.654c-.542-.871-1.358-1.759-.2-2.717.775-.642,1.616-.209,2.535,1.207,12.5,19.275.744,45.449-21.965,48.916A31.989,31.989,0,1,1,27.859.275a31.551,31.551,0,0,1,21.5,4.83A7.061,7.061,0,0,1,50.551,6a1.226,1.226,0,0,1,.166,1.7,1.224,1.224,0,0,1-1.738.44c-.793-.447-1.544-.969-2.329-1.433-17.5-10.36-40.4.492-43.478,20.6A29.116,29.116,0,0,0,26.329,60.618a44.506,44.506,0,0,0,5.761.56" transform="translate(0 0)"/>
        <path id="Trazado_833638" data-name="Trazado 833638" d="M31.147,59.577c-11.865-.008-22.958-9.885-24.393-23.2A25.252,25.252,0,0,1,11.741,18.1c.954-1.286,1.729-1.363,2.857-.239Q31.5,34.743,48.373,51.64c1.123,1.125,1.05,1.913-.243,2.855-4.63,3.376-9.785,5.164-16.983,5.081m-8.662-29.54.146-.278q-4-3.985-8.008-7.972c-1.285-1.28-1.31-1.283-2.216.354a23.236,23.236,0,0,0-2.642,15.6c2.694,15.8,20.992,24.183,34.69,15.875,1.183-.718,1.2-.8.223-1.775-3.72-3.726-7.46-7.434-11.156-11.185a3.053,3.053,0,0,0-2.393-1.009c-5.39.042-10.78.024-16.17.018-1.779,0-2.076-.309-2.082-2.118-.006-1.866-.011-3.732,0-5.6.011-1.552.36-1.907,1.907-1.915,2.565-.013,5.13,0,7.7,0M18.6,37c3.507-.094,2.976.71,3.023-3.218,0-.082-.007-.165-.006-.247a.718.718,0,0,0-.827-.827c-1.484.007-2.968,0-4.452,0-.5,0-.712.23-.788.737-.479,3.206-.2,3.553,2.927,3.553Zm10.855,0,.186-.312q-1.859-1.8-3.719-3.593c-.281-.273-.717-.563-.982-.319-1,.919-.276,2.153-.453,3.236-.089.538.092,1,.78.984.042,0,.082,0,.124,0h4.064" transform="translate(-0.633 -1.639)"/>
        <path id="Trazado_833639" data-name="Trazado 833639" d="M45.89,38.669C48.175,40.958,50.2,42.97,52.2,45c.679.69.972.2,1.3-.341a22.012,22.012,0,0,0,3.148-8.836A22.8,22.8,0,0,0,49.872,16a23.2,23.2,0,0,0-27.892-3.5c-1.4.815-1.408.867-.283,2,.672.676,1.356,1.341,2.011,2.034a1.287,1.287,0,0,1,.052,1.982,1.274,1.274,0,0,1-1.978-.05c-1.393-1.362-2.787-2.725-4.129-4.137-.848-.891-.716-1.7.355-2.506A24.77,24.77,0,0,1,29.436,6.931c14.221-2.1,26.88,6.688,29.711,20.777a25.087,25.087,0,0,1-4.674,20.462c-.9,1.224-1.7,1.289-2.771.219Q39.863,36.574,28.044,24.74c-.647-.647-1.058-1.388-.323-2.169.773-.821,1.561-.5,2.264.209,1.814,1.82,3.653,3.616,5.442,5.461a2.5,2.5,0,0,0,1.974.8c4.642-.029,9.285-.017,13.927-.011,1.72,0,2.042.325,2.05,2.023.009,1.907.013,3.814,0,5.721-.012,1.531-.369,1.876-1.936,1.888-1.73.012-3.461,0-5.552,0m-6.6-6.959c-.047.1-.094.193-.142.29,1.114,1.092,2.277,2.14,3.323,3.293a2.2,2.2,0,0,0,2.359.657c1.332-.386.576-1.592.65-2.418.054-.609.491-1.559-.654-1.817a.619.619,0,0,0-.123-.005H39.287m11.424,2.176c0-.205,0-.411,0-.617.013-.834.152-1.624-1.192-1.6s-1.143.852-1.151,1.657c-.005.534.033,1.071-.006,1.6-.068.917.42,1.078,1.211,1.091.853.014,1.229-.282,1.143-1.145a9.7,9.7,0,0,1,0-.986" transform="translate(-1.641 -0.636)"/>
        <path id="Trazado_833640" data-name="Trazado 833640" d="M55.1,27.285c.044.913-.151,1.74-1.224,1.817-1.055.075-1.379-.637-1.457-1.6-.136-1.672-.871-2.313-2.6-2.322-3.358-.018-6.716.023-10.073-.021a4.669,4.669,0,0,1-4.719-4.371c-.023-.824.171-1.538,1.087-1.691.962-.161,1.4.4,1.616,1.3.377,1.55.915,1.934,2.561,1.942,3.151.014,6.3-.024,9.451.019,2.625.035,4.388,1.191,5.11,3.214a4.515,4.515,0,0,1,.248,1.709" transform="translate(-3.362 -1.83)"/>
        <path id="Trazado_833641" data-name="Trazado 833641" d="M27.83,21.972a1.331,1.331,0,1,1-1.16-1.483,1.278,1.278,0,0,1,1.16,1.483" transform="translate(-2.416 -1.965)"/>
      </g>
    </g>
  </g>
</svg>
