<svg xmlns="http://www.w3.org/2000/svg" xmlns:xlink="http://www.w3.org/1999/xlink" width="124" height="124" viewBox="0 0 124 124">
  <defs>
    <clipPath id="clip-path">
      <rect id="Rect치ngulo_379320" data-name="Rect치ngulo 379320" width="85.807" height="85.664" fill="none"/>
    </clipPath>
  </defs>
  <g id="Grupo_1081175" data-name="Grupo 1081175" transform="translate(-1211.001 -1875.14)">
    <g id="Grupo_1016930" data-name="Grupo 1016930" transform="translate(474 -182.86)">
      <g id="Grupo_159183" data-name="Grupo 159183" transform="translate(737.001 2058)">
        <path id="Uni칩n_12" data-name="Uni칩n 12" d="M62,0A62,62,0,1,1,0,62,62,62,0,0,1,62,0Z" fill="#fff"/>
      </g>
    </g>
    <g id="Grupo_1080490" data-name="Grupo 1080490" transform="translate(1230.596 1895.134)">
      <g id="Grupo_1080489" data-name="Grupo 1080489" clip-path="url(#clip-path)">
        <path id="Trazado_831979" data-name="Trazado 831979" d="M71.725,81.009a1.467,1.467,0,0,1-1.65,1.3c-2.063-.017-4.127-.012-6.19,0-1.1.005-1.642-.5-1.623-1.627.024-1.436.006-2.872.006-4.536-1.352.653-2.517,1.253-3.711,1.786a34.857,34.857,0,0,1-8.909,2.712,1.623,1.623,0,0,0-1.474,1.282,5.515,5.515,0,0,1-5.222,3.742,5.617,5.617,0,0,1-5.382-3.771c-.2-.532-.28-1.07-.987-1.174a39.279,39.279,0,0,1-13.076-4.642c0,1.587-.046,2.946.013,4.3.058,1.331-.447,1.945-1.835,1.938q-9.871-.044-19.742,0C.6,82.321,0,81.81.036,80.436.09,78.429.048,76.42.05,74.413c0-4.26,1.657-6.591,5.686-8.018.12-.53-.344-.783-.572-1.134a7.788,7.788,0,0,1,.389-9.481A2.037,2.037,0,0,0,6,53.554a9.272,9.272,0,0,1-.5-1.761C5.2,49.857,4.8,48.281,2.56,47.381.6,46.6-.128,44.471.086,42.3a5.56,5.56,0,0,1,3.357-4.65c.517-.252,1.314-.111,1.483-.9.246-1.141.489-2.286.641-3.442.063-.475-.445-.385-.744-.391-1.059-.02-2.119-.02-3.179-.01-1,.01-1.6-.4-1.594-1.468.008-2.621-.155-5.256.063-7.86.295-3.5,2.471-5.592,5.763-6.593-2.627-4.053-2.792-7.3-.543-10.339A8,8,0,0,1,13.942,3.68c3.485.947,5.529,3.742,5.963,8.282a41.8,41.8,0,0,1,9.372-5.086,35.442,35.442,0,0,1,6.745-1.851,1.621,1.621,0,0,0,1.555-1.185A5.5,5.5,0,0,1,42.886,0a5.561,5.561,0,0,1,5.322,3.836c.241.645.482,1.031,1.21,1.148a38.053,38.053,0,0,1,16.437,7c.28-4.673,2.493-7.7,7.123-8.54a7.859,7.859,0,0,1,7.913,3.913c1.865,3.351,1.384,6.521-1.055,9.582,2.881.923,5.068,2.613,5.651,5.671.578,3.026.161,6.114.2,9.174a1.083,1.083,0,0,1-1.066,1.092,10.616,10.616,0,0,1-1.169.036c-3.414.023-3.392.018-2.727,3.359A1.476,1.476,0,0,0,81.853,37.5a5.559,5.559,0,0,1,3.866,5.3,5.668,5.668,0,0,1-3.8,5.365,4.248,4.248,0,0,0-.633.2c-.537.326-1.847,6.4-1.454,6.875,2.988,3.624,2.841,7.286.049,11.085,2.979.918,5.115,2.7,5.645,5.77.515,2.971.17,6.006.158,9.013,0,.871-.7,1.192-1.524,1.191-2.51,0-5.02-.014-7.529.007a1.51,1.51,0,0,1-1.661-1.3,1.615,1.615,0,0,1,1.813-1.274c1.083,0,2.165-.05,3.248-.078a13.217,13.217,0,0,1,1.321.083c1.43.228,2-.276,1.852-1.789-.14-1.426.008-2.877-.044-4.314-.11-3.063-2.055-4.835-5.149-4.746-2.774-.031-5.549-.121-8.321-.077A4.718,4.718,0,0,0,64.758,73.6c-.088,1.661.014,3.332-.036,5-.026.864.279,1.19,1.15,1.157,1.331-.05,2.666,0,4-.013.921-.006,1.648.249,1.855,1.273M15.77,7.732a5.415,5.415,0,1,0-7.644,7.648A5.408,5.408,0,0,0,15.77,7.732m54.46,56.9a5.406,5.406,0,1,0,.036-7.914,5.308,5.308,0,0,0-.036,7.914M15.814,57.148a5.309,5.309,0,0,0-7.819-.367,5.37,5.37,0,0,0,.022,7.836,5.4,5.4,0,0,0,7.8-7.47M70.337,15.39a5.406,5.406,0,0,0,7.749-7.526,5.416,5.416,0,1,0-7.749,7.526M17.794,79.665c.72.027,1.441.039,2.159.087.748.05,1.128-.195,1.108-1.024-.043-1.777.074-3.563-.049-5.333a4.663,4.663,0,0,0-5.248-4.52c-2.889-.021-5.78-.131-8.665-.035a4.521,4.521,0,0,0-4.471,4.5c-.1,1.774-.006,3.558-.049,5.336-.019.774.233,1.083,1.042,1.075,4.724-.049,9.449-.059,14.172-.083M80.02,30.374a15.184,15.184,0,0,1,1.655.073c1.227.183,1.679-.252,1.586-1.53-.117-1.6.042-3.216-.069-4.815-.2-2.957-2.176-4.675-5.17-4.64-2.726-.016-5.452-.063-8.177-.041a4.807,4.807,0,0,0-5.08,4.84c-.088,1.721.014,3.45-.039,5.173-.026.857.366,1.007,1.107,1,4.729-.039,9.457-.046,14.186-.063m-62.24,0a17.515,17.515,0,0,1,1.83.071c1.218.17,1.522-.374,1.456-1.506-.09-1.552.043-3.118-.047-4.671a4.775,4.775,0,0,0-5.241-4.8c-2.781-.017-5.562-.081-8.341-.038a4.7,4.7,0,0,0-4.821,4.717c-.077,1.721.015,3.45-.04,5.172-.029.89.312,1.141,1.165,1.123,2.224-.047,4.45,0,6.675-.023.973-.012,1.622.3,1.741,1.348-.284,1.3-1.325,1.224-2.252,1.121-1.26-.14-1.882.316-1.958,1.584a4.1,4.1,0,0,1-.275,1.3c-.47,1.136-.081,1.684.981,2.31,3.414,2.01,3.774,6.964.464,9.1-1.768,1.142-1.7,2.212-1.248,3.75a10.894,10.894,0,0,1,.277,1.135c.179,1.008.555,1.256,1.675.946a7.882,7.882,0,0,1,8.535,3.145,8,8,0,0,1,.055,9.106c-.228.35-.693.6-.573,1.129,3.313,1.155,4.691,2.579,5.57,6.024a1.969,1.969,0,0,0,1.143,1.28,36.858,36.858,0,0,0,11.79,4.484,1.2,1.2,0,0,0,1.55-.712c2.36-4.161,7.619-4.185,9.973-.055.392.688.7.959,1.516.787a37.312,37.312,0,0,0,11.793-4.474c.447-.27,1.032-.388,1.145-1.087.534-3.3,2.534-5.314,5.8-6.308-.312-.454-.568-.8-.795-1.162a7.672,7.672,0,0,1-.19-8.525,7.869,7.869,0,0,1,7.448-3.9c.934.019,2.009,1.061,2.709.132.553-.734.539-1.9.776-2.866.053-.216.092-.438.164-.648.258-.751.005-1.129-.717-1.539a5.555,5.555,0,0,1-.024-9.974c.7-.4,1-.741.757-1.524a8.348,8.348,0,0,1-.394-1.789c-.107-1.333-.767-1.69-2.077-1.659-3.9.092-7.8.031-11.708.033-.816,0-1.744-.046-1.749-1.085-.012-3.115-.4-6.263.2-9.338.541-2.8,2.547-4.458,5.483-5.516-.607-.489-1.037-.814-1.444-1.166a36.082,36.082,0,0,0-16.564-8.2c-1.135-.235-1.692-.151-2.335.959a5.411,5.411,0,0,1-9.212.407C37.4,7.338,36.422,7.341,34.981,7.764c-.374.11-.756.188-1.132.288a35.812,35.812,0,0,0-15.894,8.942c.6.277,1.052.463,1.484.691a6.961,6.961,0,0,1,4.03,6.1c.112,2.5.01,5.017.045,7.525.016,1.15-.527,1.612-1.626,1.6-1.617-.017-3.234-.023-4.851,0a1.494,1.494,0,0,1-1.615-1.154c.206-1.446,1.339-1.318,2.356-1.388m28.2-24.793a3.1,3.1,0,1,0-6.19.139,3.1,3.1,0,1,0,6.19-.139M5.757,39.737a3.095,3.095,0,1,0-.109,6.188,3.095,3.095,0,1,0,.109-6.188m77.42,3.024a3.1,3.1,0,1,0-2.955,3.16,3.048,3.048,0,0,0,2.955-3.16m-37.2,37.3a3.1,3.1,0,1,0-3.063,3.057,3.03,3.03,0,0,0,3.063-3.057" transform="translate(0 0)" fill="#070606"/>
        <path id="Trazado_831980" data-name="Trazado 831980" d="M208.585,216.313c-1.083.028-2.165.073-3.248.078a1.614,1.614,0,0,0-1.813,1.274l-3.244,0c-.207-1.024-.934-1.279-1.855-1.273-1.333.008-2.667-.037-4,.013-.87.033-1.176-.293-1.15-1.158.051-1.665-.052-3.335.036-5a4.718,4.718,0,0,1,4.931-4.783c2.773-.044,5.547.046,8.321.077a7.647,7.647,0,0,1,2.045,6.262c-.13,1.491-.025,3-.026,4.5" transform="translate(-128.554 -136.657)" fill="#e29341"/>
        <path id="Trazado_831981" data-name="Trazado 831981" d="M20.536,70.32l-3.267.007c-.119-1.046-.768-1.36-1.74-1.349-2.225.027-4.451-.024-6.676.023-.852.018-1.194-.233-1.165-1.123.056-1.723-.036-3.451.041-5.172a4.7,4.7,0,0,1,4.821-4.717c2.78-.044,5.561.02,8.341.038a7.14,7.14,0,0,1,2.041,5.583c-.133,1.765-.035,3.548-.041,5.323-1.017.069-2.15-.058-2.356,1.388" transform="translate(-5.113 -38.561)" fill="#df74a4"/>
        <path id="Trazado_831982" data-name="Trazado 831982" d="M208.583,68.939c-4.729.017-9.457.024-14.186.063-.74.006-1.133-.144-1.107-1,.053-1.723-.049-3.453.039-5.173a4.807,4.807,0,0,1,5.08-4.84c2.725-.023,5.451.024,8.177.041a7.962,7.962,0,0,1,2.037,6.1c-.126,1.6-.034,3.208-.04,4.812" transform="translate(-128.563 -38.565)" fill="#61a3f9"/>
        <path id="Trazado_831983" data-name="Trazado 831983" d="M22.916,216.324c-4.724.023-9.449.034-14.172.083-.809.008-1.062-.3-1.043-1.075.043-1.778-.047-3.562.049-5.336a4.522,4.522,0,0,1,4.471-4.5c2.885-.1,5.776.014,8.665.035A7.225,7.225,0,0,1,22.94,211.7c-.108,1.533-.022,3.081-.023,4.622" transform="translate(-5.122 -136.659)" fill="#ac7edc"/>
        <path id="Trazado_831984" data-name="Trazado 831984" d="M206.408,27.149a5.416,5.416,0,1,1,7.749-7.526,7.177,7.177,0,0,1-7.749,7.526" transform="translate(-136.071 -11.759)" fill="#facfa1"/>
        <path id="Trazado_831985" data-name="Trazado 831985" d="M20.549,174.333a5.37,5.37,0,0,1-.022-7.836,5.309,5.309,0,0,1,7.819.367,7.292,7.292,0,0,1-2.373,5.938,7.246,7.246,0,0,1-5.424,1.532" transform="translate(-12.531 -109.716)" fill="#facfa1"/>
        <path id="Trazado_831986" data-name="Trazado 831986" d="M206.3,174.345a5.358,5.358,0,0,1,.036-7.914,5.3,5.3,0,0,1,7.775.46c-.1,4.936-2.514,7.242-7.811,7.453" transform="translate(-136.066 -109.714)" fill="#facfa1"/>
        <path id="Trazado_831987" data-name="Trazado 831987" d="M20.671,27.141a5.415,5.415,0,1,1,7.644-7.648,7.078,7.078,0,0,1-7.644,7.648" transform="translate(-12.544 -11.762)" fill="#facfa1"/>
        <path id="Trazado_831988" data-name="Trazado 831988" d="M234.993,69.03c.005-1.6-.087-3.217.039-4.812a7.962,7.962,0,0,0-2.037-6.1c2.994-.035,4.965,1.683,5.17,4.64.11,1.6-.048,3.217.069,4.815.093,1.278-.359,1.713-1.586,1.53a15.108,15.108,0,0,0-1.655-.073" transform="translate(-154.973 -38.657)" fill="#4f8ae8"/>
        <path id="Trazado_831989" data-name="Trazado 831989" d="M49.121,69.035c.005-1.775-.093-3.557.04-5.323A7.14,7.14,0,0,0,47.12,58.13a4.775,4.775,0,0,1,5.241,4.8c.089,1.552-.044,3.118.047,4.671.066,1.133-.239,1.676-1.456,1.506a17.507,17.507,0,0,0-1.83-.071" transform="translate(-31.341 -38.664)" fill="#d5548c"/>
        <path id="Trazado_831990" data-name="Trazado 831990" d="M49.109,216.448c0-1.541-.085-3.088.023-4.622a7.225,7.225,0,0,0-2.053-6.168,4.664,4.664,0,0,1,5.248,4.52c.124,1.77.006,3.556.05,5.333.02.83-.361,1.075-1.109,1.025-.718-.048-1.439-.06-2.159-.088" transform="translate(-31.314 -136.783)" fill="#9260c6"/>
        <path id="Trazado_831991" data-name="Trazado 831991" d="M234.982,216.483c0-1.5-.1-3.014.026-4.5a7.647,7.647,0,0,0-2.045-6.262c3.093-.089,5.039,1.683,5.149,4.746.052,1.438-.1,2.889.044,4.315.148,1.513-.422,2.017-1.852,1.789a13.21,13.21,0,0,0-1.321-.083" transform="translate(-154.951 -136.827)" fill="#e18423"/>
        <path id="Trazado_831992" data-name="Trazado 831992" d="M125.018,10.624a3.1,3.1,0,1,1-6.19.139,3.1,3.1,0,1,1,6.19-.139" transform="translate(-79.037 -5.045)" fill="#9eefbe"/>
        <path id="Trazado_831993" data-name="Trazado 831993" d="M10.913,118.666a3.095,3.095,0,1,1-.11,6.188,3.095,3.095,0,1,1,.11-6.188" transform="translate(-5.156 -78.929)" fill="#9eefbe"/>
        <path id="Trazado_831994" data-name="Trazado 831994" d="M236.067,121.685a3.1,3.1,0,1,1-3.26-3.024,3.037,3.037,0,0,1,3.26,3.024" transform="translate(-152.889 -78.923)" fill="#9eefbe"/>
        <path id="Trazado_831995" data-name="Trazado 831995" d="M125.018,232.837a3.1,3.1,0,1,1-2.962-3.148,3.037,3.037,0,0,1,2.962,3.148" transform="translate(-79.037 -152.773)" fill="#9eefbe"/>
        <path id="Trazado_831996" data-name="Trazado 831996" d="M209.727,178.2c5.3-.211,7.713-2.517,7.811-7.453a5.4,5.4,0,0,1-7.811,7.453" transform="translate(-139.497 -113.572)" fill="#f8b883"/>
        <path id="Trazado_831997" data-name="Trazado 831997" d="M24.268,30.737a7.078,7.078,0,0,0,7.644-7.648,5.408,5.408,0,0,1-7.644,7.648" transform="translate(-16.141 -15.357)" fill="#f8b883"/>
        <path id="Trazado_831998" data-name="Trazado 831998" d="M23.943,178.13a7.246,7.246,0,0,0,5.424-1.532,7.292,7.292,0,0,0,2.373-5.937,5.4,5.4,0,0,1-7.8,7.469" transform="translate(-15.925 -113.513)" fill="#f8b883"/>
        <path id="Trazado_831999" data-name="Trazado 831999" d="M210.046,31.012a7.177,7.177,0,0,0,7.749-7.526,5.406,5.406,0,0,1-7.749,7.526" transform="translate(-139.709 -15.621)" fill="#f8b883"/>
        <path id="Trazado_832000" data-name="Trazado 832000" d="M111.243,93.356c1.164-.3,1.574.54,2,1.341a13.531,13.531,0,0,1-17.177,18.738A13.533,13.533,0,1,1,107.45,88.908c.8.424,1.637.831,1.342,1.995l-.526.664c-.9.252-1.592-.252-2.344-.606a11.032,11.032,0,0,0-13.947,3.963,10.794,10.794,0,0,0,1.846,14.052l.375.317.6.485a9.927,9.927,0,0,0,8.166,2.015,10.947,10.947,0,0,0,8-15.971c-.46-.939-.75-1.749.281-2.466" transform="translate(-58.331 -58.097)" fill="#070606"/>
        <path id="Trazado_832001" data-name="Trazado 832001" d="M125.34,100.418c-1.031.717-.741,1.526-.281,2.466a10.947,10.947,0,0,1-8,15.971,9.926,9.926,0,0,1-8.165-2.015.826.826,0,0,1,.98-.436c4.593.767,8.289-.94,11.2-4.342a11.47,11.47,0,0,0,1.286-13.433l.526-.664a6.179,6.179,0,0,0,2.451,2.453" transform="translate(-72.429 -65.16)" fill="#85eca5"/>
        <path id="Trazado_832002" data-name="Trazado 832002" d="M183.451,126.639c-1.5,0-3,0-4.494,0-.885,0-1.595-.365-1.586-1.309s.72-1.283,1.609-1.282c3,0,5.992,0,8.988,0,.824,0,1.462.357,1.5,1.218.038.959-.625,1.357-1.519,1.366-1.5.014-3,0-4.494,0" transform="translate(-117.976 -82.508)" fill="#111"/>
        <path id="Trazado_832003" data-name="Trazado 832003" d="M48.639,126.633c-1.443,0-2.886-.005-4.327,0-.876,0-1.618-.287-1.646-1.244-.03-1.066.748-1.356,1.695-1.353q4.327.014,8.655,0c.94,0,1.755.271,1.735,1.32s-.857,1.291-1.784,1.28c-1.442-.016-2.885,0-4.327,0" transform="translate(-28.378 -82.502)" fill="#111"/>
        <path id="Trazado_832004" data-name="Trazado 832004" d="M126.794,48.67q0,2.164,0,4.328c0,.888-.364,1.594-1.309,1.583s-1.283-.726-1.282-1.612c0-3,0-5.992,0-8.988,0-.823.363-1.462,1.223-1.493.958-.036,1.355.626,1.361,1.522.011,1.553,0,3.107,0,4.661" transform="translate(-82.611 -28.259)" fill="#111"/>
        <path id="Trazado_832005" data-name="Trazado 832005" d="M126.789,183.413c0,1.443,0,2.885,0,4.327,0,.889-.363,1.582-1.324,1.561s-1.269-.736-1.268-1.619q.007-4.411,0-8.821c0-.882.307-1.624,1.245-1.649,1.05-.027,1.358.763,1.352,1.707-.009,1.5,0,3,0,4.494" transform="translate(-82.606 -117.869)" fill="#111"/>
        <path id="Trazado_832006" data-name="Trazado 832006" d="M113.2,96.655a11.47,11.47,0,0,1-1.286,13.433c-2.915,3.4-6.61,5.11-11.2,4.342a.827.827,0,0,0-.98.436l-.6-.485-.375-.317a10.794,10.794,0,0,1-1.846-14.053,11.032,11.032,0,0,1,13.947-3.962c.753.354,1.444.858,2.344.606m.425,7.377c.02-2.033-.672-3.256-2.066-3.983a3.745,3.745,0,0,0-4.235.339,11.852,11.852,0,0,0-1.8,1.735,1.544,1.544,0,0,1-1.859.523,3.813,3.813,0,0,0-4.461,1.712,4.042,4.042,0,0,0,.555,4.782c.672.741,1.384,1.45,2.118,2.128a3.882,3.882,0,0,0,5.675-.022c1.69-1.612,3.311-3.3,4.958-4.953a3.535,3.535,0,0,0,1.11-2.26" transform="translate(-63.265 -63.185)" fill="#9eefbe"/>
        <path id="Trazado_832007" data-name="Trazado 832007" d="M105.98,151.938l.375.317-.375-.317" transform="translate(-70.491 -101.059)" fill="#85eca5"/>
        <path id="Trazado_832008" data-name="Trazado 832008" d="M120.673,113.075a3.535,3.535,0,0,1-1.11,2.26c-1.647,1.657-3.268,3.342-4.959,4.954a3.882,3.882,0,0,1-5.675.022c-.734-.679-1.446-1.388-2.118-2.128a4.042,4.042,0,0,1-.555-4.782,3.813,3.813,0,0,1,4.461-1.712,1.543,1.543,0,0,0,1.859-.523,11.868,11.868,0,0,1,1.8-1.735,3.745,3.745,0,0,1,4.235-.339c1.394.727,2.086,1.95,2.066,3.983m-8.817,5.934a2.873,2.873,0,0,0,.9-.441c1.71-1.669,3.406-3.354,5.061-5.077a1.272,1.272,0,0,0-.086-1.935,1.3,1.3,0,0,0-1.942-.023c-.859.789-1.7,1.607-2.485,2.466-.863.94-1.624,1.333-2.816.352a1.38,1.38,0,0,0-2.272,1.089c0,.817,2.648,3.522,3.642,3.569" transform="translate(-70.313 -72.228)" fill="#070606"/>
        <path id="Trazado_832009" data-name="Trazado 832009" d="M116.823,124.01c-.994-.047-3.642-2.752-3.642-3.569a1.38,1.38,0,0,1,2.272-1.089c1.192.982,1.953.588,2.816-.352.789-.859,1.626-1.677,2.485-2.466a1.3,1.3,0,0,1,1.942.023,1.272,1.272,0,0,1,.086,1.935c-1.655,1.723-3.351,3.408-5.061,5.077a2.874,2.874,0,0,1-.9.441" transform="translate(-75.281 -77.229)" fill="#f5f7f8"/>
      </g>
    </g>
  </g>
</svg>
