<svg xmlns="http://www.w3.org/2000/svg" xmlns:xlink="http://www.w3.org/1999/xlink" width="133.599" height="141.47" viewBox="0 0 133.599 141.47">
  <defs>
    <clipPath id="clip-path">
      <rect id="Rectángulo_379325" data-name="Rectángulo 379325" width="133.598" height="141.469" fill="none"/>
    </clipPath>
  </defs>
  <g id="Grupo_1080493" data-name="Grupo 1080493" transform="translate(0 0)">
    <path id="Trazado_832025" data-name="Trazado 832025" d="M0,0H14.4V102.622H0Z" transform="translate(22.165 37.516)" fill="#755952"/>
    <path id="Trazado_832026" data-name="Trazado 832026" d="M0,0H14.4V89.486H0Z" transform="translate(48.783 50.652)" fill="#cadeb4"/>
    <path id="Trazado_832027" data-name="Trazado 832027" d="M0,0H14.4V115.484H0Z" transform="translate(75.401 24.654)" fill="#c1cdf5"/>
    <path id="Trazado_832028" data-name="Trazado 832028" d="M0,0H14.4V65.089H0Z" transform="translate(102.019 75.049)" fill="#f9bcab"/>
    <path id="Trazado_832010" data-name="Trazado 832010" d="M5.62,0V141.468h126.12v-1.33H6.951V0Z" transform="translate(1.86 0)" fill="#455d73"/>
    <g id="Grupo_1080492" data-name="Grupo 1080492" transform="translate(0 0)">
      <g id="Grupo_1080491" data-name="Grupo 1080491" clip-path="url(#clip-path)">
        <text id="_0" data-name="0" transform="translate(0 59.295)" fill="#455d73" font-size="5" font-family="Montserrat-BoldItalic, Montserrat" font-weight="700" font-style="italic"><tspan x="0" y="0">0</tspan></text>
        <path id="Trazado_832011" data-name="Trazado 832011" d="M22.627,10.9a2.238,2.238,0,1,0-2.239-2.239A2.238,2.238,0,0,0,22.627,10.9" transform="translate(6.747 2.125)" fill="#755952"/>
        <path id="Trazado_832012" data-name="Trazado 832012" d="M31,17.79l-3.431-6.048-.005-.011-.036-.071a1.165,1.165,0,0,0-.084-.122,2.525,2.525,0,0,0-2.09-1.113H22.408a2.521,2.521,0,0,0-1.99.978,1.077,1.077,0,0,0-.2.257L16.741,17.79a1.119,1.119,0,1,0,1.939,1.118l1.838-2.945-1.425,7.143a.624.624,0,0,0,.636.775h1.589v4.327a1.119,1.119,0,1,0,2.239,0V23.88h.652v4.327a1.119,1.119,0,1,0,2.239,0V23.88h1.569a.624.624,0,0,0,.635-.775l-1.424-7.143,1.837,2.945A1.119,1.119,0,1,0,31,17.79" transform="translate(5.491 3.45)" fill="#755952"/>
        <path id="Trazado_832013" data-name="Trazado 832013" d="M42.621,20.957a2.215,2.215,0,1,0-2.215-2.215,2.215,2.215,0,0,0,2.215,2.215" transform="translate(13.371 5.469)" fill="#cadeb4"/>
        <path id="Trazado_832014" data-name="Trazado 832014" d="M50.122,27.77l-2.764-5.978,0-.011-.037-.071a.926.926,0,0,0-.083-.121,2.5,2.5,0,0,0-2.067-1.1h-2.92a2.492,2.492,0,0,0-1.968.969,1.112,1.112,0,0,0-.2.253l-2.8,6.06a1.108,1.108,0,1,0,1.919,1.107l1.978-4.451V38.073a1.107,1.107,0,1,0,2.215,0V31.09h.647v6.983a1.107,1.107,0,0,0,2.215,0V24.467L48.2,28.878a1.108,1.108,0,0,0,1.919-1.107" transform="translate(12.285 6.78)" fill="#cadeb4"/>
        <path id="Trazado_832015" data-name="Trazado 832015" d="M64.955,6.414a1.386,1.386,0,1,1,1.385-1.385,1.385,1.385,0,0,1-1.385,1.385" transform="translate(21.036 1.205)" fill="#c1cdf5"/>
        <path id="Trazado_832016" data-name="Trazado 832016" d="M61.321,10.683l2.124-3.745,0-.007.023-.044a.761.761,0,0,1,.052-.076,1.562,1.562,0,0,1,1.294-.688h1.826a1.561,1.561,0,0,1,1.232.606A.7.7,0,0,1,68,6.887l2.151,3.8a.693.693,0,0,1-1.2.692L67.814,9.551l.882,4.423a.387.387,0,0,1-.394.48h-.985v2.679a.693.693,0,0,1-1.385,0V14.454h-.4v2.679a.693.693,0,0,1-1.385,0V14.454h-.972a.387.387,0,0,1-.394-.48l.882-4.423-1.138,1.823a.693.693,0,1,1-1.2-.692" transform="translate(20.261 2.026)" fill="#c1cdf5"/>
        <path id="Trazado_832017" data-name="Trazado 832017" d="M59.516,6.447a1.372,1.372,0,1,1,1.372-1.372,1.372,1.372,0,0,1-1.372,1.372" transform="translate(19.24 1.226)" fill="#c1cdf5"/>
        <path id="Trazado_832018" data-name="Trazado 832018" d="M56.214,10.667l1.712-3.7,0-.005.023-.044c.016-.027.033-.052.051-.076a1.551,1.551,0,0,1,1.282-.681H61.09a1.544,1.544,0,0,1,1.219.6.664.664,0,0,1,.125.157l1.737,3.752a.686.686,0,1,1-1.188.685L61.758,8.6v8.449a.686.686,0,1,1-1.372,0V12.722h-.4v4.324a.685.685,0,1,1-1.371,0V8.622L57.4,11.353a.686.686,0,1,1-1.188-.685" transform="translate(18.571 2.038)" fill="#c1cdf5"/>
        <path id="Trazado_832019" data-name="Trazado 832019" d="M76.832,41.816a1.862,1.862,0,1,0-1.862-1.862,1.861,1.861,0,0,0,1.862,1.862" transform="translate(24.808 12.605)" fill="#f9bcab"/>
        <path id="Trazado_832020" data-name="Trazado 832020" d="M83.137,47.544l-2.322-5.026-.005-.008-.031-.06a.893.893,0,0,0-.068-.1,2.1,2.1,0,0,0-1.738-.926H76.518a2.1,2.1,0,0,0-1.654.815.922.922,0,0,0-.17.213l-2.357,5.093a.931.931,0,0,0,1.613.93l1.662-3.74V56.2a.931.931,0,1,0,1.862,0V50.333h.543V56.2a.931.931,0,1,0,1.862,0V44.768l1.645,3.707a.931.931,0,0,0,1.613-.93" transform="translate(23.896 13.707)" fill="#f9bcab"/>
        <path id="Trazado_832021" data-name="Trazado 832021" d="M79.574,48.073a1.053,1.053,0,0,1,1.946-.527,1.4,1.4,0,0,1,.142.732c.008.659,0,1.318,0,1.978v4.791a.266.266,0,0,0,.531,0V49.4a6.831,6.831,0,0,0-.059-1.745,1.581,1.581,0,0,0-3.092.418c-.019.343.512.341.531,0" transform="translate(26.156 15.398)" fill="#f9bcab"/>
        <path id="Trazado_832022" data-name="Trazado 832022" d="M86.9,41.688a1.881,1.881,0,1,0-1.881-1.881A1.88,1.88,0,0,0,86.9,41.688" transform="translate(28.135 12.55)" fill="#f9bcab"/>
        <path id="Trazado_832023" data-name="Trazado 832023" d="M93.945,47.481,91.06,42.4l0-.009-.031-.06a.93.93,0,0,0-.071-.1,2.123,2.123,0,0,0-1.755-.936H86.72a2.121,2.121,0,0,0-1.673.822.966.966,0,0,0-.17.216l-2.92,5.152a.941.941,0,0,0,1.63.94l1.544-2.475-1.2,6a.525.525,0,0,0,.535.651H85.8v3.636a.941.941,0,1,0,1.882,0V52.6h.548v3.636a.941.941,0,0,0,1.882,0V52.6h1.319a.525.525,0,0,0,.534-.651l-1.2-6,1.544,2.475a.941.941,0,0,0,1.63-.94" transform="translate(27.079 13.664)" fill="#f9bcab"/>
        <path id="Trazado_832024" data-name="Trazado 832024" d="M90.056,48.073A1.053,1.053,0,0,1,92,47.546a1.4,1.4,0,0,1,.142.732c.008.659,0,1.318,0,1.978v4.791a.266.266,0,0,0,.531,0V49.4a6.831,6.831,0,0,0-.057-1.745,1.582,1.582,0,0,0-3.093.418c-.019.343.512.341.531,0" transform="translate(29.624 15.398)" fill="#f9bcab"/>
      </g>
    </g>
  </g>
</svg>
