<svg id="Grupo_1081070" data-name="Grupo 1081070" xmlns="http://www.w3.org/2000/svg" xmlns:xlink="http://www.w3.org/1999/xlink" width="610" height="522.476" viewBox="0 0 610 522.476">
  <defs>
    <clipPath id="clip-path">
      <rect id="Rectángulo_379590" data-name="Rectángulo 379590" width="610" height="522.476" fill="none"/>
    </clipPath>
    <clipPath id="clip-path-4">
      <rect id="Rectángulo_379571" data-name="Rectángulo 379571" width="34.934" height="264.333" fill="none"/>
    </clipPath>
    <clipPath id="clip-path-5">
      <rect id="Rectángulo_379572" data-name="Rectángulo 379572" width="38.707" height="259.111" fill="none"/>
    </clipPath>
    <clipPath id="clip-path-6">
      <rect id="Rectángulo_379573" data-name="Rectángulo 379573" width="29.214" height="13.684" fill="none"/>
    </clipPath>
    <clipPath id="clip-path-7">
      <rect id="Rectángulo_379574" data-name="Rectángulo 379574" width="10.149" height="12.915" fill="none"/>
    </clipPath>
    <clipPath id="clip-path-8">
      <rect id="Rectángulo_379575" data-name="Rectángulo 379575" width="36.135" height="192.515" fill="none"/>
    </clipPath>
    <clipPath id="clip-path-9">
      <rect id="Rectángulo_379576" data-name="Rectángulo 379576" width="9.361" height="11.092" fill="none"/>
    </clipPath>
    <clipPath id="clip-path-10">
      <rect id="Rectángulo_379577" data-name="Rectángulo 379577" width="78.418" height="80.038" fill="none"/>
    </clipPath>
    <clipPath id="clip-path-11">
      <rect id="Rectángulo_379578" data-name="Rectángulo 379578" width="104.75" height="124.698" fill="none"/>
    </clipPath>
    <clipPath id="clip-path-12">
      <rect id="Rectángulo_379579" data-name="Rectángulo 379579" width="48.337" height="202.406" fill="none"/>
    </clipPath>
    <clipPath id="clip-path-13">
      <rect id="Rectángulo_379580" data-name="Rectángulo 379580" width="10.582" height="33.351" fill="none"/>
    </clipPath>
    <clipPath id="clip-path-14">
      <rect id="Rectángulo_379581" data-name="Rectángulo 379581" width="10.582" height="33.36" fill="none"/>
    </clipPath>
    <clipPath id="clip-path-15">
      <rect id="Rectángulo_379582" data-name="Rectángulo 379582" width="50.616" height="31.559" fill="none"/>
    </clipPath>
    <clipPath id="clip-path-16">
      <rect id="Rectángulo_379583" data-name="Rectángulo 379583" width="8.954" height="14.176" fill="none"/>
    </clipPath>
    <clipPath id="clip-path-17">
      <rect id="Rectángulo_379584" data-name="Rectángulo 379584" width="10.561" height="11.676" fill="none"/>
    </clipPath>
    <clipPath id="clip-path-18">
      <rect id="Rectángulo_379585" data-name="Rectángulo 379585" width="3.2" height="3.451" fill="none"/>
    </clipPath>
    <clipPath id="clip-path-19">
      <rect id="Rectángulo_379586" data-name="Rectángulo 379586" width="2.937" height="4.024" fill="none"/>
    </clipPath>
    <clipPath id="clip-path-20">
      <path id="Trazado_833505" data-name="Trazado 833505" d="M164.165,84.335a7.858,7.858,0,1,0,5.554-2.3,7.855,7.855,0,0,0-5.554,2.3" transform="translate(-161.863 -82.035)" fill="none"/>
    </clipPath>
    <clipPath id="clip-path-21">
      <path id="Trazado_833509" data-name="Trazado 833509" d="M181.374,84.67a7.854,7.854,0,1,0,5.554-2.3,7.857,7.857,0,0,0-5.554,2.3" transform="translate(-179.072 -82.368)" fill="none"/>
    </clipPath>
    <clipPath id="clip-path-23">
      <rect id="Rectángulo_379588" data-name="Rectángulo 379588" width="149.872" height="237.502" fill="none"/>
    </clipPath>
  </defs>
  <g id="Grupo_1081069" data-name="Grupo 1081069" clip-path="url(#clip-path)">
    <g id="Grupo_1081004" data-name="Grupo 1081004">
      <g id="Grupo_1081003" data-name="Grupo 1081003" clip-path="url(#clip-path)">
        <path id="Trazado_833408" data-name="Trazado 833408" d="M593.383,311.959c0,8.821-129.624,18.363-284.925,18.363S26.47,322.378,26.47,313.558s566.913-10.419,566.913-1.6" transform="translate(16.617 192.154)" fill="#d0dbfc"/>
        <path id="Trazado_833409" data-name="Trazado 833409" d="M358.238,116.7s-11.958,4.965-28.385,16.045c-2.777,1.872-6.132,27.718-6.132,27.718s-2.694-22.53-4.289-21.282a233.1,233.1,0,0,0-33.806,32.64c-1.273,1.506,12.732,18.967,11.473,20.538-1.393,1.737-18.05-12.41-19.418-10.6-16.8,22.257-60.659,83.376-67.012,116.89l44.7,18.428c53.028,5.28,70.318-12.762,76.891-26.258,1.164-2.388-44.6-8.624-44.6-8.624s50.259-3.217,51.32-5.5c7.82-16.847,15.913-35.826,21.542-52.781.843-2.541-52.12-.33-51.4-2.767.319-1.074,54.376-6.846,54.669-7.9a104.122,104.122,0,0,0,4.027-21.26c.114-2.043-41.389.576-41.389.576s41.061-9.243,41.666-14.741c2.02-18.356-3.169-38.891-9.859-61.126" transform="translate(132.252 73.263)" fill="#84c4e2"/>
        <path id="Trazado_833410" data-name="Trazado 833410" d="M256.993,269.868l39.037-82.855c-.133-.975-.225-1.96-.339-2.937-.391-3.373-.75-6.747-1.13-10.121-.936-8.311-1.472-16.667-2.518-24.967-1.252-9.942-1.691-9.8-1.691-9.8,1.244-.586,2.185,6.306,2.647,8.8.723,3.91,1.109,7.372,1.719,11.3,1.213,7.817,2.4,15.62,3.3,23.479l0,.016L329.157,116.7s-15.841,38.873-30.472,72.783c.106-.037.217-.072.317-.111,1.141-.426,27.682-1.569,40.011-11.891l-.348,1.268c-12.155,12.018-40.291,13.65-41.314,13.82C292.4,204,290.7,207.52,285.7,218.45a7.618,7.618,0,0,0,1.986-.182l3.326-.405q5.865-.718,11.73-1.431c9.068-1.1,18.169-1.864,27.252-2.824,2.123-.226,3.6-.238,3.6-.238s-8.966,1.916-14.878,2.938c-8.9,1.538-17.827,2.95-26.761,4.317q-1.878.288-3.755.576a6.6,6.6,0,0,1-3.737-.047c-12.15,26.342-23.15,47.6-27.461,48.714" transform="translate(161.333 73.263)" fill="#aee4f4"/>
        <path id="Trazado_833411" data-name="Trazado 833411" d="M311.524,215l-56.515,3.3-.609,2.956s44.161-3.592,57.123-6.257" transform="translate(159.706 134.968)" fill="#4e9dc4"/>
        <path id="Trazado_833412" data-name="Trazado 833412" d="M256.722,150.566l30.137,37.758-3.446,7.159s-27.264-40.779-26.691-44.917" transform="translate(161.158 94.521)" fill="#aee4f4"/>
        <path id="Trazado_833413" data-name="Trazado 833413" d="M68.953,89.123s14.827,7.8,34.7,23.985c3.358,2.735-2.2,60.351-2.2,60.351s12.965-52.637,14.873-50.843a301.13,301.13,0,0,1,41.046,47.86c.874,1.268-10.351,18.286-9.487,19.584,21.275,31.886,51.42,56.653,55.976,104.3,0,0,3.133,29.137-.07,27.247S120.7,383.836,120.7,383.836s-10.672-17.225-23.394-39.569c-1.691-2.972,30.762-17.845,29.017-20.969-1.222-2.191-36.633,7.4-37.865,5.157C75.629,305.1,62.706,279.5,57.6,262.746c-.646-2.119,33.752-2,33.145-4.219-.724-2.65-37.1-10.46-37.1-10.46a238.715,238.715,0,0,1-6.052-63.454c.1-2.635,46.3,6.885,46.3,6.885s-45.34-21.646-44.962-25.1A287.64,287.64,0,0,1,68.953,89.123" transform="translate(29.769 55.949)" fill="#f7ab61"/>
        <path id="Trazado_833414" data-name="Trazado 833414" d="M60.649,89.123s14.827,7.8,34.7,23.985c3.358,2.735-2.2,60.351-2.2,60.351s12.965-52.637,14.873-50.843a301.132,301.132,0,0,1,41.046,47.86c.9,1.305-6.049,12.3-5.158,13.639,21.241,31.87,47.1,62.656,51.648,110.241,0,0,3.133,29.137-.07,27.247s-71.023-46.209-71.023-46.209Z" transform="translate(38.074 55.949)" fill="#ffc68d"/>
        <path id="Trazado_833415" data-name="Trazado 833415" d="M66.554,89.123s47.555,152.029,52.709,166.658c1.281,3.618-65.837-7.026-68.02-7.714.13.22,67.144,21.874,69.3,11.333,12.522,35.264,15.361,32.993,20.788,34.937Z" transform="translate(32.169 55.949)" fill="#ffe2cf"/>
        <path id="Trazado_833416" data-name="Trazado 833416" d="M57.906,142.914c.54.023,38.453,18.308,38.453,18.308l1.818,4.131Z" transform="translate(36.352 89.718)" fill="#ffe2cf"/>
        <path id="Trazado_833417" data-name="Trazado 833417" d="M89.28,122.025l-9.739,37.2.474,4.279Z" transform="translate(49.933 76.604)" fill="#ffe2cf"/>
        <path id="Trazado_833418" data-name="Trazado 833418" d="M228.833,377.368c-10.462,9.944-45.465,4.849-71.9-5.578a187.614,187.614,0,0,1-22.385-10.634c5.526-.306,40.242-4.279,31.839-55.914-.374-2.3-28.313,26.922-32.507,55.54-11.386-6.407-23.026-14-40.584-30.653-4.052-3.842-17.406-19.151-25.1-31.442,5.18-2.525,28.608-15.545,41.725-50.059.816-2.149-40.115,11.023-42.644,48.563a183.939,183.939,0,0,1-17.741-38.406c.05-.018.116-.044.173-.065-.148-.4-.28-.807-.392-1.219-.067-.241-.119-.485-.177-.728-.013.205-.039.4-.05.606A209.424,209.424,0,0,1,42.055,228.6c2.281-2.411,9.985-13.538,2.567-48.666-.454-2.154-12.068,16.309-4.734,44.008A214,214,0,0,0,47.237,256.2C14.5,230.66,0,256.532,0,256.532c18.444,7.364,44.542,2.092,47.463.374a185.824,185.824,0,0,0,18.4,40.657c.033.024,2.473,3.934,2.9,4.6a178.643,178.643,0,0,0,25.47,30.889c0,.032-.011.063-.016.1l.116,0c.342.33.684.654,1.027.98-39.078-8.6-63.442,7.231-63.442,7.231,29.142,18.724,60.125-.539,65.226-5.554a189.469,189.469,0,0,0,29.129,22.1,21.764,21.764,0,0,1,5.194,3.14l.011-.015a190.247,190.247,0,0,0,24.933,12.06c19.491,7.688,37.385,11,50.9,11,10.7,0,18.659-2.08,22.48-5.713Z" transform="translate(0.001 112.849)" fill="#9d99e5"/>
        <path id="Trazado_833419" data-name="Trazado 833419" d="M102.262,292.729c-27.853-11.878-55.709,5.432-55.709,5.432,27.306,15.814,49.361,1.729,55.649-4.527,1.187-1.029.094-.842.06-.905" transform="translate(29.225 181.153)" fill="#726ae4"/>
        <path id="Trazado_833420" data-name="Trazado 833420" d="M66.359,200.9c.789-2.075-31.96,9.127-36.2,43.361.169.07.29.959.448,1.406,5.67-2.538,23.669-12.962,35.756-44.767" transform="translate(18.931 125.969)" fill="#726ae4"/>
        <path id="Trazado_833421" data-name="Trazado 833421" d="M62.432,258.895c-32.354-27.063-54.18-3.985-54.18-3.985,18.723,9.262,48.166,7.727,55.315,5.834,0,0-1.1-1.662-1.122-1.823a.032.032,0,0,0-.013-.026" transform="translate(5.18 154.268)" fill="#726ae4"/>
        <path id="Trazado_833422" data-name="Trazado 833422" d="M89.82,239.671c-.361-2.215-25.323,27.977-30.918,55.59.207-.021.524.246.855.544,10-1.538,37.5-10.46,30.063-56.134" transform="translate(36.977 150.387)" fill="#726ae4"/>
        <path id="Trazado_833423" data-name="Trazado 833423" d="M238.154,312.347c8.53,7.989,36.84,3.658,58.18-4.94a151.963,151.963,0,0,0,18.06-8.741c-4.475-.215-32.606-3.228-26.106-45.081.288-1.862,23.08,21.628,26.645,44.774,9.181-5.253,18.56-11.473,32.678-25.056a175.5,175.5,0,0,0,20.136-25.6c-4.208-2.012-23.254-12.417-34.076-40.283-.674-1.734,32.542,8.689,34.812,39.067a148.825,148.825,0,0,0,14.137-31.2l-.14-.05c.119-.326.221-.656.311-.991.052-.2.093-.392.138-.589.013.166.034.322.046.49A169.551,169.551,0,0,0,388.5,190.8c-1.861-1.94-8.165-10.9-2.365-39.386.355-1.747,9.866,13.131,4.092,35.6a173.421,173.421,0,0,1-5.761,26.163c26.35-20.871,38.246-.01,38.246-.01-14.891,6.072-36.052,1.955-38.425.583a150.41,150.41,0,0,1-14.661,33.026c-.026.02-1.978,3.2-2.323,3.741a144.669,144.669,0,0,1-20.438,25.159c0,.026.01.052.013.078l-.093,0c-.275.27-.552.534-.827.8,31.587-7.195,51.407,5.479,51.407,5.479-23.484,15.33-48.682-.081-52.841-4.112a153.265,153.265,0,0,1-23.455,18.067,17.569,17.569,0,0,0-4.187,2.574l-.01-.013a153.836,153.836,0,0,1-20.114,9.912c-15.734,6.34-30.2,9.129-41.144,9.208-8.666.063-15.12-1.574-18.234-4.493Z" transform="translate(149.02 94.966)" fill="#f7ab61"/>
        <path id="Trazado_833424" data-name="Trazado 833424" d="M286.849,243.434a5.225,5.225,0,0,1,2.357-.819.574.574,0,0,0,.355-1c.386-.27.772-.54,1.139-.838a.477.477,0,0,0,.12-.145c28.742-4.177,40.507,6.495,40.507,6.495-22.014,12.964-39.954,1.691-45.081-3.337.2-.119.4-.243.6-.356" transform="translate(179.698 150.454)" fill="#ffcda4"/>
        <path id="Trazado_833425" data-name="Trazado 833425" d="M308.664,168.536c-.651-1.677,25.929,7.2,29.567,34.893-.138.057-.23.776-.355,1.141-4.6-2.022-19.24-10.356-29.212-36.034" transform="translate(193.763 105.679)" fill="#ffcda4"/>
        <path id="Trazado_833426" data-name="Trazado 833426" d="M318.114,215.5c26.035-22.1,43.842-3.545,43.842-3.545-15.1,7.61-38.951,6.54-44.751,5.049,0,0,.881-1.353.9-1.483a.026.026,0,0,1,.011-.021" transform="translate(199.133 128.481)" fill="#ffcda4"/>
        <path id="Trazado_833427" data-name="Trazado 833427" d="M288.6,200.076c.278-1.8,20.666,22.5,25.359,44.826-.166-.016-.423.2-.689.444-8.1-1.187-30.42-8.248-24.671-45.27" transform="translate(180.591 125.544)" fill="#ffcda4"/>
        <path id="Trazado_833428" data-name="Trazado 833428" d="M423.385,359.577H256a18.615,18.615,0,0,1-18.617-18.615v-90.4A18.617,18.617,0,0,1,256,231.948H423.385A18.616,18.616,0,0,1,442,250.565v90.4a18.615,18.615,0,0,1-18.615,18.615" transform="translate(149.02 145.611)" fill="#736be5"/>
        <path id="Trazado_833429" data-name="Trazado 833429" d="M411.268,359.9H243.879a18.615,18.615,0,0,1-18.617-18.615v-90.4a18.617,18.617,0,0,1,18.617-18.617H411.268a18.616,18.616,0,0,1,18.615,18.617v90.4A18.615,18.615,0,0,1,411.268,359.9" transform="translate(141.413 145.813)" fill="#9d99e5"/>
        <path id="Trazado_833430" data-name="Trazado 833430" d="M320.563,282.808H289.089a36.472,36.472,0,1,1,0-72.944h31.475a36.472,36.472,0,1,1,0,72.944m-31.475-57.4a20.932,20.932,0,1,0,0,41.863h31.475a20.932,20.932,0,1,0,0-41.863Z" transform="translate(158.585 131.747)" fill="#9d99e5"/>
        <path id="Trazado_833431" data-name="Trazado 833431" d="M225.262,257.911h0a25.963,25.963,0,0,1,25.963-25.963H413.831c14.339,0,16.937,10.3,16.051,25.963Z" transform="translate(141.413 145.611)" fill="#bdbdff"/>
        <path id="Trazado_833432" data-name="Trazado 833432" d="M329.633,280.875H307.927V262.613a6.458,6.458,0,1,0-12.916,0v18.262H273.3a6.458,6.458,0,1,0,0,12.916H295.01v25.151a6.458,6.458,0,0,0,12.916,0V293.791h21.706a6.458,6.458,0,1,0,0-12.916" transform="translate(167.518 160.807)" fill="#fff"/>
      </g>
    </g>
    <g id="Grupo_1081059" data-name="Grupo 1081059">
      <g id="Grupo_1081058" data-name="Grupo 1081058" clip-path="url(#clip-path)">
        <path id="Trazado_833436" data-name="Trazado 833436" d="M420.523,68.469c-3.69-35.98-68.682-45.942-130.954-38.562S224.881,51.4,226.489,93.883c.529,13.944,4.361,25,10.569,33.726-3.819,13.05-19.178,15.737-17.044,17.785,10.973,10.538,30.3.868,34.958-1.712,30.05,17.639,77.674,15.062,112.043,10.213,45.666-6.441,57.553-45.986,53.508-85.426" transform="translate(137.992 17.344)" fill="#6f6fd8"/>
        <path id="Trazado_833437" data-name="Trazado 833437" d="M271.818,69.3a6.6,6.6,0,1,1-6.605-6.605,6.606,6.606,0,0,1,6.605,6.605" transform="translate(162.348 39.358)" fill="#fff"/>
        <path id="Trazado_833438" data-name="Trazado 833438" d="M291.872,69.3a6.6,6.6,0,1,1-6.605-6.605,6.606,6.606,0,0,1,6.605,6.605" transform="translate(174.937 39.358)" fill="#fff"/>
        <path id="Trazado_833439" data-name="Trazado 833439" d="M311.158,69.3a6.6,6.6,0,1,1-6.605-6.605,6.606,6.606,0,0,1,6.605,6.605" transform="translate(187.044 39.358)" fill="#fff"/>
        <path id="Trazado_833440" data-name="Trazado 833440" d="M168.362,129.581c.664-1.052,25.958,11.647,54.379-4.96s11.814,158.231,11.814,158.231L232.249,373.6l-3.229,43.821h-70.8L143.683,279.5s14.8-134.267,24.679-149.915" transform="translate(90.2 77.536)" fill="#5dcec1"/>
        <path id="Trazado_833441" data-name="Trazado 833441" d="M265.751,154.712c-11.567-9.944-64.81-30.141-64.81-30.141L192.251,140.1s2.819,192.585,1.366,232.256l-.021,44.4h64.977l.327-100.285c18.791-4.768,33.229-12.687,41.166-21.374,9-9.861,11.18-15.423,11.18-28.532s-33.928-101.9-45.495-111.848" transform="translate(120.69 78.202)" fill="#fff"/>
        <path id="Trazado_833442" data-name="Trazado 833442" d="M197.447,297.69c.61-.993.947-1.537.947-1.537V125.633s-53.243,20.2-64.81,30.141-45.2,101.9-45.521,115.007c-1.268,52.009,43.963,117.626,43.963,117.626a26.185,26.185,0,0,0,4.227-2.544c-.882,12.115-2.381,30.221-2.381,30.221h70.579s.233-53.892,0-56.354c-.14-1.462-3.941-35.033-7-62.041" transform="translate(55.268 78.869)" fill="#fff"/>
        <path id="Trazado_833443" data-name="Trazado 833443" d="M234.776,213.627l-11.894,7.055a.886.886,0,0,1-.887.01l-12.57-7.068a.89.89,0,0,1-.453-.773V186.5a.889.889,0,0,1,.889-.887h24.462a.887.887,0,0,1,.887.887v26.367a.885.885,0,0,1-.435.763" transform="translate(131.188 116.521)" fill="#d5e1ed"/>
        <path id="Trazado_833444" data-name="Trazado 833444" d="M234.776,211.573l-11.894,7.055a.886.886,0,0,1-.887.01l-12.57-7.068a.89.89,0,0,1-.453-.773V189.769a.889.889,0,0,1,.889-.887h24.462a.887.887,0,0,1,.887.887V210.81a.885.885,0,0,1-.435.763" transform="translate(131.188 118.575)" fill="#b8ddff"/>
        <g id="Grupo_1081012" data-name="Grupo 1081012" transform="translate(314.307 187.952)" opacity="0.5">
          <g id="Grupo_1081011" data-name="Grupo 1081011">
            <g id="Grupo_1081010" data-name="Grupo 1081010" clip-path="url(#clip-path-4)">
              <path id="Trazado_833445" data-name="Trazado 833445" d="M193.09,379.8V115.466s2.238,4.105,10.418,12.4c10.231,10.371,18.993,26.02,18.993,26.02l-18.47-3.575,23.993,24.145-18.052,106.11L197.2,282.469l8.082,25.678Z" transform="translate(-193.09 -115.466)" fill="#8fa7d7"/>
            </g>
          </g>
        </g>
        <g id="Grupo_1081015" data-name="Grupo 1081015" transform="translate(221.011 187.793)" opacity="0.5">
          <g id="Grupo_1081014" data-name="Grupo 1081014">
            <g id="Grupo_1081013" data-name="Grupo 1081013" clip-path="url(#clip-path-5)">
              <path id="Trazado_833446" data-name="Trazado 833446" d="M160.293,127.765c-10.231,10.371-18.993,26.02-18.993,26.02l18.47-3.575-24,24.146,38.707,200.122L170.71,115.368s-2.238,4.105-10.418,12.4" transform="translate(-135.775 -115.368)" fill="#8fa7d7"/>
            </g>
          </g>
        </g>
        <path id="Trazado_833447" data-name="Trazado 833447" d="M194.638,369.516h0l-4.014-255.3s4.154,1.782,12.334,10.074c10.231,10.371,17.077,28.343,17.077,28.343l-18.47-3.575L225.558,173.2l-17.2,109.176-8.809,2.033L206,297.358Z" transform="translate(119.669 71.699)" fill="#fff"/>
        <path id="Trazado_833448" data-name="Trazado 833448" d="M173.027,366.9V114.211s-4.154,1.781-12.334,10.073c-10.231,10.371-17.077,28.344-17.077,28.344l18.47-3.575L138.093,173.2Z" transform="translate(86.691 71.699)" fill="#fff"/>
        <path id="Trazado_833449" data-name="Trazado 833449" d="M188.238,283.669a162.875,162.875,0,0,1-28.62-2.46v-1.485c.278.055,28.344,5.595,54.485-.072v1.488a122.736,122.736,0,0,1-25.865,2.528" transform="translate(100.204 175.559)" fill="#38a595"/>
        <path id="Trazado_833450" data-name="Trazado 833450" d="M184.718,144.728a62.25,62.25,0,0,1-25.164-5.167v-1.786c.252.125,26.023,12.365,51.148-1.113l.028,1.732a53.688,53.688,0,0,1-26.012,6.334" transform="translate(100.164 85.793)" fill="#38a595"/>
        <g id="Grupo_1081018" data-name="Grupo 1081018" transform="translate(166.769 349.729)" opacity="0.5">
          <g id="Grupo_1081017" data-name="Grupo 1081017">
            <g id="Grupo_1081016" data-name="Grupo 1081016" clip-path="url(#clip-path-6)">
              <path id="Trazado_833451" data-name="Trazado 833451" d="M102.452,214.851s19.219,3.69,29.214,13.685c0,0-24.908-12.454-29.214-13.685" transform="translate(-102.452 -214.851)" fill="#8fa7d7"/>
            </g>
          </g>
        </g>
        <path id="Trazado_833452" data-name="Trazado 833452" d="M141.619,267.477l4.03,4.888s-8.111,19.847-17.113,30.314l-7.3-10.156s11.23-8.557,20.385-25.047" transform="translate(76.107 167.915)" fill="#ffcca9"/>
        <g id="Grupo_1081021" data-name="Grupo 1081021" transform="translate(188.447 349.729)" opacity="0.5">
          <g id="Grupo_1081020" data-name="Grupo 1081020">
            <g id="Grupo_1081019" data-name="Grupo 1081019" clip-path="url(#clip-path-7)">
              <path id="Trazado_833453" data-name="Trazado 833453" d="M116.847,214.851c.461.768,6.92,6.918,9.072,12.915l-10.148-11.531Z" transform="translate(-115.769 -214.851)" fill="#8fa7d7"/>
            </g>
          </g>
        </g>
        <g id="Grupo_1081024" data-name="Grupo 1081024" transform="translate(191.522 282.988)" opacity="0.5">
          <g id="Grupo_1081023" data-name="Grupo 1081023">
            <g id="Grupo_1081022" data-name="Grupo 1081022" clip-path="url(#clip-path-8)">
              <path id="Trazado_833454" data-name="Trazado 833454" d="M136.111,173.858c-.049-.921-5.906,76.465-8.411,86.589l19.449,59.482s-10.27,23.219-29.49,35.664c0,0,12.3-1.838,31.676-28.592,0,0-9.687,27.677-23.372,39.363,0,0,21.526-12.762,27.83-51.509l-20.3-54.408s3.537-69.369,2.614-86.589" transform="translate(-117.659 -173.85)" fill="#8fa7d7"/>
            </g>
          </g>
        </g>
        <g id="Grupo_1081027" data-name="Grupo 1081027" transform="translate(370.229 394.669)" opacity="0.5">
          <g id="Grupo_1081026" data-name="Grupo 1081026">
            <g id="Grupo_1081025" data-name="Grupo 1081025" clip-path="url(#clip-path-9)">
              <path id="Trazado_833455" data-name="Trazado 833455" d="M236.806,242.459l-9.361,2.7,1.429,8.39,7.932-3.062Z" transform="translate(-227.445 -242.459)" fill="#8fa7d7"/>
            </g>
          </g>
        </g>
        <g id="Grupo_1081030" data-name="Grupo 1081030" transform="translate(322.833 278.3)" opacity="0.5">
          <g id="Grupo_1081029" data-name="Grupo 1081029">
            <g id="Grupo_1081028" data-name="Grupo 1081028" clip-path="url(#clip-path-10)">
              <path id="Trazado_833456" data-name="Trazado 833456" d="M252.836,229.266l.007,0-7.118-58.292,2.209,60.14c-23.878,9.067-49.6,19.9-49.6,19.9s13.667-3.523,30.446-8,47.972-21.988,47.972-21.988c-6.361,1.875-14.86,4.865-23.91,8.241" transform="translate(-198.328 -170.969)" fill="#8fa7d7"/>
            </g>
          </g>
        </g>
        <g id="Grupo_1081033" data-name="Grupo 1081033" transform="translate(327.293 279.769)" opacity="0.1">
          <g id="Grupo_1081032" data-name="Grupo 1081032">
            <g id="Grupo_1081031" data-name="Grupo 1081031" clip-path="url(#clip-path-11)">
              <path id="Trazado_833457" data-name="Trazado 833457" d="M284.127,171.872s15.033,40.46,15.192,66.729c.06,9.77-5.518,17.84-9.532,20.759-39.141,28.45-87.4,29.461-87.4,29.461s-.4,6.518-1.32,7.748c0,0,85.427-5.658,101.757-42.653,0,0,3.713-5.9,2.87-15.159-1.589-17.461-11.293-41.979-21.566-66.885" transform="translate(-201.069 -171.872)" fill="#8fa7d7"/>
            </g>
          </g>
        </g>
        <g id="Grupo_1081036" data-name="Grupo 1081036" transform="translate(143.185 264.871)" opacity="0.1">
          <g id="Grupo_1081035" data-name="Grupo 1081035">
            <g id="Grupo_1081034" data-name="Grupo 1081034" clip-path="url(#clip-path-12)">
              <path id="Trazado_833458" data-name="Trazado 833458" d="M117.221,162.748c.6-1.553-24.345,61.968-24.125,84.83.461,47.993,35.9,108.537,43.2,115l-4.227,2.544S85.024,295.242,88.11,247.5c.609-9.436,1.756-13.608,29.111-84.752" transform="translate(-87.963 -162.72)" fill="#8fa7d7"/>
            </g>
          </g>
        </g>
        <path id="Trazado_833459" data-name="Trazado 833459" d="M220.112,291.15c2.767-28.138-5.323-45.474-4.382-45.9,9.135-4.118,31.836-13.043,50.126-20.132l.78-41.448-93.415-3.781L171.1,317.872l93.081-3.788.566-30.111a350.878,350.878,0,0,1-44.635,7.177" transform="translate(107.412 112.931)" fill="#ae376d"/>
        <path id="Trazado_833460" data-name="Trazado 833460" d="M220.274,182.64l.044-1.677-25.34-1.45-.044,2.1Z" transform="translate(122.374 112.693)" fill="#a1b5bf"/>
        <path id="Trazado_833461" data-name="Trazado 833461" d="M197.355,182.72a.529.529,0,1,1-.529-.529.529.529,0,0,1,.529.529" transform="translate(123.23 114.375)" fill="#a1b5bf"/>
        <path id="Trazado_833462" data-name="Trazado 833462" d="M209.529,183.162a.322.322,0,1,1-.322-.322.323.323,0,0,1,.322.322" transform="translate(131.132 114.782)" fill="#a1b5bf"/>
        <path id="Trazado_833463" data-name="Trazado 833463" d="M203.806,100.875c-2.66,9.592-7.362,16.94-9.4,16.375,0,0,1.437-6.107,3.353-15.876,2.222-11.333,2.536-19.322,7.174-18.892,2.106.2,1.535,8.8-1.125,18.392" transform="translate(122.042 51.77)" fill="#f0ba92"/>
        <g id="Grupo_1081039" data-name="Grupo 1081039" transform="translate(316.446 135.69)" opacity="0.6">
          <g id="Grupo_1081038" data-name="Grupo 1081038">
            <g id="Grupo_1081037" data-name="Grupo 1081037" clip-path="url(#clip-path-13)">
              <path id="Trazado_833464" data-name="Trazado 833464" d="M200.241,96.345c-2.421,9.656-3.8,20.91-5.837,20.344,0,0,2.033-8.71,3.949-18.478,2.222-11.331,2-15.249,6.632-14.819,0,0-1.8,1.224-4.743,12.954" transform="translate(-194.404 -83.359)" fill="#d88d64"/>
            </g>
          </g>
        </g>
        <path id="Trazado_833465" data-name="Trazado 833465" d="M151.132,100.875c2.66,9.592,7.078,17,9.117,16.436,0,0-2.17-7.913-3.459-16.227-1.768-11.411-2.145-19.03-6.783-18.6-2.106.2-1.535,8.8,1.125,18.392" transform="translate(93.366 51.77)" fill="#f0ba92"/>
        <g id="Grupo_1081042" data-name="Grupo 1081042" transform="translate(243.033 135.751)" opacity="0.6">
          <g id="Grupo_1081041" data-name="Grupo 1081041">
            <g id="Grupo_1081040" data-name="Grupo 1081040" clip-path="url(#clip-path-14)">
              <path id="Trazado_833466" data-name="Trazado 833466" d="M152.9,95.282c2.421,9.656,4.945,22.022,6.985,21.456,0,0-2.17-9.939-4.084-19.707-2.224-11.331-1.861-14.02-6.5-13.59,0,0,.658.112,3.6,11.842" transform="translate(-149.304 -83.397)" fill="#d88d64"/>
            </g>
          </g>
        </g>
        <path id="Trazado_833467" data-name="Trazado 833467" d="M210.484,138.656s-3.511,9.264-25.644,9.264-25.292-8.707-25.292-8.707V111.075h50.583Z" transform="translate(100.16 69.73)" fill="#f0ba92"/>
        <g id="Grupo_1081045" data-name="Grupo 1081045" transform="translate(259.708 173.429)" opacity="0.6">
          <g id="Grupo_1081044" data-name="Grupo 1081044">
            <g id="Grupo_1081043" data-name="Grupo 1081043" clip-path="url(#clip-path-15)">
              <path id="Trazado_833468" data-name="Trazado 833468" d="M210.164,121.067c-4.566,9.54-22.437,17.036-25.325,17.036s-18.065-5.757-25.291-16.877V106.544h50.583Z" transform="translate(-159.548 -106.544)" fill="#d88d64"/>
            </g>
          </g>
        </g>
        <path id="Trazado_833469" data-name="Trazado 833469" d="M222.209,135.183c-8.43,27.7-31.445,28.167-31.445,28.167s-24.312-.065-31.577-28.828c-4.792-18.978-16.327-48.04-2.5-69.578,7.825-12.19,64.724-17.061,71.425,0s-.96,53.995-5.9,70.238" transform="translate(94.237 33.837)" fill="#ffcca9"/>
        <path id="Trazado_833470" data-name="Trazado 833470" d="M192.292,103.35c.931.776-1.94,10.8-12.353,10.9-8.834.091-13.261-8.989-12.464-10.341.99-1.677,4.511-.544,12.107-.544s11.7-.866,12.71-.02" transform="translate(105.079 64.647)" fill="#fff"/>
        <path id="Trazado_833471" data-name="Trazado 833471" d="M180.01,114.971a13.913,13.913,0,0,1-11.787-7.152c-.8-1.382-1.478-3.15-.993-3.969.807-1.372,2.7-1.253,6.127-1.039,1.706.107,3.827.241,6.423.241,3.1,0,5.588-.143,7.585-.259,3.132-.177,4.7-.272,5.455.358.713.6.166,2.411-.1,3.163a13.14,13.14,0,0,1-12.575,8.655l-.133,0m-9.566-11.259c-1.24,0-2.025.153-2.324.662-.111.238.111,1.574,1.325,3.462.925,1.437,4.406,6.1,10.563,6.1l.125,0a12.091,12.091,0,0,0,10.462-5.64,7.924,7.924,0,0,0,1.525-4.384c-.508-.332-2.364-.223-4.693-.09-2.01.117-4.512.26-7.646.26-2.629,0-4.768-.135-6.488-.243-1.123-.07-2.074-.13-2.849-.13" transform="translate(104.881 64.448)" fill="#d3976e"/>
        <path id="Trazado_833472" data-name="Trazado 833472" d="M176.012,103.54a5.093,5.093,0,0,1-2.012-6.1c.947-2.808,1.079-8.184,1.079-8.238l1.032.021c0,.228-.135,5.59-1.133,8.547a4.066,4.066,0,0,0,1.636,4.931Z" transform="translate(109.024 55.999)" fill="#d88d64"/>
        <path id="Trazado_833473" data-name="Trazado 833473" d="M220.15,227.027l-9.539,1.447c-12.179,1.061-16.683-8.324-27.441-6.934s-9.474,5.66-9.474,5.66c-7.128.19-5.251,10.066-5.251,10.066-3.371,5.015.137,10.807.137,10.807-2.455,3.474.815,8.726.815,8.726.916,5.717,7.849,10.441,15.3,11.225.251.029.5.044.759.062s.532.039.8.047.562,0,.845,0c.4,0,.788-.021,1.182-.051.026,0,.05,0,.076,0s.044-.008.067-.01c.335-.028.671-.044,1-.09,9-1.227,33.793-11.263,33.793-11.263.391-19.356-3.078-29.689-3.078-29.689" transform="translate(104.827 138.988)" fill="#ffcca9"/>
        <path id="Trazado_833474" data-name="Trazado 833474" d="M171.136,224.962s6.177,1.211,9.519,1.439a127.469,127.469,0,0,1,12.923,1.96s-10.04-.838-12.991-1.027c-2.245-.142-10.388-2.284-9.451-2.372" transform="translate(107.388 141.225)" fill="#d88d64"/>
        <path id="Trazado_833475" data-name="Trazado 833475" d="M175.161,235.679s-4.535-1.854-5.863-3.661a8.448,8.448,0,0,1-1.415-3.726,15.282,15.282,0,0,0,.094,4.649Z" transform="translate(105.294 143.312)" fill="#d88d64"/>
        <path id="Trazado_833476" data-name="Trazado 833476" d="M175.766,242.2a39.338,39.338,0,0,1-6.063-3.3,9.329,9.329,0,0,1-2.66-3.853,11.165,11.165,0,0,0,1.54,4.419Z" transform="translate(104.865 147.548)" fill="#d88d64"/>
        <path id="Trazado_833477" data-name="Trazado 833477" d="M176.337,247.685a39.337,39.337,0,0,1-6.063-3.3,10.84,10.84,0,0,1-2.839-4.136,12.3,12.3,0,0,0,1.719,4.7Z" transform="translate(105.111 150.815)" fill="#d88d64"/>
        <path id="Trazado_833478" data-name="Trazado 833478" d="M172.009,223.412s-1.092,2.513.877,2.855l.319.451-2.093-.783a3.237,3.237,0,0,1,.9-2.523" transform="translate(107.411 140.252)" fill="#d88d64"/>
        <path id="Trazado_833479" data-name="Trazado 833479" d="M175.514,202.612c-.563-29.166-4.932-51.3-18.864-51.3-14.157,0-18.387,22.864-18.838,52.707l0,.013-.034,1.582c0,5.788,3.08,7.232,7.009,7.844a34.837,34.837,0,0,0,4.33.35,2.356,2.356,0,0,0,4.514-.952v-1.929a2.36,2.36,0,0,0-2.362-2.36,2.331,2.331,0,0,0-2.3,2.038c-3.135-.155-7-.83-8.259-3.146-1.224-2.264-.511-7.066-.4-10.309.83-24.784,4.859-43.427,16.361-43.427s15.521,18.591,16.357,43.325c.106,3.106.646,7.662-.514,9.978-1.052,2.1-3.881,3.02-6.692,3.4a2.357,2.357,0,0,0-4.615.9l.233,1.913a2.359,2.359,0,0,0,4.621.329c4.507-.623,9.61-2.617,9.448-8.526l-.029-2.323c.008-.036.021-.072.029-.107" transform="translate(86.496 94.987)" fill="#383f47"/>
        <path id="Trazado_833480" data-name="Trazado 833480" d="M150.426,161.964h-2.313V136.7l2.313-.448Z" transform="translate(92.982 85.537)" fill="#383f47"/>
        <path id="Trazado_833481" data-name="Trazado 833481" d="M224.437,189.3c-1.195-32.791-11.663-49.6-18.373-58.893-6.369-8.818-7.841-9.985-7.841-9.985,1.094.509,26.845,13.089,28.875,68.78Z" transform="translate(124.439 75.598)" fill="#383f47"/>
        <path id="Trazado_833482" data-name="Trazado 833482" d="M225.938,189.935c-1.784-34.1-9.929-49.033-16.639-58.323-6.369-8.818-11.1-11.212-11.1-11.212,1.092.509,26.881,14.134,28.911,69.827Z" transform="translate(124.425 75.584)" fill="#1a2026"/>
        <path id="Trazado_833483" data-name="Trazado 833483" d="M230.889,173.252a11.277,11.277,0,1,1-11.277-11.277,11.278,11.278,0,0,1,11.277,11.277" transform="translate(130.787 101.684)" fill="#bcbcbc"/>
        <path id="Trazado_833484" data-name="Trazado 833484" d="M219.738,184.983a11.605,11.605,0,1,1,11.6-11.6,11.617,11.617,0,0,1-11.6,11.6m0-22.554a10.949,10.949,0,1,0,10.948,10.95,10.962,10.962,0,0,0-10.948-10.95" transform="translate(130.661 101.557)" fill="#444"/>
        <g id="Grupo_1081048" data-name="Grupo 1081048" transform="translate(353.144 270.964)" opacity="0.3">
          <g id="Grupo_1081047" data-name="Grupo 1081047">
            <g id="Grupo_1081046" data-name="Grupo 1081046" clip-path="url(#clip-path-16)">
              <path id="Trazado_833485" data-name="Trazado 833485" d="M219.8,180.639l-2.849-5.993,2.01-5.52,6.221-2.661s3.63,7.978-5.383,14.175" transform="translate(-216.949 -166.462)" fill="#fff"/>
            </g>
          </g>
        </g>
        <path id="Trazado_833486" data-name="Trazado 833486" d="M222.282,171.46a5.076,5.076,0,1,1-5.071-5.326,5.2,5.2,0,0,1,5.071,5.326" transform="translate(133.178 104.294)" fill="#635b53"/>
        <g id="Grupo_1081051" data-name="Grupo 1081051" transform="translate(338.679 263.26)" opacity="0.4">
          <g id="Grupo_1081050" data-name="Grupo 1081050">
            <g id="Grupo_1081049" data-name="Grupo 1081049" clip-path="url(#clip-path-17)">
              <path id="Trazado_833487" data-name="Trazado 833487" d="M218,161.73l.622,6.843-3.794,4.484-6.759.347S207.4,164.429,218,161.73" transform="translate(-208.063 -161.73)" fill="#fff"/>
            </g>
          </g>
        </g>
        <path id="Trazado_833488" data-name="Trazado 833488" d="M221.507,170.641A4.507,4.507,0,1,1,217,166.135a4.505,4.505,0,0,1,4.506,4.506" transform="translate(133.398 104.295)" fill="#d3d3d3"/>
        <path id="Trazado_833489" data-name="Trazado 833489" d="M217.128,175.6a4.834,4.834,0,1,1,4.834-4.833,4.839,4.839,0,0,1-4.834,4.833m0-9.011a4.178,4.178,0,1,0,4.178,4.178,4.182,4.182,0,0,0-4.178-4.178" transform="translate(133.272 104.168)" fill="#a8a6a0"/>
        <path id="Trazado_833490" data-name="Trazado 833490" d="M217.711,169.911a1.771,1.771,0,1,1-1.771-1.771,1.771,1.771,0,0,1,1.771,1.771" transform="translate(134.45 105.554)" fill="#bababa"/>
        <path id="Trazado_833491" data-name="Trazado 833491" d="M217.711,169.586a1.771,1.771,0,1,1-1.771-1.771,1.771,1.771,0,0,1,1.771,1.771" transform="translate(134.45 105.35)" fill="#fff"/>
        <path id="Trazado_833492" data-name="Trazado 833492" d="M146.374,191.652h-.5a.727.727,0,0,1-.726-.726v-3.111a.726.726,0,0,1,.726-.726h.5a.726.726,0,0,1,.726.726v3.111a.727.727,0,0,1-.726.726" transform="translate(91.123 117.449)" fill="#aaa9a2"/>
        <path id="Trazado_833493" data-name="Trazado 833493" d="M154.638,191.625l-.493.047a.726.726,0,0,1-.791-.656l-.293-3.1a.726.726,0,0,1,.654-.791l.495-.047a.727.727,0,0,1,.791.654l.291,3.1a.725.725,0,0,1-.654.791" transform="translate(96.085 117.443)" fill="#aaa9a2"/>
        <g id="Grupo_1081054" data-name="Grupo 1081054" transform="translate(346.463 271.068)" opacity="0.4">
          <g id="Grupo_1081053" data-name="Grupo 1081053">
            <g id="Grupo_1081052" data-name="Grupo 1081052" clip-path="url(#clip-path-18)">
              <path id="Trazado_833494" data-name="Trazado 833494" d="M215.622,166.527a3.93,3.93,0,0,0-2.777,3.265l2.533.186.667-.667Z" transform="translate(-212.845 -166.527)" fill="#fff"/>
            </g>
          </g>
        </g>
        <g id="Grupo_1081057" data-name="Grupo 1081057" transform="translate(351.451 274.218)" opacity="0.4">
          <g id="Grupo_1081056" data-name="Grupo 1081056">
            <g id="Grupo_1081055" data-name="Grupo 1081055" clip-path="url(#clip-path-19)">
              <path id="Trazado_833495" data-name="Trazado 833495" d="M217.269,172.486a3.928,3.928,0,0,0,1.476-4.024l-2.44.7-.4.86Z" transform="translate(-215.908 -168.462)" fill="#fff"/>
            </g>
          </g>
        </g>
        <path id="Trazado_833496" data-name="Trazado 833496" d="M154.958,114.058s-4.865-19.278-5.733-29.013-1.89-22.81,9.078-27.26,7.6,9.14,7.6,9.14-8.674,5.834-10.41,20.442c-.943,7.935-.532,26.692-.532,26.692" transform="translate(93.367 35.713)" fill="#2a445d"/>
        <path id="Trazado_833497" data-name="Trazado 833497" d="M201.551,113.766s5.4-18.986,6.267-28.722,1.89-22.81-9.08-27.26-7.6,9.14-7.6,9.14,8.674,5.834,10.41,20.442c.942,7.937,0,26.4,0,26.4" transform="translate(119.687 35.713)" fill="#2a445d"/>
        <path id="Trazado_833498" data-name="Trazado 833498" d="M215.293,79.912s-13.362,2.131-22.317-2.077c-2.624-1.232-15.352,4.183-21.2,3.09-11.2-2.093-16.118-11.207-16.338-12.145-.646-2.743-3.326-6.651,4.771-12.724,11.2-8.4,25.012-6.361,27.325-8.819s4.637-3.96,9.109-3.513c12,1.2,12.588,8.241,19.338,9.3,8.783,1.374,11.748,4.916,12.317,12.29,1.086,14.031-13,14.6-13,14.6" transform="translate(96.987 27.399)" fill="#2a445d"/>
        <path id="Trazado_833499" data-name="Trazado 833499" d="M187.253,44.7s-3.759,2.7-13.2,13.686S159.686,68.7,158.625,68.891c0,0,8.152,1.406,16.773-9.928S187.253,44.7,187.253,44.7" transform="translate(99.581 28.06)" fill="#1f384c"/>
        <path id="Trazado_833500" data-name="Trazado 833500" d="M185.316,68.16s15.76,1.862,22.628-6.371c0,0-1.447,8.613-22.266,6.516Z" transform="translate(116.336 38.789)" fill="#1f384c"/>
        <path id="Trazado_833501" data-name="Trazado 833501" d="M178.582,71.984c-18.571,2.6-23.909-12.732-23.819-12.448,2.925,9.3,10.318,12.881,15.728,14.272a24.6,24.6,0,0,0,4.834.825c.874.068,1.415.065,1.415.065l.033-.008c17.759.155,32.137-18.625,32.137-18.625-12.054,10.372-22.745,14.422-30.327,15.918" transform="translate(97.155 35.197)" fill="#1f384c"/>
      </g>
    </g>
    <g id="Grupo_1081061" data-name="Grupo 1081061" transform="translate(263.477 133.534)">
      <g id="Grupo_1081060" data-name="Grupo 1081060" clip-path="url(#clip-path-20)">
        <path id="Trazado_833502" data-name="Trazado 833502" d="M168.217,94.524l6.137-6.137v6.137Z" transform="translate(-157.874 -78.047)" fill="#fff"/>
        <path id="Trazado_833503" data-name="Trazado 833503" d="M164.608,98.809l-3.217-3.216V87.7l6.137-6.137h7.893l3.216,3.216v7.893L172.5,98.809Z" transform="translate(-162.159 -82.331)" fill="#fff"/>
        <path id="Trazado_833504" data-name="Trazado 833504" d="M167.527,81.563,161.392,87.7V81.563Z" transform="translate(-162.159 -82.331)" fill="#fff"/>
      </g>
    </g>
    <g id="Grupo_1081063" data-name="Grupo 1081063" transform="translate(291.489 134.076)">
      <g id="Grupo_1081062" data-name="Grupo 1081062" clip-path="url(#clip-path-21)">
        <path id="Trazado_833506" data-name="Trazado 833506" d="M185.426,94.859l6.137-6.137v6.137Z" transform="translate(-175.083 -78.379)" fill="#fff"/>
        <path id="Trazado_833507" data-name="Trazado 833507" d="M181.817,99.143,178.6,95.927V88.034l6.137-6.137h7.893l3.216,3.216v7.893l-6.135,6.137Z" transform="translate(-179.368 -82.664)" fill="#fff"/>
        <path id="Trazado_833508" data-name="Trazado 833508" d="M184.737,81.9,178.6,88.034V81.9Z" transform="translate(-179.368 -82.663)" fill="#fff"/>
      </g>
    </g>
    <g id="Grupo_1081068" data-name="Grupo 1081068">
      <g id="Grupo_1081067" data-name="Grupo 1081067" clip-path="url(#clip-path)">
        <path id="Trazado_833510" data-name="Trazado 833510" d="M192.541,82.328a10.45,10.45,0,0,0-7.624-1.857,1.706,1.706,0,0,1-.752-3.309,9.961,9.961,0,0,1,10.607,2.487,1.676,1.676,0,0,1,.4,1.545l-.026.111a1.694,1.694,0,0,1-2.6,1.024" transform="translate(114.886 48.086)" fill="#2a445d"/>
        <path id="Trazado_833511" data-name="Trazado 833511" d="M184.672,85.584a2.6,2.6,0,1,0,1.988,2.53,2.309,2.309,0,0,0-1.988-2.53" transform="translate(114.684 53.727)" fill="#210601"/>
        <path id="Trazado_833512" data-name="Trazado 833512" d="M167.456,85.457a2.6,2.6,0,1,0,1.988,2.53,2.309,2.309,0,0,0-1.988-2.53" transform="translate(103.876 53.648)" fill="#210601"/>
        <path id="Trazado_833513" data-name="Trazado 833513" d="M213.008,87.88a8.353,8.353,0,0,0-16.219,1.288l-.008.007a7.884,7.884,0,0,0-11.5-.454,8.362,8.362,0,0,0-16.195-1.045c-13.952-4.942-17.39-5.591-18.312-5.419-.275.052-.511.466-.557.7l.719.291a1.344,1.344,0,0,1,.143-.182c1.211-.14,9.887,2.683,17.743,5.463a8.372,8.372,0,0,0,15.464,5.893,2.428,2.428,0,0,0,.711-.239,2.261,2.261,0,0,0,.649-.485,2.658,2.658,0,0,0,.656-1.423,4.042,4.042,0,0,0-.492-2.811,6.99,6.99,0,0,1,10.371.369,4.216,4.216,0,0,0-.387,2.647,2.656,2.656,0,0,0,.654,1.423,2.269,2.269,0,0,0,.651.485,2.379,2.379,0,0,0,.713.241,8.374,8.374,0,0,0,15.462-5.894c7.974-2.824,16.639-5.705,17.627-5.466-.033-.01.892-.366.892-.366-.278-.588-.654-1.437-18.783,4.984M177.034,97.76a7.511,7.511,0,1,1,7.511-7.509,7.518,7.518,0,0,1-7.511,7.509m8.37-5.072a1.553,1.553,0,0,1-.36.495,1.334,1.334,0,0,1-.208.125,8.3,8.3,0,0,0,.57-2.8,1.737,1.737,0,0,1,.179.493,3.55,3.55,0,0,1-.181,1.69m11.642.7a1.552,1.552,0,0,1-.36-.495,3.55,3.55,0,0,1-.181-1.69,1.738,1.738,0,0,1,.179-.493,8.33,8.33,0,0,0,.571,2.8,1.41,1.41,0,0,1-.21-.127m8.01,4.577a7.51,7.51,0,1,1,7.511-7.511,7.517,7.517,0,0,1-7.511,7.511" transform="translate(94.3 51.384)" fill="#302420"/>
        <path id="Trazado_833514" data-name="Trazado 833514" d="M162.762,82.2a10.456,10.456,0,0,1,7.623-1.859,1.706,1.706,0,0,0,.754-3.308,9.961,9.961,0,0,0-10.607,2.487,1.676,1.676,0,0,0-.4,1.545l.026.111a1.694,1.694,0,0,0,2.6,1.024" transform="translate(100.5 48.006)" fill="#2a445d"/>
        <path id="Trazado_833515" data-name="Trazado 833515" d="M139.2,203.155s-2.189-44.528,12.846-50.311a10.776,10.776,0,0,1,9.013.723c7.963,4.2,9.942,19.442,10.554,26.362.791,8.964,2.012,22,.428,25.652,0,0,.56-20.712-2.91-35.821s-10.012-16.769-14.194-16.535-9.044,4.922-11.759,14.077-3.978,35.853-3.978,35.853" transform="translate(87.315 95.525)" fill="#1a2026"/>
        <path id="Trazado_833516" data-name="Trazado 833516" d="M137.821,185.509c-.007-.155,1.042,3.934,5.041,4.857s6.089-1.231,6.089-1.231-.28,2.562.143,3.2c0,0-10.917,1.174-11.274-6.83" transform="translate(86.52 116.455)" fill="#1a2026"/>
        <path id="Trazado_833517" data-name="Trazado 833517" d="M164.684,183.644a7.44,7.44,0,0,1-.635,3.417c-1.4,2.795-2.66,2.93-4.138,3.711-3.628,1.919-4.9-.646-4.9-.646a10.8,10.8,0,0,1,.239,3.146s10.245-.332,9.435-9.628" transform="translate(97.311 115.285)" fill="#1a2026"/>
        <path id="Trazado_833518" data-name="Trazado 833518" d="M148.113,136.7l2.313-.448-.143,1.18-2.17.42Z" transform="translate(92.981 85.537)" fill="#1a2026"/>
        <g id="Grupo_1081066" data-name="Grupo 1081066" transform="translate(227.475 203.612)" opacity="0.1">
          <g id="Grupo_1081065" data-name="Grupo 1081065">
            <g id="Grupo_1081064" data-name="Grupo 1081064" clip-path="url(#clip-path-23)">
              <path id="Trazado_833519" data-name="Trazado 833519" d="M157.54,163.61l.453-27.63-2.313.448-.453,27.355c-12.514,2.142-15.021,24.371-15.451,52.717l0,.013-.034,1.582c0,5.787,3.081,7.232,7.011,7.844a34.783,34.783,0,0,0,4.328.35,2.358,2.358,0,0,0,4.515-.952v-1.929a2.361,2.361,0,0,0-2.362-2.36,2.332,2.332,0,0,0-2.3,2.038c-3.135-.155-7-.83-8.258-3.146-1.226-2.264-.513-7.066-.4-10.309.829-24.784,3.521-43.623,15.023-43.623,11.486,0,16.857,18.786,17.694,43.52.106,3.106.646,7.662-.514,9.978-1.05,2.1-3.881,3.02-6.692,3.4a2.356,2.356,0,0,0-4.613.9l.231,1.914a2.359,2.359,0,0,0,4.621.329c4.507-.623,9.612-2.617,9.448-8.526l-.029-2.323c.01-.036.021-.072.029-.107-.56-28.979-6.216-51.2-19.939-51.486" transform="translate(-139.745 -118.247)" fill="#0e3368"/>
              <path id="Trazado_833520" data-name="Trazado 833520" d="M230.663,192.777c-2.329-54.749-27.732-67.185-28.818-67.691,0,0,1.47,1.167,7.839,9.985,6.633,9.182,16.931,25.725,18.322,57.775a11.236,11.236,0,1,0,2.657-.068" transform="translate(-100.762 -125.086)" fill="#0e3368"/>
              <path id="Trazado_833521" data-name="Trazado 833521" d="M261.325,244.325l-.459,30.34-84.384,3.228-.129,10.664,90.284-3.825V243.013Z" transform="translate(-116.765 -51.055)" fill="#0e3368"/>
            </g>
          </g>
        </g>
      </g>
    </g>
  </g>
</svg>
