<svg xmlns="http://www.w3.org/2000/svg" xmlns:xlink="http://www.w3.org/1999/xlink" width="85" height="85" viewBox="0 0 85 85">
  <defs>
    <clipPath id="clip-path">
      <rect id="Rectángulo_379597" data-name="Rectángulo 379597" width="59.73" height="54.376" fill="none"/>
    </clipPath>
  </defs>
  <g id="Grupo_1081193" data-name="Grupo 1081193" transform="translate(-180 -7050.381)">
    <g id="Grupo_1013928" data-name="Grupo 1013928" transform="translate(-105 475.381)">
      <circle id="Elipse_4873" data-name="Elipse 4873" cx="42.5" cy="42.5" r="42.5" transform="translate(285 6575)" fill="#e6ebfb"/>
    </g>
    <g id="Grupo_1081085" data-name="Grupo 1081085" transform="translate(192.635 7065.693)">
      <g id="Grupo_1081084" data-name="Grupo 1081084" clip-path="url(#clip-path)">
        <path id="Trazado_833604" data-name="Trazado 833604" d="M30.19,0a48.065,48.065,0,0,1,4.932.137A7.439,7.439,0,0,1,39.2,1.959a1.5,1.5,0,0,0,1.567.358A4.4,4.4,0,0,1,46.43,6.81a1.421,1.421,0,0,0,.943,1.5,4.229,4.229,0,0,1,2.52,4.335,1.107,1.107,0,0,0,.776,1.29,4.266,4.266,0,0,1,2.53,4.948,1.023,1.023,0,0,0,.644,1.261,4.431,4.431,0,0,1,1.149,7.182C51.13,31.3,47.215,35.232,43.215,39.07a17.167,17.167,0,0,1-10.492,4.775c-.421.04-.972.047-.988.579-.013.447.537.505.886.608a8.77,8.77,0,0,0,3.2.478,2.415,2.415,0,0,1,2.08.778c1.816,1.858,3.672,3.675,5.5,5.523.829.839.945,1.679.3,2.213-.834.694-1.5.239-2.121-.386-1.642-1.648-3.3-3.281-4.929-4.941a1.892,1.892,0,0,0-1.529-.663,8.779,8.779,0,0,1-4.791-1.184,1.122,1.122,0,0,0-1.591.3c-2.057,2.11-4.15,4.184-6.236,6.266a5.275,5.275,0,0,1-.875.759,1.133,1.133,0,0,1-1.405-.1,1.15,1.15,0,0,1-.339-1.466,3.851,3.851,0,0,1,.784-.995c3.06-3.081,6.139-6.144,9.189-9.235a3.35,3.35,0,0,1,2.22-1.069,15.338,15.338,0,0,0,9.719-4.48q5.393-5.381,10.795-10.753a5.942,5.942,0,0,0,.822-.976,1.867,1.867,0,0,0-2.623-2.528c-.555.415-1.017.951-1.539,1.414-.649.574-1.373.824-2.056.112-.653-.681-.353-1.366.208-1.95.833-.866,1.7-1.7,2.536-2.563a1.947,1.947,0,0,0,.233-2.883,1.919,1.919,0,0,0-2.876.177c-.871.827-1.7,1.7-2.573,2.526-.614.582-1.334.939-2.031.188-.655-.706-.4-1.435.213-2.058,1.172-1.186,2.365-2.351,3.529-3.545,1.008-1.034,1.111-2.174.309-2.978a2.074,2.074,0,0,0-3,.244c-1.2,1.161-2.367,2.349-3.545,3.529-.61.61-1.3.97-2.031.284-.795-.746-.4-1.481.226-2.116,1.525-1.545,3.072-3.069,4.6-4.615C44.12,7.2,44.22,6.191,43.327,5.3c-.843-.841-1.989-.732-3.056.327-2.229,2.212-4.436,4.447-6.674,6.651a.947.947,0,0,0-.22,1.3,4.417,4.417,0,0,1-3.082,6.484,1.2,1.2,0,0,0-1.03,1.056,4.393,4.393,0,0,1-3.581,3.538,1.073,1.073,0,0,0-.954.948A4.326,4.326,0,0,1,21.2,29.176a1.225,1.225,0,0,0-1.058,1.049A4.386,4.386,0,0,1,14.4,33.612a1.465,1.465,0,0,0-1.609.554Q7.869,39.114,2.925,44.04c-1.205,1.2-1.875,1.4-2.545.735s-.467-1.442.658-2.569c3.26-3.265,6.509-6.542,9.8-9.778.64-.63.747-1.055,0-1.655a12.585,12.585,0,0,1-1.554-1.568,4.433,4.433,0,0,1,1.1-6.887,1.366,1.366,0,0,0,.806-1.629,4.284,4.284,0,0,1,2.711-4.768c.47-.223.708-.4.652-1.014A4.322,4.322,0,0,1,17.1,10.353a1.325,1.325,0,0,0,.852-1.5A4.474,4.474,0,0,1,23,4.233c.643.071.774-.014.761-.672C23.688,0,23.708,0,27.338,0H30.19m1.153,15.7a2.426,2.426,0,0,0-.817-1.617c-2.142-2.134-4.27-4.281-6.419-6.408-1.02-1.009-2.168-1.123-2.972-.345-.826.8-.741,2.039.284,3.081,2.066,2.1,4.158,4.174,6.249,6.25a4.125,4.125,0,0,0,.821.643,1.9,1.9,0,0,0,2.855-1.6M28.825,8.24l-.239.389c.632.561,1.308,1.08,1.882,1.7s.979.5,1.517-.052q2.588-2.661,5.253-5.247c.608-.587.627-.981-.107-1.417A5.65,5.65,0,0,0,34.3,2.664c-2.32-.024-4.641.005-6.961-.02-1.022-.011-1.1.559-.814,1.283a2.945,2.945,0,0,0,2.864,1.806c.887.047,1.778.014,2.668.011.851,0,1.492.338,1.488,1.246s-.659,1.244-1.5,1.249c-1.075.006-2.151,0-3.226,0M26.749,20.109a1.681,1.681,0,0,0-.566-1.245c-1.935-1.948-3.858-3.908-5.834-5.815a1.879,1.879,0,0,0-2.75,2.557c1.963,2.079,4,4.093,6.057,6.078a1.8,1.8,0,0,0,2.176.159,1.742,1.742,0,0,0,.916-1.735m-4.607,4.633a1.626,1.626,0,0,0-.4-1.182c-1.629-1.65-3.242-3.318-4.927-4.909a1.808,1.808,0,0,0-2.526.093,1.715,1.715,0,0,0-.148,2.5c1.6,1.726,3.284,3.381,4.986,5.012a1.706,1.706,0,0,0,2.061.2,1.73,1.73,0,0,0,.953-1.719m-4.474,4.4a2.516,2.516,0,0,0-.335-.831,24.9,24.9,0,0,0-3.7-3.678,1.664,1.664,0,0,0-2.4.325,1.786,1.786,0,0,0-.027,2.457,43.165,43.165,0,0,0,3.366,3.371,1.832,1.832,0,0,0,2.184.149,1.893,1.893,0,0,0,.92-1.794" transform="translate(0 0)"/>
        <path id="Trazado_833605" data-name="Trazado 833605" d="M233.827,154.336c0-.977.907-1.695,1.656-1.242a11.83,11.83,0,0,1,3.507,3.452,1.075,1.075,0,0,1-.236,1.38,1.035,1.035,0,0,1-1.364.26,15.841,15.841,0,0,1-3.442-3.376,1.115,1.115,0,0,1-.12-.475" transform="translate(-179.421 -117.367)"/>
      </g>
    </g>
  </g>
</svg>
