<svg xmlns="http://www.w3.org/2000/svg" xmlns:xlink="http://www.w3.org/1999/xlink" width="85" height="85" viewBox="0 0 85 85">
  <defs>
    <clipPath id="clip-path">
      <rect id="Rectángulo_379599" data-name="Rectángulo 379599" width="67.149" height="67.204" fill="none"/>
    </clipPath>
  </defs>
  <g id="Grupo_1081195" data-name="Grupo 1081195" transform="translate(-180 -7290.381)">
    <g id="Grupo_1013925" data-name="Grupo 1013925" transform="translate(-105 475.381)">
      <circle id="Elipse_4875" data-name="Elipse 4875" cx="42.5" cy="42.5" r="42.5" transform="translate(285 6815)" fill="#c1cdf5"/>
    </g>
    <g id="Grupo_1081089" data-name="Grupo 1081089" transform="translate(188.925 7299.279)">
      <g id="Grupo_1081088" data-name="Grupo 1081088" transform="translate(0 0)" clip-path="url(#clip-path)">
        <path id="Trazado_833628" data-name="Trazado 833628" d="M67.146,33.584C67.42,51.876,52.033,67.243,33.521,67.2A33.855,33.855,0,0,1,0,33.555,33.856,33.856,0,0,1,33.747,0c18.259.078,33.645,15.249,33.4,33.584M33.672,2.3A31.3,31.3,0,1,0,64.9,33.674,31.19,31.19,0,0,0,33.672,2.3" transform="translate(0 0)"/>
        <path id="Trazado_833629" data-name="Trazado 833629" d="M68.136,39.289A28.64,28.64,0,0,1,43.019,67.9,28.253,28.253,0,0,1,22.6,62.873c-2.282-1.585-2.384-2.78-.446-4.718q18.007-18.013,36.02-36.02c1.891-1.89,3.075-1.783,4.642.39a28.436,28.436,0,0,1,5.318,16.764M38.8,44.828c-2.247,2.221-4.468,4.41-6.68,6.609-.38.377-.3.887-.3,1.362q-.005,2.743,0,5.486c0,2.492,0,2.5,2.392,2.9.648.109,1.055.433,1.058,1.1a1.016,1.016,0,0,1-.957,1.066c-2.424.291-4.842-.025-4.738-3.661.017-.609.025-1.22,0-1.828a16.788,16.788,0,0,0-.2-3.791C27.483,55.992,25.79,57.8,23.99,59.5c-.867.819-.587,1.21.223,1.758a25.672,25.672,0,0,0,13.159,4.581,26.194,26.194,0,0,0,22.5-9.665A26.785,26.785,0,0,0,61.24,24.191c-.592-.838-.973-.992-1.763-.173-2.63,2.725-5.342,5.371-8.011,8.058-.221.223-.606.378-.5.869,1.553.226,2.742.973,2.928,2.649a26.167,26.167,0,0,1,.036,3.65,1.141,1.141,0,0,1-1.07,1.264c-.832.045-1.146-.561-1.2-1.262-.075-.909-.053-1.826-.081-2.739-.013-.444-.038-.989-.578-1.031-1.312-.1-2.65-.446-3.761.784-1.37,1.517-2.876,2.911-4.323,4.358A5.736,5.736,0,0,0,41.764,46.8a5.095,5.095,0,0,0,9.817-1.847c.062-.9-.02-2.088,1.3-1.963,1.233.115,1.136,1.277,1.047,2.178A7.065,7.065,0,0,1,50.818,50.8c-1.111.7-.993,1.628-.961,2.606a9.814,9.814,0,0,0,.163,3.1c.057.158.344.236.529.343,1.709.991,2.433,2.415,2.009,3.957A3.527,3.527,0,0,1,48.8,63.409c-3.091.017-6.182.006-9.273,0-.814,0-1.72-.043-1.773-1.082-.054-1.071.826-1.194,1.66-1.155.708.033,1.007-.143.923-.957A2.665,2.665,0,0,1,41.628,57.4c1.61-.724,1.587-1.928,1.507-3.293a10.954,10.954,0,0,1,0-1.566,1.617,1.617,0,0,0-.84-1.62,7.3,7.3,0,0,1-2.887-3.917c-.234-.689-.1-1.474-.606-2.178m7.688,14.1c-.87,0-1.74-.008-2.61,0-.688.008-1.236.284-1.254,1.032a1.076,1.076,0,0,0,1.06,1.131c1.867.062,3.739.062,5.606,0a1.076,1.076,0,0,0,1.062-1.129c-.016-.749-.567-1.025-1.254-1.034-.87-.012-1.74,0-2.61,0m1.1-4.584H47.6c0-.259-.013-.518,0-.777.052-.826-.061-1.407-1.151-1.39-1.021.015-1.107.562-1.08,1.332.025.69.023,1.381.009,2.071-.016.759.422.947,1.078.941.618-.006,1.139-.092,1.132-.883,0-.431,0-.863,0-1.294" transform="translate(-5.699 -5.702)"/>
        <path id="Trazado_833630" data-name="Trazado 833630" d="M6.548,35.425A28.651,28.651,0,0,1,31.665,6.8a28.193,28.193,0,0,1,20.419,5.019c2.321,1.614,2.4,2.787.375,4.811Q34.545,34.547,16.624,52.464c-2.019,2.019-3.185,1.931-4.81-.391A28.316,28.316,0,0,1,6.548,35.425M37.056,24.044c0,1.045-.016,2.09.009,3.134.009.369-.193.894.243,1.062.421.161.651-.343.913-.6,4.163-4.148,8.3-8.32,12.485-12.446.715-.706.744-1.1-.114-1.68A25.666,25.666,0,0,0,37.329,8.857a26.224,26.224,0,0,0-22.5,9.659A26.806,26.806,0,0,0,13.442,50.5c.689.982,1.1.877,1.855.1,2.485-2.562,4.916-5.2,7.594-7.543a7.439,7.439,0,0,0,2.84-6.782,7.358,7.358,0,0,1,3.383-6.82,2.007,2.007,0,0,0,.98-1.978c-.322-3.076.711-6.229-1.063-9.259-.771-1.318-.377-3.253-.075-4.879A2.454,2.454,0,0,1,31.5,11.309c1.39-.059,2.787-.068,4.177,0a2.584,2.584,0,0,1,2.661,2.774c.032,1.174,0,2.35,0,3.526a2.248,2.248,0,0,1-.593,1.683,2.559,2.559,0,0,0-.7,2.14c.033.87.008,1.741.008,2.612M27.984,37.889c2.191-2.194,4.148-4.22,6.186-6.161.88-.838,1.55-1.569.8-2.852a3,3,0,0,1-.15-1.406c-.015-2-.038-4,.005-5.995.02-.935-.385-1.187-1.253-1.19s-1.253.277-1.233,1.2c.045,2.128,0,4.257.015,6.386A3.5,3.5,0,0,1,30.8,31c-2.384,1.578-3.073,3.849-2.813,6.886m5.644-19.834h.65c1.815-.006,1.826-.006,1.82-1.792-.012-3.107.3-2.708-2.833-2.729-2.215-.014-2.216,0-2.215,2.05,0,2.734-.195,2.459,2.578,2.471" transform="translate(-1.795 -1.789)"/>
      </g>
    </g>
  </g>
</svg>
