<svg id="Grupo_1080962" data-name="Grupo 1080962" xmlns="http://www.w3.org/2000/svg" xmlns:xlink="http://www.w3.org/1999/xlink" width="267.789" height="200.553" viewBox="0 0 267.789 200.553">
  <defs>
    <clipPath id="clip-path">
      <rect id="Rectángulo_379545" data-name="Rectángulo 379545" width="267.789" height="200.553" fill="none"/>
    </clipPath>
    <clipPath id="clip-path-3">
      <rect id="Rectángulo_379539" data-name="Rectángulo 379539" width="26.383" height="31.869" fill="none"/>
    </clipPath>
    <clipPath id="clip-path-4">
      <rect id="Rectángulo_379540" data-name="Rectángulo 379540" width="26.457" height="1.704" fill="none"/>
    </clipPath>
    <clipPath id="clip-path-5">
      <rect id="Rectángulo_379541" data-name="Rectángulo 379541" width="6.338" height="5.47" fill="none"/>
    </clipPath>
    <clipPath id="clip-path-6">
      <rect id="Rectángulo_379542" data-name="Rectángulo 379542" width="26.4" height="25.847" fill="none"/>
    </clipPath>
    <clipPath id="clip-path-7">
      <rect id="Rectángulo_379543" data-name="Rectángulo 379543" width="37.613" height="31.387" fill="none"/>
    </clipPath>
  </defs>
  <g id="Grupo_1080961" data-name="Grupo 1080961" clip-path="url(#clip-path)">
    <g id="Grupo_1080960" data-name="Grupo 1080960">
      <g id="Grupo_1080959" data-name="Grupo 1080959" clip-path="url(#clip-path)">
        <path id="Trazado_833015" data-name="Trazado 833015" d="M122.119,611.9c-7.8.017-15.59.157-23.372.8-2.934.243-5.806.777-8.747.993-5.874.43-11.642,1.233-17.537,1.6-4.747.3-9.514.474-14.247.853a67.19,67.19,0,0,1-13.753-.313c-3.26-.434-6.535-.678-9.74-1.375a52.526,52.526,0,0,0-11.216-1.317c-5.327.029-10.515.032-15.613,1.408a17.227,17.227,0,0,0-5.339,2.292c-3.111,2.321-3.532,8.114-.426,10.522,5.232,4.052,16.4,5.642,23.731,5.717,8.036.082,15.842-.361,23.89-.623,7.478-.242,14.937-.588,22.427-.576,15.3.025,30.6,0,45.869-.761,14.347-.714,28.73-.469,43.109-.469,14.745,0,29.39.086,44.028,1.545,6.378.635,12.876.858,19.286,1.3a125.392,125.392,0,0,0,16.975-.376,51.849,51.849,0,0,0,13.933-2.779c3.453-1.228,9.608-5.043,10.667-7.974,2.968-8.217-41.835-8.02-48.713-8-7.7.021-15.452.209-23.141-.009a72.107,72.107,0,0,1-9.578-1.078c-3.144-.513-6.313-.383-9.5-.6-13.3-.9-26.625-.768-39.964-.768-4.341,0-8.684-.028-13.027-.019" transform="translate(0 -433.113)" fill="#f1f2f2"/>
        <path id="Trazado_833016" data-name="Trazado 833016" d="M100.921,471.469a2.2,2.2,0,0,0-2.074-1.245,35.88,35.88,0,0,0-4.616.406c-1.234.088-2.078-.071-2.794,1.228a7.017,7.017,0,0,0-.648,2.307c-1.467,9.187-2.667,18.413-3.868,27.638q-.43,3.3-.86,6.609-.169,1.295-.337,2.59l-1.494,11.48a8.9,8.9,0,0,1-.657,1.916H83.56l-4.1,2.931-.749,1.337,1.791.866,4.15-.768,2.864-1.943.04-1.742a8.425,8.425,0,0,1,.217-1.872c.286-1.22.737-2.41,1.133-3.6.6-2.027,1.215-4.047,1.818-6.072q1.97-6.621,3.864-13.265c1.305-4.555,2.773-9.065,4.128-13.605,1.234-4.134,4.867-11.3,2.209-15.2" transform="translate(-55.71 -332.825)" fill="#3b455a"/>
        <path id="Trazado_833017" data-name="Trazado 833017" d="M185.5,483.4a4.984,4.984,0,0,1,2.327,1.191c2.046,1.931.787,4.814.434,7.183a76.1,76.1,0,0,0-.781,9.2q-.245,9.084-.733,18.16c-.261,4.838-1.841,11.082-.637,15.8l1.731,3-.777.954-2.9-.247c-.39-.033-1.7-2.306-1.8-2.752-.385-1.59.008-3.172-.206-4.75-.174-1.276-.664-2.586-.9-3.895q-.548-3.075-1.059-6.156c-.665-4.029-1.271-8.069-1.784-12.121L176.454,493.5c-.28-2.209-.833-3.833.508-5.7a11.192,11.192,0,0,1,4.842-4.142,6.585,6.585,0,0,1,3.113-.359q.292.037.58.1" transform="translate(-124.647 -342.049)" fill="#3b455a"/>
        <path id="Trazado_833018" data-name="Trazado 833018" d="M183.675,449.872a43.96,43.96,0,0,1-4.517-.123c-3.378-.295-6.677-1.03-10.089-1.021-.361-1.883-.941-3.845-1.107-5.74a50.7,50.7,0,0,1,.319-6.5q.33-7.587,1.085-15.147c4.5-.175,8.962.325,13.437.3,1.137-.006,2.7-.312,3.232.731.767,1.511.444,3.535.639,5.173.3,2.5.526,4.994.592,7.51a71.893,71.893,0,0,1-1.134,14.754c-.818.025-1.637.05-2.456.063" transform="translate(-118.853 -298.206)" fill="#c5ccd3"/>
        <path id="Trazado_833019" data-name="Trazado 833019" d="M104.155,436.361q-1.563-.16-3.119-.373a1.882,1.882,0,0,1-1.018-.352c-.507-.447-.4-1.251-.244-1.909,1.46-6.3,2.889-12.6,4.38-18.894.238-1,2.543-11.14,3.137-11.147l12.594.13a1.683,1.683,0,0,1,1.086.264,1.665,1.665,0,0,1,.449,1.012,146.289,146.289,0,0,1,2.171,16.981c.335,4.832-2.343,9.269-4.715,13.365a2.065,2.065,0,0,1-2.182,1.335,91.2,91.2,0,0,1-12.538-.412" transform="translate(-70.532 -285.738)" fill="#c5ccd3"/>
        <path id="Trazado_833020" data-name="Trazado 833020" d="M338.05,159c-.038-.225-.067-.453-.094-.678-.533-4.478-.15-8.649.056-13.077.166-3.574.632-7.712,3.447-10.262.431-.391,2.541-2.174.576-2.345a.917.917,0,0,0-.958.86,13.01,13.01,0,0,0,1.47-3.74.95.95,0,0,0,0-.587.978.978,0,0,0-.314-.345l-1.411-1.125a.3.3,0,0,0-.478.02l-2.517,2.18c-1.42,1.23-.893,3.224-1.163,4.843-.3,1.813-.981,2.619-1.782,4.14a54.828,54.828,0,0,0-4.626,13.846,17.62,17.62,0,0,0-.531,5.885,16.45,16.45,0,0,0,2.377,6.138,39.649,39.649,0,0,0,5.088,7.252,24.209,24.209,0,0,0,3.457,3.211,8.614,8.614,0,0,1,2.445,3.256,1.267,1.267,0,0,0,.373.476c.484.317,1.1-.13,1.491-.551a61.88,61.88,0,0,0,6.367-8.01,3.838,3.838,0,0,0,.665-1.373,2.757,2.757,0,0,0-1.321-2.634,9.817,9.817,0,0,0-2.9-1.117,30.814,30.814,0,0,1-7.53-3.294,4.928,4.928,0,0,1-1.639-1.4A4.035,4.035,0,0,1,338.05,159" transform="translate(-233.33 -90.315)" fill="#efbfa5"/>
        <path id="Trazado_833021" data-name="Trazado 833021" d="M466.661,173.858c3.08-1.673,2.9-5.234,3.619-9.536.721-4.342,1.982-10.259-.922-14.1-.351-.464-2.091-2.61-.129-2.411a.918.918,0,0,1,.78,1.024,13.022,13.022,0,0,1-.747-3.949.952.952,0,0,1,.11-.577.979.979,0,0,1,.372-.28l1.6-.842a.3.3,0,0,1,.466.108l2.066,2.611c1.165,1.474.276,3.334.239,4.975-.042,1.837.475,2.756.979,4.4a54.823,54.823,0,0,1,1.964,14.466,17.616,17.616,0,0,1-.575,5.881,16.452,16.452,0,0,1-3.48,5.587c-3.1,3.571-7.472,7.9-12.1,9.387-8.319,2.67-8.272-14.089-.671-15.554a27.658,27.658,0,0,1,2.8-.234,9.277,9.277,0,0,0,3.629-.953" transform="translate(-321.769 -101.3)" fill="#efbfa5"/>
        <path id="Trazado_833022" data-name="Trazado 833022" d="M454.689,539.295l-.55,12.2c-.29,3.377-.193,6.768-.195,10.152,0,3.143-.832,6.332.476,9.326.41.939,1.362,1.634,2.181.629.631-.774.45-2.193.651-3.124,1.514-7,3.947-13.769,5.385-20.787,1.506-7.352-1.375-7.333-7.948-8.4" transform="translate(-321.126 -381.724)" fill="#efbfa5"/>
        <path id="Trazado_833023" data-name="Trazado 833023" d="M451.081,639.808l-.909,1.985,3.648,3.632,3.524.363,1.257-1.794-4.5-4.424Z" transform="translate(-318.641 -452.702)" fill="#3b455a"/>
        <path id="Trazado_833024" data-name="Trazado 833024" d="M386.816,537.512l1.277,12.149c.347,5.417,1.686,10.771,2.034,16.189a13.994,13.994,0,0,0,.307,3.788c.414,1.176,1.4,1.3,2.327.6,1.247-.941.855-2.829.945-4.242.6-9.411,2.068-18.62,2.988-28.022a.421.421,0,0,0-.072-.351.407.407,0,0,0-.284-.079c-.919-.011-9.5.234-9.523-.029" transform="translate(-273.796 -380.462)" fill="#efbfa5"/>
        <path id="Trazado_833025" data-name="Trazado 833025" d="M392.668,642.095l1.079,1.9-3.317,3.937-3.479.67-1.409-1.677,4.093-4.8Z" transform="translate(-272.895 -454.488)" fill="#3b455a"/>
        <path id="Trazado_833026" data-name="Trazado 833026" d="M403.68,445.226l2.517-17.21c-.7-9.882-5-19.878-5.684-29.794a2.6,2.6,0,0,0-.576-1.764,2.5,2.5,0,0,0-1.352-.522,84.331,84.331,0,0,0-13.957-.759c-4.547,0-13.478-.965-15.755,3.509-2.341,4.6-1.655,14.944-1.839,20.15a190.637,190.637,0,0,0,.513,25.688l17.657-.292,1.485-19.195,2.684,12.514-.114,7.675Z" transform="translate(-259.656 -279.654)" fill="#c4c9ce"/>
        <path id="Trazado_833027" data-name="Trazado 833027" d="M398.264,248.316a11.05,11.05,0,0,0-1.029-2.076c-1.938-3.106-7.965-5.253-11.6-4.767-3.139.419-6.223.467-9.178,1.768-2.219.977-4.229,4.148-5.369,6.127-3.919,6.8-2.327,15.119-2.32,22.617,0,3.952-.379,7.926-.541,11.875-.105,2.58-.2,5.161-.216,7.743-.005.917-.449,3.818.23,4.587.6.674,4.392-.024,5.535-.059q4.2-.131,8.4-.122,4.975.011,9.947.217c3.4.142,6.536.842,9.947.07a2.116,2.116,0,0,0,1.2-.583,2.244,2.244,0,0,0,.274-1.727q-1.076-9.4-2.654-18.742c-.487-2.885-1.49-6.006-1.518-8.925-.023-2.465.017-4.925-.151-7.423-.224-3.313.194-7.441-.948-10.579" transform="translate(-260.382 -170.871)" fill="#ebb044"/>
        <path id="Trazado_833028" data-name="Trazado 833028" d="M444.346,175.336a9.78,9.78,0,0,1,1.2,4.416,1.4,1.4,0,0,0,.377,1.123c.354.258.043.826.312.48a7.541,7.541,0,0,0,1.225-1.983,16.15,16.15,0,0,0,0-3.076,4.414,4.414,0,0,0-.85-2.5,5.011,5.011,0,0,0-1.258-.958,6.432,6.432,0,0,0-2.09-.938c-1.3-.243-2.1.224-.951,1.132a7.934,7.934,0,0,1,2.041,2.3" transform="translate(-312.682 -121.632)" fill="#32376b"/>
        <path id="Trazado_833029" data-name="Trazado 833029" d="M411.478,193.475c.009.63-.12,1.283.435,1.771a1.907,1.907,0,0,0,.979.384,6.077,6.077,0,0,0,2.726-.193,2.445,2.445,0,0,0,.994-.524,1.245,1.245,0,0,0,.354-1.008c.018-.474.114-.957.176-1.438.136-1.052.2-2.114.228-3.174,1.559-.267,3.393-.772,3.926-2.4a5.346,5.346,0,0,0,.178-1.621q.025-3.394.05-6.788a6.554,6.554,0,0,0-.26-2.316,4.709,4.709,0,0,0-2.837-2.511,10.186,10.186,0,0,0-9.235.564,5.038,5.038,0,0,0-1.851,1.862,7.915,7.915,0,0,0-.469,4.212q.14,1.985.281,3.971c.108,1.523.336,3.275,1.518,4.08.628.427,1.439.505,1.98,1.058.945.964.494,2.405.773,3.574a2.291,2.291,0,0,1,.054.5" transform="translate(-287.943 -122.321)" fill="#efbfa5"/>
        <path id="Trazado_833030" data-name="Trazado 833030" d="M422.021,209.618c-.025-.42-.209-1.649-.84-.876a1.266,1.266,0,0,0-.216.757,2.831,2.831,0,0,1-.083.8,1.409,1.409,0,0,1-1.411.836,1.376,1.376,0,0,1-.662-.156,2.077,2.077,0,0,1-.5-.462l-1.1-1.267c-.632-.725-1.887-.412-2.739-.3a5.459,5.459,0,0,0-2.767,1.071c-.081.065-.16.134-.239.2a2.937,2.937,0,0,1-.612.441,1.89,1.89,0,0,1-2.229-.707c-.244-.316-.471-.724-.849-.777a.777.777,0,0,0-.736.448,2.219,2.219,0,0,0-.213.929,6.818,6.818,0,0,0,.592,3.41c1.1,2.248,3.223,2.524,5.357,2.474l2.531-.06a8.007,8.007,0,0,0,4.472-1,5.541,5.541,0,0,0,2.107-3.544,8.728,8.728,0,0,0,.143-2.219m-5.643,3.186a2.954,2.954,0,0,1-2.613.3c-.385-.116-.221-.762.164-.646a2.374,2.374,0,0,0,2.135-.235c.341-.229.653.35.315.577" transform="translate(-287.942 -147.575)" fill="#3b455a"/>
        <path id="Trazado_833031" data-name="Trazado 833031" d="M418.689,162.742a12.046,12.046,0,0,0,.329-1.671,3.313,3.313,0,0,1-1.636.14q0-.488,0-.976c0-.271-3.663-.46-3.961-.485-2.784-.228-5.331-.446-7.849,1.049a7.583,7.583,0,0,0-3.86,5.664,11.6,11.6,0,0,0,1.832,7.434,16.2,16.2,0,0,1-.222-2.72,5.355,5.355,0,0,1,.586-1.716,7.074,7.074,0,0,1,2.482-2.609,13.749,13.749,0,0,1,5.425-1.828,14.859,14.859,0,0,1,5.568-.005c.825.221.961.428,1.461-.4a14.1,14.1,0,0,0,.718-1.861l-.868-.013" transform="translate(-284.288 -112.959)" fill="#3b455a"/>
        <path id="Trazado_833032" data-name="Trazado 833032" d="M460.269,241.087a2.846,2.846,0,0,1,1.465-.129,2.621,2.621,0,0,1,1.287,1.1,31.449,31.449,0,0,1,4.957,10.345,2.4,2.4,0,0,1,.051,1.551,2.628,2.628,0,0,1-.837.924c-4.759,3.878-7.726,9.638-12.576,13.4a128.942,128.942,0,0,1-1.949-14.564,23.175,23.175,0,0,0-.951-6.035c-.693-1.953-4.375-4.32-2.447-5.7.711-.508,4.326.112,5.292.042a31.688,31.688,0,0,0,5.709-.942" transform="translate(-317.61 -170.516)" fill="#ebb044"/>
        <path id="Trazado_833033" data-name="Trazado 833033" d="M358.489,235.339a1.549,1.549,0,0,0-.325-.6,2.081,2.081,0,0,0-1.359-.46,45.838,45.838,0,0,1-6.143-1.006c-1.184-.277-2.837-1.109-4.287-1.556-.082-.1-.167-.2-.247-.306q-.148-.191-.292-.384c-.481-.647-1.161-.163-1.8.545-1.082.433-1.681,1.752-2.4,2.632a38.314,38.314,0,0,1-4.278,3.826,1.126,1.126,0,0,0-.3,1.788l11.673,18.753c-.154-.247,4.255-7.313,4.628-8.17.938-2.154,1.333-4.645,2.33-6.732.207-.432,2.249-2.964,1.88-4,.162-.256.314-.518.451-.789a4.736,4.736,0,0,0,.467-3.54" transform="translate(-238.354 -163.312)" fill="#ebb044"/>
        <path id="Trazado_833034" data-name="Trazado 833034" d="M320.349,72.732,335,74.559a2.451,2.451,0,0,1,2.3-1.046l38.68,4.821a2.453,2.453,0,0,1,1.972,1.578l14.655,1.827-1.936,15.542-14.5-1.807a2.476,2.476,0,0,1-2.5,1.389l-38.68-4.822a2.477,2.477,0,0,1-2.086-1.961l-14.5-1.807Z" transform="translate(-225.379 -51.481)" fill="#474ebb"/>
        <path id="Trazado_833035" data-name="Trazado 833035" d="M579.192,61.315l-1.438-.661a1.758,1.758,0,0,0-.672-.158l1.547-12.424a6.874,6.874,0,0,0-6-7.65l-.854-.107a6.881,6.881,0,0,0-7.544,5.147,6.882,6.882,0,0,0-6.05-6.842l-.854-.106a6.873,6.873,0,0,0-7.692,5.943l-5.084,40.816a6.875,6.875,0,0,0,6,7.65l.854.106a6.881,6.881,0,0,0,7.544-5.147A6.882,6.882,0,0,0,565,94.725l.854.106a6.874,6.874,0,0,0,7.692-5.943l1.548-12.424a1.763,1.763,0,0,0,.69.012l1.556-.288a3.3,3.3,0,0,0,2.266-3.011l1.045-8.387a3.306,3.306,0,0,0-1.458-3.475" transform="translate(-385.407 -27.224)" fill="#474ebb"/>
        <path id="Trazado_833036" data-name="Trazado 833036" d="M259.217,1.961l-.854-.107A6.88,6.88,0,0,0,250.819,7,6.882,6.882,0,0,0,244.769.16l-.854-.106A6.873,6.873,0,0,0,236.223,6l-1.548,12.424a1.758,1.758,0,0,0-.69-.012l-1.556.288a3.306,3.306,0,0,0-2.266,3.011l-1.045,8.388a3.306,3.306,0,0,0,1.458,3.475l1.438.661a1.759,1.759,0,0,0,.672.158l-1.548,12.424a6.875,6.875,0,0,0,6,7.65l.854.106a6.881,6.881,0,0,0,7.544-5.147,6.882,6.882,0,0,0,6.05,6.842l.854.106a6.873,6.873,0,0,0,7.693-5.943l5.084-40.816a6.875,6.875,0,0,0-6-7.65" transform="translate(-162.149 0)" fill="#474ebb"/>
        <path id="Trazado_833037" data-name="Trazado 833037" d="M152.476,258.7a22.442,22.442,0,0,1,1.4,6.659A113.869,113.869,0,0,1,154.728,278c.069,4.908-.138,9.813-.525,14.7q-.291,3.668-.706,7.324c-.141,1.263.415,4.5-.951,5.169a4.723,4.723,0,0,1-2.537.2l-15.553-1.633c-4.363-.458-8.968-.752-13.132-2.213a1.386,1.386,0,0,1-.606-.344,1.417,1.417,0,0,1-.27-.706c-.7-3.9.3-6.954.972-10.666a132.087,132.087,0,0,0,1.219-13.607c.368-5.089,1.184-11.914,3.113-16.753a16,16,0,0,1,3.762-5.5c1.989-1.858,4.678-3.448,7.421-3.447a16.255,16.255,0,0,1,7.536,1.444,25.965,25.965,0,0,1,5.694,3.649,9.165,9.165,0,0,1,2.311,3.08" transform="translate(-85.089 -177.328)" fill="#474ebb"/>
        <path id="Trazado_833038" data-name="Trazado 833038" d="M213.042,215.621a20.359,20.359,0,0,1-4.288,3.277,34.634,34.634,0,0,0,3.176-8.921.911.911,0,0,1,.318-.628.854.854,0,0,1,.657-.02c3.9.995,2.361,4.067.137,6.292" transform="translate(-147.76 -148.128)" fill="#3b455a"/>
        <path id="Trazado_833039" data-name="Trazado 833039" d="M180.356,201.39a5.885,5.885,0,0,1-.609-.839c-2.358-3.931-2.25-18.677,8.29-16.737,9.571,1.761,3.4,13.058-.628,17.045a7,7,0,0,1-2.863,1.849c-.3.088-.213,3.052-.483,3.5a2.212,2.212,0,0,1-2.727.741,3.68,3.68,0,0,1-1.732-2.281c-.126-.6.974-3.024.754-3.276" transform="translate(-126.347 -129.984)" fill="#efbfa5"/>
        <path id="Trazado_833040" data-name="Trazado 833040" d="M173,191.228c-.962.513-2.094-.318-2.748-1.191a10.607,10.607,0,0,1,.12-12.506c2.3-2.957,7.678-3.357,6.486,1.135-.423,1.593-2.3,3.156-2.9,4.859a25.958,25.958,0,0,0-.961,7.7" transform="translate(-119.108 -124.08)" fill="#3b455a"/>
        <path id="Trazado_833041" data-name="Trazado 833041" d="M212.27,173.619c2.912,4.453,2.1,10.438,4.373,15.249a15.782,15.782,0,0,1-11-5.472c-2.672-3.146-10.272-8.217-6.738-12.356,3.6-4.213,10.812-1.323,13.363,2.579" transform="translate(-140.14 -119.597)" fill="#3b455a"/>
        <path id="Trazado_833042" data-name="Trazado 833042" d="M196.744,289.525c-3.615-3.693-8.082-3.767-11.366-3.087a9.1,9.1,0,0,1-6.871-1.357c-2.812-1.868-7.065-3.519-11.861-1.354-6.429,2.9-8.869,9.766-8.93,16.422a35.948,35.948,0,0,0,2.711,14.73c1.961,4.417,6.328,9.531,11.728,8.791a7.187,7.187,0,0,1,4.745.953c6.78,4.163,13.717-3.076,17.315-8.133,3.757-5.281,6.986-12.027,6.336-18.681a13.658,13.658,0,0,0-3.806-8.284" transform="translate(-111.633 -200.101)" fill="#d34e4e"/>
        <path id="Trazado_833043" data-name="Trazado 833043" d="M234.575,263.539a9.842,9.842,0,0,1,4.333-3.744,13.478,13.478,0,0,1,4.821-1.054,29.09,29.09,0,0,1,4.045.027,22.572,22.572,0,0,1-1.948,3.315,29.269,29.269,0,0,1-3.491,4.413,10.418,10.418,0,0,1-4.427,2.808c-3.152.81-5.47-2.2-3.334-5.766" transform="translate(-165.452 -183.102)" fill="#7fc5a3"/>
        <path id="Trazado_833044" data-name="Trazado 833044" d="M83.36,165.254a23.1,23.1,0,0,1-.09-2.725,1.559,1.559,0,0,1,.508-1.328l.76-.887a2.468,2.468,0,0,1,.524-.5,2.5,2.5,0,0,1,1.826-.1.787.787,0,0,1,.355.134.533.533,0,0,1,.115.59,3.347,3.347,0,0,0-.432,1.554,7.528,7.528,0,0,0,.187,1.945c.266-.1.423-.363.614-.6.161-.2.37-.42.625-.385.338.047.442.5.38.831a7.906,7.906,0,0,1-.856,1.86c-.437.92-.533,2.721-1.624,2.92a11.254,11.254,0,0,1-2.169-.06l-.541-2.216a8.609,8.609,0,0,1-.183-1.024" transform="translate(-58.94 -112.96)" fill="#efbfa5"/>
        <path id="Trazado_833045" data-name="Trazado 833045" d="M108.118,205.823q-9.548-.5-19.072-1.36a1.57,1.57,0,0,1-1.776-1.642Q86.07,195.453,85.51,188a1.44,1.44,0,0,0-.462-1.161,1.417,1.417,0,0,0-.84-.138c-1.343.057-2.973-.254-3.969.9-.957,1.113-.524,3.077-.554,4.476q-.132,6.217-.772,12.409c-.137,1.32-.392,3.282.472,4.432.76,1.012,2.426,1.677,3.5,2.381l12.924,8.474A5.741,5.741,0,0,0,98.778,221c1.741.013,1.748-1.2,2.233-2.353a22.429,22.429,0,0,1,2.632-3.839,34.608,34.608,0,0,0,4.476-8.981" transform="translate(-55.755 -132.146)" fill="#474ebb"/>
        <path id="Trazado_833046" data-name="Trazado 833046" d="M264.927,412.511a2.1,2.1,0,0,1-1.95-.993,2.682,2.682,0,0,1-.079-1.707,12.771,12.771,0,0,1,.867-2.731c.977-2.19,4.061-2.934,4.952-.242.792,2.392-1.255,5.622-3.79,5.673" transform="translate(-186.015 -286.745)" fill="#474ebb"/>
        <path id="Trazado_833047" data-name="Trazado 833047" d="M252.074,407.746a2.134,2.134,0,0,1-.467-1.863,4.15,4.15,0,0,1,1.5-1.727c.6-.41,1.093.134,1.4.605a3.125,3.125,0,0,0,1.047,1.13c.4-.569-.081-1.153.259-1.73a1.854,1.854,0,0,1,.606-.584c.08-.052.177-.1.254-.068a.248.248,0,0,1,.1.134c.579,1.24,1.715,1.866,2.01,3.312a2.4,2.4,0,0,1-2.16,2.974,4.959,4.959,0,0,1-4.388-1.964c-.052-.068-.107-.141-.16-.219" transform="translate(-178.039 -285.604)" fill="#efbfa5"/>
        <path id="Trazado_833048" data-name="Trazado 833048" d="M48.648,40.212l4,37.313c.123,1.145,5.432,2.065,11.862,2.076s11.742-.89,11.869-2.035l4.133-37.3Z" transform="translate(-34.434 -28.463)" fill="#8ec3cb"/>
        <g id="Grupo_1080946" data-name="Grupo 1080946" transform="translate(16.98 17.897)" opacity="0.64">
          <g id="Grupo_1080945" data-name="Grupo 1080945">
            <g id="Grupo_1080944" data-name="Grupo 1080944" clip-path="url(#clip-path-3)">
              <path id="Trazado_833049" data-name="Trazado 833049" d="M84.395,62.308c.043-.031.065-.062.065-.094,0-.519-5.887-.95-13.151-.963s-13.153.4-13.154.918a.126.126,0,0,0,.065.094h-.1l3.317,29.23c.1.9,4.5,1.618,9.821,1.627s9.721-.7,9.826-1.593L84.5,62.308Z" transform="translate(-58.116 -61.251)" fill="#fff"/>
            </g>
          </g>
        </g>
        <path id="Trazado_833050" data-name="Trazado 833050" d="M80.583,37.014c0,.663-7.115,1.188-15.888,1.173S48.81,37.623,48.811,36.96s7.115-1.188,15.888-1.173,15.885.564,15.884,1.227" transform="translate(-34.549 -25.331)" fill="#7bb1b7"/>
        <g id="Grupo_1080949" data-name="Grupo 1080949" transform="translate(16.907 17.909)" opacity="0.51">
          <g id="Grupo_1080948" data-name="Grupo 1080948">
            <g id="Grupo_1080947" data-name="Grupo 1080947" clip-path="url(#clip-path-4)">
              <path id="Trazado_833051" data-name="Trazado 833051" d="M84.321,62.167c0,.47-5.924.841-13.23.829s-13.228-.4-13.227-.874,5.924-.841,13.23-.829,13.228.4,13.227.874" transform="translate(-57.864 -61.293)" fill="#fff"/>
            </g>
          </g>
        </g>
        <path id="Trazado_833052" data-name="Trazado 833052" d="M86.557,103.189q.1-1.548.133-3.1a.451.451,0,0,0-.9-.027q-.03,1.417-.117,2.832l-2.229-.067q.018-1.007.035-2.014a.451.451,0,0,0-.9-.027l-.091,5.22a.451.451,0,0,0,.9.027l.04-2.312,2.185.066q-.1,1.381-.256,2.758c-.065.572.836.6.9.027q.168-1.494.273-2.994a.5.5,0,0,0,.027-.389" transform="translate(-58.386 -70.529)" fill="#fff"/>
        <path id="Trazado_833053" data-name="Trazado 833053" d="M99.255,127.643c-.072-.006-.654-.049-.872-.073a2.276,2.276,0,0,0,.328-.32c.083-.09.173-.175.255-.267a1.511,1.511,0,0,0,.455-1.391.93.93,0,0,0-1.81-.007c-.131.559.729.825.861.264q.236,0,.023.275a1.553,1.553,0,0,1-.272.342c-.126.135-.259.262-.377.4a1.281,1.281,0,0,0-.378.939c.105.789,1.189.676,1.762.728s.6-.842.027-.895" transform="translate(-68.984 -88.386)" fill="#fff"/>
        <path id="Trazado_833054" data-name="Trazado 833054" d="M110.565,102.323a.4.4,0,0,0-.418-.377c-1.511,0-2.252,2.232-2.277,3.447-.028,1.36.656,3.014,2.246,3.016a2.871,2.871,0,0,0,2.618-2.871c.1-1.225-.83-3.008-2.169-3.216m1.246,3.384c-.138.888-.784,1.926-1.828,1.8-1.027-.123-1.26-1.43-1.206-2.258a3.644,3.644,0,0,1,.292-1.2,2.823,2.823,0,0,1,.746-1.1.467.467,0,0,0,.478.238c.485-.065,1.054.707,1.271,1.058a2.118,2.118,0,0,1,.247,1.462" transform="translate(-76.352 -72.159)" fill="#fff"/>
        <path id="Trazado_833055" data-name="Trazado 833055" d="M745.561,36.892a5.734,5.734,0,0,0-2.718-1.049l-8.907-.208a4.629,4.629,0,0,1-2.7-1,.742.742,0,0,0-1.043-1.055l-.022.021-.9-.948L723.64,38l.9.948-.2.191a.743.743,0,1,0,1.022,1.078l.165-.156a4.62,4.62,0,0,1,.895,2.912l-.506,8.921a5.733,5.733,0,0,0,.9,2.77l3.85,4.063s7.624.2,7.607,7.94L761.25,90.993S774.3,88.551,780,73.226l-23.064-24.25c-7.443-.353-7.521-8.022-7.521-8.022Z" transform="translate(-512.207 -23.112)" fill="#8ec3cb"/>
        <path id="Trazado_833056" data-name="Trazado 833056" d="M804.569,101.309,792.95,89.049l-4.166,4.638c-3.423,3.543-6.124,6-9.983,9.462l-4.6,3.667,11.619,12.26-.059.056c12.875-5.784,18.865-17.879,18.865-17.879Z" transform="translate(-547.997 -63.031)" fill="#ebb044"/>
        <path id="Trazado_833057" data-name="Trazado 833057" d="M812.881,121.411l3.379-3.2-.137,5.818,4.084-1.653-.873,9.3-1.883-5.441-3.056,1.933Z" transform="translate(-575.374 -83.671)" fill="#fff"/>
        <path id="Trazado_833058" data-name="Trazado 833058" d="M719.972,22.525l-6.779,6.425a.544.544,0,0,1-.768-.021l-3.392-3.579a.543.543,0,0,1,.021-.768l6.779-6.424a.543.543,0,0,1,.768.02l3.392,3.579a.543.543,0,0,1-.02.768" transform="translate(-501.763 -12.746)" fill="#3b455a"/>
        <g id="Grupo_1080952" data-name="Grupo 1080952" transform="translate(213.368 11.546)" opacity="0.15" style="mix-blend-mode: multiply;isolation: isolate">
          <g id="Grupo_1080951" data-name="Grupo 1080951">
            <g id="Grupo_1080950" data-name="Grupo 1080950" clip-path="url(#clip-path-5)">
              <path id="Trazado_833059" data-name="Trazado 833059" d="M730.264,44.986l5.645-5.47a7.494,7.494,0,0,0,.693.417Z" transform="translate(-730.264 -39.516)" fill="#080a0a"/>
            </g>
          </g>
        </g>
        <g id="Grupo_1080955" data-name="Grupo 1080955" transform="translate(218.51 17.898)" opacity="0.06">
          <g id="Grupo_1080954" data-name="Grupo 1080954">
            <g id="Grupo_1080953" data-name="Grupo 1080953" clip-path="url(#clip-path-6)">
              <path id="Trazado_833060" data-name="Trazado 833060" d="M766.662,61.312l-.053-.057L747.862,79.022l.054.057s7.624.2,7.606,7.94l.079.084,8.64-7.436q.83-.714,1.59-1.5l8.431-8.747-.079-.083c-7.443-.352-7.521-8.021-7.521-8.021" transform="translate(-747.862 -61.255)" fill="#080a0a"/>
            </g>
          </g>
        </g>
        <path id="Trazado_833061" data-name="Trazado 833061" d="M878.331,130.812l0-.006h0Z" transform="translate(-621.699 -92.587)" fill="#a4a6a9"/>
        <path id="Trazado_833062" data-name="Trazado 833062" d="M673.015,320.448c-.044-.338-.032-.371-.322-.558-.322-.207-.671-.381-1.009-.557a9.495,9.495,0,0,1-2.263-4.517,35.7,35.7,0,0,0-1.431-3.743q-1.408-3.667-2.751-7.362a2.158,2.158,0,0,1-.19-1.17,2.019,2.019,0,0,1,.435-.785,33.464,33.464,0,0,1,2.837-3.2,11,11,0,0,1,2.737-1.946c1.118-.617.7-1.821.3-2.855-.165-.419-1.89-4.029-1.712-4.21q-5.18,5.238-10.306,10.536a1.934,1.934,0,0,0-.541.792,2.013,2.013,0,0,0,.2,1.232,86.991,86.991,0,0,0,4.481,9.64q1.257,2.329,2.645,4.576c.539.873,2.357,2.649,1.959,3.785a2.933,2.933,0,0,0-.146.38,1.213,1.213,0,0,0,.032.479,8.787,8.787,0,0,0,.537,1.737c.224.507.622.568,1.069.769.466.21.767.666,1.208.915a1.1,1.1,0,0,0,1.239-.2q.284-.19.558-.4.162-.121.321-.247a.614.614,0,0,0,.168-.176.643.643,0,0,0,.061-.235,10.464,10.464,0,0,0-.106-2.684" transform="translate(-466.281 -204.942)" fill="#d8a38b"/>
        <path id="Trazado_833063" data-name="Trazado 833063" d="M769.252,206.732a4.182,4.182,0,0,0,1.732-1.239,4.246,4.246,0,0,0,.533-1.342l2.716-10.048c-.9-.974-.929-3.107.822-1.931.156.1.326.237.509.2a.612.612,0,0,0,.321-.258l1.064-1.367a1.074,1.074,0,0,1,.443-.39.983.983,0,0,1,.45-.021,5.976,5.976,0,0,1,3.144,1.384,14.331,14.331,0,0,1-2.159,2.486,7.414,7.414,0,0,0-.878.872c-1.058,1.355-.839,3.986-1.023,5.622q-.377,3.351-.754,6.7a1.86,1.86,0,0,1-1.111,1.742,95.32,95.32,0,0,1-18.034,9.08c-.536-1.5-1.437-3.57-1.393-5.185.042-1.525,2.267-1.651,3.514-2.1a108.013,108.013,0,0,0,10.1-4.206" transform="translate(-534.852 -134.71)" fill="#d8a38b"/>
        <path id="Trazado_833064" data-name="Trazado 833064" d="M711.9,266.49c-2.35.774-3.533,2.136-3.6,5.345a66.755,66.755,0,0,0,.427,11.638c.334,2.16.879,4.283,1.2,6.445a33.965,33.965,0,0,1-.764,13.209c-.366,1.448-1.852,3.832-.749,5.1,1.056,1.217,3.079.446,4.42.381l13.3-.642c2.715-.131,8.3-.271,7.6-4.466-.323-1.94-2.2-3.975-2.923-5.85a16.336,16.336,0,0,1-1.221-6.545,77.663,77.663,0,0,0-.656-9.776c-.357-4.545-.51-9.25-2.429-13.47-1.612-3.546-9.645-2.441-12.723-1.843a15.546,15.546,0,0,0-1.881.471" transform="translate(-501.141 -187.837)" fill="#d8a38b"/>
        <path id="Trazado_833065" data-name="Trazado 833065" d="M798.766,615.686a13.683,13.683,0,0,0,2.5-.17,42.838,42.838,0,0,0-.4-8.725c-1.391,1.349-2.424.44-2.563,3.142-.045.875.727,4.436.469,5.754" transform="translate(-565.05 -429.499)" fill="#d8a38b"/>
        <path id="Trazado_833066" data-name="Trazado 833066" d="M800.817,631.637c1-.283,1.062,2.063,1.033,2.612a4.076,4.076,0,0,0-.018.987,2.639,2.639,0,0,0,.486.967l1.3,1.878a3.111,3.111,0,0,1,.484.9,1.824,1.824,0,0,1-1.083,2.061c-2.71,1.146-4.886-2.221-5.31-4.375-.065-.33-.106-.665-.147-1-.085-.691-.5-2.213-.184-2.861.368-.756,1.287-.128,1.934-.378.6-.233,1.1-.676,1.508-.791" transform="translate(-564.316 -447.069)" fill="#3b455a"/>
        <path id="Trazado_833067" data-name="Trazado 833067" d="M729.989,617.621a13.714,13.714,0,0,1-2.492.247,42.814,42.814,0,0,1-1.049-8.672c1.6,1.1,2.463.032,3.048,2.673.189.855.019,4.5.492,5.752" transform="translate(-514.195 -431.202)" fill="#d8a38b"/>
        <path id="Trazado_833068" data-name="Trazado 833068" d="M721.354,633.341c-.11,1.593-1.48,3.224-2.271,4.61a.984.984,0,0,0,.073,1.293,2.051,2.051,0,0,0,.779.839,1.955,1.955,0,0,0,1.122.063q.944-.141,1.873-.368a1.28,1.28,0,0,0,.441-.17,1.32,1.32,0,0,0,.348-.438,4.813,4.813,0,0,0,.934-2.381,14.7,14.7,0,0,1,.235-3c.122-.47.282-1.072-.108-1.361-.3-.224-.9.016-1.246.048a4.682,4.682,0,0,0-1.75.263.81.81,0,0,0-.312.233.677.677,0,0,0-.117.366" transform="translate(-508.835 -447.58)" fill="#3b455a"/>
        <path id="Trazado_833069" data-name="Trazado 833069" d="M722.7,224.8a1.16,1.16,0,0,0,.232.286,2.52,2.52,0,0,0,1.438.592,6.259,6.259,0,0,0,2.038-.232c.9-.213.848-.745.944-1.577.053-.455.078-.912.092-1.369.008-.251-.127-1.142.024-1.324.1-.124.545-.1.733-.212a2.124,2.124,0,0,0,.713-.771,5.974,5.974,0,0,0,.553-1.542l.715-2.77a14.466,14.466,0,0,0,.537-2.867c.075-1.466-.25-3.518-1.4-4.539a6.6,6.6,0,0,0-3.883-1.322,7.965,7.965,0,0,0-5.123,1.267,4.264,4.264,0,0,0-1.51,1.626,6.893,6.893,0,0,0-.307,3.606l.315,3.386c.121,1.3.347,2.79,1.353,3.454.534.352,1.214.4,1.677.864a3.374,3.374,0,0,1,.64,2.244,2.784,2.784,0,0,0,.217,1.2" transform="translate(-508.502 -146.602)" fill="#d8a38b"/>
        <path id="Trazado_833070" data-name="Trazado 833070" d="M739.482,201.127a1.894,1.894,0,0,1,.167.324c.233.591.122,1.274.351,1.866.363.939,1.5,1.464,1.71,2.449.172.805-.349,1.6-.36,2.424-.013.9.6,1.724.548,2.614a5.866,5.866,0,0,1-.918,2.512c.134-.2,1.425-.185,1.75-.4a1.354,1.354,0,0,0,.678-1.074,10.776,10.776,0,0,1,.2-1.606c.26-.678.834-1.193,1.011-1.911.242-.981-.317-1.981-.32-2.992-.005-1.53,1.253-3.025.711-4.455-.318-.839-1.168-1.348-1.666-2.094a11.577,11.577,0,0,1-.81-1.872,2.272,2.272,0,0,0-1.382-1.407,11.077,11.077,0,0,0-1.13-.084,13.954,13.954,0,0,1-1.829-.7c-.9-.261-2.423.7-2.907,1.475s-.195,1.39.358,2.026c.921,1.06,3.064,1.687,3.839,2.9" transform="translate(-520.277 -137.798)" fill="#3b455a"/>
        <path id="Trazado_833071" data-name="Trazado 833071" d="M701.646,194.315a16.921,16.921,0,0,0-1.622,1.2,5,5,0,0,0-1,3.653c.019,1.156-.441,2.2-.264,3.4a2.946,2.946,0,0,0,1.175,2.054c.844.559,2.133.6,2.539,1.528.441,1.007-.565,2.343.118,3.205.377.476,1.076.518,1.6.826a4.475,4.475,0,0,1,1.274,1.554,2.052,2.052,0,0,0,1.593,1.11,5.642,5.642,0,0,0-.5-2.767c-.28-.537-1.076-1.515-.523-2.133.344-.509,1.2-.707,1.194-1.32a1.42,1.42,0,0,0-.382-.758,3.53,3.53,0,0,1-.4-3.194,4.588,4.588,0,0,1,2.175-2.445c1.151-.62.949-.9,1.243-2.04.27-1.05.847-1.318,1.764-1.736a1.968,1.968,0,0,0,1.358-1.395,2.285,2.285,0,0,0,.095-1.909,3.868,3.868,0,0,0-1.237-1.168,5.028,5.028,0,0,0-3.268-1.26c-.659.076-1.268.413-1.929.48-.441.044-.884-.035-1.326-.03a3.523,3.523,0,0,0-2.131.746c-.6.479-.558.952-.872,1.609a2.3,2.3,0,0,1-.668.794" transform="translate(-494.565 -134.981)" fill="#3b455a"/>
        <path id="Trazado_833072" data-name="Trazado 833072" d="M687.807,176.257c.085-.721-.03-1.652-.724-1.864-.38-.116-.794.047-1.187-.016-.837-.133-1.164-1.126-1.63-1.834a.627.627,0,0,0-.27-.259,1.019,1.019,0,0,0-.535.037c-.822.136-1.485-.652-2.276-.914a1.955,1.955,0,0,0-2.412,1.331c-.1.411-.062.847-.156,1.26-.382,1.674-2.774,2.482-2.761,4.2.008,1.16,1.19,2.221.8,3.312-.252.7-1.114,1.2-.981,1.933a1.023,1.023,0,0,0,1.078.742,2.055,2.055,0,0,0,1.249-.637c.548-.522.951-1.18,1.471-1.73a2.583,2.583,0,0,1,1.981-.948c.731.059,1.414.6,2.131.445.574-.122.981-.656,1.543-.826a5.351,5.351,0,0,1,1.636.035c.549.009,1.209-.3,1.2-.853a1.373,1.373,0,0,1-.009-.4c.1-.358.707-.364.806-.724-.3-.428-.7-.253-.931-.82a3.166,3.166,0,0,1-.017-1.472" transform="translate(-478.242 -121.266)" fill="#3b455a"/>
        <path id="Trazado_833073" data-name="Trazado 833073" d="M683.195,276.639c.01.659-.122,3.493.935,3.562,5.251.337,10.409-1.724,15.525-2.558a27.612,27.612,0,0,1,4.026-.389c1.214-.018,2.335.542,2.663-.746a19.349,19.349,0,0,0,.1-4.293c.016-2.834-.33-5.418.326-8.191a30.2,30.2,0,0,1,3.143-7.99,1.988,1.988,0,0,0,.316-.8,4.4,4.4,0,0,0-.361-1.393c-.186-.675-.291-1.38-.455-2.061q-.475-1.965-1.1-3.891a10.362,10.362,0,0,1-2.661,1.532c-1.489.583-3.087.82-4.576,1.4-.766.3-1.348.815-2.061,1.17-.675.336-1.412.322-1.805,1.113a7.891,7.891,0,0,0-.068,2.7,16.9,16.9,0,0,1-.176,2.77c-.2,1.169-.762,2.555-1.943,2.672a2.419,2.419,0,0,1-1.946-1.023c-1.352-1.587-1.141-3.638-2.124-5.328a7.524,7.524,0,0,0-1.276-1.7c-.621-.256-2.5.937-3.126,1.206a22.945,22.945,0,0,0-4.6,2.316,28.065,28.065,0,0,0-4,3.554c-1.073,1.134-2.105,2.323-3.066,3.554-1.054,1.35.134,2.009,1.069,3.066Q676.933,268,678,269a9.423,9.423,0,0,0,2.078,1.787c.989.437,2.054-.648,2.7-1.273-.277.266.409,2.595.462,3.1.138,1.311-.07,2.709-.051,4.031" transform="translate(-477.414 -175.464)" fill="#7fc5a3"/>
        <path id="Trazado_833074" data-name="Trazado 833074" d="M738.548,455.905c-.075-2.233-.187-4.469-.3-6.7-.2-3.874-.389-7.683-.784-11.533-1.218-11.863-1.708-23.848-2.554-35.745a51.355,51.355,0,0,0-.786-10.674,1.811,1.811,0,0,0-.193-.56c-.341-.558-1.122-.6-1.775-.573-2.561.109-5.239.662-7.777.6-2.852-.07-5.871-.315-8.819-.15-2.024.114-4.071-.651-6.137-.266-1.007.187-.978,1.032-1.148,2.017a26.278,26.278,0,0,0-.3,3.229q-.136,2.9-.163,5.812c-.044,4.8.7,9.64.942,14.437q.375,7.542.654,15.088c.24,6.368,1.153,12.7,1.94,18.993.278,2.224.56,4.448.881,6.662a10.007,10.007,0,0,0,.409,2.422c.569,1.185,2.084,1.054,3.028.91a13.392,13.392,0,0,0,2.438-.612c-.3-8.783.616-17.7.575-26.55a164.456,164.456,0,0,1,1.231-17.565,29.476,29.476,0,0,1,.431-3.3c.225-1.016.636-1.985.806-3.029.186-1.14,1.1-1.211,1.508-.221a31.514,31.514,0,0,1,1.062,4.132c1.772,6.853,3.819,13.606,4.98,20.671,1.433,8.728,3.757,17.384,4.939,26.092a11.652,11.652,0,0,0,2.327.23c.885,0,2.29-.106,2.613-1.362a10.714,10.714,0,0,0-.029-2.451" transform="translate(-501.005 -276.128)" fill="#3b455a"/>
        <path id="Trazado_833075" data-name="Trazado 833075" d="M736.659,385.411c0-.495-.993-1.347-1.211-1.823-.245-.536-.458-1.072-.743-1.6a.208.208,0,0,0-.055-.073c-.093-.068-.207.043-.292.119-.3.268-1.1.091-1.474.095l-1.933.018-3.746.036c-5.012.048-9.971.326-14.978.015-.2.5-.908,2.214-.606,2.721.111.186.3.15.523.171.513.051,1.034.059,1.549.081,1.672.07,3.346.115,5.019.155q6.2.152,12.4.192a54.751,54.751,0,0,0,5.543-.107" transform="translate(-503.647 -270.311)" fill="#343f51"/>
        <path id="Trazado_833076" data-name="Trazado 833076" d="M518.659,577.758c2.115,1.475,16.577,20.651,16.577,20.651l-8.289,6.368-34.3-7.144v-6.366l13.148-1.026s-9.581-1.4-12.186-7.759,25.044-4.724,25.044-4.724" transform="translate(-348.709 -408.815)" fill="#474ebb"/>
        <path id="Trazado_833077" data-name="Trazado 833077" d="M475.829,628.774c-.721,1.917-1.461,4.461-.878,6.6.646,2.367,4.338,4.019,5.342,1.05a1.671,1.671,0,0,0-.284-1.7c-.908-.91-1.669-1.91.048-2.517a20.2,20.2,0,0,1,1.99-.357,1.142,1.142,0,0,0,.613-.318,1.321,1.321,0,0,0,.227-.839,20.726,20.726,0,0,0-.17-3.367c-.045-.342-3.278-.622-3.614-.586-1.22.129-2.808.8-3.274,2.034" transform="translate(-336.031 -443.617)" fill="#3b455a"/>
        <path id="Trazado_833078" data-name="Trazado 833078" d="M578.539,589.655l12.642,7.174,3.331-2.711v-3.155l-15.973-12.747-9.632,10.439Z" transform="translate(-402.684 -409.273)" fill="#474ebb"/>
        <path id="Trazado_833079" data-name="Trazado 833079" d="M502.056,433.476a7.129,7.129,0,0,1,1.145-.582c6.656-2.628,11.532.339,13.678,6.771a75.1,75.1,0,0,1,2.23,42.2,180.671,180.671,0,0,1-23.875.151c-2.656-.218-5.564-.628-7.344-2.61a9.154,9.154,0,0,1-1.675-3.12c-2.535-7.141-2.013-15.164.633-22.265a50.5,50.5,0,0,1,12.788-18.561,15.294,15.294,0,0,1,2.422-1.979" transform="translate(-342.984 -305.735)" fill="#7fc5a3"/>
        <path id="Trazado_833080" data-name="Trazado 833080" d="M562.744,386.4c-3.464.893-7.127-1.418-10.474-.074a7.21,7.21,0,0,0-4.05,5.586,5.768,5.768,0,0,0,.32,3.273,5.176,5.176,0,0,0,1.263,1.655,7.257,7.257,0,0,0,2.346,1.418,24.213,24.213,0,0,1-1.207,2.253c.533.335.287,1.416.778,1.965a2.218,2.218,0,0,0,2.159.512,5.747,5.747,0,0,0,2-1.1c.551-.415.262-3.222.828-3.357a7.616,7.616,0,0,0,1.413-.482,9.038,9.038,0,0,0,5.031-7.34,16.712,16.712,0,0,0-.406-4.307" transform="translate(-387.974 -273.143)" fill="#efbfa5"/>
        <path id="Trazado_833081" data-name="Trazado 833081" d="M549.225,365.937q.2-.01.4-.011a13.083,13.083,0,0,1,5.517,1.177,5.027,5.027,0,0,1,1.719,1.151,4.134,4.134,0,0,1,.915,2.892,10.648,10.648,0,0,1-.681,3.068,2.081,2.081,0,0,0,1.213-.467,9.489,9.489,0,0,0,2.911-2.844c1.2-2.087,1.253-3.573,3.3-5.068,1.7-1.24,3.855-.5,5.219-2.6,1.116-1.72.458-4.512-1.516-5.068a2.769,2.769,0,0,0-2.566.607c-.729.665-1.523,1.828-2.378,1.334a2.048,2.048,0,0,1-.667-.954c-1.459-2.924-4.577-2.415-7.07-1.325a15.08,15.08,0,0,1-4.283,1.6c-1.213.127-2.417-.191-3.633-.156a7.086,7.086,0,0,0-5.27,2.789c-1.411,1.833-2.136,4.471-1.185,6.563a22.7,22.7,0,0,1,1.092,3.26c.109.385.957,1.949,1.285.7.255-.973.193-2,.454-2.971.636-2.368,2.956-3.565,5.229-3.677" transform="translate(-382.743 -252.672)" fill="#3b455a"/>
        <path id="Trazado_833082" data-name="Trazado 833082" d="M589.223,463.264c-5.071-.443-11.469,2.278-13.015,6.671-1.5-4.407-9.271-7.151-14.347-6.755-13.394,1.046-18,16.191-12.378,26.417a58.289,58.289,0,0,0,12.162,14.655c3.993,3.627,14.3,11.33,14.332,11.3.031.026,10.416-7.58,14.446-11.171a58.364,58.364,0,0,0,12.309-14.542c5.728-10.173-.127-25.409-13.51-26.579" transform="translate(-387.273 -327.822)" fill="#d34e4e"/>
        <g id="Grupo_1080958" data-name="Grupo 1080958" transform="translate(179.733 156.308)" opacity="0.12" style="mix-blend-mode: multiply;isolation: isolate">
          <g id="Grupo_1080957" data-name="Grupo 1080957">
            <g id="Grupo_1080956" data-name="Grupo 1080956" clip-path="url(#clip-path-7)">
              <path id="Trazado_833083" data-name="Trazado 833083" d="M647.976,541.737a73.373,73.373,0,0,1-11.452,11.187c-4.073,3.173-8.84,5.932-14.075,6.837a18.079,18.079,0,0,1-7.3-.193c4.254,3.368,8.878,6.812,8.9,6.795.031.026,10.416-7.58,14.446-11.17a58.36,58.36,0,0,0,12.31-14.542,17.029,17.029,0,0,0,1.959-5.675,53.68,53.68,0,0,1-4.784,6.762" transform="translate(-615.147 -534.974)" fill="#000100"/>
            </g>
          </g>
        </g>
        <path id="Trazado_833084" data-name="Trazado 833084" d="M610.195,509.469l-10.519.223-3.735-14.044a.732.732,0,0,0-1.381-.006l-8.266,24.377-.479,1.412-5.456-16.1-.875-2.582a.738.738,0,0,0-1.307-.169l-4.065,7.79-11.77-.054a.684.684,0,1,0-.007,1.369l12.213.056a.715.715,0,0,0,.62-.336l3.483-6.676,5.6,16.515.875,2.582a.733.733,0,0,0,1.38.006l8.266-24.377.4-1.166,3.265,12.276a.722.722,0,0,0,.688.506l11.069-.234a.684.684,0,1,0,.007-1.369" transform="translate(-397.545 -350.483)" fill="#fff"/>
        <path id="Trazado_833085" data-name="Trazado 833085" d="M533.443,489.684a11.534,11.534,0,0,0,3.866,5.507l4.591,3.329a4.039,4.039,0,0,1,1.122,1.057,5.346,5.346,0,0,1,.513,2.114,4.948,4.948,0,0,0,2.456,3.861c1.435.683,3.506,0,3.85-1.547-.661-.885-1.284-1.821-1.992-2.669-.382-.458-1.228-1.563.141-1.2a1.665,1.665,0,0,0,.644.1.932.932,0,0,0,.7-.662,1.92,1.92,0,0,0,.049-.981c-3.113-.058-6.542-3.078-8.23-5.486-4.515-6.442-2.7-14.616-4.216-21.85a6.7,6.7,0,0,0-2.022-3.893,3.208,3.208,0,0,0-4.09-.141c-1.166,1.094-1,2.958-.738,4.535l1.115,6.793c.551,3.359.914,7.573,2.24,11.129" transform="translate(-375.074 -330.236)" fill="#efbfa5"/>
        <path id="Trazado_833086" data-name="Trazado 833086" d="M524.1,458.437a41.047,41.047,0,0,0-.116,9.239,96.227,96.227,0,0,1,11.138-1.009,69.931,69.931,0,0,0-1.7-9.624,4.636,4.636,0,0,0-5-3.45c-2.644.106-4.03,2.519-4.323,4.843" transform="translate(-370.74 -321.059)" fill="#7fc5a3"/>
        <path id="Trazado_833087" data-name="Trazado 833087" d="M613.565,462.32a.741.741,0,0,1,.561.09.68.68,0,0,1,.177.535,3.755,3.755,0,0,1-.675,2.156.638.638,0,0,0-.179.484c.044.181.241.272.415.338l1.362.519a.411.411,0,0,0,.581-.168,6.983,6.983,0,0,0,1.544-2.485,2.383,2.383,0,0,0-.791-2.637c-1.35-.865-5.592-1.426-5.7,1.009a4.837,4.837,0,0,0,2.7.158" transform="translate(-432.38 -325.891)" fill="#efbfa5"/>
      </g>
    </g>
  </g>
</svg>
