<svg xmlns="http://www.w3.org/2000/svg" xmlns:xlink="http://www.w3.org/1999/xlink" width="820" height="540.442" viewBox="0 0 820 540.442">
  <defs>
    <clipPath id="clip-path">
      <path id="Trazado_832838" data-name="Trazado 832838" d="M73.764,0c-3.875,0-6.93,2.263-7.1,5.2l-1.847,9.519a69.277,69.277,0,0,0-11.926,4.34l-7.531-6.1a4.865,4.865,0,0,0-3.615-1.457,8.269,8.269,0,0,0-5.163,2.039L23.008,24.923c-2.965,2.491-3.852,6.19-2.1,8.545l4.71,8.492a70.148,70.148,0,0,0-6.347,10.976l-9.7.165a4.854,4.854,0,0,0-.51-.027c-2.762,0-5.219,2.572-5.843,6.115L.147,76.645c-.673,3.811,1.025,7.211,3.885,7.889L13.1,88.013A69.881,69.881,0,0,0,15.286,100.5l-7.32,6.356a5.082,5.082,0,0,0-2.148,4.052,8.552,8.552,0,0,0,1.2,4.694l8.863,15.349c1.41,2.446,3.768,4.024,6.01,4.024a4.479,4.479,0,0,0,2.038-.474l9.169-3.16a70.447,70.447,0,0,0,9.721,8.144l-1.525,9.587c-.841,2.81,1.256,5.986,4.9,7.313l16.655,6.061a9.065,9.065,0,0,0,3.095.563c2.523,0,4.548-1.147,5.35-3.019l5-8.321c2.178.2,4.333.3,6.423.3.526,0,1.051-.005,1.577-.019,1.5-.036,3.042-.127,4.677-.277l5,8.321c.805,1.872,2.831,3.019,5.356,3.019a9.16,9.16,0,0,0,3.095-.561l16.654-6.063A8.57,8.57,0,0,0,123,153.563a5.063,5.063,0,0,0,.956-4.484l-1.521-9.587a70.4,70.4,0,0,0,9.721-8.146l9.163,3.16a4.5,4.5,0,0,0,2.039.474c2.245,0,4.6-1.578,6.018-4.022l8.858-15.351c1.937-3.354,1.5-7.131-.952-8.743l-7.315-6.352a69.61,69.61,0,0,0,2.183-12.5l9.07-3.474c2.858-.677,4.557-4.078,3.885-7.893l-3.077-17.457c-.624-3.543-3.083-6.115-5.845-6.115a4.807,4.807,0,0,0-.506.027l-9.691-.165a69.556,69.556,0,0,0-6.355-10.977l4.713-8.489c1.755-2.357.868-6.055-2.1-8.547L128.667,13.532a8.276,8.276,0,0,0-5.163-2.038,4.873,4.873,0,0,0-3.616,1.456l-7.532,6.107a69.533,69.533,0,0,0-11.923-4.347L98.59,5.2c-.173-2.934-3.231-5.2-7.1-5.2Z" fill="none"/>
    </clipPath>
    <linearGradient id="linear-gradient" x1="0.134" y1="0.863" x2="0.138" y2="0.863" gradientUnits="objectBoundingBox">
      <stop offset="0" stop-color="#fff"/>
      <stop offset="0.997" stop-color="#a0b3b8"/>
      <stop offset="1" stop-color="#a0b3b8"/>
    </linearGradient>
    <clipPath id="clip-path-2">
      <path id="Trazado_832839" data-name="Trazado 832839" d="M73.764,2.27c-2.659,0-4.838,1.432-4.838,3.185L66.773,16.562a67.121,67.121,0,0,0-14.189,5.164L43.793,14.6c-1.121-1.343-3.714-1.038-5.752.67L24.463,26.664c-2.036,1.71-2.779,4.2-1.656,5.549l5.5,9.911A67.362,67.362,0,0,0,20.748,55.18l-11.314.195c-1.723-.307-3.517,1.591-3.976,4.209L2.382,77.037c-.464,2.623.572,5.009,2.3,5.316l10.584,4.06a67.428,67.428,0,0,0,2.6,14.86L9.32,108.692c-1.517.875-1.668,3.479-.339,5.782l8.861,15.349c1.332,2.305,3.658,3.469,5.178,2.6l10.7-3.69a68,68,0,0,0,11.564,9.694L43.508,149.61c-.6,1.646.957,3.737,3.454,4.649l16.656,6.06c2.5.909,5.036.308,5.631-1.336l5.835-9.715a67.837,67.837,0,0,0,9.146.415c2-.05,3.98-.2,5.935-.415L96,158.983c.6,1.644,3.136,2.244,5.634,1.336l16.652-6.06c2.5-.912,4.059-3,3.456-4.644l-1.776-11.188a67.811,67.811,0,0,0,11.566-9.7l10.7,3.691c1.516.876,3.846-.291,5.175-2.594l8.863-15.351c1.329-2.305,1.177-4.9-.34-5.782l-8.537-7.414a67.315,67.315,0,0,0,2.6-14.865l10.58-4.06c1.728-.3,2.76-2.695,2.3-5.313l-3.077-17.456c-.465-2.619-2.254-4.514-3.976-4.209L144.5,55.18a67.369,67.369,0,0,0-7.559-13.06l5.5-9.906c1.127-1.343.38-3.841-1.656-5.55L127.21,15.271c-2.04-1.71-4.625-2.011-5.751-.67l-8.793,7.127a67.033,67.033,0,0,0-14.187-5.169l-2.156-11.1c0-1.753-2.173-3.185-4.834-3.185Z" fill="none"/>
    </clipPath>
    <radialGradient id="radial-gradient" cx="0.647" cy="0.694" r="1.625" gradientTransform="translate(-0.024 2.022) rotate(180) scale(0.985 1)" gradientUnits="objectBoundingBox">
      <stop offset="0" stop-color="#fff"/>
      <stop offset="1" stop-color="#b0b0b0"/>
    </radialGradient>
    <clipPath id="clip-path-3">
      <rect id="Rectángulo_379522" data-name="Rectángulo 379522" width="165.251" height="163.014" fill="none"/>
    </clipPath>
    <clipPath id="clip-path-4">
      <path id="Trazado_832841" data-name="Trazado 832841" d="M32.913,83.682A49.817,49.817,0,1,1,82.73,133.5,49.817,49.817,0,0,1,32.913,83.682m-5.369,0A55.184,55.184,0,1,0,82.73,28.5,55.186,55.186,0,0,0,27.544,83.682" fill="none"/>
    </clipPath>
    <linearGradient id="linear-gradient-2" x1="-0.03" y1="1.008" x2="-0.024" y2="1.008" gradientUnits="objectBoundingBox">
      <stop offset="0" stop-color="#fff"/>
      <stop offset="1" stop-color="#879ba8"/>
    </linearGradient>
    <clipPath id="clip-path-5">
      <path id="Trazado_832842" data-name="Trazado 832842" d="M94.491,0C89.527,0,85.614,2.9,85.4,6.659L83.032,18.852a88.667,88.667,0,0,0-15.277,5.555l-9.647-7.818a6.221,6.221,0,0,0-4.632-1.867,10.586,10.586,0,0,0-6.612,2.614L29.472,31.925c-3.8,3.187-4.933,7.928-2.686,10.945l6.033,10.88a89.644,89.644,0,0,0-8.131,14.062l-12.421.207a6.222,6.222,0,0,0-.652-.035c-3.538,0-6.686,3.295-7.485,7.836L.188,98.179A12.289,12.289,0,0,0,0,100.252v.079c.012,3.96,2.052,7.218,5.165,7.954l11.617,4.457a89.687,89.687,0,0,0,2.8,16l-9.374,8.142a6.5,6.5,0,0,0-2.752,5.191,10.946,10.946,0,0,0,1.533,6.012L20.339,167.75c1.808,3.13,4.829,5.158,7.7,5.158a5.7,5.7,0,0,0,2.611-.613L42.4,168.249a89.781,89.781,0,0,0,12.451,10.43L52.9,190.966c-1.078,3.6,1.61,7.668,6.271,9.366L80.5,208.1a11.565,11.565,0,0,0,3.964.719c3.232,0,5.827-1.472,6.854-3.864l6.4-10.664c2.79.249,5.55.384,8.229.384.672,0,1.346-.008,2.021-.02,1.918-.052,3.9-.169,5.99-.364l6.4,10.664c1.03,2.392,3.624,3.864,6.86,3.864a11.783,11.783,0,0,0,3.964-.715l21.334-7.769a10.937,10.937,0,0,0,5.041-3.622,6.487,6.487,0,0,0,1.226-5.744l-1.949-12.279a90.151,90.151,0,0,0,12.451-10.438l11.738,4.046a5.729,5.729,0,0,0,2.615.613c2.873,0,5.9-2.028,7.706-5.153l11.348-19.666c2.482-4.293,1.925-9.136-1.22-11.2l-9.37-8.139a89.089,89.089,0,0,0,2.8-16.007l11.617-4.451c3.11-.736,5.148-3.987,5.165-7.941v-.1a12.208,12.208,0,0,0-.188-2.066L207.554,75.82c-.8-4.541-3.95-7.836-7.487-7.836a6.18,6.18,0,0,0-.649.035l-12.413-.207a89.326,89.326,0,0,0-8.141-14.069L184.9,42.872c2.248-3.019,1.112-7.755-2.688-10.947L164.819,17.336a10.589,10.589,0,0,0-6.613-2.614,6.234,6.234,0,0,0-4.631,1.864l-9.65,7.824a89.056,89.056,0,0,0-15.273-5.57l-2.36-12.181C126.069,2.9,122.154,0,117.195,0Z" fill="none"/>
    </clipPath>
    <linearGradient id="linear-gradient-3" x1="0.132" y1="0.864" x2="0.136" y2="0.864" xlink:href="#linear-gradient"/>
    <clipPath id="clip-path-6">
      <path id="Trazado_832843" data-name="Trazado 832843" d="M94.491,2.906c-3.407,0-6.2,1.834-6.2,4.08L85.535,21.215A85.892,85.892,0,0,0,67.361,27.83L56.1,18.7c-1.439-1.72-4.76-1.329-7.37.859L31.337,34.154c-2.608,2.19-3.56,5.385-2.121,7.107l7.045,12.7a86.171,86.171,0,0,0-9.683,16.723l-14.494.25c-2.206-.392-4.5,2.037-5.093,5.393L3.051,98.685c-.594,3.36.733,6.416,2.94,6.805l13.559,5.2a86.206,86.206,0,0,0,3.333,19.033L11.94,139.23c-1.944,1.123-2.137,4.458-.435,7.409L22.854,166.3c1.707,2.956,4.688,4.448,6.634,3.325l13.7-4.723a87.5,87.5,0,0,0,14.813,12.418l-2.272,14.328c-.768,2.111,1.224,4.793,4.425,5.951L81.5,205.369c3.2,1.164,6.45.389,7.212-1.719l7.475-12.442a86.988,86.988,0,0,0,11.716.534c2.564-.065,5.1-.26,7.6-.534l7.473,12.442c.766,2.108,4.018,2.877,7.216,1.719l21.333-7.772c3.2-1.158,5.2-3.84,4.426-5.949l-2.276-14.328A86.874,86.874,0,0,0,168.49,164.9l13.706,4.725c1.942,1.125,4.927-.374,6.629-3.322l11.353-19.664c1.7-2.954,1.508-6.28-.436-7.409l-10.935-9.5a86.277,86.277,0,0,0,3.33-19.043l13.552-5.2c2.214-.386,3.538-3.452,2.947-6.806l-3.943-22.361c-.595-3.356-2.887-5.783-5.093-5.393l-14.492-.25a86.173,86.173,0,0,0-9.685-16.728l7.046-12.69c1.442-1.72.485-4.921-2.123-7.111L162.953,19.562c-2.613-2.191-5.923-2.576-7.367-.859l-11.263,9.13a86,86,0,0,0-18.173-6.625L123.388,6.986c0-2.246-2.783-4.08-6.193-4.08Z" fill="none"/>
    </clipPath>
    <radialGradient id="radial-gradient-2" cx="0.647" cy="0.694" r="1.625" xlink:href="#radial-gradient"/>
    <clipPath id="clip-path-7">
      <rect id="Rectángulo_379526" data-name="Rectángulo 379526" width="211.683" height="208.816" fill="none"/>
    </clipPath>
    <clipPath id="clip-path-8">
      <path id="Trazado_832845" data-name="Trazado 832845" d="M42.161,107.195a63.814,63.814,0,1,1,63.815,63.815,63.812,63.812,0,0,1-63.815-63.815m-6.877,0a70.69,70.69,0,1,0,70.692-70.688,70.692,70.692,0,0,0-70.692,70.688" fill="none"/>
    </clipPath>
    <linearGradient id="linear-gradient-4" x1="-0.03" y1="1.008" x2="-0.025" y2="1.008" xlink:href="#linear-gradient-2"/>
    <clipPath id="clip-path-9">
      <path id="Trazado_832846" data-name="Trazado 832846" d="M114.944,0c-6.037,0-10.8,3.528-11.062,8.1L101,22.931a107.889,107.889,0,0,0-18.582,6.762L70.69,20.183a7.589,7.589,0,0,0-5.638-2.274,12.9,12.9,0,0,0-8.043,3.179L35.852,38.838c-4.617,3.877-6,9.642-3.269,13.311l7.342,13.237a109.193,109.193,0,0,0-9.893,17.1l-15.109.258a7.547,7.547,0,0,0-.794-.045c-4.3,0-8.132,4.008-9.1,9.532l-4.8,27.2c-1.048,5.943,1.6,11.242,6.054,12.3l14.134,5.42a108.965,108.965,0,0,0,3.4,19.465l-11.4,9.9a7.911,7.911,0,0,0-3.347,6.315,13.317,13.317,0,0,0,1.867,7.315l13.806,23.918c2.2,3.808,5.873,6.268,9.366,6.268a6.972,6.972,0,0,0,3.178-.738l14.289-4.924a109.63,109.63,0,0,0,15.143,12.686L64.346,232.3c-1.313,4.383,1.956,9.332,7.627,11.4l25.954,9.443a14.078,14.078,0,0,0,4.822.879c3.929,0,7.086-1.789,8.336-4.705l7.787-12.969c3.393.305,6.752.465,10.009.465.819,0,1.638-.012,2.459-.027,2.335-.057,4.74-.2,7.288-.438l7.784,12.969c1.256,2.916,4.41,4.705,8.346,4.705a14.293,14.293,0,0,0,4.825-.875l25.95-9.447a13.364,13.364,0,0,0,6.133-4.4,7.889,7.889,0,0,0,1.49-6.985l-2.37-14.943a109.786,109.786,0,0,0,15.147-12.693l14.279,4.924a7.005,7.005,0,0,0,3.178.738c3.5,0,7.172-2.46,9.375-6.264l13.807-23.922c3.018-5.225,2.342-11.114-1.488-13.627l-11.4-9.9a108.417,108.417,0,0,0,3.4-19.473l14.129-5.418c3.789-.9,6.271-4.861,6.286-9.679v-.1a14.848,14.848,0,0,0-.228-2.521l-4.8-27.2c-.97-5.524-4.8-9.532-9.1-9.532a7.52,7.52,0,0,0-.791.045l-15.1-.258a108.807,108.807,0,0,0-9.9-17.108l7.344-13.225c2.736-3.675,1.353-9.437-3.269-13.317L200.5,21.085a12.908,12.908,0,0,0-8.041-3.176,7.59,7.59,0,0,0-5.637,2.27L175.082,29.7A108.381,108.381,0,0,0,156.5,22.922L153.63,8.1C153.357,3.528,148.6,0,142.565,0Z" fill="none"/>
    </clipPath>
    <linearGradient id="linear-gradient-5" x1="0.134" y1="0.864" x2="0.137" y2="0.864" xlink:href="#linear-gradient"/>
    <clipPath id="clip-path-10">
      <path id="Trazado_832847" data-name="Trazado 832847" d="M114.944,3.537c-4.144,0-7.54,2.23-7.54,4.964L104.05,25.81a104.4,104.4,0,0,0-22.108,8.045l-13.7-11.1c-1.75-2.093-5.79-1.62-8.964,1.043L38.121,41.548c-3.171,2.668-4.331,6.552-2.582,8.645l8.572,15.445a105.068,105.068,0,0,0-11.78,20.347l-17.629.3c-2.686-.478-5.48,2.48-6.2,6.557l-4.794,27.2c-.722,4.09.892,7.807,3.577,8.283l16.494,6.326a104.837,104.837,0,0,0,4.056,23.157L14.526,169.372c-2.364,1.362-2.6,5.421-.529,9.008L27.8,202.3c2.075,3.593,5.7,5.412,8.069,4.043L52.544,200.6a106.022,106.022,0,0,0,18.019,15.1L67.8,233.131c-.935,2.57,1.49,5.827,5.383,7.242l25.957,9.448c3.892,1.42,7.845.478,8.771-2.087L117,232.6a105.8,105.8,0,0,0,14.25.648c3.118-.075,6.2-.308,9.249-.648l9.091,15.136c.932,2.565,4.888,3.5,8.779,2.087l25.952-9.448c3.891-1.415,6.319-4.672,5.382-7.236L186.937,215.7A105.643,105.643,0,0,0,204.961,200.6l16.676,5.751c2.361,1.366,5.989-.458,8.063-4.045l13.811-23.921c2.072-3.591,1.832-7.64-.528-9.008l-13.308-11.555a104.748,104.748,0,0,0,4.054-23.165l16.487-6.322c2.694-.472,4.3-4.2,3.581-8.281l-4.8-27.2c-.722-4.079-3.506-7.032-6.192-6.557l-17.63-.3A104.622,104.622,0,0,0,213.4,65.635L221.968,50.2c1.753-2.093.591-5.986-2.584-8.649L198.227,23.8c-3.179-2.665-7.206-3.133-8.962-1.043l-13.7,11.1A104.454,104.454,0,0,0,153.458,25.8L150.1,8.5c0-2.734-3.385-4.964-7.533-4.964Z" fill="none"/>
    </clipPath>
    <radialGradient id="radial-gradient-3" cx="0.647" cy="0.694" r="1.625" xlink:href="#radial-gradient"/>
    <clipPath id="clip-path-11">
      <rect id="Rectángulo_379530" data-name="Rectángulo 379530" width="257.507" height="254.02" fill="none"/>
    </clipPath>
    <clipPath id="clip-path-12">
      <path id="Trazado_832849" data-name="Trazado 832849" d="M51.288,130.4a77.628,77.628,0,1,1,77.626,77.626A77.628,77.628,0,0,1,51.288,130.4m-8.367,0a85.993,85.993,0,1,0,85.993-85.988A85.995,85.995,0,0,0,42.921,130.4" fill="none"/>
    </clipPath>
    <linearGradient id="linear-gradient-6" x1="-0.03" y1="1.008" x2="-0.026" y2="1.008" xlink:href="#linear-gradient-2"/>
    <clipPath id="clip-path-13">
      <rect id="Rectángulo_379538" data-name="Rectángulo 379538" width="469.071" height="326.148" fill="none"/>
    </clipPath>
  </defs>
  <g id="Grupo_1081182" data-name="Grupo 1081182" transform="translate(-390 -5003.134)">
    <path id="Trazado_832837" data-name="Trazado 832837" d="M0,0H820V540.442H0Z" transform="translate(390 5003.134)" fill="#e6ebfb" opacity="0.58"/>
    <g id="Grupo_1080896" data-name="Grupo 1080896" transform="translate(782.493 5053.374)">
      <g id="Grupo_1080889" data-name="Grupo 1080889">
        <g id="Grupo_1080888" data-name="Grupo 1080888" clip-path="url(#clip-path)">
          <rect id="Rectángulo_379520" data-name="Rectángulo 379520" width="225.666" height="224.474" transform="translate(-71.307 41.09) rotate(-30.137)" fill="url(#linear-gradient)"/>
        </g>
      </g>
      <g id="Grupo_1080891" data-name="Grupo 1080891">
        <g id="Grupo_1080890" data-name="Grupo 1080890" clip-path="url(#clip-path-2)">
          <rect id="Rectángulo_379521" data-name="Rectángulo 379521" width="161.414" height="158.958" transform="translate(1.918 2.27)" fill="url(#radial-gradient)"/>
        </g>
      </g>
      <g id="Grupo_1080893" data-name="Grupo 1080893">
        <g id="Grupo_1080892" data-name="Grupo 1080892" clip-path="url(#clip-path-3)">
          <path id="Trazado_832840" data-name="Trazado 832840" d="M132.546,83.682A49.817,49.817,0,1,1,82.73,33.867a49.812,49.812,0,0,1,49.816,49.815" fill="#f9bcab"/>
        </g>
      </g>
      <g id="Grupo_1080895" data-name="Grupo 1080895">
        <g id="Grupo_1080894" data-name="Grupo 1080894" clip-path="url(#clip-path-4)">
          <rect id="Rectángulo_379523" data-name="Rectángulo 379523" width="156.077" height="156.077" transform="translate(-27.63 84.699) rotate(-45.527)" fill="url(#linear-gradient-2)"/>
        </g>
      </g>
    </g>
    <g id="Grupo_1080905" data-name="Grupo 1080905" transform="matrix(0.985, 0.174, -0.174, 0.985, 592.231, 5124.492)">
      <g id="Grupo_1080898" data-name="Grupo 1080898">
        <g id="Grupo_1080897" data-name="Grupo 1080897" clip-path="url(#clip-path-5)">
          <rect id="Rectángulo_379524" data-name="Rectángulo 379524" width="287.909" height="286.869" transform="translate(-90.668 52.635) rotate(-30.136)" fill="url(#linear-gradient-3)"/>
        </g>
      </g>
      <g id="Grupo_1080900" data-name="Grupo 1080900">
        <g id="Grupo_1080899" data-name="Grupo 1080899" clip-path="url(#clip-path-6)">
          <rect id="Rectángulo_379525" data-name="Rectángulo 379525" width="206.77" height="203.627" transform="translate(2.457 2.906)" fill="url(#radial-gradient-2)"/>
        </g>
      </g>
      <g id="Grupo_1080902" data-name="Grupo 1080902">
        <g id="Grupo_1080901" data-name="Grupo 1080901" clip-path="url(#clip-path-7)">
          <path id="Trazado_832844" data-name="Trazado 832844" d="M169.79,107.195a63.814,63.814,0,1,1-63.813-63.812,63.811,63.811,0,0,1,63.813,63.812" fill="#cadeb4"/>
        </g>
      </g>
      <g id="Grupo_1080904" data-name="Grupo 1080904">
        <g id="Grupo_1080903" data-name="Grupo 1080903" clip-path="url(#clip-path-8)">
          <rect id="Rectángulo_379527" data-name="Rectángulo 379527" width="199.932" height="199.932" transform="matrix(0.701, -0.714, 0.714, 0.701, -35.393, 108.496)" fill="url(#linear-gradient-4)"/>
        </g>
      </g>
    </g>
    <g id="Grupo_1080914" data-name="Grupo 1080914" transform="translate(762.493 5257.693)">
      <g id="Grupo_1080907" data-name="Grupo 1080907">
        <g id="Grupo_1080906" data-name="Grupo 1080906" clip-path="url(#clip-path-9)">
          <rect id="Rectángulo_379528" data-name="Rectángulo 379528" width="350.942" height="349.38" transform="translate(-111.114 64.03) rotate(-30.137)" fill="url(#linear-gradient-5)"/>
        </g>
      </g>
      <g id="Grupo_1080909" data-name="Grupo 1080909">
        <g id="Grupo_1080908" data-name="Grupo 1080908" clip-path="url(#clip-path-10)">
          <rect id="Rectángulo_379529" data-name="Rectángulo 379529" width="251.526" height="247.704" transform="translate(2.989 3.537)" fill="url(#radial-gradient-3)"/>
        </g>
      </g>
      <g id="Grupo_1080911" data-name="Grupo 1080911">
        <g id="Grupo_1080910" data-name="Grupo 1080910" clip-path="url(#clip-path-11)">
          <path id="Trazado_832848" data-name="Trazado 832848" d="M206.542,130.4A77.627,77.627,0,1,1,128.914,52.77,77.625,77.625,0,0,1,206.542,130.4" fill="#c1cdf5"/>
        </g>
      </g>
      <g id="Grupo_1080913" data-name="Grupo 1080913">
        <g id="Grupo_1080912" data-name="Grupo 1080912" clip-path="url(#clip-path-12)">
          <rect id="Rectángulo_379531" data-name="Rectángulo 379531" width="243.21" height="243.21" transform="translate(-43.054 131.983) rotate(-45.527)" fill="url(#linear-gradient-6)"/>
        </g>
      </g>
    </g>
    <path id="Trazado_834119" data-name="Trazado 834119" d="M9.578-9.477H6.094V0H3.75V-9.477H.313v-1.9H9.578Zm5.43,3.141A6.134,6.134,0,0,0,14.2-6.4a1.654,1.654,0,0,0-1.68.867V0H10.258V-8.453h2.133l.063,1.008a2.092,2.092,0,0,1,1.883-1.164,2.366,2.366,0,0,1,.7.1ZM20.758,0a2.507,2.507,0,0,1-.227-.758A2.732,2.732,0,0,1,18.4.156,3,3,0,0,1,16.34-.562a2.312,2.312,0,0,1-.816-1.812,2.389,2.389,0,0,1,1-2.062A4.915,4.915,0,0,1,19.4-5.164h1.039v-.484a1.393,1.393,0,0,0-.3-.937,1.183,1.183,0,0,0-.949-.352,1.345,1.345,0,0,0-.895.273.929.929,0,0,0-.324.75H15.711a2.268,2.268,0,0,1,.453-1.359,3,3,0,0,1,1.281-.98A4.669,4.669,0,0,1,19.3-8.609a3.689,3.689,0,0,1,2.48.785A2.747,2.747,0,0,1,22.7-5.617v3.664a4.041,4.041,0,0,0,.336,1.82V0ZM18.891-1.57a1.945,1.945,0,0,0,.922-.223,1.462,1.462,0,0,0,.625-.6V-3.844h-.844q-1.7,0-1.8,1.172l-.008.133a.9.9,0,0,0,.3.7A1.153,1.153,0,0,0,18.891-1.57ZM27.477-3.2l1.563-5.258h2.422l-3.4,9.766-.187.445a2.577,2.577,0,0,1-2.5,1.656,3.552,3.552,0,0,1-1-.148V1.555l.344.008a1.857,1.857,0,0,0,.957-.2,1.283,1.283,0,0,0,.5-.648l.266-.7L23.477-8.453h2.43ZM36.141.156A4.15,4.15,0,0,1,33.113-.984a4.054,4.054,0,0,1-1.168-3.039v-.219a5.106,5.106,0,0,1,.492-2.277,3.612,3.612,0,0,1,1.395-1.547,3.914,3.914,0,0,1,2.059-.543,3.508,3.508,0,0,1,2.73,1.094,4.444,4.444,0,0,1,1,3.1v.922H34.234a2.1,2.1,0,0,0,.66,1.328,2,2,0,0,0,1.395.5,2.437,2.437,0,0,0,2.039-.945l1.109,1.242A3.389,3.389,0,0,1,38.063-.246,4.511,4.511,0,0,1,36.141.156Zm-.258-6.945a1.411,1.411,0,0,0-1.09.455,2.357,2.357,0,0,0-.535,1.3H37.4v-.181a1.681,1.681,0,0,0-.406-1.165A1.456,1.456,0,0,0,35.883-6.789Zm8.531,5.125a1.481,1.481,0,0,0,1.016-.344,1.2,1.2,0,0,0,.406-.914h2.117a2.9,2.9,0,0,1-.469,1.574A3.093,3.093,0,0,1,46.223-.238a3.949,3.949,0,0,1-1.77.395A3.67,3.67,0,0,1,41.594-1,4.56,4.56,0,0,1,40.547-4.18v-.148a4.508,4.508,0,0,1,1.039-3.117,3.627,3.627,0,0,1,2.852-1.164,3.555,3.555,0,0,1,2.543.9,3.2,3.2,0,0,1,.973,2.4H45.836a1.551,1.551,0,0,0-.406-1.072A1.354,1.354,0,0,0,44.4-6.789a1.36,1.36,0,0,0-1.191.575,3.333,3.333,0,0,0-.4,1.866v.235a3.375,3.375,0,0,0,.4,1.878A1.377,1.377,0,0,0,44.414-1.664Zm7.531-8.867v2.078h1.445V-6.8H51.945v4.219a1.007,1.007,0,0,0,.18.672.9.9,0,0,0,.688.2,3.6,3.6,0,0,0,.664-.055V-.047a4.648,4.648,0,0,1-1.367.2,2.156,2.156,0,0,1-2.422-2.4V-6.8H48.453V-8.453h1.234v-2.078ZM54.063-4.3a5.013,5.013,0,0,1,.484-2.242A3.546,3.546,0,0,1,55.941-8.07a4.069,4.069,0,0,1,2.113-.539,3.849,3.849,0,0,1,2.793,1.047,4.2,4.2,0,0,1,1.207,2.844l.016.578A4.418,4.418,0,0,1,60.984-1.02,3.775,3.775,0,0,1,58.07.156a3.793,3.793,0,0,1-2.918-1.172A4.5,4.5,0,0,1,54.063-4.2Zm2.258.16A3.16,3.16,0,0,0,56.773-2.3a1.5,1.5,0,0,0,1.3.638,1.5,1.5,0,0,0,1.281-.63,3.457,3.457,0,0,0,.461-2.015,3.128,3.128,0,0,0-.461-1.831,1.5,1.5,0,0,0-1.3-.649,1.474,1.474,0,0,0-1.281.646A3.516,3.516,0,0,0,56.32-4.144ZM68.211-6.336A6.134,6.134,0,0,0,67.4-6.4a1.654,1.654,0,0,0-1.68.867V0H63.461V-8.453h2.133l.063,1.008a2.092,2.092,0,0,1,1.883-1.164,2.366,2.366,0,0,1,.7.1ZM71.68,0H69.414V-8.453H71.68Zm-2.4-10.641a1.112,1.112,0,0,1,.34-.836,1.277,1.277,0,0,1,.926-.328,1.28,1.28,0,0,1,.922.328,1.105,1.105,0,0,1,.344.836,1.108,1.108,0,0,1-.348.844,1.283,1.283,0,0,1-.918.328,1.283,1.283,0,0,1-.918-.328A1.108,1.108,0,0,1,69.281-10.641ZM78.438,0a2.507,2.507,0,0,1-.227-.758,2.732,2.732,0,0,1-2.133.914A3,3,0,0,1,74.02-.562,2.312,2.312,0,0,1,73.2-2.375a2.389,2.389,0,0,1,1-2.062,4.915,4.915,0,0,1,2.879-.727h1.039v-.484a1.393,1.393,0,0,0-.3-.937,1.183,1.183,0,0,0-.949-.352,1.345,1.345,0,0,0-.895.273.929.929,0,0,0-.324.75H73.391a2.268,2.268,0,0,1,.453-1.359,3,3,0,0,1,1.281-.98,4.669,4.669,0,0,1,1.859-.355,3.689,3.689,0,0,1,2.48.785,2.747,2.747,0,0,1,.918,2.207v3.664a4.041,4.041,0,0,0,.336,1.82V0ZM76.57-1.57a1.945,1.945,0,0,0,.922-.223,1.462,1.462,0,0,0,.625-.6V-3.844h-.844q-1.7,0-1.8,1.172l-.008.133a.9.9,0,0,0,.3.7A1.153,1.153,0,0,0,76.57-1.57Z" transform="translate(823.985 5142.492)" fill="#12263f"/>
    <path id="Trazado_834120" data-name="Trazado 834120" d="M-23.727-2.984A1.2,1.2,0,0,0-24.2-4a6.148,6.148,0,0,0-1.687-.75,11.963,11.963,0,0,1-1.93-.777,3.153,3.153,0,0,1-1.937-2.82A2.747,2.747,0,0,1-29.23-10a3.389,3.389,0,0,1,1.492-1.129,5.616,5.616,0,0,1,2.184-.406,5.112,5.112,0,0,1,2.172.441A3.458,3.458,0,0,1-21.9-9.844a3.261,3.261,0,0,1,.527,1.828h-2.344a1.534,1.534,0,0,0-.492-1.215,2.023,2.023,0,0,0-1.383-.434A2.162,2.162,0,0,0-26.93-9.3a1.146,1.146,0,0,0-.477.957,1.1,1.1,0,0,0,.559.93,6.311,6.311,0,0,0,1.645.7,7.106,7.106,0,0,1,2.914,1.492A2.972,2.972,0,0,1-21.375-3,2.737,2.737,0,0,1-22.492-.684,4.891,4.891,0,0,1-25.5.156a5.808,5.808,0,0,1-2.391-.48,3.783,3.783,0,0,1-1.645-1.316A3.371,3.371,0,0,1-30.1-3.578h2.352q0,1.883,2.25,1.883a2.189,2.189,0,0,0,1.3-.34A1.106,1.106,0,0,0-23.727-2.984Zm8.852,2.125A2.831,2.831,0,0,1-17.187.156a2.67,2.67,0,0,1-2.074-.781,3.335,3.335,0,0,1-.73-2.289V-8.453h2.258v5.467q0,1.322,1.2,1.322a1.63,1.63,0,0,0,1.578-.8V-8.453h2.266V0h-2.125Zm7.406-.8a1.481,1.481,0,0,0,1.016-.344,1.2,1.2,0,0,0,.406-.914H-3.93A2.9,2.9,0,0,1-4.4-1.348,3.093,3.093,0,0,1-5.66-.238,3.949,3.949,0,0,1-7.43.156,3.67,3.67,0,0,1-10.289-1,4.56,4.56,0,0,1-11.336-4.18v-.148A4.508,4.508,0,0,1-10.3-7.445,3.627,3.627,0,0,1-7.445-8.609a3.555,3.555,0,0,1,2.543.9A3.2,3.2,0,0,1-3.93-5.3H-6.047a1.551,1.551,0,0,0-.406-1.072,1.354,1.354,0,0,0-1.031-.412,1.36,1.36,0,0,0-1.191.575,3.333,3.333,0,0,0-.4,1.866v.235a3.375,3.375,0,0,0,.4,1.878A1.377,1.377,0,0,0-7.469-1.664ZM1.25.156A4.15,4.15,0,0,1-1.777-.984,4.054,4.054,0,0,1-2.945-4.023v-.219A5.106,5.106,0,0,1-2.453-6.52,3.612,3.612,0,0,1-1.059-8.066,3.914,3.914,0,0,1,1-8.609,3.508,3.508,0,0,1,3.73-7.516a4.444,4.444,0,0,1,1,3.1v.922H-.656A2.1,2.1,0,0,0,0-2.164a2,2,0,0,0,1.395.5,2.437,2.437,0,0,0,2.039-.945L4.547-1.367A3.389,3.389,0,0,1,3.172-.246,4.511,4.511,0,0,1,1.25.156ZM.992-6.789A1.411,1.411,0,0,0-.1-6.334a2.357,2.357,0,0,0-.535,1.3H2.508v-.181A1.681,1.681,0,0,0,2.1-6.377,1.456,1.456,0,0,0,.992-6.789Zm9.594,4.453a.727.727,0,0,0-.41-.652,4.659,4.659,0,0,0-1.316-.426Q5.844-4.047,5.844-5.977a2.323,2.323,0,0,1,.934-1.879,3.766,3.766,0,0,1,2.441-.754,4.053,4.053,0,0,1,2.574.758,2.388,2.388,0,0,1,.965,1.969H10.5a1.092,1.092,0,0,0-.312-.8A1.322,1.322,0,0,0,9.211-7a1.351,1.351,0,0,0-.883.258.814.814,0,0,0-.312.656.7.7,0,0,0,.355.605,3.657,3.657,0,0,0,1.2.4,9.8,9.8,0,0,1,1.422.379A2.336,2.336,0,0,1,12.781-2.43a2.2,2.2,0,0,1-.992,1.871A4.28,4.28,0,0,1,9.227.156,4.47,4.47,0,0,1,7.34-.223,3.166,3.166,0,0,1,6.047-1.262a2.414,2.414,0,0,1-.469-1.426H7.719a1.179,1.179,0,0,0,.445.922,1.766,1.766,0,0,0,1.109.32,1.635,1.635,0,0,0,.98-.246A.766.766,0,0,0,10.586-2.336Zm3.3-1.969a5.013,5.013,0,0,1,.484-2.242A3.546,3.546,0,0,1,15.762-8.07a4.069,4.069,0,0,1,2.113-.539,3.849,3.849,0,0,1,2.793,1.047,4.2,4.2,0,0,1,1.207,2.844l.016.578A4.418,4.418,0,0,1,20.8-1.02,3.775,3.775,0,0,1,17.891.156a3.793,3.793,0,0,1-2.918-1.172A4.5,4.5,0,0,1,13.883-4.2Zm2.258.16A3.16,3.16,0,0,0,16.594-2.3a1.5,1.5,0,0,0,1.3.638,1.5,1.5,0,0,0,1.281-.63,3.457,3.457,0,0,0,.461-2.015,3.128,3.128,0,0,0-.461-1.831,1.5,1.5,0,0,0-1.3-.649,1.474,1.474,0,0,0-1.281.646A3.516,3.516,0,0,0,16.141-4.144ZM27.859-2.336a.727.727,0,0,0-.41-.652,4.659,4.659,0,0,0-1.316-.426q-3.016-.633-3.016-2.562a2.323,2.323,0,0,1,.934-1.879,3.766,3.766,0,0,1,2.441-.754,4.053,4.053,0,0,1,2.574.758,2.388,2.388,0,0,1,.965,1.969H27.773a1.092,1.092,0,0,0-.312-.8A1.322,1.322,0,0,0,26.484-7a1.351,1.351,0,0,0-.883.258.814.814,0,0,0-.312.656.7.7,0,0,0,.355.605,3.657,3.657,0,0,0,1.2.4,9.8,9.8,0,0,1,1.422.379A2.336,2.336,0,0,1,30.055-2.43a2.2,2.2,0,0,1-.992,1.871A4.28,4.28,0,0,1,26.5.156a4.47,4.47,0,0,1-1.887-.379A3.166,3.166,0,0,1,23.32-1.262a2.414,2.414,0,0,1-.469-1.426h2.141a1.179,1.179,0,0,0,.445.922,1.766,1.766,0,0,0,1.109.32,1.635,1.635,0,0,0,.98-.246A.766.766,0,0,0,27.859-2.336ZM-19.684,21.242l1.57-5.7h2.359L-18.605,24h-2.156l-2.852-8.453h2.359Zm7.3,2.758h-2.266V15.547h2.266Zm-2.4-10.641a1.112,1.112,0,0,1,.34-.836,1.277,1.277,0,0,1,.926-.328,1.28,1.28,0,0,1,.922.328,1.105,1.105,0,0,1,.344.836,1.108,1.108,0,0,1-.348.844,1.283,1.283,0,0,1-.918.328,1.283,1.283,0,0,1-.918-.328A1.108,1.108,0,0,1-14.777,13.359Zm6.961.109v2.078h1.445V17.2H-7.816v4.219a1.007,1.007,0,0,0,.18.672.9.9,0,0,0,.688.2,3.6,3.6,0,0,0,.664-.055v1.711a4.648,4.648,0,0,1-1.367.2,2.156,2.156,0,0,1-2.422-2.4V17.2h-1.234V15.547h1.234V13.469ZM-.215,24a2.507,2.507,0,0,1-.227-.758,2.732,2.732,0,0,1-2.133.914,3,3,0,0,1-2.059-.719,2.312,2.312,0,0,1-.816-1.812,2.389,2.389,0,0,1,1-2.062,4.915,4.915,0,0,1,2.879-.727H-.535v-.484a1.393,1.393,0,0,0-.3-.937,1.183,1.183,0,0,0-.949-.352,1.345,1.345,0,0,0-.895.273.929.929,0,0,0-.324.75H-5.262a2.268,2.268,0,0,1,.453-1.359,3,3,0,0,1,1.281-.98,4.669,4.669,0,0,1,1.859-.355,3.689,3.689,0,0,1,2.48.785,2.747,2.747,0,0,1,.918,2.207v3.664a4.041,4.041,0,0,0,.336,1.82V24Zm-1.867-1.57a1.945,1.945,0,0,0,.922-.223,1.462,1.462,0,0,0,.625-.6V20.156h-.844q-1.7,0-1.8,1.172l-.008.133a.9.9,0,0,0,.3.7A1.153,1.153,0,0,0-2.082,22.43ZM5.848,24H3.582V12H5.848Zm5.75.156A4.15,4.15,0,0,1,8.57,23.016,4.054,4.054,0,0,1,7.4,19.977v-.219a5.106,5.106,0,0,1,.492-2.277,3.612,3.612,0,0,1,1.395-1.547,3.914,3.914,0,0,1,2.059-.543,3.508,3.508,0,0,1,2.73,1.094,4.444,4.444,0,0,1,1,3.1v.922H9.691a2.1,2.1,0,0,0,.66,1.328,2,2,0,0,0,1.395.5,2.437,2.437,0,0,0,2.039-.945l1.109,1.242a3.389,3.389,0,0,1-1.375,1.121A4.511,4.511,0,0,1,11.6,24.156Zm-.258-6.945a1.411,1.411,0,0,0-1.09.455,2.357,2.357,0,0,0-.535,1.3h3.141v-.181a1.681,1.681,0,0,0-.406-1.165A1.456,1.456,0,0,0,11.34,17.211Zm9.594,4.453a.727.727,0,0,0-.41-.652,4.659,4.659,0,0,0-1.316-.426q-3.016-.633-3.016-2.562a2.323,2.323,0,0,1,.934-1.879,3.766,3.766,0,0,1,2.441-.754,4.053,4.053,0,0,1,2.574.758,2.388,2.388,0,0,1,.965,1.969H20.848a1.092,1.092,0,0,0-.312-.8A1.322,1.322,0,0,0,19.559,17a1.351,1.351,0,0,0-.883.258.814.814,0,0,0-.312.656.7.7,0,0,0,.355.605,3.657,3.657,0,0,0,1.2.4,9.8,9.8,0,0,1,1.422.379,2.336,2.336,0,0,1,1.789,2.273,2.2,2.2,0,0,1-.992,1.871,4.28,4.28,0,0,1-2.562.715,4.47,4.47,0,0,1-1.887-.379,3.166,3.166,0,0,1-1.293-1.039,2.414,2.414,0,0,1-.469-1.426h2.141a1.179,1.179,0,0,0,.445.922,1.766,1.766,0,0,0,1.109.32,1.635,1.635,0,0,0,.98-.246A.766.766,0,0,0,20.934,21.664Z" transform="translate(677.334 5242.193)" fill="#12263f"/>
    <path id="Trazado_834121" data-name="Trazado 834121" d="M-28.219-9.477H-31.7V0h-2.344V-9.477h-3.437v-1.9h9.266Zm5.43,3.141A6.134,6.134,0,0,0-23.6-6.4a1.654,1.654,0,0,0-1.68.867V0h-2.258V-8.453h2.133l.063,1.008a2.092,2.092,0,0,1,1.883-1.164,2.366,2.366,0,0,1,.7.1ZM-17.039,0a2.507,2.507,0,0,1-.227-.758A2.732,2.732,0,0,1-19.4.156a3,3,0,0,1-2.059-.719,2.312,2.312,0,0,1-.816-1.812,2.389,2.389,0,0,1,1-2.062A4.915,4.915,0,0,1-18.4-5.164h1.039v-.484a1.393,1.393,0,0,0-.3-.937,1.183,1.183,0,0,0-.949-.352,1.345,1.345,0,0,0-.895.273.929.929,0,0,0-.324.75h-2.258a2.268,2.268,0,0,1,.453-1.359,3,3,0,0,1,1.281-.98,4.669,4.669,0,0,1,1.859-.355,3.689,3.689,0,0,1,2.48.785,2.747,2.747,0,0,1,.918,2.207v3.664a4.041,4.041,0,0,0,.336,1.82V0Zm-1.867-1.57a1.945,1.945,0,0,0,.922-.223,1.462,1.462,0,0,0,.625-.6V-3.844H-18.2q-1.7,0-1.8,1.172l-.008.133a.9.9,0,0,0,.3.7A1.153,1.153,0,0,0-18.906-1.57Zm7.625-6.883.07.977a2.951,2.951,0,0,1,2.43-1.133,2.453,2.453,0,0,1,2,.789,3.682,3.682,0,0,1,.672,2.359V0H-8.367V-5.406A1.465,1.465,0,0,0-8.68-6.449a1.4,1.4,0,0,0-1.039-.324,1.553,1.553,0,0,0-1.43.813V0h-2.258V-8.453ZM.18-2.336a.727.727,0,0,0-.41-.652,4.659,4.659,0,0,0-1.316-.426q-3.016-.633-3.016-2.562a2.323,2.323,0,0,1,.934-1.879,3.766,3.766,0,0,1,2.441-.754,4.053,4.053,0,0,1,2.574.758,2.388,2.388,0,0,1,.965,1.969H.094a1.092,1.092,0,0,0-.312-.8A1.322,1.322,0,0,0-1.2-7a1.351,1.351,0,0,0-.883.258.814.814,0,0,0-.312.656.7.7,0,0,0,.355.605,3.657,3.657,0,0,0,1.2.4A9.8,9.8,0,0,1,.586-4.7,2.336,2.336,0,0,1,2.375-2.43,2.2,2.2,0,0,1,1.383-.559,4.28,4.28,0,0,1-1.18.156,4.47,4.47,0,0,1-3.066-.223,3.166,3.166,0,0,1-4.359-1.262a2.414,2.414,0,0,1-.469-1.426h2.141a1.179,1.179,0,0,0,.445.922,1.766,1.766,0,0,0,1.109.32,1.635,1.635,0,0,0,.98-.246A.766.766,0,0,0,.18-2.336ZM6.211,0H3.945V-8.453H6.211Zm-2.4-10.641a1.112,1.112,0,0,1,.34-.836,1.277,1.277,0,0,1,.926-.328A1.28,1.28,0,0,1,6-11.477a1.105,1.105,0,0,1,.344.836A1.108,1.108,0,0,1,6-9.8a1.283,1.283,0,0,1-.918.328A1.283,1.283,0,0,1,4.16-9.8,1.108,1.108,0,0,1,3.813-10.641Zm7.773,8.977A1.481,1.481,0,0,0,12.6-2.008a1.2,1.2,0,0,0,.406-.914h2.117a2.9,2.9,0,0,1-.469,1.574A3.093,3.093,0,0,1,13.395-.238a3.949,3.949,0,0,1-1.77.395A3.67,3.67,0,0,1,8.766-1,4.56,4.56,0,0,1,7.719-4.18v-.148A4.508,4.508,0,0,1,8.758-7.445a3.627,3.627,0,0,1,2.852-1.164,3.555,3.555,0,0,1,2.543.9,3.2,3.2,0,0,1,.973,2.4H13.008A1.551,1.551,0,0,0,12.6-6.377a1.354,1.354,0,0,0-1.031-.412,1.36,1.36,0,0,0-1.191.575,3.333,3.333,0,0,0-.4,1.866v.235a3.375,3.375,0,0,0,.4,1.878A1.377,1.377,0,0,0,11.586-1.664ZM18.8,0H16.531V-8.453H18.8ZM16.4-10.641a1.112,1.112,0,0,1,.34-.836,1.277,1.277,0,0,1,.926-.328,1.28,1.28,0,0,1,.922.328,1.105,1.105,0,0,1,.344.836,1.108,1.108,0,0,1-.348.844,1.283,1.283,0,0,1-.918.328,1.283,1.283,0,0,1-.918-.328A1.108,1.108,0,0,1,16.4-10.641ZM20.3-4.3a5.013,5.013,0,0,1,.484-2.242A3.546,3.546,0,0,1,22.184-8.07,4.069,4.069,0,0,1,24.3-8.609,3.849,3.849,0,0,1,27.09-7.562,4.2,4.2,0,0,1,28.3-4.719l.016.578A4.418,4.418,0,0,1,27.227-1.02,3.775,3.775,0,0,1,24.313.156a3.793,3.793,0,0,1-2.918-1.172A4.5,4.5,0,0,1,20.3-4.2Zm2.258.16A3.16,3.16,0,0,0,23.016-2.3a1.5,1.5,0,0,0,1.3.638,1.5,1.5,0,0,0,1.281-.63,3.457,3.457,0,0,0,.461-2.015,3.128,3.128,0,0,0-.461-1.831,1.5,1.5,0,0,0-1.3-.649,1.474,1.474,0,0,0-1.281.646A3.516,3.516,0,0,0,22.563-4.144ZM24.742-12H27.2L25.039-9.578H23.2Zm7.039,3.547.07.977a2.951,2.951,0,0,1,2.43-1.133,2.453,2.453,0,0,1,2,.789,3.682,3.682,0,0,1,.672,2.359V0H34.7V-5.406a1.465,1.465,0,0,0-.312-1.043,1.4,1.4,0,0,0-1.039-.324,1.553,1.553,0,0,0-1.43.813V0H29.656V-8.453Z" transform="translate(891.247 5390.203)" fill="#12263f"/>
    <g id="Grupo_1080938" data-name="Grupo 1080938" transform="translate(578 5022.543)">
      <g id="Grupo_1080937" data-name="Grupo 1080937" clip-path="url(#clip-path-13)">
        <path id="Trazado_833009" data-name="Trazado 833009" d="M172.906,96.789c.225-16.964,6.2-33.634,16.027-47.389a86.588,86.588,0,0,1,45.516-32.394,104.764,104.764,0,0,1,37.957-3.717c1.926.145,1.916-2.856,0-3-22.126-1.666-44.736,2.855-63.3,15.379a90.28,90.28,0,0,0-33.818,43.024,83.461,83.461,0,0,0-5.385,28.1,1.5,1.5,0,0,0,3,0" fill="#f7a692"/>
        <path id="Trazado_833010" data-name="Trazado 833010" d="M261.31,2.542q6.557,5.118,13.114,10.235V10.656q-6.441,5.263-12.882,10.526c-1.5,1.222.636,3.333,2.121,2.121l12.883-10.526a1.5,1.5,0,0,0,0-2.121L263.43.421a1.55,1.55,0,0,0-2.12,0,1.506,1.506,0,0,0,0,2.121" fill="#f7a692"/>
        <path id="Trazado_833011" data-name="Trazado 833011" d="M366.53,227.782a84.264,84.264,0,0,1,48.334,12.882,86.569,86.569,0,0,1,35.321,43.274,104.728,104.728,0,0,1,6.19,37.644,1.5,1.5,0,0,0,3,0c.234-22.148-5.67-44.342-19.289-62.061a90.159,90.159,0,0,0-45.167-31.152,83.519,83.519,0,0,0-28.389-3.587c-1.921.1-1.933,3.1,0,3" fill="#c1cdf5"/>
        <path id="Trazado_833012" data-name="Trazado 833012" d="M466.219,310.144l-9.367,13.749,2.356-.3-11.336-12.177c-1.318-1.416-3.436.709-2.121,2.122q5.667,6.088,11.336,12.176a1.518,1.518,0,0,0,2.355-.3q4.685-6.875,9.367-13.749c1.09-1.6-1.508-3.1-2.59-1.514" fill="#c1cdf5"/>
        <path id="Trazado_833013" data-name="Trazado 833013" d="M134.361,107.375A87.426,87.426,0,0,0,85.776,88.918a89.583,89.583,0,0,0-55.8,15.1A107.965,107.965,0,0,0,2.215,131.775c-1.111,1.583,1.488,3.083,2.592,1.514,12.363-17.6,29.61-31.741,50.4-37.969a87.146,87.146,0,0,1,52.942,1.112A80.164,80.164,0,0,1,132.24,109.5c1.493,1.194,3.629-.915,2.121-2.121" fill="#b9d88f"/>
        <path id="Trazado_833014" data-name="Trazado 833014" d="M.416,118.235l-.33,13.208Q.044,133.155,0,134.866a1.52,1.52,0,0,0,1.9,1.447l12.954-2.6,3.357-.674c1.891-.38,1.09-3.272-.8-2.893l-12.954,2.6L1.1,133.42,3,134.866l.33-13.208q.042-1.711.085-3.423c.048-1.931-2.952-1.93-3,0" fill="#b9d88f"/>
      </g>
    </g>
  </g>
</svg>
