<svg xmlns="http://www.w3.org/2000/svg" xmlns:xlink="http://www.w3.org/1999/xlink" width="85" height="85" viewBox="0 0 85 85">
  <defs>
    <clipPath id="clip-path">
      <rect id="Rectángulo_379602" data-name="Rectángulo 379602" width="55" height="54.028" fill="none"/>
    </clipPath>
  </defs>
  <g id="Grupo_1081198" data-name="Grupo 1081198" transform="translate(-180 -7650.063)">
    <g id="Grupo_1081072" data-name="Grupo 1081072" transform="translate(-105 835.063)">
      <circle id="Elipse_4875" data-name="Elipse 4875" cx="42.5" cy="42.5" r="42.5" transform="translate(285 6815)" fill="#c1cdf5"/>
    </g>
    <g id="Grupo_1081095" data-name="Grupo 1081095" transform="translate(195 7665.549)">
      <g id="Grupo_1081094" data-name="Grupo 1081094" transform="translate(0 0)" clip-path="url(#clip-path)">
        <path id="Trazado_833642" data-name="Trazado 833642" d="M33.3,30.348a44.926,44.926,0,0,1,7.754,1.944A4.819,4.819,0,0,1,44.4,36.24a5.7,5.7,0,0,1-.208,2.115c-.632,3.145-1.262,6.29-1.949,9.423-.193.876-.045,1.347.905,1.511a3.892,3.892,0,0,1,3.08,2.221c.248.535.726.5,1.192.5q2.836,0,5.672,0a5.614,5.614,0,0,1,.96.042.947.947,0,0,1,.908,1.005.931.931,0,0,1-.878.921,5.521,5.521,0,0,1-.959.047q-25.58,0-51.161,0c-.25,0-.5.005-.749-.013-.583-.04-1.073-.243-1.137-.9a.928.928,0,0,1,.945-1.069c.649-.063.663-.326.447-.84Q.821,49.675.258,48.115a2.994,2.994,0,0,1,1.179-3.858c6.21-3.74,11.505-8.653,17.085-13.2,1.743-1.421,3.8-2.4,5.441-3.967a.892.892,0,0,1,1.413.076.922.922,0,0,1-.121,1.344,14.443,14.443,0,0,1-1.121.991,4.152,4.152,0,0,0,.951,6.846,9.377,9.377,0,0,0,3.838.852c2.71.032,5.418.009,8.125.235,2,.166,2.275.426,2.049,2.434a5.285,5.285,0,0,0-.137.949c.045.591-.469,1.434.654,1.6,1.367.2,1.736-.018,1.984-1.225q.354-1.729.707-3.457c.386-1.9-.219-2.974-2.073-3.625a70.606,70.606,0,0,0-12.185-2.74,4.181,4.181,0,0,1-.927-.215.834.834,0,0,1-.511-.863.892.892,0,0,1,.673-.866,1.087,1.087,0,0,1,.628-.046c2.017.67,3.615-.177,5.248-1.254,1.978-1.305,3.941-2.586,5.232-4.645a4.089,4.089,0,0,0,.836-2.053c.005-.207.062-.464-.154-.583-.24-.13-.372.125-.54.24a2.592,2.592,0,0,1-.531.351.9.9,0,0,1-1.066-.266.811.811,0,0,1-.062-1.081,8.475,8.475,0,0,1,.79-.868Q44.773,12.1,51.887,4.985a10.223,10.223,0,0,0,.866-.946,1.159,1.159,0,0,0,0-1.569A1.223,1.223,0,0,0,51.2,2.161a2.549,2.549,0,0,0-.369.216.9.9,0,0,1-1.39-.24A1,1,0,0,1,49.8.733,3.008,3.008,0,0,1,53.018.272a3.043,3.043,0,0,1,1.959,2.595,3.557,3.557,0,0,1-1.255,3.04c-4.074,4.048-8.119,8.127-12.2,12.168a1.537,1.537,0,0,0-.514,1.938,4.355,4.355,0,0,1-.634,3.974,13.23,13.23,0,0,1-3.944,4.307c-.934.643-1.9,1.247-3.125,2.054M21.619,52.009q6.1,0,12.193,0a3.9,3.9,0,0,0,1.675-.129c.477-.246-.025-.923.155-1.39a2.749,2.749,0,0,0,.076-.311,59.312,59.312,0,0,0,1.121-8.141c.3-2.7.228-2.656-2.524-2.79a57.978,57.978,0,0,1-7.777-.419,3.323,3.323,0,0,0-2.449.306,13.515,13.515,0,0,1-1.261.583c-4.637,2.111-9.412,3.952-13.726,6.7-2.9,1.851-2.43.834-1.941,4.334.141,1.015.556,1.283,1.516,1.274,4.314-.04,8.628-.017,12.942-.017M10.883,43.061c.18-.077.313-.127.439-.191,3.584-1.822,7.267-3.431,10.951-5.039.626-.274.578-.542.165-1.007A6.607,6.607,0,0,1,20.8,33.072c-.034-.311.025-.715-.307-.853s-.567.221-.8.417q-4.47,3.721-8.926,7.457a1.867,1.867,0,0,0-.189,2.745,1.785,1.785,0,0,0,.309.222m-8.9,4c.57,1.325.853,2.968,1.866,4.3a1.808,1.808,0,0,0,.692.482c.5.228.848.2.72-.514-.183-1.014-.293-2.044-.524-3.046a1.657,1.657,0,0,1,.923-2.026c.894-.512,1.739-1.11,2.62-1.647,1.078-.657.309-1.422.036-2.031-.335-.746-.779-.033-1.084.161-1.5.954-2.967,1.964-4.45,2.945a1.491,1.491,0,0,0-.8,1.375m41.961,4.92c-.2-.579-.61-.614-.97-.712q-.927-.252-1.864-.465c-.968-.219-1.389-.731-1.128-1.772.293-1.171.518-2.362.715-3.554.061-.365.477-1.066-.369-1.015-.646.04-1.659-.59-1.85.731a42.494,42.494,0,0,1-.8,5.266c-.2.737.08,1.457.928,1.5,1.756.082,3.52.024,5.338.024" transform="translate(0 0)"/>
        <path id="Trazado_833643" data-name="Trazado 833643" d="M46.361,9.163c2.345-2.525,5.322-4.31,5.408-8.081.013-.606.359-1.069,1-1,.739.073.982.644.934,1.325A8.067,8.067,0,0,1,51.57,6.651c-3.69,3.777-7.446,7.489-11.177,11.226-.487.487-1.04.707-1.583.143-.515-.535-.239-1.047.2-1.5a5,5,0,0,0,.373-.382c.162-.206.568-.374.334-.683a1.714,1.714,0,0,0-1.125-.556c-.315-.049-.341.307-.41.535a32.568,32.568,0,0,1-2.645,6.3,8.114,8.114,0,0,1-.678,1.087.92.92,0,0,1-1.326.242.891.891,0,0,1-.281-1.233c.277-.578.6-1.133.9-1.7A30.469,30.469,0,0,0,36.5,14.172a1.5,1.5,0,0,0-.265-1.488,6.4,6.4,0,0,1-1.335-3c-.094-.559-.355-.728-.879-.86A3.034,3.034,0,0,1,31.739,4.88a12.6,12.6,0,0,1,.642-1.814A3.093,3.093,0,0,1,37.428,1.96a1.237,1.237,0,0,0,1.327.31A5.712,5.712,0,0,1,46.3,7.881c.008.344.032.688.061,1.282m-8.978,1.732c.2-.28.291-.382.356-.5.309-.554.72-.941,1.377-.6.631.329.622.888.372,1.476-.083.2-.138.407-.237.594-.351.662-.1,1.085.527,1.353.645.276,1.411.864,1.99.417.959-.742,2.142-1.474,2.437-2.719a15.752,15.752,0,0,0,.05-3.408,7.049,7.049,0,0,1-3.888,1.411c-.6-.011-1.1-.149-1.176-.81-.077-.714.394-1,1.042-1.082a5.469,5.469,0,0,0,1.146-.242c.794-.288,1.939-.585,1.843-1.479S42,4.052,41.1,4c-1.794-.108-2.62-.015-3.094,1.924A3.285,3.285,0,0,1,37.4,7.386c-1.081,1.131-.545,2.195-.018,3.509M35.4,3.1A1.282,1.282,0,0,0,34.05,4.186c-.2.777-.915,1.537-.154,2.376a1.068,1.068,0,0,0,.876.309A1.2,1.2,0,0,0,35.96,5.843c.19-.783.914-1.531.205-2.388A.947.947,0,0,0,35.4,3.1" transform="translate(-5.037 -0.011)"/>
      </g>
    </g>
  </g>
</svg>
