<svg xmlns="http://www.w3.org/2000/svg" xmlns:xlink="http://www.w3.org/1999/xlink" width="124" height="124" viewBox="0 0 124 124">
  <defs>
    <clipPath id="clip-path">
      <rect id="Rect치ngulo_379317" data-name="Rect치ngulo 379317" width="97.056" height="72.006" fill="none"/>
    </clipPath>
  </defs>
  <g id="Grupo_1081172" data-name="Grupo 1081172" transform="translate(-266.001 -1875.14)">
    <g id="Grupo_1016927" data-name="Grupo 1016927" transform="translate(-471 -182.86)">
      <g id="Grupo_159183" data-name="Grupo 159183" transform="translate(737.001 2058)">
        <path id="Uni칩n_12" data-name="Uni칩n 12" d="M62,0A62,62,0,1,1,0,62,62,62,0,0,1,62,0Z" fill="#755952"/>
      </g>
    </g>
    <g id="Grupo_1080484" data-name="Grupo 1080484" transform="translate(278.973 1901.137)">
      <g id="Grupo_1080483" data-name="Grupo 1080483" clip-path="url(#clip-path)">
        <path id="Trazado_831893" data-name="Trazado 831893" d="M30.184,14.234c-2.65-4.427-2.432-8.517.531-11.6a8.589,8.589,0,0,1,13.573,10.33c-.623,1.05-.647,1.458.515,1.98a7.72,7.72,0,0,1,3.032,2.517c.5.677.825.776,1.373.032a11.267,11.267,0,0,1,4.305-3.236c-1.589-2.4-2.438-4.93-1.632-7.809A8.664,8.664,0,0,1,55.1,1.692a8.5,8.5,0,0,1,10.664.395c3.477,2.98,3.881,7.211,1.14,12.175a12.326,12.326,0,0,1,4.442,3.444,1.507,1.507,0,0,0,.935.542c7.781,1.834,10.181,7.276,6.272,14.25A11.777,11.777,0,0,1,83,35.933c.353.482.834.463,1.329.557,6.862,1.318,9.687,7.291,6.289,13.383-.436.783-.272.957.429,1.343a11.014,11.014,0,0,1,6.007,10.57c-.044,2.525.005,5.052-.012,7.577C97.028,71.381,96.45,72,94.491,72Q48.548,72.011,2.6,72C.631,72,.035,71.383.022,69.4c-.019-2.778-.04-5.557,0-8.335a10.716,10.716,0,0,1,5.637-9.637c.851-.5,1.338-.634.609-1.844a8.5,8.5,0,0,1,5.871-12.953,3.77,3.77,0,0,0,2.521-1.376,11.034,11.034,0,0,1,3.9-2.78A9.632,9.632,0,0,1,16.643,26.7a8.461,8.461,0,0,1,6.426-8.127A6.075,6.075,0,0,0,26.86,16.5a10.467,10.467,0,0,1,3.324-2.266m6.7,53.977c2.842,0,5.684-.022,8.526.014.821.011,1.278-.1,1.244-1.1-.075-2.207.062-4.424-.06-6.628a7.118,7.118,0,0,0-6.958-6.683c-1.767-.053-3.537-.041-5.3-.007a7.041,7.041,0,0,0-7.151,6.853c-.117,2.078.021,4.169-.07,6.248-.05,1.147.44,1.344,1.438,1.325,2.778-.053,5.558-.019,8.336-.019m23.221,0c2.842,0,5.685-.011,8.527.008.754,0,1.347.009,1.309-1.049-.082-2.333.064-4.681-.126-7a6.942,6.942,0,0,0-6.828-6.353c-1.83-.056-3.664-.052-5.495,0A7.147,7.147,0,0,0,50.446,60.8c-.066,2.019.042,4.044-.039,6.062-.043,1.07.286,1.4,1.363,1.371,2.777-.072,5.558-.024,8.337-.024m-46.724,0q4.26,0,8.52,0c.678,0,1.433.162,1.4-.961-.066-2.459.075-4.933-.15-7.374a6.89,6.89,0,0,0-6.693-6.058c-1.891-.067-3.787-.058-5.679,0a7.243,7.243,0,0,0-6.845,5.759c-.233,1.075-.115,1.669,1.221,1.578a36.861,36.861,0,0,1,4.352.01c1.221.061,2.073.672,2,2.016-.071,1.232-.886,1.735-2.055,1.741C8,64.922,6.543,65.005,5.1,64.9c-1.408-.1-1.323.74-1.294,1.665.027.859-.232,1.742,1.248,1.681,2.772-.115,5.552-.033,8.329-.033m70.1,0c2.773,0,5.549-.085,8.316.036,1.383.061,1.513-.537,1.48-1.645-.03-1.034.014-1.85-1.454-1.706-1.373.135-2.769.026-4.156.025-1.254,0-2.112-.537-2.121-1.865s.9-1.872,2.113-1.911c1.448-.046,2.9-.082,4.346,0,1.229.072,1.334-.486,1.139-1.479A7.252,7.252,0,0,0,86.4,53.818c-1.762-.068-3.528-.041-5.292-.017a7.087,7.087,0,0,0-7.324,7.054c-.088,2.012.037,4.034-.049,6.046-.048,1.135.427,1.35,1.431,1.33,2.772-.054,5.545-.019,8.317-.019M71.841,54.663a11.808,11.808,0,0,1,3.9-3.323c1.1-.476.922-.922.42-1.787a8.366,8.366,0,0,1,1.919-11.074c1.487-1.19.8-1.685-.331-2.07a18.283,18.283,0,0,0-11.831-.018,3.6,3.6,0,0,0-.65.383c-.673.4-.862.667-.109,1.339,4.012,3.585,4.65,7.126,2.16,11.769-.345.644-.408.954.3,1.27a12.781,12.781,0,0,1,4.223,3.509m-46.589.032a10.843,10.843,0,0,1,3.838-3.332c1.029-.466.991-.884.466-1.8a8.361,8.361,0,0,1,2.025-11.175c1.318-1.061.714-1.516-.253-1.874a17.836,17.836,0,0,0-12.14-.06,3.524,3.524,0,0,0-.48.3c-.87.463-.8.8-.046,1.452,3.834,3.319,4.507,7.081,2.085,11.621-.4.752-.373,1.052.384,1.4a12.829,12.829,0,0,1,4.121,3.475M44.271,19.256c-2.839-2.286-10.766-2.712-13.7-.89-.86.534-1.25.858-.156,1.678A8.29,8.29,0,0,1,33.8,27.091a10.009,10.009,0,0,1-1.96,5.454,12.322,12.322,0,0,1,5.035,3.883c.538-.578.987-1.1,1.472-1.576a8.634,8.634,0,0,0,1.826-6c-.851-4.05.7-7.129,4.094-9.594M65.1,32.457c-2.816-5.072-2.418-9.122,1.393-12.273,1.213-1,.839-1.372-.195-1.92a5.546,5.546,0,0,0-2.49-.834q-3.6-.046-7.2,0a5.607,5.607,0,0,0-2.5.814c-1.044.547-1.432.98-.2,1.959a8.422,8.422,0,0,1,3.151,7.884c-.161,1.661-2,3.243-1.374,4.417.648,1.22,2.632,1.791,3.7,3.077a1.679,1.679,0,0,1,.123.144c.4.617.774.706,1.277.049a13.038,13.038,0,0,1,4.31-3.314M48.665,35.584c-2.19.039-4.431-.3-6.426,1.03-.736.491-1.188.745-.218,1.6,3.812,3.364,4.471,7.087,2.114,11.478-.395.735-.582,1.135.365,1.556,1.581.7,2.675,2.875,3.922,2.978,1.351.112,2.426-2.264,4.077-2.951.831-.346.93-.677.476-1.527-2.4-4.49-1.766-8.242,2.008-11.487,1.1-.944.518-1.207-.256-1.706-1.887-1.215-3.993-.958-6.062-.972m4.7-8.632a4.833,4.833,0,1,0-4.85,4.817,4.959,4.959,0,0,0,4.85-4.817M41.692,8.746A4.869,4.869,0,0,0,37.021,3.8a4.871,4.871,0,0,0-.183,9.741,4.922,4.922,0,0,0,4.854-4.792M64.96,8.661A4.808,4.808,0,0,0,60.233,3.8a4.862,4.862,0,0,0-4.862,4.946,4.925,4.925,0,0,0,4.851,4.795A4.847,4.847,0,0,0,64.96,8.661M20.448,26.856a4.778,4.778,0,1,0,4.759-4.844,4.841,4.841,0,0,0-4.759,4.844m56.166.12a4.778,4.778,0,1,0-4.816,4.8,4.835,4.835,0,0,0,4.816-4.8M18.342,45.083a4.858,4.858,0,0,0-4.767-4.848,4.879,4.879,0,0,0,.069,9.757,4.843,4.843,0,0,0,4.7-4.909m23.35.069a4.931,4.931,0,0,0-4.73-4.917,4.881,4.881,0,1,0,4.73,4.917m23.268.014a4.857,4.857,0,0,0-4.684-4.93,4.879,4.879,0,0,0-.1,9.757,4.839,4.839,0,0,0,4.782-4.827m23.349-.078a4.92,4.92,0,0,0-4.794-4.853,4.881,4.881,0,1,0,4.794,4.853" transform="translate(0 0)" fill="#040403"/>
        <path id="Trazado_831894" data-name="Trazado 831894" d="M81.262,156.24c-2.779,0-5.558-.035-8.336.019-1,.019-1.488-.177-1.438-1.325.091-2.08-.047-4.171.07-6.248a7.041,7.041,0,0,1,7.151-6.853c1.768-.033,3.538-.046,5.3.007a7.118,7.118,0,0,1,6.958,6.683c.121,2.2-.016,4.42.059,6.628.034,1-.422,1.113-1.243,1.1-2.842-.036-5.684-.014-8.526-.014" transform="translate(-44.376 -88.028)" fill="#75c6d3"/>
        <path id="Trazado_831895" data-name="Trazado 831895" d="M142.614,156.235c-2.779,0-5.559-.048-8.337.024-1.078.028-1.406-.3-1.363-1.371.081-2.017-.026-4.043.039-6.061A7.146,7.146,0,0,1,140,141.834c1.831-.048,3.664-.052,5.495,0a6.942,6.942,0,0,1,6.828,6.353c.19,2.322.044,4.67.126,7,.037,1.058-.556,1.053-1.309,1.048-2.842-.018-5.685-.007-8.527-.007" transform="translate(-82.508 -88.024)" fill="#fdbc4f"/>
        <path id="Trazado_831896" data-name="Trazado 831896" d="M19.593,156.231c-2.777,0-5.557-.082-8.329.033-1.48.061-1.221-.822-1.248-1.68-.029-.925-.114-1.769,1.294-1.665,1.443.106,2.9.023,4.353.017,1.169-.005,1.983-.508,2.054-1.74.078-1.344-.774-1.955-2-2.016a36.857,36.857,0,0,0-4.352-.01c-1.336.091-1.454-.5-1.221-1.578a7.243,7.243,0,0,1,6.845-5.759c1.892-.054,3.788-.062,5.679,0a6.891,6.891,0,0,1,6.693,6.058c.225,2.441.083,4.915.15,7.374.03,1.123-.724.961-1.4.961q-4.259.005-8.52,0m3.708-5.32a1.871,1.871,0,0,0-2.06-1.689,1.737,1.737,0,0,0-1.741,2.035,1.689,1.689,0,0,0,1.909,1.654c1.219-.023,1.788-.747,1.893-2" transform="translate(-6.21 -88.02)" fill="#ed3c7a"/>
        <path id="Trazado_831897" data-name="Trazado 831897" d="M204.171,156.24c-2.773,0-5.546-.035-8.317.019-1,.02-1.48-.195-1.432-1.33.086-2.013-.039-4.034.049-6.046a7.087,7.087,0,0,1,7.324-7.054c1.764-.024,3.531-.05,5.292.017a7.252,7.252,0,0,1,6.749,5.854c.194.992.09,1.551-1.14,1.478-1.444-.085-2.9-.049-4.346,0-1.209.039-2.122.571-2.113,1.911s.866,1.863,2.12,1.865c1.386,0,2.783.11,4.156-.025,1.468-.144,1.423.672,1.454,1.706.033,1.107-.1,1.705-1.48,1.645-2.767-.122-5.543-.036-8.316-.036m.328-5.149a1.8,1.8,0,0,0-1.966-1.86,1.74,1.74,0,0,0-1.828,1.962,1.7,1.7,0,0,0,1.851,1.731,1.772,1.772,0,0,0,1.942-1.834" transform="translate(-120.691 -88.028)" fill="#bad075"/>
        <path id="Trazado_831898" data-name="Trazado 831898" d="M177.712,112.641a12.781,12.781,0,0,0-4.223-3.509c-.7-.316-.641-.626-.3-1.27,2.49-4.643,1.853-8.184-2.16-11.769-.753-.673-.564-.943.109-1.339a3.6,3.6,0,0,1,.65-.384,18.285,18.285,0,0,1,11.831.018c1.129.385,1.818.88.331,2.069a8.366,8.366,0,0,0-1.919,11.074c.5.865.68,1.311-.42,1.787a11.807,11.807,0,0,0-3.9,3.322" transform="translate(-105.872 -57.978)" fill="#49bcd2"/>
        <path id="Trazado_831899" data-name="Trazado 831899" d="M54.841,112.674A12.833,12.833,0,0,0,50.72,109.2c-.757-.348-.785-.647-.384-1.4,2.422-4.54,1.749-8.3-2.085-11.62-.753-.652-.824-.989.046-1.452a3.561,3.561,0,0,1,.48-.3,17.84,17.84,0,0,1,12.14.061c.967.358,1.571.813.253,1.874a8.36,8.36,0,0,0-2.025,11.175c.524.916.563,1.334-.466,1.8a10.847,10.847,0,0,0-3.838,3.333" transform="translate(-29.59 -57.979)" fill="#53c88b"/>
        <path id="Trazado_831900" data-name="Trazado 831900" d="M92.964,47.463c-3.391,2.466-4.945,5.545-4.094,9.594a8.638,8.638,0,0,1-1.826,6c-.485.48-.934,1-1.473,1.576a12.32,12.32,0,0,0-5.035-3.883A10.007,10.007,0,0,0,82.5,55.3a8.29,8.29,0,0,0-3.389-7.047c-1.094-.82-.7-1.144.156-1.678,2.934-1.822,10.861-1.4,13.7.89" transform="translate(-48.693 -28.207)" fill="#fa8e6a"/>
        <path id="Trazado_831901" data-name="Trazado 831901" d="M152.1,60.949a13.031,13.031,0,0,0-4.31,3.315c-.5.658-.874.568-1.277-.049a1.684,1.684,0,0,0-.123-.144c-1.068-1.286-3.052-1.857-3.7-3.077-.623-1.174,1.213-2.757,1.374-4.418a8.423,8.423,0,0,0-3.151-7.884c-1.231-.98-.844-1.412.2-1.959a5.612,5.612,0,0,1,2.5-.814q3.6-.045,7.2,0a5.543,5.543,0,0,1,2.49.834c1.033.548,1.407.918.195,1.92-3.812,3.15-4.209,7.2-1.393,12.272" transform="translate(-87.001 -28.492)" fill="#be2b63"/>
        <path id="Trazado_831902" data-name="Trazado 831902" d="M116.545,93.817c2.07.011,4.177-.246,6.063.969.774.5,1.354.762.256,1.706-3.774,3.245-4.407,7-2.008,11.487.454.849.355,1.181-.476,1.527-1.652.687-2.727,3.063-4.077,2.951-1.247-.1-2.341-2.274-3.922-2.978-.947-.421-.76-.821-.365-1.556,2.357-4.39,1.7-8.114-2.114-11.478-.97-.856-.518-1.11.219-1.6,1.994-1.33,4.236-.99,6.424-1.027" transform="translate(-67.881 -58.23)" fill="#846c65"/>
        <path id="Trazado_831903" data-name="Trazado 831903" d="M124.892,62.987a4.832,4.832,0,1,1-4.718-4.939,4.966,4.966,0,0,1,4.718,4.939" transform="translate(-71.53 -36.034)" fill="#ebd6c3"/>
        <path id="Trazado_831904" data-name="Trazado 831904" d="M94.243,14.959a4.922,4.922,0,0,1-4.853,4.792,4.872,4.872,0,1,1,4.853-4.792" transform="translate(-52.551 -6.213)" fill="#ebd6c3"/>
        <path id="Trazado_831905" data-name="Trazado 831905" d="M155.6,14.878a4.847,4.847,0,0,1-4.738,4.877,4.925,4.925,0,0,1-4.851-4.8,4.862,4.862,0,0,1,4.862-4.945,4.807,4.807,0,0,1,4.727,4.864" transform="translate(-90.638 -6.216)" fill="#ebd6c3"/>
        <path id="Trazado_831906" data-name="Trazado 831906" d="M53.919,62.89a4.776,4.776,0,1,1,4.7,4.915,4.83,4.83,0,0,1-4.7-4.915" transform="translate(-33.472 -36.033)" fill="#ecd6c4"/>
        <path id="Trazado_831907" data-name="Trazado 831907" d="M186.4,63.011a4.776,4.776,0,1,1-4.64-4.961,4.842,4.842,0,0,1,4.64,4.961" transform="translate(-109.781 -36.035)" fill="#ecd6c4"/>
        <path id="Trazado_831908" data-name="Trazado 831908" d="M32.671,110.949a4.843,4.843,0,0,1-4.7,4.909,4.881,4.881,0,1,1,4.7-4.909" transform="translate(-14.329 -65.865)" fill="#ebd6c3"/>
        <path id="Trazado_831909" data-name="Trazado 831909" d="M94.237,111.015a4.9,4.9,0,0,1-4.8,4.842,4.879,4.879,0,0,1,.066-9.758,4.931,4.931,0,0,1,4.73,4.917" transform="translate(-52.545 -65.862)" fill="#ebd6c3"/>
        <path id="Trazado_831910" data-name="Trazado 831910" d="M155.6,111.03a4.839,4.839,0,0,1-4.782,4.827,4.881,4.881,0,1,1,4.782-4.827" transform="translate(-90.636 -65.864)" fill="#ebd6c3"/>
        <path id="Trazado_831911" data-name="Trazado 831911" d="M217.166,110.953a4.9,4.9,0,0,1-4.732,4.906,4.879,4.879,0,0,1-.061-9.758,4.92,4.92,0,0,1,4.794,4.853" transform="translate(-128.858 -65.865)" fill="#ebd6c3"/>
        <path id="Trazado_831912" data-name="Trazado 831912" d="M38.828,163.064c-.105,1.253-.674,1.977-1.893,2a1.689,1.689,0,0,1-1.909-1.654,1.737,1.737,0,0,1,1.741-2.035,1.871,1.871,0,0,1,2.06,1.689" transform="translate(-21.737 -100.173)" fill="#0c0306"/>
        <path id="Trazado_831913" data-name="Trazado 831913" d="M214.785,163.248a1.772,1.772,0,0,1-1.942,1.834,1.7,1.7,0,0,1-1.851-1.731,1.74,1.74,0,0,1,1.828-1.962,1.8,1.8,0,0,1,1.966,1.86" transform="translate(-130.976 -100.185)" fill="#090a06"/>
      </g>
    </g>
  </g>
</svg>
