<svg id="Grupo_1081149" data-name="Grupo 1081149" xmlns="http://www.w3.org/2000/svg" xmlns:xlink="http://www.w3.org/1999/xlink" width="300" height="246.811" viewBox="0 0 300 246.811">
  <defs>
    <clipPath id="clip-path">
      <rect id="Rectángulo_379682" data-name="Rectángulo 379682" width="300" height="246.811" fill="none"/>
    </clipPath>
    <clipPath id="clip-path-3">
      <rect id="Rectángulo_379650" data-name="Rectángulo 379650" width="11.164" height="9.521" fill="none"/>
    </clipPath>
    <clipPath id="clip-path-4">
      <rect id="Rectángulo_379652" data-name="Rectángulo 379652" width="11.164" height="9.52" fill="none"/>
    </clipPath>
    <clipPath id="clip-path-7">
      <rect id="Rectángulo_379665" data-name="Rectángulo 379665" width="11.722" height="28.674" fill="none"/>
    </clipPath>
    <clipPath id="clip-path-8">
      <rect id="Rectángulo_379674" data-name="Rectángulo 379674" width="21.434" height="0.553" fill="none"/>
    </clipPath>
    <clipPath id="clip-path-12">
      <rect id="Rectángulo_379678" data-name="Rectángulo 379678" width="14.137" height="0.553" fill="none"/>
    </clipPath>
    <clipPath id="clip-path-13">
      <rect id="Rectángulo_379679" data-name="Rectángulo 379679" width="8.81" height="8.852" fill="none"/>
    </clipPath>
  </defs>
  <g id="Grupo_1081148" data-name="Grupo 1081148" clip-path="url(#clip-path)">
    <g id="Grupo_1081147" data-name="Grupo 1081147">
      <g id="Grupo_1081146" data-name="Grupo 1081146" clip-path="url(#clip-path)">
        <path id="Trazado_833975" data-name="Trazado 833975" d="M178.194,245.922q27.542-1.127,55.008-3.68c20.489-1.905,40.54-5.791,52.259-25.308,12.673-21.107,12.507-45.734,14.076-69.6,1.585-24.108-1.292-47.405-2.748-71.3C295.6,56.6,289.4,36.265,274.865,23.347,262.555,12.408,246.13,8.293,230.219,5.667,197.647.294,164.54-.257,131.573.077c-20.1.2-40.32.745-60.031,4.893C58.4,7.735,45.217,12.294,34.937,21.344,12.638,40.975,5.485,72.938,2.806,101.989c-2.516,27.277-4.984,57.762.429,84.7C7.413,207.471,15.013,229.72,36.544,238.1c23.077,8.979,52.659,8.017,77.079,8.5q32.286.641,64.572-.679" transform="translate(0 0)" fill="#d5e4f5"/>
        <rect id="Rectángulo_379648" data-name="Rectángulo 379648" width="53.542" height="58.119" transform="translate(99.368 44.291)" fill="#fff"/>
        <g id="Grupo_1081115" data-name="Grupo 1081115" transform="translate(104.031 90.295)" opacity="0.4">
          <g id="Grupo_1081114" data-name="Grupo 1081114">
            <g id="Grupo_1081113" data-name="Grupo 1081113" clip-path="url(#clip-path-3)">
              <rect id="Rectángulo_379649" data-name="Rectángulo 379649" width="11.164" height="9.521" fill="#76a3e3"/>
            </g>
          </g>
        </g>
        <g id="Grupo_1081118" data-name="Grupo 1081118" transform="translate(104.031 76.323)" opacity="0.4">
          <g id="Grupo_1081117" data-name="Grupo 1081117">
            <g id="Grupo_1081116" data-name="Grupo 1081116" clip-path="url(#clip-path-4)">
              <rect id="Rectángulo_379651" data-name="Rectángulo 379651" width="11.164" height="9.521" transform="translate(0 -0.001)" fill="#76a3e3"/>
            </g>
          </g>
        </g>
        <g id="Grupo_1081121" data-name="Grupo 1081121" transform="translate(104.031 62.351)" opacity="0.4">
          <g id="Grupo_1081120" data-name="Grupo 1081120">
            <g id="Grupo_1081119" data-name="Grupo 1081119" clip-path="url(#clip-path-3)">
              <rect id="Rectángulo_379653" data-name="Rectángulo 379653" width="11.164" height="9.521" fill="#76a3e3"/>
            </g>
          </g>
        </g>
        <g id="Grupo_1081124" data-name="Grupo 1081124" transform="translate(104.031 48.379)" opacity="0.4">
          <g id="Grupo_1081123" data-name="Grupo 1081123">
            <g id="Grupo_1081122" data-name="Grupo 1081122" clip-path="url(#clip-path-3)">
              <rect id="Rectángulo_379655" data-name="Rectángulo 379655" width="11.164" height="9.521" fill="#76a3e3"/>
            </g>
          </g>
        </g>
        <path id="Trazado_833976" data-name="Trazado 833976" d="M188.942,93.643l3.915,4.522,7.44-10" transform="translate(-84.502 -39.429)" fill="none" stroke="#14c052" stroke-miterlimit="10" stroke-width="5"/>
        <path id="Trazado_833977" data-name="Trazado 833977" d="M187.792,115.588l4.551,4.589,7.44-10" transform="translate(-83.987 -49.273)" fill="none" stroke="#14c052" stroke-miterlimit="10" stroke-width="5"/>
        <path id="Trazado_833978" data-name="Trazado 833978" d="M188.814,164.186l4.551,4.589,7.44-10" transform="translate(-84.445 -71.008)" fill="none" stroke="#14c052" stroke-miterlimit="10" stroke-width="5"/>
        <rect id="Rectángulo_379657" data-name="Rectángulo 379657" width="24.73" height="2.402" transform="translate(120.988 49.569)" fill="#76a3e3"/>
        <rect id="Rectángulo_379658" data-name="Rectángulo 379658" width="14.837" height="2.402" transform="translate(120.989 53.525)" fill="#76a3e3"/>
        <rect id="Rectángulo_379659" data-name="Rectángulo 379659" width="24.73" height="2.402" transform="translate(120.988 64.415)" fill="#76a3e3"/>
        <rect id="Rectángulo_379660" data-name="Rectángulo 379660" width="24.73" height="2.402" transform="translate(120.988 77.215)" fill="#76a3e3"/>
        <rect id="Rectángulo_379661" data-name="Rectángulo 379661" width="24.73" height="2.402" transform="translate(120.988 92.053)" fill="#76a3e3"/>
        <rect id="Rectángulo_379662" data-name="Rectángulo 379662" width="14.837" height="2.402" transform="translate(120.989 81.172)" fill="#76a3e3"/>
        <line id="Línea_1027" data-name="Línea 1027" x1="2.291" y2="56.119" transform="translate(185.222 172.367)" fill="none" stroke="#cf4646" stroke-miterlimit="10" stroke-width="4"/>
        <line id="Línea_1028" data-name="Línea 1028" x1="12.984" y2="49.007" transform="translate(149.718 182.915)" fill="none" stroke="#cf4646" stroke-miterlimit="10" stroke-width="4"/>
        <line id="Línea_1029" data-name="Línea 1029" x2="8.589" y2="51.538" transform="translate(216.718 170.076)" fill="none" stroke="#cf4646" stroke-miterlimit="10" stroke-width="4"/>
        <line id="Línea_1030" data-name="Línea 1030" x2="4.427" y2="59.503" transform="translate(191.103 177)" fill="none" stroke="#cf4646" stroke-miterlimit="10" stroke-width="4"/>
        <path id="Trazado_833979" data-name="Trazado 833979" d="M347.654,191.455a21.362,21.362,0,0,0-9.194-7.329,31.876,31.876,0,0,0-25.235-.19,31.026,31.026,0,0,0-15.26,13.955c-2.379,4.765-1.89,11.912-2.856,17.273q-2.466,13.688-4.931,27.377c-.092.512-6.3,4.2-7.036,5.021-2.334,2.614-4.373,5.791-4,9.451a10.993,10.993,0,0,0,4.917,7.6,26.326,26.326,0,0,0,8.595,3.513c7.56,1.95,15.556,2.911,23.167,1.171a54.268,54.268,0,0,0,13.058-5.239c5-2.635,9.914-5.643,13.651-9.878,5.674-6.432,6.125-15.212,7.209-23.34a137.68,137.68,0,0,0,.783-29.011,25.632,25.632,0,0,0-1.567-7.948,14.66,14.66,0,0,0-1.3-2.422" transform="translate(-124.822 -81.141)" fill="#cf4646"/>
        <path id="Trazado_833980" data-name="Trazado 833980" d="M242.135,18.434a20.056,20.056,0,0,0-.264,4.763c0,8.56,6.559,17.44,11.826,17.44s11.826-8.881,11.826-17.44a19.508,19.508,0,0,0-.253-4.7c-4.962-.532-8.731-2.362-11.14-6.334a.493.493,0,0,0-.849.008c-2.287,3.915-6.2,5.489-11.146,6.259" transform="translate(-108.167 -5.335)" fill="#76a3e3"/>
        <rect id="Rectángulo_379663" data-name="Rectángulo 379663" width="2.978" height="10.647" transform="translate(144.04 15.954)" fill="#cf4646"/>
        <rect id="Rectángulo_379664" data-name="Rectángulo 379664" width="10.647" height="3.017" transform="translate(140.206 19.77)" fill="#cf4646"/>
        <g id="Grupo_1081127" data-name="Grupo 1081127" transform="translate(145.652 6.622)" opacity="0.24" style="mix-blend-mode: multiply;isolation: isolate">
          <g id="Grupo_1081126" data-name="Grupo 1081126">
            <g id="Grupo_1081125" data-name="Grupo 1081125" clip-path="url(#clip-path-7)">
              <path id="Trazado_833981" data-name="Trazado 833981" d="M274.948,18.525c-4.962-.532-8.731-2.363-11.139-6.334a.47.47,0,0,0-.312-.21V40.654c5.247-.134,11.7-8.94,11.7-17.434a19.507,19.507,0,0,0-.253-4.7" transform="translate(-263.497 -11.98)" fill="#3453b3"/>
            </g>
          </g>
        </g>
        <rect id="Rectángulo_379666" data-name="Rectángulo 379666" width="45.213" height="29.242" transform="translate(171.162 10.799)" fill="#fff"/>
        <path id="Trazado_833982" data-name="Trazado 833982" d="M318.635,31.108a1.584,1.584,0,1,1-1.584-1.584,1.584,1.584,0,0,1,1.584,1.584" transform="translate(-141.089 -13.204)" fill="#cf4646"/>
        <path id="Trazado_833983" data-name="Trazado 833983" d="M318.635,43.769a1.584,1.584,0,1,1-1.584-1.584,1.584,1.584,0,0,1,1.584,1.584" transform="translate(-141.089 -18.867)" fill="#cf4646"/>
        <circle id="Elipse_5958" data-name="Elipse 5958" cx="3.421" cy="3.421" r="3.421" transform="translate(204.547 35.76) rotate(-76.718)" fill="none" stroke="#557ed9" stroke-miterlimit="10" stroke-width="2"/>
        <path id="Trazado_833984" data-name="Trazado 833984" d="M318.635,56.429a1.584,1.584,0,1,1-1.584-1.584,1.584,1.584,0,0,1,1.584,1.584" transform="translate(-141.089 -24.529)" fill="#cf4646"/>
        <rect id="Rectángulo_379667" data-name="Rectángulo 379667" width="29.486" height="2.106" transform="translate(179.967 16.65)" fill="#76a3e3"/>
        <rect id="Rectángulo_379668" data-name="Rectángulo 379668" width="29.486" height="2.106" transform="translate(179.967 23.437)" fill="#76a3e3"/>
        <rect id="Rectángulo_379669" data-name="Rectángulo 379669" width="18.955" height="2.106" transform="translate(179.967 30.223)" fill="#76a3e3"/>
        <path id="Trazado_833985" data-name="Trazado 833985" d="M166.8,262.561a6.665,6.665,0,0,0-3.08-1.335,2.686,2.686,0,0,0-2.778,1.5c-.612,1.648,1,3.188,2.317,4.357a22.31,22.31,0,0,1,3.058,3.344,1.178,1.178,0,0,1,.327.928,1.069,1.069,0,0,1-.586.609c-2.435,1.319-5.881.358-7.843,2.312-.5.494-.823,1.334-.375,1.872a1.69,1.69,0,0,0,.936.469,13.329,13.329,0,0,0,3.522.371,7.3,7.3,0,0,1,2.32.113,1.832,1.832,0,0,1,1.407,1.651c1.122.771-.886,1.214-2.117,1.8s-2.859,1.166-2.917,2.526c-.076,1.78,2.6,2.175,4.194,1.385s3.257-2.134,4.94-1.549c1.213.751.107,2.589-1,3.482s-2.194,2.755-.966,3.479a1.665,1.665,0,0,0,1.066.157c1.72-.229,2.919-1.742,4.2-2.913s3.311-2.066,4.664-.981a3.541,3.541,0,0,1,.975,1.459c1.883,4.561.167,9.7-.23,14.623a2.621,2.621,0,0,0,.342,1.864,1.856,1.856,0,0,0,2.6-.028,4.782,4.782,0,0,0,1.211-2.6,28.058,28.058,0,0,0-.292-13.029c-.637-2.415-1.607-4.876-1.148-7.331.68-3.627,4.226-6.016,5.633-9.427a2.722,2.722,0,0,0,.121-2.277c-.678-1.27-2.657-1.02-3.767-.1s-1.829,2.277-3.049,3.041a1.449,1.449,0,0,1-1.078.27,1.49,1.49,0,0,1-.923-1.221,9.512,9.512,0,0,1,.682-4.8,7.424,7.424,0,0,0,.324-4.8c-1.045-2.721-3.278-2.091-4.473-.5-.9,1.2-.915,3.706-2.392,4.4-2.269,1.067-4.063-1.924-5.822-3.125" transform="translate(-70.498 -116.243)" fill="#228487"/>
        <path id="Trazado_833986" data-name="Trazado 833986" d="M214.486,290.5a1.193,1.193,0,0,1-.829-.682,1.443,1.443,0,0,1,.416-1.266,10.007,10.007,0,0,1,6.314-3.663,22.557,22.557,0,0,0,3.311-.47c2.192-.671,3.259-3.448.189-3.554a9.9,9.9,0,0,1-3.279-.211c.465-1.672,2.2-2.626,3.818-3.249,2.081-.8,8.053-4.407,3.616-6.822a3.826,3.826,0,0,0-3.437.09c-.817.4-1.953.931-2.47.185-.384-.553,4.927-7.162,5.405-7.864,1.579-2.317,4.581-6.744,1.873-9.192-2.985-2.7-7.526-.386-8.471,2.994-.43,1.541-.354,3.177-.65,4.749-.509,2.707-2.037,3.851-3.507,1.766-1.228-1.741.237-4.245-2.61-5.171-2.176-.708-3.785.691-4.317,2.783-.526,2.07.142,4.23.725,6.284s1.077,4.308.24,6.272a1.6,1.6,0,0,1-.962,1.016c-1.678.416-1.571-3.283-3.29-3.469-1.36-.148-1.595,1.916-1.2,3.226s.4,3.325-.969,3.4c-1.13-1.406-2.377-2.874-4.1-3.39s-4,.443-4.157,2.24a4.643,4.643,0,0,0,1.144,2.887l4.207,6.057c.616.886,1.148,2.29.238,2.869-.478.3-1.1.159-1.658.274-1.446.3-1.9,2.243-1.44,3.647s1.486,2.571,1.928,3.981c.823,2.627-.527,5.373-1.545,7.931-.909,2.283-1.748,5.8.333,7.624-.3-.263,4.491-9.135,5.174-9.914,2.576-2.935,8.28-4.42,11.958-5.513a7.03,7.03,0,0,0,2.261-.934c.984-.734,2.052-3.17.982-4.18a3.371,3.371,0,0,0-2.505-.667,8.453,8.453,0,0,1-2.654-.048l-.076-.022" transform="translate(-87.717 -112.981)" fill="#47c092"/>
        <path id="Trazado_833987" data-name="Trazado 833987" d="M218.335,287.538c.165,5.917-4.424,10.707-8.038,15.395a58.036,58.036,0,0,0-11.742,29.829" transform="translate(-88.8 -128.597)" fill="none" stroke="#228487" stroke-miterlimit="10" stroke-width="1"/>
        <path id="Trazado_833988" data-name="Trazado 833988" d="M384.885,408.527a3.176,3.176,0,0,1-1.432.958l-12.419,5.3c-1.254.535-3.376,1-3.926,2.512-.989,2.727,11.338,1.8,13.371,1.774q10.024-.15,20.039-.615c-.129.006,1.083-25.727-4.192-28.268-2.072-1-4.6.108-6.062,1.939s-2.092,4.223-2.687,6.536q-1.119,4.349-2.238,8.7a3.471,3.471,0,0,1-.454,1.162" transform="translate(-164.158 -174.34)" fill="#3453b3"/>
        <path id="Trazado_833989" data-name="Trazado 833989" d="M478.859,403.906a3.069,3.069,0,0,1-1.269,1.117l-11.368,6.691c-1.148.676-3.144,1.378-3.492,2.949-.628,2.83,11.176.515,13.137.254q9.671-1.284,19.3-2.881c-.124.02-2.045-25.765-7.448-27.7-2.122-.761-4.437.629-5.627,2.62s-1.515,4.445-1.812,6.818q-.559,4.462-1.118,8.924a3.542,3.542,0,0,1-.3,1.209" transform="translate(-206.939 -171.794)" fill="#3453b3"/>
        <path id="Trazado_833990" data-name="Trazado 833990" d="M442.856,196.2a34.691,34.691,0,0,0,1.564-6.031c.836-5.594-.019-14.269-5.822-16.893-6.47-2.926-13.643.412-17.744,5.7-3.513,4.529-5.169,10.2-6.56,15.755-3.7,14.775-4.79,29.909-7.86,44.705a335.941,335.941,0,0,0-6.746,54.914,111.6,111.6,0,0,0-.282,12.978l17.362,1.743c7.425-15.941,8.8-37.365,13.444-54.045,1.93-6.932,3.461-13.987,4.716-21.071,1.036-5.848,3.235-11.647,3.97-17.509.326-2.6.093-5.242.359-7.848.439-4.291,2.206-8.3,3.6-12.4" transform="translate(-178.576 -77.01)" fill="#76a3e3"/>
        <path id="Trazado_833991" data-name="Trazado 833991" d="M481.115,178.994c3.241,5.119,1.249,11.662,2,17.485.548,4.27,1.924,8.383,2.923,12.57,3.46,14.5,2.351,29.517,3.642,44.26,1.333,15.236,5.133,30.065,4.806,45.495-.124,5.857-.761,6.559-6.126,7.781-4.627,1.054-9.3,2.382-14.084,2.364-4.242-20.807-11.934-68.728-12.549-72.187-2.524-14.195-5.039-28.865-1.737-42.9,1.156-4.915,3.195-9.907,7.2-12.986s11.232-6.149,13.932-1.883" transform="translate(-205.016 -79.115)" fill="#76a3e3"/>
        <path id="Trazado_833992" data-name="Trazado 833992" d="M443.879,77.632a6.252,6.252,0,0,0-1.814.829" transform="translate(-197.707 -34.72)" fill="none" stroke="#142152" stroke-miterlimit="10" stroke-width="1"/>
        <path id="Trazado_833993" data-name="Trazado 833993" d="M465.677,76.672a6.837,6.837,0,0,1,1.7.3,3.181,3.181,0,0,1,1.135.684" transform="translate(-208.267 -34.29)" fill="none" stroke="#000" stroke-miterlimit="10" stroke-width="1"/>
        <path id="Trazado_833994" data-name="Trazado 833994" d="M430,52.823a9.757,9.757,0,0,0,1.887.3c3.57.326,7.83.874,8.716-3.155.677-3.077-1.025-7.765-3.377-9.8-2.242-1.935-6.588-2.571-7.551.952a6.125,6.125,0,0,0,.443,3.959,1.664,1.664,0,0,1,.212,1.036c-.456,1.752-5.222,3.754-1.285,6.277a3.736,3.736,0,0,0,.955.426" transform="translate(-191.193 -17.263)" fill="#cf4646"/>
        <path id="Trazado_833995" data-name="Trazado 833995" d="M433.089,61.21a6.25,6.25,0,0,0-1.52,4.988c.821,5.715,4.259,9.373,10.564,8.841,11.449-.966,26.721-11.268,13.056-16.424-5.165-1.948-5.744-7.624-5-11.918,1.754-10.171,8.656-16.684-16.955-15.152-.548,4.1-.893,8.468.045,12.542.649,2.819,2.309,6.5,5.609,6.481a12.886,12.886,0,0,1,.224,4.754,6.728,6.728,0,0,1-1.465,3.6,4.007,4.007,0,0,1-2.09,1.122,4.876,4.876,0,0,0-2.465,1.166" transform="translate(-192.988 -14.009)" fill="#eb9a7a"/>
        <path id="Trazado_833996" data-name="Trazado 833996" d="M405.392,121.893c-.385,1.178-.809,2.343-1.295,3.486a42.571,42.571,0,0,0-2.439,6.073c-.944,3.728.1,7.979,3.877,9.473,7.9,3.123,14.274-11.139,15.365-17.027.889-4.8,8.979-29.805-2.377-28.33a3.133,3.133,0,0,0-1.729.73c-.835.763-1.379,1.974-2.147,2.843a24.423,24.423,0,0,0-2.64,3.53,36.926,36.926,0,0,0-3.581,8.476c-1.078,3.561-1.881,7.215-3.034,10.746" transform="translate(-179.49 -42.714)" fill="#eb9a7a"/>
        <path id="Trazado_833997" data-name="Trazado 833997" d="M431.417,24.535c-.13.129-.259.26-.388.391L429.1,26.9a3.023,3.023,0,0,0-.845,1.213c-.363,1.276,1.024,2.384,2.312,2.7a7.1,7.1,0,0,0,2.947.094,16.04,16.04,0,0,1,2.422-.453,11.413,11.413,0,0,1,3.6.927c2.209.7,6.684-.439,8.038,2.154,1.924,3.684-.081,6.6.3,10.286.393,3.852,4.39,3.112,7.865,2.587a8.744,8.744,0,0,0,5.467-2.523c1.336-1.557,1.539-4.209-.03-5.53-.611-.514-1.44-.806-1.853-1.491-.518-.858-.175-1.95-.174-2.952,0-3.162-3.38-3.317-5.4-4.838-2.794-2.107-5.488-5.113-9.323-4.668a13.257,13.257,0,0,1-3.437.371,9.755,9.755,0,0,1-2.647-1.072c-1.75-.83-3.9-1.2-5.581-.244a6.541,6.541,0,0,0-1.337,1.071" transform="translate(-191.505 -10.24)" fill="#cf4646"/>
        <path id="Trazado_833998" data-name="Trazado 833998" d="M411.738,99.723l-.024.062a16.569,16.569,0,0,0-1.5,6.483,11.807,11.807,0,0,0,4.7,1.251,11.217,11.217,0,0,0,6.472-1.84c1.864-1.127,3.151-2.945,5.147-3.719a.542.542,0,0,0,.24-.146.57.57,0,0,0,.091-.314c.153-1.8-.343-18.117-2.2-17.741-7.484,1.518-10.409,9.5-12.935,15.964" transform="translate(-183.46 -37.457)" fill="#3453b3"/>
        <path id="Trazado_833999" data-name="Trazado 833999" d="M421.939,122.642c.365,9.757.689,19.56,1.458,29.282a11.534,11.534,0,0,0,5.651,1.6,185.8,185.8,0,0,0,39.96-.426c.2-.024-.31-28.394-.475-30.352-.472-5.607-2.666-11.006-2.727-16.632-.019-1.705.16-3.416-.012-5.113a24.983,24.983,0,0,0-1.138-4.8,28.691,28.691,0,0,0-1.848-4.907A24.4,24.4,0,0,0,457.3,84.28c-.471-.382-6.1-4.61-6.462-3.688-3.429,8.8-13.091,15.228-13.1,15.235-.226.15-2.531-3.348-2.667-3.566-2.019-3.239-2.838-6.6-3.918-10.2-5.879.8-7.324,9.459-8.1,14.413a135.1,135.1,0,0,0-1.106,26.168" transform="translate(-188.633 -35.985)" fill="#3453b3"/>
        <path id="Trazado_834000" data-name="Trazado 834000" d="M451.224,42.965a3.037,3.037,0,0,1-6.067-.22A3.037,3.037,0,0,1,451.224,42.965Z" transform="translate(-199.09 -17.844)" fill="none" stroke="#142152" stroke-miterlimit="10" stroke-width="1"/>
        <path id="Trazado_834001" data-name="Trazado 834001" d="M434.579,42.363a3.037,3.037,0,0,1-6.067-.22A3.037,3.037,0,0,1,434.579,42.363Z" transform="translate(-191.646 -17.575)" fill="none" stroke="#142152" stroke-miterlimit="10" stroke-width="1"/>
        <line id="Línea_1031" data-name="Línea 1031" x2="3.134" y2="0.113" transform="translate(242.926 24.975)" fill="none" stroke="#142152" stroke-miterlimit="10" stroke-width="1"/>
        <line id="Línea_1032" data-name="Línea 1032" y1="1.781" x2="5.794" transform="translate(251.94 23.512)" fill="none" stroke="#142152" stroke-miterlimit="10" stroke-width="1"/>
        <path id="Trazado_834002" data-name="Trazado 834002" d="M465.108,46.688c-3.5,2.168-5.249-4.241-1.54-4.9,3.391-.605,4.194,3.259,1.54,4.9" transform="translate(-206.399 -18.659)" fill="#eb9a7a"/>
        <path id="Trazado_834003" data-name="Trazado 834003" d="M444.848,64.924a5.356,5.356,0,0,0,3.173-1.5" transform="translate(-198.952 -28.364)" fill="none" stroke="#142152" stroke-miterlimit="10" stroke-width="1"/>
        <path id="Trazado_834004" data-name="Trazado 834004" d="M465.41,43.965c1.009-.976,3.6.919,1.08,2.416" transform="translate(-208.148 -19.543)" fill="none" stroke="#142152" stroke-miterlimit="10" stroke-width="1"/>
        <path id="Trazado_834005" data-name="Trazado 834005" d="M443.914,55.175a3.382,3.382,0,0,1-1.959.681" transform="translate(-197.658 -24.676)" fill="none" stroke="#142152" stroke-miterlimit="10" stroke-width="1"/>
        <path id="Trazado_834006" data-name="Trazado 834006" d="M457.307,79.933c-3.431,8.8-13.234,15.5-13.234,15.5a28.874,28.874,0,0,1-6.32-13.91c-.527.158-1.29.24-1.8.424a37.723,37.723,0,0,0,1.955,7.285,37.708,37.708,0,0,0,6.136,9.349s6.874-6.1,7.968-7.1c1.867-1.7,5.55-7.84,7.141-10.574-.644-.252-1.166-.758-1.843-.978" transform="translate(-194.973 -35.749)" fill="#557ed9"/>
        <path id="Trazado_834007" data-name="Trazado 834007" d="M417.092,144.412a13.353,13.353,0,0,1-2.4,5.918c-2.366,2.849-9.047,4.344-10.233-.467-.8-3.258,2.26-8.267,3.692-11.109,1.31-2.6,2.756-5.124,4.082-7.712,1.145-2.235,2.66-4.33,3.561-6.674.607-1.58,1.507-2.84,3.555-1.848a4.158,4.158,0,0,1,2.124,3.216,7.508,7.508,0,0,1-1.147,4.956c-1.221,1.972-1.25,3.949-1.693,6.133q-.693,3.4-1.384,6.8-.08.391-.162.784" transform="translate(-180.831 -54.638)" fill="#eb9a7a"/>
        <path id="Trazado_834008" data-name="Trazado 834008" d="M412.3,143.51l-2.713,3.637a18.181,18.181,0,0,0-2.717,4.493" transform="translate(-181.966 -64.183)" fill="none" stroke="#142152" stroke-miterlimit="10" stroke-width="1"/>
        <path id="Trazado_834009" data-name="Trazado 834009" d="M438.585,79.131a9.1,9.1,0,0,0-3.526,4.508A23.161,23.161,0,0,0,434.287,91" transform="translate(-194.228 -35.39)" fill="none" stroke="#000" stroke-miterlimit="10" stroke-width="1"/>
        <path id="Trazado_834010" data-name="Trazado 834010" d="M434.414,101.746a4.088,4.088,0,0,1,4.136,1.961,12.71,12.71,0,0,1,1.593,4.668l.376,1.871c.38,1.885.742,3.933-.074,5.667a4.373,4.373,0,0,1-3.8,2.488" transform="translate(-194.286 -45.465)" fill="none" stroke="#000" stroke-miterlimit="10" stroke-width="1"/>
        <path id="Trazado_834011" data-name="Trazado 834011" d="M436.971,131.911a.705.705,0,0,1,.061-.345l.069-.153a.517.517,0,0,1,.155-.209.5.5,0,0,1,.222-.146.5.5,0,0,1,.261-.035.486.486,0,0,1,.25.058l.144.094a.68.68,0,0,1,.2.294c.013.06.025.12.039.18a.709.709,0,0,1-.061.346l-.069.152a.511.511,0,0,1-.155.21.5.5,0,0,1-.222.146.492.492,0,0,1-.262.035.484.484,0,0,1-.249-.058l-.145-.094a.689.689,0,0,1-.2-.294l-.038-.18" transform="translate(-195.428 -58.596)"/>
        <path id="Trazado_834012" data-name="Trazado 834012" d="M429.114,101.629a4.1,4.1,0,0,0-4.041,2.159,12.748,12.748,0,0,0-1.378,4.74l-.29,1.887c-.292,1.9-.561,3.966.333,5.657a4.36,4.36,0,0,0,3.91,2.3" transform="translate(-189.237 -45.427)" fill="none" stroke="#000" stroke-miterlimit="10" stroke-width="1"/>
        <path id="Trazado_834013" data-name="Trazado 834013" d="M431.671,131.887a.7.7,0,0,0-.076-.342l-.076-.149a.511.511,0,0,0-.165-.2.669.669,0,0,0-.738-.088l-.14.1a.692.692,0,0,0-.187.3c-.01.06-.02.121-.03.182a.7.7,0,0,0,.077.342l.076.149a.511.511,0,0,0,.164.2.5.5,0,0,0,.229.135.728.728,0,0,0,.51-.048l.14-.1a.69.69,0,0,0,.188-.3l.03-.182" transform="translate(-192.427 -58.6)"/>
        <path id="Trazado_834014" data-name="Trazado 834014" d="M433.479,100.18a.919.919,0,0,1,.278,1.813.919.919,0,0,1-.278-1.813" transform="translate(-193.544 -44.798)" fill="#fff"/>
        <path id="Trazado_834015" data-name="Trazado 834015" d="M437.022,125.236a5.781,5.781,0,0,1,.481.809,1.734,1.734,0,0,1,.221.8.711.711,0,0,1-.425.659.949.949,0,0,1-.414.022,3.779,3.779,0,0,1-2.612-1.461,15.349,15.349,0,0,1-1.584-2.54c-.208-.426-1.028-3.6.205-2.246,1.281,1.408,3.03,2.412,4.127,3.962" transform="translate(-193.309 -54.089)" fill="#eb9a7a"/>
        <path id="Trazado_834016" data-name="Trazado 834016" d="M408.707,100.658l6.344.585a1.546,1.546,0,0,0,1.713-1.91l-.773-4.9a2.826,2.826,0,0,0-2.376-2.287l-6.345-.585a1.547,1.547,0,0,0-1.713,1.91l.774,4.9a2.825,2.825,0,0,0,2.376,2.287" transform="translate(-181.368 -40.946)" fill="#191a37"/>
        <path id="Trazado_834017" data-name="Trazado 834017" d="M403.888,121.824l16.784,1.549a.289.289,0,0,0,.319-.357l-4.07-25.769a.527.527,0,0,0-.443-.426l-16.784-1.549a.288.288,0,0,0-.32.356l4.069,25.77a.527.527,0,0,0,.443.426" transform="translate(-178.613 -42.608)" fill="#fff"/>
        <path id="Trazado_834018" data-name="Trazado 834018" d="M410.315,98.146l4.586.423a1.065,1.065,0,0,0,1.18-1.316l-.207-1.313a1.947,1.947,0,0,0-1.637-1.576l-4.586-.423a1.065,1.065,0,0,0-1.18,1.316l.208,1.314a1.947,1.947,0,0,0,1.637,1.575" transform="translate(-182.674 -42.011)" fill="#191a37"/>
        <path id="Trazado_834019" data-name="Trazado 834019" d="M444.906,149.446a83.021,83.021,0,0,1-9.708-10.128,31.836,31.836,0,0,0-5.09-5.322c-1.863-1.379-4.136-2.1-6.113-3.311-2.183-1.34-5.9-4.127-5.871-6.966a2.778,2.778,0,0,1,2.328-2.811c1.409-.083,2.353,1.1,3.359,1.883,1.475,1.145,3.453,1.056,4.981,2a12.546,12.546,0,0,1,1.648,1.45,14.79,14.79,0,0,0,3.736,2.2c3.811,1.769,7.5,3.669,11.2,5.663,4.107,2.215,8.88,4.533,12.132,7.925,2.078,2.167,4.343,5.153,3.514,8.039-.758,2.637-2.951,7.009-7.343,4.784a61.836,61.836,0,0,1-8.775-5.413" transform="translate(-187 -54.072)" fill="#eb9a7a"/>
        <path id="Trazado_834020" data-name="Trazado 834020" d="M482.827,124.33a70.623,70.623,0,0,1,7.232,1.424c.9,8.628,1.191,17.534-2.307,25.4-1.38,3.1-4.245,6.35-7.542,5.536-2.173-.536-3.558-2.7-4.228-4.832-1.547-4.927-1.658-9.785-2.079-14.9a104.193,104.193,0,0,1-.493-13.441,68.178,68.178,0,0,1,9.417.815" transform="translate(-211.697 -55.24)" fill="#eb9a7a"/>
        <path id="Trazado_834021" data-name="Trazado 834021" d="M472.811,112.943a19.613,19.613,0,0,0,4.271.85c.547.012,1.094.023,1.642.021a56.5,56.5,0,0,0,14.752-1.936c.447-.123.891-.259,1.334-.394-2.142-8.318-6.694-17.685-13.706-21.9a.944.944,0,0,0-.531-.184.968.968,0,0,0-.559.324c-5.137,4.884-7.47,11.509-8.312,18.4-.248,2.023-1.043,4.052,1.109,4.816" transform="translate(-210.806 -39.982)" fill="#557ed9"/>
        <path id="Trazado_834022" data-name="Trazado 834022" d="M466.8,78.455a6.885,6.885,0,0,1,1.793,4.209,21.319,21.319,0,0,1-.534,5.934,34.336,34.336,0,0,1-6.209,13.858" transform="translate(-206.557 -35.088)" fill="none" stroke="#000" stroke-miterlimit="10" stroke-width="1"/>
        <path id="Trazado_834023" data-name="Trazado 834023" d="M456.4,121.144a2.292,2.292,0,1,0,3.112-.908,2.292,2.292,0,0,0-3.112.908" transform="translate(-203.994 -53.648)" fill="#fff"/>
        <path id="Trazado_834024" data-name="Trazado 834024" d="M458.365,122.643a1.129,1.129,0,1,0,1.533-.447,1.129,1.129,0,0,0-1.533.447" transform="translate(-204.935 -54.588)" fill="#557ed9"/>
        <path id="Trazado_834025" data-name="Trazado 834025" d="M474.477,148.379l3.951,2.352a6.371,6.371,0,0,0,1.26.628c.427.139.878.187,1.314.3a4.754,4.754,0,0,1,2.56,1.662" transform="translate(-212.203 -66.36)" fill="none" stroke="#142152" stroke-miterlimit="10" stroke-width="1"/>
        <path id="Trazado_834026" data-name="Trazado 834026" d="M459.348,258.878c-1.2-4.157-.091-9.1-.656-13.428-.441-3.375-2.418-6.593-2.932-10.088-.353-2.4-1.892-5.009-1.869-7.451" transform="translate(-202.996 -101.93)" fill="none" stroke="#142152" stroke-miterlimit="10" stroke-width="1"/>
        <path id="Trazado_834027" data-name="Trazado 834027" d="M414.853,314.936a6.023,6.023,0,0,0,2.578,1.144" transform="translate(-185.537 -140.851)" fill="none" stroke="#142152" stroke-miterlimit="10" stroke-width="1"/>
        <path id="Trazado_834028" data-name="Trazado 834028" d="M486.548,315.45a3.333,3.333,0,0,1-2.29,1.994" transform="translate(-216.578 -141.081)" fill="none" stroke="#142152" stroke-miterlimit="10" stroke-width="1"/>
        <path id="Trazado_834029" data-name="Trazado 834029" d="M287.056,409.333a2.427,2.427,0,0,1-.183.242,4.236,4.236,0,0,1-.967.764c-4.49,2.858-9.58,4.852-13.521,8.43-1.9,1.728,3.729,1.318,4.431,1.3,2.388-.071,4.773-.248,7.153-.452,4.707-.405,9.4-.98,14.113-1.311a2.525,2.525,0,0,0,2.312-2.925c-.957-5.945-1.133-12.591-1.77-17.273-.242-1.779-1.065-.134-1.9-1.724-2.136-4.068-8.229-5.172-9.713-1.2-1.433,3.841,1.525,8.583.6,12.682a4.373,4.373,0,0,1-.557,1.466" transform="translate(-121.646 -175.633)" fill="#c4a03d"/>
        <path id="Trazado_834030" data-name="Trazado 834030" d="M207.027,401.715a2.33,2.33,0,0,1-.349.466,3.7,3.7,0,0,1-1.877.862,47.786,47.786,0,0,1-13.05.6c-1.117-.071-4.751.142-4.022,2.124a3.073,3.073,0,0,0,1.651,1.487c3.3,1.659,6.919,2.227,10.342,3.516,2.976,1.12,5.751,2.786,8.727,3.853a4.969,4.969,0,0,0,2.019.345c1.759-.129,3.1-1.588,4.124-3.026,3.034-4.273,4.839-9.409,6.838-14.218.625-1.5,1.25-3.223.571-4.7-1.331-2.9-8.673-4-10.986-1.883-2.485,2.272-2.573,6.479-3.543,9.487a5.541,5.541,0,0,1-.445,1.088" transform="translate(-83.916 -174.439)" fill="#c4a03d"/>
        <path id="Trazado_834031" data-name="Trazado 834031" d="M295.018,247.565a8.183,8.183,0,0,0-1.746-3.942,12.047,12.047,0,0,0-5.743-3.46,20.353,20.353,0,0,0-10.609-.337,8.549,8.549,0,0,0-3.556,1.588,10.032,10.032,0,0,0-1.95,2.446,70.168,70.168,0,0,0-5.278,10.16,8.2,8.2,0,0,1-1.489,2.634,7.644,7.644,0,0,1-2.07,1.368c-5.786,2.968-11.659,5.792-17.23,9.16-3.249,1.964-6.658,3.818-9.416,6.467-3.551,3.411-3.645,7.007-5.276,11.331-1.338,3.545-1.973,7.433-2.873,11.109-2.774,11.1-5.069,22.285-7.854,33.411a32.978,32.978,0,0,0,8.115,3.222c1.1.312,7.032,2.4,7.644,1.321l4.834-8.549c2.213-3.914,4.45-7.886,5.554-12.244.95-3.746,1.05-7.732,2.6-11.27.751-1.712,1.819-3.264,2.691-4.918a23.68,23.68,0,0,0,2.393-7.066,3.593,3.593,0,0,1,.793-2.079,3.316,3.316,0,0,1,1.444-.677,61.1,61.1,0,0,0,8.521-3.3,94.433,94.433,0,0,0,15.085-8.179A37.29,37.29,0,0,0,292.076,262c1.784-3.605,3.781-9.717,2.942-14.439" transform="translate(-98.361 -107.015)" fill="#1b2b5c"/>
        <path id="Trazado_834032" data-name="Trazado 834032" d="M333.2,282.52a25.415,25.415,0,0,1-4.588,3.118c-2,1.055-4.12,1.851-6.132,2.877-2.949,1.5-5.613,3.481-8.437,5.193-3.065,1.857-5.959,2.48-9.351,3.476-.546,4.951-1.09,9.982-.227,14.888.491,2.789,1.433,5.509,1.591,8.337.211,3.785-.993,7.493-1.442,11.258a28.393,28.393,0,0,0-.009,6.645,3.122,3.122,0,0,0,.253,1.042,6.334,6.334,0,0,0,.689.923c1.642,2.176.345,4.779-2.246,4.7l-5.311-.171a17.922,17.922,0,0,0-4.583.245,24.681,24.681,0,0,1-2.407.583,2.938,2.938,0,0,1-2.334-.572c-1.191-1.07-1.889-4.336-2.293-5.869a78.242,78.242,0,0,1-1.423-8.672q-1.259-8.7-1.859-17.473c-.687-10.061-2.736-21.575,5.31-28.919,11.969-10.924,24.455-19.341,38.651-27.156,3.215-1.77,7.768-2.434,10.66.321,2.056,1.958,1.79,4.446,1.85,6.971.106,4.432,1.339,8.965-1.361,12.753a30.148,30.148,0,0,1-5,5.509" transform="translate(-126.275 -114.236)" fill="#1b2b5c"/>
        <path id="Trazado_834033" data-name="Trazado 834033" d="M318.917,97.32q.177-.135.358-.266a13.215,13.215,0,0,1,8.532-2.6,15.929,15.929,0,0,1,12.644,8.995c1.083,2.449,1.31,5.175,1.859,7.8a31.706,31.706,0,0,0,3.621,9.423,47.542,47.542,0,0,1,3.187,5.623c1.457,3.537.862,9.023-3.379,10.279a44.094,44.094,0,0,1-14.467,1.417c-3.874-.138-11.881,1.156-14.868-1.5-4.006-3.582-2.811-7.175-2.109-11.836.757-5.037-1.623-10.048-1.533-15.141a15.962,15.962,0,0,1,6.155-12.185" transform="translate(-139.877 -42.229)" fill="#191a37"/>
        <path id="Trazado_834034" data-name="Trazado 834034" d="M231.5,176.391c-1.634,1.156-3.339,2.215-5.053,3.2a94.063,94.063,0,0,1-14.363,6.483c-4.5,1.654-9.324,2.628-13.617,4.707-1.813.878-3.857,1.652-5.8,1.124-.788-.214-1.506-.632-2.28-.894-3.666-1.244-8.209,2.335-11.443-.4-.732-.62-1.395-1.672-2.331-1.461a1.521,1.521,0,0,0-.99.992,3.616,3.616,0,0,0,1.644,4.111c2.874,1.85,7.276,1.219,10.483,1.114,6.61-.218,13.228-.233,19.838,0,7.263.259,15.4,1.394,22.063-2.182,8.192-4.4,16.457-11.321,21.491-19.185a11.831,11.831,0,0,0,2.024-4.742,4.835,4.835,0,0,0-1.771-4.612c-1.668-1.136-3.937-.7-5.806.057-4.235,1.728-5.875,4.318-8.884,7.346a39.388,39.388,0,0,1-5.2,4.347" transform="translate(-78.465 -73.322)" fill="#eb9a7a"/>
        <path id="Trazado_834035" data-name="Trazado 834035" d="M281.2,171.269a86.651,86.651,0,0,1-11.994,8.785c-1.751,1.065.172,2.254.852,3.336.611.972,1.38,1.839,1.969,2.825.382.641,4.282,7.3,4.613,7.128a43.064,43.064,0,0,0,12.75-9.733c.766-.9-2.052-4.506-2.429-5.308-1.328-2.828-2.709-5.621-4.283-8.353q-.73.668-1.476,1.32" transform="translate(-120.079 -76.007)" fill="#191a37"/>
        <path id="Trazado_834036" data-name="Trazado 834036" d="M268.37,181.725a3,3,0,0,1,2.7,1.272,12.2,12.2,0,0,0,2.073,2.337c1.649,1.142,3.905.628,5.766-.122a19.7,19.7,0,0,0,4.655-2.34,6.589,6.589,0,0,0,1.536-1.445,5.568,5.568,0,0,0,.823-2.177,11.965,11.965,0,0,0-1.065-7.566" transform="translate(-120.025 -76.782)" fill="none" stroke="#3453b3" stroke-miterlimit="10" stroke-width="1"/>
        <path id="Trazado_834037" data-name="Trazado 834037" d="M337.029,126.1c.107,3.461.3,6.911.572,10.376s.525,11.185-4.225,12.049a3.944,3.944,0,0,1-3.468-1.578,11.325,11.325,0,0,1-1.62-2.389c-.881-1.675-1.811-3.261-2.623-4.99a5.472,5.472,0,0,1-.551-4.113q.371-2.564.742-5.128a14.393,14.393,0,0,1,1.784-4.907c1.168-2.187,9.229-8.452,9.313-2.672q.025,1.677.077,3.35" transform="translate(-145.334 -53.831)" fill="#eb9a7a"/>
        <path id="Trazado_834038" data-name="Trazado 834038" d="M321.295,103.451c.2-.262,2.306.048,2.668.074.856.061,1.71.16,2.557.305a19.523,19.523,0,0,1,4.367,1.244,10.133,10.133,0,0,1,5.316,4.565,9.5,9.5,0,0,1,.825,4.684,11.225,11.225,0,0,1-2.658,6.356,12.463,12.463,0,0,1-7.9,3.984,4.693,4.693,0,0,1-4.207-1.646c-2.63-2.956-3.107-7.731-3.008-11.507.07-2.65.392-5.863,2.042-8.059" transform="translate(-142.776 -46.22)" fill="#eb9a7a"/>
        <path id="Trazado_834039" data-name="Trazado 834039" d="M347.1,121.632c1.932,2.369,6.142-1.634,1.912-4.353-1.908-.532-3.108,2.564-1.912,4.353" transform="translate(-155.022 -52.424)" fill="#eb9a7a"/>
        <path id="Trazado_834040" data-name="Trazado 834040" d="M337.651,161.737a33.962,33.962,0,0,0-4.464-7.393,16.946,16.946,0,0,0-4.565-3.765,17.486,17.486,0,0,0-5.794-2.262,4.733,4.733,0,0,1-2.013-.595,15.741,15.741,0,0,1-4.929,4.623,5.5,5.5,0,0,1-2.88.941,4.245,4.245,0,0,1-3.111-1.832,12.547,12.547,0,0,1-1.6-3.355c-.189-.526-14.288,7.661-15.7,8.323-.814.383-1.852,1.081-1.491,1.9a4.092,4.092,0,0,0-3.254.843,7.633,7.633,0,0,0,3.606,4.65,6.038,6.038,0,0,1,1.5.962,4.15,4.15,0,0,1,.763,1.335c.972,2.363,1.559,4.991,2.792,7.123.759,1.313,1.139,1.4,1.174,3.211.05,2.63-.153,5.273-.272,7.9-.2,4.369-.36,8.74-.441,13.114-.1,5.407-1.029,10.852-1.7,16.245L307.608,216c3.65.679,6.954,1.667,10.72,1.975a92.771,92.771,0,0,0,24.264-1.195c.312-5.958.114-11.588.114-17.538,0-11.788.048-26.13-5.054-37.51" transform="translate(-128.741 -66.067)" fill="#35b0a6"/>
        <path id="Trazado_834041" data-name="Trazado 834041" d="M368.276,203.6a15.853,15.853,0,0,0,5.236.527,8.124,8.124,0,0,0,3.117-.4,5.389,5.389,0,0,0,3-4.372c.512-3.969-.8-10.163-2.109-13.931a14.464,14.464,0,0,0-4.408-6.809,7.486,7.486,0,0,0-7.712-1.153,7.689,7.689,0,0,0-3.8,5.357,17.964,17.964,0,0,0,.144,6.752c.635,3.744,1.4,8.534,3.626,11.736a5.856,5.856,0,0,0,2.911,2.3" transform="translate(-161.6 -79.089)" fill="#eb9a7a"/>
        <path id="Trazado_834042" data-name="Trazado 834042" d="M327.835,99.575q.575.1,1.141.231c2.316.549,3.865,2.926,5.239,4.869.753,1.064,1.1,3.163,2.578,3.335-.52,1.459-2.445,2-3.911,1.5a7.975,7.975,0,0,1-3.49-2.96c-1.029-1.34-2.031-2.932-1.752-4.6-.371,2.213-4.79,5.176-6.552,6.231-1.035.621-6.863,1.888-6.154-.589.732-2.564,1.611-5.335,3.815-6.834a8.733,8.733,0,0,1,3.811-1.28,17.847,17.847,0,0,1,5.273.1" transform="translate(-140.824 -44.423)" fill="#191a37"/>
        <path id="Trazado_834043" data-name="Trazado 834043" d="M350.059,119.861a1.426,1.426,0,0,1,1.308.8,1.043,1.043,0,0,1-.616,1.213" transform="translate(-156.559 -53.606)" fill="none" stroke="#142152" stroke-miterlimit="10" stroke-width="1"/>
        <path id="Trazado_834044" data-name="Trazado 834044" d="M324.943,139.533a3.969,3.969,0,0,0,3.943,1.023" transform="translate(-145.326 -62.404)" fill="none" stroke="#142152" stroke-miterlimit="10" stroke-width="1"/>
        <path id="Trazado_834045" data-name="Trazado 834045" d="M326.079,132.049a3.466,3.466,0,0,0,5.432-.044" transform="translate(-145.834 -59.037)" fill="none" stroke="#142152" stroke-miterlimit="10" stroke-width="1"/>
        <path id="Trazado_834046" data-name="Trazado 834046" d="M293.673,167.055l3.272,3.059a5.056,5.056,0,0,1,1.14,1.349c.563,1.117.318,2.662,1.281,3.461" transform="translate(-131.341 -74.713)" fill="none" stroke="#142152" stroke-miterlimit="10" stroke-width="1"/>
        <rect id="Rectángulo_379670" data-name="Rectángulo 379670" width="3.815" height="94.536" transform="translate(213.299 127.51)" fill="#fff"/>
        <path id="Trazado_834047" data-name="Trazado 834047" d="M305.717,191.623c-.549-1.661-.009-3.464.531-5.129l1.16-3.576" transform="translate(-136.625 -81.807)" fill="none" stroke="#142152" stroke-miterlimit="10" stroke-width="1"/>
        <path id="Trazado_834048" data-name="Trazado 834048" d="M302.922,184.917q.424,1.13.848,2.261" transform="translate(-135.478 -82.702)" fill="none" stroke="#142152" stroke-miterlimit="10" stroke-width="1"/>
        <path id="Trazado_834049" data-name="Trazado 834049" d="M367.893,177.671q1.457-.335,2.916-.757c.107-.943.086-2.135-.772-2.542-2.278-1.082-2.129-6.067-2.732-8.457-.643-2.549-1.751-6.1-3.33-8.264a24.518,24.518,0,0,0-15.881-10.3,17.2,17.2,0,0,0-3.288-.4c-.509,1.837-2.712,2.709-3.492,4.448-.211.471-.222,1.166.258,1.355.363.143.746-.111,1.081-.31,1.786-1.061,5.3-.842,5.572,1.768a157.06,157.06,0,0,1,.585,25.977c-.007.118,8.185-.762,8.722-.829a103.521,103.521,0,0,0,10.361-1.688" transform="translate(-152.586 -65.703)" fill="#35b0a6"/>
        <path id="Trazado_834050" data-name="Trazado 834050" d="M288.322,215.74c3.455-1.684,7.928-3.217,11.78-2.463a16.725,16.725,0,0,0,2.336.421,10.582,10.582,0,0,0,3.112-.491c7.519-1.914,15.4-2.456,23.1-3.2a42.115,42.115,0,0,1,12.356.158,8.037,8.037,0,0,1,3.556,1.451,3.52,3.52,0,0,1,1.356,3.417c-.64,2.607-6.86,2.78-8.99,2.9-3.634.208-7.271-.169-10.905-.087-5.323.119-10.65.129-15.972-.027-4.633-.136-9.262-.386-13.88-.777-2.321-.2-5.886-.013-7.851-1.3" transform="translate(-128.948 -93.752)" fill="#eb9a7a"/>
        <path id="Trazado_834051" data-name="Trazado 834051" d="M224.514,197.295c1.818-.29,3.688-.037,5.464-.321,1.72-.275,2.982-.741,4.654.282a1.331,1.331,0,0,1,.522.492c.252.493-.091,1.082-.48,1.476-1.6,1.615-4.073,2.071-5.73,3.621a1.391,1.391,0,0,0-.565,1.27c.1.366.44.6.716.863a3.147,3.147,0,0,1,.809,3.2c-.438,1.32-1.748,2.3-1.871,3.687-.114,1.291,1.386,2.092,2.014,3.183,1.176,2.044,3.818,2.793,6.17,2.621a11.244,11.244,0,0,0,7.407-3.7,11.106,11.106,0,0,0,2.348-3.3c.594-1.439.442-2.988.874-4.464.635-2.165,2.663-3.611,4.692-4.6s4.239-1.725,5.912-3.239" transform="translate(-100.411 -87.938)" fill="none" stroke="#191a37" stroke-miterlimit="10" stroke-width="1"/>
        <path id="Trazado_834052" data-name="Trazado 834052" d="M354.543,182.1c-.2.781.32,1.538.613,2.289a8.538,8.538,0,0,1,.369,3.275c-.046,2.584.487,4.706.058,7.32a.755.755,0,0,0,.013.427c.458,1.029,2.755.4,3.495.357" transform="translate(-158.545 -81.443)" fill="none" stroke="#142152" stroke-miterlimit="10" stroke-width="1"/>
        <line id="Línea_1033" data-name="Línea 1033" x1="137.348" transform="translate(89.523 123.532)" fill="none" stroke="#fff" stroke-miterlimit="10" stroke-width="6"/>
        <rect id="Rectángulo_379671" data-name="Rectángulo 379671" width="131.398" height="7.032" transform="translate(92.775 124.21)" fill="#fff"/>
        <rect id="Rectángulo_379672" data-name="Rectángulo 379672" width="3.38" height="94.536" transform="translate(94.472 127.51)" fill="#fff"/>
        <path id="Trazado_834053" data-name="Trazado 834053" d="M364.1,210.06c2.175-.2,4.191,1.382,6.373,1.3.106,0,.229,0,.293.08s-.052.242-.127.166" transform="translate(-162.838 -93.939)" fill="none" stroke="#142152" stroke-miterlimit="10" stroke-width="1"/>
        <path id="Trazado_834054" data-name="Trazado 834054" d="M385.447,195.664a4.448,4.448,0,0,0-2.677.457,15.711,15.711,0,0,1-5.211.943" transform="translate(-168.858 -87.471)" fill="none" stroke="#142152" stroke-miterlimit="10" stroke-width="1"/>
        <path id="Trazado_834055" data-name="Trazado 834055" d="M283.509,305.8c.439-6.643,4.758-10.628,10.011-14.115,2.588-1.717,5.571-2.966,7.959-4.961,2.6-2.176,4.923-4.782,7.336-7.167" transform="translate(-126.795 -125.03)" fill="none" stroke="#000" stroke-miterlimit="10" stroke-width="1"/>
        <path id="Trazado_834056" data-name="Trazado 834056" d="M288.2,428c.031.108-.144.175-.23.1a.4.4,0,0,1-.1-.311q-.009-.7.039-1.405a.806.806,0,0,1,.186-.552c.323-.3.835.077,1.032.471s.383.9.818.966.8-.418.823-.868a6.442,6.442,0,0,0-.238-1.325,1.108,1.108,0,0,1,.423-1.188c.55-.283,1.148.247,1.568.7s1.139.892,1.593.472c.677-.625-.537-1.709-.294-2.6" transform="translate(-128.746 -188.942)" fill="none" stroke="#1b2b5c" stroke-miterlimit="10" stroke-width="1"/>
        <path id="Trazado_834057" data-name="Trazado 834057" d="M209.1,413.93a4.593,4.593,0,0,1,.4-2.291,1.007,1.007,0,0,1,.523-.583c.454-.153.894.332.969.805s-.061.958,0,1.433.447.986.915.887c.616-.13.586-.994.648-1.621a2.473,2.473,0,0,1,.945-1.7.765.765,0,0,1,.378-.177c.456-.045.68.565.616,1.019s-.245.951-.007,1.342a.991.991,0,0,0,1.449.067,2.867,2.867,0,0,0,.721-1.461" transform="translate(-93.51 -183.671)" fill="none" stroke="#1b2b5c" stroke-miterlimit="10" stroke-width="1"/>
        <path id="Trazado_834058" data-name="Trazado 834058" d="M249.642,310.779a2.091,2.091,0,0,0,1.413,1.168" transform="translate(-111.649 -138.992)" fill="none" stroke="#142152" stroke-miterlimit="10" stroke-width="1"/>
        <path id="Trazado_834059" data-name="Trazado 834059" d="M300.05,323.186a2.813,2.813,0,0,1-2.261,1.2" transform="translate(-133.182 -144.54)" fill="none" stroke="#142152" stroke-miterlimit="10" stroke-width="1"/>
        <path id="Trazado_834060" data-name="Trazado 834060" d="M217.779,193.557c0,2.537-3.414,4.593-7.625,4.593s-7.625-2.056-7.625-4.593,3.414-4.593,7.625-4.593,7.625,2.056,7.625,4.593" transform="translate(-90.578 -84.511)" fill="#191a37"/>
        <rect id="Rectángulo_379673" data-name="Rectángulo 379673" width="30.099" height="44.936" transform="translate(34.378 43.044)" fill="#fff"/>
        <g id="Grupo_1081130" data-name="Grupo 1081130" transform="translate(38.483 51.021)" opacity="0.68">
          <g id="Grupo_1081129" data-name="Grupo 1081129">
            <g id="Grupo_1081128" data-name="Grupo 1081128" clip-path="url(#clip-path-8)">
              <line id="Línea_1034" data-name="Línea 1034" x2="21.434" transform="translate(0 0.277)" fill="none" stroke="#142152" stroke-miterlimit="10" stroke-width="1"/>
            </g>
          </g>
        </g>
        <g id="Grupo_1081133" data-name="Grupo 1081133" transform="translate(38.483 56.065)" opacity="0.68">
          <g id="Grupo_1081132" data-name="Grupo 1081132">
            <g id="Grupo_1081131" data-name="Grupo 1081131" clip-path="url(#clip-path-8)">
              <line id="Línea_1035" data-name="Línea 1035" x2="21.434" transform="translate(0 0.276)" fill="none" stroke="#142152" stroke-miterlimit="10" stroke-width="1"/>
            </g>
          </g>
        </g>
        <g id="Grupo_1081136" data-name="Grupo 1081136" transform="translate(38.483 61.109)" opacity="0.68">
          <g id="Grupo_1081135" data-name="Grupo 1081135">
            <g id="Grupo_1081134" data-name="Grupo 1081134" clip-path="url(#clip-path-8)">
              <line id="Línea_1036" data-name="Línea 1036" x2="21.434" transform="translate(0 0.276)" fill="none" stroke="#142152" stroke-miterlimit="10" stroke-width="1"/>
            </g>
          </g>
        </g>
        <g id="Grupo_1081139" data-name="Grupo 1081139" transform="translate(38.483 66.153)" opacity="0.68">
          <g id="Grupo_1081138" data-name="Grupo 1081138">
            <g id="Grupo_1081137" data-name="Grupo 1081137" clip-path="url(#clip-path-8)">
              <line id="Línea_1037" data-name="Línea 1037" x2="21.434" transform="translate(0 0.276)" fill="none" stroke="#142152" stroke-miterlimit="10" stroke-width="1"/>
            </g>
          </g>
        </g>
        <g id="Grupo_1081142" data-name="Grupo 1081142" transform="translate(38.483 71.197)" opacity="0.68">
          <g id="Grupo_1081141" data-name="Grupo 1081141">
            <g id="Grupo_1081140" data-name="Grupo 1081140" clip-path="url(#clip-path-12)">
              <line id="Línea_1038" data-name="Línea 1038" x2="14.137" transform="translate(0 0.276)" fill="none" stroke="#142152" stroke-miterlimit="10" stroke-width="1"/>
            </g>
          </g>
        </g>
        <g id="Grupo_1081145" data-name="Grupo 1081145" transform="translate(39.298 76.423)" opacity="0.68">
          <g id="Grupo_1081144" data-name="Grupo 1081144">
            <g id="Grupo_1081143" data-name="Grupo 1081143" clip-path="url(#clip-path-13)">
              <ellipse id="Elipse_5959" data-name="Elipse 5959" cx="3.852" cy="3.873" rx="3.852" ry="3.873" transform="translate(0.553 0.553)" fill="none" stroke="#557ed9" stroke-miterlimit="10" stroke-width="2"/>
            </g>
          </g>
        </g>
        <rect id="Rectángulo_379680" data-name="Rectángulo 379680" width="61.492" height="22.507" transform="translate(58.595 10.878)" fill="#fff"/>
        <line id="Línea_1039" data-name="Línea 1039" y2="1.382" transform="translate(61.81 10.878)" fill="none" stroke="#ffccc0" stroke-miterlimit="10" stroke-width="0.5"/>
        <line id="Línea_1040" data-name="Línea 1040" y2="17.091" transform="translate(61.81 15.367)" fill="none" stroke="#ffccc0" stroke-miterlimit="10" stroke-width="0.5" stroke-dasharray="5.622 5.622"/>
        <line id="Línea_1041" data-name="Línea 1041" y2="1.382" transform="translate(61.81 34.012)" fill="none" stroke="#ffccc0" stroke-miterlimit="10" stroke-width="0.5"/>
        <line id="Línea_1042" data-name="Línea 1042" y2="1.382" transform="translate(66.834 10.878)" fill="none" stroke="#ffccc0" stroke-miterlimit="10" stroke-width="0.5"/>
        <line id="Línea_1043" data-name="Línea 1043" y2="17.091" transform="translate(66.834 15.367)" fill="none" stroke="#ffccc0" stroke-miterlimit="10" stroke-width="0.5" stroke-dasharray="5.622 5.622"/>
        <line id="Línea_1044" data-name="Línea 1044" y2="1.382" transform="translate(66.834 34.012)" fill="none" stroke="#ffccc0" stroke-miterlimit="10" stroke-width="0.5"/>
        <line id="Línea_1045" data-name="Línea 1045" y2="1.382" transform="translate(71.858 10.878)" fill="none" stroke="#ffccc0" stroke-miterlimit="10" stroke-width="0.5"/>
        <line id="Línea_1046" data-name="Línea 1046" y2="17.091" transform="translate(71.858 15.367)" fill="none" stroke="#ffccc0" stroke-miterlimit="10" stroke-width="0.5" stroke-dasharray="5.622 5.622"/>
        <line id="Línea_1047" data-name="Línea 1047" y2="1.382" transform="translate(71.858 34.012)" fill="none" stroke="#ffccc0" stroke-miterlimit="10" stroke-width="0.5"/>
        <line id="Línea_1048" data-name="Línea 1048" y2="1.382" transform="translate(76.882 10.878)" fill="none" stroke="#ffccc0" stroke-miterlimit="10" stroke-width="0.5"/>
        <line id="Línea_1049" data-name="Línea 1049" y2="17.091" transform="translate(76.882 15.367)" fill="none" stroke="#ffccc0" stroke-miterlimit="10" stroke-width="0.5" stroke-dasharray="5.622 5.622"/>
        <line id="Línea_1050" data-name="Línea 1050" y2="1.382" transform="translate(76.882 34.012)" fill="none" stroke="#ffccc0" stroke-miterlimit="10" stroke-width="0.5"/>
        <line id="Línea_1051" data-name="Línea 1051" y2="1.382" transform="translate(81.906 10.878)" fill="none" stroke="#ffccc0" stroke-miterlimit="10" stroke-width="0.5"/>
        <line id="Línea_1052" data-name="Línea 1052" y2="17.091" transform="translate(81.906 15.367)" fill="none" stroke="#ffccc0" stroke-miterlimit="10" stroke-width="0.5" stroke-dasharray="5.622 5.622"/>
        <line id="Línea_1053" data-name="Línea 1053" y2="1.382" transform="translate(81.906 34.012)" fill="none" stroke="#ffccc0" stroke-miterlimit="10" stroke-width="0.5"/>
        <line id="Línea_1054" data-name="Línea 1054" y2="1.382" transform="translate(86.93 10.878)" fill="none" stroke="#ffccc0" stroke-miterlimit="10" stroke-width="0.5"/>
        <line id="Línea_1055" data-name="Línea 1055" y2="17.091" transform="translate(86.93 15.367)" fill="none" stroke="#ffccc0" stroke-miterlimit="10" stroke-width="0.5" stroke-dasharray="5.622 5.622"/>
        <line id="Línea_1056" data-name="Línea 1056" y2="1.382" transform="translate(86.93 34.012)" fill="none" stroke="#ffccc0" stroke-miterlimit="10" stroke-width="0.5"/>
        <line id="Línea_1057" data-name="Línea 1057" y2="1.382" transform="translate(91.954 10.878)" fill="none" stroke="#ffccc0" stroke-miterlimit="10" stroke-width="0.5"/>
        <line id="Línea_1058" data-name="Línea 1058" y2="17.091" transform="translate(91.954 15.367)" fill="none" stroke="#ffccc0" stroke-miterlimit="10" stroke-width="0.5" stroke-dasharray="5.622 5.622"/>
        <line id="Línea_1059" data-name="Línea 1059" y2="1.382" transform="translate(91.954 34.012)" fill="none" stroke="#ffccc0" stroke-miterlimit="10" stroke-width="0.5"/>
        <line id="Línea_1060" data-name="Línea 1060" y2="1.382" transform="translate(96.977 10.878)" fill="none" stroke="#ffccc0" stroke-miterlimit="10" stroke-width="0.5"/>
        <line id="Línea_1061" data-name="Línea 1061" y2="17.091" transform="translate(96.977 15.367)" fill="none" stroke="#ffccc0" stroke-miterlimit="10" stroke-width="0.5" stroke-dasharray="5.622 5.622"/>
        <line id="Línea_1062" data-name="Línea 1062" y2="1.382" transform="translate(96.977 34.012)" fill="none" stroke="#ffccc0" stroke-miterlimit="10" stroke-width="0.5"/>
        <line id="Línea_1063" data-name="Línea 1063" y2="1.382" transform="translate(102.001 10.878)" fill="none" stroke="#ffccc0" stroke-miterlimit="10" stroke-width="0.5"/>
        <line id="Línea_1064" data-name="Línea 1064" y2="17.091" transform="translate(102.001 15.367)" fill="none" stroke="#ffccc0" stroke-miterlimit="10" stroke-width="0.5" stroke-dasharray="5.622 5.622"/>
        <line id="Línea_1065" data-name="Línea 1065" y2="1.382" transform="translate(102.001 34.012)" fill="none" stroke="#ffccc0" stroke-miterlimit="10" stroke-width="0.5"/>
        <line id="Línea_1066" data-name="Línea 1066" y2="1.382" transform="translate(107.025 10.878)" fill="none" stroke="#ffccc0" stroke-miterlimit="10" stroke-width="0.5"/>
        <line id="Línea_1067" data-name="Línea 1067" y2="17.091" transform="translate(107.025 15.367)" fill="none" stroke="#ffccc0" stroke-miterlimit="10" stroke-width="0.5" stroke-dasharray="5.622 5.622"/>
        <line id="Línea_1068" data-name="Línea 1068" y2="1.382" transform="translate(107.025 34.012)" fill="none" stroke="#ffccc0" stroke-miterlimit="10" stroke-width="0.5"/>
        <line id="Línea_1069" data-name="Línea 1069" y2="1.382" transform="translate(112.049 10.878)" fill="none" stroke="#ffccc0" stroke-miterlimit="10" stroke-width="0.5"/>
        <line id="Línea_1070" data-name="Línea 1070" y2="17.091" transform="translate(112.049 15.367)" fill="none" stroke="#ffccc0" stroke-miterlimit="10" stroke-width="0.5" stroke-dasharray="5.622 5.622"/>
        <line id="Línea_1071" data-name="Línea 1071" y2="1.382" transform="translate(112.049 34.012)" fill="none" stroke="#ffccc0" stroke-miterlimit="10" stroke-width="0.5"/>
        <line id="Línea_1072" data-name="Línea 1072" y2="1.382" transform="translate(117.073 10.878)" fill="none" stroke="#ffccc0" stroke-miterlimit="10" stroke-width="0.5"/>
        <line id="Línea_1073" data-name="Línea 1073" y2="17.091" transform="translate(117.073 15.367)" fill="none" stroke="#ffccc0" stroke-miterlimit="10" stroke-width="0.5" stroke-dasharray="5.622 5.622"/>
        <line id="Línea_1074" data-name="Línea 1074" y2="1.382" transform="translate(117.073 34.012)" fill="none" stroke="#ffccc0" stroke-miterlimit="10" stroke-width="0.5"/>
        <line id="Línea_1075" data-name="Línea 1075" x2="64.507" transform="translate(57.188 12.686)" fill="none" stroke="#ffccc0" stroke-miterlimit="10" stroke-width="0.5" stroke-dasharray="5 5"/>
        <line id="Línea_1076" data-name="Línea 1076" x2="64.507" transform="translate(57.188 17.911)" fill="none" stroke="#ffccc0" stroke-miterlimit="10" stroke-width="0.5" stroke-dasharray="5 5"/>
        <line id="Línea_1077" data-name="Línea 1077" x2="64.507" transform="translate(57.188 23.136)" fill="none" stroke="#ffccc0" stroke-miterlimit="10" stroke-width="0.5" stroke-dasharray="5 5"/>
        <line id="Línea_1078" data-name="Línea 1078" x2="64.507" transform="translate(57.188 28.361)" fill="none" stroke="#ffccc0" stroke-miterlimit="10" stroke-width="0.5" stroke-dasharray="5 5"/>
        <line id="Línea_1079" data-name="Línea 1079" x2="64.507" transform="translate(57.188 33.586)" fill="none" stroke="#ffccc0" stroke-miterlimit="10" stroke-width="0.5" stroke-dasharray="5 5"/>
        <path id="Trazado_834061" data-name="Trazado 834061" d="M165.17,34.107l-2.814,3.215L160.348,32.5l-4.019,6.833.4-11.656-4.421,9.244L150.7,33.705l-2.412,2.411-1.206-2.411-4.421,5.225,1.607-10.851-4.823,8.842-2.21-2.412-2.612,3.617-2.01-2.814L129.8,39.734l-1.608-11.655-4.421,9.646-2.411-3.617-2.01,2.814-1.607-2.814-1.608,4.823-2.411-9.646-3.416,8.038L108.9,32.9l-1.809,2.813" transform="translate(-47.896 -12.378)" fill="none" stroke="#cf4646" stroke-miterlimit="10" stroke-width="1"/>
        <path id="Trazado_834062" data-name="Trazado 834062" d="M167.1,337.37c-1.528-2.441-7.441-2.846-10.158-3.3-1.322-.224-2.8-.492-3.577-1.583" transform="translate(-68.592 -148.698)" fill="none" stroke="#142152" stroke-miterlimit="10" stroke-width="1"/>
        <path id="Trazado_834063" data-name="Trazado 834063" d="M188.206,426.732a129.66,129.66,0,0,0,25.545,1.066,3.621,3.621,0,0,0-1.358-1.782c-4-3.344-8.544-4.859-13.277-6.97a1.726,1.726,0,0,1-.669-.434,1.667,1.667,0,0,1-.28-.686,18.463,18.463,0,0,1-.647-5.177c.071-1.172.785-2.285-.262-3.254-1.584-1.466-5.446.322-6.766,1.422-3.126,2.606-3.554,8.947-4.121,13.39a2.166,2.166,0,0,0,1.835,2.425" transform="translate(-83.344 -182.894)" fill="#fff"/>
        <path id="Trazado_834064" data-name="Trazado 834064" d="M128.425,405.268a124.4,124.4,0,0,0,18.086,11.8,1.016,1.016,0,0,0,1.434-1.231l-.007-.02a31.259,31.259,0,0,0-8.513-12.715c-.086-.077,4.845-6.644,4.062-8.309-.823-1.748-4.539-2.408-6.282-2.124-3.566.582-6.783,4.937-9.331,8.273a3.1,3.1,0,0,0,.552,4.323" transform="translate(-56.905 -175.589)" fill="#fff"/>
        <path id="Trazado_834065" data-name="Trazado 834065" d="M182.988,361.432l-.764-3.181-1.587-6.6" transform="translate(-80.787 -157.27)" fill="none" stroke="#142152" stroke-miterlimit="10" stroke-width="1"/>
        <line id="Línea_1080" data-name="Línea 1080" x1="2.659" y2="54.881" transform="translate(66.084 186.49)" fill="none" stroke="#cf4646" stroke-miterlimit="10" stroke-width="4"/>
        <line id="Línea_1081" data-name="Línea 1081" x2="4.939" y2="57.704" transform="translate(52.297 178.799)" fill="none" stroke="#cf4646" stroke-miterlimit="10" stroke-width="4"/>
        <line id="Línea_1082" data-name="Línea 1082" x1="8.413" y2="52.017" transform="translate(30.042 183.177)" fill="none" stroke="#cf4646" stroke-miterlimit="10" stroke-width="4"/>
        <path id="Trazado_834066" data-name="Trazado 834066" d="M122.559,114.572c-.892,2.931-3.247,5.611-6.286,6.006a4.015,4.015,0,0,0-2.161.569,3.035,3.035,0,0,0-.8,1.847l-1.65,8.967a1.2,1.2,0,0,1-1.466,1.241c-3.689-.021-10.443,1.336-13.325-1.672,2.157-3.769,2.8-8.2,3.144-12.531s.448-8.726,1.674-12.893,3.783-8.177,7.727-9.993c11.5-5.3,15.648,10.228,13.146,18.458" transform="translate(-43.323 -42.504)" fill="#eb9a7a"/>
        <path id="Trazado_834067" data-name="Trazado 834067" d="M51.522,280.224c-.72,5.247.235,10.27,5.1,13.349,2.332,1.474,5.239,1.889,8.04,2.237q11.447,1.423,22.961,2.223a85.958,85.958,0,0,0,21.105-1.371,19.562,19.562,0,0,1,4.239-.405,17.351,17.351,0,0,1,6.4,1.93c2.343,1.093,2.34,1.352,2.149,3.729-.39,4.829.277,9.775.422,14.6l.556,18.521a12.506,12.506,0,0,0,.451,3.556,8.471,8.471,0,0,0,5.629,5.029,25.044,25.044,0,0,0,7.761.8c1.716,0,3.56-.046,4.949-1.054,1.813-1.314,2.243-3.788,2.529-6.009,1.49-11.555.774-22.138,1.361-33.773.39-7.728,2.439-17.415-3.65-22.732-4.109-3.589-9.835-5.028-15.31-6.343-2.847-.684-26.308-3.518-26.369-3.8-1.718-8.01-5.514-16.315-13.18-20.392a21.546,21.546,0,0,0-19.824.1c-6.3,3.435-7.259,8.377-9.885,14.047-1.867,4.029-4.652,10.03-5.438,15.764" transform="translate(-22.947 -110.892)" fill="#76a3e3"/>
        <path id="Trazado_834068" data-name="Trazado 834068" d="M95.5,302.989c6.708.468,13.423.856,20.144,1.1,6.1.217,5.918,4.681,4.332,9.32a112.165,112.165,0,0,1-9.106,19.565c-1.476,2.564-3.1,5.48-2.255,8.317.66,2.228,2.68,3.75,4.665,4.96a47.792,47.792,0,0,0,7.159,3.58,5.722,5.722,0,0,0,2.315.544c4.237-.177,5.853-7.17,7.944-9.961,4.263-5.689,7.121-11.971,10.271-18.251,3.548-7.073,7.1-13.913,9.64-21.446,1.37-4.065,2.443-8.833.071-12.407-1.7-2.559-4.742-3.812-7.6-4.925-12.366-4.8-26.047-9.987-39.542-8.615a28.448,28.448,0,0,0-13.294,4.514c-3.764,2.591-8.252,3.855-11.14,7.688-3.021,4.011-2.441,7.759-.346,11.891,3.047,6.01,11.223,3.746,16.747,4.131" transform="translate(-34.442 -122.785)" fill="#76a3e3"/>
        <path id="Trazado_834069" data-name="Trazado 834069" d="M103.473,230.305l.179-.112a5.546,5.546,0,0,0,2.5-2.445c.609-1.6-.36-3.325-1.134-4.857-2.706-5.36-3.167-12.318-3.49-18.242-.3-5.44.649-11.157.9-16.6.367-8.038-.616-11.161.333-19.16.963-8.107-8.11-13.995-14.15-14.472-5.975-.473-10.453-1.074-14.679,3.689-4.127,4.652-6.219,10.729-8.126,16.539q-7.6,23.146-13.774,46.725c-2.159,8.242,3.43,10.359,10.5,10.76,3.736.212,7.416.945,11.1,1.045A61.249,61.249,0,0,1,84.5,234.432c2.842.613,4.916,2.4,8.107,1.7a20.774,20.774,0,0,0,6.379-3.031l4.487-2.8" transform="translate(-23.062 -68.919)" fill="#3453b3"/>
        <path id="Trazado_834070" data-name="Trazado 834070" d="M163.732,178.268a13.385,13.385,0,0,0-5.839,1.937c-1.7,1.182-3,2.849-4.679,4.053a21.465,21.465,0,0,1-2.379,1.4q-3.882,2.079-7.7,4.277c-2.506,1.443-5.082,2.706-7.037,4.86.441-4.609-.367-9.428-1.233-14-.842-4.449-6.541-4.034-9.468-7.489-.533-.63,1.158-6.115.352-5.833-4.356,1.521-7.934,3.838-9.66,8.279-2.1,5.413-1.3,11.51.152,17.135,2.007,7.8,5.273,15.434,10.646,21.435a12.3,12.3,0,0,0,3.3,2.794c4.226,2.236,7.673-.3,10.449-3.4q5.968-6.659,11.457-13.726c2.944-3.79,6.127-11.278,11.753-10.965,1.469.081,2.916.449,4.388.453a11.234,11.234,0,0,0,5.727-1.7.959.959,0,0,0,.29-1.327.951.951,0,0,1,.991-.456,3.89,3.89,0,0,0,1.162.055c.379-.091.715-.527.516-.862a.884.884,0,0,0-.464-.317c-2.538-1.021-4.57-2.463-7.03-3.581-.355-.162-2.493-1.215-1.092-1.623a2.677,2.677,0,0,1,.916.021.762.762,0,0,0,.786-.355,12.1,12.1,0,0,0-6.3-1.064" transform="translate(-51.347 -74.896)" fill="#eb9a7a"/>
        <path id="Trazado_834071" data-name="Trazado 834071" d="M107.374,184.358c.344,4.462.63,8.111.5,8.154a160.281,160.281,0,0,0,25.554-10.841c-.526-9.391-6.879-22.476-16.83-26-9.555-3.385-8.681,4.742-10.015,12.822-.287,1.737.31,9.6.792,15.867" transform="translate(-47.634 -69.268)" fill="#3453b3"/>
        <path id="Trazado_834072" data-name="Trazado 834072" d="M152.246,216.131a18.645,18.645,0,0,1-1.2,5.5" transform="translate(-67.555 -96.662)" fill="none" stroke="#142152" stroke-miterlimit="10" stroke-width="1"/>
        <path id="Trazado_834073" data-name="Trazado 834073" d="M99.94,93.929c-1.8,1.7-1.308,3.152-1.339,5.295-.031,2.116-1.221,2.421-2.25,4.2-1.491,2.571.165,3.556,1.439,5.494,1.06,1.611.067,3.626.949,5.063,2.337,3.812,9.875.031,12.016-2.035a23.95,23.95,0,0,0,4.108-4.545c.612-1.033.777-2.934,2.294-3.022a5.606,5.606,0,0,0,.988-.023c1.924-.46.081-4.418,1.61-5.789a13.3,13.3,0,0,0,2.475-2.147,5.4,5.4,0,0,0,.4-4.013,7.194,7.194,0,0,0-1.4-3.419,4.951,4.951,0,0,0-4.368-1.528,7.124,7.124,0,0,0-4.148,2.272,9.621,9.621,0,0,1-1.935,1.884c-1.249.737-2.809.531-4.257.457a10.173,10.173,0,0,0-5.264.918,5.968,5.968,0,0,0-1.314.941" transform="translate(-42.827 -39.093)" fill="#191a37"/>
        <path id="Trazado_834074" data-name="Trazado 834074" d="M123.659,120.561a3.744,3.744,0,0,1,1.234-4.8,3.495,3.495,0,1,1-1.234,4.8" transform="translate(-55.119 -51.523)" fill="#eb9a7a"/>
        <path id="Trazado_834075" data-name="Trazado 834075" d="M129.438,117.639a3.027,3.027,0,0,0-3.326,2.751" transform="translate(-56.402 -52.6)" fill="none" stroke="#000" stroke-miterlimit="10" stroke-width="1"/>
        <path id="Trazado_834076" data-name="Trazado 834076" d="M155.669,333c2.066,1.294,4.551,1.52,6.872,2.065,2.2.516,4.1,1.993,6.458,1.687-2.05.984-.761,9.364-.676,11.432.193,4.681.573,9.356.55,14.044" transform="translate(-69.621 -148.931)" fill="none" stroke="#142152" stroke-miterlimit="10" stroke-width="1"/>
        <path id="Trazado_834077" data-name="Trazado 834077" d="M138.5,128.793a2.088,2.088,0,0,0,2.191.123" transform="translate(-61.942 -57.601)" fill="none" stroke="#000" stroke-miterlimit="10" stroke-width="1"/>
        <path id="Trazado_834078" data-name="Trazado 834078" d="M99.158,275.361h-.2c-7.142,0-11.03-3.738-14.262-9.764a146.155,146.155,0,0,1-8.883-20c-2.323-6.575-2.647-13.661-4.824-20.279a38.736,38.736,0,0,0-6.157-11.585,14.817,14.817,0,0,0-3.836-3.7,15.582,15.582,0,0,0-4.464-1.674c-6.315-1.552-14.62-3.414-21.061-2.1a8.239,8.239,0,0,0-3.01,1.1c-1.871,1.261-2.6,3.636-3.043,5.848-1.554,7.7-.155,15.241-.8,22.9-.671,7.99,1.561,16.579,2.748,24.463,3.707,24.616,33.95,23,52.617,21.17,5.436-.532,10.878-1.064,16.258-2.005a3.91,3.91,0,0,0,2.1-.824c2.1-2.014-1.675-3.542-3.189-3.543" transform="translate(-12.746 -92.047)" fill="#cf4646"/>
        <path id="Trazado_834079" data-name="Trazado 834079" d="M115.283,208.916a8.331,8.331,0,0,1-2.637.751c-.705-2.214-.381-4.614-.68-6.919-.322-2.48-1.369-4.893-1.15-7.384" transform="translate(-49.547 -87.374)" fill="none" stroke="#142152" stroke-miterlimit="10" stroke-width="1"/>
        <path id="Trazado_834080" data-name="Trazado 834080" d="M189.043,213.651l-2.584,3.788" transform="translate(-83.391 -95.552)" fill="none" stroke="#191a37" stroke-miterlimit="10" stroke-width="1"/>
        <line id="Línea_1083" data-name="Línea 1083" x2="9.813" y2="54.881" transform="translate(82.927 186.49)" fill="none" stroke="#cf4646" stroke-miterlimit="10" stroke-width="4"/>
        <path id="Trazado_834081" data-name="Trazado 834081" d="M178.877,337.58l2.482-1.03c1.124-.467,2.4-1.1,2.637-2.3" transform="translate(-80 -149.49)" fill="none" stroke="#142152" stroke-miterlimit="10" stroke-width="1"/>
        <path id="Trazado_834082" data-name="Trazado 834082" d="M180.965,295.508c-8.654-3.95-20.9-6.477-30.194-8.209" transform="translate(-67.43 -128.49)" fill="none" stroke="#142152" stroke-miterlimit="10" stroke-width="1"/>
        <path id="Trazado_834083" data-name="Trazado 834083" d="M136.559,336.69l-.382.573" transform="translate(-60.903 -150.58)" fill="#3453b3"/>
      </g>
    </g>
  </g>
</svg>
