<svg id="Grupo_1080990" data-name="Grupo 1080990" xmlns="http://www.w3.org/2000/svg" xmlns:xlink="http://www.w3.org/1999/xlink" width="190" height="154.459" viewBox="0 0 190 154.459">
  <defs>
    <clipPath id="clip-path">
      <rect id="Rectángulo_379556" data-name="Rectángulo 379556" width="190" height="154.459" fill="none"/>
    </clipPath>
    <clipPath id="clip-path-4">
      <rect id="Rectángulo_379551" data-name="Rectángulo 379551" width="50.575" height="61.91" fill="none"/>
    </clipPath>
    <clipPath id="clip-path-5">
      <rect id="Rectángulo_379552" data-name="Rectángulo 379552" width="26.945" height="24.376" fill="none"/>
    </clipPath>
    <clipPath id="clip-path-6">
      <rect id="Rectángulo_379553" data-name="Rectángulo 379553" width="34.155" height="29.928" fill="none"/>
    </clipPath>
    <clipPath id="clip-path-7">
      <rect id="Rectángulo_379554" data-name="Rectángulo 379554" width="6.72" height="26.765" fill="none"/>
    </clipPath>
  </defs>
  <g id="Grupo_1080989" data-name="Grupo 1080989" clip-path="url(#clip-path)">
    <g id="Grupo_1080974" data-name="Grupo 1080974">
      <g id="Grupo_1080973" data-name="Grupo 1080973" clip-path="url(#clip-path)">
        <path id="Trazado_833089" data-name="Trazado 833089" d="M286.717,150.678a10.294,10.294,0,0,0-3.48.53c2.285-.888,3.123-1.728,2.957-2.328-.286-1.033-5.7.475-8.209,1.236a51.589,51.589,0,0,0,6.827-2.493c1.107-.755-.45-1.2-1.842-1.211-1.563-.008-10.65,1.251-13.291,1.477a1.563,1.563,0,0,1-1.875-1.459c.386-3.828-1.358-7.016-2.236-7.658s-2.053.35-1.672,1.491a14.358,14.358,0,0,1,.341,3.881,9.192,9.192,0,0,1-.55,3.058c-.416,1.136-.812,2.081-1.17,2.875l-8.555,4.875-21.873,10.332s-29.859-16.98-30.957-17.841l-1.1.251-7.508,16.28,35.319,21.1a7.935,7.935,0,0,0,8.007.077l25.519-15.713,10.1-6.092,3.235-2.116,7.873-5.151c3.263-1.58,4.5-2.461,4.162-3.052-.447-.79-.239-.506-6.578,1.522,0,0,9.021-2.974,6.561-3.866" transform="translate(-104.808 -75.436)" fill="#ffbe9d"/>
        <path id="Trazado_833090" data-name="Trazado 833090" d="M377.629,173.168c.047.16,2.018-.381,4.4-1.21s4.265-1.627,4.2-1.781a34.427,34.427,0,0,0-8.6,2.992" transform="translate(-205.576 -92.628)" fill="#eb996e"/>
        <path id="Trazado_833091" data-name="Trazado 833091" d="M373.7,167.847a19.785,19.785,0,0,0,4.762-1.025c2.585-.727,4.643-1.447,4.6-1.608a39.186,39.186,0,0,0-9.359,2.633" transform="translate(-203.436 -89.923)" fill="#eb996e"/>
        <path id="Trazado_833092" data-name="Trazado 833092" d="M370.629,163.2a35.1,35.1,0,0,0,8.888-2.374,35.085,35.085,0,0,0-8.888,2.374" transform="translate(-201.766 -87.535)" fill="#eb996e"/>
        <path id="Trazado_833093" data-name="Trazado 833093" d="M115.105,145.655s-19.5-13.817-21.967-15.176c-2.352-1.294-9.812-2.235-10.482-2.4l-13.358-2.9-20.411.61-5.855,3.521L28.219,136.13a17.563,17.563,0,0,0-8.9,9.295L9.959,168.271l23.213,6.867.722,24.1L28.557,222.6H96.507l-3.556-58.167,7.074,1.557Z" transform="translate(-5.422 -68.145)" fill="#263238"/>
        <path id="Trazado_833094" data-name="Trazado 833094" d="M37.778,207.951s-.244.18-.718.455a5.927,5.927,0,0,1-2.17.795,8.09,8.09,0,0,1-3.387-.491,24.427,24.427,0,0,1-3.859-1.678c-1.325-.689-2.563-1.388-3.726-1.95a20.716,20.716,0,0,0-3.181-1.271,12.351,12.351,0,0,0-2.262-.46c-.272-.028-.483-.043-.627-.047s-.219-.017-.219-.017a6.449,6.449,0,0,1,.849.031,11.779,11.779,0,0,1,2.276.435,20.214,20.214,0,0,1,3.2,1.258c1.168.559,2.409,1.257,3.732,1.945a24.837,24.837,0,0,0,3.844,1.678,8.109,8.109,0,0,0,3.355.507,6.04,6.04,0,0,0,2.161-.763c.238-.133.421-.24.544-.316s.191-.109.191-.109" transform="translate(-9.597 -110.665)" fill="#fff"/>
        <path id="Trazado_833095" data-name="Trazado 833095" d="M42.071,184.771s-.053,0-.154,0l-.442-.021c-.385-.018-.939-.06-1.624-.128A42.752,42.752,0,0,1,29.4,182.215c-.646-.238-1.164-.443-1.517-.595l-.407-.174c-.093-.041-.14-.067-.14-.067s.052.015.147.05l.413.159c.357.142.878.338,1.525.568a46.158,46.158,0,0,0,10.439,2.4c.683.075,1.237.127,1.62.155l.441.037c.1.01.154.019.154.019" transform="translate(-14.879 -98.741)" fill="#fff"/>
        <path id="Trazado_833096" data-name="Trazado 833096" d="M66.89,136.814a8.832,8.832,0,0,1-.541.761,10.653,10.653,0,0,1-1.811,1.789A16.034,16.034,0,0,1,61.3,141.3a32.884,32.884,0,0,1-4.345,1.586c-1.573.466-3.08.879-4.429,1.324a25.844,25.844,0,0,0-3.5,1.4,15.438,15.438,0,0,0-2.18,1.3c-.249.168-.424.323-.552.416s-.194.144-.194.144.246-.225.726-.587A14.667,14.667,0,0,1,49,145.553a25.212,25.212,0,0,1,3.5-1.418c1.35-.45,2.857-.866,4.429-1.331a33.57,33.57,0,0,0,4.336-1.575,16.232,16.232,0,0,0,3.235-1.914,11.039,11.039,0,0,0,1.822-1.761c.2-.225.321-.426.42-.549s.148-.191.148-.191" transform="translate(-25.096 -74.48)" fill="#fff"/>
        <path id="Trazado_833097" data-name="Trazado 833097" d="M160.43,138.878s-.062-.031-.177-.1-.278-.169-.5-.282a12.845,12.845,0,0,0-1.94-.84,21.512,21.512,0,0,0-3.038-.78c-1.161-.221-2.451-.393-3.8-.583l-6.926-.98-2.1-.307-.57-.088c-.13-.021-.2-.036-.2-.036s.07,0,.2.019l.572.072,2.1.28,6.93.955c1.352.19,2.643.364,3.806.59a20.848,20.848,0,0,1,3.043.8,12.031,12.031,0,0,1,1.935.868c.437.246.662.408.662.408" transform="translate(-76.856 -73.43)" fill="#fff"/>
        <path id="Trazado_833098" data-name="Trazado 833098" d="M106.444,153.765s-.154.072-.452.2-.739.32-1.312.549c-1.148.455-2.824,1.083-4.945,1.7a54,54,0,0,1-7.573,1.672,52.54,52.54,0,0,1-9.486.333c-3.368-.11-6.579-.257-9.493-.073a29.311,29.311,0,0,0-7.6,1.387,18.793,18.793,0,0,0-4.674,2.292c-.5.361-.885.646-1.129.861S59.4,163,59.4,163s.127-.114.374-.326.623-.509,1.121-.875a18.523,18.523,0,0,1,4.674-2.323,29.131,29.131,0,0,1,7.614-1.408c2.919-.188,6.134-.044,9.5.066a52.905,52.905,0,0,0,9.472-.325,54.627,54.627,0,0,0,7.566-1.652c2.121-.612,3.8-1.231,4.95-1.676.575-.224,1.019-.406,1.318-.534s.459-.187.459-.187" transform="translate(-32.334 -83.708)" fill="#fff"/>
        <path id="Trazado_833099" data-name="Trazado 833099" d="M167.345,162.729a.3.3,0,0,1-.075.034l-.22.082c-.191.071-.472.161-.821.262a10.922,10.922,0,0,1-2.81.43,9.744,9.744,0,0,1-2.813-.4c-.349-.106-.628-.2-.817-.277l-.218-.087a.29.29,0,0,1-.073-.036.3.3,0,0,1,.08.02l.223.072c.192.067.473.153.822.25a10.4,10.4,0,0,0,2.8.376,11.782,11.782,0,0,0,2.795-.4c.35-.094.633-.174.827-.236l.225-.066a.3.3,0,0,1,.08-.017" transform="translate(-86.829 -88.588)" fill="#fff"/>
        <path id="Trazado_833100" data-name="Trazado 833100" d="M104.336,188.662s-2,.423-5.275.911c-1.635.246-3.59.491-5.766.708s-4.576.38-7.1.475-4.929.088-7.115.041-4.153-.16-5.8-.288c-3.3-.249-5.326-.526-5.326-.526s.128.007.37.031l1.059.1c.919.1,2.252.213,3.9.329s3.615.215,5.8.269,4.589.04,7.11-.047,4.917-.267,7.093-.468,4.129-.45,5.765-.688,2.957-.448,3.867-.611l1.049-.181c.24-.041.367-.057.367-.057" transform="translate(-36.993 -102.705)" fill="#fff"/>
        <path id="Trazado_833101" data-name="Trazado 833101" d="M165.954,184.477s-.052.006-.152.01l-.436.013c-.378.01-.925.016-1.6.015-1.353,0-3.223-.052-5.281-.229s-3.909-.455-5.24-.7c-.666-.121-1.2-.226-1.573-.307l-.425-.093c-.1-.022-.147-.038-.147-.038s.052,0,.15.021l.429.077,1.576.279c1.333.225,3.182.491,5.238.669s3.922.235,5.274.254l1.6.013.435,0c.1,0,.152.007.152.007" transform="translate(-82.256 -99.706)" fill="#fff"/>
        <path id="Trazado_833102" data-name="Trazado 833102" d="M97.249,222.967s-.118.021-.342.054l-.985.137c-.427.061-.951.134-1.564.173s-1.306.128-2.079.141-1.617.069-2.525.054c-.454,0-.924,0-1.407-.008l-1.491-.049c-2.04-.082-4.28-.236-6.626-.442s-4.583-.4-6.618-.537-3.873-.212-5.415-.19l-1.1.007-.98.048c-.612.026-1.139.053-1.568.108l-.989.1c-.226.021-.346.028-.346.028s.118-.019.344-.046l.988-.114c.428-.059.955-.092,1.568-.123l.981-.055,1.1-.013c1.545-.03,3.383.049,5.421.171s4.273.333,6.62.53,4.583.362,6.621.449l1.489.052c.483.013.952.008,1.406.012.907.019,1.751-.02,2.522-.043s1.466-.091,2.078-.128,1.136-.1,1.564-.159L96.9,223c.226-.027.345-.036.345-.036" transform="translate(-34.413 -120.981)" fill="#fff"/>
        <path id="Trazado_833103" data-name="Trazado 833103" d="M170.005,212.511s-.063.012-.185.026l-.532.057c-.462.049-1.132.106-1.961.162-1.658.113-3.954.195-6.49.129s-4.826-.27-6.475-.47c-.825-.1-1.491-.191-1.95-.265l-.529-.084c-.12-.02-.183-.035-.183-.035s.065,0,.186.018l.53.068c.46.063,1.127.145,1.952.236,1.65.185,3.937.377,6.47.445s4.826-.007,6.484-.1c.829-.048,1.5-.1,1.962-.134l.534-.04c.122-.008.186-.008.186-.008" transform="translate(-82.584 -115.427)" fill="#fff"/>
        <path id="Trazado_833104" data-name="Trazado 833104" d="M121.389,246.1s-.21-.01-.61-.036-.988-.084-1.748-.1c-1.519-.077-3.722-.1-6.438.039s-5.941.455-9.506.924S95.614,248,91.5,248.526a101.026,101.026,0,0,1-11.669.888,53.552,53.552,0,0,1-9.525-.691,38.041,38.041,0,0,1-6.243-1.575c-.364-.114-.679-.235-.95-.346l-.689-.272c-.372-.148-.566-.229-.566-.229s.2.071.573.213l.692.264c.272.108.588.227.952.338a38.8,38.8,0,0,0,6.242,1.546,53.969,53.969,0,0,0,9.514.671,101.872,101.872,0,0,0,11.658-.894c4.116-.53,8.024-1.139,11.592-1.6s6.794-.784,9.513-.906a63.652,63.652,0,0,1,6.443-.012c1.519.084,2.356.174,2.356.174" transform="translate(-33.673 -133.837)" fill="#fff"/>
        <path id="Trazado_833105" data-name="Trazado 833105" d="M98.85,280.3s-2.008.342-5.281.692c-1.636.179-3.59.338-5.762.462s-4.565.182-7.076.169-4.9-.127-7.075-.27-4.122-.343-5.755-.544c-3.268-.4-5.27-.767-5.27-.767s.127.014.366.047l1.048.154c.455.069,1.011.151,1.66.232s1.385.189,2.2.273c1.633.194,3.584.375,5.753.525s4.56.241,7.07.263,4.9-.054,7.072-.162,4.124-.272,5.76-.443c.819-.073,1.557-.169,2.206-.242s1.208-.145,1.663-.208l1.05-.138c.241-.031.367-.042.367-.042" transform="translate(-34.096 -152.452)" fill="#fff"/>
        <path id="Trazado_833106" data-name="Trazado 833106" d="M164.986,274.05s-.076.028-.222.073l-.642.194c-.557.169-1.368.4-2.374.667-2.011.539-4.811,1.207-7.937,1.782s-5.983.94-8.054,1.15c-1.036.105-1.875.179-2.456.219l-.669.046c-.153.01-.233.01-.233.01s.08-.012.232-.028l.667-.062c.58-.05,1.418-.133,2.452-.246,2.069-.225,4.921-.6,8.045-1.174s5.923-1.232,7.937-1.756c1.007-.261,1.821-.481,2.381-.64l.646-.178c.148-.04.227-.057.227-.057" transform="translate(-77.52 -149.19)" fill="#fff"/>
        <path id="Trazado_833107" data-name="Trazado 833107" d="M81.277,314.494a30.3,30.3,0,0,1-3.25.319c-1.008.057-2.212.062-3.545,0a36.67,36.67,0,0,1-8.55-1.431c-1.28-.38-2.417-.776-3.351-1.158a30.339,30.339,0,0,1-2.969-1.36s.073.029.208.09l.589.274c.254.122.567.268.937.42s.784.345,1.257.518c.936.375,2.072.764,3.351,1.139a37.6,37.6,0,0,0,8.531,1.428c1.331.061,2.532.063,3.539.014.5-.01.958-.055,1.358-.081s.743-.06,1.023-.092l.646-.067c.148-.014.226-.017.226-.017" transform="translate(-32.453 -169.233)" fill="#fff"/>
        <path id="Trazado_833108" data-name="Trazado 833108" d="M146.02,316.49s-.143.028-.415.072l-1.194.192c-1.037.166-2.539.393-4.4.658-3.717.532-8.863,1.19-14.565,1.757s-10.88.929-14.629,1.138c-1.875.1-3.392.178-4.441.219l-1.208.046c-.276.01-.421.01-.421.01s.145-.012.421-.028l1.207-.062,4.439-.246c3.747-.224,8.921-.6,14.624-1.163s10.847-1.215,14.565-1.731l4.4-.63,1.2-.176c.273-.039.418-.055.418-.055" transform="translate(-57.024 -172.294)" fill="#fff"/>
        <path id="Trazado_833109" data-name="Trazado 833109" d="M211.366,161.918s-.121.332-.392.908a16.712,16.712,0,0,1-1.364,2.327,30.09,30.09,0,0,1-2.514,3.113c-1.009,1.119-2.171,2.3-3.35,3.573a30.614,30.614,0,0,0-3.047,3.82,15.985,15.985,0,0,0-1.794,3.553,11,11,0,0,0-.579,2.621c-.043.315-.029.564-.043.73s-.015.256-.015.256a9.07,9.07,0,0,1,.025-.989,10.67,10.67,0,0,1,.554-2.638,15.825,15.825,0,0,1,1.786-3.577,30.131,30.131,0,0,1,3.05-3.835c1.18-1.276,2.344-2.454,3.355-3.568a31.059,31.059,0,0,0,2.523-3.094,17.619,17.619,0,0,0,1.384-2.307c.149-.281.237-.513.312-.663s.111-.231.111-.231" transform="translate(-107.932 -88.146)" fill="#fff"/>
        <path id="Trazado_833110" data-name="Trazado 833110" d="M184.808,162.255s.047-.038.142-.1l.416-.282c.364-.24.878-.608,1.5-1.083s1.331-1.071,2.089-1.77a28.944,28.944,0,0,0,4.341-5.093c.57-.859,1.049-1.656,1.416-2.343s.653-1.251.832-1.649l.213-.455c.049-.1.08-.156.08-.156a22.507,22.507,0,0,1-1.071,2.289c-.361.693-.836,1.495-1.4,2.359a28.066,28.066,0,0,1-4.353,5.107c-.763.7-1.479,1.293-2.106,1.76a22.6,22.6,0,0,1-2.091,1.42" transform="translate(-100.607 -81.289)" fill="#fff"/>
        <path id="Trazado_833111" data-name="Trazado 833111" d="M119.3,178.2a.467.467,0,0,1,.1-.046l.3-.116c.269-.091.652-.261,1.139-.487a15,15,0,0,0,3.7-2.628,29.288,29.288,0,0,0,4.231-5.249,74.286,74.286,0,0,0,4.123-7.184,124.78,124.78,0,0,0,5.854-13.873c.658-1.813,1.169-3.288,1.526-4.306l.412-1.172.113-.3a.448.448,0,0,1,.045-.1.429.429,0,0,1-.025.108l-.092.31-.375,1.185c-.334,1.026-.823,2.51-1.464,4.33a115.993,115.993,0,0,1-5.807,13.918,71.8,71.8,0,0,1-4.149,7.2,28.763,28.763,0,0,1-4.291,5.251,14.541,14.541,0,0,1-3.762,2.593,10.714,10.714,0,0,1-1.16.452l-.309.1a.425.425,0,0,1-.107.026" transform="translate(-64.948 -77.701)" fill="#455a64"/>
        <path id="Trazado_833112" data-name="Trazado 833112" d="M117.769,216.684a1.471,1.471,0,0,1,.228-.174l.674-.466c.583-.407,1.422-1,2.431-1.778,2.026-1.539,4.684-3.84,7.544-6.469,1.434-1.311,2.808-2.551,4-3.739a30.932,30.932,0,0,0,2.946-3.344,18.444,18.444,0,0,0,1.612-2.533c.174-.31.283-.564.37-.73a1.517,1.517,0,0,1,.137-.252,1.43,1.43,0,0,1-.1.269c-.074.173-.171.433-.335.75a16.724,16.724,0,0,1-1.566,2.584,29.387,29.387,0,0,1-2.929,3.392c-1.186,1.2-2.558,2.447-3.992,3.758a98.813,98.813,0,0,1-7.6,6.432c-1.022.761-1.877,1.34-2.475,1.728-.3.194-.537.336-.7.434a1.479,1.479,0,0,1-.251.138" transform="translate(-64.112 -107.353)" fill="#455a64"/>
        <path id="Trazado_833113" data-name="Trazado 833113" d="M93.039,301.322a.406.406,0,0,1,.05-.094l.164-.265c.147-.231.373-.567.674-.992.605-.847,1.536-2.034,2.766-3.432,2.474-2.779,5.942-6.567,9.762-10.763l9.819-10.713,2.993-3.231.821-.871.218-.223c.05-.05.077-.074.079-.071a.422.422,0,0,1-.064.085l-.2.237-.793.9-2.944,3.275-9.773,10.755L96.8,296.638c-1.242,1.382-2.187,2.551-2.811,3.382-.311.416-.546.744-.7.967l-.181.253a.4.4,0,0,1-.068.082" transform="translate(-50.649 -147.348)" fill="#455a64"/>
        <path id="Trazado_833114" data-name="Trazado 833114" d="M178.034,154.6a3.9,3.9,0,0,1-.157-.635,7.329,7.329,0,0,1-.133-.756c-.039-.3-.1-.634-.118-1.011s-.062-.789-.059-1.233c-.017-.444.012-.918.034-1.417a18.269,18.269,0,0,1,1.562-6.276c.215-.451.41-.883.634-1.268.206-.394.426-.744.63-1.061s.4-.594.578-.838a7.429,7.429,0,0,1,.472-.606,3.956,3.956,0,0,1,.436-.488,3.832,3.832,0,0,1-.372.538c-.128.167-.28.373-.441.623s-.364.523-.548.849-.405.671-.6,1.065c-.215.384-.4.816-.611,1.264a19.13,19.13,0,0,0-1.546,6.212c-.027.493-.063.962-.053,1.4-.01.441.011.849.033,1.223s.059.71.086,1.006.063.55.1.757a3.926,3.926,0,0,1,.077.649" transform="translate(-96.663 -75.673)" fill="#455a64"/>
        <path id="Trazado_833115" data-name="Trazado 833115" d="M188.149,197.146a39.618,39.618,0,0,1-1.679-3.707,39.761,39.761,0,0,1-1.486-3.789,79.227,79.227,0,0,1,3.165,7.5" transform="translate(-100.701 -103.243)" fill="#455a64"/>
        <path id="Trazado_833116" data-name="Trazado 833116" d="M50.665,167.106c-.032.017-.357-.58-.972-1.485a20.867,20.867,0,0,0-6.086-5.907c-.924-.587-1.53-.894-1.514-.927a2.1,2.1,0,0,1,.442.184c.28.128.674.337,1.149.617a18.486,18.486,0,0,1,6.132,5.951c.294.467.515.854.652,1.13a2.1,2.1,0,0,1,.2.436" transform="translate(-22.915 -86.441)" fill="#455a64"/>
        <path id="Trazado_833117" data-name="Trazado 833117" d="M96.9,152.364a1.38,1.38,0,0,1,0-.43,3.371,3.371,0,0,1,.254-1.008,3.286,3.286,0,0,1,.7-1.06l.024-.023.011.028a.653.653,0,0,1,.064.184.661.661,0,0,1-.1-.165l.035.005a4.18,4.18,0,0,0-.654,1.065,5.265,5.265,0,0,0-.33,1.4" transform="translate(-52.743 -81.573)" fill="#455a64"/>
        <path id="Trazado_833118" data-name="Trazado 833118" d="M108.924,158.319a1.442,1.442,0,0,1-.086-.416,3.928,3.928,0,0,1,.313-2.013,1.456,1.456,0,0,1,.208-.371,5.221,5.221,0,0,0-.436,2.8" transform="translate(-59.238 -84.663)" fill="#455a64"/>
        <path id="Trazado_833119" data-name="Trazado 833119" d="M121.549,157.945a4.54,4.54,0,0,0-.613-2.239,1.034,1.034,0,0,1,.208.28,3.18,3.18,0,0,1,.441,1.612,1.025,1.025,0,0,1-.036.347" transform="translate(-65.836 -84.764)" fill="#455a64"/>
        <path id="Trazado_833120" data-name="Trazado 833120" d="M132.049,153.25a4.748,4.748,0,0,0-1.5-1.925,1.122,1.122,0,0,1,.314.19,3.386,3.386,0,0,1,1.082,1.385,1.132,1.132,0,0,1,.108.351" transform="translate(-71.067 -82.379)" fill="#455a64"/>
        <path id="Trazado_833121" data-name="Trazado 833121" d="M139.481,145.674a2.323,2.323,0,0,0-1.952-1.685c0-.006.039-.009.11-.008a1.4,1.4,0,0,1,.3.039,2.083,2.083,0,0,1,1.453,1.255,1.416,1.416,0,0,1,.082.289c.011.07.015.109.009.11" transform="translate(-74.869 -78.382)" fill="#455a64"/>
        <path id="Trazado_833122" data-name="Trazado 833122" d="M143.309,132.414a2.341,2.341,0,0,0-2.313-.427,1.914,1.914,0,0,1,2.313.427" transform="translate(-76.756 -71.733)" fill="#455a64"/>
        <path id="Trazado_833123" data-name="Trazado 833123" d="M88.962,143.491a1,1,0,0,1,.088-.358,2.4,2.4,0,0,1,1.183-1.287.988.988,0,0,1,.349-.118,2.93,2.93,0,0,0-1.62,1.762" transform="translate(-48.429 -77.155)" fill="#455a64"/>
        <path id="Trazado_833124" data-name="Trazado 833124" d="M86.068,134.187a1.2,1.2,0,0,1,.208-.337,3.059,3.059,0,0,1,1.565-1.059,1.206,1.206,0,0,1,.39-.067,3.9,3.9,0,0,0-2.164,1.463" transform="translate(-46.854 -72.252)" fill="#455a64"/>
        <path id="Trazado_833125" data-name="Trazado 833125" d="M61.937,192.237c0,.005-.019-.022-.028,0a.557.557,0,0,0-.035.137c-.021.127-.045.316-.069.561-.048.49-.1,1.2-.164,2.08-.119,1.759-.257,4.19-.388,6.877s-.227,5.122-.287,6.883c-.028.855-.051,1.56-.069,2.087-.009.225-.017.412-.023.568a.679.679,0,0,1-.022.2.707.707,0,0,1-.021-.2c-.005-.155-.01-.343-.017-.568-.009-.493-.011-1.207,0-2.089.021-1.765.093-4.2.224-6.891s.293-5.121.452-6.879c.079-.879.159-1.589.233-2.078a4.859,4.859,0,0,1,.11-.56.413.413,0,0,1,.059-.141c.041-.037.051.02.046.01" transform="translate(-33.102 -104.639)" fill="#263238"/>
        <path id="Trazado_833126" data-name="Trazado 833126" d="M114.89,3.253C111.407,2.188,107.777,5.305,104.2,4.6c-2.171-.425-3.809-2.16-5.741-3.238a11.144,11.144,0,0,0-9.92-.376c-2.949,1.5-4.85,3.1-5.252,6.38C80.6,5.83,76.126,9.209,74.6,12.469s-1.142,6.631-.277,10.125a47.5,47.5,0,0,0,7.856,16.72c.326.442.846.93,1.343.7a1.2,1.2,0,0,0,.516-.963c.513-3.2.108-6.456-.169-9.68s-.412-6.549.606-9.621,3.421-5.874,6.6-6.5a10.257,10.257,0,0,1,6.866,1.47c2.084,1.17,3.916,2.736,5.9,4.068a13.185,13.185,0,0,0,6.6,2.559,6.261,6.261,0,0,0,5.968-3.185c1.017-2.163-.124-5.236-2.463-5.732a4.85,4.85,0,0,0,4.244-4.2,4.849,4.849,0,0,0-3.3-4.974" transform="translate(-40.048 0)" fill="#263238"/>
        <path id="Trazado_833127" data-name="Trazado 833127" d="M110.842,64.749l-.338-6.915s9.113-1.746,8.9-10.911c-.1-4.426-1.049-13.522-2-21.745a17.082,17.082,0,0,0-17.567-15.1l-.884.031C89.443,11,84.886,19.571,86.04,29.055l2.193,36.917a11.321,11.321,0,0,0,22.609-1.223" transform="translate(-46.744 -5.478)" fill="#ffbe9d"/>
        <path id="Trazado_833128" data-name="Trazado 833128" d="M125.556,111.346a21.319,21.319,0,0,1-12.063-2.976s3.054,6.494,12.167,5.348Z" transform="translate(-61.784 -58.995)" fill="#eb996e"/>
        <path id="Trazado_833129" data-name="Trazado 833129" d="M147.417,55.512a1.309,1.309,0,0,1-1.215,1.364,1.252,1.252,0,0,1-1.39-1.132,1.309,1.309,0,0,1,1.214-1.365,1.253,1.253,0,0,1,1.391,1.133" transform="translate(-78.832 -29.6)" fill="#263238"/>
        <path id="Trazado_833130" data-name="Trazado 833130" d="M144.934,51.68c-.156.176-1.173-.523-2.581-.469-1.406.032-2.414.793-2.573.626-.077-.074.077-.387.515-.731a3.593,3.593,0,0,1,2.053-.713,3.451,3.451,0,0,1,2.062.587c.445.317.6.621.525.7" transform="translate(-76.084 -27.433)" fill="#263238"/>
        <path id="Trazado_833131" data-name="Trazado 833131" d="M117.713,56.889a1.309,1.309,0,0,1-1.215,1.364,1.252,1.252,0,0,1-1.39-1.132,1.31,1.31,0,0,1,1.214-1.365,1.253,1.253,0,0,1,1.391,1.133" transform="translate(-62.661 -30.35)" fill="#263238"/>
        <path id="Trazado_833132" data-name="Trazado 833132" d="M114.581,53.322c-.157.176-1.175-.522-2.582-.469-1.406.033-2.415.793-2.573.626-.077-.074.075-.387.515-.731a3.593,3.593,0,0,1,2.053-.713,3.454,3.454,0,0,1,2.062.586c.443.317.6.621.525.7" transform="translate(-59.56 -28.327)" fill="#263238"/>
        <path id="Trazado_833133" data-name="Trazado 833133" d="M131.5,63.394a9.318,9.318,0,0,1,2.272-.493c.358-.05.7-.133.748-.38a1.833,1.833,0,0,0-.277-1.057l-1.159-2.7c-1.613-3.846-2.794-7.013-2.639-7.077s1.59,3,3.2,6.848q.584,1.423,1.115,2.718a2.081,2.081,0,0,1,.236,1.4.9.9,0,0,1-.573.546,2.462,2.462,0,0,1-.607.107,9.175,9.175,0,0,1-2.318.084" transform="translate(-71.007 -28.137)" fill="#263238"/>
        <path id="Trazado_833134" data-name="Trazado 833134" d="M127.931,85.391c-.192.125-.954-1.2-2.629-1.492s-3,.662-3.121.483c-.066-.072.168-.438.756-.8a3.808,3.808,0,0,1,2.562-.478,3.318,3.318,0,0,1,2.12,1.3c.368.526.408.939.313.984" transform="translate(-66.508 -45.214)" fill="#263238"/>
        <path id="Trazado_833135" data-name="Trazado 833135" d="M106.768,44.744c.079-.4,1.5-.434,3.1-.882,1.612-.416,2.856-1.1,3.125-.79.122.148-.053.539-.529.988a5.6,5.6,0,0,1-4.743,1.274c-.637-.149-.984-.4-.953-.589" transform="translate(-58.122 -23.406)" fill="#263238"/>
        <path id="Trazado_833136" data-name="Trazado 833136" d="M141.354,42.77c.306-.265,1.192.253,2.333.5,1.132.286,2.155.215,2.312.588.066.179-.15.462-.633.674a3.453,3.453,0,0,1-3.742-.876c-.339-.4-.407-.754-.269-.885" transform="translate(-76.915 -23.244)" fill="#263238"/>
        <path id="Trazado_833137" data-name="Trazado 833137" d="M81.291,66.315c-.159-.062-6.36-1.641-5.94,4.615s6.614,4.544,6.613,4.364-.673-8.979-.673-8.979" transform="translate(-41.009 -35.98)" fill="#ffbe9d"/>
        <path id="Trazado_833138" data-name="Trazado 833138" d="M81.812,75.545c-.029-.018-.1.084-.282.18a1.092,1.092,0,0,1-.814.072,2.7,2.7,0,0,1-1.41-2.336,3.6,3.6,0,0,1,.2-1.581,1.263,1.263,0,0,1,.764-.892.557.557,0,0,1,.663.256c.1.169.064.3.1.306.019.014.128-.114.06-.369a.7.7,0,0,0-.272-.375.824.824,0,0,0-.613-.119,1.534,1.534,0,0,0-1.073,1.047,3.711,3.711,0,0,0-.261,1.769A2.835,2.835,0,0,0,80.642,76.1a1.168,1.168,0,0,0,.985-.232c.183-.168.207-.309.185-.319" transform="translate(-42.927 -38.473)" fill="#eb996e"/>
        <path id="Trazado_833139" data-name="Trazado 833139" d="M118.056,21.332A13.24,13.24,0,0,1,106.209,19.1c-2.294-1.812-4.11-4.467-6.932-5.229a7.447,7.447,0,0,0-5.663.978,14.385,14.385,0,0,0-4.175,4.116c1.933,4.594.926,9.833-.109,14.708a2.5,2.5,0,0,1-.678,1.471,1.991,1.991,0,0,1-2.515-.463,7.738,7.738,0,0,1-1.842-4.024A25.78,25.78,0,0,1,84,20.49a17.553,17.553,0,0,1,4.51-9.023,16.626,16.626,0,0,1,11.5-4.814,20.417,20.417,0,0,1,11.984,3.817,11.965,11.965,0,0,1,4,4.3" transform="translate(-45.522 -3.62)" fill="#263238"/>
        <path id="Trazado_833140" data-name="Trazado 833140" d="M130.412,9.4a1.346,1.346,0,0,1-.037.545,2.544,2.544,0,0,1-.83,1.322,3.992,3.992,0,0,1-2.314.863,6.689,6.689,0,0,1-1.557-.041,3.332,3.332,0,0,1-1.622-.684,2.211,2.211,0,0,1-.845-1.741,1.947,1.947,0,0,1,1.274-1.645A2.415,2.415,0,0,1,125.6,7.84a2.044,2.044,0,0,1,1.093.445,2.849,2.849,0,0,1,1.01,2.157,3.3,3.3,0,0,1-.907,2.332,5.027,5.027,0,0,1-2.224,1.367,8.251,8.251,0,0,1-5.373-.394,23.6,23.6,0,0,1-4.73-2.627,29.873,29.873,0,0,0-4.3-2.535,9.287,9.287,0,0,0-4.34-.9,8.879,8.879,0,0,0-3.714,1.093A11.1,11.1,0,0,0,98.1,12.706a14.6,14.6,0,0,0-.749,1.359,4.316,4.316,0,0,1-.246.485.47.47,0,0,1,.04-.133c.032-.086.077-.214.149-.378a11.762,11.762,0,0,1,.7-1.4,10.958,10.958,0,0,1,4.02-4.052,9.056,9.056,0,0,1,3.8-1.159,9.51,9.51,0,0,1,4.472.892,29.753,29.753,0,0,1,4.347,2.543,23.557,23.557,0,0,0,4.672,2.59,7.973,7.973,0,0,0,5.172.394,4.736,4.736,0,0,0,2.095-1.276,3.012,3.012,0,0,0,.84-2.125,2.577,2.577,0,0,0-.893-1.951,1.887,1.887,0,0,0-1.946-.238,1.7,1.7,0,0,0-1.133,1.419,1.989,1.989,0,0,0,.747,1.562,3.143,3.143,0,0,0,1.513.657,6.614,6.614,0,0,0,1.512.063,3.9,3.9,0,0,0,2.248-.782,2.56,2.56,0,0,0,.847-1.245,4.35,4.35,0,0,0,.1-.529" transform="translate(-52.863 -4.037)" fill="#455a64"/>
        <path id="Trazado_833141" data-name="Trazado 833141" d="M73.8,31.1a10.339,10.339,0,0,0,1.93.43,5.383,5.383,0,0,0,2.091-.292,9.034,9.034,0,0,0,2.309-1.213,7.323,7.323,0,0,0,2.66-3.829,14.973,14.973,0,0,0,.348-1.955,1.611,1.611,0,0,1,.051.541,6.22,6.22,0,0,1-.188,1.471,7.146,7.146,0,0,1-2.689,4.023,8.779,8.779,0,0,1-2.4,1.234,5.32,5.32,0,0,1-2.2.238,4.96,4.96,0,0,1-1.437-.384A1.589,1.589,0,0,1,73.8,31.1" transform="translate(-40.178 -13.196)" fill="#455a64"/>
        <path id="Trazado_833142" data-name="Trazado 833142" d="M74.753,40.948c.006-.057.743.08,1.922-.028a8.6,8.6,0,0,0,7.139-5.088c.487-1.079.6-1.82.654-1.808a1.54,1.54,0,0,1-.048.523,7.208,7.208,0,0,1-.4,1.371,8.3,8.3,0,0,1-7.326,5.221,7.2,7.2,0,0,1-1.429-.066,1.537,1.537,0,0,1-.509-.125" transform="translate(-40.695 -18.522)" fill="#455a64"/>
        <path id="Trazado_833143" data-name="Trazado 833143" d="M110.723,67.958a.171.171,0,1,1,.112-.2.164.164,0,0,1-.112.2" transform="translate(-60.17 -36.814)" fill="#eb996e"/>
        <path id="Trazado_833144" data-name="Trazado 833144" d="M116.571,66.355a.2.2,0,1,1,.106-.226.179.179,0,0,1-.106.226" transform="translate(-63.35 -35.915)" fill="#eb996e"/>
        <path id="Trazado_833145" data-name="Trazado 833145" d="M120.547,65.973c-.085.014-.171-.087-.194-.226s.028-.262.113-.276.172.087.194.226-.028.262-.113.276" transform="translate(-65.516 -35.641)" fill="#eb996e"/>
        <path id="Trazado_833146" data-name="Trazado 833146" d="M113.8,71.725c-.086,0-.157-.039-.159-.094s.066-.1.152-.1.157.039.159.094-.066.1-.152.1" transform="translate(-61.864 -38.938)" fill="#eb996e"/>
        <path id="Trazado_833147" data-name="Trazado 833147" d="M119.148,70.1a.178.178,0,1,1,.133-.194.167.167,0,0,1-.133.194" transform="translate(-64.766 -37.968)" fill="#eb996e"/>
        <path id="Trazado_833148" data-name="Trazado 833148" d="M147.184,65.752a.177.177,0,1,1,.111-.206.166.166,0,0,1-.111.206" transform="translate(-80.018 -35.607)" fill="#eb996e"/>
        <path id="Trazado_833149" data-name="Trazado 833149" d="M151.211,65.189a.2.2,0,1,1,.128-.215.179.179,0,0,1-.128.215" transform="translate(-82.219 -35.276)" fill="#eb996e"/>
        <path id="Trazado_833150" data-name="Trazado 833150" d="M143.647,66.065a.138.138,0,1,1,.12-.169.147.147,0,0,1-.12.169" transform="translate(-78.098 -35.818)" fill="#eb996e"/>
        <path id="Trazado_833151" data-name="Trazado 833151" d="M146.708,69.9a.182.182,0,1,1,.062-.229.169.169,0,0,1-.062.229" transform="translate(-79.736 -37.872)" fill="#eb996e"/>
        <path id="Trazado_833152" data-name="Trazado 833152" d="M150.257,69.19a.133.133,0,1,1,.181-.092.145.145,0,0,1-.181.092" transform="translate(-81.73 -37.525)" fill="#eb996e"/>
        <path id="Trazado_833153" data-name="Trazado 833153" d="M81.559,232.513a11.369,11.369,0,0,0-3.889.124c2.624-.674,3.655-1.484,3.551-2.166-.178-1.171-6.313-.227-9.171.277,2.355-.445,6.859-1.339,7.82-1.838,1.314-.683-.335-1.381-1.863-1.572-1.714-.214-11.852-.028-14.781-.127a1.728,1.728,0,0,1-1.866-1.848c.928-4.151-.567-7.878-1.446-8.7s-2.3.114-2.031,1.417a15.9,15.9,0,0,1-.137,4.3,10.166,10.166,0,0,1-1.006,3.283c-.349.687-.681,1.3-1,1.856l-31.4,6.539,3.095-9.472L8.149,218.847.985,237.578a14.9,14.9,0,0,0,18.708,19.44l41.485-13.391L76.3,237.889c3.788-1.3,5.259-2.109,4.968-2.8-.387-.925-.2-.586-7.419.806,0,0,10.292-2.078,7.709-3.38" transform="translate(0 -117.782)" fill="#ffbe9d"/>
        <path id="Trazado_833154" data-name="Trazado 833154" d="M153.739,259.106c.031.182,2.265-.153,4.989-.749s4.894-1.224,4.846-1.4-2.282.157-4.99.749-4.877,1.22-4.846,1.4" transform="translate(-83.693 -139.857)" fill="#eb996e"/>
        <path id="Trazado_833155" data-name="Trazado 833155" d="M150.18,252.856c.029.182,2.429-.041,5.36-.5s5.286-.977,5.257-1.16-2.428.041-5.36.5-5.286.977-5.257,1.16" transform="translate(-81.756 -136.714)" fill="#eb996e"/>
        <path id="Trazado_833156" data-name="Trazado 833156" d="M147.463,247.278c.026.183,2.3.01,5.081-.387s5.012-.867,4.986-1.049-2.3-.01-5.081.387-5.012.867-4.986,1.049" transform="translate(-80.277 -133.794)" fill="#eb996e"/>
        <path id="Trazado_833157" data-name="Trazado 833157" d="M40.748,255.212a2.038,2.038,0,0,1-.433.252l-1.211.621c-1.022.523-2.427,1.26-3.951,2.123s-2.877,1.692-3.85,2.3l-1.154.72a2.038,2.038,0,0,1-.439.242,2.039,2.039,0,0,1,.387-.318c.258-.193.638-.462,1.114-.785.953-.646,2.3-1.5,3.825-2.367s2.95-1.582,3.994-2.067c.522-.243.948-.432,1.246-.554a2.037,2.037,0,0,1,.472-.169" transform="translate(-16.174 -138.933)" fill="#eb996e"/>
      </g>
    </g>
    <g id="Grupo_1080988" data-name="Grupo 1080988">
      <g id="Grupo_1080987" data-name="Grupo 1080987" clip-path="url(#clip-path)">
        <path id="Trazado_833158" data-name="Trazado 833158" d="M306.017,141.962a19.843,19.843,0,0,1,5.838-1.473c2.56-.316,5.473-.291,7.313,1.517,1.73,1.7,2.04,4.572,3.994,6.01,1.512,1.112,3.548,1.033,5.41,1.262a16.728,16.728,0,0,1,10.532,5.875,21.314,21.314,0,0,1,4.711,11.221c.575,4.79-.187,9.99,2.244,14.158,2.165,3.713,6.4,5.7,10.534,6.863-2.576,4.165-17.105,13.02-21.647,14.852L330.7,166.583s-16.678-19.236-22.58-18.987Z" transform="translate(-166.592 -76.397)" fill="#e8505b"/>
        <g id="Grupo_1080977" data-name="Grupo 1080977" transform="translate(139.425 63.939)" opacity="0.4">
          <g id="Grupo_1080976" data-name="Grupo 1080976">
            <g id="Grupo_1080975" data-name="Grupo 1080975" clip-path="url(#clip-path-4)">
              <path id="Trazado_833159" data-name="Trazado 833159" d="M306.017,141.962a19.843,19.843,0,0,1,5.838-1.473c2.56-.316,5.473-.291,7.313,1.517,1.73,1.7,2.04,4.572,3.994,6.01,1.512,1.112,3.548,1.033,5.41,1.262a16.728,16.728,0,0,1,10.532,5.875,21.314,21.314,0,0,1,4.711,11.221c.575,4.79-.187,9.99,2.244,14.158,2.165,3.713,6.4,5.7,10.534,6.863-2.576,4.165-17.105,13.02-21.647,14.852L330.7,166.583s-16.678-19.236-22.58-18.987Z" transform="translate(-306.017 -140.336)"/>
            </g>
          </g>
        </g>
        <path id="Trazado_833160" data-name="Trazado 833160" d="M373.134,193.058c.007,0-.012.049-.053.132a2.826,2.826,0,0,1-.208.348,4.371,4.371,0,0,1-1.056,1.056,5.443,5.443,0,0,1-2.035.878,12.77,12.77,0,0,1-2.7.181c-.954-.015-1.86-.056-2.677-.011a9.1,9.1,0,0,0-2.135.344,6.916,6.916,0,0,0-1.79.877c-.005-.006.027-.042.094-.106a2.9,2.9,0,0,1,.313-.258,5.033,5.033,0,0,1,1.332-.672,8.578,8.578,0,0,1,2.174-.4c.831-.057,1.742-.023,2.692-.008a13.472,13.472,0,0,0,2.65-.158,5.517,5.517,0,0,0,1.983-.8,5.938,5.938,0,0,0,1.412-1.4" transform="translate(-196.243 -105.098)" fill="#fafafa"/>
        <path id="Trazado_833161" data-name="Trazado 833161" d="M374.607,216.674a2.288,2.288,0,0,1-.429.318,5.651,5.651,0,0,1-.532.329c-.213.119-.451.265-.731.393a14.187,14.187,0,0,1-2,.81,14.763,14.763,0,0,1-5.229.678,14.111,14.111,0,0,1-2.143-.273c-.3-.052-.57-.133-.806-.193a5.766,5.766,0,0,1-.6-.183,2.268,2.268,0,0,1-.5-.2c.014-.043.733.2,1.931.41a16.092,16.092,0,0,0,2.121.219,15.821,15.821,0,0,0,5.156-.669,16.131,16.131,0,0,0,1.995-.753c1.106-.507,1.739-.927,1.763-.888" transform="translate(-196.873 -117.954)" fill="#fafafa"/>
        <path id="Trazado_833162" data-name="Trazado 833162" d="M384.057,237.541c0,.021-.25.016-.689.079a4.883,4.883,0,0,0-1.75.634,13.724,13.724,0,0,0-2.21,1.7,26.333,26.333,0,0,1-2.632,2.243,11.62,11.62,0,0,1-3.106,1.545,9.161,9.161,0,0,1-2.8.432,7.185,7.185,0,0,1-1.89-.267c-.218-.06-.379-.131-.49-.171s-.166-.07-.164-.077a9.949,9.949,0,0,0,2.544.347,9.443,9.443,0,0,0,2.734-.472A11.831,11.831,0,0,0,376.641,242a28.655,28.655,0,0,0,2.622-2.212,12.971,12.971,0,0,1,2.274-1.685,4.608,4.608,0,0,1,1.821-.579,3.592,3.592,0,0,1,.52-.011.534.534,0,0,1,.18.024" transform="translate(-200.512 -129.299)" fill="#fafafa"/>
        <path id="Trazado_833163" data-name="Trazado 833163" d="M362.619,172.856c.008,0-.006.055-.039.152a2.8,2.8,0,0,1-.178.411,3.828,3.828,0,0,1-1.075,1.247,6.425,6.425,0,0,1-2.206,1.045,15.443,15.443,0,0,1-2.942.467c-1.049.087-2.046.154-2.933.318a8.834,8.834,0,0,0-2.274.717,6.388,6.388,0,0,0-1.758,1.315c-.006-.005.021-.051.08-.134a3.1,3.1,0,0,1,.284-.346,5.077,5.077,0,0,1,1.318-.985,8.477,8.477,0,0,1,2.31-.782,27.353,27.353,0,0,1,2.954-.34,16.322,16.322,0,0,0,2.9-.441,6.538,6.538,0,0,0,2.164-.968,4.074,4.074,0,0,0,1.095-1.158c.2-.325.275-.526.3-.517" transform="translate(-190.108 -94.1)" fill="#fafafa"/>
        <path id="Trazado_833164" data-name="Trazado 833164" d="M336.032,165.932c.008-.008.037.027.108.047a.426.426,0,0,0,.308-.074,2.549,2.549,0,0,0,.413-.354l.538-.505a33.687,33.687,0,0,1,3.274-2.765,12.263,12.263,0,0,1,3.843-1.905,7.448,7.448,0,0,1,1.283-.235,1.607,1.607,0,0,1,.478-.006c.005.044-.677.081-1.715.4a13.481,13.481,0,0,0-3.752,1.937c-1.349.968-2.467,1.987-3.3,2.7l-.562.479a2.285,2.285,0,0,1-.458.337.448.448,0,0,1-.368.037c-.08-.042-.1-.09-.091-.092" transform="translate(-182.932 -87.169)" fill="#fafafa"/>
        <path id="Trazado_833165" data-name="Trazado 833165" d="M320.947,146.736a1.743,1.743,0,0,1-.3.423,6,6,0,0,1-1.047.963,5.35,5.35,0,0,1-1.922.888,6.622,6.622,0,0,1-2.589-.022,17.008,17.008,0,0,0-2.525-.318,10.275,10.275,0,0,0-2.063.162c-1.164.215-1.843.518-1.858.477a1.824,1.824,0,0,1,.467-.228,8.408,8.408,0,0,1,1.359-.413,9.486,9.486,0,0,1,2.1-.216,15.611,15.611,0,0,1,2.559.3,6.643,6.643,0,0,0,2.5.042,5.427,5.427,0,0,0,1.873-.813,11.677,11.677,0,0,0,1.448-1.248" transform="translate(-168.019 -79.881)" fill="#fafafa"/>
        <path id="Trazado_833166" data-name="Trazado 833166" d="M274.991,150.387c-3.183-.865-5.538-1.815-8.79-1.961l-35.272,4.518-3.667,24.278s11.708,23.929,13.931,26.828c4.162,5.426-10.5,27.77-10.021,31.211h63.183s-.618-48.162-4.372-70.4a16.164,16.164,0,0,0-5.863-10.066,30.066,30.066,0,0,0-9.128-4.412" transform="translate(-123.719 -80.801)" fill="#e8505b"/>
        <path id="Trazado_833167" data-name="Trazado 833167" d="M287.645,293.878a1.114,1.114,0,0,1-.2-.172l-.545-.524c-.467-.461-1.151-1.12-2-1.924-1.706-1.611-4.124-3.771-6.932-5.989s-5.475-4.065-7.438-5.35c-.981-.643-1.781-1.154-2.338-1.5l-.637-.408a1.143,1.143,0,0,1-.214-.156,1.1,1.1,0,0,1,.238.115l.66.37c.572.323,1.386.814,2.381,1.44a88.249,88.249,0,0,1,14.395,11.359c.84.821,1.507,1.5,1.955,1.981l.513.555a1.121,1.121,0,0,1,.167.205" transform="translate(-145.534 -151.26)" fill="#263238"/>
        <path id="Trazado_833168" data-name="Trazado 833168" d="M302.316,200.142a1.5,1.5,0,1,1,1.837-.428,1.35,1.35,0,0,1-1.837.428" transform="translate(-164.361 -107.58)" fill="#263238"/>
        <path id="Trazado_833169" data-name="Trazado 833169" d="M329.577,158.177c-.313.576-.884.87-1.275.657s-.454-.852-.141-1.427.884-.87,1.275-.657.454.852.141,1.427" transform="translate(-178.539 -85.295)" fill="#263238"/>
        <path id="Trazado_833170" data-name="Trazado 833170" d="M318.852,218.875a.988.988,0,1,1,1.245-.891,1.094,1.094,0,0,1-1.245.891" transform="translate(-172.967 -118.101)" fill="#263238"/>
        <path id="Trazado_833171" data-name="Trazado 833171" d="M281.973,196.854a1.16,1.16,0,1,1,.317-1.628,1.173,1.173,0,0,1-.317,1.628" transform="translate(-152.503 -106.009)" fill="#263238"/>
        <path id="Trazado_833172" data-name="Trazado 833172" d="M260.205,246.751a1.648,1.648,0,1,1,1.757-.908,1.428,1.428,0,0,1-1.757.908" transform="translate(-141.336 -132.728)" fill="#263238"/>
        <path id="Trazado_833173" data-name="Trazado 833173" d="M274.092,252.757a1.064,1.064,0,0,1-1.447-.242c-.214-.426.089-1.01.675-1.3a1.064,1.064,0,0,1,1.447.241c.213.426-.089,1.01-.675,1.3" transform="translate(-148.388 -136.668)" fill="#263238"/>
        <path id="Trazado_833174" data-name="Trazado 833174" d="M267.2,269.895a1.052,1.052,0,1,1-1.158-1.673,1.67,1.67,0,0,1,.877-.089.731.731,0,0,1,.673.972,1.67,1.67,0,0,1-.392.79" transform="translate(-144.458 -145.956)" fill="#263238"/>
        <path id="Trazado_833175" data-name="Trazado 833175" d="M290.163,278.556a.979.979,0,1,1-1.506-.234,1.091,1.091,0,0,1,1.506.234" transform="translate(-156.995 -151.401)" fill="#263238"/>
        <path id="Trazado_833176" data-name="Trazado 833176" d="M255.063,323.713a1.1,1.1,0,1,1,1.026-1.247,1.144,1.144,0,0,1-1.026,1.247" transform="translate(-138.127 -175.037)" fill="#263238"/>
        <path id="Trazado_833177" data-name="Trazado 833177" d="M268.417,297.143a.906.906,0,0,1-.252.929,1.786,1.786,0,0,1-2.47-.095.9.9,0,0,1-.18-.946,1.4,1.4,0,0,1,.64-.667,1.549,1.549,0,0,1,1.675.064,1.4,1.4,0,0,1,.587.714" transform="translate(-144.508 -161.22)" fill="#263238"/>
        <path id="Trazado_833178" data-name="Trazado 833178" d="M276.124,318.088a1.479,1.479,0,1,1,1.115-1.5,1.338,1.338,0,0,1-1.115,1.5" transform="translate(-149.635 -171.586)" fill="#263238"/>
        <path id="Trazado_833179" data-name="Trazado 833179" d="M297.138,308.838a.994.994,0,0,1-.865.332,1.416,1.416,0,0,1-1.177-1.648,1,1,0,0,1,.595-.711,1.4,1.4,0,0,1,.9-.044,1.133,1.133,0,0,1,.878,1.23,1.4,1.4,0,0,1-.335.841" transform="translate(-160.631 -166.971)" fill="#263238"/>
        <path id="Trazado_833180" data-name="Trazado 833180" d="M299.954,328.678a1.627,1.627,0,1,1,1.856-.645,1.416,1.416,0,0,1-1.856.645" transform="translate(-163.048 -177.424)" fill="#263238"/>
        <path id="Trazado_833181" data-name="Trazado 833181" d="M330.208,330.745a1.477,1.477,0,1,1,1.87.079,1.337,1.337,0,0,1-1.87-.079" transform="translate(-179.651 -178.88)" fill="#263238"/>
        <path id="Trazado_833182" data-name="Trazado 833182" d="M364.855,331.946a1.061,1.061,0,0,1-1.412-.362c-.169-.436.19-.982.8-1.218a1.06,1.06,0,0,1,1.411.362c.169.436-.19.982-.8,1.218" transform="translate(-197.831 -179.788)" fill="#263238"/>
        <path id="Trazado_833183" data-name="Trazado 833183" d="M234.352,62.528a23.294,23.294,0,0,0-3.162,5.009,7.841,7.841,0,0,0-.3,5.788A15.888,15.888,0,0,1,232,76c.348,1.812-.8,3.526-1.373,5.281a8.723,8.723,0,0,0,1.331,7.837,11.957,11.957,0,0,0,5.627,3.794c3.993,1.416,9.033,1.217,11.767-2.02" transform="translate(-125.332 -34.04)" fill="#263238"/>
        <path id="Trazado_833184" data-name="Trazado 833184" d="M299.434,54.869c.762,4.012,6.512,5.636,7.058,9.684.234,1.736-.6,3.455-.552,5.207.069,2.355,1.694,4.34,2.518,6.546,1.7,4.546-.277,9.916-3.936,13.1S295.853,93.865,291,93.939" transform="translate(-158.417 -29.87)" fill="#263238"/>
        <path id="Trazado_833185" data-name="Trazado 833185" d="M271.7,47.189c-.243-1.972-2.291-3.213-4.229-3.654s-4.011-.4-5.809-1.251c-1.591-.751-2.792-2.118-4.2-3.171a12.234,12.234,0,0,0-19.494,8.65c-.276,2.9.708,6.138,3.2,7.66,2.888,1.767,6.608.71,9.785-.461s6.787-2.4,9.818-.89c1.828.909,3.063,2.654,4.338,4.249s2.814,3.186,4.823,3.552,4.427-1.164,4.194-3.192" transform="translate(-129.523 -19.991)" fill="#263238"/>
        <path id="Trazado_833186" data-name="Trazado 833186" d="M252.641,109.178c-.714-4.5-1.41-8.89-1.408-8.867,0,0-7.343-.113-10.231-9.238-1.436-4.537-2.347-12.194-2.89-18.483-.488-5.661,2.193-13.1,7.869-13.347l18.11,1.79a3.325,3.325,0,0,1,3.442,2.893l4.855,42.561a9.967,9.967,0,0,1-19.747,2.69" transform="translate(-129.595 -32.252)" fill="#ffbe9d"/>
        <path id="Trazado_833187" data-name="Trazado 833187" d="M248.4,98.556c-.172-.134-.98.674-2.27.864-1.286.208-2.332-.313-2.448-.134-.058.08.135.339.592.578a3.331,3.331,0,0,0,1.99.3,3.2,3.2,0,0,0,1.777-.883c.351-.364.443-.667.359-.726" transform="translate(-132.652 -53.645)" fill="#263238"/>
        <path id="Trazado_833188" data-name="Trazado 833188" d="M275.314,96.081c-.18-.123-.938.734-2.213,1-1.271.287-2.347-.169-2.452.016-.053.083.154.331.627.54a3.327,3.327,0,0,0,2,.179,3.2,3.2,0,0,0,1.72-.99c.327-.385.4-.693.314-.747" transform="translate(-147.333 -52.299)" fill="#263238"/>
        <path id="Trazado_833189" data-name="Trazado 833189" d="M259.792,102.637a8.634,8.634,0,0,0-2.152-.064c-.334.015-.656,0-.745-.219a1.7,1.7,0,0,1,.073-1.01l.6-2.654a43.586,43.586,0,0,0,1.2-6.889,43.707,43.707,0,0,0-1.754,6.776q-.29,1.394-.554,2.664a1.929,1.929,0,0,0,.023,1.319.835.835,0,0,0,.614.4,2.238,2.238,0,0,0,.571-.006,8.493,8.493,0,0,0,2.124-.316" transform="translate(-139.554 -49.975)" fill="#263238"/>
        <path id="Trazado_833190" data-name="Trazado 833190" d="M266.979,143.146A24.049,24.049,0,0,0,279,137.927c-.1.038-2.456,7.021-11.559,7.407Z" transform="translate(-145.34 -75.086)" fill="#eb996e"/>
        <path id="Trazado_833191" data-name="Trazado 833191" d="M272.386,88.178c-.247-.285-1.4.337-2.9.711-1.488.4-2.8.426-2.877.8-.03.175.29.409.878.552a5.186,5.186,0,0,0,4.4-1.148c.444-.412.608-.773.5-.911" transform="translate(-145.139 -47.964)" fill="#263238"/>
        <path id="Trazado_833192" data-name="Trazado 833192" d="M248.427,92.542c-.219-.3-1.128-.027-2.208-.05-1.081.015-1.987-.267-2.209.035-.1.148.037.449.427.743a3.052,3.052,0,0,0,1.778.547A2.023,2.023,0,0,0,248,93.282c.392-.292.528-.592.431-.74" transform="translate(-132.82 -50.294)" fill="#263238"/>
        <path id="Trazado_833193" data-name="Trazado 833193" d="M279.531,89.542c-2.491.91-2.919-.363-5.111-1.855a8.536,8.536,0,0,1-3.668-6.725c-.059-2.339.822-4.863-.3-6.913-1.489-2.711-5.65-2.981-7.155-5.684-.875-1.57-.615-3.6-1.567-5.129-.9-1.434-2.646-2.072-4.3-2.4a16.245,16.245,0,0,1-4.88-1.289c-1.476-.825-2.594-2.635-1.962-4.2a89.547,89.547,0,0,1,21.174,1.848,7.97,7.97,0,0,1,4.426,2c1.172,1.289,1.409,3.149,1.591,4.882q1.331,12.675,2.662,25.349" transform="translate(-136.315 -30.103)" fill="#263238"/>
        <path id="Trazado_833194" data-name="Trazado 833194" d="M318.073,77.539a7.254,7.254,0,0,1,13.193-4.552c1.7,2.441,1.741,5.721.937,8.586-.955,3.4-3.463,6.764-6.979,7.138-3.308.352-6.392-2.13-7.819-5.135s-1.559-6.439-1.666-9.764" transform="translate(-171.885 -38.058)" fill="#263238"/>
        <path id="Trazado_833195" data-name="Trazado 833195" d="M326.534,92.888a1.671,1.671,0,0,0,.407-.617,4.65,4.65,0,0,0,.412-1.976,9.042,9.042,0,0,0-.534-2.939c-.358-1.071-.9-2.166-1.36-3.349a8.782,8.782,0,0,1-.731-3.426c.032-1.069.388-2.028.477-2.882a3.594,3.594,0,0,0-.249-2.007c-.218-.438-.449-.6-.461-.582-.029.023.154.217.312.645a3.744,3.744,0,0,1,.107,1.9,23.87,23.87,0,0,0-.569,2.91,8.775,8.775,0,0,0,.725,3.591c.467,1.206,1.022,2.3,1.386,3.324a9.422,9.422,0,0,1,.6,2.818,5.953,5.953,0,0,1-.525,2.589" transform="translate(-176.565 -40.888)" fill="#455a64"/>
        <path id="Trazado_833196" data-name="Trazado 833196" d="M325.7,87.5a4.6,4.6,0,0,0,1.647,1.184,8.293,8.293,0,0,0,9.26-1.246,4.593,4.593,0,0,0,1.275-1.577c-.057-.045-.508.588-1.464,1.353a8.636,8.636,0,0,1-8.947,1.2c-1.124-.485-1.726-.976-1.77-.918" transform="translate(-177.308 -46.738)" fill="#455a64"/>
        <path id="Trazado_833197" data-name="Trazado 833197" d="M327.207,92.514a4.334,4.334,0,0,0,1.016,1.347,10.344,10.344,0,0,0,7.391,3.039,4.315,4.315,0,0,0,1.669-.243,15.955,15.955,0,0,0-1.663-.051,11.766,11.766,0,0,1-7.2-2.959,15.749,15.749,0,0,0-1.217-1.134" transform="translate(-178.126 -50.362)" fill="#455a64"/>
        <path id="Trazado_833198" data-name="Trazado 833198" d="M285.221,80.723c.006,0,.035-.041.084-.132a3.282,3.282,0,0,0,.2-.413,5.026,5.026,0,0,0,.367-1.728,5.816,5.816,0,0,0-.571-2.736,5.337,5.337,0,0,0-2.62-2.593c-1.228-.612-2.755-.937-3.861-2.041a2.837,2.837,0,0,1-.842-2.117,12.594,12.594,0,0,1,.443-2.549,7.053,7.053,0,0,0-.971-5.561,6.182,6.182,0,0,0-2.255-2.066,7.489,7.489,0,0,0-3.047-.751c-1.047-.077-2.077-.056-3.057-.2a5.838,5.838,0,0,1-2.684-.977,4.161,4.161,0,0,1-1.448-2.288,21.3,21.3,0,0,0-.854-2.65,9.475,9.475,0,0,0-3.2-4.036,7.472,7.472,0,0,0-4.27-1.364,5.967,5.967,0,0,0-3.529,1.1A5.773,5.773,0,0,0,251.3,49.75a4.893,4.893,0,0,0-.489,1.7,2.5,2.5,0,0,0,0,.615,6.006,6.006,0,0,1,.632-2.238,5.7,5.7,0,0,1,5.2-3.005,7.207,7.207,0,0,1,4.073,1.352,9.167,9.167,0,0,1,3.043,3.906,21.289,21.289,0,0,1,.827,2.616,4.554,4.554,0,0,0,1.584,2.5,6.211,6.211,0,0,0,2.87,1.061c1.027.147,2.06.126,3.085.2a7.1,7.1,0,0,1,2.885.7,5.788,5.788,0,0,1,2.108,1.925,6.676,6.676,0,0,1,.935,5.255,12.755,12.755,0,0,0-.434,2.629,3.194,3.194,0,0,0,.962,2.359c1.224,1.185,2.789,1.481,3.979,2.064a5.112,5.112,0,0,1,2.539,2.431,5.751,5.751,0,0,1,.618,2.63,6.338,6.338,0,0,1-.49,2.276" transform="translate(-136.528 -25.328)" fill="#455a64"/>
        <path id="Trazado_833199" data-name="Trazado 833199" d="M278.937,51.132a1.038,1.038,0,0,0,.049-.449,2.037,2.037,0,0,0-.5-1.194,3.214,3.214,0,0,0-1.76-1.054,4.978,4.978,0,0,0-2.7.32c-.951.335-1.906.881-2.986,1.266A4.187,4.187,0,0,1,267.584,50a7.563,7.563,0,0,1-2.514-3.058,14.127,14.127,0,0,0-2.746-3.519,13.075,13.075,0,0,0-7.769-3.5,7.494,7.494,0,0,0-3.719.667,5.87,5.87,0,0,0-2.464,2.184,4.36,4.36,0,0,0-.657,2.633,4.3,4.3,0,0,0,.614,1.956,3.268,3.268,0,0,0,.867.96,1.339,1.339,0,0,0,.387.228,4.594,4.594,0,0,1-1.114-1.27,4.242,4.242,0,0,1-.522-1.887,4.154,4.154,0,0,1,.675-2.466,5.611,5.611,0,0,1,2.363-2.028,7.2,7.2,0,0,1,3.546-.6,12.831,12.831,0,0,1,7.511,3.419,13.848,13.848,0,0,1,2.676,3.419,7.832,7.832,0,0,0,2.684,3.19,3.589,3.589,0,0,0,1.95.411,6.387,6.387,0,0,0,1.809-.408c1.116-.416,2.053-.973,2.972-1.314a4.808,4.808,0,0,1,2.547-.369,3.1,3.1,0,0,1,1.684.933,2.053,2.053,0,0,1,.539,1.1c.043.283.008.438.034.441" transform="translate(-134.846 -21.729)" fill="#455a64"/>
        <path id="Trazado_833200" data-name="Trazado 833200" d="M319.266,116.646a1.973,1.973,0,0,1-.129.477,8.175,8.175,0,0,1-.547,1.234,9.241,9.241,0,0,1-7.139,4.8,8.165,8.165,0,0,1-1.349.041,1.983,1.983,0,0,1-.491-.061c0-.041.705.03,1.822-.126a9.592,9.592,0,0,0,7.029-4.726c.565-.975.766-1.654.8-1.639" transform="translate(-168.549 -63.5)" fill="#455a64"/>
        <path id="Trazado_833201" data-name="Trazado 833201" d="M276.594,121.176a2.2,2.2,0,0,1-.574.049,6.589,6.589,0,0,1-1.561-.184,7.033,7.033,0,0,1-2.156-.9,6.471,6.471,0,0,1-2.032-2.016,6.048,6.048,0,0,1-.866-2.73,5.923,5.923,0,0,1,.291-2.32,4.96,4.96,0,0,1,.724-1.4,3.031,3.031,0,0,1,.276-.327c.067-.072.1-.106.111-.1a7.223,7.223,0,0,0-.95,1.877,6.072,6.072,0,0,0,.616,4.873,6.438,6.438,0,0,0,1.949,1.957,7.226,7.226,0,0,0,2.079.923,11.684,11.684,0,0,0,2.094.3" transform="translate(-146.653 -60.562)" fill="#eb996e"/>
        <path id="Trazado_833202" data-name="Trazado 833202" d="M262.856,89.368c.009.028-.119.105-.354.127a1.347,1.347,0,0,1-1.4-.989c-.059-.229-.029-.375,0-.376.064-.016.138.561.659.929a2.5,2.5,0,0,0,1.1.309" transform="translate(-142.121 -47.977)" fill="#eb996e"/>
        <path id="Trazado_833203" data-name="Trazado 833203" d="M256.393,90.369c-.056-.041.177-.411.222-.924s-.1-.921-.036-.95.333.383.272.973-.417.948-.459.9" transform="translate(-139.573 -48.174)" fill="#eb996e"/>
        <path id="Trazado_833204" data-name="Trazado 833204" d="M258.028,88.946c-.06-.033.072-.357.063-.77s-.139-.734-.081-.769.314.279.318.766-.251.812-.3.773" transform="translate(-140.45 -47.582)" fill="#eb996e"/>
        <path id="Trazado_833205" data-name="Trazado 833205" d="M267.259,142.977a4.984,4.984,0,0,0,4.256.032c2.806-1,5.234-2.827,7.919-4.114s5.935-2,8.6-.661a2.09,2.09,0,0,1,1.261,1.384,3.358,3.358,0,0,1-.315,1.493c-.891,2.812.979,5.676,1.568,8.567a10.234,10.234,0,0,1-4.9,10.678,14.087,14.087,0,0,1-6.975,1.536c-4.712-.028-9.548-1.6-12.843-4.964a7.173,7.173,0,0,1-1.75-2.615,7.656,7.656,0,0,1-.159-3.595,19.255,19.255,0,0,1,3.277-8.223" transform="translate(-143.601 -74.863)" fill="#e8505b"/>
        <g id="Grupo_1080980" data-name="Grupo 1080980" transform="translate(120.183 62.654)" opacity="0.4">
          <g id="Grupo_1080979" data-name="Grupo 1080979">
            <g id="Grupo_1080978" data-name="Grupo 1080978" clip-path="url(#clip-path-5)">
              <path id="Trazado_833206" data-name="Trazado 833206" d="M267.259,142.977a4.984,4.984,0,0,0,4.256.032c2.806-1,5.234-2.827,7.919-4.114s5.935-2,8.6-.661a2.09,2.09,0,0,1,1.261,1.384,3.358,3.358,0,0,1-.315,1.493c-.891,2.812.979,5.676,1.568,8.567a10.234,10.234,0,0,1-4.9,10.678,14.087,14.087,0,0,1-6.975,1.536c-4.712-.028-9.548-1.6-12.843-4.964a7.173,7.173,0,0,1-1.75-2.615,7.656,7.656,0,0,1-.159-3.595,19.255,19.255,0,0,1,3.277-8.223" transform="translate(-263.784 -137.517)"/>
            </g>
          </g>
        </g>
        <path id="Trazado_833207" data-name="Trazado 833207" d="M314.324,157.3c-.018-.011.148-.291.411-.816a14.067,14.067,0,0,0,.925-2.3,9.112,9.112,0,0,0,.375-3.612,8.2,8.2,0,0,0-.537-2.08c-.268-.7-.6-1.414-.873-2.178a8.879,8.879,0,0,1-.4-4.517,4.554,4.554,0,0,0,.1-1.914,2.7,2.7,0,0,0-.9-1.367,4.48,4.48,0,0,0-2.214-.982c-.577-.084-.9-.044-.906-.07a.892.892,0,0,1,.236-.034,3.282,3.282,0,0,1,.682.012,4.405,4.405,0,0,1,2.31.945,2.852,2.852,0,0,1,.982,1.446,4.675,4.675,0,0,1-.072,2,8.784,8.784,0,0,0,.4,4.4c.267.749.6,1.461.866,2.174a8.26,8.26,0,0,1,.538,2.139,9.052,9.052,0,0,1-.432,3.685,12.368,12.368,0,0,1-1,2.291c-.146.257-.265.452-.352.581a.9.9,0,0,1-.14.191" transform="translate(-168.928 -74.808)" fill="#263238"/>
        <path id="Trazado_833208" data-name="Trazado 833208" d="M293.273,150.111a4.448,4.448,0,0,1-.558.5c-.371.305-.921.731-1.622,1.229a34.723,34.723,0,0,1-5.841,3.3,33.788,33.788,0,0,1-6.372,2.114,7.557,7.557,0,0,1-2.034.174,4.293,4.293,0,0,1-.551-.073.6.6,0,0,1-.187-.055c0-.021.266.03.742.036a8.39,8.39,0,0,0,2-.245,38.131,38.131,0,0,0,6.311-2.166A39.325,39.325,0,0,0,291,151.7c.71-.478,1.273-.882,1.661-1.164a4.507,4.507,0,0,1,.615-.423" transform="translate(-150.309 -81.718)" fill="#263238"/>
        <path id="Trazado_833209" data-name="Trazado 833209" d="M289.43,165.32a1.854,1.854,0,0,1-.418.236c-.275.142-.685.322-1.2.521a18.9,18.9,0,0,1-8.5,1.16c-.55-.055-.993-.118-1.3-.181a1.879,1.879,0,0,1-.467-.116c.007-.04.681.063,1.775.129a21.758,21.758,0,0,0,8.427-1.15c1.037-.356,1.659-.636,1.676-.6" transform="translate(-151.096 -89.997)" fill="#263238"/>
        <path id="Trazado_833210" data-name="Trazado 833210" d="M285.041,178.954c-.013.01-.108-.093-.271-.29a6.073,6.073,0,0,1-.6-.9,8.148,8.148,0,0,1-.648-1.472,8.684,8.684,0,0,1-.347-3.9,8.143,8.143,0,0,1,.379-1.563,6.053,6.053,0,0,1,.436-.99,1.271,1.271,0,0,1,.215-.334c.04.021-.23.516-.492,1.375a9.225,9.225,0,0,0-.322,1.539,9.247,9.247,0,0,0,.339,3.808,9.206,9.206,0,0,0,.588,1.458c.409.8.762,1.24.726,1.267" transform="translate(-154.112 -92.277)" fill="#fafafa"/>
        <path id="Trazado_833211" data-name="Trazado 833211" d="M290.4,162.99a2.62,2.62,0,0,1-.11,2.881,13.1,13.1,0,0,0,.25-1.433,13.2,13.2,0,0,0-.139-1.448" transform="translate(-158.025 -88.729)" fill="#fafafa"/>
        <path id="Trazado_833212" data-name="Trazado 833212" d="M279.024,150.063a4.438,4.438,0,0,0-.461.954,8.78,8.78,0,0,0-.254,2.551,15.256,15.256,0,0,0,.671,3.589,3.326,3.326,0,0,1-.448-.992,9.105,9.105,0,0,1-.46-2.589,7.47,7.47,0,0,1,.332-2.613,1.643,1.643,0,0,1,.62-.9" transform="translate(-151.378 -81.692)" fill="#fafafa"/>
        <path id="Trazado_833213" data-name="Trazado 833213" d="M299.85,148.775a3.664,3.664,0,0,1-.742-.918,8.541,8.541,0,0,1-1.294-5.47,3.684,3.684,0,0,1,.252-1.152,10.4,10.4,0,0,0,1.785,7.539" transform="translate(-162.101 -76.887)" fill="#fafafa"/>
        <path id="Trazado_833214" data-name="Trazado 833214" d="M305.871,159.83a18.738,18.738,0,0,0,.191-2.112,18.654,18.654,0,0,0-.288-2.1,4.891,4.891,0,0,1,.1,4.213" transform="translate(-166.455 -84.716)" fill="#fafafa"/>
        <path id="Trazado_833215" data-name="Trazado 833215" d="M305.158,176.04a1.214,1.214,0,0,1-.364-.182,6.1,6.1,0,0,1-.887-.666,7.136,7.136,0,0,1-2.253-6.674,6.1,6.1,0,0,1,.3-1.067,1.216,1.216,0,0,1,.18-.365c.04.015-.181.55-.316,1.46a7.473,7.473,0,0,0,2.2,6.523c.659.642,1.16.934,1.137.97" transform="translate(-164.148 -90.96)" fill="#fafafa"/>
        <path id="Trazado_833216" data-name="Trazado 833216" d="M315.4,150.066a4.533,4.533,0,0,0-.044,2.156,10.444,10.444,0,0,0,.815,2.221,12.039,12.039,0,0,1,1,2.772,9.9,9.9,0,0,1-.351,5.3,9.329,9.329,0,0,1-.681,1.473,2.665,2.665,0,0,1-.336.491,19.11,19.11,0,0,0,.858-2.017,10.248,10.248,0,0,0,.277-5.2,12.482,12.482,0,0,0-.969-2.732,9.884,9.884,0,0,1-.78-2.279,4.136,4.136,0,0,1,0-1.628,2.681,2.681,0,0,1,.132-.423c.041-.093.066-.14.074-.137" transform="translate(-171.543 -81.694)" fill="#fafafa"/>
        <path id="Trazado_833217" data-name="Trazado 833217" d="M268.379,164.574a2.7,2.7,0,0,1-.237-.531,6.289,6.289,0,0,1-.229-.642c-.078-.254-.179-.541-.251-.868a15.529,15.529,0,0,1-.407-2.32,16.157,16.157,0,0,1,.466-5.728,15.517,15.517,0,0,1,.776-2.223c.124-.311.271-.578.388-.816a6.36,6.36,0,0,1,.329-.6,2.741,2.741,0,0,1,.32-.485c.041.023-.385.733-.883,1.963a17.368,17.368,0,0,0-.719,2.213,17.188,17.188,0,0,0-.46,5.654,17.368,17.368,0,0,0,.352,2.3c.292,1.3.6,2.065.554,2.081" transform="translate(-145.452 -81.856)" fill="#fafafa"/>
        <path id="Trazado_833218" data-name="Trazado 833218" d="M285.6,216.735s-.228-4.654-1.612-6.738-8.928-11.211-8.928-11.211a2.041,2.041,0,0,0-2.221.274c-1.015.906.05,2.509.954,4.218s2.1,3.643,2.1,3.643-12.649-13.959-14.134-13.342-1.219,1.364-.7,2.08,4.827,6.087,4.827,6.087-6.382-8.15-8.092-7.245-.685,1.472-.111,2.615,4.393,6,4.393,6-4.469-5.209-5.559-4.208-.7,1.386.348,2.818,3.4,4.556,3.4,4.556-2.224-.988-2.8-.05-.035,1.493,1.308,2.541,6.962,5.3,9.147,7.544,7.341,7.334,7.341,7.334l11.617-4.435Z" transform="translate(-139.293 -105.372)" fill="#ffbe9d"/>
        <path id="Trazado_833219" data-name="Trazado 833219" d="M275.254,223.653l-.005-.005c-.052-.051-5.182-5.115-7.341-7.334a106.022,106.022,0,0,0-8.439-7c-.3-.231-.536-.412-.707-.546-1.355-1.057-1.889-1.619-1.311-2.556.239-.388.8-.5,1.63-.333a6.646,6.646,0,0,1,1.147.361c-.26-.345-2.406-3.187-3.379-4.522l-.174-.237c-.9-1.23-1.207-1.645-.173-2.6a.523.523,0,0,1,.368-.131h.048c.63.037,1.689.779,3.15,2.2.739.721,1.4,1.443,1.747,1.836-.853-1.094-3.666-4.726-4.149-5.688a6.57,6.57,0,0,0-.409-.677c-.265-.4-.493-.746-.405-1.09.074-.292.37-.567.93-.863.395-.209,1.067.045,2,.751a23.421,23.421,0,0,1,2.7,2.535c.779.828,1.523,1.683,2.115,2.386-1.315-1.646-3.222-4.039-3.556-4.5a1.469,1.469,0,0,1-.386-1.178c.1-.356.456-.657,1.088-.919a.3.3,0,0,1,.116-.02c.783,0,3.31,2.171,7.52,6.463,3.014,3.073,5.912,6.246,6.429,6.814-.258-.423-1.258-2.074-2.035-3.541-.1-.195-.209-.39-.311-.578a10.831,10.831,0,0,1-.963-2.078,1.412,1.412,0,0,1,.323-1.575,2.065,2.065,0,0,1,2.233-.277l0,0c.076.091,7.559,9.151,8.929,11.211,1.358,2.043,1.607,6.611,1.614,6.741l1.288,2.492-.012,0ZM258.4,205.829a1.02,1.02,0,0,0-.929.4,1.069,1.069,0,0,0-.066,1.218,5.7,5.7,0,0,0,1.371,1.309c.171.133.408.316.707.546a105.863,105.863,0,0,1,8.441,7c2.129,2.187,7.145,7.14,7.336,7.329l11.6-4.428-1.278-2.476c0-.046-.243-4.675-1.61-6.732s-8.783-11.035-8.926-11.208a2.042,2.042,0,0,0-2.205.274,1.391,1.391,0,0,0-.316,1.551,10.86,10.86,0,0,0,.96,2.074c.1.189.209.384.312.578.894,1.689,2.085,3.623,2.1,3.643l-.018.014c-.124-.137-12.127-13.359-14.011-13.359a.282.282,0,0,0-.109.019c-.626.26-.977.556-1.075.9a1.448,1.448,0,0,0,.383,1.159c.42.575,3.323,4.208,4.414,5.571.256.316.406.507.413.516l-.018.014-.414-.516c-.591-.729-1.745-2.12-2.991-3.445-1.483-1.577-3.372-3.349-4.374-3.349a.623.623,0,0,0-.3.069c-.554.292-.846.562-.918.848-.085.335.13.66.4,1.072a6.672,6.672,0,0,1,.41.68c.568,1.129,4.353,5.948,4.392,6l-.017.015c-.036-.043-3.655-4.242-5.144-4.331a.527.527,0,0,0-.4.124c-1.02.937-.743,1.315.176,2.566l.174.237c1.031,1.416,3.381,4.525,3.4,4.556l.027.035-.04-.018a5.612,5.612,0,0,0-1.859-.451" transform="translate(-139.282 -105.358)" fill="#eb996e"/>
        <path id="Trazado_833220" data-name="Trazado 833220" d="M278.491,213.281a11.373,11.373,0,0,1-.711-1.14,26.9,26.9,0,0,0-1.843-2.647c-.78-.989-1.584-1.807-2.109-2.457a4.7,4.7,0,0,1-.765-1.111c.03-.02.334.392.892,1s1.378,1.417,2.169,2.419a19.293,19.293,0,0,1,1.8,2.71,5.668,5.668,0,0,1,.566,1.224" transform="translate(-148.651 -112.103)" fill="#eb996e"/>
        <path id="Trazado_833221" data-name="Trazado 833221" d="M272.487,218.445a6.241,6.241,0,0,1-.7-.893c-.414-.561-.994-1.33-1.668-2.153s-1.315-1.542-1.785-2.059a6.261,6.261,0,0,1-.738-.861,4.749,4.749,0,0,1,.858.744,25.909,25.909,0,0,1,3.469,4.233,4.759,4.759,0,0,1,.561.988" transform="translate(-145.676 -115.671)" fill="#eb996e"/>
        <path id="Trazado_833222" data-name="Trazado 833222" d="M269.667,225.875a16.481,16.481,0,0,1-2.142-2.131c-.562-.616-1.062-1.18-1.421-1.59a6.908,6.908,0,0,1-.572-.674,11.79,11.79,0,0,1,2.169,2.1,23.359,23.359,0,0,1,1.966,2.291" transform="translate(-144.552 -120.568)" fill="#eb996e"/>
        <g id="Grupo_1080983" data-name="Grupo 1080983" transform="translate(133.552 120.377)" opacity="0.3">
          <g id="Grupo_1080982" data-name="Grupo 1080982">
            <g id="Grupo_1080981" data-name="Grupo 1080981" clip-path="url(#clip-path-6)">
              <path id="Trazado_833223" data-name="Trazado 833223" d="M293.128,264.211s9.134,22.712,15.533,27.159a15.139,15.139,0,0,0,18.623-.895s-5.759,5.2-12.028.446-22.127-26.71-22.127-26.71" transform="translate(-293.128 -264.211)"/>
            </g>
          </g>
        </g>
        <g id="Grupo_1080986" data-name="Grupo 1080986" transform="translate(149.04 94.509)" opacity="0.3">
          <g id="Grupo_1080985" data-name="Grupo 1080985">
            <g id="Grupo_1080984" data-name="Grupo 1080984" clip-path="url(#clip-path-7)">
              <path id="Trazado_833224" data-name="Trazado 833224" d="M327.255,207.433c-.532,4.523.7,8.614.345,13.118a18.134,18.134,0,0,0,0,5.179c.677,3.185,3.772,6.346,6.243,8.467-1.767-8.75-4-18.221-6.584-26.765" transform="translate(-327.12 -207.433)"/>
            </g>
          </g>
        </g>
        <path id="Trazado_833225" data-name="Trazado 833225" d="M324.855,314.625a1.108,1.108,0,1,1,.431-1.563,1.148,1.148,0,0,1-.431,1.563" transform="translate(-175.898 -170.152)" fill="#263238"/>
        <path id="Trazado_833226" data-name="Trazado 833226" d="M307.056,292.706a.993.993,0,1,1,.23-1.517,1.1,1.1,0,0,1-.23,1.517" transform="translate(-166.206 -158.367)" fill="#263238"/>
        <path id="Trazado_833227" data-name="Trazado 833227" d="M319.286,161.418a5.908,5.908,0,0,0-3.246-1.426c-5.7-.847-12.243,2.751-10.5,12.375l4.76,20.024,3.871,15.915-8.464-7.833L291,206.089s16.331,22.382,21.583,26.847,8.961,3.544,13.542.737c0,0,5.632-2.567,5.585-18.69-.041-13.919-3.081-44.453-12.424-53.565" transform="translate(-158.417 -87.033)" fill="#e8505b"/>
        <path id="Trazado_833228" data-name="Trazado 833228" d="M329.186,253.285s-.034.09-.111.261l-.349.757a11,11,0,0,1-6.089,5.358,9.178,9.178,0,0,1-3.126.555,8.349,8.349,0,0,1-3.461-.818,20.269,20.269,0,0,1-6.337-5.087c-1.973-2.172-3.96-4.6-6.021-7.17-4.115-5.155-8.5-10.937-13.014-17.083l-.092-.125.145-.056.689-.263,14.024-5.349.067-.026.052.048,8.458,7.841-.172.1L311.055,220.6l-2.205-8.978-1.419-5.792-.366-1.53c-.038-.168-.068-.3-.09-.394a.812.812,0,0,1-.025-.134.948.948,0,0,1,.041.131l.106.39.4,1.523,1.475,5.779c.626,2.489,1.408,5.5,2.253,8.967l2.83,11.62.082.335-.254-.234-8.471-7.826.118.023-14.021,5.358-.689.263.054-.18c4.512,6.143,8.89,11.928,12.992,17.087,2.054,2.576,4.034,5,6,7.174a20.17,20.17,0,0,0,6.263,5.068,8.21,8.21,0,0,0,3.392.82,9.064,9.064,0,0,0,3.08-.53,10.872,10.872,0,0,0,4.213-2.688,11.305,11.305,0,0,0,1.878-2.568l.369-.745c.084-.168.133-.251.133-.251" transform="translate(-158.192 -110.931)" fill="#263238"/>
        <path id="Trazado_833229" data-name="Trazado 833229" d="M334.879,164.865c0,.042-.814.051-2.093.314a13.868,13.868,0,0,0-2.191.649,8.713,8.713,0,0,0-2.42,1.35,6.4,6.4,0,0,0-1.647,2.2,12.608,12.608,0,0,0-.754,2.154c-.165.632-.277,1.15-.358,1.508a2.76,2.76,0,0,1-.148.552,2.551,2.551,0,0,1,.057-.569c.053-.364.14-.888.285-1.531a11.616,11.616,0,0,1,.719-2.206A6.427,6.427,0,0,1,328.024,167a8.587,8.587,0,0,1,2.494-1.372,12.729,12.729,0,0,1,2.237-.61,11.409,11.409,0,0,1,1.552-.167,2.276,2.276,0,0,1,.572.017" transform="translate(-177.07 -89.739)" fill="#263238"/>
        <path id="Trazado_833230" data-name="Trazado 833230" d="M353.091,270.28a8.945,8.945,0,0,0-.982-1.823,8.117,8.117,0,0,0-4.035-2.8,13.458,13.458,0,0,0-4.96-.474c-.643.046-1.162.106-1.521.149a2.69,2.69,0,0,1-.561.046,2.476,2.476,0,0,1,.547-.138c.356-.071.874-.157,1.52-.224a12.62,12.62,0,0,1,5.047.415,7.937,7.937,0,0,1,4.1,2.923,5.625,5.625,0,0,1,.708,1.373,2.064,2.064,0,0,1,.138.549" transform="translate(-185.654 -144.228)" fill="#263238"/>
        <path id="Trazado_833231" data-name="Trazado 833231" d="M345.831,272.792c-.038.011-.179-.453-.492-1.165a11.966,11.966,0,0,0-3.7-4.716c-.617-.472-1.035-.719-1.015-.754a4.362,4.362,0,0,1,1.114.618,10.365,10.365,0,0,1,3.76,4.788,4.352,4.352,0,0,1,.337,1.229" transform="translate(-185.429 -144.892)" fill="#263238"/>
        <path id="Trazado_833232" data-name="Trazado 833232" d="M329.783,189.84a1.213,1.213,0,1,1,1.5-.8,1.2,1.2,0,0,1-1.5.8" transform="translate(-179.082 -102.058)" fill="#263238"/>
        <path id="Trazado_833233" data-name="Trazado 833233" d="M354.19,191.315a1.346,1.346,0,1,1,.356-1.751,1.268,1.268,0,0,1-.356,1.751" transform="translate(-191.785 -102.812)" fill="#263238"/>
        <path id="Trazado_833234" data-name="Trazado 833234" d="M343.929,211.084a1.5,1.5,0,1,1,1.288-1.376,1.348,1.348,0,0,1-1.288,1.376" transform="translate(-186.642 -113.319)" fill="#263238"/>
        <path id="Trazado_833235" data-name="Trazado 833235" d="M362.331,220.775a1.171,1.171,0,1,1,.536-1.578,1.179,1.179,0,0,1-.536,1.578" transform="translate(-196.319 -118.979)" fill="#263238"/>
        <path id="Trazado_833236" data-name="Trazado 833236" d="M342.113,238.026a1.251,1.251,0,1,1-.1-1.719,1.219,1.219,0,0,1,.1,1.719" transform="translate(-185.081 -128.453)" fill="#263238"/>
        <path id="Trazado_833237" data-name="Trazado 833237" d="M359.363,249.092a1.149,1.149,0,1,1-1.615.345,1.168,1.168,0,0,1,1.615-.345" transform="translate(-194.661 -135.502)" fill="#263238"/>
        <path id="Trazado_833238" data-name="Trazado 833238" d="M371.478,265.984a.994.994,0,1,1,1.119-1.052,1.1,1.1,0,0,1-1.119,1.052" transform="translate(-201.548 -143.737)" fill="#263238"/>
        <path id="Trazado_833239" data-name="Trazado 833239" d="M358.355,281.566a1.051,1.051,0,1,1,1.3-.9,1.121,1.121,0,0,1-1.3.9" transform="translate(-194.506 -152.15)" fill="#263238"/>
        <path id="Trazado_833240" data-name="Trazado 833240" d="M348.559,294.944a1.257,1.257,0,1,1,.123-1.722,1.221,1.221,0,0,1-.123,1.722" transform="translate(-188.658 -159.367)" fill="#263238"/>
        <path id="Trazado_833241" data-name="Trazado 833241" d="M347.861,314.024a1.421,1.421,0,1,1-1.249,1.345,1.307,1.307,0,0,1,1.249-1.345" transform="translate(-188.691 -170.95)" fill="#263238"/>
        <path id="Trazado_833242" data-name="Trazado 833242" d="M327.129,289.614a.982.982,0,0,1-.449.8,1.311,1.311,0,0,1-1.863-.621.98.98,0,0,1,.122-.91,1.579,1.579,0,0,1,.7-.55.913.913,0,0,1,1.254.418,1.581,1.581,0,0,1,.233.862" transform="translate(-176.793 -156.911)" fill="#263238"/>
        <path id="Trazado_833243" data-name="Trazado 833243" d="M335.269,275.4a.969.969,0,1,1,1.39-.607,1.087,1.087,0,0,1-1.39.607" transform="translate(-182.011 -148.901)" fill="#263238"/>
        <path id="Trazado_833244" data-name="Trazado 833244" d="M311.992,266.97a.985.985,0,0,1-.781.528,1.636,1.636,0,0,1-1.73-1.345.986.986,0,0,1,.319-.888,1.441,1.441,0,0,1,2.191,1.7" transform="translate(-168.473 -144.249)" fill="#263238"/>
        <path id="Trazado_833245" data-name="Trazado 833245" d="M367.837,300.794a.952.952,0,0,1,.49.879,2.424,2.424,0,0,1-1.68,2.24.95.95,0,0,1-.981-.224,1.142,1.142,0,0,1-.208-.959,2.7,2.7,0,0,1,1.4-1.868,1.14,1.14,0,0,1,.979-.069" transform="translate(-198.939 -163.704)" fill="#263238"/>
        <path id="Trazado_833246" data-name="Trazado 833246" d="M218.126,151.123s-13.286.733-14.78,13.989c-.97,8.612-8.832,42.494-5.076,46.916,3.873,4.559,12.249,9.876,18.019,1.611s11.441-39.624,11.441-39.624l-12.8-6.593Z" transform="translate(-107.387 -82.27)" fill="#e8505b"/>
        <path id="Trazado_833247" data-name="Trazado 833247" d="M237.9,144.662s-3.752-5.559-3.823-6.683.071-3.512.421-3.582c0,0-.351-.914.071-1.405s1.334-1.334,1.334-1.334-.281-1.4.281-1.756,4.285-3.512,4.285-3.512,1.545-3.161,2.388-3.231,2.318-.141,2.88.281,2.95,2.451,2.95,2.451.773-.007,1.124,0S251.29,128,251.29,128s1.194.141,1.475.773-.562,8.5-.562,8.5l-2.81,8.92L247.1,158.555l-11.531-6.2Z" transform="translate(-127.422 -67.017)" fill="#ffbe9d"/>
        <path id="Trazado_833248" data-name="Trazado 833248" d="M237.822,144.532a.755.755,0,0,1-.031.129l-.108.385-.438,1.5-1.693,5.692-.033-.079,11.547,6.175-.146.07,2.278-12.361v-.007l0-.007,2.806-8.921-.005.023c.063-.622.13-1.292.2-1.965.135-1.408.26-2.8.351-4.178.039-.686.087-1.377.058-2.039a.746.746,0,0,0-.494-.684,2.979,2.979,0,0,0-.922-.278l-.061-.009-.028-.052a17.1,17.1,0,0,0-.962-1.6,3.032,3.032,0,0,0-.28-.347.441.441,0,0,0-.073-.067.141.141,0,0,0-.053-.035,1.2,1.2,0,0,0-.209-.007h-.96l-.033-.027-2.193-1.825-.538-.448a1.375,1.375,0,0,0-.555-.339,4.8,4.8,0,0,0-1.326-.151c-.225,0-.448.007-.671.02a1.957,1.957,0,0,0-.616.084,3.251,3.251,0,0,0-.868.915,18.148,18.148,0,0,0-1.285,2.2l-.01.02-.016.013q-1.536,1.3-2.969,2.473c-.472.385-.965.782-1.417,1.109a1.233,1.233,0,0,0-.224.761,4.02,4.02,0,0,0,.064.83l.009.049-.035.032c-.432.4-.85.8-1.226,1.206a1.334,1.334,0,0,0-.165,1.441l.032.1-.09.008c-.026,0-.094.123-.119.215a2.689,2.689,0,0,0-.079.309c-.042.21-.07.421-.094.63-.046.418-.071.828-.084,1.226a10.394,10.394,0,0,0,.013,1.154,4.1,4.1,0,0,0,.37,1c.626,1.25,1.266,2.27,1.773,3.1l1.2,1.9.311.489a1.334,1.334,0,0,1,.1.169,1.4,1.4,0,0,1-.118-.157l-.329-.477c-.286-.422-.705-1.05-1.231-1.875s-1.17-1.841-1.812-3.095a4.137,4.137,0,0,1-.391-1.037,10.575,10.575,0,0,1-.022-1.17c.011-.4.033-.815.077-1.238.023-.212.05-.427.092-.644a2.756,2.756,0,0,1,.082-.328,1.075,1.075,0,0,1,.068-.166.276.276,0,0,1,.168-.154l-.058.1a2.33,2.33,0,0,1-.144-.816,1.059,1.059,0,0,1,.332-.793c.381-.417.8-.816,1.23-1.223l-.026.082a4.221,4.221,0,0,1-.072-.871,1.391,1.391,0,0,1,.271-.881c.5-.371.947-.733,1.429-1.13.952-.784,1.937-1.615,2.957-2.481l-.026.033a18.323,18.323,0,0,1,1.3-2.233,3.372,3.372,0,0,1,.944-.985,2.013,2.013,0,0,1,.7-.108c.226-.013.454-.021.683-.021a4.978,4.978,0,0,1,1.392.158,1.439,1.439,0,0,1,.342.153,2.833,2.833,0,0,1,.281.22l.54.448,2.2,1.828-.075-.027h.924a1.306,1.306,0,0,1,.251.011.334.334,0,0,1,.147.077.646.646,0,0,1,.1.088,3.28,3.28,0,0,1,.3.376,17.29,17.29,0,0,1,.979,1.623l-.089-.061a3.176,3.176,0,0,1,1,.3,1.406,1.406,0,0,1,.436.336.827.827,0,0,1,.184.538,20.525,20.525,0,0,1-.056,2.072c-.09,1.381-.215,2.776-.35,4.186-.068.674-.136,1.344-.2,1.967v.011l0,.012-2.813,8.92,0-.014c-.829,4.441-1.607,8.61-2.306,12.355l-.026.136-.121-.066-11.515-6.233-.049-.026.016-.053,1.75-5.651.473-1.5.126-.387a.913.913,0,0,1,.049-.132" transform="translate(-127.34 -66.887)" fill="#eb996e"/>
        <path id="Trazado_833249" data-name="Trazado 833249" d="M266.817,135.168a1.215,1.215,0,0,1-1.068-.228,3.243,3.243,0,0,1-.848-.856,6.4,6.4,0,0,1-.765-1.252,3.559,3.559,0,0,1-.149-1.47,3.435,3.435,0,0,1,.2-1.187,1.433,1.433,0,0,1,.5-.648c.165-.108.275-.123.279-.11a1.651,1.651,0,0,0-.624.817,3.636,3.636,0,0,0-.136,1.134,3.588,3.588,0,0,0,.153,1.378,7.084,7.084,0,0,0,.722,1.212,3.394,3.394,0,0,0,.764.844,2.114,2.114,0,0,0,.975.367" transform="translate(-143.704 -70.45)" fill="#eb996e"/>
        <path id="Trazado_833250" data-name="Trazado 833250" d="M269.14,146.453a2.484,2.484,0,0,1-.911-.222,3.805,3.805,0,0,1-.91-.482,2.709,2.709,0,0,1-.831-.966,3.735,3.735,0,0,1-.3-2.25,2.506,2.506,0,0,1,.251-.9,6.878,6.878,0,0,1-.085.922,3.986,3.986,0,0,0,.341,2.123,3.207,3.207,0,0,0,1.594,1.4,7.058,7.058,0,0,1,.846.377" transform="translate(-144.882 -77.102)" fill="#eb996e"/>
        <path id="Trazado_833251" data-name="Trazado 833251" d="M260.016,162.847a14.954,14.954,0,0,0-4.147-4.882,2.953,2.953,0,0,1,.825.487,9.879,9.879,0,0,1,2.975,3.5,2.973,2.973,0,0,1,.347.893" transform="translate(-139.292 -85.993)" fill="#eb996e"/>
        <path id="Trazado_833252" data-name="Trazado 833252" d="M261.439,161.452c-.04.006-.082-.331-.309-.811a4.645,4.645,0,0,0-1.3-1.591,10.857,10.857,0,0,0-1.777-1.1,3.562,3.562,0,0,1-.763-.441,3.049,3.049,0,0,1,.835.29,8.022,8.022,0,0,1,1.854,1.07,4.185,4.185,0,0,1,1.3,1.709,1.643,1.643,0,0,1,.155.877" transform="translate(-140.067 -85.742)" fill="#eb996e"/>
        <path id="Trazado_833253" data-name="Trazado 833253" d="M257.408,174.151c.023.015-.106.273-.442.587a3.106,3.106,0,0,1-3.362.555c-.42-.19-.624-.392-.607-.414a6.894,6.894,0,0,1,.669.257,3.355,3.355,0,0,0,3.192-.527c.346-.266.52-.482.55-.459" transform="translate(-137.728 -94.805)" fill="#eb996e"/>
        <path id="Trazado_833254" data-name="Trazado 833254" d="M247.373,129.455a10.878,10.878,0,0,1,1.764-1.107,1.907,1.907,0,0,1,1.835.013,11.668,11.668,0,0,1,3.88,2.645,3.217,3.217,0,0,1,.836,1.25,3.734,3.734,0,0,1,.1,1.151q-.024,1.355-.047,2.709a2.37,2.37,0,0,1-.144.939,1.24,1.24,0,0,1-1.938.323" transform="translate(-134.667 -69.746)" fill="#ffbe9d"/>
        <path id="Trazado_833255" data-name="Trazado 833255" d="M253.66,137.269a1.453,1.453,0,0,0,.6.266,1.308,1.308,0,0,0,.746-.112,1.02,1.02,0,0,0,.591-.745,7.929,7.929,0,0,0,.055-1.262c0-.464.01-.956.015-1.473a8.994,8.994,0,0,0-.049-1.6,2.934,2.934,0,0,0-.887-1.4,11.76,11.76,0,0,0-2.643-2.028,11.615,11.615,0,0,0-1.312-.637,1.707,1.707,0,0,0-1.193-.116,5.878,5.878,0,0,0-1.627.831,3.191,3.191,0,0,1-.586.352,4.555,4.555,0,0,1,.533-.427,5.4,5.4,0,0,1,1.633-.917,1.64,1.64,0,0,1,.641-.075,2.538,2.538,0,0,1,.67.169,11.237,11.237,0,0,1,1.347.628,11.531,11.531,0,0,1,2.706,2.054,3.121,3.121,0,0,1,.944,1.518,8.734,8.734,0,0,1,.041,1.649c-.013.516-.025,1.009-.036,1.473a7.517,7.517,0,0,1-.088,1.3,1.162,1.162,0,0,1-.7.828,1.367,1.367,0,0,1-.817.081,1.056,1.056,0,0,1-.467-.222c-.089-.079-.123-.131-.118-.135" transform="translate(-134.667 -69.639)" fill="#eb996e"/>
        <path id="Trazado_833256" data-name="Trazado 833256" d="M245.389,144.065a2.219,2.219,0,0,0,2.543.449l.217-2.726a3.338,3.338,0,0,0-.08-1.364,3.268,3.268,0,0,0-.509-.856,25.379,25.379,0,0,0-2.493-2.968,2.349,2.349,0,0,0-3.119-.666A14.668,14.668,0,0,0,237.372,139" transform="translate(-129.223 -73.824)" fill="#ffbe9d"/>
        <path id="Trazado_833257" data-name="Trazado 833257" d="M237.37,138.863c-.006-.006.041-.062.135-.164s.238-.247.431-.427A13.413,13.413,0,0,1,239.7,136.9a13.984,13.984,0,0,1,1.335-.778,8.853,8.853,0,0,1,1.648-.685,2.032,2.032,0,0,1,1-.011,2.6,2.6,0,0,1,.919.473,11.959,11.959,0,0,1,1.494,1.493c.5.575.951,1.161,1.378,1.731a6.659,6.659,0,0,1,.6.878,2.164,2.164,0,0,1,.223,1.013c-.07,1.31-.2,2.439-.277,3.377l0,.047-.04.019a2.262,2.262,0,0,1-2.01-.051,1.988,1.988,0,0,1-.447-.323c-.087-.091-.127-.143-.122-.148a3.735,3.735,0,0,0,.608.392,2.207,2.207,0,0,0,1.9-.014l-.044.065c.053-.93.165-2.089.22-3.362a1.956,1.956,0,0,0-.207-.913,6.662,6.662,0,0,0-.582-.841c-.428-.565-.879-1.147-1.372-1.715a12.091,12.091,0,0,0-1.457-1.464,2.4,2.4,0,0,0-.834-.439,1.823,1.823,0,0,0-.89.005,9,9,0,0,0-1.61.647,14.96,14.96,0,0,0-1.333.744,16.111,16.111,0,0,0-1.788,1.3,8,8,0,0,1-.627.521" transform="translate(-129.221 -73.692)" fill="#eb996e"/>
        <path id="Trazado_833258" data-name="Trazado 833258" d="M243.081,153.856c.038-.006.031.285-.251.577a4.73,4.73,0,0,1-1.191.921,3.594,3.594,0,0,1-2.037.546,14.147,14.147,0,0,0,1.922-.754,6.86,6.86,0,0,0,1.187-.832,2,2,0,0,0,.369-.458" transform="translate(-130.437 -83.757)" fill="#eb996e"/>
        <path id="Trazado_833259" data-name="Trazado 833259" d="M240.226,147.667a1.261,1.261,0,0,0,1,.811,2.162,2.162,0,0,0,.719,1.722,1.1,1.1,0,0,0,.662.307c.495.016.856-.448,1.112-.872q.451-.75.832-1.54a1.126,1.126,0,0,0,.15-.857,1.143,1.143,0,0,0-.3-.392l-1.87-1.832a2.234,2.234,0,0,0-2.545-.72,12.459,12.459,0,0,0-4.811,1.657" transform="translate(-128.027 -78.495)" fill="#ffbe9d"/>
        <path id="Trazado_833260" data-name="Trazado 833260" d="M235.175,145.819c0-.007.048-.049.154-.123s.264-.177.476-.3a9.544,9.544,0,0,1,1.9-.808,17.791,17.791,0,0,1,3-.635,2.151,2.151,0,0,1,.916.115,2.526,2.526,0,0,1,.79.54l1.386,1.352.469.46a3.911,3.911,0,0,1,.457.488.824.824,0,0,1,.084.7,2.694,2.694,0,0,1-.259.582l-.57,1.043a3.362,3.362,0,0,1-.648.927,1.141,1.141,0,0,1-.489.281.864.864,0,0,1-.545-.039,1.779,1.779,0,0,1-.728-.617,2.213,2.213,0,0,1-.411-1.445l.052.063a1.279,1.279,0,0,1-.852-.545,1.068,1.068,0,0,1-.12-.236c-.018-.057-.023-.087-.018-.089s.051.112.189.288a1.254,1.254,0,0,0,.817.464l.054.007,0,.056a2.122,2.122,0,0,0,.426,1.338,1.621,1.621,0,0,0,.66.542.763.763,0,0,0,.826-.216,3.239,3.239,0,0,0,.6-.886l.554-1.037c.188-.344.392-.753.183-1.052a3.966,3.966,0,0,0-.426-.448l-.469-.459-1.38-1.352a2.325,2.325,0,0,0-.714-.5,1.95,1.95,0,0,0-.82-.108,19.3,19.3,0,0,0-2.969.577,11.022,11.022,0,0,0-1.907.729c-.433.216-.662.357-.673.34" transform="translate(-128.026 -78.364)" fill="#eb996e"/>
        <path id="Trazado_833261" data-name="Trazado 833261" d="M243.7,153.332c.012.026-.127.128-.394.187a2.131,2.131,0,0,1-1.046-.067,2.709,2.709,0,0,1-1.252-.732,12.553,12.553,0,0,1,1.322.5,2.82,2.82,0,0,0,.954.128c.248-.012.4-.054.416-.021" transform="translate(-131.204 -83.133)" fill="#eb996e"/>
        <path id="Trazado_833262" data-name="Trazado 833262" d="M199.474,223.57s0-.071,0-.21.011-.353.019-.616a11.7,11.7,0,0,1,.47-2.326,20.39,20.39,0,0,1,1.472-3.466c.672-1.309,1.561-2.733,2.477-4.341a38.329,38.329,0,0,0,2.389-5.567c.758-2.049,1.511-4.28,2.568-6.521,2.031-4.506,4.082-9.562,6.273-14.9l.05-.121.115.061,2.864,1.52,10.729,5.7.081.043-.024.088c-.618,2.252-1.2,4.43-1.706,6.529q-.381,1.573-.7,3.085c-.208,1.006-.409,1.995-.636,2.944-.451,1.9-.92,3.678-1.2,5.361s-.667,3.228-1.021,4.619c-.715,2.781-1.376,4.97-1.83,6.471l-.537,1.716c-.062.188-.109.333-.145.441a.079.079,0,1,1-.019-.006l.127-.447.5-1.726c.431-1.508,1.07-3.7,1.764-6.485.344-1.392.707-2.93.991-4.613s.739-3.479,1.182-5.377c.223-.949.419-1.93.625-2.942s.442-2.041.693-3.093c.5-2.1,1.08-4.286,1.695-6.539l.057.131-10.734-5.7-2.863-1.521.164-.059c-2.192,5.331-4.253,10.388-6.3,14.893-1.059,2.233-1.816,4.449-2.584,6.5a38.072,38.072,0,0,1-2.427,5.58c-.929,1.61-1.824,3.023-2.5,4.321a20.778,20.778,0,0,0-1.5,3.433,12.41,12.41,0,0,0-.509,2.3c-.018.262-.031.465-.042.613s-.021.209-.021.209" transform="translate(-108.59 -100.988)" fill="#263238"/>
        <path id="Trazado_833263" data-name="Trazado 833263" d="M214.217,269.363a1.561,1.561,0,1,1,.646-1.813,1.381,1.381,0,0,1-.646,1.813" transform="translate(-115.691 -145.047)" fill="#263238"/>
        <path id="Trazado_833264" data-name="Trazado 833264" d="M226.922,245.713a.933.933,0,0,1,.091.95,1.731,1.731,0,0,1-2.212.826.933.933,0,0,1-.554-.778,1.348,1.348,0,0,1,.287-.878,1.51,1.51,0,0,1,1.6-.6,1.347,1.347,0,0,1,.793.476" transform="translate(-122.076 -133.482)" fill="#263238"/>
        <path id="Trazado_833265" data-name="Trazado 833265" d="M233.459,270.681a1.468,1.468,0,1,1,1.279-1.359,1.333,1.333,0,0,1-1.279,1.359" transform="translate(-126.498 -145.789)" fill="#263238"/>
        <path id="Trazado_833266" data-name="Trazado 833266" d="M245.641,228.673a.967.967,0,0,1,.313.876,1.446,1.446,0,0,1-1.76,1.12.968.968,0,0,1-.661-.654,1.46,1.46,0,0,1,.036-.9,1.105,1.105,0,0,1,1.238-.788,1.46,1.46,0,0,1,.834.35" transform="translate(-132.546 -124.293)" fill="#263238"/>
        <path id="Trazado_833267" data-name="Trazado 833267" d="M231.28,212.664a1.344,1.344,0,1,1-1.672-.628,1.267,1.267,0,0,1,1.672.628" transform="translate(-124.511 -115.376)" fill="#263238"/>
        <path id="Trazado_833268" data-name="Trazado 833268" d="M244.406,203.5a.921.921,0,0,1-1,.274,2.581,2.581,0,0,1-1.846-2.461.922.922,0,0,1,.542-.88,1.192,1.192,0,0,1,.979.172,3.3,3.3,0,0,1,1.431,1.907,1.19,1.19,0,0,1-.109.988" transform="translate(-131.503 -109.089)" fill="#263238"/>
        <path id="Trazado_833269" data-name="Trazado 833269" d="M210.755,219.979a1.322,1.322,0,0,1,.366.858,1.707,1.707,0,0,1-.8,1.6,1.319,1.319,0,0,1-.906.222.922.922,0,0,1-.716-.649,1.852,1.852,0,0,1,1.109-2.219.922.922,0,0,1,.949.184" transform="translate(-113.57 -119.624)" fill="#263238"/>
        <path id="Trazado_833270" data-name="Trazado 833270" d="M214.557,201.05a1.375,1.375,0,1,1,.056-1.805,1.284,1.284,0,0,1-.056,1.805" transform="translate(-115.647 -108.17)" fill="#263238"/>
        <path id="Trazado_833271" data-name="Trazado 833271" d="M221.857,178.559c.609-.243,1.445.419,1.867,1.478s.272,2.115-.337,2.357-1.444-.419-1.867-1.478-.271-2.114.337-2.357" transform="translate(-120.463 -97.178)" fill="#263238"/>
        <path id="Trazado_833272" data-name="Trazado 833272" d="M226.929,166.141a1.367,1.367,0,1,1-1.514-.976,1.279,1.279,0,0,1,1.514.976" transform="translate(-122.072 -89.905)" fill="#263238"/>
        <path id="Trazado_833273" data-name="Trazado 833273" d="M322.455,24.671a2.817,2.817,0,0,1-1.172-.284,2.806,2.806,0,0,1,1.2-.148c.655-.007,1.181.12,1.171.284s-.547.23-1.2.148" transform="translate(-174.903 -13.195)" fill="#263238"/>
        <path id="Trazado_833274" data-name="Trazado 833274" d="M320.49,29.012c-.445-.481-.766-.917-.715-.971s.505.241,1.011.657.827.852.715.971-.567-.175-1.011-.656" transform="translate(-174.079 -15.261)" fill="#263238"/>
        <path id="Trazado_833275" data-name="Trazado 833275" d="M316.205,30.959a2.826,2.826,0,0,1,.077-1.2,2.818,2.818,0,0,1,.353,1.154c.12.644.086,1.184-.078,1.2s-.321-.5-.352-1.153" transform="translate(-172.132 -16.198)" fill="#263238"/>
        <path id="Trazado_833276" data-name="Trazado 833276" d="M310.25,29.752c.4-.522.771-.913.833-.872a2.822,2.822,0,0,1-.472,1.11c-.322.57-.7.962-.832.872s.074-.589.471-1.11" transform="translate(-168.617 -15.72)" fill="#263238"/>
        <path id="Trazado_833277" data-name="Trazado 833277" d="M306.5,25.94a2.849,2.849,0,0,1,1.2-.134,2.85,2.85,0,0,1-1.074.549c-.612.231-1.15.292-1.2.134s.435-.4,1.074-.549" transform="translate(-166.27 -14.032)" fill="#263238"/>
        <path id="Trazado_833278" data-name="Trazado 833278" d="M307.019,20.182c.583.3,1.034.6,1,.667a2.849,2.849,0,0,1-1.175-.271c-.618-.217-1.069-.516-1-.667s.593-.029,1.175.271" transform="translate(-166.494 -10.804)" fill="#263238"/>
        <path id="Trazado_833279" data-name="Trazado 833279" d="M311.552,15.583a2.84,2.84,0,0,1,.342,1.156c-.066.034-.393-.4-.728-.961s-.489-1.082-.342-1.156.473.358.728.961" transform="translate(-169.179 -7.956)" fill="#263238"/>
        <path id="Trazado_833280" data-name="Trazado 833280" d="M317.444,14.964a2.84,2.84,0,0,1-.482,1.106,2.839,2.839,0,0,1,.06-1.2c.1-.647.32-1.143.481-1.106s.133.578-.059,1.2" transform="translate(-172.529 -7.49)" fill="#263238"/>
        <path id="Trazado_833281" data-name="Trazado 833281" d="M321.262,18.634a2.82,2.82,0,0,1-1.079.538c-.045-.06.324-.457.82-.884s.98-.669,1.079-.538-.27.529-.82.884" transform="translate(-174.302 -9.643)" fill="#263238"/>
        <path id="Trazado_833282" data-name="Trazado 833282" d="M211.023,70.121a3.3,3.3,0,0,1-1.167-.307,3.307,3.307,0,0,1,1.2-.131c.655-.009,1.18.128,1.167.307s-.553.237-1.2.131" transform="translate(-114.243 -37.935)" fill="#263238"/>
        <path id="Trazado_833283" data-name="Trazado 833283" d="M208.675,73.947a3.322,3.322,0,0,1-.488-1.1c.052-.035.435.349.851.856s.636,1,.488,1.1-.53-.285-.851-.856" transform="translate(-113.33 -39.654)" fill="#263238"/>
        <path id="Trazado_833284" data-name="Trazado 833284" d="M203.41,74.412a3.337,3.337,0,0,1,.558-1.07,3.36,3.36,0,0,1-.139,1.2c-.136.641-.386,1.122-.558,1.069s-.109-.592.138-1.2" transform="translate(-110.606 -39.926)" fill="#263238"/>
        <path id="Trazado_833285" data-name="Trazado 833285" d="M198.65,71.3a3.368,3.368,0,0,1,1.184-.232,3.342,3.342,0,0,1-1.023.64c-.585.293-1.118.4-1.184.231s.395-.454,1.023-.64" transform="translate(-107.583 -38.68)" fill="#263238"/>
        <path id="Trazado_833286" data-name="Trazado 833286" d="M199.329,65.518a3.311,3.311,0,0,1,.919.782,3.331,3.331,0,0,1-1.138-.4c-.595-.275-1.008-.626-.919-.782s.6.026,1.138.4" transform="translate(-107.887 -35.419)" fill="#263238"/>
        <path id="Trazado_833287" data-name="Trazado 833287" d="M204.89,61.891a3.338,3.338,0,0,1-.037,1.206,3.323,3.323,0,0,1-.4-1.139c-.156-.636-.14-1.178.037-1.206s.355.486.4,1.139" transform="translate(-111.245 -33.072)" fill="#263238"/>
        <path id="Trazado_833288" data-name="Trazado 833288" d="M209.591,64.028a3.316,3.316,0,0,1-.965.724,3.307,3.307,0,0,1,.642-1.021c.4-.519.833-.845.965-.724s-.158.58-.642,1.021" transform="translate(-113.571 -34.286)" fill="#263238"/>
        <path id="Trazado_833289" data-name="Trazado 833289" d="M345.518,38.645a6.216,6.216,0,0,1-1.159-.329,6.262,6.262,0,0,1,1.2-.082c.655-.012,1.178.135,1.158.329s-.563.23-1.2.082" transform="translate(-187.465 -20.813)" fill="#263238"/>
        <path id="Trazado_833290" data-name="Trazado 833290" d="M343.042,41.11a6.416,6.416,0,0,1-.044-1.2,6.479,6.479,0,0,1,.448,1.118c.214.619.236,1.162.044,1.2s-.393-.465-.448-1.118" transform="translate(-186.716 -21.724)" fill="#263238"/>
        <path id="Trazado_833291" data-name="Trazado 833291" d="M337.574,39.5a6.369,6.369,0,0,1,1.13-.416,6.328,6.328,0,0,1-.924.773c-.522.4-1.031.584-1.13.416s.32-.518.923-.773" transform="translate(-183.261 -21.276)" fill="#263238"/>
        <path id="Trazado_833292" data-name="Trazado 833292" d="M338.5,34.2a6.288,6.288,0,0,1,.744.947,6.253,6.253,0,0,1-1.021-.64c-.537-.375-.873-.8-.744-.947s.59.145,1.02.64" transform="translate(-183.705 -18.251)" fill="#263238"/>
        <path id="Trazado_833293" data-name="Trazado 833293" d="M344.016,33.067a6.434,6.434,0,0,1-.67,1,6.418,6.418,0,0,1,.293-1.168c.19-.627.491-1.079.67-1s.044.607-.293,1.168" transform="translate(-186.912 -17.361)" fill="#263238"/>
        <path id="Trazado_833294" data-name="Trazado 833294" d="M211.668,131.666a3.547,3.547,0,0,1-.661.041c-.426.01-1.042.013-1.8.006-1.522-.011-3.624-.067-5.943-.144l-5.94-.214-1.8-.069a3.51,3.51,0,0,1-.66-.051,3.523,3.523,0,0,1,.661-.041c.426-.01,1.042-.014,1.8-.007,1.522.012,3.624.067,5.945.144l5.939.214,1.8.069a3.558,3.558,0,0,1,.66.051" transform="translate(-106.08 -71.415)" fill="#263238"/>
        <path id="Trazado_833295" data-name="Trazado 833295" d="M216.847,121.549c-.026.06-2.648-.989-5.856-2.344s-5.79-2.5-5.764-2.562,2.647.989,5.857,2.344,5.789,2.5,5.764,2.562" transform="translate(-111.722 -63.498)" fill="#263238"/>
        <path id="Trazado_833296" data-name="Trazado 833296" d="M223.535,137.651a56.933,56.933,0,0,1-6.444,3.526,56.842,56.842,0,0,1,6.444-3.526" transform="translate(-118.182 -74.934)" fill="#263238"/>
      </g>
    </g>
  </g>
</svg>
